<svg width="200" height="200" viewBox="0 0 200 200" fill="none" xmlns="http://www.w3.org/2000/svg">
<path d="M104.95 192.65C101.15 191.35 99.7 188.65 99.9 184.7C100.05 181.1 99.9 177.45 99.9 173.85C99.9 173.75 99.85 173.65 99.9 173.8C94.7 173.8 89.6 173.85 84.5 173.8C80.8 173.75 78.25 171.9 76.85 168.45C76 166.4 75.25 164.25 74.3 162.25C74 161.6 73.25 160.9 72.6 160.7C66 158.9 59.7 156.35 53.75 152.9C53.15 152.55 52.15 152.5 51.45 152.75C49.25 153.55 47.1 154.55 44.95 155.45C41.9 156.7 38.95 156.4 36.55 154.1C33.3 151.05 30.15 147.85 27.1 144.65C24.8 142.2 24.5 139.3 25.75 136.25C26.6 134.15 27.65 132.05 28.4 129.9C28.65 129.15 28.65 128.1 28.3 127.45C24.85 121.5 22.25 115.25 20.5 108.6C20.3 107.9 19.6 107.15 18.95 106.85C16.8 105.85 14.6 105.1 12.4 104.2C9.25 102.85 7.5 100.5 7.45 97.05C7.35 92.7 7.35 88.35 7.45 84.05C7.55 80.7 9.25 78.35 12.35 77.05C14.55 76.1 16.85 75.3 19.05 74.3C19.65 74 20.3 73.35 20.5 72.7C22.25 66 24.9 59.7 28.4 53.7C28.75 53.15 28.75 52.2 28.55 51.55C27.7 49.3 26.65 47.1 25.75 44.85C24.55 41.85 24.85 38.95 27.1 36.6C30.2 33.3 33.4 30.1 36.7 27C39.1 24.75 41.95 24.45 44.95 25.65C47.05 26.5 49.15 27.55 51.3 28.3C52.1 28.55 53.25 28.55 53.9 28.15C59.75 24.8 65.9 22.2 72.4 20.55C73.55 20.25 74.15 19.7 74.5 18.65C75.3 16.5 76.15 14.35 77.05 12.25C78.35 9.20001 80.7 7.45001 84.05 7.40001C88.4 7.30001 92.75 7.30001 97.05 7.40001C100.45 7.45001 102.85 9.25001 104.15 12.35C105.05 14.5 105.85 16.75 106.8 18.9C107.1 19.55 107.85 20.25 108.55 20.4C115.15 22.15 121.3 24.75 127.25 28.1C127.95 28.5 129.1 28.55 129.85 28.3C132 27.55 134.05 26.5 136.2 25.65C139.25 24.4 142.2 24.75 144.6 27.05C147.85 30.1 151 33.3 154.05 36.5C156.3 38.9 156.6 41.75 155.45 44.75C154.75 46.55 154 48.25 153.1 50.35C154.15 50.35 154.85 50.35 155.55 50.35C165.2 50.35 174.9 50.45 184.55 50.3C188.45 50.25 191.25 51.4 192.65 55.15C192.65 99.25 192.65 143.4 192.65 187.5C191.8 190.05 190.1 191.75 187.55 192.6C160.1 192.65 132.5 192.65 104.95 192.65ZM123.85 50.4C123.9 50.25 123.95 50.1 124 50C123.5 49.6 123.05 49.15 122.55 48.8C106.3 37.05 88.7 34.45 70.15 42.1C47.35 51.45 34.55 74.7 38.55 99C41.45 116.7 51.3 129.6 67.25 137.8C74.45 141.5 82.2 143.1 90.3 143.3C92.45 143.35 93.75 144.75 93.65 146.55C93.55 148.25 92.2 149.4 90.05 149.3C87.35 149.2 84.6 149.1 81.9 148.7C41.5 142.5 19.55 98.35 39 62.5C50.45 41.4 73.95 29.3 97.55 32.3C111.1 34 122.7 39.7 132.35 49.3C132.9 49.85 133.75 50.25 134.5 50.3C138.05 50.4 141.65 50.3 145.2 50.35C146.2 50.35 146.7 50 147.1 49.05C147.9 46.95 148.95 44.95 149.65 42.85C149.9 42.05 149.7 40.7 149.2 40.15C146.6 37.3 143.8 34.65 141.05 31.9C140.15 31 139.25 30.9 138.1 31.45C135.5 32.6 132.9 33.65 130.3 34.8C128.8 35.45 127.45 35.45 126 34.5C119.55 30.4 112.55 27.55 105.05 25.85C103.55 25.5 102.6 24.7 102.05 23.3C101 20.6 99.9 17.95 98.85 15.2C98.4 14.05 97.75 13.4 96.45 13.4C92.55 13.45 88.6 13.45 84.7 13.4C83.5 13.4 82.85 14 82.45 15.1C81.4 17.8 80.25 20.45 79.25 23.2C78.7 24.7 77.7 25.5 76.1 25.85C68.65 27.5 61.7 30.35 55.3 34.45C53.8 35.4 52.4 35.45 50.85 34.75C48.3 33.6 45.75 32.6 43.2 31.45C42 30.9 41.05 30.95 40.1 31.9C37.45 34.6 34.75 37.3 32.05 39.95C31.1 40.9 31.05 41.85 31.6 43.05C32.75 45.55 33.75 48.15 34.9 50.7C35.6 52.25 35.55 53.65 34.6 55.15C30.5 61.55 27.65 68.5 26 75.95C25.65 77.5 24.8 78.5 23.3 79.05C20.6 80.1 17.95 81.2 15.2 82.25C14.1 82.65 13.5 83.3 13.5 84.5C13.5 88.25 13.55 92 13.45 95.7C13.4 97.45 14.25 98.3 15.8 98.85C18.3 99.75 20.75 100.8 23.2 101.75C24.7 102.3 25.55 103.25 25.9 104.85C27.55 112.35 30.45 119.35 34.6 125.8C35.5 127.2 35.55 128.6 34.85 130.1C33.7 132.7 32.65 135.35 31.5 137.9C31 139.05 31.1 139.95 32 140.85C34.7 143.5 37.4 146.2 40.05 148.95C41 149.9 41.95 150 43.15 149.45C45.7 148.3 48.25 147.3 50.8 146.15C52.35 145.45 53.75 145.45 55.25 146.4C61.6 150.5 68.5 153.3 75.9 154.95C77.7 155.35 78.75 156.3 79.35 158C80.3 160.6 81.3 163.2 82.5 165.7C82.85 166.45 83.8 167.35 84.5 167.35C88.6 167.5 92.7 167.45 96.8 167.4C97.4 167.4 98.3 166.85 98.45 166.35C99.1 164.6 99.85 162.8 99.85 161C99.95 126.55 99.95 92.1 99.95 57.65C99.95 52.4 102.15 50.2 107.45 50.2C112.05 50.2 116.65 50.2 121.25 50.2C122.1 50.4 123 50.4 123.85 50.4ZM186.2 121.4C186.2 100.75 186.2 80.05 186.2 59.4C186.2 56.8 186.2 56.8 183.6 56.8C158.75 56.8 133.9 56.8 109.1 56.8C106.45 56.8 106.45 56.8 106.45 59.4C106.45 100.7 106.45 141.95 106.45 183.25C106.45 186.1 106.55 186.15 109.45 186.15C134.05 186.15 158.65 186.15 183.25 186.15C186.2 186.15 186.25 186.1 186.25 183.05C186.2 162.5 186.2 141.95 186.2 121.4Z" fill="#861BB9"/>
<path d="M112.05 121.6C112.05 108.45 112.05 95.25 112.05 82.1C112.05 78.25 113.5 76.55 117.25 75.7C121.95 74.65 125.1 71.95 126.2 67.1C126.85 64.25 128.9 62.45 131.9 62.45C141.5 62.4 151.1 62.35 160.7 62.45C163.75 62.5 165.65 64.25 166.4 67.3C167.45 71.75 170.3 74.4 174.65 75.5C179.4 76.65 180.5 78.05 180.5 82.9C180.5 108.75 180.5 134.6 180.5 160.5C180.5 164.95 179.15 166.55 174.85 167.5C170.5 168.5 167.55 171.05 166.45 175.5C165.55 179.15 163.8 180.55 160.05 180.55C150.85 180.55 141.7 180.55 132.5 180.55C128.85 180.55 127.05 179.15 126.15 175.65C125 171.05 122 168.45 117.45 167.5C113.5 166.7 112.05 164.9 112.05 160.85C112.05 147.7 112.05 134.65 112.05 121.6ZM118.5 121.4C118.5 133.9 118.5 146.4 118.5 158.9C118.5 160.05 118.55 160.85 120 161.25C126.1 162.9 130.2 166.75 132.25 172.8C132.45 173.35 133.3 173.95 133.85 174C142.15 174.1 150.4 174.05 158.7 174.05C159.7 174.05 160.15 173.7 160.45 172.7C162.4 166.7 166.5 162.95 172.55 161.3C173.8 160.95 174.15 160.4 174.15 159.2C174.1 134.05 174.1 108.95 174.15 83.8C174.15 82.5 173.7 82.05 172.5 81.7C166.6 80 162.45 76.35 160.5 70.4C160.15 69.3 159.6 69 158.55 69.05C150.35 69.1 142.1 69.1 133.9 69.05C132.9 69.05 132.45 69.35 132.1 70.35C130.25 76.15 126.3 79.9 120.5 81.55C118.75 82.05 118.45 82.85 118.45 84.45C118.55 96.75 118.5 109.1 118.5 121.4Z" fill="#861BB9"/>
<path d="M168.1 121.5C168.05 133.4 158.3 143.2 146.4 143.25C134.45 143.3 124.55 133.4 124.55 121.45C124.55 109.35 134.4 99.7 146.6 99.75C158.35 99.8 168.1 109.7 168.1 121.5ZM146.35 106.4C137.85 106.4 131.2 112.9 131.15 121.35C131.1 129.9 137.75 136.7 146.1 136.7C154.7 136.7 161.35 130.05 161.35 121.45C161.4 113 154.8 106.4 146.35 106.4Z" fill="#861BB9"/>
<path d="M146.45 75.05C151.6 75.1 155.75 79.35 155.7 84.45C155.6 89.65 151.3 93.8 146.05 93.7C141.05 93.6 136.85 89.3 136.9 84.35C136.95 79.15 141.2 75 146.45 75.05ZM149.05 84.4C149.1 82.9 147.9 81.6 146.4 81.55C145 81.5 143.6 82.8 143.55 84.2C143.5 85.85 144.65 87.05 146.3 87.05C147.9 87.05 149 85.95 149.05 84.4Z" fill="#861BB9"/>
<path d="M146.4 168C141.35 168.05 137 163.85 136.9 158.75C136.8 153.65 141.05 149.3 146.3 149.25C151.3 149.15 155.7 153.55 155.7 158.55C155.7 163.65 151.5 167.95 146.4 168ZM149.05 158.55C149 157 147.8 155.85 146.25 155.85C144.65 155.85 143.45 157.15 143.55 158.8C143.65 160.35 144.85 161.45 146.45 161.4C148 161.3 149.1 160.1 149.05 158.55Z" fill="#861BB9"/>
</svg>
