<svg width="200" height="200" viewBox="0 0 200 200" fill="none" xmlns="http://www.w3.org/2000/svg">
<path d="M60.5508 195.6C59.6508 195.2 58.8008 194.75 57.9008 194.35C51.4508 191.4 47.9008 186.45 47.7008 179.35C47.6008 174.85 47.7008 170.3 47.8008 165.8C47.8508 164.45 47.4008 164.05 46.0508 164.05C39.6508 164.15 33.2008 164.2 26.8008 164.25C26.1508 164.25 25.4008 164.15 24.8508 163.8C19.5508 160.45 14.3008 157.05 9.05078 153.65C8.75078 153.45 8.40078 153.3 7.80078 152.95C9.90078 151.55 11.6008 150.45 13.2508 149.4C16.5508 147.25 19.9008 145.2 23.1008 143C24.6008 141.95 26.1008 141.65 27.8508 141.7C31.9508 141.85 36.0008 141.95 40.1008 142C42.1508 142.05 44.2508 141.95 46.3008 142C47.5508 142.05 48.0008 141.5 47.9508 140.3C47.8008 135.85 47.6008 131.4 47.5008 126.95C47.4508 123.9 47.4008 120.9 47.4508 117.85C47.4508 104.8 47.5008 91.7 47.5008 78.65C47.5008 68.5 47.5508 58.35 47.5008 48.2C47.5008 39 47.4008 29.85 47.4508 20.65C47.5008 13.6 52.8508 6.75 59.6508 5.05C61.4008 4.6 63.3008 4.35 65.1008 4.35C89.6508 4.3 114.201 4.3 138.751 4.35C148.101 4.35 155.801 12.2 155.601 20.95C155.451 27.35 155.551 33.8 155.601 40.2C155.651 48.85 155.701 57.5 155.701 66.15C155.701 73.7 155.551 81.25 155.551 88.75C155.551 100 155.601 111.25 155.551 122.55C155.501 128.35 155.301 134.1 155.201 139.9C155.151 141.95 155.251 142 157.351 142C162.901 142 168.401 142 173.951 142C176.351 142 178.701 141.7 181.101 141.75C187.451 141.85 192.151 146.65 192.101 152.9C192.051 159.25 187.251 164.1 180.901 164.1C175.701 164.1 170.501 163.95 165.301 163.95C162.501 163.95 159.651 164.1 156.851 164.1C155.601 164.1 155.351 164.65 155.351 165.75C155.451 170 155.501 174.25 155.551 178.5C155.551 186.55 151.051 192.6 143.401 195.05C143.051 195.15 142.801 195.45 142.501 195.65C115.151 195.6 87.8508 195.6 60.5508 195.6ZM101.651 141.9V141.85C114.251 141.85 126.851 141.85 139.401 141.85C141.951 141.85 144.501 141.9 147.051 141.95C148.351 142 148.951 141.45 148.801 140.15C148.651 138.85 148.501 137.5 148.451 136.2C148.401 132.6 148.401 129 148.351 125.35C148.301 115.15 148.251 105 148.201 94.8C148.151 87.7 148.151 80.6 148.151 73.45C148.151 63.85 148.201 54.25 148.251 44.6C148.251 43.4 147.851 43.05 146.701 43.05C135.251 43.05 123.751 43 112.301 43C103.751 43 95.2008 43.1 86.6508 43.1C76.7008 43.1 66.8008 42.95 56.8508 42.9C54.8508 42.9 54.8008 42.95 54.8008 44.95C54.8508 57.5 54.9508 70 55.0008 82.55C55.0508 91.1 54.9508 99.65 54.9508 108.15C54.9508 113.7 55.0508 119.3 54.9508 124.85C54.9008 129.8 54.6008 134.7 54.4508 139.65C54.4008 141.7 54.5508 141.85 56.5508 141.85C71.5508 141.9 86.6008 141.9 101.651 141.9ZM101.501 35.55C109.401 35.55 117.351 35.55 125.251 35.55C132.401 35.55 139.601 35.55 146.751 35.6C147.901 35.6 148.401 35.3 148.301 34.05C148.201 32.45 148.251 30.85 148.201 29.25C148.151 26.1 148.301 22.95 147.951 19.85C147.401 14.65 144.101 11.65 138.851 11.45C133.501 11.35 128.151 11.45 122.801 11.45C110.701 11.45 98.6008 11.55 86.5008 11.55C79.4008 11.55 72.2508 11.5 65.1508 11.5C62.6008 11.5 60.2508 12.05 58.2008 13.8C55.7008 15.95 55.1008 18.8 55.0508 21.8C54.9508 25.95 55.0008 30.05 54.9008 34.2C54.9008 35.3 55.2508 35.55 56.2508 35.55C71.3508 35.55 86.4008 35.55 101.501 35.55ZM101.551 164.1C93.2008 164.1 84.9008 164.1 76.5508 164.1C69.7008 164.1 62.8508 164.1 56.0008 164.15C55.5508 164.15 54.7008 164.85 54.7008 165.2C54.7008 169.85 54.7508 174.55 54.9508 179.2C55.0508 181.4 55.7508 183.4 57.2508 185.15C59.6008 187.85 62.7008 188.45 66.0008 188.45C77.3508 188.45 88.7008 188.45 100.101 188.45C106.601 188.45 113.051 188.45 119.551 188.45C126.151 188.45 132.701 188.5 139.301 188.3C144.551 188.15 148.201 184.35 148.351 179.1C148.501 174.65 148.501 170.2 148.651 165.75C148.701 164.5 148.251 164.05 147.001 164.05C143.751 164.1 140.501 164.05 137.301 164.05C125.301 164.1 113.401 164.1 101.551 164.1ZM21.1008 152.9C23.6508 154.45 25.8008 155.85 28.0008 157.15C28.2508 157.3 28.6008 157.2 28.9508 157.2C31.1508 157.15 33.3508 157.05 35.5008 157.05C79.4008 157.05 123.301 157.05 167.151 157.05C167.801 157.05 168.501 157.05 169.151 157.05C169.151 154.1 169.151 151.35 169.151 148.45C168.401 148.45 167.701 148.45 167.051 148.45C123.501 148.45 79.9008 148.45 36.3508 148.45C34.9508 148.45 33.6008 148.3 32.2008 148.35C30.6508 148.4 28.9508 148.15 27.6508 148.75C25.5008 149.7 23.6008 151.25 21.1008 152.9ZM176.601 152.7C176.701 157.6 176.801 157.75 181.451 157.1C181.801 157.05 182.201 156.95 182.501 156.8C184.601 155.95 185.751 153.45 184.901 151.45C183.851 148.9 181.351 147.7 177.601 148.6C175.501 149.1 177.051 151.25 176.551 152.55C176.601 152.6 176.601 152.65 176.601 152.7Z" fill="#861BB9"/>
<path d="M26.1004 43.15C21.6004 43.15 17.1004 43.1 12.6004 43.15C11.3504 43.15 10.8504 42.75 11.0004 41.5C11.1504 40.1 11.1504 38.65 11.1004 37.2C11.0504 36 11.5004 35.6 12.6504 35.6C15.5504 35.6 18.5004 35.55 21.4004 35.55C27.3004 35.55 33.2004 35.5 39.0504 35.5C41.4504 35.5 41.4504 35.5 41.4004 37.85C41.4004 39 41.4004 40.2 41.4504 41.35C41.5004 42.6 40.9504 43.1 39.6004 43.1C35.1004 43.05 30.6004 43.1 26.1004 43.15C26.1004 43.1 26.1004 43.1 26.1004 43.15Z" fill="#861BB9"/>
<path d="M177.15 113.5C181.75 113.5 186.4 113.45 191 113.55C191.4 113.55 192.1 114.25 192.1 114.7C192.2 116.4 192.1 118.1 192.1 119.8C192.1 120.95 191.35 121 190.5 121C182.95 121 175.4 121 167.85 121C166.35 121 164.85 121 163.4 121.05C162.25 121.1 161.7 120.65 161.7 119.5C161.7 118.05 161.75 116.65 161.7 115.2C161.65 113.95 162.2 113.55 163.4 113.55C168 113.6 172.6 113.55 177.15 113.5Z" fill="#861BB9"/>
<path d="M28.5004 94.9C23.3004 94.9 18.1004 94.85 12.9004 94.95C11.4504 94.95 10.8504 94.5 11.0004 93.05C11.1004 91.75 11.1004 90.4 11.0504 89.05C11.0504 88.05 11.3504 87.55 12.4004 87.6C14.2504 87.6 16.1004 87.55 17.9504 87.55C25.1504 87.55 32.3504 87.6 39.6004 87.6C40.8504 87.6 41.5004 87.95 41.4004 89.35C41.3004 90.75 41.3004 92.1 41.4004 93.5C41.4504 94.65 41.0004 95 39.9004 95C36.1504 94.85 32.3004 94.9 28.5004 94.9Z" fill="#861BB9"/>
<path d="M176.901 61.65C181.451 61.65 186.051 61.7 190.601 61.65C191.801 61.65 192.251 62.05 192.201 63.2C192.151 64.65 192.151 66.05 192.201 67.5C192.201 68.6 191.701 68.95 190.651 68.95C181.551 68.95 172.501 68.95 163.401 69C162.151 69 161.651 68.55 161.701 67.35C161.751 66 161.801 64.7 161.701 63.35C161.601 62.05 162.051 61.55 163.401 61.6C167.901 61.7 172.401 61.65 176.901 61.65Z" fill="#861BB9"/>
<path d="M34.3004 108.1C31.8004 108.1 29.3004 108.05 26.8504 108.1C25.8004 108.1 25.4004 107.7 25.4504 106.7C25.5004 105.1 25.5004 103.5 25.5004 101.9C25.5004 100.95 25.8504 100.55 26.8004 100.55C31.2004 100.55 35.6004 100.55 40.0504 100.5C41.2504 100.5 41.7004 101 41.7004 102.1C41.6504 103.75 41.7504 105.4 41.5004 107C41.4504 107.45 40.5004 108 39.9504 108.05C38.1004 108.2 36.2504 108.1 34.3004 108.1Z" fill="#861BB9"/>
<path d="M169.6 43.1501C167.55 43.1501 165.45 43.1001 163.4 43.1501C162.2 43.2001 161.6 42.7 161.65 41.5C161.7 39.95 161.75 38.4501 161.75 36.9001C161.75 35.8501 162.3 35.55 163.25 35.55C167.55 35.6 171.85 35.6501 176.15 35.7001C177.1 35.7001 177.6 36.05 177.6 37.1C177.55 38.6 177.6 40.05 177.65 41.55C177.7 42.5 177.35 43.05 176.3 43.05C174.05 43.05 171.85 43.05 169.6 43.05C169.6 43.1 169.6 43.1001 169.6 43.1501Z" fill="#861BB9"/>
<path d="M33.4505 113.4C35.5005 113.4 37.6005 113.45 39.6505 113.4C40.8005 113.35 41.5005 113.75 41.4505 115C41.4005 116.65 41.4505 118.3 41.3505 119.9C41.3005 120.3 40.6505 120.9 40.3005 120.9C35.8505 120.95 31.4005 120.9 26.9505 120.9C26.1005 120.9 25.6005 120.55 25.6005 119.55C25.6005 118.05 25.6005 116.6 25.5005 115.1C25.4505 113.9 26.0505 113.5 27.1505 113.5C29.2505 113.55 31.4005 113.5 33.5005 113.5C33.5005 113.5 33.4505 113.45 33.4505 113.4Z" fill="#861BB9"/>
<path d="M169.75 56.1C167.6 56.1 165.4 56.05 163.25 56.1C162.05 56.15 161.5 55.7 161.55 54.45C161.65 53 161.65 51.6 161.65 50.15C161.65 48.9 162.15 48.5 163.4 48.5C167.65 48.55 171.9 48.5 176.1 48.5C177.2 48.5 177.8 48.95 177.8 50.1C177.8 51.6 177.75 53.05 177.8 54.55C177.85 55.65 177.35 56.05 176.3 56C174.15 55.95 171.95 56 169.8 56C169.75 56 169.75 56.05 169.75 56.1Z" fill="#861BB9"/>
<path d="M33.3508 56C31.2008 56 29.0008 55.95 26.8508 56C25.8508 56 25.4508 55.5999 25.4508 54.5999C25.5008 52.9999 25.4008 51.3999 25.3508 49.8499C25.3008 48.9499 25.7008 48.45 26.6508 48.45C31.1508 48.55 35.6508 48.6 40.1508 48.75C40.5508 48.75 41.2508 49.45 41.3008 49.9C41.4508 51.4 41.4008 52.95 41.4508 54.5C41.5008 55.6 40.9508 56 39.9008 56C37.7008 55.95 35.5008 55.95 33.3508 56Z" fill="#861BB9"/>
<path d="M169.8 100.6C171.9 100.6 174.05 100.65 176.15 100.6C177.2 100.6 177.7 100.95 177.65 102.05C177.6 103.55 177.7 105 177.75 106.5C177.8 107.7 177.25 108.1 176.15 108.1C171.95 108.05 167.8 107.95 163.6 108C162.1 108 161.65 107.45 161.7 106.05C161.75 104.8 161.7 103.5 161.6 102.25C161.55 101.05 162 100.5 163.25 100.55C165.45 100.6 167.65 100.55 169.8 100.6Z" fill="#861BB9"/>
<path d="M35.0006 69.15C32.3006 69.15 29.6006 69.15 26.9006 69.15C25.9006 69.15 25.4006 68.85 25.4006 67.8C25.4006 66.15 25.3506 64.5 25.5006 62.9C25.5506 62.45 26.3006 61.7 26.7006 61.7C31.2006 61.6 35.7006 61.65 40.2006 61.75C40.6006 61.75 41.2506 62.45 41.2506 62.85C41.4006 64.3 41.2506 65.8 41.3006 67.3C41.3506 68.45 40.9006 68.95 39.7006 68.9C38.1006 68.85 36.5006 68.9 34.9506 68.9C35.0006 69 35.0006 69.1 35.0006 69.15Z" fill="#861BB9"/>
<path d="M169.651 94.85C167.551 94.85 165.401 94.8 163.301 94.85C162.301 94.85 161.851 94.55 161.851 93.5C161.851 92.05 161.801 90.65 161.801 89.2C161.801 88.2 162.251 87.7 163.351 87.7C167.601 87.7 171.801 87.65 176.051 87.6C177.051 87.6 177.651 87.9 177.651 89.05C177.601 90.45 177.601 91.9 177.701 93.3C177.751 94.65 177.051 94.85 175.901 94.85C173.801 94.8 171.701 94.85 169.651 94.85Z" fill="#861BB9"/>
<path d="M18.6006 82.1C16.8006 82.1 15.0006 82.05 13.2006 82.1C11.6506 82.15 10.9006 81.7 11.1006 80.05C11.2506 78.7 11.1506 77.3 11.1006 75.9C11.0506 74.85 11.4006 74.35 12.5506 74.4C16.5006 74.45 20.4006 74.45 24.3506 74.45C25.5006 74.45 26.0006 74.95 25.9506 76.1C25.9006 77.65 25.9006 79.2 25.9506 80.7C25.9506 81.7 25.5506 82.15 24.5006 82.1C22.5006 82.05 20.5506 82.1 18.6006 82.1Z" fill="#861BB9"/>
<path d="M184.6 81.95C182.7 81.95 180.8 81.9 178.9 81.95C177.9 81.95 177.45 81.55 177.45 80.55C177.45 79 177.4 77.5 177.4 75.95C177.4 75.05 177.8 74.6 178.75 74.6C182.8 74.6 186.8 74.6 190.85 74.55C191.75 74.55 192.05 74.95 192.05 75.8C192.05 77.4 192 79 192.05 80.55C192.05 81.5 191.65 81.85 190.7 81.8C188.7 81.75 186.65 81.8 184.65 81.8C184.6 81.85 184.6 81.9 184.6 81.95Z" fill="#861BB9"/>
<path d="M118.85 79.5C118.85 81.25 118.85 83 118.85 84.75C118.85 85.8 118.45 86.3 117.35 86.3C113.75 86.3 110.15 86.35 106.55 86.4C105.35 86.45 104.95 85.9 104.95 84.75C104.95 81.2 104.9 77.65 104.9 74.1C104.9 72.95 105.35 72.25 106.6 72.25C110.1 72.25 113.6 72.3 117.1 72.3C118.55 72.3 119.05 73 118.95 74.4C118.85 76.1 118.95 77.8 118.95 79.5C118.85 79.5 118.85 79.5 118.85 79.5Z" fill="#861BB9"/>
<path d="M77.7506 99.9C77.7506 101.7 77.7006 103.5 77.7506 105.3C77.8006 106.35 77.4506 106.9 76.3006 106.9C72.6506 106.9 68.9506 106.9 65.3006 106.95C64.2006 106.95 63.6506 106.45 63.6506 105.3C63.6506 101.7 63.6506 98.1 63.6006 94.45C63.6006 93.4 64.1006 92.9 65.1506 92.9C68.8506 92.95 72.6006 92.95 76.3006 92.95C77.2506 92.95 77.7506 93.4 77.7006 94.4C77.7006 96.3 77.7506 98.1 77.7506 99.9Z" fill="#861BB9"/>
<path d="M118.85 58.9C118.85 60.65 118.8 62.4 118.85 64.15C118.9 65.2 118.55 65.75 117.45 65.75C113.75 65.75 110.05 65.75 106.3 65.75C105.45 65.75 105 65.45 105 64.55C104.95 60.9 104.9 57.25 104.8 53.6C104.75 52.4 105.25 51.85 106.5 51.85C110.05 51.9 113.6 51.9 117.15 51.85C118.45 51.85 118.95 52.4 118.9 53.65C118.85 55.4 118.9 57.15 118.85 58.9Z" fill="#861BB9"/>
<path d="M132.401 65.7C130.551 65.7 128.701 65.7 126.851 65.7C125.951 65.7 125.551 65.35 125.501 64.35C125.501 60.9 125.351 57.45 125.301 54C125.301 52 125.551 51.8 127.501 51.8C130.851 51.8 134.201 51.8 137.551 51.8C139.201 51.8 139.551 52.2001 139.551 53.9001C139.501 57.3501 139.351 60.8 139.351 64.25C139.351 65.35 138.901 65.75 137.851 65.75C136.051 65.7 134.251 65.75 132.401 65.7Z" fill="#861BB9"/>
<path d="M91.3507 106.95C89.5507 106.95 87.7507 106.95 85.9507 106.95C84.8507 106.95 84.2507 106.6 84.3007 105.4C84.3507 101.75 84.3507 98.1 84.3507 94.45C84.3507 93.5 84.8007 93.05 85.7007 93.05C89.5007 93.05 93.3507 93 97.1507 93.1C97.5007 93.1 98.2007 93.8 98.2007 94.15C98.3007 98.05 98.3007 102 98.2007 105.9C98.2007 106.25 97.3007 106.85 96.8007 106.9C94.9507 107 93.1507 106.95 91.3507 106.95Z" fill="#861BB9"/>
<path d="M84.5507 80.5C84.4507 78.45 84.3507 76.4 84.2507 74.3C84.2007 73.05 84.6007 72.25 86.0007 72.25C89.5507 72.3 93.1007 72.4 96.6507 72.4C97.8007 72.4 98.2507 72.9 98.2507 74C98.2007 77.65 98.2507 81.3 98.2507 84.95C98.2507 85.8 97.9507 86.4 97.0007 86.4C93.4007 86.4 89.8007 86.3 86.2007 86.3C84.9507 86.3 84.4007 85.75 84.4507 84.45C84.5507 83.15 84.4507 81.8 84.4507 80.45C84.4507 80.5 84.5007 80.5 84.5507 80.5Z" fill="#861BB9"/>
<path d="M135.95 86.3C132.85 86.3 129.8 86.35 126.7 86.25C126.3 86.25 125.55 85.55 125.55 85.15C125.45 81.45 125.45 77.75 125.4 74C125.4 72.85 125.9 72.35 127.05 72.35C128.8 72.4 130.55 72.4 132.3 72.4C134.1 72.4 135.9 72.3 137.7 72.25C138.8 72.25 139.45 72.75 139.45 73.85C139.4 77.6 139.4 81.4 139.25 85.15C139.25 85.55 138.6 86.1 138.15 86.2C137.5 86.45 136.7 86.3 135.95 86.3Z" fill="#861BB9"/>
<path d="M91.3005 65.7C89.4505 65.7 87.6005 65.7 85.7505 65.7C84.8505 65.7 84.4005 65.4 84.4005 64.4C84.4005 60.9 84.3005 57.4 84.2505 53.9C84.2505 52 84.5005 51.8 86.3505 51.85C89.6505 51.9 92.9005 51.9 96.2005 51.85C97.6505 51.85 98.3505 52.3 98.3005 53.85C98.2005 57.4 98.2505 60.95 98.1005 64.5C98.1005 64.9 97.3005 65.6 96.8505 65.65C95.0005 65.8 93.1505 65.7 91.3005 65.7Z" fill="#861BB9"/>
<path d="M70.9005 86.35C69.1005 86.35 67.3005 86.3 65.5005 86.35C64.2505 86.4 63.8005 85.75 63.8005 84.6C63.8005 81.1 63.8005 77.6 63.7505 74.1C63.7505 72.95 64.1005 72.3 65.4005 72.3C68.9505 72.35 72.5005 72.45 76.0505 72.45C77.2505 72.45 77.8005 72.85 77.8005 74.1C77.7005 77.7 77.6505 81.3 77.6005 84.9C77.6005 85.85 77.1005 86.2 76.2005 86.2C74.4505 86.2 72.7005 86.2 70.9505 86.2C70.9005 86.25 70.9005 86.3 70.9005 86.35Z" fill="#861BB9"/>
<path d="M70.7008 65.7C68.9008 65.7 67.1008 65.7 65.3008 65.7C64.3508 65.7 63.8008 65.4 63.8008 64.3C63.8508 60.55 63.8008 56.75 63.9508 53C63.9508 52.65 64.6508 52 65.0508 52C68.8008 51.95 72.6008 52 76.3508 52C77.2008 52 77.6008 52.35 77.6008 53.25C77.6008 56.95 77.6508 60.7 77.7508 64.4C77.7508 65.45 77.1508 65.65 76.3008 65.65C74.4008 65.7 72.5508 65.7 70.7008 65.7Z" fill="#861BB9"/>
<path d="M119.5 130.9C119.5 134.3 119.5 134.3 116.2 134.6C112.2 134.95 111.8 134.65 111.95 130.7C112.1 127 111.3 127.35 115.55 127.15C119.5 126.95 119.5 127.05 119.5 130.9Z" fill="#861BB9"/>
<path d="M87.5002 134.5C83.7502 134.55 83.7502 134.55 83.7002 130.95C83.7002 130.7 83.7002 130.4 83.7002 130.15C83.7002 127.1 83.8002 127.05 86.8002 127.15C87.1502 127.15 87.5502 127.2 87.9002 127.25C91.1502 127.45 91.1502 127.45 91.2002 130.7C91.2002 134.4 91.2002 134.4 87.5002 134.5Z" fill="#861BB9"/>
<path d="M101.65 134.5C97.8505 134.5 97.8005 134.5 97.8505 130.75C97.9005 127 97.1505 127.25 101.45 127.25C105.95 127.25 105.2 126.85 105.25 131.05C105.3 134.5 105.3 134.5 101.65 134.5Z" fill="#861BB9"/>
<path d="M100.751 19.9C104.701 19.9 104.701 19.9 104.701 23.75C104.701 27.95 105.051 27.45 100.951 27.45C96.4506 27.4 96.9506 28.3 96.9506 23.45C96.9006 19.9 96.9506 19.9 100.751 19.9Z" fill="#861BB9"/>
<path d="M100.751 180C96.0006 180 91.3006 179.95 86.5506 180C85.3006 180 84.8006 179.65 84.9506 178.35C85.0506 177.05 85.0506 175.7 85.0506 174.35C85.0506 173.4 85.3506 172.9 86.4006 172.9C96.0006 172.9 105.651 172.9 115.251 172.9C116.201 172.9 116.601 173.35 116.601 174.25C116.601 175.65 116.601 177 116.651 178.4C116.701 179.55 116.301 180 115.101 180C110.301 179.95 105.501 180 100.751 180Z" fill="#861BB9"/>
</svg>
