<svg width="200" height="201" viewBox="0 0 200 201" fill="none" xmlns="http://www.w3.org/2000/svg">
<path d="M75.5004 134.7C72.2504 131.45 69.1004 128.3 65.8004 125C67.2504 123.05 68.8004 120.95 70.3504 118.95C71.0004 118.1 71.1504 117.5 70.6004 116.45C69.5504 114.4 68.6504 112.2 67.9504 110C67.6004 108.9 67.0504 108.5 66.0004 108.4C63.5004 108.1 61.0004 107.7 58.4004 107.35C58.4004 102.85 58.4004 98.3999 58.4004 93.7499C60.9504 93.3999 63.5004 92.9499 66.0004 92.6499C67.1004 92.4999 67.6004 92.0999 67.9504 91.0499C68.7004 88.7999 69.8004 86.6499 70.6504 84.3999C70.8504 83.8499 70.8504 82.9499 70.5004 82.4499C69.0004 80.1999 67.3004 78.0999 65.8004 76.0499C69.0504 72.7999 72.2004 69.6499 75.4504 66.3499C77.4504 67.8499 79.5504 69.4999 81.7004 70.9999C82.2504 71.3499 83.2004 71.4499 83.8004 71.2499C86.1004 70.3999 88.3504 69.4999 90.6004 68.4499C91.2004 68.1499 91.8504 67.4499 91.9504 66.7999C92.4504 64.2499 92.7504 61.6999 93.1004 58.9999C97.6004 58.9999 102.05 58.9999 106.7 58.9999C107.05 61.5499 107.5 64.0499 107.8 66.5999C107.95 67.6499 108.3 68.1999 109.4 68.5499C111.6 69.2999 113.75 70.1999 115.85 71.1999C116.8 71.6499 117.4 71.6999 118.2 71.0499C120.25 69.3999 122.4 67.8499 124.4 66.3999C127.65 69.6499 130.8 72.7999 134.1 76.0999C132.65 78.0499 131.15 80.1499 129.55 82.1499C128.8 83.0999 128.85 83.7999 129.35 84.7999C130.35 86.7499 131.2 88.7999 131.85 90.8999C132.25 92.1499 132.85 92.5499 134.05 92.6999C136.5 92.9499 138.9 93.3999 141.45 93.7499C141.45 98.2499 141.45 102.7 141.45 107.35C138.9 107.7 136.4 108.15 133.85 108.45C132.8 108.6 132.25 108.95 131.9 110.05C131.2 112.2 130.35 114.3 129.3 116.35C128.8 117.4 128.75 118.1 129.5 119C131.1 121 132.6 123.1 134.1 125.05C130.8 128.3 127.65 131.45 124.35 134.7C122.5 133.35 120.5 131.95 118.6 130.35C117.55 129.45 116.75 129.35 115.45 130.05C113.5 131.1 111.45 131.9 109.35 132.55C108.25 132.9 107.85 133.45 107.75 134.5C107.45 137 107.05 139.5 106.7 142.1C102.2 142.1 97.7504 142.1 93.1004 142.1C92.7504 139.55 92.3004 137.05 92.0004 134.5C91.8504 133.4 91.5004 132.9 90.4004 132.55C88.3004 131.85 86.2504 131.1 84.3004 130.05C83.0004 129.35 82.2004 129.5 81.1504 130.35C79.3504 131.9 77.3504 133.3 75.5004 134.7ZM104.1 138.95C104.45 136.45 104.75 134.05 105.25 131.65C105.35 131.05 106.05 130.35 106.65 130.1C109.8 128.7 113.05 127.5 116.15 126.05C117.1 125.6 117.65 125.55 118.45 126.2C120.35 127.7 122.35 129.15 124.1 130.45C126.15 128.45 128 126.6 130 124.7C128.65 122.85 127.25 120.95 125.75 119.05C125.05 118.2 125.1 117.6 125.6 116.55C127.05 113.55 128.35 110.5 129.45 107.35C129.85 106.2 130.3 105.75 131.45 105.6C133.8 105.3 136.15 104.95 138.65 104.55C138.65 102.2 138.6 99.9999 138.65 97.7999C138.7 96.6499 138.25 96.2999 137.15 96.1499C135.2 95.9499 133.3 95.5499 131.35 95.3499C130.25 95.1999 129.85 94.6999 129.5 93.6499C128.35 90.4499 127 87.3499 125.55 84.2999C125.1 83.2999 125.15 82.7499 125.75 81.9999C127.25 80.0999 128.65 78.0999 129.95 76.3499C127.95 74.2999 126.1 72.4499 124.15 70.4999C122.25 71.8999 120.25 73.3499 118.35 74.8499C117.6 75.4499 117.05 75.3499 116.2 74.9499C113.15 73.5499 110 72.1499 106.85 71.0499C105.7 70.6499 105.25 70.1499 105.1 69.0499C104.8 66.6999 104.45 64.3499 104.1 61.9999C101.25 61.9999 98.6504 61.9999 95.9004 61.9999C95.5504 64.4499 95.1504 66.7999 94.9004 69.1999C94.7504 70.2499 94.3004 70.6999 93.2504 71.0499C90.1004 72.1499 87.0504 73.3999 84.0504 74.8499C82.9504 75.3499 82.3504 75.3999 81.4004 74.6999C79.5504 73.1999 77.6004 71.8499 75.8504 70.4999C73.8004 72.4999 71.9504 74.3499 70.0004 76.2999C71.3504 78.1499 72.7504 80.0999 74.2504 81.9499C74.9504 82.7999 74.9004 83.3999 74.4004 84.4499C72.9504 87.4499 71.6504 90.4999 70.5504 93.6499C70.1504 94.7999 69.7004 95.2499 68.5504 95.3999C66.2004 95.6999 63.8504 96.0499 61.3504 96.4499C61.3504 98.9499 61.3004 101.3 61.4004 103.6C61.4004 104 62.0504 104.65 62.4504 104.75C64.5004 105.15 66.5504 105.45 68.6004 105.65C69.6504 105.8 70.1004 106.25 70.4504 107.3C71.5504 110.45 72.8504 113.5 74.2504 116.5C74.7504 117.6 74.8004 118.2 74.1004 119.15C72.6004 121 71.2504 122.95 69.9504 124.7C71.9504 126.7 73.8504 128.55 75.8004 130.5C77.5504 129.2 79.5004 127.8 81.4004 126.3C82.2504 125.6 82.8504 125.7 83.9004 126.15C86.9004 127.6 89.9504 128.9 93.1004 130C94.2504 130.4 94.7004 130.85 94.8504 132C95.1504 134.35 95.5004 136.7 95.8504 139.2C98.3004 139.2 100.55 139.2 102.8 139.2C103.25 139.1 103.6 139.05 104.1 138.95Z" fill="#861BB9"/>
<path d="M101.5 37.1999C100.4 37.1999 99.5505 37.1999 98.4505 37.1999C98.4505 34.7499 98.4005 32.3999 98.4505 29.9999C98.5005 28.8499 98.1505 28.3999 97.0005 28.0499C91.4005 26.4999 87.9505 21.1499 88.7505 15.6499C89.6005 9.9499 94.3505 5.8999 100 5.8999C105.65 5.9499 110.4 10.0999 111.15 15.7999C111.9 21.2499 108.45 26.4999 102.95 28.0499C101.65 28.3999 101.4 28.9999 101.45 30.1499C101.55 32.4999 101.5 34.7999 101.5 37.1999ZM100 25.3499C104.55 25.3499 108.2 21.6999 108.15 17.1999C108.15 12.7999 104.55 9.1499 100.1 9.0999C95.6505 9.0499 91.9005 12.6999 91.8505 17.1999C91.8005 21.6999 95.4505 25.3499 100 25.3499Z" fill="#861BB9"/>
<path d="M163.3 102C163.3 100.95 163.3 100.1 163.3 98.9498C165.55 98.9498 167.8 98.8498 170.05 98.9998C171.45 99.0498 172.1 98.6498 172.5 97.1998C174.15 91.4998 179.9 88.2498 185.7 89.4998C191.4 90.7498 195.2 96.0998 194.5 101.85C193.75 107.7 188.75 112 182.8 111.75C177.95 111.55 173.75 108.3 172.45 103.5C172.1 102.25 171.55 101.95 170.4 101.95C168.05 102.05 165.75 102 163.3 102ZM183.3 108.65C187.8 108.6 191.45 104.9 191.45 100.4C191.4 95.9498 187.6 92.2498 183.15 92.3498C178.7 92.4498 175.15 96.0498 175.15 100.5C175.15 105.05 178.8 108.65 183.3 108.65Z" fill="#861BB9"/>
<path d="M36.7007 98.9999C36.7007 100.1 36.7007 100.95 36.7007 102.05C34.2507 102.05 31.8507 102.1 29.5007 102.05C28.3507 102 27.9007 102.4 27.6007 103.55C26.0507 109.05 20.8007 112.5 15.3507 111.75C9.65065 110.95 5.50065 106.3 5.45065 100.6C5.40065 94.8999 9.45065 90.1999 15.1507 89.3499C20.5507 88.4999 25.9507 91.9499 27.5007 97.3999C27.8507 98.6999 28.3507 99.1499 29.7007 99.0499C31.9507 98.8999 34.2007 98.9999 36.7007 98.9999ZM24.8507 100.45C24.8007 95.8999 21.1507 92.2999 16.6007 92.3499C12.2007 92.3999 8.50065 96.0999 8.50065 100.45C8.50065 104.95 12.1507 108.65 16.6507 108.65C21.2507 108.65 24.8507 105 24.8507 100.45Z" fill="#861BB9"/>
<path d="M98.4505 163.8C99.5505 163.8 100.401 163.8 101.501 163.8C101.501 166.25 101.551 168.6 101.501 171C101.451 172.15 101.801 172.6 102.951 172.95C108.551 174.55 112.001 179.85 111.151 185.35C110.251 191.05 105.601 195.1 99.9005 195.1C94.3005 195.05 89.7005 191.05 88.8005 185.4C87.9505 179.9 91.4005 174.6 97.0005 173C98.1505 172.7 98.5505 172.25 98.5005 171.1C98.4005 168.7 98.4505 166.35 98.4505 163.8ZM100.001 175.65C95.4505 175.65 91.8005 179.3 91.8005 183.8C91.8005 188.3 95.5505 192 100.001 191.95C104.451 191.9 108.051 188.3 108.101 183.85C108.201 179.35 104.551 175.65 100.001 175.65Z" fill="#861BB9"/>
<path d="M149.9 152.25C148.8 151.3 147.7 150.35 146.65 149.4C145.6 148.45 144.6 147.5 143.5 146.5C144.4 145.7 145.15 145.1 146.1 144.3C147.85 146.2 149.8 148.35 151.65 150.4C158.1 146.45 164.85 148.05 168.35 153.35C171.35 157.9 170.5 164.2 166.45 167.85C162.4 171.5 156.25 171.7 152 168.45C148.2 165.45 145.65 159.3 149.9 152.25ZM158.8 167.55C163.3 167.6 167 163.95 167.05 159.5C167.1 155 163.45 151.3 159 151.25C154.55 151.2 150.8 154.9 150.75 159.35C150.65 163.75 154.3 167.5 158.8 167.55Z" fill="#861BB9"/>
<path d="M54.1004 144C55.0004 144.85 55.6504 145.5 56.6004 146.4C54.3504 148.4 52.2004 150.35 50.5504 151.8C51.2504 154.8 52.1504 157.05 52.2504 159.4C52.5004 164.55 49.1504 168.85 44.2504 170.25C39.3504 171.7 34.1004 169.7 31.4504 165.35C28.8504 161.15 29.4004 155.5 32.7504 151.85C36.1504 148.15 41.6504 147 46.0504 149.4C47.7004 150.3 48.5504 149.95 49.6504 148.7C51.0004 147.1 52.5504 145.65 54.1004 144ZM41.1504 167.55C45.6504 167.55 49.3004 163.85 49.3004 159.35C49.3004 154.9 45.5504 151.2 41.1004 151.2C36.6504 151.2 32.9504 154.9 32.9504 159.4C32.9504 163.9 36.6004 167.55 41.1504 167.55Z" fill="#861BB9"/>
<path d="M56.4004 54.5999C55.5504 55.3999 54.8504 56.0499 53.9504 56.9499C52.0504 54.8499 50.1004 52.6999 48.1504 50.5499C45.0004 52.6499 41.8504 53.3499 38.5004 52.5999C32.0504 51.0999 28.3504 44.4499 30.4004 38.0999C32.4004 31.8999 39.3004 28.7499 45.4004 31.1999C51.4504 33.6499 54.2004 40.7499 51.1504 46.5999C50.3504 48.0999 50.4004 48.9499 51.7004 50.0499C53.3504 51.4499 54.8004 53.0499 56.4004 54.5999ZM41.1504 33.4499C36.6504 33.3999 32.9504 37.0499 32.9004 41.5499C32.8504 45.9999 36.5004 49.7499 41.0004 49.7999C45.4504 49.8499 49.2004 46.1499 49.2504 41.6999C49.3504 37.2499 45.6504 33.4999 41.1504 33.4499Z" fill="#861BB9"/>
<path d="M151.9 50.6999C149.95 52.7999 148 54.8499 145.95 57.0499C145.15 56.0999 144.5 55.3499 143.7 54.3499C145.65 52.5999 147.8 50.6499 149.8 48.8499C146.4 40.9499 147.45 35.4999 152.75 32.0999C157.25 29.1999 163.45 29.9499 167.1 33.8999C170.8 37.8999 171.1 44.1499 167.8 48.4999C164.2 53.2499 158.45 54.0999 151.9 50.6999ZM158.85 33.4499C154.4 33.4499 150.7 37.1499 150.7 41.6499C150.7 46.0999 154.45 49.8499 158.9 49.7999C163.35 49.7999 167.05 46.0499 167.05 41.5999C167 37.0999 163.35 33.4499 158.85 33.4499Z" fill="#861BB9"/>
<path d="M40.1504 101.85C40.1504 100.9 40.1504 100.1 40.1504 99.0999C42.3004 99.0999 44.4004 99.0999 46.7004 99.0999C46.7004 99.9499 46.7004 100.85 46.7004 101.85C44.5504 101.85 42.3504 101.85 40.1504 101.85Z" fill="#861BB9"/>
<path d="M153.2 101.85C153.2 100.9 153.2 100.05 153.2 99.0999C155.4 99.0999 157.5 99.0999 159.7 99.0999C159.7 99.9999 159.7 100.85 159.7 101.85C157.65 101.85 155.55 101.85 153.2 101.85Z" fill="#861BB9"/>
<path d="M98.5503 47.2499C98.5503 45.0499 98.5503 42.9999 98.5503 40.7499C99.5003 40.7499 100.4 40.7499 101.4 40.7499C101.4 42.8999 101.4 44.9999 101.4 47.2499C100.45 47.2499 99.6003 47.2499 98.5503 47.2499Z" fill="#861BB9"/>
<path d="M98.6504 153.75C99.5504 153.75 100.4 153.75 101.4 153.75C101.4 155.9 101.4 158 101.4 160.25C100.5 160.25 99.6504 160.25 98.6504 160.25C98.6504 158.15 98.6504 156 98.6504 153.75Z" fill="#861BB9"/>
<path d="M61.7004 137.3C62.0504 137.7 62.6504 138.4 63.3004 139.2C61.7504 140.65 60.2004 142.1 58.5004 143.65C58.1004 143.1 57.5004 142.35 56.9004 141.55C58.2504 140.35 59.9004 138.9 61.7004 137.3Z" fill="#861BB9"/>
<path d="M136.601 139.05C137.251 138.4 137.901 137.7 138.601 137C140.201 138.7 141.601 140.25 143.201 142C142.651 142.45 141.901 143.05 141.151 143.65C139.751 142.2 138.201 140.7 136.601 139.05Z" fill="#861BB9"/>
<path d="M138.35 63.6499C138 63.1999 137.4 62.4999 136.8 61.6999C138.25 60.3999 139.8 58.9499 141.5 57.3499C141.95 57.7999 142.6 58.3999 143.3 59.0499C141.6 60.5999 140.05 62.0499 138.35 63.6499Z" fill="#861BB9"/>
<path d="M56.8003 58.8999C57.2503 58.3999 57.9003 57.7999 58.6003 57.0499C60.2003 58.7499 61.6503 60.2999 63.2503 62.0499C62.6503 62.4499 61.9003 62.9499 61.0003 63.4999C59.8503 62.2499 58.4003 60.6499 56.8003 58.8999Z" fill="#861BB9"/>
<path d="M101.451 50.7998C101.451 51.8498 101.451 52.6998 101.451 53.6998C100.501 53.6998 99.6006 53.6998 98.6006 53.6998C98.6006 52.7498 98.6006 51.7998 98.6006 50.7998C99.5006 50.7998 100.351 50.7998 101.451 50.7998Z" fill="#861BB9"/>
<path d="M101.351 150.2C100.451 150.2 99.6006 150.2 98.6006 150.2C98.6006 149.2 98.6006 148.3 98.6006 147.3C99.5006 147.3 100.351 147.3 101.351 147.3C101.351 148.15 101.351 149.05 101.351 150.2Z" fill="#861BB9"/>
<path d="M134.351 64.3999C134.801 64.9499 135.401 65.6499 136.201 66.5999C135.551 67.0999 134.851 67.6499 133.901 68.3499C133.401 67.7499 132.801 67.0499 132.101 66.1499C132.751 65.6499 133.451 65.0999 134.351 64.3999Z" fill="#861BB9"/>
<path d="M65.6002 68.3999C65.1002 67.8499 64.4502 67.1999 63.7002 66.3499C64.5002 65.6999 65.2002 65.0999 66.1002 64.3499C66.5502 64.9999 67.0502 65.7499 67.7502 66.7499C67.2502 67.0499 66.5002 67.6499 65.6002 68.3999Z" fill="#861BB9"/>
<path d="M50.3003 99.0999C51.3003 99.0999 52.2003 99.0999 53.2003 99.0999C53.2003 100.05 53.2003 100.9 53.2003 101.9C52.2503 101.9 51.3003 101.9 50.3003 101.9C50.3003 100.95 50.3003 100.05 50.3003 99.0999Z" fill="#861BB9"/>
<path d="M146.8 101.85C146.8 101 146.8 100.15 146.8 99.1499C147.75 99.1499 148.65 99.1499 149.65 99.1499C149.65 99.9499 149.65 100.8 149.65 101.85C148.8 101.85 147.85 101.85 146.8 101.85Z" fill="#861BB9"/>
<path d="M67.9505 134.85C67.3505 135.45 66.7005 136.05 65.8505 136.85C65.1505 136 64.5505 135.3 63.7505 134.35C64.3505 133.9 65.1005 133.3 66.0005 132.6C66.5505 133.2 67.1505 133.95 67.9505 134.85Z" fill="#861BB9"/>
<path d="M134.2 132.45C134.9 133.2 135.5 133.85 136.1 134.5C135.35 135.15 134.65 135.8 133.8 136.55C133.3 136.05 132.65 135.45 131.8 134.65C132.65 133.85 133.35 133.25 134.2 132.45Z" fill="#861BB9"/>
<path d="M100.1 123.85C100.1 122.85 100.1 122 100.1 121.15C115.2 119.9 121 107.75 120.35 99.2999C119.5 88.4999 110.9 80.2999 100.4 79.9999C91.3004 79.7499 80.3004 86.2999 79.3504 100.3C78.4504 100.3 77.5504 100.3 76.6504 100.3C75.4504 93.4999 81.0004 83.9999 88.5004 79.8499C97.3004 74.9999 108.45 76.2999 115.75 83.0499C123.35 90.0499 125.55 100.9 121.35 110.25C117.6 118.6 108.2 124.65 100.1 123.85Z" fill="#861BB9"/>
<path d="M99.8501 110.75C94.1001 110.7 89.5501 106.1 89.6501 100.35C89.7501 94.5499 94.3001 90.1499 100.1 90.1999C105.8 90.2499 110.25 94.7999 110.2 100.5C110.2 106.3 105.65 110.8 99.8501 110.75ZM92.7501 100.55C92.7501 104.5 96.1001 107.75 100 107.7C103.85 107.65 107.1 104.4 107.15 100.55C107.2 96.6499 103.85 93.2999 99.9501 93.2999C96.0001 93.2999 92.7501 96.5999 92.7501 100.55Z" fill="#861BB9"/>
<path d="M100 22.6999C96.9502 22.6999 94.4502 20.1999 94.4502 17.1999C94.4502 14.1999 97.0502 11.6499 100.05 11.6999C103 11.7499 105.45 14.1999 105.5 17.1499C105.55 20.1499 103.05 22.6999 100 22.6999ZM102.35 17.1499C102.3 15.8499 101.2 14.7499 99.9002 14.8499C98.5002 14.9499 97.7502 15.7499 97.6502 17.1499C97.6002 18.4499 98.7002 19.5499 100 19.5499C101.3 19.5499 102.35 18.4499 102.35 17.1499Z" fill="#861BB9"/>
<path d="M188.8 100.55C188.75 103.55 186.2 106.1 183.2 106.05C180.15 106 177.7 103.45 177.8 100.4C177.85 97.4499 180.35 94.9999 183.3 94.9999C186.3 94.9499 188.8 97.4999 188.8 100.55ZM183.1 102.85C184.4 102.95 185.55 101.9 185.6 100.6C185.65 99.2999 184.6 98.1499 183.3 98.1499C181.9 98.1499 181.1 98.9499 180.9 100.3C180.75 101.55 181.85 102.75 183.1 102.85Z" fill="#861BB9"/>
<path d="M22.2004 100.55C22.1504 103.6 19.6504 106.1 16.6004 106.05C13.5504 106 11.0504 103.35 11.1504 100.4C11.2504 97.4499 13.7004 94.9999 16.6504 94.9999C19.7004 94.9499 22.2504 97.4999 22.2004 100.55ZM16.6504 102.85C17.9504 102.9 19.1004 101.8 19.0504 100.5C19.0004 99.0999 18.2004 98.2999 16.8504 98.1499C15.5504 97.9999 14.4004 99.0999 14.3504 100.4C14.3004 101.7 15.3504 102.85 16.6504 102.85Z" fill="#861BB9"/>
<path d="M100 189.3C97.0002 189.3 94.4502 186.75 94.4502 183.75C94.4502 180.7 97.0002 178.25 100.05 178.3C103.05 178.35 105.45 180.75 105.5 183.75C105.55 186.75 103 189.3 100 189.3ZM102.35 183.8C102.35 182.5 101.25 181.4 99.9502 181.45C98.5502 181.55 97.7502 182.35 97.6502 183.7C97.5502 185 98.6502 186.1 99.9502 186.15C101.25 186.15 102.35 185.1 102.35 183.8Z" fill="#861BB9"/>
<path d="M164.35 159.45C164.3 162.55 161.9 164.9 158.75 164.85C155.7 164.8 153.4 162.45 153.4 159.4C153.4 156.3 155.85 153.9 158.9 153.9C162 153.9 164.35 156.35 164.35 159.45ZM158.9 161.75C160.15 161.75 161.3 160.55 161.25 159.3C161.2 158.05 160 156.9 158.75 157C157.4 157.15 156.6 158 156.5 159.35C156.4 160.6 157.65 161.8 158.9 161.75Z" fill="#861BB9"/>
<path d="M41.1504 164.85C38.0004 164.85 35.6504 162.5 35.6504 159.4C35.6504 156.35 37.9504 154 41.0004 153.9C44.1004 153.85 46.6004 156.2 46.6004 159.3C46.6504 162.4 44.2504 164.85 41.1504 164.85ZM41.1004 157C39.8504 157 38.7004 158.2 38.7504 159.45C38.8004 160.7 40.0004 161.85 41.2504 161.75C42.6004 161.6 43.4004 160.8 43.5004 159.45C43.5504 158.15 42.3504 157 41.1004 157Z" fill="#861BB9"/>
<path d="M35.6502 41.55C35.6502 38.4 38.0502 36.1 41.2002 36.15C44.2502 36.2 46.6002 38.55 46.6002 41.55C46.6002 44.65 44.2002 47.1 41.1002 47.1C38.0002 47.1 35.6002 44.7 35.6502 41.55ZM43.4502 41.7C43.5002 40.45 42.3502 39.25 41.1002 39.25C39.8502 39.25 38.6002 40.45 38.7002 41.65C38.8002 43 39.5502 43.85 40.9502 44C42.2502 44.1 43.4502 42.95 43.4502 41.7Z" fill="#861BB9"/>
<path d="M158.9 36.1499C162.05 36.1499 164.35 38.4999 164.35 41.6499C164.35 44.6999 162 47.0499 158.95 47.0499C155.85 47.0999 153.4 44.6999 153.4 41.5999C153.35 38.5499 155.75 36.1499 158.9 36.1499ZM158.95 43.9499C160.25 43.8999 161.4 42.7499 161.25 41.4499C161.1 40.0999 160.3 39.2999 158.9 39.1999C157.65 39.0999 156.5 40.3499 156.5 41.5999C156.5 42.8999 157.65 43.9999 158.95 43.9499Z" fill="#861BB9"/>
</svg>
