<svg width="200" height="200" viewBox="0 0 200 200" fill="none" xmlns="http://www.w3.org/2000/svg">
<path d="M191.3 134.4C191.3 150.35 191.3 166.3 191.3 182.25C191.3 186.85 188.9 190.15 184.75 191.2C183.8 191.45 182.75 191.5 181.75 191.5C167.85 191.5 153.95 191.5 140.05 191.5C133.95 191.5 130.45 188 130.45 181.9C130.45 155.3 130.45 128.7 130.45 102.1C130.45 96.8001 130.45 91.5501 130.45 86.2501C130.45 82.0001 132.9 78.7001 136.8 77.6501C137.75 77.4001 138.8 77.3501 139.8 77.3501C153.85 77.3501 167.85 77.4501 181.9 77.3001C187.85 77.2501 191.35 81.6501 191.35 86.8501C191.2 102.75 191.3 118.55 191.3 134.4ZM186.9 145.8C186.9 145.15 186.9 144.75 186.9 144.35C186.9 125.15 186.9 106 186.9 86.8001C186.9 83.3501 185.35 81.8001 181.9 81.8001C167.9 81.8001 153.9 81.8001 139.95 81.8001C136.35 81.8001 134.85 83.3001 134.85 86.9501C134.85 92.3001 134.85 97.6501 134.85 103.05C134.85 116.9 134.85 130.8 134.85 144.65C134.85 145.2 134.85 145.7 134.85 146.35C137.05 146.35 139.05 146.4 141.05 146.3C141.65 146.25 142.35 146 142.8 145.6C144.15 144.4 145.3 143 146.65 141.85C147.25 141.35 148.15 140.9 148.95 140.85C157.25 140.8 165.55 140.8 173.85 140.85C174.65 140.85 175.6 141.35 176.25 141.9C177.45 142.9 178.45 144.05 179.55 145.15C179.85 145.45 180.2 145.75 180.55 145.8C182.65 145.8 184.65 145.8 186.9 145.8ZM134.85 150.7C134.85 151.25 134.85 151.65 134.85 152C134.85 162.05 134.85 172.1 134.85 182.15C134.85 185.6 136.4 187.15 139.85 187.15C144.65 187.15 149.5 187.15 154.3 187.15C163.6 187.15 172.9 187.15 182.2 187.15C184.4 187.15 185.95 186.25 186.6 184.45C186.85 183.7 186.9 182.8 186.9 182C186.9 173.45 186.9 164.9 186.9 156.35C186.9 154.35 186.9 152.35 186.9 150.2C186.05 150.2 185.3 150.1 184.55 150.2C180.15 150.95 176.7 149.55 174.15 145.9C174.1 145.85 174.05 145.75 173.95 145.7C173.45 145.5 172.95 145.1 172.4 145.1C165.05 145.05 157.65 145.05 150.3 145.1C149.8 145.1 149.15 145.4 148.8 145.75C147.55 146.9 146.4 148.1 145.25 149.3C144.35 150.25 143.35 150.7 142.05 150.65C139.7 150.65 137.4 150.7 134.85 150.7Z" fill="#861BB9"/>
<path d="M59.3 155.35C72.1 155.35 84.95 155.4 97.75 155.35C104.15 155.3 108.45 159.35 109.6 163.8C109.95 165.05 110.1 166.35 110.1 167.65C110.15 171.55 110.15 175.45 110.1 179.35C110.05 186.55 105.2 191.55 97.95 191.6C80.8 191.65 63.7 191.6 46.55 191.6C38.1 191.6 29.6 191.6 21.15 191.6C15.45 191.6 11.2 188.8 9.45 183.8C9 182.5 8.75 181.1 8.75 179.75C8.65 175.45 8.7 171.1 8.7 166.8C8.75 161.05 13.4 156 19.15 155.5C20 155.4 20.9 155.4 21.8 155.4C34.35 155.35 46.85 155.35 59.3 155.35ZM59.55 159.7C46.7 159.7 33.85 159.8 21 159.65C16.4 159.6 13 163.25 13.15 167.4C13.3 171.35 13.15 175.35 13.2 179.35C13.25 184.05 16.3 187.15 21 187.15C46.65 187.15 72.35 187.15 98 187.15C102.65 187.15 105.8 184 105.8 179.35C105.8 175.6 105.7 171.8 105.85 168.05C106.05 163.5 102.85 159.6 97.55 159.7C84.85 159.85 72.2 159.7 59.55 159.7Z" fill="#861BB9"/>
<path d="M137.05 30.4001C138.45 30.6501 139.25 31.3001 139.3 32.6001C139.35 34.0501 138.4 34.6501 137.05 34.9501C138.45 36.2501 139.7 37.4001 141 38.6001C141.3 38.9001 141.65 39.1501 141.9 39.4501C142.7 40.4001 142.7 41.5501 141.85 42.4001C141 43.2501 139.85 43.4001 138.9 42.5501C135.8 39.8001 132.75 37.0001 129.75 34.1501C128.8 33.2501 128.85 31.9501 129.8 31.0501C132.75 28.2501 135.75 25.5001 138.75 22.8001C139.7 21.9501 141 22.0001 141.8 22.8501C142.65 23.7001 142.7 24.9001 141.75 25.8501C140.35 27.4001 138.75 28.8501 137.05 30.4001Z" fill="#861BB9"/>
<path d="M59.55 138.6C61.55 136.45 63.5 134.35 65.45 132.2C65.65 132 65.85 131.75 66.05 131.55C67.05 130.6 68.3 130.5 69.2 131.25C70.15 132.05 70.15 133.4 69.2 134.5C68 135.85 66.75 137.15 65.55 138.5C64.15 140 62.8 141.55 61.4 143.05C60.15 144.4 58.95 144.45 57.75 143.15C55.05 140.3 52.4 137.4 49.75 134.5C48.8 133.45 48.85 132.25 49.75 131.35C50.7 130.45 52 130.5 53 131.55C54.9 133.55 56.75 135.6 58.65 137.65C58.85 137.95 59.15 138.2 59.55 138.6Z" fill="#861BB9"/>
<path d="M61.6503 85.55C61.6503 87.4 61.7003 89.25 61.6503 91.1C61.6003 92.6 60.7503 93.5 59.4503 93.5C58.1503 93.5 57.3003 92.6 57.3003 91.1C57.3003 87.35 57.3003 83.55 57.3003 79.8C57.3003 78.4 58.1503 77.5 59.4003 77.5C60.6503 77.45 61.6003 78.3 61.6003 79.7C61.7003 81.6 61.6503 83.6 61.6503 85.55Z" fill="#861BB9"/>
<path d="M57.3003 126.3C57.3003 124.45 57.3003 122.6 57.3003 120.75C57.3003 119.3 58.2003 118.4 59.5003 118.4C60.7503 118.4 61.6503 119.25 61.6503 120.7C61.7003 124.5 61.7003 128.3 61.6503 132.15C61.6503 133.55 60.7503 134.4 59.5003 134.45C58.2003 134.45 57.3003 133.6 57.3003 132.1C57.3003 130.15 57.3003 128.25 57.3003 126.3Z" fill="#861BB9"/>
<path d="M61.6503 105.85C61.6503 107.75 61.6503 109.6 61.6503 111.5C61.6503 113.05 60.7503 114 59.4503 114C58.1503 114 57.3003 113 57.3003 111.45C57.3003 107.7 57.3003 103.95 57.3003 100.15C57.3003 98.85 58.2503 97.9 59.4503 97.9C60.7003 97.9 61.5503 98.8 61.5503 100.2C61.6503 102.1 61.6003 103.95 61.6503 105.85Z" fill="#861BB9"/>
<path d="M163.05 52.05C163.05 52.7 163.1 53.3 163.05 53.95C162.9 55.15 161.95 55.95 160.85 55.95C159.7 55.95 158.85 55.1 158.7 53.9C158.65 53.5 158.65 53.05 158.65 52.65C158.7 49.95 158.3 47.35 157.2 44.85C156.55 43.35 157 42.1 158.25 41.6C159.5 41.1 160.6 41.65 161.3 43.2C162.55 45.95 163.05 48.95 163.05 52.05Z" fill="#861BB9"/>
<path d="M145.15 30.75C148.15 31.25 151.1 32.25 153.7 34.05C154.4 34.55 155.15 35.05 155.8 35.65C156.75 36.55 156.85 37.75 156.1 38.7C155.35 39.6 154.05 39.8 153.05 39C150.55 36.95 147.75 35.55 144.55 35C143.45 34.8 142.8 33.7 142.9 32.65C143 31.55 143.9 30.8 145.15 30.75Z" fill="#861BB9"/>
<path d="M163.1 64.55C163.1 65.45 163.15 66.4 163.1 67.3C163 68.75 162.2 69.5 160.9 69.5C159.6 69.5 158.75 68.75 158.7 67.3C158.65 65.4 158.65 63.45 158.7 61.5C158.75 60.25 159.6 59.45 160.75 59.35C161.95 59.3 162.9 60.05 163.05 61.35C163.15 62.45 163.05 63.5 163.1 64.55C163.05 64.55 163.05 64.55 163.1 64.55Z" fill="#861BB9"/>
<path d="M118.5 46.5C116.5 38.85 110.05 33.55 102.35 33.35C100.3 33.3 98.2501 33.65 96.1001 33.85C96.0501 33.7 95.9501 33.45 95.8501 33.15C93.0501 23.4 83.6001 18.2 73.8501 21.05C73.0501 21.3 72.7001 21.1 72.3001 20.45C70.6001 17.5 68.4001 14.95 65.6001 12.95C59.7001 8.75002 53.1001 7.40002 46.1001 9.00002C36.5501 11.15 29.9501 16.75 27.1001 26.35C26.4501 28.55 26.3001 30.9 25.9001 33.3C25.6501 33.35 25.2001 33.45 24.7501 33.5C15.1501 34.95 8.40013 44.65 10.5001 54.15C12.3501 62.5 19.2001 68 27.9501 68.05C33.4501 68.1 39.0001 68.05 44.5001 68.05C63.5001 68.05 82.5001 68.05 101.45 68.05C104.8 68.05 107.95 67.2 110.8 65.4C117.2 61.45 120.4 53.7 118.5 46.5Z" fill="#861BB9"/>
<path d="M145.4 91.75C155.75 91.75 166 91.75 176.4 91.75C176.4 93.2 176.4 94.6 176.4 96.05C166.1 96.05 155.8 96.05 145.4 96.05C145.4 94.65 145.4 93.25 145.4 91.75Z" fill="#861BB9"/>
<path d="M145.35 108.35C145.35 106.95 145.35 105.6 145.35 104.15C155.7 104.15 166 104.15 176.4 104.15C176.4 105.5 176.4 106.9 176.4 108.35C166.1 108.35 155.75 108.35 145.35 108.35Z" fill="#861BB9"/>
<path d="M149.75 118.85C149.75 120.35 149.75 121.75 149.75 123.2C148.25 123.2 146.85 123.2 145.35 123.2C145.35 121.75 145.35 120.35 145.35 118.85C146.75 118.85 148.15 118.85 149.75 118.85Z" fill="#861BB9"/>
<path d="M158 123.25C156.6 123.25 155.2 123.25 153.7 123.25C153.7 121.8 153.7 120.35 153.7 118.8C155.1 118.8 156.5 118.8 158 118.8C158 120.25 158 121.7 158 123.25Z" fill="#861BB9"/>
<path d="M161 156.3C165.95 156.3 170.9 156.3 175.8 156.3C179.45 156.3 181.7 158.5 181.7 162.15C181.7 166.8 181.7 171.45 181.7 176.1C181.7 179.6 179.6 181.95 176.1 182C165.95 182.05 155.85 182.05 145.7 182C142.15 182 140 179.75 140 176.2C139.95 171.45 139.95 166.65 140 161.9C140.05 158.6 142.35 156.35 145.7 156.35C150.8 156.3 155.9 156.3 161 156.3ZM160.85 160.7C156 160.7 151.15 160.7 146.25 160.7C144.55 160.7 144.35 160.9 144.35 162.55C144.35 166.95 144.35 171.35 144.35 175.75C144.35 177.3 144.65 177.6 146.15 177.6C155.95 177.6 165.75 177.6 175.55 177.6C177.05 177.6 177.3 177.3 177.3 175.85C177.3 171.4 177.3 166.95 177.3 162.55C177.3 160.9 177.1 160.75 175.5 160.75C170.65 160.7 165.75 160.7 160.85 160.7Z" fill="#861BB9"/>
<path d="M54.8501 173.2C54.8501 172.9 54.8501 172.65 54.8501 172.35C54.8501 169.8 54.0001 168.95 51.4501 168.9C45.7001 168.9 40.0001 168.9 34.2501 168.9H27.7001C26.6001 168.9 25.5501 168.9 24.4501 168.9C24.4501 168.9 24.4501 168.9 24.4001 168.9C23.5501 168.9 22.8501 169.15 22.3501 169.65C21.8501 170.15 21.6001 170.85 21.6001 171.75C21.6001 172.2 21.6001 172.65 21.6001 173.1C21.6001 173.6 21.6001 174.15 21.6001 174.65C21.6001 176.9 22.5001 177.8 24.7501 177.8C28.3501 177.8 31.9501 177.8 35.6001 177.8H38.2001C39.4001 177.8 40.5501 177.8 41.7501 177.8C45.0501 177.8 48.4501 177.8 51.7501 177.8H51.8001C52.8501 177.8 53.6001 177.5 54.1501 176.95C54.7001 176.4 54.9501 175.6 54.9001 174.65C54.8501 174.2 54.8501 173.75 54.8501 173.2Z" fill="#861BB9"/>
<path d="M74.15 169.05C74.1 169.05 74.1 169.05 74.15 169.05C71.75 169.05 69.8 170.95 69.75 173.3C69.7 174.45 70.2 175.6 71.05 176.45C71.9 177.3 73.05 177.8 74.15 177.8C74.15 177.8 74.15 177.8 74.2 177.8C76.55 177.8 78.5 175.75 78.5 173.4C78.5 171.05 76.55 169.1 74.15 169.05Z" fill="#861BB9"/>
<path d="M96.0503 170.35C95.2003 169.5 94.1003 169.05 92.9003 169.05C90.5503 169.05 88.6003 171 88.5503 173.35C88.5503 174.45 89.0003 175.6 89.8503 176.45C90.7003 177.3 91.8503 177.8 92.9503 177.8C92.9503 177.8 92.9503 177.8 93.0003 177.8C95.3503 177.8 97.3003 175.85 97.3003 173.45C97.3503 172.3 96.9003 171.2 96.0503 170.35Z" fill="#861BB9"/>
</svg>
