<svg width="200" height="201" viewBox="0 0 200 201" fill="none" xmlns="http://www.w3.org/2000/svg">
<path d="M56.6492 73.85C56.6492 73.2 56.6492 72.7 56.6492 72.25C56.6492 64.2 56.7992 56.1 56.5992 48.05C56.4492 42 58.7492 37.1 62.9492 33C67.4992 28.55 72.9492 25.6 78.7992 23.2C87.7992 19.5 97.1492 17.45 106.749 16.2C115.199 15.1 123.649 14.8 132.099 15.1C146.199 15.65 159.999 17.75 173.199 22.95C179.049 25.3 184.599 28.25 189.199 32.65C192.449 35.75 194.899 39.4 195.599 43.95C195.699 44.75 195.749 45.55 195.749 46.35C195.749 77.6 195.749 108.85 195.749 140.05C195.749 145.05 193.549 149.05 190.299 152.6C186.349 156.85 181.449 159.75 176.249 162.1C167.549 166.05 158.349 168.3 148.949 169.75C139.199 171.25 129.399 171.75 119.549 171.2C113.449 170.85 107.349 170 101.249 169.35C100.399 169.25 99.7492 169.35 99.0992 170C97.2992 171.9 95.4492 173.7 93.5992 175.55C91.9992 177.15 90.2492 177.2 88.5492 175.75C86.0992 173.65 83.5992 171.5 81.1992 169.35C80.6492 168.85 80.1992 168.85 79.5492 169.15C77.5992 170.05 75.5992 170.85 73.5992 171.65C72.9992 171.9 72.7492 172.15 72.6992 172.8C72.4992 175.95 72.2492 179.15 71.9992 182.3C71.7992 185 70.6492 186.05 67.9492 186.05C62.5992 186.05 57.1992 186.05 51.8492 186.05C49.2992 186.05 48.1992 185 47.9992 182.45C47.7492 179.3 47.4992 176.1 47.2992 172.95C47.2492 172.2 46.9992 171.85 46.2492 171.55C44.2492 170.8 42.2992 170 40.3992 169.1C39.7492 168.8 39.3992 168.85 38.8492 169.3C36.4492 171.45 33.9992 173.5 31.5492 175.6C29.6992 177.2 27.9992 177.1 26.2492 175.4C22.4492 171.55 18.5992 167.75 14.7992 163.9C12.9492 162.05 12.9492 160.4 14.6492 158.45C16.6992 156.05 18.6992 153.65 20.7992 151.3C21.2492 150.75 21.3492 150.35 21.0492 149.65C20.1492 147.7 19.3492 145.7 18.5992 143.7C18.3492 143.05 18.0992 142.75 17.3992 142.75C14.0992 142.55 10.7492 142.25 7.44922 141.95C5.34922 141.75 4.24922 140.5 4.19922 138.4C4.19922 132.75 4.19922 127.15 4.19922 121.5C4.19922 119.25 5.39922 118 7.69922 117.85C10.8992 117.6 14.0992 117.35 17.2992 117.15C17.9492 117.1 18.2992 116.9 18.5492 116.2C19.2992 114.15 20.1492 112.15 21.0492 110.15C21.3492 109.55 21.2992 109.15 20.8492 108.6C18.7492 106.2 16.6992 103.8 14.6492 101.35C12.9492 99.4 12.9992 97.8 14.7992 95.95C18.6492 92 22.5492 88.1 26.4492 84.2C27.9492 82.7 29.7492 82.65 31.3492 84C33.8992 86.15 36.3992 88.35 38.8992 90.5C39.3992 90.95 39.7492 90.95 40.3492 90.7C42.3992 89.8 44.4492 89 46.4992 88.1C46.8492 87.95 47.2492 87.5 47.2492 87.15C47.5492 83.75 47.7992 80.4 48.0992 77C48.2492 74.95 49.5492 73.75 51.6492 73.75C53.1992 73.85 54.8492 73.85 56.6492 73.85ZM126.299 70.8C129.099 70.8 131.949 70.9 134.749 70.8C144.649 70.3 154.449 68.85 163.949 65.95C170.249 64.05 176.249 61.6 181.649 57.75C183.999 56.05 186.049 54.15 187.599 51.7C189.749 48.25 189.749 44.75 187.649 41.25C186.349 39.1 184.649 37.4 182.699 35.9C178.649 32.7 174.049 30.45 169.249 28.65C159.399 24.95 149.149 23.1 138.699 22.25C123.649 21.05 108.799 21.85 94.0992 25.4C86.9492 27.1 80.0992 29.45 73.7492 33.3C70.1992 35.45 66.9992 37.9 64.8492 41.55C62.9992 44.75 62.9992 48 64.7992 51.25C65.9992 53.4 67.6992 55.2 69.5992 56.75C74.4992 60.7 80.1492 63.25 86.0992 65.2C99.0992 69.45 112.599 71 126.299 70.8ZM109.199 124.5C108.849 124.45 108.699 124.4 108.499 124.4C105.499 124.15 102.549 123.95 99.5492 123.7C97.2492 123.5 96.3992 122.75 95.7992 120.6C94.9492 117.35 93.6992 114.25 91.9492 111.3C90.6492 109.1 90.7492 108.05 92.3992 106.05C94.4492 103.65 96.4492 101.25 98.3992 98.95C95.7492 96.3 93.1992 93.7 90.5492 91.1C90.2992 91.3 89.9992 91.6 89.6992 91.85C87.4992 93.75 85.3492 95.65 83.1492 97.55C81.6492 98.85 80.3492 98.95 78.6492 97.95C75.5992 96.15 72.3992 94.85 68.9492 93.95C67.2492 93.5 66.3492 92.45 66.1992 90.7C65.9492 87.7 65.6992 84.65 65.5492 81.65C65.4992 80.85 65.2992 80.6 64.4492 80.6C61.4492 80.65 58.4492 80.65 55.4492 80.6C54.5992 80.6 54.2992 80.85 54.2492 81.7C54.0492 84.7 53.7992 87.65 53.5992 90.65C53.4492 92.5 52.6492 93.5 50.8492 94C47.3492 94.9 44.0992 96.3 40.9992 98.1C39.4492 99 37.9992 98.9 36.6492 97.75C34.4992 95.9 32.3992 94.1 30.2492 92.25C29.8492 91.9 29.4992 91.6 29.2492 91.4C26.5492 94.05 23.9992 96.6 21.3492 99.2C23.4492 101.65 25.5992 104.15 27.6992 106.65C28.9492 108.1 29.0992 109.4 28.0992 111.05C26.2492 114.2 24.8992 117.5 23.9992 121.05C23.5992 122.55 22.6492 123.45 21.0992 123.65C20.5992 123.7 20.0992 123.75 19.5492 123.8C16.6492 124 13.7492 124.25 10.7992 124.45C10.7992 128.2 10.7992 131.85 10.7992 135.6C13.9992 135.85 17.0992 136.1 20.2492 136.35C22.5992 136.5 23.4992 137.2 24.0992 139.5C24.9492 142.85 26.2992 146 28.0492 149C29.0992 150.75 28.9492 152.05 27.5992 153.6C25.7492 155.8 23.8492 158 21.9992 160.2C21.7492 160.5 21.4992 160.8 21.3492 161C23.9992 163.65 26.5992 166.2 29.1992 168.8C31.5992 166.7 34.0492 164.6 36.4992 162.5C37.9492 161.25 39.2492 161.1 40.8992 162.05C44.0492 163.9 47.3492 165.3 50.8492 166.2C52.5992 166.65 53.3992 167.7 53.5492 169.5C53.7492 172.5 53.9992 175.45 54.1992 178.45C54.2492 179.25 54.4492 179.6 55.3492 179.6C58.3492 179.55 61.3492 179.55 64.3492 179.6C65.1492 179.6 65.3992 179.35 65.4492 178.55C65.6492 175.5 65.8992 172.5 66.0992 169.5C66.2492 167.75 67.0992 166.7 68.7992 166.25C72.2992 165.35 75.5492 164 78.6492 162.15C80.3492 161.15 81.6492 161.3 83.1492 162.6C84.6492 163.9 86.1492 165.2 87.6492 166.45C88.6492 167.3 89.6492 168.15 90.3992 168.85C93.0992 166.2 95.6492 163.65 98.2992 161.05C96.2492 158.65 94.1492 156.2 92.0492 153.7C90.7492 152.15 90.5992 150.85 91.6492 149.1C93.4492 146.05 94.7492 142.85 95.6492 139.4C96.1492 137.5 97.1992 136.65 99.1492 136.5C102.149 136.3 105.099 136.05 108.099 135.8C108.399 135.75 108.949 135.4 108.949 135.15C109.299 131.55 109.199 128.05 109.199 124.5ZM63.4492 60.35C63.4492 65 63.4492 69.4 63.4492 73.9C64.9992 73.9 66.4492 73.9 67.8992 73.9C70.6992 73.9 71.8492 74.95 72.0492 77.8C72.2992 80.95 72.5492 84.05 72.6992 87.2C72.7492 87.85 72.9992 88.15 73.5992 88.35C75.5492 89.1 77.5492 89.9 79.4492 90.8C80.1492 91.1 80.5492 91 81.0492 90.55C83.4992 88.4 85.9492 86.25 88.3992 84.15C90.0992 82.7 91.8492 82.75 93.3992 84.3C97.3492 88.25 101.299 92.2 105.249 96.15C106.599 97.5 106.749 98.75 105.949 100.45C105.899 100.6 105.799 100.75 105.699 101C105.999 101.05 106.199 101.1 106.399 101.15C110.199 101.5 113.949 101.95 117.749 102.15C130.399 102.8 142.949 102.1 155.349 99.6C163.199 98 170.799 95.8 177.949 92.1C181.849 90.1 185.449 87.7 188.249 84.25C188.799 83.55 189.049 82.85 189.049 81.95C188.999 75.1 189.049 68.3 189.049 61.45C189.049 61.15 188.999 60.85 188.949 60.4C188.699 60.6 188.549 60.7 188.399 60.8C184.549 64.2 180.199 66.75 175.499 68.8C164.549 73.6 152.999 75.95 141.149 77.1C131.299 78.05 121.449 78.05 111.599 77.15C102.399 76.3 93.2992 74.65 84.4992 71.8C77.5492 69.5 70.8992 66.55 65.0992 61.9C64.6992 61.35 64.1992 60.9 63.4492 60.35ZM189.099 124.2C188.749 124.45 188.599 124.5 188.449 124.6C183.749 128.2 178.549 130.75 173.049 132.8C159.749 137.7 145.899 139.7 131.849 140.15C126.799 140.3 121.699 140.05 116.599 140C116.199 140 115.599 140.25 115.349 140.55C114.649 141.4 113.799 141.95 112.649 142C109.349 142.25 106.049 142.55 102.699 142.75C101.999 142.8 101.699 143.05 101.449 143.7C100.699 145.7 99.8992 147.7 98.9992 149.65C98.6992 150.3 98.6992 150.7 99.1992 151.3C101.099 153.45 102.899 155.7 104.849 157.85C106.299 159.45 107.199 161.1 105.949 163.25C106.299 163.35 106.499 163.45 106.699 163.45C110.649 163.8 114.549 164.3 118.499 164.5C130.299 165.1 141.999 164.45 153.599 162.15C161.599 160.55 169.399 158.3 176.649 154.45C180.199 152.55 183.499 150.35 186.099 147.25C188.099 144.9 189.199 142.25 189.149 139.05C189.049 134.5 189.099 130 189.099 125.45C189.099 125.15 189.099 124.8 189.099 124.2ZM189.099 92.9C188.749 93.15 188.599 93.2 188.449 93.35C184.199 96.65 179.449 99.05 174.449 101C161.349 106.1 147.699 108.2 133.799 108.85C122.999 109.35 112.249 108.85 101.599 107.15C100.749 107 100.199 107.2 99.7492 107.9C99.5492 108.2 99.1992 108.45 99.0992 108.75C98.9492 109.15 98.7992 109.65 98.9492 110C99.7992 112.2 100.699 114.35 101.649 116.45C101.799 116.8 102.349 117.2 102.699 117.25C105.799 117.55 108.899 117.75 111.999 117.95C114.849 118.15 115.999 119.3 115.949 122.15C115.949 125.5 115.949 128.85 115.949 132.25C115.949 133 116.149 133.3 116.899 133.3C118.049 133.3 119.149 133.45 120.299 133.45C132.699 133.85 144.999 133.05 157.099 130.4C164.749 128.75 172.199 126.45 179.149 122.65C182.649 120.75 185.899 118.5 188.349 115.35C188.799 114.75 189.099 113.9 189.099 113.2C189.149 108.4 189.149 103.55 189.149 98.75C189.099 96.9 189.099 95.05 189.099 92.9Z" fill="#861BB9"/>
<path d="M59.8998 154.2C46.6498 154.15 35.7998 143.25 35.8498 130C35.8498 116.65 46.7498 105.85 60.0998 105.85C73.5998 105.9 84.2498 116.7 84.1998 130.3C84.1998 143.45 73.1998 154.2 59.8998 154.2ZM60.0998 112.55C50.4998 112.5 42.6498 120.3 42.5498 129.85C42.4498 139.45 50.3498 147.4 59.9498 147.45C69.4998 147.5 77.3998 139.7 77.4498 130.2C77.5998 120.45 69.8498 112.6 60.0998 112.55Z" fill="#861BB9"/>
<path d="M174.649 73.5C176.799 73.5 178.949 73.5 181.199 73.5C181.199 77.6 181.199 81.7 181.199 85.85C179.049 85.85 176.899 85.85 174.649 85.85C174.649 81.7 174.649 77.65 174.649 73.5Z" fill="#861BB9"/>
<path d="M170.449 91C168.299 91 166.149 91 163.899 91C163.899 86.9 163.899 82.8 163.899 78.65C166.049 78.65 168.199 78.65 170.449 78.65C170.449 82.75 170.449 86.85 170.449 91Z" fill="#861BB9"/>
<path d="M174.649 135.3C176.849 135.3 178.949 135.3 181.199 135.3C181.199 139.4 181.199 143.5 181.199 147.65C178.999 147.65 176.899 147.65 174.649 147.65C174.649 143.55 174.649 139.45 174.649 135.3Z" fill="#861BB9"/>
<path d="M170.449 151.6C168.249 151.6 166.149 151.6 163.949 151.6C163.949 147.5 163.949 143.4 163.949 139.2C166.099 139.2 168.249 139.2 170.449 139.2C170.449 143.3 170.449 147.4 170.449 151.6Z" fill="#861BB9"/>
<path d="M174.6 117.35C174.6 113.2 174.6 109.15 174.6 105.05C176.8 105.05 178.95 105.05 181.2 105.05C181.2 109.15 181.2 113.2 181.2 117.35C179.05 117.35 176.9 117.35 174.6 117.35Z" fill="#861BB9"/>
<path d="M163.899 121.25C163.899 117.15 163.899 113.1 163.899 108.95C166.099 108.95 168.249 108.95 170.499 108.95C170.499 113 170.499 117.1 170.499 121.25C168.399 121.25 166.149 121.25 163.899 121.25Z" fill="#861BB9"/>
</svg>
