<svg width="320" height="304" viewBox="0 0 320 304" fill="none" xmlns="http://www.w3.org/2000/svg">
<g clip-path="url(#clip0_457_5071)">
<path opacity="0.2" d="M240.756 260.134C288.754 212.17 288.754 134.405 240.756 86.4416C192.758 38.4778 114.938 38.4778 66.9408 86.4416C18.943 134.405 18.943 212.17 66.9407 260.134C114.938 308.097 192.758 308.097 240.756 260.134Z" fill="#5BB6F4"/>
<path d="M238.005 65.9626C238.952 66.7226 239.899 67.5112 240.875 68.3143C241.03 68.4372 241.223 68.503 241.42 68.5007C241.537 68.5027 241.652 68.4793 241.759 68.4323C241.865 68.3852 241.96 68.3156 242.037 68.2282C242.109 68.1467 242.163 68.0517 242.198 67.9489C242.232 67.8462 242.246 67.7376 242.238 67.6295C242.23 67.5214 242.2 67.416 242.151 67.3193C242.102 67.2227 242.034 67.1369 241.951 67.0667C241.019 66.2637 240.057 65.4607 239.081 64.6863C238.914 64.55 238.699 64.4855 238.484 64.507C238.269 64.5285 238.071 64.6342 237.933 64.8011C237.791 64.9656 237.719 65.1793 237.732 65.3964C237.745 65.6136 237.843 65.8168 238.005 65.9626Z" fill="#7CDAF7"/>
<path d="M253.632 80.86C253.706 80.9482 253.798 81.0194 253.902 81.0689C254.006 81.1184 254.119 81.1449 254.234 81.1468C254.404 81.1558 254.573 81.1126 254.718 81.0228C254.862 80.9331 254.976 80.8011 255.043 80.6448C255.111 80.4885 255.128 80.3154 255.094 80.1487C255.06 79.982 254.975 79.8299 254.851 79.7128C254.034 78.7951 253.187 77.8774 252.34 76.9883C252.185 76.8368 251.976 76.752 251.759 76.752C251.542 76.752 251.333 76.8368 251.178 76.9883C251.101 77.0643 251.04 77.1548 250.999 77.2544C250.957 77.3541 250.936 77.4611 250.936 77.5691C250.936 77.6771 250.957 77.784 250.999 77.8837C251.04 77.9834 251.101 78.0738 251.178 78.1498C251.982 79.0532 252.814 79.9566 253.632 80.86Z" fill="#7CDAF7"/>
<path d="M247.432 74.3791C247.509 74.4558 247.599 74.5167 247.699 74.5583C247.799 74.5999 247.906 74.6213 248.014 74.6213C248.122 74.6213 248.229 74.5999 248.328 74.5583C248.428 74.5167 248.519 74.4558 248.595 74.3791C248.672 74.3031 248.733 74.2126 248.774 74.1129C248.816 74.0132 248.837 73.9063 248.837 73.7983C248.837 73.6903 248.816 73.5834 248.774 73.4837C248.733 73.384 248.672 73.2936 248.595 73.2176C247.719 72.3428 246.815 71.4825 245.911 70.6508C245.752 70.5024 245.539 70.4236 245.321 70.4317C245.103 70.4398 244.897 70.534 244.749 70.6938C244.601 70.8535 244.522 71.0656 244.53 71.2834C244.538 71.5013 244.632 71.707 244.792 71.8553C245.667 72.6726 246.557 73.533 247.432 74.3791Z" fill="#7CDAF7"/>
<path d="M259.387 87.7443C259.462 87.8442 259.56 87.9249 259.672 87.9797C259.784 88.0346 259.908 88.062 260.033 88.0598C260.186 88.0598 260.336 88.0169 260.466 87.9358C260.596 87.8548 260.7 87.739 260.768 87.6015C260.835 87.4641 260.862 87.3105 260.846 87.1583C260.831 87.006 260.772 86.8613 260.678 86.7405C259.918 85.7654 259.143 84.7903 258.354 83.8726C258.214 83.7048 258.014 83.5987 257.796 83.5773C257.579 83.5558 257.361 83.6207 257.191 83.7579C257.108 83.827 257.039 83.9121 256.988 84.0082C256.938 84.1043 256.907 84.2095 256.898 84.3176C256.888 84.4257 256.901 84.5346 256.934 84.6379C256.967 84.7412 257.02 84.8369 257.091 84.9194C257.866 85.8228 258.641 86.7835 259.387 87.7443Z" fill="#7CDAF7"/>
<path d="M264.655 95.0008C264.734 95.1095 264.838 95.1984 264.957 95.2606C265.076 95.3228 265.209 95.3566 265.343 95.3593C265.508 95.3605 265.668 95.3103 265.803 95.2159C265.981 95.0939 266.104 94.9062 266.144 94.6939C266.184 94.4816 266.139 94.262 266.018 94.0831C265.329 93.0507 264.583 92.0325 263.894 91.0288C263.831 90.9407 263.752 90.866 263.66 90.8089C263.568 90.7518 263.466 90.7135 263.359 90.6961C263.252 90.6788 263.143 90.6828 263.038 90.7079C262.933 90.733 262.833 90.7787 262.746 90.8423C262.571 90.9714 262.454 91.1636 262.419 91.378C262.384 91.5923 262.435 91.8118 262.56 91.9895C263.277 92.979 264.038 93.9827 264.655 95.0008Z" fill="#7CDAF7"/>
<path d="M215.548 51.2357C216.624 51.795 217.715 52.3829 218.776 52.9708C218.899 53.0414 219.037 53.0808 219.178 53.0855C219.326 53.085 219.47 53.0448 219.596 52.969C219.723 52.8933 219.826 52.7849 219.896 52.6553C219.996 52.4639 220.019 52.2413 219.96 52.0333C219.902 51.8254 219.766 51.6477 219.58 51.5368C218.504 50.9489 217.399 50.3467 216.308 49.7874C216.213 49.7214 216.105 49.6763 215.992 49.655C215.878 49.6338 215.761 49.6369 215.649 49.6641C215.536 49.6914 215.431 49.7422 215.339 49.8131C215.248 49.8841 215.173 49.9736 215.119 50.0757C215.064 50.1779 215.033 50.2903 215.025 50.4057C215.018 50.5211 215.035 50.6367 215.075 50.745C215.116 50.8533 215.179 50.9517 215.26 51.0338C215.342 51.116 215.44 51.1799 215.548 51.2214V51.2357Z" fill="#7CDAF7"/>
<path d="M164.148 36.581C165.353 36.667 166.587 36.7817 167.793 36.9108H167.893C168.11 36.9222 168.323 36.847 168.484 36.7018C168.646 36.5566 168.743 36.3532 168.754 36.1364C168.766 35.9197 168.69 35.7072 168.545 35.5459C168.4 35.3845 168.196 35.2875 167.979 35.2761C166.76 35.147 165.511 35.0323 164.277 34.9462C164.17 34.9364 164.063 34.9481 163.961 34.9804C163.859 35.0128 163.764 35.0653 163.682 35.1348C163.601 35.2043 163.534 35.2893 163.486 35.385C163.438 35.4807 163.409 35.585 163.402 35.6919C163.392 35.7993 163.404 35.9076 163.436 36.0106C163.468 36.1135 163.52 36.2091 163.59 36.2917C163.659 36.3743 163.744 36.4425 163.84 36.4921C163.936 36.5417 164.04 36.5719 164.148 36.581Z" fill="#7CDAF7"/>
<path d="M181.882 39.1332C183.073 39.377 184.279 39.6494 185.47 39.9362C185.531 39.9498 185.595 39.9498 185.656 39.9362C185.842 39.9378 186.023 39.8762 186.169 39.7616C186.315 39.6469 186.417 39.486 186.46 39.3053C186.504 39.0947 186.466 38.8751 186.354 38.6913C186.243 38.5075 186.065 38.3732 185.857 38.3158C184.652 38.029 183.432 37.7566 182.227 37.4985C182.121 37.4753 182.012 37.4733 181.906 37.4926C181.799 37.5118 181.698 37.552 181.607 37.6106C181.516 37.6693 181.438 37.7453 181.377 37.8344C181.316 37.9234 181.273 38.0237 181.251 38.1294C181.225 38.2368 181.222 38.3481 181.24 38.457C181.258 38.5659 181.297 38.67 181.356 38.7635C181.415 38.8569 181.492 38.9377 181.582 39.0012C181.672 39.0646 181.774 39.1095 181.882 39.1332Z" fill="#7CDAF7"/>
<path d="M173.058 37.5552C174.264 37.7273 175.483 37.9137 176.689 38.1288H176.818C177.035 38.1478 177.25 38.08 177.417 37.9401C177.584 37.8003 177.688 37.5999 177.707 37.3832C177.727 37.1664 177.659 36.9509 177.519 36.7842C177.379 36.6175 177.178 36.5131 176.961 36.4941C175.742 36.279 174.507 36.0926 173.288 35.9205C173.181 35.9042 173.073 35.9092 172.968 35.935C172.863 35.9608 172.765 36.007 172.678 36.071C172.592 36.1349 172.518 36.2154 172.463 36.3077C172.407 36.4 172.371 36.5023 172.355 36.6088C172.326 36.827 172.383 37.0478 172.515 37.2245C172.646 37.4012 172.841 37.5199 173.058 37.5552Z" fill="#7CDAF7"/>
<path d="M199.118 44.051C200.266 44.4668 201.429 44.897 202.562 45.3415C202.662 45.362 202.764 45.362 202.864 45.3415C203.051 45.3336 203.231 45.2625 203.373 45.1397C203.515 45.0169 203.611 44.8497 203.646 44.6652C203.681 44.4807 203.653 44.2899 203.565 44.1237C203.478 43.9575 203.337 43.8257 203.165 43.7498C202.017 43.3053 200.84 42.8608 199.678 42.4449C199.576 42.4082 199.468 42.3919 199.36 42.3969C199.252 42.4019 199.146 42.4281 199.048 42.474C198.85 42.5668 198.697 42.7343 198.623 42.9397C198.549 43.145 198.559 43.3714 198.652 43.5691C198.745 43.7667 198.913 43.9195 199.118 43.9936V44.051Z" fill="#7CDAF7"/>
<path d="M190.594 41.2979C191.756 41.6277 192.947 41.9862 194.109 42.359H194.353C194.546 42.3549 194.731 42.2832 194.875 42.1563C195.02 42.0295 195.115 41.8557 195.144 41.6656C195.174 41.4755 195.135 41.2811 195.035 41.1168C194.934 40.9525 194.78 40.8288 194.597 40.7673C193.421 40.3945 192.23 40.036 191.039 39.6919C190.935 39.6627 190.826 39.6542 190.72 39.6668C190.613 39.6795 190.509 39.7131 190.415 39.7657C190.321 39.8183 190.239 39.8889 190.172 39.9734C190.105 40.0579 190.056 40.1547 190.027 40.2583C189.998 40.3618 189.989 40.4701 190.002 40.577C190.014 40.6839 190.048 40.7872 190.101 40.8811C190.153 40.9749 190.224 41.0575 190.309 41.1241C190.393 41.1907 190.49 41.24 190.594 41.2692V41.2979Z" fill="#7CDAF7"/>
<path d="M223.369 55.6379C224.402 56.2688 225.449 56.9284 226.468 57.5881C226.599 57.6781 226.755 57.7234 226.913 57.7171C227.072 57.7002 227.222 57.6371 227.346 57.5357C227.469 57.4342 227.56 57.2989 227.608 57.1464C227.655 56.9938 227.657 56.8308 227.612 56.6774C227.568 56.524 227.479 56.3869 227.358 56.2831C226.325 55.6235 225.263 54.9496 224.215 54.3186C224.025 54.2064 223.798 54.1744 223.584 54.2295C223.37 54.2846 223.187 54.4224 223.075 54.6126C222.962 54.8027 222.93 55.0297 222.985 55.2435C223.041 55.4573 223.178 55.6404 223.369 55.7526V55.6379Z" fill="#7CDAF7"/>
<path d="M207.455 47.3207L210.798 48.8407C210.905 48.8961 211.023 48.9256 211.143 48.9267C211.332 48.9324 211.517 48.8723 211.667 48.7566C211.817 48.6409 211.922 48.4769 211.964 48.2925C212.007 48.108 211.984 47.9146 211.899 47.7452C211.815 47.5759 211.674 47.441 211.501 47.3637C210.382 46.8331 209.248 46.3169 208.115 45.8294C207.937 45.7993 207.755 45.8285 207.596 45.9125C207.437 45.9964 207.31 46.1304 207.235 46.2937C207.16 46.4569 207.141 46.6404 207.18 46.8157C207.22 46.991 207.316 47.1483 207.455 47.2633V47.3207Z" fill="#7CDAF7"/>
<path d="M269.433 102.586C269.507 102.71 269.612 102.812 269.738 102.882C269.864 102.952 270.006 102.989 270.15 102.988C270.292 102.99 270.432 102.95 270.552 102.873C270.647 102.821 270.73 102.75 270.797 102.665C270.864 102.58 270.913 102.483 270.941 102.378C270.969 102.274 270.976 102.165 270.961 102.058C270.946 101.95 270.909 101.847 270.853 101.755C270.236 100.694 269.59 99.6181 268.945 98.5714C268.888 98.4796 268.813 98.4001 268.725 98.3373C268.637 98.2746 268.537 98.23 268.432 98.206C268.326 98.182 268.217 98.1791 268.111 98.1975C268.004 98.2159 267.902 98.2553 267.811 98.3132C267.626 98.4287 267.494 98.6121 267.443 98.824C267.392 99.0358 267.426 99.2592 267.538 99.4461C268.179 100.479 268.811 101.525 269.433 102.586Z" fill="#7CDAF7"/>
<path d="M230.86 60.5566C231.85 61.2592 232.855 61.9905 233.831 62.7219C233.973 62.8227 234.144 62.8777 234.319 62.8796C234.481 62.8702 234.637 62.8125 234.766 62.714C234.896 62.6155 234.993 62.4807 235.045 62.3267C235.098 62.1727 235.103 62.0067 235.061 61.8497C235.018 61.6928 234.929 61.5521 234.806 61.4456C233.816 60.7 232.812 60.0117 231.807 59.266C231.628 59.1426 231.407 59.0945 231.192 59.1321C230.978 59.1696 230.786 59.2898 230.659 59.4668C230.55 59.6404 230.51 59.8489 230.547 60.0509C230.584 60.2528 230.696 60.4333 230.86 60.5566Z" fill="#7CDAF7"/>
<path d="M277.065 117.829L277.395 118.632C277.437 118.731 277.497 118.822 277.574 118.899C277.65 118.975 277.741 119.035 277.841 119.077C277.941 119.118 278.048 119.139 278.156 119.139C278.264 119.139 278.371 119.118 278.471 119.076C278.571 119.035 278.662 118.974 278.738 118.898C278.815 118.821 278.875 118.73 278.917 118.631C278.958 118.531 278.979 118.424 278.979 118.316C278.979 118.208 278.958 118.101 278.916 118.001L278.572 117.183C278.199 116.309 277.826 115.448 277.438 114.588C277.323 114.447 277.164 114.35 276.986 114.31C276.809 114.27 276.623 114.29 276.458 114.367C276.294 114.445 276.16 114.574 276.077 114.736C275.995 114.899 275.969 115.083 276.003 115.262L277.065 117.829Z" fill="#7CDAF7"/>
<path d="M273.68 110.416C273.75 110.553 273.857 110.668 273.989 110.749C274.12 110.83 274.271 110.874 274.426 110.875C274.565 110.872 274.701 110.834 274.821 110.765C274.942 110.695 275.043 110.597 275.116 110.479C275.189 110.36 275.231 110.226 275.238 110.087C275.245 109.948 275.218 109.81 275.158 109.685C274.612 108.58 274.038 107.476 273.464 106.387C273.419 106.283 273.352 106.191 273.269 106.115C273.186 106.039 273.088 105.98 272.981 105.944C272.874 105.907 272.761 105.893 272.649 105.903C272.536 105.912 272.427 105.945 272.328 105.998C272.228 106.052 272.141 106.125 272.072 106.214C272.002 106.303 271.952 106.405 271.924 106.514C271.896 106.623 271.891 106.737 271.909 106.849C271.927 106.96 271.968 107.066 272.029 107.161C272.646 108.279 273.149 109.384 273.68 110.416Z" fill="#7CDAF7"/>
<path d="M284.397 140.759C284.669 141.935 284.913 143.153 285.143 144.344C285.18 144.53 285.28 144.697 285.426 144.817C285.573 144.938 285.757 145.003 285.947 145.003H286.104C286.21 144.983 286.31 144.941 286.4 144.882C286.49 144.823 286.567 144.746 286.627 144.657C286.687 144.567 286.728 144.467 286.75 144.362C286.771 144.256 286.771 144.148 286.75 144.042C286.52 142.838 286.262 141.619 286.004 140.415C285.956 140.202 285.826 140.016 285.642 139.899C285.457 139.782 285.234 139.743 285.021 139.791C284.808 139.838 284.622 139.968 284.505 140.153C284.388 140.337 284.349 140.56 284.397 140.773V140.759Z" fill="#7CDAF7"/>
<path d="M280.565 127.02C280.634 127.225 280.781 127.395 280.975 127.492C281.169 127.588 281.393 127.605 281.598 127.536C281.805 127.465 281.975 127.315 282.071 127.119C282.168 126.923 282.184 126.697 282.115 126.49C281.713 125.328 281.297 124.152 280.867 122.991C280.79 122.787 280.637 122.622 280.439 122.532C280.241 122.442 280.016 122.434 279.812 122.51C279.608 122.586 279.443 122.74 279.353 122.938C279.263 123.135 279.255 123.361 279.331 123.564C279.819 124.754 280.163 125.873 280.565 127.02Z" fill="#7CDAF7"/>
<path d="M282.161 132.068C282.505 133.243 282.836 134.419 283.151 135.609C283.201 135.781 283.304 135.933 283.446 136.041C283.588 136.15 283.762 136.209 283.94 136.212C284.012 136.226 284.085 136.226 284.156 136.212C284.26 136.185 284.359 136.138 284.445 136.073C284.531 136.007 284.603 135.925 284.656 135.832C284.71 135.738 284.744 135.634 284.756 135.527C284.769 135.42 284.76 135.312 284.73 135.208C284.414 134.018 284.084 132.813 283.74 131.637C283.676 131.43 283.534 131.255 283.344 131.151C283.154 131.046 282.93 131.02 282.721 131.078C282.517 131.138 282.345 131.275 282.241 131.46C282.136 131.644 282.108 131.862 282.161 132.068Z" fill="#7CDAF7"/>
<path d="M110.809 43.1911C110.899 43.2049 110.991 43.2049 111.081 43.1911C112.229 42.804 113.406 42.4311 114.568 42.0726C114.775 42.0035 114.946 41.8577 115.048 41.6655C115.149 41.4732 115.173 41.2493 115.114 41.0402C115.051 40.833 114.908 40.6593 114.717 40.5572C114.526 40.455 114.302 40.4328 114.095 40.4953C112.904 40.8681 111.713 41.2409 110.55 41.6425C110.345 41.7112 110.175 41.8584 110.079 42.052C109.982 42.2455 109.966 42.4695 110.034 42.6749C110.097 42.8283 110.204 42.9595 110.342 43.0515C110.48 43.1434 110.643 43.1921 110.809 43.1911Z" fill="#7CDAF7"/>
<path d="M30.5648 117.829L30.6509 117.628C30.6935 117.529 30.7162 117.423 30.7176 117.315C30.7191 117.208 30.6992 117.101 30.6592 117.001C30.6192 116.901 30.5599 116.81 30.4846 116.733C30.4093 116.656 30.3195 116.595 30.2204 116.552C30.1218 116.508 30.0152 116.484 29.9069 116.481C29.7987 116.479 29.6911 116.498 29.5906 116.538C29.4901 116.579 29.3987 116.639 29.322 116.715C29.2453 116.791 29.1848 116.882 29.1442 116.983L29.0581 117.183C28.5989 118.244 28.154 119.334 27.7379 120.41C27.6574 120.613 27.6605 120.84 27.7465 121.042C27.8324 121.243 27.9943 121.402 28.1971 121.485C28.2971 121.499 28.3985 121.499 28.4984 121.485C28.6641 121.484 28.8254 121.433 28.9612 121.338C29.0971 121.243 29.2009 121.11 29.259 120.955C29.6751 119.951 30.1343 118.875 30.5648 117.829Z" fill="#7CDAF7"/>
<path d="M34.0648 108.393C33.9688 108.344 33.864 108.314 33.7563 108.305C33.6487 108.296 33.5403 108.309 33.4376 108.342C33.3349 108.376 33.2398 108.429 33.1578 108.499C33.0758 108.569 33.0085 108.655 32.9599 108.752C32.4146 109.856 31.855 110.974 31.3384 112.093C31.2902 112.189 31.2619 112.295 31.2554 112.402C31.2488 112.51 31.2641 112.618 31.3003 112.72C31.3364 112.822 31.3928 112.915 31.4659 112.994C31.539 113.074 31.6274 113.138 31.7258 113.182C31.8397 113.203 31.9563 113.203 32.0702 113.182C32.2269 113.183 32.3805 113.139 32.5128 113.055C32.645 112.971 32.7504 112.851 32.8164 112.709C33.333 111.619 33.8783 110.501 34.4236 109.425C34.5018 109.239 34.5085 109.031 34.4423 108.841C34.3761 108.65 34.2416 108.491 34.0648 108.393Z" fill="#7CDAF7"/>
<path d="M48.791 85.736C48.7078 85.6674 48.6118 85.6162 48.5084 85.5855C48.4051 85.5548 48.2967 85.5452 48.1896 85.5573C48.0825 85.5693 47.9789 85.6028 47.885 85.6556C47.7911 85.7085 47.7088 85.7797 47.643 85.865C46.8681 86.8258 46.1076 87.8152 45.3614 88.7329C45.2349 88.9089 45.1821 89.1272 45.2143 89.3415C45.2464 89.5557 45.361 89.749 45.5336 89.8801C45.673 89.9876 45.8455 90.0433 46.0215 90.0379C46.1498 90.0396 46.2768 90.0105 46.3916 89.9532C46.5065 89.8958 46.6059 89.8117 46.6815 89.708C47.4134 88.7473 48.1165 87.7579 48.9201 86.8401C49.0453 86.675 49.1017 86.4679 49.0776 86.2621C49.0536 86.0563 48.9509 85.8678 48.791 85.736Z" fill="#7CDAF7"/>
<path d="M54.673 78.8672C54.5969 78.7905 54.5064 78.7296 54.4067 78.688C54.3069 78.6464 54.1999 78.625 54.0918 78.625C53.9837 78.625 53.8767 78.6464 53.777 78.688C53.6772 78.7296 53.5867 78.7905 53.5106 78.8672C52.6784 79.7706 51.8604 80.717 51.0568 81.6491C50.9858 81.7295 50.9316 81.8232 50.8974 81.9248C50.8632 82.0265 50.8497 82.1339 50.8577 82.2408C50.8657 82.3478 50.8951 82.452 50.9441 82.5474C50.9931 82.6428 51.0607 82.7274 51.1429 82.7963C51.2881 82.9279 51.4779 82.9996 51.6739 82.997C51.7933 82.9956 51.9111 82.9693 52.0197 82.92C52.1284 82.8706 52.2257 82.7992 52.3053 82.7102C53.0945 81.7925 53.9124 80.8748 54.7304 79.9714C54.8579 79.8123 54.9224 79.6119 54.9119 79.4084C54.9013 79.2048 54.8163 79.0123 54.673 78.8672Z" fill="#7CDAF7"/>
<path d="M38.4565 100.507C38.27 100.397 38.0474 100.365 37.8375 100.419C37.6277 100.473 37.4478 100.608 37.3373 100.794C36.7059 101.855 36.0888 102.945 35.4861 104.02C35.4311 104.113 35.3955 104.215 35.3816 104.322C35.3677 104.429 35.3758 104.537 35.4054 104.64C35.4349 104.744 35.4854 104.84 35.5535 104.923C35.6217 105.007 35.7062 105.075 35.8018 105.124C35.9236 105.197 36.062 105.236 36.2036 105.239C36.3506 105.237 36.4944 105.196 36.6204 105.121C36.7464 105.045 36.8502 104.938 36.9211 104.809C37.5095 103.748 38.1265 102.687 38.7435 101.64C38.8544 101.451 38.8864 101.227 38.8327 101.015C38.779 100.803 38.6438 100.62 38.4565 100.507Z" fill="#7CDAF7"/>
<path d="M43.378 92.9486C43.1985 92.8252 42.9776 92.7772 42.763 92.8147C42.5484 92.8522 42.357 92.9724 42.23 93.1494C41.5269 94.1675 40.7951 95.2143 40.1637 96.2467C40.0489 96.4302 40.0102 96.6511 40.0557 96.8626C40.1013 97.0741 40.2275 97.2595 40.4076 97.3796C40.541 97.4631 40.6951 97.5078 40.8525 97.5086C40.9896 97.5104 41.1248 97.477 41.2454 97.4118C41.366 97.3465 41.4678 97.2515 41.5413 97.1358C42.2013 96.1177 42.8901 95.0852 43.5789 94.0815C43.6415 93.9944 43.6861 93.8956 43.7099 93.7911C43.7337 93.6865 43.7364 93.5783 43.7176 93.4727C43.6989 93.3671 43.6592 93.2663 43.6009 93.1763C43.5426 93.0863 43.4668 93.0089 43.378 92.9486Z" fill="#7CDAF7"/>
<path d="M128.258 38.6022H128.416C129.607 38.3728 130.827 38.1577 132.032 37.9569C132.139 37.9391 132.241 37.9004 132.332 37.8431C132.424 37.7859 132.503 37.7112 132.566 37.6233C132.628 37.5354 132.673 37.4361 132.697 37.3309C132.721 37.2258 132.725 37.1169 132.707 37.0105C132.689 36.9041 132.65 36.8023 132.593 36.7109C132.535 36.6194 132.461 36.5401 132.373 36.4775C132.285 36.415 132.185 36.3703 132.08 36.3461C131.975 36.3219 131.866 36.3187 131.76 36.3366L128.1 36.9819C127.909 37.0318 127.742 37.1483 127.628 37.3104C127.515 37.4725 127.463 37.6696 127.482 37.8664C127.501 38.0632 127.59 38.2468 127.732 38.3842C127.874 38.5217 128.061 38.6041 128.258 38.6166V38.6022Z" fill="#7CDAF7"/>
<path d="M78.5511 59.151C78.7153 59.1521 78.8759 59.102 79.0103 59.0076C80.0147 58.3337 81.0479 57.6454 82.0811 57.0001C82.2636 56.8823 82.3928 56.6979 82.441 56.4862C82.4893 56.2745 82.4528 56.0524 82.3394 55.8673C82.2823 55.7755 82.2076 55.696 82.1195 55.6332C82.0315 55.5705 81.9319 55.5259 81.8265 55.5019C81.721 55.4779 81.6119 55.475 81.5054 55.4934C81.3988 55.5118 81.297 55.5511 81.2058 55.6091C80.1582 56.2688 79.1107 56.9571 78.0919 57.6454C77.9761 57.7529 77.8934 57.8911 77.8533 58.0439C77.8133 58.1966 77.8176 58.3577 77.8658 58.5081C77.9139 58.6585 78.004 58.7921 78.1253 58.8932C78.2467 58.9944 78.3943 59.059 78.5511 59.0793V59.151Z" fill="#7CDAF7"/>
<path d="M119.461 40.5951C119.527 40.6099 119.596 40.6099 119.662 40.5951C120.853 40.294 122.044 39.9928 123.235 39.7204C123.426 39.6499 123.585 39.5116 123.681 39.3318C123.777 39.152 123.804 38.9433 123.756 38.7452C123.708 38.5471 123.589 38.3734 123.422 38.2571C123.254 38.1408 123.05 38.09 122.848 38.1143C121.657 38.4011 120.437 38.7023 119.246 39.0177C119.054 39.0698 118.889 39.1894 118.779 39.3544C118.669 39.5194 118.624 39.7186 118.65 39.9149C118.676 40.1112 118.773 40.2913 118.922 40.4217C119.071 40.5521 119.263 40.6239 119.461 40.6238V40.5951Z" fill="#7CDAF7"/>
<path d="M94.148 50.0878C94.2726 50.0868 94.3953 50.0574 94.5068 50.0018L97.8216 48.4244C97.9647 48.3087 98.0645 48.1481 98.105 47.9686C98.1454 47.7891 98.1241 47.6012 98.0444 47.4353C97.9648 47.2695 97.8314 47.1353 97.666 47.0546C97.5005 46.9739 97.3127 46.9512 97.1328 46.9904C96.0135 47.5067 94.8799 48.0516 93.7749 48.5965C93.679 48.6437 93.5935 48.7095 93.5233 48.7901C93.4532 48.8707 93.3998 48.9646 93.3664 49.0661C93.333 49.1675 93.3202 49.2747 93.3287 49.3812C93.3373 49.4877 93.367 49.5914 93.4162 49.6863C93.4909 49.8127 93.5982 49.9167 93.727 49.9874C93.8558 50.058 94.0012 50.0927 94.148 50.0878Z" fill="#7CDAF7"/>
<path d="M102.37 46.3607C102.469 46.3812 102.572 46.3812 102.671 46.3607C103.805 45.8875 104.953 45.443 106.086 44.9985C106.187 44.9603 106.28 44.9025 106.359 44.8284C106.437 44.7543 106.5 44.6653 106.545 44.5666C106.589 44.4679 106.613 44.3615 106.615 44.2535C106.618 44.1455 106.599 44.038 106.56 43.9373C106.48 43.7356 106.324 43.5731 106.125 43.4847C105.927 43.3963 105.702 43.3889 105.498 43.4641C104.35 43.9086 103.188 44.3675 102.054 44.8981C101.854 44.9836 101.695 45.1441 101.612 45.3451C101.529 45.5462 101.528 45.7718 101.609 45.9735C101.687 46.103 101.799 46.2079 101.934 46.2764C102.068 46.3448 102.219 46.3741 102.37 46.3607Z" fill="#7CDAF7"/>
<path d="M146.165 36.394C147.37 36.3223 148.604 36.2793 149.824 36.2363C149.932 36.2364 150.039 36.2147 150.138 36.1725C150.238 36.1304 150.328 36.0687 150.403 35.9911C150.478 35.9134 150.536 35.8215 150.575 35.7207C150.614 35.62 150.632 35.5124 150.628 35.4046C150.626 35.296 150.602 35.1889 150.559 35.0895C150.515 34.9901 150.452 34.9004 150.373 34.8256C150.294 34.7508 150.201 34.6925 150.1 34.6541C149.998 34.6156 149.89 34.5978 149.781 34.6016C148.547 34.6016 147.299 34.6876 146.065 34.7593C145.849 34.7741 145.647 34.8721 145.503 35.0327C145.358 35.1933 145.282 35.4038 145.29 35.6197C145.295 35.7284 145.322 35.8349 145.369 35.9329C145.417 36.031 145.483 36.1186 145.564 36.1908C145.646 36.2629 145.741 36.318 145.844 36.3529C145.947 36.3878 146.056 36.4018 146.165 36.394Z" fill="#7CDAF7"/>
<path d="M137.169 37.1966H137.27C138.475 37.0389 139.709 36.9098 140.915 36.7951C141.022 36.7857 141.127 36.7552 141.222 36.7054C141.318 36.6557 141.403 36.5875 141.472 36.505C141.541 36.4224 141.594 36.327 141.626 36.2243C141.659 36.1215 141.67 36.0134 141.661 35.906C141.652 35.7987 141.621 35.6943 141.571 35.5987C141.521 35.5031 141.453 35.4183 141.371 35.3491C141.288 35.2798 141.193 35.2275 141.09 35.1951C140.987 35.1628 140.879 35.1509 140.771 35.1604C139.537 35.2751 138.289 35.4185 137.069 35.5619C136.855 35.5939 136.661 35.707 136.527 35.8777C136.394 36.0485 136.331 36.2639 136.352 36.4796C136.379 36.6773 136.477 36.8585 136.627 36.9902C136.777 37.1218 136.97 37.1951 137.169 37.1966Z" fill="#7CDAF7"/>
<path d="M155.179 36.1928C156.399 36.1928 157.633 36.1928 158.853 36.2789C159.07 36.2789 159.278 36.1927 159.431 36.0395C159.585 35.8862 159.671 35.6783 159.671 35.4615C159.671 35.2447 159.585 35.0368 159.431 34.8835C159.278 34.7303 159.07 34.6441 158.853 34.6441C157.619 34.6441 156.37 34.5581 155.136 34.5581C154.919 34.5581 154.711 34.6442 154.558 34.7975C154.405 34.9508 154.318 35.1587 154.318 35.3755C154.318 35.5922 154.405 35.8001 154.558 35.9534C154.711 36.1067 154.919 36.1928 155.136 36.1928H155.179Z" fill="#7CDAF7"/>
<path d="M86.1985 54.3619C86.3447 54.3596 86.488 54.3201 86.6147 54.2472C87.6622 53.6306 88.7384 53.0283 89.8003 52.4404C89.9732 52.3288 90.0976 52.1561 90.1487 51.9569C90.1998 51.7577 90.1739 51.5465 90.0761 51.3655C89.9783 51.1845 89.8158 51.0471 89.6211 50.9805C89.4263 50.9139 89.2136 50.9232 89.0254 51.0064C87.9348 51.5944 86.8443 52.211 85.7824 52.8276C85.6889 52.8811 85.607 52.9525 85.5412 53.0377C85.4755 53.123 85.4272 53.2203 85.3992 53.3243C85.3712 53.4282 85.364 53.5366 85.3781 53.6433C85.3921 53.75 85.4271 53.8529 85.481 53.9461C85.5549 54.0711 85.6597 54.175 85.7853 54.2478C85.911 54.3206 86.0533 54.3599 86.1985 54.3619Z" fill="#7CDAF7"/>
<path d="M22.8449 138.692H23.0458C23.2302 138.689 23.4085 138.625 23.5536 138.511C23.6986 138.397 23.8025 138.239 23.8493 138.061C24.1363 136.885 24.4377 135.681 24.7677 134.519C24.8 134.317 24.7568 134.111 24.6465 133.939C24.5363 133.767 24.3665 133.642 24.1697 133.587C23.9729 133.532 23.7628 133.551 23.5793 133.641C23.3958 133.731 23.2519 133.885 23.1749 134.074C22.8592 135.265 22.5435 136.484 22.2422 137.674C22.2142 137.78 22.2076 137.891 22.2228 138C22.238 138.109 22.2747 138.214 22.3308 138.309C22.3868 138.403 22.4611 138.486 22.5494 138.552C22.6376 138.617 22.7381 138.665 22.8449 138.692Z" fill="#7CDAF7"/>
<path d="M71.2466 64.4425C71.4285 64.4425 71.6052 64.382 71.7489 64.2704C72.7103 63.5247 73.7004 62.8364 74.6188 62.0621C74.7058 61.9983 74.7793 61.9179 74.8351 61.8257C74.8909 61.7334 74.9278 61.6309 74.9439 61.5243C74.9599 61.4177 74.9546 61.3089 74.9284 61.2044C74.9021 61.0998 74.8554 61.0014 74.791 60.9149C74.7272 60.828 74.6468 60.7545 74.5544 60.6988C74.462 60.643 74.3596 60.6061 74.2529 60.5901C74.1461 60.5741 74.0373 60.5794 73.9327 60.6056C73.828 60.6318 73.7296 60.6784 73.643 60.7428C72.6529 61.4742 71.6628 62.1768 70.687 62.9798C70.6022 63.0457 70.5312 63.1277 70.478 63.221C70.4249 63.3143 70.3907 63.4172 70.3774 63.5237C70.3641 63.6302 70.3719 63.7383 70.4004 63.8418C70.4289 63.9454 70.4775 64.0423 70.5435 64.127C70.6239 64.2353 70.7308 64.3211 70.8539 64.3763C70.977 64.4316 71.1122 64.4543 71.2466 64.4425Z" fill="#7CDAF7"/>
<path d="M64.3154 70.2637C64.5152 70.2631 64.7083 70.192 64.8607 70.0629C65.7791 69.2455 66.7118 68.4425 67.6302 67.6538C67.7139 67.5847 67.783 67.4996 67.8335 67.4035C67.8839 67.3074 67.9147 67.2023 67.9241 67.0941C67.9334 66.986 67.9211 66.8771 67.8879 66.7738C67.8547 66.6705 67.8013 66.5748 67.7306 66.4923C67.6617 66.4102 67.577 66.3426 67.4816 66.2936C67.3861 66.2447 67.2818 66.2153 67.1748 66.2073C67.0678 66.1993 66.9603 66.2128 66.8586 66.247C66.7569 66.2811 66.6631 66.3353 66.5827 66.4063C65.6356 67.195 64.6885 68.0123 63.7127 68.8297C63.5865 68.9394 63.497 69.0853 63.4562 69.2474C63.4155 69.4096 63.4255 69.5804 63.485 69.7367C63.5444 69.893 63.6504 70.0273 63.7886 70.1216C63.9269 70.2158 64.0907 70.2654 64.258 70.2637H64.3154Z" fill="#7CDAF7"/>
<path d="M25.2264 130.003H25.4847C25.6585 130.004 25.828 129.948 25.9678 129.845C26.1075 129.741 26.2099 129.596 26.2595 129.429C26.6326 128.268 27.0201 127.106 27.4219 125.959C27.4913 125.753 27.4776 125.529 27.3837 125.333C27.2899 125.138 27.1234 124.987 26.9196 124.912C26.8181 124.874 26.7098 124.856 26.6013 124.861C26.4928 124.866 26.3864 124.892 26.2885 124.939C26.1906 124.986 26.1033 125.052 26.0317 125.134C25.9601 125.216 25.9058 125.311 25.8721 125.414C25.4703 126.575 25.0685 127.766 24.6954 128.941C24.6596 129.046 24.6449 129.156 24.6522 129.267C24.6596 129.377 24.6888 129.485 24.7383 129.583C24.7877 129.682 24.8563 129.77 24.9401 129.842C25.0239 129.914 25.1212 129.969 25.2264 130.003Z" fill="#7CDAF7"/>
<path d="M57.7858 76.4444C57.8953 76.446 58.004 76.4252 58.1052 76.3833C58.2063 76.3413 58.2979 76.2792 58.3741 76.2006C58.642 75.9138 58.929 75.627 59.2351 75.3403C59.7948 74.7667 60.3831 74.1787 60.9714 73.6195C61.0549 73.5467 61.1226 73.4577 61.1706 73.3579C61.2186 73.2581 61.2458 73.1497 61.2506 73.0391C61.2553 72.9285 61.2376 72.8181 61.1984 72.7145C61.1591 72.611 61.0993 72.5165 61.0224 72.4368C60.9456 72.3571 60.8533 72.2938 60.7512 72.2508C60.6492 72.2077 60.5394 72.1859 60.4287 72.1865C60.3179 72.1872 60.2084 72.2103 60.1068 72.2545C60.0053 72.2987 59.9137 72.363 59.8378 72.4437C59.2495 73.0172 58.6468 73.5908 58.0728 74.1787L57.1975 75.0535C57.1207 75.1295 57.0597 75.2199 57.0181 75.3196C56.9765 75.4193 56.9551 75.5262 56.9551 75.6342C56.9551 75.7422 56.9765 75.8492 57.0181 75.9488C57.0597 76.0485 57.1207 76.139 57.1975 76.215C57.2744 76.2916 57.3664 76.3516 57.4677 76.3911C57.5689 76.4305 57.6772 76.4487 57.7858 76.4444Z" fill="#7CDAF7"/>
<path d="M316.24 120.453V140.744H267.293V117.8C267.293 116.986 267.616 116.206 268.192 115.63C268.768 115.055 269.549 114.731 270.364 114.731H289.865C290.702 114.731 291.505 115.064 292.097 115.655C292.689 116.247 293.022 117.049 293.022 117.886V118.503H314.231C314.496 118.477 314.764 118.51 315.015 118.598C315.267 118.686 315.496 118.828 315.687 119.013C315.878 119.199 316.027 119.424 316.122 119.672C316.218 119.921 316.258 120.187 316.24 120.453Z" fill="#ADF1F2"/>
<path d="M312.482 120.939H270.81C269.494 120.939 268.428 122.005 268.428 123.32V148.658C268.428 149.973 269.494 151.038 270.81 151.038H312.482C313.797 151.038 314.864 149.973 314.864 148.658V123.32C314.864 122.005 313.797 120.939 312.482 120.939Z" fill="white"/>
<path d="M273.235 146.852C273.019 146.856 272.81 146.776 272.652 146.628C272.494 146.481 272.4 146.278 272.389 146.063V124.898C272.4 124.682 272.494 124.479 272.652 124.332C272.81 124.185 273.019 124.105 273.235 124.109C273.454 124.101 273.666 124.179 273.827 124.327C273.989 124.475 274.085 124.68 274.096 124.898V146.063C274.085 146.281 273.989 146.486 273.827 146.633C273.666 146.781 273.454 146.859 273.235 146.852Z" fill="#D3D3D3"/>
<path d="M277.34 146.852C277.121 146.859 276.908 146.781 276.747 146.633C276.586 146.486 276.49 146.281 276.479 146.063V124.898C276.49 124.68 276.586 124.475 276.747 124.327C276.908 124.179 277.121 124.101 277.34 124.109C277.558 124.101 277.771 124.179 277.932 124.327C278.093 124.475 278.189 124.68 278.2 124.898V146.063C278.189 146.281 278.093 146.486 277.932 146.633C277.771 146.781 277.558 146.859 277.34 146.852Z" fill="#D3D3D3"/>
<path d="M281.429 146.852C281.211 146.859 280.998 146.781 280.837 146.633C280.676 146.486 280.58 146.281 280.568 146.063V124.898C280.58 124.68 280.676 124.475 280.837 124.327C280.998 124.179 281.211 124.101 281.429 124.109C281.648 124.101 281.86 124.179 282.022 124.327C282.183 124.475 282.279 124.68 282.29 124.898V146.063C282.279 146.281 282.183 146.486 282.022 146.633C281.86 146.781 281.648 146.859 281.429 146.852Z" fill="#D3D3D3"/>
<path d="M285.561 146.852C285.346 146.856 285.136 146.776 284.978 146.628C284.821 146.481 284.726 146.278 284.715 146.063V124.898C284.726 124.682 284.821 124.479 284.978 124.332C285.136 124.185 285.346 124.105 285.561 124.109C285.78 124.101 285.993 124.179 286.154 124.327C286.315 124.475 286.411 124.68 286.422 124.898V146.063C286.411 146.281 286.315 146.486 286.154 146.633C285.993 146.781 285.78 146.859 285.561 146.852Z" fill="#D3D3D3"/>
<path d="M289.621 146.852C289.402 146.859 289.19 146.781 289.029 146.633C288.867 146.486 288.771 146.281 288.76 146.063V124.898C288.771 124.68 288.867 124.475 289.029 124.327C289.19 124.179 289.402 124.101 289.621 124.109C289.839 124.101 290.052 124.179 290.213 124.327C290.374 124.475 290.471 124.68 290.482 124.898V146.063C290.471 146.281 290.374 146.486 290.213 146.633C290.052 146.781 289.839 146.859 289.621 146.852Z" fill="#D3D3D3"/>
<path d="M293.711 146.852C293.492 146.859 293.279 146.781 293.118 146.633C292.957 146.486 292.861 146.281 292.85 146.063V124.898C292.861 124.68 292.957 124.475 293.118 124.327C293.279 124.179 293.492 124.101 293.711 124.109C293.929 124.101 294.142 124.179 294.303 124.327C294.464 124.475 294.56 124.68 294.572 124.898V146.063C294.56 146.281 294.464 146.486 294.303 146.633C294.142 146.781 293.929 146.859 293.711 146.852Z" fill="#D3D3D3"/>
<path d="M297.8 146.852C297.584 146.856 297.375 146.776 297.217 146.628C297.059 146.481 296.964 146.278 296.953 146.063V124.898C296.964 124.682 297.059 124.479 297.217 124.332C297.375 124.185 297.584 124.105 297.8 124.109C298.018 124.101 298.231 124.179 298.392 124.327C298.553 124.475 298.65 124.68 298.661 124.898V146.063C298.65 146.281 298.553 146.486 298.392 146.633C298.231 146.781 298.018 146.859 297.8 146.852Z" fill="#D3D3D3"/>
<path d="M301.904 146.852C301.686 146.859 301.473 146.781 301.312 146.633C301.151 146.486 301.054 146.281 301.043 146.063V124.898C301.054 124.68 301.151 124.475 301.312 124.327C301.473 124.179 301.686 124.101 301.904 124.109C302.122 124.101 302.335 124.179 302.496 124.327C302.657 124.475 302.754 124.68 302.765 124.898V146.063C302.754 146.281 302.657 146.486 302.496 146.633C302.335 146.781 302.122 146.859 301.904 146.852Z" fill="#D3D3D3"/>
<path d="M305.994 146.852C305.775 146.859 305.563 146.781 305.402 146.633C305.241 146.486 305.144 146.281 305.133 146.063V124.898C305.144 124.68 305.241 124.475 305.402 124.327C305.563 124.179 305.775 124.101 305.994 124.109C306.212 124.101 306.425 124.179 306.586 124.327C306.747 124.475 306.844 124.68 306.855 124.898V146.063C306.844 146.281 306.747 146.486 306.586 146.633C306.425 146.781 306.212 146.859 305.994 146.852Z" fill="#D3D3D3"/>
<path d="M310.097 146.852C309.879 146.859 309.666 146.781 309.505 146.633C309.344 146.486 309.247 146.281 309.236 146.063V124.898C309.247 124.68 309.344 124.475 309.505 124.327C309.666 124.179 309.879 124.101 310.097 124.109C310.313 124.105 310.522 124.185 310.68 124.332C310.838 124.479 310.933 124.682 310.944 124.898V146.063C310.933 146.278 310.838 146.481 310.68 146.628C310.522 146.776 310.313 146.856 310.097 146.852Z" fill="#D3D3D3"/>
<path opacity="0.2" d="M314.862 126.39V148.659C314.862 149.29 314.611 149.896 314.165 150.342C313.718 150.789 313.112 151.039 312.48 151.039H270.866C270.554 151.039 270.245 150.978 269.956 150.858C269.668 150.738 269.407 150.563 269.186 150.341C268.966 150.12 268.792 149.858 268.674 149.569C268.556 149.28 268.496 148.971 268.498 148.659V126.39H314.862Z" fill="black"/>
<path d="M312.407 129.071H271.123C268.682 129.071 266.703 131.048 266.703 133.487V157.521C266.703 159.96 268.682 161.937 271.123 161.937H312.407C314.848 161.937 316.827 159.96 316.827 157.521V133.487C316.827 131.048 314.848 129.071 312.407 129.071Z" fill="url(#paint0_linear_457_5071)"/>
<path d="M173.603 20.6919H148.247C146.932 20.6919 145.865 21.7576 145.865 23.0723V64.7145C145.865 66.0292 146.932 67.0949 148.247 67.0949H173.603C174.919 67.0949 175.985 66.0292 175.985 64.7145V23.0723C175.985 21.7576 174.919 20.6919 173.603 20.6919Z" fill="#9DEAFC"/>
<path d="M150.055 25.5103C150.047 25.292 150.126 25.0795 150.273 24.9185C150.421 24.7575 150.626 24.6611 150.844 24.6499H172.025C172.132 24.6554 172.238 24.682 172.335 24.7283C172.432 24.7745 172.519 24.8395 172.591 24.9194C172.663 24.9993 172.718 25.0927 172.754 25.1941C172.79 25.2954 172.805 25.4029 172.8 25.5103C172.805 25.6177 172.79 25.7251 172.754 25.8265C172.718 25.9279 172.663 26.0212 172.591 26.1012C172.519 26.1811 172.432 26.246 172.335 26.2923C172.238 26.3385 172.132 26.3652 172.025 26.3707H150.844C150.626 26.3595 150.421 26.263 150.273 26.102C150.126 25.9411 150.047 25.7285 150.055 25.5103Z" fill="white"/>
<path d="M150.055 29.5972C150.047 29.379 150.126 29.1664 150.273 29.0054C150.421 28.8445 150.626 28.748 150.844 28.7368H172.025C172.132 28.7423 172.238 28.769 172.335 28.8152C172.432 28.8614 172.519 28.9264 172.591 29.0063C172.663 29.0862 172.718 29.1796 172.754 29.281C172.79 29.3824 172.805 29.4898 172.8 29.5972C172.805 29.7046 172.79 29.812 172.754 29.9134C172.718 30.0148 172.663 30.1081 172.591 30.1881C172.519 30.268 172.432 30.3329 172.335 30.3792C172.238 30.4254 172.132 30.4521 172.025 30.4576H150.844C150.626 30.4464 150.421 30.3499 150.273 30.189C150.126 30.028 150.047 29.8154 150.055 29.5972Z" fill="white"/>
<path d="M150.055 33.6839C150.051 33.4681 150.131 33.2592 150.279 33.1014C150.426 32.9435 150.629 32.849 150.844 32.8379H172.025C172.239 32.849 172.441 32.944 172.586 33.1023C172.731 33.2606 172.807 33.4695 172.8 33.6839C172.805 33.7913 172.79 33.8988 172.754 34.0002C172.718 34.1015 172.663 34.1949 172.591 34.2748C172.519 34.3547 172.432 34.4197 172.335 34.4659C172.238 34.5122 172.132 34.5388 172.025 34.5443H150.844C150.626 34.5331 150.421 34.4367 150.273 34.2757C150.126 34.1147 150.047 33.9022 150.055 33.6839Z" fill="white"/>
<path d="M150.055 37.7852C150.047 37.5669 150.126 37.3544 150.273 37.1934C150.421 37.0324 150.626 36.936 150.844 36.9248H172.025C172.132 36.9303 172.238 36.9569 172.335 37.0032C172.432 37.0494 172.519 37.1144 172.591 37.1943C172.663 37.2742 172.718 37.3676 172.754 37.469C172.79 37.5703 172.805 37.6778 172.8 37.7852C172.805 37.8926 172.79 38 172.754 38.1014C172.718 38.2028 172.663 38.2961 172.591 38.3761C172.519 38.456 172.432 38.5209 172.335 38.5672C172.238 38.6134 172.132 38.6401 172.025 38.6456H150.844C150.626 38.6344 150.421 38.5379 150.273 38.3769C150.126 38.216 150.047 38.0034 150.055 37.7852Z" fill="white"/>
<path d="M150.055 41.8716C150.047 41.6534 150.126 41.4408 150.273 41.2798C150.421 41.1189 150.626 41.0224 150.844 41.0112H172.025C172.132 41.0167 172.238 41.0434 172.335 41.0896C172.432 41.1359 172.519 41.2008 172.591 41.2807C172.663 41.3607 172.718 41.454 172.754 41.5554C172.79 41.6568 172.805 41.7642 172.8 41.8716C172.805 41.979 172.79 42.0864 172.754 42.1878C172.718 42.2892 172.663 42.3826 172.591 42.4625C172.519 42.5424 172.432 42.6074 172.335 42.6536C172.238 42.6998 172.132 42.7265 172.025 42.732H150.844C150.626 42.7208 150.421 42.6243 150.273 42.4634C150.126 42.3024 150.047 42.0898 150.055 41.8716Z" fill="white"/>
<path d="M150.055 45.9583C150.051 45.7426 150.131 45.5337 150.279 45.3758C150.426 45.2179 150.629 45.1234 150.844 45.1123H172.025C172.239 45.1235 172.441 45.2184 172.586 45.3767C172.731 45.535 172.807 45.7439 172.8 45.9583C172.805 46.0657 172.79 46.1732 172.754 46.2746C172.718 46.376 172.663 46.4693 172.591 46.5492C172.519 46.6291 172.432 46.6941 172.335 46.7403C172.238 46.7866 172.132 46.8132 172.025 46.8187H150.844C150.626 46.8076 150.421 46.7111 150.273 46.5501C150.126 46.3891 150.047 46.1766 150.055 45.9583Z" fill="white"/>
<path d="M150.055 50.0591C150.047 49.8409 150.126 49.6283 150.273 49.4673C150.421 49.3064 150.626 49.2099 150.844 49.1987H172.025C172.132 49.2042 172.238 49.2309 172.335 49.2771C172.432 49.3234 172.519 49.3883 172.591 49.4682C172.663 49.5482 172.718 49.6415 172.754 49.7429C172.79 49.8443 172.805 49.9517 172.8 50.0591C172.805 50.1665 172.79 50.2739 172.754 50.3753C172.718 50.4767 172.663 50.5701 172.591 50.65C172.519 50.7299 172.432 50.7948 172.335 50.8411C172.238 50.8873 172.132 50.914 172.025 50.9195H150.844C150.626 50.9083 150.421 50.8118 150.273 50.6509C150.126 50.4899 150.047 50.2773 150.055 50.0591Z" fill="white"/>
<path d="M150.055 54.147C150.047 53.9288 150.126 53.7162 150.273 53.5552C150.421 53.3943 150.626 53.2978 150.844 53.2866H172.025C172.132 53.2921 172.238 53.3188 172.335 53.365C172.432 53.4113 172.519 53.4762 172.591 53.5561C172.663 53.636 172.718 53.7294 172.754 53.8308C172.79 53.9322 172.805 54.0396 172.8 54.147C172.805 54.2544 172.79 54.3618 172.754 54.4632C172.718 54.5646 172.663 54.658 172.591 54.7379C172.519 54.8178 172.432 54.8827 172.335 54.929C172.238 54.9752 172.132 55.0019 172.025 55.0074H150.844C150.626 54.9962 150.421 54.8997 150.273 54.7388C150.126 54.5778 150.047 54.3652 150.055 54.147Z" fill="white"/>
<path d="M150.055 58.2337C150.051 58.0179 150.131 57.809 150.279 57.6512C150.426 57.4933 150.629 57.3988 150.844 57.3877H172.025C172.239 57.3988 172.441 57.4938 172.586 57.6521C172.731 57.8104 172.807 58.0193 172.8 58.2337C172.805 58.3411 172.79 58.4486 172.754 58.55C172.718 58.6513 172.663 58.7447 172.591 58.8246C172.519 58.9045 172.432 58.9695 172.335 59.0157C172.238 59.062 172.132 59.0886 172.025 59.0941H150.844C150.626 59.083 150.421 58.9865 150.273 58.8255C150.126 58.6645 150.047 58.452 150.055 58.2337Z" fill="white"/>
<path d="M150.055 62.3345C150.047 62.1163 150.126 61.9037 150.273 61.7427C150.421 61.5818 150.626 61.4853 150.844 61.4741H172.025C172.132 61.4796 172.238 61.5063 172.335 61.5525C172.432 61.5988 172.519 61.6637 172.591 61.7436C172.663 61.8235 172.718 61.9169 172.754 62.0183C172.79 62.1197 172.805 62.2271 172.8 62.3345C172.805 62.4419 172.79 62.5493 172.754 62.6507C172.718 62.7521 172.663 62.8454 172.591 62.9254C172.519 63.0053 172.432 63.0702 172.335 63.1165C172.238 63.1627 172.132 63.1894 172.025 63.1949H150.844C150.626 63.1837 150.421 63.0872 150.273 62.9263C150.126 62.7653 150.047 62.5527 150.055 62.3345Z" fill="white"/>
<path opacity="0.2" d="M170.533 67.095H148.233C147.605 67.095 147.003 66.8457 146.559 66.402C146.115 65.9583 145.865 65.3565 145.865 64.729V23.144C145.863 22.8321 145.923 22.5229 146.041 22.2342C146.16 21.9455 146.334 21.683 146.554 21.4617C146.774 21.2405 147.035 21.0649 147.324 20.9451C147.612 20.8253 147.921 20.7637 148.233 20.7637H170.533V67.095Z" fill="black"/>
<path d="M164.734 17.8096H139.378C138.063 17.8096 136.996 18.8753 136.996 20.1899V61.8322C136.996 63.1469 138.063 64.2126 139.378 64.2126H164.734C166.05 64.2126 167.116 63.1469 167.116 61.8322V20.1899C167.116 18.8753 166.05 17.8096 164.734 17.8096Z" fill="#9DEAFC"/>
<path d="M141.2 22.628C141.195 22.5194 141.211 22.4108 141.247 22.3085C141.284 22.2062 141.341 22.1123 141.414 22.0322C141.488 21.952 141.576 21.8874 141.675 21.842C141.774 21.7965 141.881 21.7712 141.99 21.7676H163.156C163.264 21.7712 163.371 21.7965 163.47 21.842C163.569 21.8874 163.657 21.952 163.731 22.0322C163.804 22.1123 163.861 22.2062 163.898 22.3085C163.935 22.4108 163.951 22.5194 163.945 22.628C163.951 22.7365 163.935 22.8451 163.898 22.9474C163.861 23.0497 163.804 23.1436 163.731 23.2237C163.657 23.3039 163.569 23.3685 163.47 23.414C163.371 23.4594 163.264 23.4847 163.156 23.4883H142.061C141.947 23.4945 141.832 23.4765 141.725 23.4355C141.617 23.3945 141.52 23.3313 141.439 23.2501C141.358 23.169 141.294 23.0716 141.253 22.9644C141.212 22.8572 141.194 22.7426 141.2 22.628Z" fill="white"/>
<path d="M141.202 26.7153C141.189 26.5973 141.202 26.4779 141.241 26.3654C141.279 26.253 141.341 26.1502 141.423 26.0642C141.505 25.9782 141.605 25.9111 141.715 25.8676C141.826 25.824 141.944 25.805 142.063 25.8119H163.157C163.266 25.8156 163.373 25.8409 163.471 25.8863C163.57 25.9317 163.659 25.9964 163.733 26.0765C163.806 26.1566 163.863 26.2506 163.899 26.3529C163.936 26.4552 163.952 26.5638 163.946 26.6723C163.952 26.7808 163.936 26.8894 163.899 26.9917C163.863 27.094 163.806 27.188 163.733 27.2681C163.659 27.3482 163.57 27.4129 163.471 27.4583C163.373 27.5038 163.266 27.529 163.157 27.5327H142.063C141.952 27.5385 141.841 27.5217 141.737 27.4833C141.632 27.4448 141.537 27.3855 141.457 27.3091C141.376 27.2326 141.312 27.1405 141.268 27.0384C141.224 26.9363 141.202 26.8264 141.202 26.7153Z" fill="white"/>
<path d="M141.2 30.8159C141.195 30.7074 141.211 30.5988 141.247 30.4965C141.284 30.3942 141.341 30.3003 141.414 30.2202C141.488 30.14 141.577 30.0754 141.675 30.0299C141.774 29.9845 141.881 29.9592 141.99 29.9556H163.156C163.264 29.9592 163.371 29.9845 163.47 30.0299C163.569 30.0754 163.658 30.14 163.731 30.2202C163.805 30.3003 163.861 30.3942 163.898 30.4965C163.935 30.5988 163.951 30.7074 163.945 30.8159C163.951 30.9238 163.935 31.0316 163.898 31.1331C163.861 31.2346 163.804 31.3277 163.73 31.4066C163.657 31.4856 163.568 31.5489 163.469 31.5928C163.37 31.6367 163.264 31.6602 163.156 31.662H142.061C141.947 31.6703 141.833 31.6543 141.726 31.6149C141.619 31.5755 141.521 31.5137 141.439 31.4337C141.358 31.3536 141.294 31.2571 141.253 31.1506C141.212 31.044 141.194 30.93 141.2 30.8159Z" fill="white"/>
<path d="M141.2 34.9029C141.195 34.7943 141.211 34.6857 141.247 34.5834C141.284 34.4811 141.341 34.3872 141.414 34.3071C141.488 34.227 141.576 34.1623 141.675 34.1169C141.774 34.0714 141.881 34.0461 141.99 34.0425H163.156C163.264 34.0461 163.371 34.0714 163.47 34.1169C163.569 34.1623 163.657 34.227 163.731 34.3071C163.804 34.3872 163.861 34.4811 163.898 34.5834C163.935 34.6857 163.951 34.7943 163.945 34.9029C163.951 35.0114 163.935 35.12 163.898 35.2223C163.861 35.3246 163.804 35.4185 163.731 35.4986C163.657 35.5788 163.569 35.6434 163.47 35.6889C163.371 35.7343 163.264 35.7596 163.156 35.7632H142.061C141.947 35.7694 141.832 35.7514 141.725 35.7104C141.617 35.6694 141.52 35.6062 141.439 35.525C141.358 35.4439 141.294 35.3465 141.253 35.2393C141.212 35.1321 141.194 35.0175 141.2 34.9029Z" fill="white"/>
<path d="M141.2 38.9898C141.194 38.8758 141.212 38.7617 141.253 38.6552C141.294 38.5486 141.358 38.4521 141.439 38.372C141.521 38.292 141.619 38.2302 141.726 38.1908C141.833 38.1515 141.947 38.1354 142.061 38.1437H163.156C163.264 38.1455 163.37 38.169 163.469 38.2129C163.568 38.2568 163.657 38.3201 163.73 38.3991C163.804 38.4781 163.861 38.5711 163.898 38.6726C163.935 38.7741 163.951 38.882 163.945 38.9898C163.951 39.0983 163.935 39.2069 163.898 39.3092C163.861 39.4115 163.805 39.5055 163.731 39.5856C163.658 39.6657 163.569 39.7304 163.47 39.7758C163.371 39.8212 163.264 39.8465 163.156 39.8502H142.061C141.947 39.8564 141.832 39.8384 141.725 39.7973C141.618 39.7563 141.52 39.6931 141.439 39.612C141.358 39.5308 141.294 39.4334 141.253 39.3262C141.212 39.219 141.194 39.1044 141.2 38.9898Z" fill="white"/>
<path d="M141.2 43.0904C141.195 42.9818 141.211 42.8732 141.247 42.7709C141.284 42.6686 141.341 42.5747 141.414 42.4946C141.488 42.4145 141.576 42.3498 141.675 42.3044C141.774 42.2589 141.881 42.2336 141.99 42.23H163.156C163.264 42.2336 163.371 42.2589 163.47 42.3044C163.569 42.3498 163.657 42.4145 163.731 42.4946C163.804 42.5747 163.861 42.6686 163.898 42.7709C163.935 42.8732 163.951 42.9818 163.945 43.0904C163.951 43.1989 163.935 43.3075 163.898 43.4098C163.861 43.5121 163.804 43.606 163.731 43.6862C163.657 43.7663 163.569 43.8309 163.47 43.8764C163.371 43.9218 163.264 43.9471 163.156 43.9507H142.061C141.947 43.9569 141.832 43.9389 141.725 43.8979C141.617 43.8569 141.52 43.7937 141.439 43.7125C141.358 43.6314 141.294 43.534 141.253 43.4268C141.212 43.3196 141.194 43.205 141.2 43.0904Z" fill="white"/>
<path d="M141.2 47.1773C141.195 47.0687 141.211 46.9602 141.247 46.8579C141.284 46.7556 141.341 46.6616 141.414 46.5815C141.488 46.5014 141.576 46.4367 141.675 46.3913C141.774 46.3458 141.881 46.3206 141.99 46.3169H163.156C163.264 46.3206 163.371 46.3458 163.47 46.3913C163.569 46.4367 163.657 46.5014 163.731 46.5815C163.804 46.6616 163.861 46.7556 163.898 46.8579C163.935 46.9602 163.951 47.0687 163.945 47.1773C163.951 47.2858 163.935 47.3944 163.898 47.4967C163.861 47.599 163.804 47.693 163.731 47.7731C163.657 47.8532 163.569 47.9178 163.47 47.9633C163.371 48.0087 163.264 48.034 163.156 48.0377H142.061C141.947 48.0439 141.832 48.0259 141.725 47.9848C141.617 47.9438 141.52 47.8806 141.439 47.7994C141.358 47.7183 141.294 47.6209 141.253 47.5137C141.212 47.4065 141.194 47.2919 141.2 47.1773Z" fill="white"/>
<path d="M141.2 51.2635C141.195 51.1557 141.211 51.0478 141.248 50.9463C141.284 50.8448 141.341 50.7518 141.415 50.6728C141.489 50.5939 141.578 50.5305 141.676 50.4867C141.775 50.4428 141.882 50.4193 141.99 50.4175H163.156C163.264 50.4193 163.37 50.4428 163.469 50.4867C163.568 50.5305 163.657 50.5939 163.73 50.6728C163.804 50.7518 163.861 50.8448 163.898 50.9463C163.935 51.0478 163.951 51.1557 163.945 51.2635C163.951 51.372 163.935 51.4806 163.898 51.5829C163.861 51.6852 163.804 51.7792 163.731 51.8593C163.657 51.9394 163.569 52.0041 163.47 52.0495C163.371 52.095 163.264 52.1202 163.156 52.1239H142.061C141.947 52.1301 141.832 52.1121 141.725 52.0711C141.617 52.03 141.52 51.9669 141.439 51.8857C141.358 51.8045 141.294 51.7072 141.253 51.6C141.212 51.4928 141.194 51.3781 141.2 51.2635Z" fill="white"/>
<path d="M141.201 55.3657C141.193 55.2499 141.209 55.1337 141.25 55.0248C141.29 54.9158 141.353 54.8167 141.434 54.7339C141.515 54.6512 141.614 54.5867 141.722 54.5448C141.83 54.5029 141.946 54.4846 142.062 54.491H163.156C163.265 54.4947 163.372 54.5199 163.471 54.5654C163.57 54.6108 163.658 54.6755 163.732 54.7556C163.805 54.8357 163.862 54.9296 163.899 55.032C163.936 55.1343 163.952 55.2428 163.946 55.3514C163.952 55.4599 163.936 55.5685 163.899 55.6708C163.862 55.7731 163.805 55.867 163.732 55.9472C163.658 56.0273 163.57 56.0919 163.471 56.1374C163.372 56.1828 163.265 56.2081 163.156 56.2117H142.062C141.949 56.2178 141.835 56.2002 141.729 56.16C141.623 56.1198 141.526 56.0579 141.445 55.9783C141.364 55.8988 141.301 55.8032 141.259 55.6977C141.217 55.5922 141.197 55.4792 141.201 55.3657Z" fill="white"/>
<path d="M141.2 59.4522C141.195 59.3436 141.211 59.2351 141.247 59.1328C141.284 59.0305 141.341 58.9365 141.414 58.8564C141.488 58.7763 141.576 58.7116 141.675 58.6662C141.774 58.6207 141.881 58.5955 141.99 58.5918H163.156C163.264 58.5955 163.371 58.6207 163.47 58.6662C163.569 58.7116 163.657 58.7763 163.731 58.8564C163.804 58.9365 163.861 59.0305 163.898 59.1328C163.935 59.2351 163.951 59.3436 163.945 59.4522C163.951 59.5607 163.935 59.6693 163.898 59.7716C163.861 59.8739 163.804 59.9678 163.731 60.048C163.657 60.1281 163.569 60.1927 163.47 60.2382C163.371 60.2836 163.264 60.3089 163.156 60.3126H142.061C141.947 60.3188 141.832 60.3008 141.725 60.2597C141.617 60.2187 141.52 60.1555 141.439 60.0744C141.358 59.9932 141.294 59.8958 141.253 59.7886C141.212 59.6814 141.194 59.5668 141.2 59.4522Z" fill="white"/>
<path opacity="0.2" d="M145.793 17.8096V27.245C145.793 27.6596 145.958 28.0571 146.251 28.3503C146.544 28.6434 146.942 28.8081 147.357 28.8081H160.946C161.361 28.8081 161.759 28.6434 162.052 28.3503C162.346 28.0571 162.51 27.6596 162.51 27.245V17.8096H145.793Z" fill="black"/>
<path d="M155.122 16.29H149.855V23.5315H155.122V16.29Z" fill="white"/>
<path d="M148.922 13.5371C148.922 12.5711 149.306 11.6447 149.989 10.9616C150.673 10.2786 151.6 9.89485 152.567 9.89485C153.533 9.89485 154.46 10.2786 155.144 10.9616C155.828 11.6447 156.212 12.5711 156.212 13.5371H158.335C158.335 12.0159 157.731 10.5569 156.654 9.48126C155.578 8.40558 154.118 7.80127 152.595 7.80127C151.073 7.80127 149.613 8.40558 148.537 9.48126C147.46 10.5569 146.855 12.0159 146.855 13.5371H148.922Z" fill="#03283B"/>
<path d="M159.368 13.1636H145.765C145.56 13.1636 145.357 13.2041 145.168 13.2828C144.979 13.3615 144.808 13.4769 144.664 13.6222C144.52 13.7676 144.406 13.94 144.329 14.1295C144.252 14.3191 144.213 14.522 144.215 14.7266V25.0081C144.213 25.2127 144.252 25.4156 144.329 25.6052C144.406 25.7947 144.52 25.9671 144.664 26.1125C144.808 26.2578 144.979 26.3732 145.168 26.4519C145.357 26.5306 145.56 26.5711 145.765 26.5711H159.368C159.573 26.5711 159.776 26.5306 159.965 26.4519C160.154 26.3732 160.325 26.2578 160.469 26.1125C160.613 25.9671 160.727 25.7947 160.804 25.6052C160.881 25.4156 160.92 25.2127 160.918 25.0081V14.7266C160.92 14.522 160.881 14.3191 160.804 14.1295C160.727 13.94 160.613 13.7676 160.469 13.6222C160.325 13.4769 160.154 13.3615 159.965 13.2828C159.776 13.2041 159.573 13.1636 159.368 13.1636ZM153.772 22.7424H151.347L151.677 20.3334C151.46 20.1887 151.282 19.9925 151.159 19.7623C151.036 19.532 150.973 19.275 150.974 19.0141C150.974 18.592 151.141 18.1871 151.44 17.8886C151.739 17.5901 152.144 17.4224 152.566 17.4224C152.989 17.4224 153.394 17.5901 153.693 17.8886C153.991 18.1871 154.159 18.592 154.159 19.0141C154.157 19.2743 154.091 19.53 153.969 19.7596C153.847 19.9892 153.671 20.186 153.456 20.3334L153.772 22.7424Z" fill="url(#paint1_linear_457_5071)"/>
<path d="M27.3378 129.058C27.0003 128.919 26.6554 128.8 26.3046 128.699C24.3628 128.148 22.3056 128.148 20.3638 128.699C18.4408 129.247 16.7041 130.31 15.3412 131.772C13.9783 133.234 13.0409 135.041 12.6303 136.996C12.2197 138.952 12.3515 140.982 13.0113 142.869C13.6712 144.755 14.8341 146.425 16.3745 147.699L12.701 156.934L9.4436 165.108C8.82122 166.706 8.85491 168.485 9.53736 170.058C10.2198 171.631 11.4959 172.872 13.0884 173.511L15.2266 168.162L16.2884 168.578L16.7333 167.431L17.379 165.825L16.3171 165.394L18.3835 160.247L19.431 160.662L20.0337 159.228L20.536 157.952L19.4741 157.536L19.9476 156.332L21.0095 156.762L22.1145 153.994L21.0526 153.579L22.4875 150.094C25.0658 150.234 27.611 149.461 29.6743 147.909C31.7377 146.358 33.187 144.129 33.7667 141.615C34.3465 139.1 34.0195 136.462 32.8434 134.165C31.6673 131.868 29.7175 130.059 27.3378 129.058ZM28.7727 137.317C28.3884 138.285 27.6721 139.085 26.7521 139.573C25.832 140.062 24.768 140.208 23.7503 139.985C23.5087 139.939 23.2728 139.867 23.0472 139.77C21.9821 139.322 21.1355 138.475 20.6896 137.41C20.2437 136.345 20.2342 135.148 20.6633 134.076C21.0923 133.004 21.9255 132.144 22.9834 131.68C24.0412 131.216 25.2391 131.186 26.3189 131.596C26.5171 131.677 26.709 131.773 26.8929 131.883C27.7989 132.409 28.4872 133.242 28.8344 134.23C29.1816 135.218 29.1648 136.297 28.7871 137.274L28.7727 137.317Z" fill="url(#paint2_linear_457_5071)"/>
<path d="M25.0827 130.489C25.084 128.463 24.5228 126.476 23.4615 124.749C22.4002 123.022 20.8803 121.623 19.071 120.708C17.2616 119.793 15.2336 119.397 13.2126 119.564C11.1916 119.732 9.25669 120.457 7.6231 121.657C5.98951 122.858 4.72125 124.488 3.95936 126.366C3.19747 128.245 2.97181 130.297 3.30747 132.296C3.64313 134.294 4.52695 136.161 5.86066 137.687C7.19437 139.214 8.92569 140.341 10.8621 140.943V159.685C10.8621 161.415 11.55 163.075 12.7744 164.299C13.9989 165.522 15.6596 166.209 17.3912 166.209V160.474H18.5392V157.505H17.3912V151.956H18.5392V148.988H17.3912V147.697H18.5392V144.729H17.3912V140.886C19.6134 140.196 21.5575 138.816 22.9408 136.946C24.3241 135.077 25.0744 132.815 25.0827 130.489ZM14.1338 131.077C13.2625 131.077 12.4108 130.819 11.6863 130.335C10.9619 129.852 10.3972 129.164 10.0638 128.36C9.73036 127.555 9.64312 126.67 9.8131 125.816C9.98308 124.962 10.4027 124.178 11.0188 123.562C11.6349 122.947 12.4198 122.527 13.2744 122.357C14.1289 122.188 15.0147 122.275 15.8197 122.608C16.6247 122.941 17.3127 123.505 17.7968 124.229C18.2808 124.953 18.5392 125.804 18.5392 126.675C18.5241 127.833 18.0533 128.938 17.2288 129.751C16.4042 130.564 15.2923 131.02 14.1338 131.02V131.077Z" fill="url(#paint3_linear_457_5071)"/>
<path d="M24.6952 108.406C21.4334 108.409 18.2769 109.56 15.7808 111.658C13.2847 113.757 11.6091 116.667 11.0486 119.878C10.9157 120.641 10.8485 121.413 10.8477 122.187C10.8477 122.66 10.8477 123.105 10.9194 123.621C11.1884 126.346 12.268 128.928 14.019 131.034H14.1338C14.8203 131.034 15.4973 130.874 16.1103 130.565C16.7234 130.256 17.2555 129.808 17.6638 129.256C15.8342 127.39 14.8047 124.885 14.7938 122.273C14.7906 120.552 15.2352 118.861 16.0838 117.364C16.9324 115.867 18.156 114.616 19.6344 113.734C21.1128 112.852 22.7953 112.369 24.5167 112.334C26.238 112.298 27.9392 112.71 29.4531 113.529C30.9671 114.348 32.2418 115.547 33.1522 117.008C34.0626 118.468 34.5774 120.14 34.646 121.859C34.7147 123.578 34.3348 125.285 33.5437 126.814C32.7527 128.342 31.5776 129.638 30.1338 130.576C31.177 131.393 32.062 132.394 32.7454 133.53C35.1531 131.834 36.9565 129.415 37.8929 126.624C38.8293 123.834 38.8499 120.817 37.9517 118.014C37.0535 115.211 35.2833 112.768 32.899 111.039C30.5146 109.311 27.6406 108.389 24.6952 108.406ZM26.9912 131.923C26.3237 132.087 25.6405 132.179 24.9535 132.196C24.7244 133.566 24.2374 134.879 23.5185 136.068C23.8916 136.068 24.2647 136.068 24.6521 136.068C26.1449 136.066 27.6276 135.824 29.0432 135.351C28.9957 134.658 28.7851 133.987 28.4285 133.391C28.0718 132.796 27.5793 132.293 26.9912 131.923Z" fill="#03283B"/>
<path d="M238.221 89.0059H72.2942C68.2841 89.0059 65.0332 92.2544 65.0332 96.2617V193.556C65.0332 197.563 68.2841 200.812 72.2942 200.812H238.221C242.231 200.812 245.482 197.563 245.482 193.556V96.2617C245.482 92.2544 242.231 89.0059 238.221 89.0059Z" fill="#03283B"/>
<path opacity="0.2" d="M245.467 144.902V193.585C245.445 195.494 244.67 197.318 243.31 198.66C241.951 200.002 240.117 200.755 238.206 200.755H72.2942C70.3833 200.755 68.5493 200.002 67.1901 198.66C65.8308 197.318 65.0559 195.494 65.0332 193.585V144.902H245.467Z" fill="black"/>
<path d="M237.459 101.209V188.595C237.461 189.679 237.083 190.73 236.391 191.566C235.699 192.401 234.737 192.968 233.67 193.169C233.382 193.227 233.089 193.256 232.795 193.255H77.7027C77.4973 193.27 77.2911 193.27 77.0857 193.255H76.8274C76.2111 193.142 75.6249 192.903 75.1054 192.553C74.7817 192.338 74.4874 192.083 74.2301 191.793C74.1027 191.651 73.983 191.502 73.8713 191.348C73.3324 190.563 73.0424 189.633 73.0391 188.681V101.209C73.0391 99.9731 73.5304 98.7877 74.405 97.9137C75.2796 97.0398 76.4659 96.5488 77.7027 96.5488H232.795C233.282 96.5388 233.767 96.6115 234.23 96.7638C234.573 96.8626 234.902 97.0073 235.206 97.194C235.897 97.6111 236.468 98.2004 236.863 98.9042C237.258 99.608 237.463 100.402 237.459 101.209Z" fill="white"/>
<path d="M262.328 196.925V197.541C262.328 199.4 261.962 201.24 261.25 202.958C260.538 204.675 259.495 206.235 258.18 207.549C256.864 208.863 255.303 209.906 253.585 210.617C251.866 211.329 250.025 211.695 248.165 211.695H62.3351C60.4752 211.695 58.6334 211.329 56.9151 210.617C55.1967 209.906 53.6354 208.863 52.3202 207.549C51.005 206.235 49.9618 204.675 49.25 202.958C48.5382 201.24 48.1719 199.4 48.1719 197.541V196.925H262.328Z" fill="#03283B"/>
<path d="M131.244 196.925V197.054C131.2 197.546 131.351 198.035 131.665 198.416C131.98 198.797 132.431 199.039 132.923 199.09H176.647C177.138 199.039 177.59 198.797 177.904 198.416C178.218 198.035 178.37 197.546 178.325 197.054V196.925H131.244Z" fill="#D4D4D4"/>
<path d="M240.344 199.938H228.936C228.476 199.938 228.104 200.31 228.104 200.769V200.855C228.104 201.315 228.476 201.687 228.936 201.687H240.344C240.804 201.687 241.176 201.315 241.176 200.855V200.769C241.176 200.31 240.804 199.938 240.344 199.938Z" fill="#D4D4D4"/>
<path opacity="0.2" d="M259.645 205.831C258.334 207.648 256.609 209.128 254.613 210.148C252.617 211.167 250.407 211.698 248.165 211.696H62.3353C60.0931 211.701 57.882 211.171 55.8856 210.151C53.8891 209.131 52.1648 207.65 50.8555 205.831H259.645Z" fill="black"/>
<path d="M237.459 101.209V104.837H73.0391V101.209C73.0391 99.9731 73.5304 98.7877 74.405 97.9137C75.2796 97.0398 76.4659 96.5488 77.7027 96.5488H232.795C233.282 96.5388 233.767 96.6115 234.23 96.7638C234.573 96.8626 234.902 97.0073 235.206 97.194C235.897 97.6111 236.468 98.2004 236.863 98.9042C237.258 99.608 237.463 100.402 237.459 101.209Z" fill="#BCBCBC"/>
<path d="M203.395 99.4751H114.871C114.189 99.4751 113.637 100.027 113.637 100.708V100.823C113.637 101.504 114.189 102.056 114.871 102.056H203.395C204.076 102.056 204.629 101.504 204.629 100.823V100.708C204.629 100.027 204.076 99.4751 203.395 99.4751Z" fill="white"/>
<path d="M92.1973 100.952V99.4751L93.4887 100.221L94.7659 100.952L93.4887 101.698L92.1973 102.429V100.952Z" fill="white"/>
<path d="M86.2854 100.952V99.4751L84.9939 100.221L83.7168 100.952L84.9939 101.698L86.2854 102.429V100.952Z" fill="white"/>
<path opacity="0.2" d="M178.612 131.925L152.783 120.798L127.039 131.925C127.039 131.925 122.06 169.997 152.869 177.024C183.678 169.983 178.612 131.925 178.612 131.925Z" fill="black"/>
<path d="M153.286 181.009C153.213 181.009 153.141 180.994 153.074 180.966C153.006 180.937 152.946 180.896 152.895 180.844C152.844 180.792 152.804 180.73 152.778 180.662C152.751 180.594 152.738 180.522 152.74 180.449C152.738 180.377 152.751 180.304 152.778 180.236C152.804 180.169 152.844 180.107 152.895 180.055C152.946 180.003 153.006 179.961 153.074 179.933C153.141 179.905 153.213 179.89 153.286 179.89C153.96 179.89 154.721 179.89 155.323 179.79C155.471 179.782 155.616 179.831 155.728 179.927C155.841 180.023 155.911 180.159 155.926 180.306C155.934 180.38 155.927 180.454 155.905 180.525C155.883 180.596 155.846 180.662 155.798 180.718C155.749 180.775 155.69 180.821 155.623 180.853C155.556 180.886 155.484 180.905 155.409 180.908C154.721 180.908 153.974 180.994 153.3 181.009H153.286ZM150.258 180.908C149.555 180.908 148.823 180.793 148.163 180.693C148.089 180.684 148.018 180.661 147.953 180.624C147.889 180.588 147.832 180.538 147.787 180.48C147.741 180.421 147.708 180.354 147.689 180.282C147.67 180.21 147.665 180.136 147.675 180.062C147.696 179.916 147.775 179.784 147.893 179.695C148.011 179.607 148.16 179.568 148.306 179.589C148.981 179.675 149.655 179.747 150.344 179.804C150.475 179.825 150.595 179.892 150.681 179.994C150.767 180.095 150.814 180.223 150.814 180.356C150.814 180.489 150.767 180.617 150.681 180.719C150.595 180.82 150.475 180.887 150.344 180.908H150.258ZM158.38 180.55C158.25 180.548 158.124 180.502 158.025 180.418C157.925 180.334 157.858 180.219 157.835 180.091C157.822 180.018 157.824 179.944 157.841 179.872C157.857 179.801 157.887 179.733 157.93 179.673C157.973 179.613 158.027 179.562 158.089 179.523C158.152 179.484 158.221 179.458 158.294 179.446C158.968 179.331 159.643 179.202 160.303 179.044C160.449 179.014 160.601 179.042 160.727 179.122C160.853 179.203 160.943 179.329 160.977 179.474C161.007 179.619 160.978 179.769 160.898 179.893C160.817 180.016 160.691 180.103 160.547 180.134C159.872 180.292 159.112 180.435 158.48 180.55H158.38ZM145.192 180.162H145.078C144.389 180.005 143.643 179.833 143.026 179.632C142.886 179.589 142.768 179.493 142.698 179.364C142.629 179.235 142.612 179.084 142.652 178.944C142.693 178.801 142.788 178.68 142.917 178.608C143.046 178.535 143.199 178.517 143.341 178.556C143.987 178.743 144.661 178.915 145.321 179.073C145.393 179.09 145.461 179.12 145.52 179.163C145.58 179.206 145.631 179.261 145.67 179.323C145.708 179.386 145.734 179.456 145.746 179.528C145.757 179.601 145.755 179.675 145.738 179.747C145.706 179.867 145.635 179.973 145.536 180.048C145.438 180.123 145.317 180.163 145.192 180.162ZM163.359 179.345C163.241 179.347 163.125 179.31 163.029 179.24C162.933 179.171 162.863 179.071 162.828 178.958C162.804 178.888 162.794 178.815 162.799 178.741C162.804 178.667 162.823 178.596 162.857 178.53C162.891 178.464 162.937 178.406 162.994 178.359C163.051 178.312 163.116 178.276 163.187 178.255C163.833 178.055 164.478 177.811 165.11 177.567C165.178 177.539 165.25 177.526 165.323 177.527C165.396 177.528 165.469 177.543 165.536 177.573C165.602 177.602 165.663 177.645 165.713 177.698C165.763 177.751 165.802 177.814 165.827 177.883C165.855 177.951 165.869 178.025 165.868 178.099C165.867 178.173 165.852 178.246 165.823 178.314C165.793 178.382 165.751 178.444 165.697 178.495C165.644 178.547 165.581 178.587 165.512 178.614C164.866 178.858 164.191 179.101 163.531 179.316C163.477 179.34 163.418 179.35 163.359 179.345ZM140.313 178.657C140.242 178.67 140.169 178.67 140.098 178.657C139.452 178.413 138.792 178.126 138.161 177.825C138.094 177.796 138.034 177.753 137.984 177.7C137.935 177.647 137.896 177.585 137.87 177.517C137.845 177.449 137.833 177.376 137.837 177.304C137.84 177.231 137.857 177.16 137.888 177.094C137.919 177.027 137.963 176.967 138.017 176.916C138.072 176.866 138.135 176.828 138.205 176.802C138.274 176.777 138.348 176.766 138.421 176.769C138.495 176.772 138.568 176.79 138.635 176.821C139.252 177.108 139.883 177.381 140.514 177.624C140.633 177.674 140.731 177.762 140.792 177.875C140.853 177.987 140.873 178.117 140.85 178.243C140.826 178.369 140.76 178.483 140.662 178.567C140.565 178.65 140.442 178.697 140.313 178.7V178.657ZM168.095 177.409C167.981 177.392 167.876 177.339 167.793 177.259C167.71 177.18 167.654 177.076 167.632 176.964C167.61 176.851 167.623 176.734 167.67 176.629C167.717 176.524 167.795 176.436 167.894 176.377C168.496 176.076 169.113 175.76 169.687 175.416C169.751 175.369 169.823 175.336 169.9 175.319C169.977 175.302 170.056 175.302 170.133 175.318C170.21 175.334 170.283 175.365 170.347 175.411C170.411 175.457 170.465 175.516 170.504 175.584C170.544 175.652 170.569 175.728 170.577 175.806C170.585 175.884 170.577 175.963 170.553 176.038C170.529 176.113 170.489 176.182 170.436 176.24C170.383 176.298 170.319 176.345 170.247 176.377C169.644 176.735 169.027 177.065 168.396 177.381C168.3 177.418 168.196 177.428 168.095 177.409ZM135.693 176.377C135.597 176.38 135.502 176.355 135.42 176.305C134.817 175.961 134.2 175.588 133.626 175.201C133.509 175.117 133.429 174.99 133.403 174.848C133.377 174.706 133.407 174.559 133.487 174.439C133.567 174.318 133.69 174.234 133.831 174.202C133.972 174.17 134.12 174.194 134.243 174.269C134.803 174.642 135.391 175 135.98 175.344C136.082 175.408 136.16 175.504 136.204 175.616C136.247 175.728 136.253 175.851 136.221 175.967C136.189 176.083 136.12 176.186 136.025 176.26C135.93 176.333 135.813 176.374 135.693 176.377ZM172.471 174.728C172.352 174.733 172.233 174.698 172.135 174.629C172.037 174.56 171.965 174.461 171.929 174.347C171.893 174.232 171.896 174.11 171.937 173.997C171.978 173.884 172.055 173.788 172.156 173.724C172.715 173.323 173.261 172.921 173.791 172.491C173.849 172.444 173.915 172.41 173.986 172.389C174.056 172.368 174.131 172.362 174.204 172.37C174.277 172.378 174.348 172.4 174.413 172.436C174.478 172.471 174.535 172.519 174.581 172.577C174.671 172.694 174.712 172.842 174.696 172.988C174.68 173.135 174.608 173.27 174.495 173.366C173.935 173.796 173.375 174.226 172.801 174.627C172.712 174.715 172.596 174.771 172.471 174.785V174.728ZM131.474 173.509C131.345 173.513 131.218 173.473 131.115 173.394C130.57 172.964 130.039 172.491 129.508 171.96C129.404 171.855 129.345 171.714 129.345 171.566C129.345 171.418 129.404 171.276 129.508 171.172C129.559 171.118 129.62 171.076 129.688 171.047C129.756 171.018 129.829 171.003 129.903 171.003C129.976 171.003 130.049 171.018 130.117 171.047C130.185 171.076 130.246 171.118 130.297 171.172C130.814 171.63 131.33 172.075 131.861 172.491C131.919 172.537 131.967 172.594 132.003 172.658C132.038 172.723 132.061 172.794 132.069 172.867C132.077 172.941 132.07 173.015 132.049 173.085C132.028 173.156 131.994 173.222 131.948 173.279C131.893 173.354 131.822 173.413 131.739 173.453C131.657 173.493 131.566 173.512 131.474 173.509ZM176.432 171.501C176.354 171.502 176.278 171.487 176.206 171.458C176.135 171.428 176.07 171.385 176.016 171.329C175.911 171.225 175.853 171.083 175.853 170.935C175.853 170.787 175.911 170.645 176.016 170.541C176.504 170.067 176.991 169.58 177.451 169.107C177.557 169.006 177.698 168.95 177.845 168.95C177.992 168.95 178.133 169.006 178.24 169.107C178.293 169.158 178.336 169.219 178.365 169.287C178.394 169.354 178.409 169.427 178.409 169.501C178.409 169.575 178.394 169.648 178.365 169.715C178.336 169.783 178.293 169.844 178.24 169.895C177.766 170.412 177.264 170.928 176.805 171.329C176.733 171.434 176.626 171.51 176.504 171.544L176.432 171.501ZM127.714 170.067C127.639 170.067 127.565 170.052 127.496 170.022C127.427 169.993 127.365 169.949 127.313 169.895C126.839 169.379 126.365 168.849 125.878 168.304C125.782 168.19 125.737 168.042 125.75 167.894C125.763 167.747 125.835 167.61 125.949 167.515C126.063 167.42 126.211 167.374 126.359 167.387C126.507 167.401 126.643 167.473 126.739 167.587C127.169 168.117 127.628 168.633 128.087 169.135C128.141 169.186 128.183 169.247 128.212 169.315C128.241 169.383 128.256 169.456 128.256 169.53C128.256 169.603 128.241 169.676 128.212 169.744C128.183 169.812 128.141 169.873 128.087 169.924C127.987 170.021 127.854 170.078 127.714 170.082V170.067ZM179.847 167.773C179.725 167.772 179.608 167.726 179.517 167.644C179.459 167.6 179.41 167.545 179.373 167.483C179.336 167.42 179.313 167.35 179.303 167.278C179.294 167.206 179.299 167.133 179.319 167.062C179.338 166.992 179.371 166.927 179.417 166.87C179.833 166.325 180.235 165.766 180.622 165.206C180.708 165.088 180.837 165.007 180.981 164.981C181.125 164.954 181.274 164.983 181.397 165.063C181.518 165.147 181.601 165.276 181.628 165.421C181.655 165.566 181.623 165.715 181.54 165.837C181.139 166.425 180.722 166.999 180.292 167.544C180.241 167.615 180.175 167.672 180.097 167.712C180.02 167.752 179.934 167.773 179.847 167.773ZM124.529 166.11C124.438 166.112 124.348 166.09 124.267 166.048C124.187 166.005 124.119 165.942 124.069 165.866C123.668 165.278 123.28 164.69 122.921 164.088C122.883 164.024 122.858 163.953 122.847 163.879C122.836 163.806 122.84 163.73 122.859 163.658C122.878 163.586 122.911 163.519 122.956 163.459C123.001 163.4 123.058 163.35 123.122 163.313C123.185 163.275 123.255 163.25 123.328 163.24C123.4 163.229 123.474 163.233 123.545 163.252C123.616 163.271 123.683 163.304 123.741 163.349C123.799 163.394 123.847 163.45 123.883 163.514C124.227 164.088 124.6 164.676 124.988 165.235C125.071 165.357 125.103 165.507 125.076 165.652C125.049 165.797 124.966 165.925 124.844 166.009C124.748 166.063 124.639 166.093 124.529 166.095V166.11ZM182.674 163.471C182.578 163.475 182.483 163.45 182.401 163.399C182.275 163.324 182.182 163.204 182.142 163.062C182.102 162.921 182.118 162.77 182.186 162.639C182.53 162.052 182.846 161.435 183.133 160.833C183.164 160.766 183.208 160.705 183.262 160.656C183.317 160.606 183.381 160.568 183.451 160.544C183.521 160.52 183.595 160.51 183.668 160.515C183.742 160.521 183.814 160.541 183.879 160.575C183.946 160.605 184.007 160.649 184.057 160.703C184.107 160.758 184.146 160.821 184.171 160.891C184.196 160.96 184.208 161.034 184.204 161.107C184.201 161.181 184.183 161.253 184.152 161.32C183.836 161.951 183.506 162.582 183.162 163.184C183.115 163.272 183.044 163.345 182.958 163.396C182.872 163.447 182.774 163.473 182.674 163.471ZM121.974 161.664C121.87 161.664 121.767 161.634 121.678 161.579C121.589 161.523 121.518 161.443 121.472 161.349C121.171 160.732 120.884 160.073 120.611 159.427C120.558 159.29 120.559 159.138 120.616 159.002C120.672 158.865 120.778 158.756 120.913 158.696C120.981 158.668 121.055 158.654 121.129 158.655C121.203 158.656 121.276 158.671 121.344 158.701C121.413 158.73 121.474 158.773 121.526 158.826C121.577 158.879 121.617 158.942 121.644 159.012C121.903 159.628 122.19 160.259 122.477 160.876C122.511 160.941 122.531 161.013 122.536 161.087C122.541 161.16 122.532 161.234 122.507 161.304C122.483 161.374 122.445 161.438 122.395 161.492C122.346 161.547 122.286 161.591 122.218 161.621C122.14 161.651 122.058 161.665 121.974 161.664ZM184.855 158.796C184.789 158.81 184.721 158.81 184.654 158.796C184.516 158.745 184.403 158.64 184.341 158.506C184.279 158.372 184.273 158.218 184.324 158.079C184.568 157.449 184.798 156.789 184.999 156.144C185.042 156.004 185.138 155.886 185.267 155.817C185.396 155.747 185.547 155.731 185.687 155.771C185.828 155.817 185.946 155.916 186.016 156.047C186.085 156.178 186.101 156.331 186.061 156.473C185.86 157.147 185.63 157.821 185.372 158.481C185.333 158.591 185.261 158.685 185.166 158.752C185.071 158.819 184.957 158.855 184.841 158.854L184.855 158.796ZM120.109 156.861C119.989 156.859 119.873 156.821 119.776 156.752C119.678 156.683 119.604 156.586 119.564 156.473C119.363 155.799 119.176 155.039 119.004 154.437C118.987 154.366 118.984 154.291 118.996 154.219C119.008 154.146 119.033 154.077 119.072 154.014C119.111 153.951 119.161 153.897 119.221 153.854C119.281 153.811 119.348 153.78 119.42 153.763C119.491 153.744 119.565 153.739 119.637 153.749C119.71 153.759 119.78 153.783 119.843 153.821C119.906 153.858 119.96 153.908 120.004 153.967C120.047 154.026 120.078 154.093 120.095 154.165C120.252 154.824 120.439 155.484 120.64 156.144C120.662 156.213 120.67 156.287 120.663 156.359C120.656 156.432 120.634 156.503 120.599 156.567C120.564 156.631 120.517 156.688 120.46 156.733C120.403 156.779 120.337 156.812 120.267 156.832L120.109 156.861ZM186.29 153.892H186.175C186.031 153.861 185.905 153.775 185.824 153.651C185.744 153.528 185.715 153.377 185.745 153.233C185.888 152.559 186.003 151.885 186.104 151.211C186.132 151.069 186.214 150.944 186.332 150.862C186.45 150.779 186.596 150.746 186.739 150.768C186.881 150.79 187.01 150.866 187.097 150.981C187.185 151.096 187.225 151.24 187.209 151.383C187.108 152.071 186.979 152.817 186.835 153.462C186.818 153.598 186.751 153.722 186.648 153.812C186.545 153.902 186.413 153.951 186.276 153.95L186.29 153.892ZM118.947 151.999C118.812 151.997 118.683 151.947 118.583 151.857C118.483 151.768 118.419 151.645 118.401 151.512C118.301 150.824 118.215 150.078 118.143 149.418C118.13 149.27 118.176 149.123 118.271 149.008C118.367 148.894 118.504 148.822 118.652 148.809C118.801 148.796 118.948 148.842 119.063 148.937C119.177 149.033 119.249 149.17 119.262 149.318C119.262 150.006 119.406 150.752 119.506 151.354C119.533 151.493 119.506 151.636 119.432 151.756C119.357 151.875 119.24 151.962 119.104 151.999H118.947ZM186.965 148.931C186.892 148.927 186.82 148.909 186.754 148.877C186.689 148.846 186.63 148.801 186.582 148.746C186.534 148.691 186.497 148.627 186.474 148.558C186.451 148.489 186.442 148.416 186.448 148.343C186.448 147.669 186.448 146.909 186.448 146.307C186.448 146.158 186.507 146.016 186.612 145.911C186.717 145.806 186.859 145.747 187.008 145.747C187.082 145.745 187.155 145.759 187.224 145.786C187.293 145.813 187.355 145.854 187.408 145.907C187.46 145.959 187.501 146.022 187.529 146.09C187.556 146.159 187.569 146.233 187.567 146.307C187.567 147.024 187.567 147.741 187.567 148.429C187.54 148.564 187.463 148.685 187.351 148.767C187.24 148.849 187.102 148.887 186.965 148.873V148.931ZM118.574 146.837C118.499 146.839 118.426 146.826 118.357 146.799C118.288 146.771 118.226 146.73 118.173 146.678C118.121 146.625 118.08 146.563 118.052 146.494C118.025 146.426 118.012 146.352 118.014 146.278C118.014 145.59 118.014 144.844 118.014 144.199C118.014 144.05 118.073 143.908 118.178 143.803C118.283 143.698 118.425 143.639 118.574 143.639C118.722 143.639 118.864 143.698 118.969 143.803C119.074 143.908 119.133 144.05 119.133 144.199C119.133 144.858 119.133 145.532 119.133 146.206C119.143 146.286 119.137 146.366 119.113 146.442C119.09 146.519 119.05 146.589 118.997 146.649C118.944 146.709 118.879 146.756 118.806 146.789C118.733 146.821 118.653 146.838 118.574 146.837ZM186.878 143.697C186.74 143.701 186.606 143.651 186.504 143.557C186.402 143.463 186.341 143.333 186.333 143.195C186.333 142.507 186.19 141.761 186.089 141.159C186.077 141.087 186.079 141.014 186.096 140.943C186.112 140.872 186.143 140.805 186.186 140.747C186.229 140.688 186.283 140.638 186.345 140.601C186.407 140.563 186.476 140.538 186.548 140.528C186.621 140.515 186.695 140.518 186.767 140.534C186.839 140.55 186.907 140.581 186.967 140.623C187.027 140.666 187.077 140.72 187.117 140.782C187.156 140.845 187.182 140.914 187.194 140.987C187.295 141.689 187.381 142.421 187.438 143.095C187.45 143.241 187.404 143.386 187.31 143.498C187.216 143.611 187.082 143.682 186.936 143.697H186.878ZM118.947 141.747H118.861C118.714 141.725 118.582 141.647 118.493 141.529C118.405 141.411 118.366 141.262 118.387 141.116C118.487 140.427 118.617 139.682 118.76 139.036C118.791 138.892 118.878 138.766 119.001 138.686C119.125 138.605 119.276 138.577 119.42 138.606C119.564 138.637 119.691 138.724 119.771 138.848C119.852 138.971 119.88 139.121 119.851 139.266C119.721 139.94 119.592 140.614 119.492 141.288C119.469 141.416 119.401 141.531 119.302 141.615C119.202 141.699 119.077 141.745 118.947 141.747ZM186.046 138.649C185.921 138.653 185.799 138.613 185.7 138.538C185.601 138.462 185.53 138.355 185.501 138.233C185.343 137.574 185.156 136.914 184.956 136.255C184.934 136.185 184.926 136.112 184.933 136.039C184.94 135.966 184.961 135.896 184.996 135.831C185.031 135.767 185.078 135.711 185.136 135.665C185.193 135.62 185.258 135.586 185.329 135.566C185.397 135.544 185.47 135.536 185.542 135.542C185.614 135.548 185.684 135.568 185.748 135.602C185.812 135.635 185.869 135.681 185.915 135.736C185.962 135.792 185.996 135.856 186.017 135.925C186.233 136.599 186.419 137.287 186.591 137.961C186.609 138.033 186.611 138.107 186.6 138.179C186.588 138.252 186.562 138.322 186.523 138.384C186.485 138.447 186.434 138.501 186.374 138.544C186.315 138.587 186.247 138.618 186.175 138.635L186.046 138.649ZM120.037 136.756H119.879C119.738 136.71 119.621 136.611 119.551 136.48C119.482 136.349 119.465 136.196 119.506 136.054C119.707 135.38 119.937 134.706 120.195 134.046C120.213 133.968 120.248 133.896 120.297 133.832C120.346 133.769 120.408 133.717 120.479 133.68C120.55 133.643 120.628 133.621 120.708 133.617C120.788 133.612 120.868 133.625 120.942 133.654C121.017 133.683 121.085 133.727 121.14 133.785C121.196 133.842 121.239 133.911 121.266 133.986C121.293 134.061 121.304 134.141 121.297 134.221C121.291 134.301 121.267 134.378 121.228 134.448C120.999 135.079 120.769 135.724 120.568 136.384C120.531 136.489 120.463 136.58 120.374 136.647C120.285 136.713 120.177 136.751 120.066 136.756H120.037ZM184.439 133.802C184.326 133.803 184.216 133.769 184.124 133.705C184.031 133.641 183.961 133.55 183.922 133.444C183.664 132.827 183.377 132.196 183.076 131.594C183.011 131.461 183.002 131.308 183.051 131.168C183.099 131.028 183.201 130.913 183.334 130.849C183.4 130.815 183.471 130.795 183.545 130.789C183.619 130.784 183.693 130.794 183.762 130.818C183.832 130.842 183.896 130.88 183.951 130.93C184.006 130.979 184.05 131.04 184.08 131.107C184.396 131.738 184.683 132.383 184.956 133.028C185.008 133.167 185.004 133.321 184.945 133.458C184.887 133.594 184.777 133.702 184.64 133.759C184.586 133.785 184.527 133.799 184.468 133.802H184.439ZM121.974 131.996C121.894 132.014 121.811 132.014 121.73 131.996C121.598 131.931 121.496 131.816 121.447 131.676C121.399 131.536 121.408 131.383 121.472 131.25C121.774 130.619 122.104 129.988 122.448 129.372C122.523 129.245 122.644 129.152 122.785 129.112C122.927 129.072 123.078 129.088 123.208 129.156C123.338 129.229 123.433 129.35 123.473 129.492C123.514 129.634 123.496 129.787 123.424 129.916C123.094 130.519 122.778 131.121 122.477 131.738C122.426 131.823 122.352 131.893 122.263 131.939C122.174 131.985 122.074 132.004 121.974 131.996ZM182.243 129.228C182.145 129.231 182.048 129.207 181.962 129.159C181.876 129.111 181.805 129.041 181.756 128.956C181.411 128.382 181.038 127.809 180.651 127.249C180.57 127.124 180.54 126.973 180.567 126.827C180.594 126.68 180.675 126.55 180.794 126.461C180.92 126.378 181.073 126.349 181.221 126.378C181.369 126.408 181.499 126.494 181.583 126.618C181.971 127.192 182.358 127.794 182.717 128.382C182.792 128.51 182.815 128.662 182.78 128.807C182.745 128.951 182.656 129.077 182.53 129.156C182.444 129.207 182.344 129.232 182.243 129.228ZM124.486 127.622C124.377 127.624 124.27 127.589 124.184 127.522C124.061 127.44 123.975 127.312 123.945 127.167C123.915 127.022 123.945 126.871 124.026 126.747C124.428 126.174 124.844 125.6 125.275 125.041C125.368 124.926 125.502 124.851 125.649 124.832C125.796 124.813 125.945 124.852 126.064 124.941C126.122 124.987 126.17 125.044 126.205 125.108C126.241 125.173 126.263 125.244 126.271 125.317C126.279 125.39 126.273 125.465 126.252 125.535C126.231 125.606 126.197 125.672 126.15 125.729C125.748 126.26 125.332 126.819 124.959 127.378C124.906 127.454 124.835 127.516 124.752 127.558C124.67 127.601 124.578 127.623 124.486 127.622ZM179.216 125.113C179.134 125.111 179.053 125.092 178.979 125.058C178.905 125.023 178.839 124.973 178.785 124.912C178.355 124.396 177.895 123.879 177.436 123.378C177.381 123.325 177.336 123.262 177.306 123.191C177.276 123.121 177.26 123.045 177.261 122.969C177.261 122.892 177.277 122.817 177.308 122.747C177.338 122.676 177.383 122.613 177.439 122.561C177.495 122.509 177.562 122.469 177.634 122.444C177.706 122.418 177.783 122.408 177.859 122.413C177.935 122.418 178.01 122.439 178.078 122.474C178.146 122.51 178.206 122.558 178.254 122.618C178.728 123.134 179.201 123.664 179.689 124.209C179.742 124.259 179.784 124.319 179.813 124.385C179.842 124.452 179.857 124.524 179.857 124.596C179.857 124.669 179.842 124.741 179.813 124.807C179.784 124.874 179.742 124.934 179.689 124.984C179.621 125.031 179.543 125.062 179.461 125.074C179.379 125.087 179.295 125.08 179.216 125.055V125.113ZM127.714 123.564C127.572 123.567 127.433 123.516 127.327 123.421C127.273 123.37 127.231 123.309 127.202 123.241C127.173 123.173 127.158 123.1 127.158 123.026C127.158 122.953 127.173 122.88 127.202 122.812C127.231 122.744 127.273 122.683 127.327 122.632C127.8 122.116 128.303 121.614 128.762 121.198C128.867 121.094 129.009 121.035 129.156 121.035C129.304 121.035 129.446 121.094 129.551 121.198C129.604 121.249 129.647 121.31 129.676 121.378C129.705 121.446 129.72 121.519 129.72 121.592C129.72 121.666 129.705 121.739 129.676 121.807C129.647 121.875 129.604 121.936 129.551 121.987C129.063 122.46 128.575 122.947 128.116 123.421C128.006 123.52 127.862 123.571 127.714 123.564ZM175.714 121.37C175.646 121.373 175.577 121.362 175.513 121.337C175.449 121.312 175.39 121.275 175.341 121.227C174.825 120.768 174.308 120.323 173.777 119.907C173.662 119.814 173.587 119.68 173.568 119.533C173.549 119.386 173.588 119.238 173.677 119.119C173.723 119.061 173.78 119.013 173.844 118.978C173.909 118.942 173.98 118.92 174.053 118.912C174.127 118.904 174.201 118.91 174.272 118.931C174.343 118.952 174.409 118.986 174.466 119.033C175.011 119.463 175.556 119.922 176.087 120.395C176.172 120.471 176.231 120.57 176.257 120.68C176.284 120.79 176.276 120.905 176.236 121.011C176.196 121.116 176.124 121.207 176.031 121.271C175.938 121.335 175.827 121.37 175.714 121.37ZM131.46 120.079C131.375 120.08 131.292 120.062 131.215 120.027C131.139 119.993 131.07 119.942 131.015 119.879C130.968 119.821 130.934 119.755 130.913 119.685C130.892 119.614 130.886 119.54 130.894 119.466C130.902 119.393 130.924 119.322 130.96 119.258C130.995 119.193 131.043 119.136 131.101 119.09C131.646 118.66 132.22 118.23 132.794 117.828C132.853 117.784 132.92 117.753 132.991 117.736C133.063 117.719 133.137 117.716 133.209 117.728C133.281 117.74 133.351 117.767 133.412 117.806C133.474 117.845 133.528 117.897 133.569 117.957C133.613 118.016 133.644 118.083 133.661 118.154C133.679 118.226 133.681 118.3 133.669 118.372C133.657 118.444 133.631 118.513 133.591 118.575C133.552 118.637 133.5 118.69 133.44 118.732C132.88 119.133 132.335 119.535 131.804 119.965C131.699 120.049 131.565 120.09 131.431 120.079H131.46ZM171.639 118.244C171.526 118.246 171.415 118.211 171.323 118.144C170.764 117.771 170.175 117.412 169.587 117.068C169.458 116.996 169.362 116.875 169.322 116.733C169.282 116.59 169.3 116.438 169.372 116.308C169.449 116.18 169.574 116.088 169.718 116.051C169.863 116.013 170.017 116.033 170.147 116.107C170.749 116.452 171.352 116.824 171.94 117.212C172.064 117.293 172.15 117.421 172.18 117.566C172.209 117.711 172.18 117.862 172.098 117.986C172.051 118.065 171.983 118.131 171.903 118.176C171.822 118.221 171.731 118.245 171.639 118.244ZM135.65 117.197C135.525 117.2 135.403 117.161 135.302 117.087C135.202 117.012 135.13 116.906 135.097 116.786C135.064 116.666 135.072 116.538 135.12 116.422C135.168 116.307 135.254 116.212 135.363 116.15C135.965 115.806 136.597 115.462 137.214 115.161C137.28 115.126 137.352 115.105 137.426 115.099C137.5 115.092 137.575 115.101 137.645 115.123C137.716 115.146 137.782 115.183 137.838 115.231C137.895 115.279 137.941 115.338 137.974 115.405C138.042 115.533 138.057 115.682 138.017 115.821C137.977 115.96 137.885 116.078 137.759 116.15C137.156 116.452 136.554 116.781 135.965 117.126C135.868 117.176 135.759 117.201 135.65 117.197ZM167.219 115.763C167.143 115.777 167.066 115.777 166.99 115.763C166.373 115.476 165.741 115.204 165.095 114.96C164.958 114.903 164.849 114.795 164.79 114.658C164.731 114.522 164.727 114.368 164.78 114.229C164.807 114.16 164.847 114.097 164.899 114.043C164.95 113.99 165.012 113.948 165.08 113.918C165.148 113.889 165.221 113.873 165.295 113.873C165.369 113.872 165.443 113.886 165.512 113.913C166.157 114.172 166.817 114.444 167.463 114.745C167.53 114.776 167.591 114.82 167.64 114.874C167.69 114.929 167.728 114.993 167.752 115.063C167.776 115.132 167.786 115.206 167.781 115.28C167.776 115.353 167.755 115.425 167.721 115.491C167.667 115.587 167.583 115.663 167.483 115.709C167.383 115.756 167.27 115.769 167.162 115.749L167.219 115.763ZM140.299 114.989C140.171 114.986 140.048 114.939 139.95 114.856C139.852 114.772 139.786 114.658 139.763 114.532C139.739 114.407 139.76 114.276 139.821 114.164C139.882 114.051 139.98 113.963 140.098 113.913C140.744 113.655 141.418 113.412 142.078 113.196C142.148 113.173 142.222 113.163 142.295 113.168C142.369 113.173 142.44 113.192 142.506 113.225C142.572 113.258 142.631 113.303 142.68 113.358C142.728 113.414 142.765 113.478 142.789 113.548C142.812 113.617 142.822 113.691 142.817 113.764C142.812 113.838 142.793 113.91 142.76 113.975C142.727 114.041 142.682 114.1 142.627 114.149C142.571 114.197 142.507 114.234 142.437 114.258C141.791 114.473 141.131 114.702 140.5 114.946C140.418 114.98 140.329 114.99 140.242 114.975L140.299 114.989ZM162.426 113.971H162.154C161.508 113.77 160.834 113.598 160.174 113.455C160.102 113.438 160.034 113.407 159.975 113.364C159.915 113.321 159.864 113.266 159.826 113.204C159.787 113.141 159.761 113.072 159.749 112.999C159.738 112.926 159.74 112.852 159.757 112.781C159.773 112.71 159.802 112.642 159.844 112.583C159.885 112.523 159.938 112.473 160 112.434C160.061 112.395 160.13 112.369 160.202 112.357C160.273 112.345 160.347 112.348 160.417 112.365C161.106 112.523 161.852 112.695 162.469 112.895C162.612 112.935 162.733 113.03 162.806 113.159C162.878 113.288 162.897 113.441 162.857 113.584C162.819 113.686 162.753 113.775 162.667 113.841C162.581 113.907 162.477 113.947 162.369 113.956L162.426 113.971ZM145.207 113.483C145.079 113.483 144.955 113.438 144.855 113.357C144.756 113.276 144.688 113.164 144.661 113.039C144.644 112.968 144.642 112.895 144.654 112.823C144.666 112.751 144.692 112.683 144.73 112.621C144.769 112.56 144.82 112.507 144.88 112.465C144.939 112.424 145.006 112.394 145.078 112.379C145.766 112.221 146.513 112.078 147.144 111.963C147.216 111.951 147.291 111.953 147.362 111.97C147.434 111.986 147.502 112.016 147.562 112.059C147.622 112.102 147.673 112.156 147.712 112.218C147.751 112.28 147.777 112.35 147.79 112.422C147.802 112.495 147.8 112.569 147.783 112.64C147.767 112.712 147.736 112.78 147.694 112.84C147.651 112.9 147.597 112.951 147.535 112.99C147.472 113.029 147.403 113.055 147.33 113.067C146.656 113.182 145.982 113.311 145.321 113.469L145.207 113.483ZM157.447 112.924H157.361C156.687 112.838 156.012 112.766 155.338 112.723C155.189 112.709 155.052 112.639 154.953 112.527C154.855 112.415 154.802 112.27 154.807 112.121C154.821 111.974 154.892 111.838 155.004 111.742C155.117 111.646 155.262 111.597 155.409 111.605C156.113 111.605 156.844 111.734 157.519 111.82C157.665 111.841 157.797 111.919 157.886 112.038C157.975 112.156 158.013 112.304 157.992 112.451C157.965 112.59 157.886 112.714 157.772 112.799C157.658 112.884 157.517 112.923 157.375 112.91L157.447 112.924ZM150.272 112.709C150.131 112.709 149.995 112.656 149.891 112.561C149.787 112.465 149.723 112.333 149.713 112.193C149.707 112.12 149.715 112.047 149.738 111.978C149.761 111.908 149.798 111.844 149.846 111.789C149.894 111.735 149.953 111.69 150.019 111.658C150.085 111.627 150.156 111.608 150.229 111.605C150.932 111.605 151.664 111.519 152.339 111.504C152.487 111.504 152.629 111.563 152.734 111.668C152.839 111.773 152.898 111.915 152.898 112.064C152.898 112.212 152.839 112.354 152.734 112.459C152.629 112.564 152.487 112.623 152.339 112.623C151.664 112.623 150.904 112.623 150.301 112.709H150.272Z" fill="#03283B"/>
<path d="M152.824 174.226C122.058 167.2 126.994 129.142 126.994 129.142L152.824 118.015L178.654 129.142C178.654 129.142 183.676 167.2 152.824 174.226Z" fill="#03283B"/>
<path d="M173.517 148.328C170.489 160.187 163.472 167.586 152.824 170.311C142.119 167.586 135.174 160.187 132.146 148.328C130.854 142.893 130.37 137.298 130.711 131.723L152.882 122.158L175.067 131.723C175.37 137.304 174.847 142.899 173.517 148.328Z" fill="#174356"/>
<g opacity="0.2">
<path opacity="0.2" d="M173.519 148.328C170.491 160.187 163.474 167.586 152.826 170.311V122.158L175.068 131.723C175.371 137.304 174.849 142.899 173.519 148.328Z" fill="black"/>
</g>
<path d="M161.793 139.381H160.918C160.837 138.608 160.649 137.851 160.359 137.13C159.744 135.633 158.701 134.351 157.361 133.443C156.022 132.535 154.444 132.042 152.825 132.025C151.196 132.029 149.605 132.516 148.253 133.425C146.902 134.334 145.851 135.623 145.234 137.13C144.932 137.848 144.739 138.606 144.66 139.381H143.785C143.229 139.381 142.696 139.602 142.303 139.994C141.91 140.387 141.689 140.919 141.689 141.475V155.126C141.689 155.681 141.91 156.214 142.303 156.606C142.696 156.999 143.229 157.22 143.785 157.22H161.851C162.407 157.22 162.939 156.999 163.332 156.606C163.725 156.214 163.946 155.681 163.946 155.126V141.475C163.946 141.195 163.89 140.918 163.781 140.66C163.672 140.402 163.513 140.169 163.312 139.974C163.112 139.778 162.874 139.625 162.613 139.524C162.352 139.422 162.073 139.373 161.793 139.381ZM147.903 137.13C148.422 136.311 149.141 135.636 149.991 135.17C150.842 134.703 151.797 134.46 152.767 134.463C153.726 134.472 154.666 134.721 155.503 135.187C156.341 135.653 157.048 136.321 157.56 137.13C158.003 137.81 158.292 138.578 158.407 139.381H146.927C147.086 138.569 147.419 137.801 147.903 137.13ZM154.791 152.645H150.672L151.648 148.587C151.32 148.373 151.05 148.082 150.86 147.74C150.67 147.397 150.566 147.014 150.558 146.623C150.558 146.007 150.803 145.416 151.238 144.98C151.674 144.544 152.266 144.3 152.882 144.3C153.311 144.3 153.732 144.419 154.097 144.644C154.462 144.87 154.757 145.192 154.949 145.576C155.11 145.901 155.194 146.26 155.193 146.623C155.195 147.222 154.964 147.798 154.547 148.229C154.36 148.422 154.142 148.582 153.901 148.702L154.791 152.645Z" fill="url(#paint4_linear_457_5071)"/>
<path d="M196.261 172.247C196.777 173.81 197.28 175.387 197.782 176.95C197.782 177.036 197.782 177.122 197.868 177.294L193.348 173.982L188.727 177.381C188.727 177.194 188.799 177.122 188.813 177.065C189.33 175.488 189.818 173.896 190.349 172.333C190.449 172.018 190.349 171.86 190.148 171.673L186.245 168.805L185.943 168.576H186.345C187.967 168.576 189.588 168.576 191.224 168.576C191.276 168.584 191.329 168.581 191.38 168.568C191.431 168.555 191.479 168.532 191.521 168.5C191.562 168.467 191.597 168.427 191.622 168.381C191.648 168.335 191.664 168.284 191.669 168.232C191.913 167.458 192.171 166.683 192.415 165.909C192.659 165.134 193.003 164.102 193.319 163.127V163.242C193.319 163.242 193.319 163.342 193.319 163.399L193.405 163.643C193.893 165.178 194.395 166.712 194.84 168.246C194.847 168.299 194.865 168.349 194.892 168.395C194.919 168.44 194.955 168.48 194.998 168.511C195.041 168.541 195.09 168.563 195.142 168.574C195.194 168.586 195.247 168.586 195.299 168.576C196.935 168.576 198.571 168.576 200.221 168.576H200.666L200.293 168.863L196.39 171.731C196.317 171.793 196.266 171.876 196.243 171.968C196.22 172.061 196.226 172.158 196.261 172.247Z" fill="url(#paint5_linear_457_5071)"/>
<path d="M203.653 142.68C204.184 144.243 204.672 145.82 205.175 147.383C205.175 147.469 205.175 147.555 205.261 147.727L200.74 144.415L196.034 147.699C196.053 147.596 196.082 147.495 196.12 147.398C196.622 145.806 197.124 144.228 197.641 142.651C197.741 142.35 197.727 142.192 197.454 142.006C196.134 141.059 194.843 140.099 193.537 139.138L193.25 138.908C193.242 138.885 193.242 138.86 193.25 138.837H198.516C198.569 138.845 198.623 138.842 198.675 138.829C198.727 138.816 198.775 138.793 198.818 138.761C198.861 138.729 198.897 138.689 198.924 138.643C198.951 138.597 198.968 138.546 198.975 138.493C199.205 137.718 199.463 136.944 199.722 136.155L200.626 133.388C200.634 133.426 200.634 133.465 200.626 133.502C200.632 133.555 200.632 133.608 200.626 133.66C200.661 133.739 200.689 133.821 200.712 133.904C201.214 135.438 201.716 136.973 202.147 138.507C202.168 138.612 202.229 138.706 202.317 138.767C202.405 138.829 202.514 138.854 202.62 138.837H207.987L207.614 139.124C206.308 140.07 205.017 141.031 203.697 141.991C203.647 142.033 203.606 142.084 203.577 142.141C203.547 142.199 203.53 142.262 203.526 142.326C203.522 142.391 203.531 142.455 203.553 142.516C203.575 142.577 203.609 142.633 203.653 142.68Z" fill="url(#paint6_linear_457_5071)"/>
<path d="M192.559 118.287C193.09 119.85 193.577 121.413 194.08 122.99C194.08 123.076 194.08 123.162 194.166 123.32L189.646 120.008L184.924 123.32C184.924 123.148 184.924 123.076 185.025 123.005C185.527 121.427 186.029 119.85 186.546 118.273C186.607 118.159 186.62 118.025 186.582 117.901C186.545 117.778 186.459 117.674 186.345 117.613C185.039 116.681 183.748 115.72 182.442 114.745L182.141 114.516H182.542C184.164 114.516 185.785 114.516 187.421 114.516C187.527 114.528 187.634 114.499 187.72 114.435C187.805 114.371 187.863 114.277 187.881 114.171C188.11 113.397 188.368 112.623 188.612 111.834C188.856 111.045 189.201 110.027 189.516 109.052V109.167C189.52 109.219 189.52 109.272 189.516 109.325L189.603 109.583C190.105 111.117 190.593 112.637 191.037 114.171C191.055 114.277 191.113 114.371 191.198 114.435C191.284 114.499 191.391 114.528 191.497 114.516C193.133 114.516 194.783 114.516 196.419 114.516H196.878L196.505 114.802C195.199 115.749 193.907 116.71 192.587 117.67C192.512 117.754 192.468 117.861 192.463 117.974C192.458 118.086 192.491 118.197 192.559 118.287Z" fill="url(#paint7_linear_457_5071)"/>
<path d="M109.56 172.247C109.043 173.81 108.541 175.387 108.039 176.95C108.039 177.036 108.039 177.122 107.953 177.294L112.473 173.982L117.093 177.381C117.066 177.274 117.032 177.168 116.993 177.065C116.491 175.488 115.988 173.896 115.472 172.333C115.371 172.018 115.4 171.86 115.673 171.673L119.576 168.805L119.877 168.576H119.475C117.854 168.576 116.232 168.576 114.596 168.576C114.544 168.584 114.491 168.581 114.44 168.568C114.389 168.555 114.342 168.532 114.3 168.5C114.258 168.467 114.224 168.427 114.198 168.381C114.173 168.335 114.157 168.284 114.152 168.232C113.908 167.458 113.649 166.683 113.405 165.909C113.161 165.134 112.817 164.102 112.501 163.127V163.242C112.501 163.242 112.501 163.342 112.501 163.399L112.415 163.643C111.927 165.178 111.425 166.712 110.98 168.246C110.973 168.299 110.956 168.349 110.929 168.395C110.902 168.44 110.865 168.48 110.822 168.511C110.779 168.541 110.73 168.563 110.678 168.574C110.627 168.586 110.573 168.586 110.521 168.576C108.885 168.576 107.235 168.576 105.599 168.576H105.154L105.527 168.863C106.819 169.809 108.11 170.77 109.431 171.731C109.503 171.793 109.554 171.876 109.578 171.968C109.601 172.061 109.594 172.158 109.56 172.247Z" fill="url(#paint8_linear_457_5071)"/>
<path d="M102.155 142.68C101.638 144.243 101.15 145.82 100.72 147.383C100.681 147.495 100.652 147.61 100.634 147.727L105.154 144.415L109.789 147.699C109.789 147.527 109.717 147.455 109.703 147.398C109.201 145.806 108.698 144.228 108.167 142.651C108.081 142.35 108.167 142.192 108.368 142.006C109.688 141.059 110.98 140.099 112.286 139.138L112.573 138.908C112.58 138.885 112.58 138.86 112.573 138.837H107.278C107.225 138.845 107.171 138.842 107.119 138.829C107.067 138.816 107.019 138.793 106.976 138.761C106.933 138.729 106.897 138.689 106.87 138.643C106.843 138.597 106.826 138.546 106.819 138.493C106.589 137.718 106.331 136.944 106.072 136.155L105.168 133.388V133.502V133.66C105.127 133.736 105.098 133.819 105.082 133.904C104.58 135.438 104.078 136.973 103.647 138.507C103.626 138.612 103.565 138.706 103.477 138.767C103.389 138.829 103.28 138.854 103.174 138.837H97.6777L98.0508 139.124L101.954 141.991C102.018 142.018 102.075 142.058 102.121 142.109C102.167 142.16 102.201 142.221 102.22 142.287C102.239 142.353 102.244 142.423 102.232 142.491C102.221 142.559 102.195 142.623 102.155 142.68Z" fill="url(#paint9_linear_457_5071)"/>
<path d="M113.263 118.287C112.732 119.85 112.244 121.413 111.742 122.991C111.742 123.077 111.742 123.163 111.656 123.321L116.233 120.008L120.897 123.321C120.897 123.149 120.897 123.077 120.797 123.005C120.294 121.428 119.792 119.85 119.276 118.273C119.243 118.217 119.223 118.155 119.216 118.091C119.208 118.027 119.214 117.962 119.233 117.9C119.252 117.838 119.283 117.781 119.325 117.731C119.367 117.682 119.418 117.642 119.476 117.613C120.782 116.681 122.074 115.721 123.38 114.745L123.681 114.516H123.293C121.672 114.516 120.05 114.516 118.415 114.516C118.362 114.524 118.308 114.522 118.256 114.509C118.204 114.496 118.155 114.472 118.113 114.44C118.07 114.408 118.034 114.368 118.007 114.322C117.98 114.276 117.962 114.225 117.955 114.172C117.726 113.398 117.467 112.623 117.209 111.835L116.233 108.981V109.096C116.23 109.148 116.23 109.201 116.233 109.253C116.233 109.354 116.233 109.425 116.147 109.512C115.645 111.046 115.157 112.566 114.712 114.1C114.695 114.206 114.637 114.3 114.552 114.364C114.466 114.428 114.359 114.457 114.253 114.444C112.603 114.444 110.967 114.444 109.331 114.444H108.771C108.958 114.573 109.044 114.659 109.145 114.731C110.45 115.678 111.742 116.638 113.062 117.599C113.122 117.629 113.176 117.671 113.219 117.723C113.262 117.774 113.295 117.835 113.313 117.899C113.332 117.964 113.338 118.032 113.329 118.099C113.32 118.165 113.298 118.23 113.263 118.287Z" fill="url(#paint10_linear_457_5071)"/>
</g>
<defs>
<linearGradient id="paint0_linear_457_5071" x1="291.758" y1="154.38" x2="291.758" y2="103.862" gradientUnits="userSpaceOnUse">
<stop stop-color="#77C2FD"/>
<stop offset="1" stop-color="#ADF1F2"/>
</linearGradient>
<linearGradient id="paint1_linear_457_5071" x1="1920.11" y1="300.487" x2="1920.11" y2="-138.074" gradientUnits="userSpaceOnUse">
<stop stop-color="#77C2FD"/>
<stop offset="1" stop-color="#ADF1F2"/>
</linearGradient>
<linearGradient id="paint2_linear_457_5071" x1="119.957" y1="5750.21" x2="954.658" y2="4682.67" gradientUnits="userSpaceOnUse">
<stop stop-color="#77C2FD"/>
<stop offset="1" stop-color="#ADF1F2"/>
</linearGradient>
<linearGradient id="paint3_linear_457_5071" x1="219.132" y1="4452.61" x2="219.132" y2="3429.79" gradientUnits="userSpaceOnUse">
<stop stop-color="#77C2FD"/>
<stop offset="1" stop-color="#ADF1F2"/>
</linearGradient>
<linearGradient id="paint4_linear_457_5071" x1="2511.12" y1="2869.18" x2="2511.12" y2="2325.48" gradientUnits="userSpaceOnUse">
<stop stop-color="#77C2FD"/>
<stop offset="1" stop-color="#ADF1F2"/>
</linearGradient>
<linearGradient id="paint5_linear_457_5071" x1="2169.11" y1="1905.06" x2="2169.11" y2="1729.6" gradientUnits="userSpaceOnUse">
<stop stop-color="#77C2FD"/>
<stop offset="1" stop-color="#ADF1F2"/>
</linearGradient>
<linearGradient id="paint6_linear_457_5071" x1="2255.2" y1="1583.98" x2="2255.2" y2="1434.71" gradientUnits="userSpaceOnUse">
<stop stop-color="#77C2FD"/>
<stop offset="1" stop-color="#ADF1F2"/>
</linearGradient>
<linearGradient id="paint7_linear_457_5071" x1="2129.22" y1="1319.54" x2="2129.22" y2="1150.33" gradientUnits="userSpaceOnUse">
<stop stop-color="#77C2FD"/>
<stop offset="1" stop-color="#ADF1F2"/>
</linearGradient>
<linearGradient id="paint8_linear_457_5071" x1="-6990.96" y1="1905.06" x2="-6990.96" y2="1729.6" gradientUnits="userSpaceOnUse">
<stop stop-color="#77C2FD"/>
<stop offset="1" stop-color="#ADF1F2"/>
</linearGradient>
<linearGradient id="paint9_linear_457_5071" x1="-7154.09" y1="1583.98" x2="-7154.09" y2="1434.71" gradientUnits="userSpaceOnUse">
<stop stop-color="#77C2FD"/>
<stop offset="1" stop-color="#ADF1F2"/>
</linearGradient>
<linearGradient id="paint10_linear_457_5071" x1="-7054.36" y1="1325.56" x2="-7054.36" y2="1155.49" gradientUnits="userSpaceOnUse">
<stop stop-color="#77C2FD"/>
<stop offset="1" stop-color="#ADF1F2"/>
</linearGradient>
<clipPath id="clip0_457_5071">
<rect width="320" height="304" fill="white"/>
</clipPath>
</defs>
</svg>
