<svg width="560" height="307" viewBox="0 0 560 307" fill="none" xmlns="http://www.w3.org/2000/svg">
<path d="M468.881 50.2098C448.534 22.5389 412.643 5.27821 378.902 12.0583C334.33 21.0048 305.923 65.9247 263.77 82.7872C222.158 99.3804 175.048 86.1832 130.546 91.4644C111.173 93.8064 91.2953 100.224 78.2666 114.697C65.7078 128.656 61.22 148.258 61.3139 167.006C61.5724 218.39 97.4161 277.725 145.466 296.461L153.349 297.831C196.394 303.276 288.206 302.726 331.287 297.609C374.367 292.491 427.128 263.146 455.653 230.545C475.625 207.722 487.291 178.33 491.062 148.293C495.338 114.182 489.217 77.8924 468.881 50.2098Z" fill="white"/>
<path d="M165.122 83.8416C164.907 83.1571 164.831 82.4364 164.899 81.7221C164.831 81.0078 164.907 80.2871 165.122 79.6025C165.344 80.2856 165.42 81.0078 165.344 81.7221C165.42 82.4364 165.344 83.1585 165.122 83.8416Z" fill="#1E1A50"/>
<path d="M165.122 92.3191C164.907 91.6346 164.831 90.9139 164.899 90.1996C164.831 89.4853 164.907 88.7646 165.122 88.0801C165.344 88.7631 165.42 89.4853 165.344 90.1996C165.42 90.9139 165.344 91.6361 165.122 92.3191Z" fill="#1E1A50"/>
<path d="M165.122 100.798C164.907 100.113 164.831 99.3924 164.899 98.6781C164.831 97.9638 164.907 97.2431 165.122 96.5586C165.344 97.2417 165.42 97.9638 165.344 98.6781C165.42 99.3924 165.344 100.115 165.122 100.798Z" fill="#1E1A50"/>
<path d="M165.119 109.276C164.822 107.878 164.822 106.434 165.119 105.037C165.341 105.72 165.417 106.442 165.341 107.156C165.417 107.87 165.341 108.593 165.119 109.276Z" fill="#1E1A50"/>
<path d="M165.119 117.753C164.822 116.356 164.822 114.912 165.119 113.514C165.415 114.912 165.415 116.356 165.119 117.753Z" fill="#1E1A50"/>
<path d="M165.119 126.232C164.822 124.835 164.822 123.391 165.119 121.993C165.415 123.391 165.415 124.835 165.119 126.232Z" fill="#1E1A50"/>
<path d="M165.119 134.71C164.822 133.312 164.822 131.868 165.119 130.471C165.415 131.868 165.415 133.312 165.119 134.71Z" fill="#1E1A50"/>
<path d="M165.119 143.188C164.822 141.791 164.822 140.347 165.119 138.949C165.415 140.347 165.415 141.791 165.119 143.188Z" fill="#1E1A50"/>
<path d="M169.233 147.579C168.546 147.793 167.823 147.868 167.107 147.801C166.442 147.82 165.777 147.773 165.121 147.661H165.027C165.027 147.567 165.086 147.509 165.11 147.509C165.133 147.509 165.11 147.509 165.192 147.661L165.11 147.579C165.765 147.467 166.43 147.42 167.095 147.438C167.81 147.343 168.537 147.391 169.233 147.579Z" fill="#1E1A50"/>
<path d="M177.739 147.579C176.337 147.876 174.888 147.876 173.486 147.579C174.888 147.283 176.337 147.283 177.739 147.579Z" fill="#1E1A50"/>
<path d="M186.243 147.579C184.841 147.876 183.392 147.876 181.99 147.579C183.392 147.283 184.841 147.283 186.243 147.579Z" fill="#1E1A50"/>
<path d="M194.751 147.579C193.349 147.876 191.9 147.876 190.498 147.579C191.9 147.283 193.349 147.283 194.751 147.579Z" fill="#1E1A50"/>
<path d="M203.243 147.579C201.841 147.876 200.392 147.876 198.99 147.579C200.392 147.283 201.841 147.283 203.243 147.579Z" fill="#1E1A50"/>
<path d="M553.151 288.439C553.151 288.568 430.853 288.662 280.018 288.662C129.183 288.662 6.84961 288.568 6.84961 288.439C6.84961 288.311 129.136 288.264 280.018 288.264C430.9 288.264 553.151 288.322 553.151 288.439Z" fill="#1E1A50" stroke="black" stroke-width="0.824742" stroke-miterlimit="10"/>
<path d="M478.258 258.848C479.75 260.745 482.405 260.019 483.592 258.684C484.661 257.323 485.361 255.71 485.624 254C486.529 250.136 487.433 246.084 486.411 242.29C486.165 241.124 485.59 240.052 484.755 239.199C484.339 238.773 483.818 238.465 483.245 238.305C482.671 238.144 482.065 238.138 481.489 238.285C480.849 238.582 480.281 239.012 479.821 239.545C479.361 240.078 479.021 240.702 478.822 241.377C477.21 245.191 476.475 249.316 476.672 253.45C476.638 255.39 477.191 257.295 478.258 258.918" fill="#74A5E8"/>
<g opacity="0.2">
<path opacity="0.2" d="M478.258 258.848C479.75 260.745 482.405 260.019 483.592 258.684C484.661 257.323 485.361 255.71 485.624 254C486.529 250.136 487.433 246.084 486.411 242.29C486.165 241.124 485.59 240.052 484.755 239.199C484.339 238.773 483.818 238.465 483.245 238.305C482.671 238.144 482.065 238.138 481.489 238.285C480.849 238.582 480.281 239.012 479.821 239.545C479.361 240.078 479.021 240.702 478.822 241.377C477.21 245.191 476.475 249.316 476.672 253.45C476.638 255.39 477.191 257.295 478.258 258.918" fill="black"/>
</g>
<path d="M483.956 268.579C486.225 267.37 488.824 266.922 491.369 267.303C492.75 267.35 494.075 267.862 495.128 268.755C495.636 269.215 495.943 269.854 495.985 270.536C496.026 271.219 495.799 271.891 495.351 272.408C494.695 272.906 493.884 273.159 493.06 273.123C491.098 273.193 488.89 272.959 487.374 274.223C486.517 274.938 485.964 276.085 484.907 276.472C484.377 276.626 483.811 276.603 483.296 276.407C482.78 276.21 482.343 275.85 482.052 275.383C481.493 274.42 481.325 273.28 481.582 272.198C481.671 271.453 481.931 270.739 482.343 270.111C482.755 269.483 483.307 268.959 483.956 268.579Z" fill="#74A5E8"/>
<path d="M474.625 261.87C475.292 260.908 475.712 259.797 475.849 258.636C475.986 257.474 475.836 256.297 475.412 255.207C474.54 253.027 473.08 251.131 471.194 249.726C469.054 248.005 466.595 246.72 463.958 245.944C462.933 245.588 461.842 245.46 460.762 245.569C460.224 245.622 459.706 245.805 459.256 246.103C458.805 246.401 458.435 246.805 458.177 247.279C457.508 248.719 458.307 250.394 459.141 251.741C460.62 254.128 462.285 256.395 464.122 258.521C465.483 260.337 467.315 261.75 469.42 262.608C471.57 263.298 473.756 263.099 474.801 261.577" fill="#74A5E8"/>
<path d="M479.677 288.615C479.731 288.318 479.755 288.016 479.747 287.714C479.747 287.058 479.818 286.238 479.865 285.255C479.925 284.043 480.051 282.835 480.241 281.636C480.483 280.176 480.848 278.738 481.333 277.339C481.797 275.935 482.462 274.606 483.307 273.392C483.994 272.403 484.892 271.579 485.939 270.98C486.646 270.585 487.411 270.305 488.206 270.149C488.508 270.117 488.807 270.058 489.099 269.973C488.794 269.942 488.487 269.942 488.183 269.973C487.361 270.083 486.566 270.337 485.833 270.722C484.725 271.304 483.771 272.139 483.049 273.158C482.171 274.393 481.482 275.75 481.004 277.186C480.512 278.607 480.15 280.069 479.924 281.554C479.745 282.764 479.647 283.985 479.63 285.208C479.63 286.262 479.63 287.105 479.63 287.679C479.597 287.991 479.613 288.307 479.677 288.615Z" fill="#1E1A50"/>
<path d="M479.749 286.73C479.765 286.59 479.765 286.448 479.749 286.308C479.749 286.004 479.749 285.605 479.691 285.137C479.632 284.095 479.562 282.608 479.515 280.758C479.421 277.057 479.515 271.952 479.82 266.319C480.125 260.686 480.713 255.604 481.289 251.951C481.418 251.037 481.547 250.218 481.688 249.492C481.829 248.766 481.911 248.145 482.017 247.641C482.123 247.138 482.181 246.775 482.24 246.47C482.299 246.166 482.311 246.049 482.24 246.049C482.191 246.178 482.151 246.311 482.123 246.447C482.04 246.751 481.946 247.138 481.829 247.618C481.711 248.098 481.57 248.789 481.429 249.468C481.289 250.147 481.124 251.002 480.983 251.927C480.198 256.689 479.668 261.489 479.397 266.307C479.068 271.952 479.045 277.081 479.209 280.781C479.28 282.631 479.397 284.13 479.491 285.161C479.55 285.641 479.597 286.027 479.632 286.332C479.657 286.468 479.696 286.601 479.749 286.73Z" fill="#1E1A50"/>
<path d="M479.326 276.871C479.342 276.456 479.318 276.04 479.255 275.629C479.132 274.504 478.948 273.386 478.703 272.28C477.892 268.634 476.65 265.096 475.002 261.741C473.401 258.343 471.191 255.263 468.482 252.654C468.011 252.21 467.513 251.796 466.99 251.413C466.788 251.241 466.576 251.081 466.356 250.933L465.792 250.582C465.447 250.349 465.086 250.141 464.711 249.961C465.966 250.852 467.167 251.818 468.306 252.853C470.927 255.49 473.08 258.55 474.673 261.905C475.577 263.735 476.362 265.62 477.023 267.549C477.574 269.125 478.045 270.727 478.433 272.351C478.762 273.732 478.973 274.868 479.102 275.665C479.151 276.071 479.225 276.474 479.326 276.871Z" fill="#1E1A50"/>
<path d="M58.7381 178.775C58.621 178.775 58.5156 178.295 58.5156 177.709C58.5156 177.124 58.621 176.655 58.7381 176.655C58.8552 176.655 58.9606 177.124 58.9606 177.709C58.9606 178.295 58.8435 178.775 58.7381 178.775Z" fill="#1E1A50"/>
<path d="M58.7427 188.049C58.4399 186.503 58.4399 184.912 58.7427 183.365C59.0455 184.912 59.0455 186.503 58.7427 188.049Z" fill="#1E1A50"/>
<path d="M58.7427 197.324C58.4399 195.777 58.4399 194.186 58.7427 192.64C59.0455 194.186 59.0455 195.777 58.7427 197.324Z" fill="#1E1A50"/>
<path d="M58.7416 206.61C58.4403 205.064 58.4403 203.473 58.7416 201.926C59.0429 203.473 59.0429 205.064 58.7416 206.61Z" fill="#1E1A50"/>
<path d="M58.7427 215.884C58.4399 214.337 58.4399 212.746 58.7427 211.2C59.0455 212.746 59.0455 214.337 58.7427 215.884Z" fill="#1E1A50"/>
<path d="M60.8567 222.687C60.17 222.903 59.4469 222.978 58.7303 222.91C58.2839 222.465 58.6128 222.781 58.5071 222.687V221.879C58.5071 221.633 58.5071 221.399 58.5071 221.212C58.5071 220.826 58.6011 220.591 58.6598 220.591C58.7186 220.591 58.7773 220.826 58.8126 221.212C58.8126 221.399 58.8126 221.633 58.8126 221.879V222.687L58.5893 222.465C59.3524 222.377 60.1255 222.453 60.8567 222.687Z" fill="#1E1A50"/>
<path d="M69.2214 222.687C68.5467 222.902 67.8352 222.978 67.1302 222.91C66.4252 222.979 65.7135 222.903 65.0391 222.687C65.7135 222.471 66.4252 222.396 67.1302 222.465C67.8352 222.397 68.5467 222.473 69.2214 222.687Z" fill="#1E1A50"/>
<path d="M77.5378 222.688C76.8631 222.903 76.1516 222.978 75.4466 222.91C74.7417 222.978 74.0302 222.903 73.3555 222.688C74.0302 222.473 74.7417 222.398 75.4466 222.465C76.1516 222.398 76.8631 222.473 77.5378 222.688Z" fill="#1E1A50"/>
<path d="M85.9382 222.688C85.2635 222.903 84.552 222.978 83.847 222.91C83.1421 222.978 82.4306 222.903 81.7559 222.688C82.4306 222.473 83.1421 222.398 83.847 222.465C84.552 222.398 85.2635 222.473 85.9382 222.688Z" fill="#1E1A50"/>
<path d="M94.2898 222.687C93.6153 222.903 92.9036 222.979 92.1986 222.91C91.4936 222.978 90.7822 222.902 90.1074 222.687C90.7822 222.473 91.4936 222.397 92.1986 222.465C92.9036 222.396 93.6153 222.471 94.2898 222.687Z" fill="#1E1A50"/>
<path d="M102.655 222.687C101.277 222.984 99.8509 222.984 98.4727 222.687C99.8509 222.391 101.277 222.391 102.655 222.687Z" fill="#1E1A50"/>
<path d="M111.008 222.688C109.634 222.985 108.212 222.985 106.838 222.688C108.212 222.392 109.634 222.392 111.008 222.688Z" fill="#1E1A50"/>
<path d="M119.374 222.687C117.996 222.984 116.57 222.984 115.191 222.687C116.57 222.391 117.996 222.391 119.374 222.687Z" fill="#1E1A50"/>
<path d="M127.725 222.688C126.351 222.985 124.929 222.985 123.555 222.688C124.929 222.392 126.351 222.392 127.725 222.688Z" fill="#1E1A50"/>
<path d="M136.089 222.687C134.71 222.984 133.284 222.984 131.906 222.687C133.284 222.391 134.71 222.391 136.089 222.687Z" fill="#1E1A50"/>
<path d="M144.503 222.688C143.128 222.985 141.706 222.985 140.332 222.688C141.706 222.392 143.128 222.392 144.503 222.688Z" fill="#1E1A50"/>
<path d="M150.751 222.688C150.751 222.805 150.281 222.911 149.694 222.911C149.107 222.911 148.625 222.805 148.625 222.688C148.625 222.571 149.107 222.466 149.694 222.466C150.281 222.466 150.751 222.524 150.751 222.688Z" fill="#1E1A50"/>
<path d="M374.436 43.3714C374.221 42.6869 374.145 41.9661 374.214 41.2518C374.145 40.5376 374.221 39.8168 374.436 39.1323C374.652 39.8168 374.727 40.5376 374.659 41.2518C374.727 41.9661 374.652 42.6869 374.436 43.3714Z" fill="#1E1A50"/>
<path d="M374.436 51.8499C374.221 51.1654 374.145 50.4446 374.214 49.7304C374.145 49.0161 374.221 48.2954 374.436 47.6108C374.652 48.2954 374.727 49.0161 374.659 49.7304C374.727 50.4446 374.652 51.1654 374.436 51.8499Z" fill="#1E1A50"/>
<path d="M374.436 60.3274C374.221 59.6429 374.145 58.9222 374.214 58.2079C374.145 57.4936 374.221 56.7729 374.436 56.0884C374.652 56.7729 374.727 57.4936 374.659 58.2079C374.727 58.9222 374.652 59.6429 374.436 60.3274Z" fill="#1E1A50"/>
<path d="M374.436 68.7942C374.221 68.1097 374.145 67.389 374.214 66.6747C374.145 65.9604 374.221 65.2397 374.436 64.5552C374.652 65.2397 374.727 65.9604 374.659 66.6747C374.727 67.389 374.652 68.1097 374.436 68.7942Z" fill="#1E1A50"/>
<path d="M374.437 77.2835C374.221 76.599 374.146 75.8782 374.214 75.1639C374.145 74.4458 374.221 73.7211 374.437 73.0327C374.653 73.7211 374.728 74.4458 374.659 75.1639C374.728 75.8782 374.652 76.599 374.437 77.2835Z" fill="#1E1A50"/>
<path d="M374.436 85.7615C374.221 85.077 374.145 84.3563 374.214 83.642C374.145 82.9277 374.221 82.207 374.436 81.5225C374.652 82.207 374.727 82.9277 374.659 83.642C374.727 84.3563 374.652 85.077 374.436 85.7615Z" fill="#1E1A50"/>
<path d="M374.436 94.24C374.221 93.5555 374.145 92.8348 374.214 92.1205C374.145 91.4062 374.221 90.6855 374.436 90.001C374.652 90.6855 374.727 91.4062 374.659 92.1205C374.727 92.8348 374.652 93.5555 374.436 94.24Z" fill="#1E1A50"/>
<path d="M374.436 102.73C374.222 102.041 374.146 101.317 374.214 100.599C374.145 99.8842 374.221 99.1635 374.436 98.479C374.652 99.1635 374.727 99.8842 374.659 100.599C374.727 101.317 374.651 102.041 374.436 102.73Z" fill="#1E1A50"/>
<path d="M419.128 199.56C417.724 199.841 416.279 199.841 414.875 199.56C416.277 199.263 417.726 199.263 419.128 199.56Z" fill="#1E1A50"/>
<path d="M427.634 199.56C426.23 199.841 424.784 199.841 423.381 199.56C424.783 199.263 426.232 199.263 427.634 199.56Z" fill="#1E1A50"/>
<path d="M436.14 199.56C434.736 199.841 433.29 199.841 431.887 199.56C433.289 199.263 434.738 199.263 436.14 199.56Z" fill="#1E1A50"/>
<path d="M444.645 199.56C443.242 199.841 441.796 199.841 440.393 199.56C441.795 199.263 443.243 199.263 444.645 199.56Z" fill="#1E1A50"/>
<path d="M453.163 199.56C451.755 199.841 450.306 199.841 448.898 199.56C450.304 199.263 451.757 199.263 453.163 199.56Z" fill="#1E1A50"/>
<path d="M461.702 199.56C460.298 199.841 458.853 199.841 457.449 199.56C458.851 199.263 460.3 199.263 461.702 199.56Z" fill="#1E1A50"/>
<path d="M470.175 199.56C468.771 199.841 467.325 199.841 465.922 199.56C467.324 199.263 468.773 199.263 470.175 199.56Z" fill="#1E1A50"/>
<path d="M478.679 199.56C477.275 199.841 475.829 199.841 474.426 199.56C475.828 199.263 477.277 199.263 478.679 199.56Z" fill="#1E1A50"/>
<path d="M487.184 199.56C485.781 199.841 484.335 199.841 482.932 199.56C484.334 199.263 485.782 199.263 487.184 199.56Z" fill="#1E1A50"/>
<path d="M495.69 199.56C494.287 199.841 492.841 199.841 491.438 199.56C492.84 199.263 494.288 199.263 495.69 199.56Z" fill="#1E1A50"/>
<path d="M503.409 198.764C503.48 198.764 503.538 199.069 503.574 199.56V199.713H503.386C503.033 199.713 502.563 199.713 502.058 199.713C501.342 199.781 500.62 199.71 499.932 199.502C500.617 199.28 501.341 199.204 502.058 199.279C502.563 199.279 503.033 199.279 503.386 199.279L503.221 199.443C503.268 199.069 503.339 198.764 503.409 198.764Z" fill="#1E1A50"/>
<path d="M503.49 190.286C503.697 190.972 503.765 191.693 503.689 192.406C503.75 193.121 503.671 193.841 503.455 194.525C503.234 193.842 503.162 193.119 503.244 192.406C503.183 191.69 503.267 190.969 503.49 190.286Z" fill="#1E1A50"/>
<path d="M503.573 181.808C503.787 182.492 503.855 183.214 503.772 183.927C503.833 184.642 503.753 185.362 503.538 186.047C503.324 185.358 503.256 184.632 503.339 183.915C503.278 183.204 503.358 182.488 503.573 181.808Z" fill="#1E1A50"/>
<path d="M503.655 173.33C503.869 174.015 503.937 174.737 503.854 175.45C503.915 176.165 503.835 176.885 503.62 177.569C503.406 176.88 503.338 176.154 503.421 175.438C503.359 174.727 503.438 174.01 503.655 173.33Z" fill="#1E1A50"/>
<path d="M503.654 164.793C503.868 165.478 503.936 166.2 503.853 166.913C503.914 167.628 503.835 168.348 503.619 169.032C503.407 168.343 503.339 167.618 503.42 166.901C503.356 166.19 503.436 165.473 503.654 164.793Z" fill="#1E1A50"/>
<path d="M503.655 156.245C503.867 156.934 503.935 157.659 503.854 158.376C503.918 159.087 503.838 159.804 503.62 160.484C503.406 159.799 503.338 159.077 503.421 158.364C503.36 157.649 503.439 156.929 503.655 156.245Z" fill="#1E1A50"/>
<path d="M503.655 147.743C503.869 148.432 503.937 149.157 503.854 149.874C503.918 150.585 503.838 151.302 503.62 151.982C503.406 151.297 503.338 150.575 503.421 149.862C503.36 149.147 503.439 148.427 503.655 147.743Z" fill="#1E1A50"/>
<path d="M503.655 139.171C503.868 139.856 503.936 140.578 503.854 141.291C503.916 142.006 503.836 142.726 503.62 143.41C503.406 142.726 503.338 142.004 503.421 141.291C503.36 140.576 503.439 139.856 503.655 139.171Z" fill="#1E1A50"/>
<path d="M503.655 130.634C503.869 131.319 503.937 132.041 503.854 132.754C503.915 133.469 503.836 134.189 503.62 134.873C503.406 134.189 503.338 133.466 503.421 132.754C503.36 132.039 503.439 131.319 503.655 130.634Z" fill="#1E1A50"/>
<path d="M503.655 122.099C503.869 122.783 503.937 123.506 503.854 124.218C503.915 124.933 503.836 125.653 503.62 126.338C503.406 125.653 503.338 124.931 503.421 124.218C503.36 123.503 503.439 122.783 503.655 122.099Z" fill="#1E1A50"/>
<path d="M399.792 110.166H166.873C157.419 110.166 149.756 117.804 149.756 127.227V269.188C149.756 278.611 157.419 286.25 166.873 286.25H399.792C409.246 286.25 416.909 278.611 416.909 269.188V127.227C416.909 117.804 409.246 110.166 399.792 110.166Z" fill="#1E1A50"/>
<path d="M138.629 273.229H428.01C428.01 275.252 427.61 277.256 426.833 279.126C426.056 280.996 424.917 282.694 423.482 284.125C422.046 285.556 420.342 286.691 418.466 287.466C416.59 288.24 414.58 288.639 412.549 288.639H154.043C149.95 288.627 146.03 286.998 143.141 284.109C140.251 281.22 138.629 277.308 138.629 273.229Z" fill="#1E1A50"/>
<path d="M408.979 117.156H156.922V265.863H408.979V117.156Z" fill="#5495C4"/>
<path d="M256.99 273.229L260.585 278.931H311.114L314.451 273.229H256.99Z" fill="#5495C4"/>
<path d="M400.472 122.192H165.955C163.833 122.192 162.113 123.906 162.113 126.021V261.554C162.113 263.668 163.833 265.383 165.955 265.383H400.472C402.594 265.383 404.313 263.668 404.313 261.554V126.021C404.313 123.906 402.594 122.192 400.472 122.192Z" fill="#EBEBEB"/>
<path d="M404.313 132.684H162.113V265.383H404.313V132.684Z" fill="#FAFAFA"/>
<path d="M181.978 127.731C181.978 128.113 181.865 128.486 181.652 128.804C181.439 129.122 181.136 129.369 180.782 129.516C180.428 129.662 180.038 129.7 179.662 129.626C179.286 129.551 178.94 129.367 178.669 129.097C178.398 128.827 178.214 128.482 178.139 128.107C178.064 127.733 178.102 127.344 178.249 126.991C178.396 126.638 178.644 126.336 178.963 126.124C179.282 125.912 179.657 125.798 180.04 125.798C180.554 125.798 181.047 126.002 181.411 126.364C181.774 126.727 181.978 127.218 181.978 127.731Z" fill="#1E1A50"/>
<path d="M170.254 127.731C170.254 128.113 170.14 128.486 169.927 128.804C169.714 129.122 169.411 129.369 169.057 129.516C168.703 129.662 168.313 129.7 167.937 129.626C167.561 129.551 167.216 129.367 166.945 129.097C166.674 128.827 166.489 128.482 166.414 128.107C166.339 127.733 166.378 127.344 166.525 126.991C166.671 126.638 166.92 126.336 167.238 126.124C167.557 125.912 167.932 125.798 168.315 125.798C168.83 125.798 169.323 126.002 169.686 126.364C170.05 126.727 170.254 127.218 170.254 127.731Z" fill="#1E1A50"/>
<path d="M175.881 127.731C175.881 128.113 175.767 128.486 175.554 128.804C175.341 129.122 175.038 129.369 174.684 129.516C174.33 129.662 173.94 129.7 173.564 129.626C173.188 129.551 172.843 129.367 172.572 129.097C172.301 128.827 172.116 128.482 172.041 128.107C171.966 127.733 172.005 127.344 172.151 126.991C172.298 126.638 172.547 126.336 172.865 126.124C173.184 125.912 173.559 125.798 173.942 125.798C174.456 125.798 174.95 126.002 175.313 126.364C175.677 126.727 175.881 127.218 175.881 127.731Z" fill="#1E1A50"/>
<path d="M414.607 273.228C414.607 273.322 355.314 273.404 282.181 273.404C209.049 273.404 149.756 273.322 149.756 273.228C149.756 273.135 209.037 273.053 282.181 273.053C355.325 273.053 414.607 273.135 414.607 273.228Z" fill="#5495C4"/>
<path d="M305.547 148.376H250.283V152.065H305.547V148.376Z" fill="#E0E0E0"/>
<path d="M387.749 162.1C387.749 162.194 356.98 162.264 319.022 162.264C281.063 162.264 250.283 162.194 250.283 162.1C250.283 162.006 281.052 161.924 319.022 161.924C356.992 161.924 387.749 162.006 387.749 162.1Z" fill="#E0E0E0"/>
<path d="M387.749 170.144C387.749 170.238 356.98 170.32 319.022 170.32C281.063 170.32 250.283 170.238 250.283 170.144C250.283 170.051 281.052 169.969 319.022 169.969C356.992 169.969 387.749 170.051 387.749 170.144Z" fill="#E0E0E0"/>
<path d="M387.747 178.189C387.747 178.283 356.978 178.364 319.02 178.364C281.062 178.364 250.234 178.283 250.234 178.189C250.234 178.095 281.003 178.013 318.973 178.013C356.943 178.013 387.747 178.095 387.747 178.189Z" fill="#E0E0E0"/>
<path d="M387.747 186.235C387.747 186.328 356.978 186.41 319.02 186.41C281.062 186.41 250.234 186.387 250.234 186.235C250.234 186.083 281.003 186.071 318.973 186.071C356.943 186.071 387.747 186.141 387.747 186.235Z" fill="#E0E0E0"/>
<path d="M387.749 194.279C387.749 194.385 356.98 194.455 319.022 194.455C281.063 194.455 250.283 194.385 250.283 194.279C250.283 194.174 281.052 194.115 319.022 194.115C356.992 194.115 387.749 194.185 387.749 194.279Z" fill="#E0E0E0"/>
<path d="M303.947 202.335C303.947 202.429 291.929 202.499 277.114 202.499C262.3 202.499 250.234 202.429 250.234 202.335C250.234 202.242 262.241 202.16 277.067 202.16C291.893 202.16 303.947 202.242 303.947 202.335Z" fill="#E0E0E0"/>
<path d="M386.75 218.003C386.75 218.097 366.519 218.179 341.566 218.179C316.613 218.179 296.395 218.097 296.395 218.003C296.395 217.91 316.613 217.839 341.566 217.839C366.519 217.839 386.75 217.851 386.75 218.003Z" fill="#E0E0E0"/>
<path d="M386.75 226.494C386.75 226.587 366.519 226.657 341.566 226.657C316.613 226.657 296.395 226.587 296.395 226.494C296.395 226.4 316.613 226.318 341.566 226.318C366.519 226.318 386.75 226.4 386.75 226.494Z" fill="#E0E0E0"/>
<path d="M386.75 235.03C386.75 235.124 366.519 235.206 341.566 235.206C316.613 235.206 296.395 235.124 296.395 235.03C296.395 234.936 316.613 234.854 341.566 234.854C366.519 234.854 386.75 234.936 386.75 235.03Z" fill="#E0E0E0"/>
<path d="M386.75 243.578C386.75 243.672 366.519 243.742 341.566 243.742C316.613 243.742 296.395 243.672 296.395 243.578C296.395 243.484 316.613 243.402 341.566 243.402C366.519 243.402 386.75 243.484 386.75 243.578Z" fill="#E0E0E0"/>
<path d="M234.305 217.137C234.305 217.231 222.251 217.301 207.378 217.301C192.505 217.301 180.439 217.231 180.439 217.137C180.439 217.043 192.493 216.961 207.378 216.961C222.263 216.961 234.305 217.032 234.305 217.137Z" fill="#E0E0E0"/>
<path d="M234.305 223.859C234.305 223.964 222.251 224.034 207.378 224.034C192.505 224.034 180.439 223.964 180.439 223.859C180.439 223.753 192.493 223.695 207.378 223.695C222.263 223.695 234.305 223.742 234.305 223.859Z" fill="#E0E0E0"/>
<path d="M234.305 230.545C234.305 230.639 222.251 230.721 207.378 230.721C192.505 230.721 180.439 230.639 180.439 230.545C180.439 230.452 192.493 230.381 207.378 230.381C222.263 230.381 234.305 230.452 234.305 230.545Z" fill="#E0E0E0"/>
<path d="M234.305 237.255C234.305 237.348 222.251 237.43 207.378 237.43C192.505 237.43 180.439 237.348 180.439 237.255C180.439 237.161 192.493 237.079 207.378 237.079C222.263 237.079 234.305 237.161 234.305 237.255Z" fill="#E0E0E0"/>
<path d="M234.305 243.965C234.305 244.058 222.251 244.14 207.378 244.14C192.505 244.14 180.439 244.058 180.439 243.965C180.439 243.871 192.493 243.789 207.378 243.789C222.263 243.789 234.305 243.871 234.305 243.965Z" fill="#E0E0E0"/>
<path d="M289.463 213.871H250.248V251.682H289.463V213.871Z" fill="#F5F5F5"/>
<path d="M253.291 248.45L264.135 228.988L273.004 241.424L278.397 234.831L286.421 248.45H253.291Z" fill="#EBEBEB"/>
<path d="M276.788 225.205C276.788 225.761 276.622 226.305 276.312 226.767C276.003 227.229 275.562 227.589 275.047 227.802C274.532 228.015 273.965 228.07 273.418 227.962C272.871 227.853 272.369 227.586 271.974 227.193C271.58 226.8 271.311 226.299 271.203 225.754C271.094 225.209 271.15 224.644 271.363 224.13C271.576 223.616 271.938 223.178 272.402 222.869C272.865 222.56 273.41 222.395 273.968 222.395C274.339 222.393 274.706 222.465 275.049 222.606C275.392 222.747 275.703 222.953 275.965 223.215C276.227 223.476 276.435 223.786 276.576 224.128C276.717 224.47 276.789 224.836 276.788 225.205Z" fill="#EBEBEB"/>
<path d="M286.419 248.555C286.422 248.505 286.422 248.454 286.419 248.403V247.958C286.419 247.56 286.419 246.986 286.419 246.26C286.419 244.761 286.419 242.595 286.419 239.831C286.419 234.316 286.36 226.447 286.337 217.008L286.49 217.161H253.36L253.548 216.973V225.44C253.548 228.215 253.548 230.943 253.548 233.637C253.548 238.93 253.548 243.942 253.548 248.544L253.383 248.38L277.256 248.45H284.011H285.808H284.07H277.35L253.289 248.532H253.125V248.368C253.125 243.766 253.125 238.754 253.125 233.461C253.125 230.815 253.125 228.086 253.125 225.264V216.798C252.96 216.962 253.348 216.563 253.313 216.61H286.443H286.607V216.774C286.607 226.259 286.548 234.152 286.525 239.703C286.525 242.443 286.525 244.597 286.525 246.085C286.525 246.811 286.525 247.361 286.525 247.759C286.525 247.935 286.525 248.075 286.525 248.181C286.529 248.313 286.492 248.444 286.419 248.555Z" fill="#EBEBEB"/>
<path d="M240.25 161.573L242.881 166.877L248.756 167.732L244.503 171.854L245.501 177.686L240.25 174.934L234.998 177.686L235.997 171.854L231.744 167.732L237.618 166.877L240.25 161.573Z" fill="#74A5E8"/>
<path d="M258.754 143.129L261.385 148.434L267.259 149.277L263.007 153.411L264.005 159.242L258.754 156.491L253.502 159.242L254.501 153.411L250.26 149.277L256.134 148.434L258.754 143.129Z" fill="#74A5E8"/>
<path d="M283.482 135.881L286.114 141.197L291.988 142.04L287.735 146.174L288.745 152.006L283.482 149.254L278.231 152.006L279.241 146.174L274.988 142.04L280.862 141.197L283.482 135.881Z" fill="#74A5E8"/>
<path d="M309.08 143.294L311.711 148.599L317.586 149.453L313.333 153.587L314.331 159.419L309.08 156.667L303.828 159.419L304.827 153.587L300.574 149.453L306.448 148.599L309.08 143.294Z" fill="#74A5E8"/>
<path d="M326.726 160.881L329.346 166.186L335.22 167.041L330.967 171.163L331.978 176.994L326.726 174.243L321.463 176.994L322.474 171.163L318.221 167.041L324.095 166.186L326.726 160.881Z" fill="#74A5E8"/>
<path d="M333.119 186.398L335.751 191.703L341.625 192.546L337.372 196.679L338.37 202.511L333.119 199.759L327.868 202.511L328.866 196.679L324.613 192.546L330.487 191.703L333.119 186.398Z" fill="#74A5E8"/>
<path d="M326.892 211.738L329.524 217.043L335.398 217.886L331.145 222.02L332.156 227.851L326.892 225.1L321.641 227.851L322.64 222.02L318.387 217.886L324.273 217.043L326.892 211.738Z" fill="#74A5E8"/>
<path d="M308.166 229.315L310.786 234.62L316.66 235.474L312.407 239.596L313.417 245.44L308.166 242.676L302.903 245.44L303.913 239.596L299.66 235.474L305.534 234.62L308.166 229.315Z" fill="#74A5E8"/>
<path d="M282.988 236.563L285.62 241.868L291.494 242.723L287.241 246.845L288.24 252.688L282.988 249.925L277.737 252.688L278.735 246.845L274.482 242.723L280.356 241.868L282.988 236.563Z" fill="#74A5E8"/>
<path d="M258.953 229.328L261.573 234.632L267.459 235.487L263.206 239.609L264.204 245.441L258.953 242.689L253.69 245.441L254.7 239.609L250.447 235.487L256.321 234.632L258.953 229.328Z" fill="#74A5E8"/>
<path d="M239.922 211.271L242.553 216.575L248.427 217.43L244.174 221.564L245.185 227.395L239.922 224.643L234.67 227.395L235.681 221.564L231.428 217.43L237.302 216.575L239.922 211.271Z" fill="#74A5E8"/>
<path d="M233.529 186.422L236.149 191.727L242.023 192.581L237.782 196.715L238.781 202.547L233.529 199.783L228.278 202.547L229.276 196.715L225.023 192.581L230.898 191.727L233.529 186.422Z" fill="#74A5E8"/>
<path d="M301.623 204.62H296.477V176.738C296.38 173.646 295.079 170.712 292.85 168.559C290.621 166.406 287.639 165.202 284.535 165.202C281.431 165.202 278.449 166.406 276.22 168.559C273.991 170.712 272.69 173.646 272.593 176.738V204.62H267.459V176.738C267.459 172.222 269.259 167.891 272.462 164.698C275.666 161.505 280.01 159.711 284.541 159.711C289.071 159.711 293.416 161.505 296.619 164.698C299.823 167.891 301.623 172.222 301.623 176.738V204.62Z" fill="#1E1A50"/>
<path d="M300.727 192.218H268.337C264.568 192.218 261.512 195.264 261.512 199.021V214.853C261.512 218.611 264.568 221.657 268.337 221.657H300.727C304.497 221.657 307.553 218.611 307.553 214.853V199.021C307.553 195.264 304.497 192.218 300.727 192.218Z" fill="#74A5E8"/>
<path d="M288.383 203.108C288.383 203.869 288.156 204.612 287.732 205.244C287.308 205.875 286.706 206.368 286.001 206.658C285.296 206.948 284.521 207.024 283.773 206.875C283.025 206.726 282.339 206.359 281.8 205.82C281.262 205.282 280.896 204.596 280.748 203.851C280.601 203.105 280.679 202.332 280.972 201.631C281.266 200.929 281.762 200.33 282.397 199.909C283.032 199.489 283.778 199.265 284.541 199.268C285.047 199.266 285.548 199.364 286.016 199.557C286.483 199.75 286.908 200.033 287.265 200.39C287.622 200.747 287.905 201.171 288.097 201.638C288.289 202.104 288.386 202.604 288.383 203.108Z" fill="#1E1A50"/>
<path d="M285.587 204.62H283.484V212.512H285.587V204.62Z" fill="#1E1A50"/>
<path d="M263.969 218.871C263.863 218.871 263.781 213.964 263.781 207.898C263.781 201.832 263.863 196.938 263.969 196.938C264.074 196.938 264.156 201.844 264.156 207.898C264.156 213.952 264.074 218.871 263.969 218.871Z" fill="#FAFAFA"/>
<path d="M281.52 208.015C281.52 208.015 281.344 207.957 281.074 207.769C280.695 207.482 280.358 207.143 280.075 206.762C279.597 206.13 279.265 205.401 279.101 204.626C278.938 203.851 278.949 203.05 279.131 202.28C279.314 201.51 279.665 200.789 280.159 200.169C280.653 199.549 281.278 199.046 281.99 198.694C282.41 198.474 282.862 198.32 283.329 198.237C283.503 198.194 283.684 198.194 283.858 198.237C283.26 198.428 282.678 198.667 282.119 198.952C281.477 199.324 280.916 199.818 280.466 200.407C280.016 200.996 279.688 201.667 279.499 202.383C279.193 203.849 279.48 205.377 280.298 206.634C280.665 207.128 281.074 207.59 281.52 208.015Z" fill="#FAFAFA"/>
<path d="M162.312 83.4433C124.071 61.9202 130.216 18.7217 131.25 12.8667C135.085 14.2329 139.124 14.9454 143.197 14.9745C150.172 15.0684 156.95 12.6764 162.312 8.22949C167.681 12.6709 174.461 15.062 181.438 14.9745C185.511 14.9454 189.55 14.2329 193.386 12.8667C194.419 18.7217 200.564 61.9202 162.312 83.4433Z" fill="#F7F7F7"/>
<path d="M162.359 9.0369C167.781 13.3276 174.517 15.6305 181.439 15.5594C185.347 15.5329 189.225 14.8846 192.928 13.639C194.212 22.1151 194.125 30.7417 192.67 39.1904C189.286 58.5822 179.065 73.2433 162.301 82.7636C145.548 73.2433 135.28 58.5822 131.932 39.1904C130.482 30.7406 130.403 22.1137 131.697 13.639C135.399 14.8856 139.278 15.5339 143.186 15.5594C150.102 15.6263 156.832 13.3284 162.254 9.04861L162.359 9.0369ZM162.254 7.43262C156.954 11.9986 150.156 14.4656 143.151 14.365C138.91 14.3183 134.71 13.5254 130.745 12.023C130.745 12.023 120.172 60.6081 162.254 84.0283C204.418 60.6784 193.845 12.0932 193.845 12.0932C189.88 13.5957 185.68 14.3885 181.439 14.4352C174.427 14.5261 167.628 12.0419 162.336 7.45604L162.254 7.43262Z" fill="#BFDFEF"/>
<path d="M174.178 43.324C174.375 43.7534 174.472 44.222 174.46 44.6941C174.505 45.7333 174.473 46.7743 174.366 47.809C174.323 48.0237 174.229 48.225 174.092 48.3962C173.955 48.5673 173.779 48.7033 173.579 48.7926C173.22 48.9357 172.833 48.9973 172.447 48.973C172.061 48.9487 171.685 48.8391 171.347 48.6521C171.126 48.4512 170.951 48.2046 170.835 47.9295C170.72 47.6545 170.666 47.3576 170.677 47.0595C170.547 45.8861 170.61 44.6994 170.865 43.5465C171.014 43.2612 171.244 43.0258 171.526 42.8697C171.808 42.7135 172.129 42.6435 172.451 42.6682C172.771 42.6288 173.095 42.6679 173.396 42.7822C173.697 42.8965 173.966 43.0825 174.178 43.324Z" fill="#0063AD"/>
<path d="M143.328 63.1963V28.3003H181.369V63.1963H143.328ZM163.394 32.5042C162.89 32.4513 162.382 32.4513 161.878 32.5042C161.667 32.4869 161.455 32.4869 161.244 32.5042C159.185 32.6608 157.19 33.2911 155.417 34.3457C153.644 35.4002 152.14 36.8502 151.023 38.5817C151.199 38.5817 151.399 38.5817 151.575 38.5817C151.999 37.9926 152.458 37.4295 152.95 36.8955C153.357 36.4629 153.806 36.0707 154.289 35.7245C154.724 36.0172 155.217 36.2514 155.652 36.5208C155.106 37.1615 154.614 37.847 154.183 38.57C154.349 38.6112 154.523 38.6112 154.689 38.57C155.116 37.9232 155.595 37.3123 156.122 36.7433C156.862 37.0126 157.579 37.3053 158.331 37.5161L158.401 37.5747L157.966 38.57C158.13 38.5934 158.296 38.5934 158.46 38.57C158.612 38.2773 158.742 37.9494 158.906 37.6684C159.922 37.8895 160.957 38.015 161.996 38.0431C162.137 38.1602 161.996 38.4178 162.078 38.57H162.536C162.595 38.3944 162.536 38.207 162.595 38.0548C163.6 38.0206 164.599 37.8912 165.579 37.6684H165.65L166.108 38.5583C166.266 38.5944 166.431 38.5944 166.589 38.5583L166.167 37.563C166.938 37.3351 167.695 37.0614 168.434 36.7433C168.971 37.3292 169.462 37.9556 169.902 38.6169C170.07 38.6423 170.24 38.6423 170.408 38.6169C170.201 38.235 169.957 37.8742 169.679 37.5395C169.449 37.2187 169.198 36.9136 168.927 36.6262V36.4973L170.102 35.7947L170.278 35.7245C171.324 36.5218 172.232 37.4828 172.969 38.57C173.18 38.57 173.345 38.6403 173.521 38.57C172.398 36.8676 170.902 35.4414 169.146 34.3989C167.39 33.3563 165.419 32.7245 163.382 32.5511L163.394 32.5042ZM165.156 33.2771C164.356 33.8193 163.419 34.1247 162.452 34.1578C161.485 34.191 160.529 33.9506 159.693 33.4644C159.611 33.4059 159.435 33.3708 159.423 33.2537C161.298 32.816 163.25 32.824 165.121 33.2771H165.156ZM169.855 35.3498V35.42L168.681 36.0758H168.598C167.693 35.1644 166.669 34.3768 165.556 33.7338C165.556 33.6167 165.755 33.523 165.885 33.441C167.297 33.8255 168.627 34.4645 169.808 35.3263L169.855 35.3498ZM159.106 33.7338C157.997 34.4116 156.971 35.2174 156.051 36.1343C155.594 35.9473 155.16 35.7076 154.759 35.42C155.825 34.6274 157.016 34.0179 158.284 33.6167C158.342 33.5581 158.378 33.5113 158.436 33.5113C158.577 33.5113 158.683 33.3942 158.8 33.5113C158.918 33.6284 158.977 33.6518 159.059 33.7338H159.106ZM167.999 36.2983C167.329 36.6094 166.629 36.8488 165.908 37.0126C165.374 36.0912 164.79 35.1999 164.158 34.3427C164.393 34.2139 164.686 34.1085 164.945 33.968C166.079 34.5799 167.11 35.3664 167.999 36.2983ZM160.328 34.3544V34.4949C159.692 35.3081 159.115 36.1651 158.601 37.0594C157.905 36.8819 157.225 36.6469 156.568 36.3568V36.2631C157.465 35.3802 158.481 34.6273 159.588 34.0265C159.776 34.1553 160.081 34.2373 160.339 34.3544H160.328ZM161.984 34.6823C161.984 35.5723 161.984 36.591 161.984 37.5278C161.525 37.5552 161.065 37.5355 160.61 37.4693C160.102 37.4203 159.599 37.3303 159.106 37.2C159.62 36.2448 160.238 35.3493 160.95 34.5301L161.984 34.6823ZM163.582 34.5418C164.264 35.3616 164.855 36.2529 165.344 37.2C164.421 37.4245 163.475 37.5385 162.525 37.5395C162.525 36.6379 162.525 35.6308 162.525 34.7057L163.582 34.5418ZM162.207 40.3265C161.22 39.88 160.138 39.6797 159.055 39.7429C157.972 39.8062 156.921 40.1311 155.993 40.6896C155.478 41.1129 155.094 41.6733 154.886 42.3056C154.678 42.9379 154.654 43.616 154.818 44.2611C154.992 44.8561 155.31 45.3991 155.744 45.8424C156.178 46.2856 156.716 46.6152 157.308 46.8022C158.836 47.3526 160.422 47.739 162.008 48.266C162.16 48.3362 162.372 48.4885 162.337 48.6758C162.301 48.8632 162.184 48.91 162.066 48.9803C161.279 49.217 160.442 49.233 159.646 49.0264C158.85 48.8198 158.127 48.3987 157.555 47.8093C157.426 47.6453 157.344 47.4346 157.203 47.2706H154.853C154.853 48.6524 154.853 50.2333 154.853 51.5916H157.426V50.7719L158.295 51.2286C159.209 51.641 160.2 51.8542 161.203 51.8542C162.206 51.8542 163.197 51.641 164.111 51.2286C164.724 50.8863 165.221 50.3688 165.537 49.7428C165.853 49.1167 165.974 48.4108 165.885 47.7156C165.733 46.9773 165.378 46.2957 164.859 45.7475C164.34 45.1993 163.678 44.8062 162.948 44.6124L158.824 43.4414L158.518 43.2775C158.448 43.2264 158.392 43.1565 158.359 43.0758C158.326 42.9951 158.316 42.9068 158.331 42.8208C158.648 42.2587 159.4 42.4344 159.964 42.4461C160.576 42.4828 161.174 42.6528 161.713 42.9441C162.253 43.2354 162.723 43.641 163.089 44.1323C163.84 44.1323 164.71 44.1323 165.52 44.1323C165.52 42.7388 165.52 41.5093 165.52 40.0923C164.757 40.0923 163.817 40.0923 163.053 40.0923C163.053 40.2914 163.053 40.5842 163.053 40.7832L162.207 40.3265ZM176.669 40.8769C175.485 40.1715 174.139 39.7787 172.76 39.7356C171.381 39.6926 170.013 40.0008 168.786 40.631C168.18 40.964 167.655 41.4263 167.249 41.9851C166.843 42.5438 166.565 43.185 166.437 43.863C165.979 46.0294 166.096 48.547 167.729 50.2099C168.714 51.0153 169.886 51.5625 171.138 51.8017C172.389 52.041 173.681 51.9648 174.895 51.5799C175.153 51.5274 175.402 51.4408 175.636 51.3223H175.718C176.521 50.9799 177.225 50.44 177.762 49.7532C178.355 48.7359 178.715 47.6001 178.814 46.4276C178.914 45.2551 178.751 44.0752 178.338 42.973C178.008 42.1248 177.431 41.3946 176.681 40.8769H176.669ZM147.687 39.8581H146.629C146.629 40.7598 146.629 41.8137 146.629 42.7271C147.205 42.7271 147.804 42.7271 148.321 42.7857V48.5587V48.8046H146.641C146.641 49.7532 146.641 50.6665 146.641 51.6034H154.16V48.8515C153.596 48.8515 152.985 48.8515 152.421 48.8515V42.8325H154.113C154.113 41.8606 154.113 40.8184 154.113 39.9401L147.687 39.8581ZM158.518 52.8915C158.359 52.8672 158.196 52.8672 158.037 52.8915L158.46 53.8985C157.694 54.1236 156.941 54.3894 156.204 54.6948H156.134C155.661 54.1626 155.226 53.5992 154.83 53.0086C154.736 52.7158 154.395 52.8915 154.207 52.8563C154.648 53.5924 155.151 54.2897 155.711 54.9407C155.261 55.2368 154.794 55.5066 154.313 55.7487C153.243 54.9514 152.311 53.9864 151.552 52.8915C151.369 52.8681 151.183 52.8681 151 52.8915C152.27 54.8736 154.041 56.4888 156.134 57.5755C157.482 58.2579 158.935 58.713 160.433 58.9222C162.982 59.296 165.585 58.9252 167.926 57.8549C170.268 56.7845 172.248 55.0605 173.627 52.8915H173.086C172.358 53.9564 171.475 54.9075 170.466 55.7136C170.466 55.7721 170.337 55.7136 170.302 55.7136C169.879 55.4326 169.409 55.2218 169.01 54.9407C169.561 54.3015 170.057 53.6158 170.49 52.8915H169.961C169.543 53.5518 169.063 54.1712 168.528 54.7417C167.812 54.437 167.078 54.175 166.331 53.9571L166.237 53.8868C166.399 53.5658 166.536 53.2331 166.648 52.8915H166.19L165.732 53.8048C164.698 53.5928 163.649 53.4559 162.595 53.395C162.536 53.2428 162.595 53.0203 162.536 52.8915H162.125C162.125 53.0905 162.125 53.2428 162.125 53.4184C161.094 53.4581 160.069 53.5834 159.059 53.7931L158.518 52.8915ZM162.043 56.8026C161.679 56.8846 161.291 56.8846 160.95 56.9666C160.263 56.1438 159.668 55.2485 159.176 54.2967L159.259 54.2264C160.203 54.0416 161.163 53.9475 162.125 53.9454L162.043 56.8026ZM165.403 54.2615V54.3201C164.909 55.249 164.331 56.1309 163.676 56.9549C163.392 56.9428 163.109 56.9076 162.83 56.8495H162.536C162.536 55.8424 162.536 54.9641 162.536 53.9571C163.521 53.9587 164.502 54.0687 165.462 54.285L165.403 54.2615ZM158.659 54.4138C159.175 55.3521 159.752 56.2557 160.386 57.1188C160.14 57.2593 159.858 57.3413 159.611 57.4818C158.481 56.9028 157.453 56.1433 156.568 55.2335C157.234 54.9147 157.931 54.6636 158.648 54.484L158.659 54.4138ZM168.058 55.1281C167.492 55.7489 166.853 56.2994 166.155 56.7675C165.767 57.0017 165.379 57.2593 164.98 57.4584L164.24 57.1422V57.0251C164.843 56.2008 165.389 55.3361 165.873 54.4372C166.643 54.5844 167.393 54.8243 168.105 55.1515L168.058 55.1281ZM169.879 56.1C168.913 56.8286 167.839 57.4015 166.695 57.798L165.885 58.0556C165.749 57.9805 165.623 57.8901 165.509 57.7863C166.608 57.1319 167.622 56.3454 168.528 55.4443C169.019 55.6147 169.489 55.8427 169.926 56.1234L169.879 56.1ZM159.059 57.7863C158.963 57.8964 158.848 57.9877 158.718 58.0556C157.281 57.6762 155.93 57.0285 154.736 56.1469C155.133 55.8724 155.553 55.6334 155.993 55.4325C156.94 56.3367 157.984 57.1339 159.106 57.8097L159.059 57.7863ZM165.168 58.1727C165.227 58.2781 165.086 58.243 165.05 58.2781C163.198 58.6936 161.276 58.6936 159.423 58.2781C159.423 58.1961 159.505 58.1727 159.564 58.1259C160.414 57.5966 161.398 57.3219 162.4 57.3343C163.402 57.3468 164.379 57.6459 165.215 58.1961L165.168 58.1727Z" fill="#0063AD"/>
<path d="M61.3126 189.993C30.2857 172.498 34.9967 137.567 35.8896 132.332C39.0157 133.43 42.3027 134.004 45.6171 134.03C51.3256 134.1 56.8757 132.159 61.2891 128.55C65.7091 132.165 71.2673 134.11 76.9847 134.042C80.2951 134.014 83.5781 133.441 86.7004 132.344C87.6285 137.567 92.3278 172.498 61.3126 189.993Z" fill="#F7F7F7"/>
<path d="M61.35 129.324C65.8176 132.806 71.3393 134.672 77.0104 134.616C80.1564 134.597 83.28 134.088 86.2679 133.106C87.2759 139.969 87.1927 146.948 86.0212 153.786C83.2604 169.583 74.9427 181.539 61.35 189.314C47.7104 181.539 39.4045 169.583 36.6789 153.786C35.5018 146.949 35.4146 139.97 36.4204 133.106C39.4081 134.089 42.5319 134.598 45.678 134.616C51.3393 134.668 56.8511 132.807 61.3148 129.335L61.35 129.324ZM61.3148 127.743C56.9618 131.489 51.3815 133.514 45.631 133.434C42.1551 133.404 38.7114 132.766 35.4571 131.548C35.4571 131.548 26.7987 171.363 61.3031 190.649C95.8192 171.421 87.149 131.548 87.149 131.548C83.8945 132.765 80.4509 133.403 76.9751 133.434C71.2235 133.52 65.6409 131.495 61.2913 127.743H61.3148Z" fill="#BFDFEF"/>
<path d="M44.7822 168.517L44.418 167.872L45.3814 167.31L44.9467 166.573L43.9834 167.135L43.6074 166.502L45.9571 165.132L46.333 165.765L45.4519 166.268L45.8866 167.018L46.7677 166.502L47.1319 167.146L44.7822 168.517Z" fill="#26A9E0"/>
<path d="M45.3828 169.302L47.5445 167.65L48.0027 168.236L45.8175 169.887L45.3828 169.302Z" fill="#26A9E0"/>
<path d="M49.1669 170.765C49.0765 170.86 48.967 170.936 48.8456 170.986C48.7242 171.036 48.5935 171.061 48.462 171.058C48.1877 171.027 47.9354 170.893 47.7571 170.683L47.6044 170.531L46.9935 171.163L46.4766 170.636L48.4385 168.739L49.0964 169.418C49.3079 169.601 49.4422 169.856 49.4724 170.133C49.4751 170.255 49.4489 170.376 49.3958 170.486C49.3427 170.595 49.2643 170.691 49.1669 170.765ZM47.9921 170.121L48.0861 170.215C48.1186 170.251 48.1584 170.28 48.2029 170.3C48.2474 170.321 48.2957 170.331 48.3445 170.332C48.3911 170.335 48.4378 170.327 48.4807 170.309C48.5236 170.291 48.5615 170.262 48.5912 170.226C48.6229 170.202 48.6486 170.171 48.6662 170.136C48.6839 170.1 48.6931 170.061 48.6931 170.022C48.6931 169.982 48.6839 169.943 48.6662 169.907C48.6486 169.872 48.6229 169.841 48.5912 169.817L48.4503 169.676L47.9921 170.121Z" fill="#26A9E0"/>
<path d="M49.8125 173.634L50.0123 173.142L49.3074 172.615L48.8844 172.943L48.2383 172.451L50.5879 170.8L51.375 171.398L50.5174 174.114L49.8125 173.634ZM50.259 172.569L50.4352 172.147C50.4352 172.053 50.5174 171.924 50.5879 171.772L50.7289 171.456L50.4822 171.667L49.789 172.217L50.259 172.569Z" fill="#26A9E0"/>
<path d="M52.5981 175.274L52.7156 174.758L51.9285 174.349L51.576 174.735L50.8477 174.36L52.8683 172.334L53.7377 172.791L53.2678 175.637L52.5981 175.274ZM52.8566 174.103L52.9623 173.658L53.0563 173.271C53.0563 173.107 53.1268 172.99 53.1385 172.932L52.9388 173.178C52.8448 173.295 52.6451 173.505 52.3514 173.833L52.8566 174.103Z" fill="#26A9E0"/>
<path d="M55.0404 176.245L54.4883 176.058L55.2167 173.938L54.5118 173.693L54.6763 173.236L56.6264 173.903L56.4737 174.36L55.7688 174.114L55.0404 176.245Z" fill="#26A9E0"/>
<path d="M58.0704 174.817H58.2583L58.1056 175.332L57.9411 175.273C57.7902 175.237 57.631 175.258 57.4947 175.332C57.4329 175.369 57.3806 175.421 57.3419 175.482C57.3031 175.543 57.2791 175.612 57.2715 175.683L57.0483 176.714L56.4844 176.597L56.9191 174.559L57.342 174.653V175.004C57.4284 174.906 57.5372 174.829 57.6592 174.782C57.7966 174.751 57.9403 174.763 58.0704 174.817Z" fill="#26A9E0"/>
<path d="M59.9152 177.158L59.8213 176.866C59.7369 176.966 59.6275 177.043 59.5041 177.088C59.3736 177.126 59.2351 177.126 59.1046 177.088C59.0172 177.088 58.9309 177.068 58.8518 177.031C58.7727 176.994 58.7027 176.94 58.6467 176.873C58.5907 176.806 58.5501 176.728 58.5277 176.644C58.5054 176.56 58.5018 176.471 58.5172 176.386C58.5156 176.291 58.5399 176.197 58.5875 176.114C58.6351 176.032 58.7042 175.964 58.7874 175.917C59.0113 175.814 59.259 175.774 59.5041 175.8H59.8683V175.706C59.8774 175.664 59.8766 175.62 59.8658 175.578C59.855 175.536 59.8346 175.497 59.8062 175.464C59.7777 175.431 59.742 175.405 59.7018 175.388C59.6616 175.371 59.618 175.364 59.5746 175.367C59.3702 175.351 59.1651 175.383 58.9754 175.461L58.8227 175.062C59.079 174.957 59.3575 174.917 59.6333 174.945C59.8614 174.951 60.0809 175.034 60.2559 175.179C60.3282 175.255 60.3818 175.346 60.4124 175.446C60.443 175.545 60.4498 175.651 60.4322 175.753L60.3147 177.135L59.9152 177.158ZM59.8213 176.187H59.598C59.4697 176.171 59.3397 176.192 59.2221 176.245C59.1813 176.27 59.1471 176.304 59.1225 176.345C59.098 176.386 59.0838 176.432 59.0811 176.479C59.0811 176.643 59.1516 176.725 59.3396 176.749C59.4573 176.761 59.5751 176.727 59.6685 176.655C59.7108 176.618 59.7451 176.573 59.7694 176.523C59.7936 176.473 59.8073 176.418 59.8095 176.362L59.8213 176.187Z" fill="#26A9E0"/>
<path d="M61.1504 174.571C61.1504 174.384 61.2444 174.29 61.4558 174.29C61.6673 174.29 61.7613 174.372 61.773 174.559C61.7755 174.598 61.7694 174.637 61.7552 174.674C61.741 174.71 61.719 174.743 61.6908 174.77C61.6604 174.796 61.6249 174.816 61.5865 174.828C61.5481 174.84 61.5076 174.845 61.4676 174.84C61.2561 174.852 61.1504 174.758 61.1504 174.571ZM61.7965 177.182H61.2326V175.098H61.7965V177.182Z" fill="#26A9E0"/>
<path d="M64.6733 176.89L64.1094 176.96L63.945 175.789C63.9358 175.675 63.8952 175.565 63.8275 175.473C63.7924 175.439 63.7495 175.413 63.7025 175.399C63.6554 175.385 63.6056 175.382 63.5573 175.391C63.4903 175.395 63.4253 175.415 63.368 175.45C63.3107 175.484 63.2627 175.533 63.2283 175.59C63.182 175.767 63.182 175.952 63.2283 176.129L63.3576 177.101L62.7936 177.183L62.5234 175.11L62.9464 175.051L63.0639 175.309C63.1076 175.201 63.1861 175.11 63.2871 175.051C63.3951 174.978 63.5207 174.933 63.6513 174.923C63.75 174.9 63.8526 174.898 63.9519 174.918C64.0513 174.939 64.1451 174.98 64.2269 175.04C64.3823 175.179 64.4789 175.371 64.4971 175.578L64.6733 176.89Z" fill="#26A9E0"/>
<path d="M64.9434 174.126C64.9434 173.95 64.9434 173.833 65.1783 173.786C65.4133 173.739 65.5073 173.786 65.5543 173.985C65.5692 174.018 65.5769 174.054 65.5769 174.091C65.5769 174.127 65.5692 174.163 65.5543 174.196C65.507 174.263 65.4354 174.309 65.3545 174.325C65.1196 174.372 64.9904 174.313 64.9434 174.126ZM66.1182 176.526L65.566 176.667L65.1078 174.676L65.66 174.536L66.1182 176.526Z" fill="#26A9E0"/>
<path d="M68.9146 175.59L68.3742 175.789L67.9512 174.618C67.9173 174.505 67.8471 174.406 67.7515 174.337C67.7083 174.313 67.6598 174.301 67.6105 174.301C67.5613 174.301 67.5128 174.313 67.4696 174.337C67.4072 174.356 67.3508 174.391 67.3056 174.438C67.2604 174.486 67.2279 174.543 67.2111 174.606C67.1871 174.79 67.2156 174.977 67.2933 175.145L67.6458 176.058L67.1054 176.257L66.3652 174.313L66.7764 174.161L66.9409 174.384C66.9598 174.267 67.0177 174.159 67.1054 174.079C67.2228 173.962 67.3705 173.879 67.5322 173.84C67.6938 173.8 67.8632 173.806 68.0217 173.857C68.199 173.963 68.3323 174.129 68.3977 174.325L68.9146 175.59Z" fill="#26A9E0"/>
<path d="M70.3954 172.463L70.5364 172.721L70.2897 172.943C70.3864 172.997 70.4643 173.079 70.5129 173.178C70.5583 173.267 70.5819 173.365 70.5819 173.465C70.5819 173.564 70.5583 173.663 70.5129 173.751C70.4034 173.955 70.2358 174.122 70.0312 174.232H69.9372H69.855C69.855 174.302 69.855 174.36 69.855 174.407C69.855 174.454 70.0077 174.407 70.1839 174.407L70.5011 174.243C70.6568 174.14 70.8439 174.094 71.0298 174.115C71.109 174.132 71.183 174.168 71.2462 174.219C71.3093 174.269 71.3599 174.334 71.394 174.407C71.4485 174.506 71.4771 174.617 71.4771 174.729C71.4771 174.842 71.4485 174.953 71.394 175.051C71.2266 175.309 70.9907 175.516 70.7126 175.649C70.5168 175.775 70.2878 175.84 70.0547 175.836C69.9714 175.831 69.8909 175.805 69.8208 175.76C69.7508 175.715 69.6938 175.652 69.6553 175.578C69.6102 175.47 69.6102 175.347 69.6553 175.239C69.6885 175.113 69.7629 175.002 69.8667 174.923C69.8006 174.934 69.7331 174.934 69.667 174.923C69.6097 174.892 69.5611 174.848 69.526 174.794C69.5036 174.725 69.5036 174.651 69.526 174.583C69.5454 174.499 69.5814 174.419 69.6318 174.349C69.5136 174.362 69.3944 174.337 69.2911 174.278C69.1789 174.214 69.0857 174.121 69.0209 174.009C68.9694 173.924 68.9375 173.828 68.9273 173.729C68.9172 173.63 68.9291 173.529 68.9621 173.435C69.0572 173.228 69.224 173.062 69.432 172.967L69.62 172.885L69.7727 172.826L70.3954 172.463ZM69.4908 173.74C69.5385 173.823 69.6074 173.891 69.6905 173.939C69.7307 173.958 69.7749 173.969 69.8197 173.969C69.8645 173.969 69.9087 173.958 69.949 173.939C69.9893 173.921 70.0245 173.894 70.0513 173.859C70.078 173.824 70.0953 173.783 70.1017 173.74C70.1083 173.646 70.0879 173.553 70.043 173.47C69.9137 173.248 69.7727 173.189 69.5848 173.295C69.3968 173.4 69.3733 173.506 69.4908 173.74ZM70.1369 175.321C70.1536 175.355 70.1806 175.384 70.2143 175.403C70.2479 175.422 70.2865 175.43 70.3249 175.426C70.4334 175.423 70.5389 175.391 70.6304 175.332C70.7781 175.262 70.9069 175.158 71.0063 175.028C71.0351 174.987 71.0506 174.938 71.0506 174.887C71.0506 174.837 71.0351 174.788 71.0063 174.747C70.9935 174.715 70.9702 174.689 70.9404 174.672C70.9106 174.655 70.8758 174.648 70.8418 174.653C70.7339 174.674 70.6304 174.714 70.5364 174.77L70.2779 174.911C70.1956 174.954 70.1266 175.019 70.0782 175.098C70.0653 175.137 70.064 175.179 70.0744 175.218C70.0849 175.258 70.1066 175.293 70.1369 175.321Z" fill="#26A9E0"/>
<path d="M71.758 173.716C71.7046 173.658 71.6716 173.584 71.6641 173.505C71.6926 173.421 71.7511 173.35 71.8285 173.306C71.8611 173.279 71.8986 173.259 71.9389 173.247C71.9793 173.235 72.0216 173.231 72.0635 173.236C72.1066 173.243 72.1476 173.26 72.184 173.284C72.2204 173.308 72.2513 173.339 72.275 173.376C72.3003 173.409 72.3185 173.447 72.3286 173.487C72.3387 173.527 72.3404 173.569 72.3337 173.61C72.3263 173.655 72.3086 173.697 72.2821 173.734C72.2556 173.77 72.221 173.8 72.181 173.821C72.1111 173.876 72.0225 173.901 71.9343 173.891C71.8945 173.876 71.8584 173.852 71.8281 173.822C71.7978 173.791 71.774 173.755 71.758 173.716Z" fill="#26A9E0"/>
<path d="M73.815 172.545C73.713 172.642 73.5904 172.714 73.4563 172.757C73.3222 172.799 73.1802 172.811 73.041 172.79C72.9018 172.77 72.7691 172.718 72.6528 172.639C72.5366 172.561 72.4398 172.456 72.3699 172.335C72.1671 172.119 72.0538 171.834 72.0527 171.538C72.0664 171.4 72.109 171.266 72.1778 171.145C72.2466 171.024 72.34 170.918 72.4522 170.836C72.6209 170.689 72.8223 170.585 73.0396 170.531L73.1923 170.965L72.9456 171.058L72.7459 171.187C72.5227 171.374 72.5462 171.632 72.8164 171.948C73.0866 172.264 73.3215 172.323 73.5565 172.136C73.6325 172.066 73.6996 171.987 73.7562 171.901C73.8085 171.812 73.8518 171.718 73.8854 171.62L74.1909 171.995C74.1642 172.122 74.1033 172.239 74.0147 172.335C73.9545 172.411 73.8877 172.481 73.815 172.545Z" fill="#26A9E0"/>
<path d="M75.4234 169.395C75.6451 169.578 75.7915 169.836 75.8346 170.121C75.8392 170.259 75.8156 170.397 75.7651 170.525C75.7146 170.654 75.6383 170.771 75.5408 170.87C75.4145 171.006 75.2574 171.111 75.0827 171.174C74.9145 171.227 74.734 171.227 74.5657 171.174C74.3753 171.121 74.2015 171.02 74.0606 170.882C73.9476 170.794 73.8531 170.684 73.7825 170.559C73.712 170.435 73.6667 170.298 73.6494 170.156C73.6433 170.017 73.6663 169.879 73.7169 169.75C73.7675 169.621 73.8445 169.504 73.9431 169.406C74.0695 169.27 74.2265 169.166 74.4013 169.102C74.5695 169.049 74.75 169.049 74.9182 169.102C75.1086 169.155 75.2824 169.256 75.4234 169.395ZM74.4483 170.46C74.5645 170.57 74.7055 170.65 74.8595 170.694C74.9238 170.706 74.9901 170.699 75.0505 170.674C75.1109 170.649 75.1629 170.607 75.2002 170.554C75.2487 170.513 75.2845 170.46 75.3032 170.4C75.322 170.339 75.3229 170.275 75.3059 170.214C75.2552 170.056 75.1568 169.917 75.0239 169.816C74.9092 169.704 74.7676 169.624 74.6127 169.582C74.5502 169.571 74.4858 169.579 74.4274 169.604C74.369 169.629 74.3192 169.67 74.2838 169.722C74.2363 169.764 74.2006 169.817 74.18 169.877C74.1594 169.936 74.1547 170 74.1663 170.062C74.2213 170.218 74.3189 170.356 74.4483 170.46Z" fill="#26A9E0"/>
<path d="M77.8096 167.791L77.5041 168.271L76.4703 167.627C76.3741 167.557 76.26 167.517 76.1413 167.51C76.0949 167.511 76.0497 167.525 76.0104 167.55C75.9711 167.574 75.9392 167.609 75.9181 167.65C75.8903 167.705 75.8758 167.765 75.8758 167.826C75.8758 167.887 75.8903 167.947 75.9181 168.002C76.0198 168.156 76.1566 168.285 76.3176 168.376L77.1517 168.892L76.8462 169.372L75.0723 168.271L75.3072 167.896L75.5774 167.978C75.5477 167.875 75.5477 167.765 75.5774 167.662C75.5884 167.536 75.633 167.414 75.7067 167.311C75.7584 167.199 75.8412 167.104 75.9453 167.038C76.0494 166.971 76.1705 166.936 76.2941 166.936C76.2338 166.838 76.2128 166.721 76.2353 166.608C76.2475 166.484 76.2877 166.364 76.3528 166.257C76.452 166.085 76.6109 165.956 76.7993 165.894C76.9032 165.88 77.0088 165.888 77.1098 165.916C77.2108 165.944 77.305 165.992 77.3867 166.058L78.5615 166.772L78.2678 167.252L77.2339 166.608C77.1369 166.54 77.0232 166.5 76.905 166.491C76.8596 166.496 76.816 166.512 76.7774 166.536C76.7387 166.56 76.7061 166.593 76.6818 166.632C76.6539 166.686 76.6394 166.746 76.6394 166.807C76.6394 166.868 76.6539 166.928 76.6818 166.983C76.7683 167.124 76.8896 167.241 77.0342 167.322L77.8096 167.791Z" fill="#26A9E0"/>
<path d="M61.089 148.189C63.0971 148.191 65.0594 148.787 66.7275 149.901C68.3957 151.015 69.6949 152.598 70.4606 154.448C71.2264 156.298 71.4244 158.333 71.0295 160.296C70.6346 162.258 69.6646 164.06 68.2422 165.473C66.8198 166.886 65.009 167.846 63.0388 168.233C61.0686 168.62 59.0275 168.415 57.1739 167.646C55.3202 166.876 53.7373 165.575 52.6253 163.909C51.5133 162.242 50.9222 160.284 50.9269 158.283C50.9393 155.603 52.0151 153.038 53.9192 151.146C55.8232 149.255 58.4009 148.192 61.089 148.189ZM61.089 143.06C58.0482 143.057 55.0751 143.955 52.5467 145.639C50.0183 147.323 48.0484 149.717 46.8869 152.519C45.7254 155.32 45.4245 158.402 46.0223 161.374C46.6202 164.345 48.0898 167.074 50.245 169.212C52.4002 171.35 55.1438 172.803 58.1281 173.385C61.1124 173.967 64.2029 173.653 67.0078 172.482C69.8128 171.312 72.2059 169.337 73.8837 166.809C75.5615 164.281 76.4484 161.314 76.4321 158.283C76.4104 154.24 74.7847 150.37 71.91 147.517C69.0353 144.665 65.1452 143.063 61.089 143.06Z" fill="#26A9E0"/>
<path d="M50.9386 163.494C50.89 163.375 50.815 163.269 50.7194 163.184C50.6237 163.099 50.5099 163.037 50.3864 163.002C50.1069 162.946 49.8167 162.987 49.5641 163.119C49.2985 163.226 49.0812 163.426 48.9532 163.681C48.896 163.798 48.8664 163.926 48.8664 164.056C48.8664 164.185 48.896 164.314 48.9532 164.43C49.052 164.617 49.1744 164.79 49.3173 164.946L49.0824 165.063C48.9239 164.897 48.793 164.707 48.6947 164.501C48.6153 164.355 48.568 164.194 48.5559 164.028C48.5437 163.862 48.567 163.696 48.6242 163.54C48.7792 163.215 49.052 162.96 49.3878 162.826C49.6103 162.714 49.8553 162.654 50.1045 162.65C50.3227 162.659 50.5343 162.728 50.7154 162.849C50.9048 162.983 51.0548 163.165 51.1501 163.376C51.2698 163.6 51.3342 163.849 51.338 164.102H51.0443C51.0523 163.894 51.0162 163.687 50.9386 163.494Z" fill="white"/>
<path d="M52.7849 167.65C52.5386 167.911 52.2032 168.069 51.845 168.095C51.52 168.068 51.2174 167.919 50.9991 167.677C50.7808 167.436 50.6631 167.12 50.6702 166.795C50.7218 166.44 50.9066 166.118 51.1871 165.894C51.4343 165.633 51.7684 165.47 52.127 165.437C52.2956 165.44 52.4616 165.479 52.6136 165.552C52.7657 165.625 52.9002 165.729 53.0081 165.859C53.1243 165.975 53.2147 166.114 53.2733 166.267C53.332 166.421 53.3577 166.585 53.3488 166.749C53.2853 167.111 53.0831 167.434 52.7849 167.65ZM51.3634 166.128C51.1356 166.307 50.9778 166.56 50.9169 166.842C50.9076 166.965 50.9248 167.088 50.9673 167.203C51.0099 167.318 51.0769 167.423 51.1636 167.51C51.2421 167.608 51.3423 167.687 51.4565 167.739C51.5707 167.792 51.6957 167.818 51.8215 167.814C52.1059 167.767 52.3664 167.627 52.5617 167.416C52.7917 167.244 52.9506 166.994 53.0081 166.713C53.0175 166.591 53.0003 166.468 52.9577 166.353C52.9151 166.238 52.8482 166.133 52.7614 166.046C52.6813 165.95 52.5806 165.873 52.4669 165.82C52.3531 165.767 52.2289 165.74 52.1035 165.741C51.8201 165.783 51.5592 165.919 51.3634 166.128Z" fill="white"/>
<path d="M54.6412 170.449L54.9114 167.978C54.8278 168.181 54.7337 168.381 54.6295 168.575L53.8659 170.062L53.6191 169.933L54.794 167.591L55.1934 167.802L54.9467 170.144L56.6854 168.61L57.0966 168.821L55.9218 171.163L55.6516 171.022L56.427 169.512C56.5209 169.348 56.6149 169.16 56.7442 168.961L54.8762 170.613L54.6412 170.449Z" fill="white"/>
<path d="M60.1045 170.18C60.0925 170.295 60.0533 170.406 59.99 170.504C59.9267 170.602 59.8411 170.683 59.7403 170.742C59.4933 170.866 59.2104 170.899 58.9414 170.835H58.6359L58.4715 171.854H58.166L58.5772 169.254L59.2586 169.36C59.9087 169.399 60.1906 169.672 60.1045 170.18ZM58.6712 170.519H58.9414C59.14 170.583 59.3537 170.583 59.5523 170.519C59.6205 170.478 59.6783 170.422 59.7211 170.355C59.7639 170.288 59.7906 170.212 59.799 170.133C59.8154 170.06 59.8132 169.984 59.7927 169.913C59.7722 169.841 59.734 169.776 59.6815 169.723C59.5428 169.596 59.3642 169.522 59.1764 169.512H58.8474L58.6712 170.519Z" fill="white"/>
<path d="M61.8893 172.029L61.6191 169.418H61.9246L62.1596 171.76L63.3344 171.643V171.924L61.8893 172.029Z" fill="white"/>
<path d="M65.168 171.433L64.3691 168.938L64.6159 168.821L65.4265 171.316L65.168 171.433Z" fill="white"/>
<path d="M68.902 169.653L68.1971 169.103L67.2925 169.641L67.4452 170.531L67.175 170.683L66.7051 167.896L66.9283 167.756L69.1839 169.489L68.902 169.653ZM67.9739 168.915L67.2925 168.376L66.9635 168.119C66.9635 168.224 67.034 168.353 67.0693 168.494L67.222 169.348L67.9739 168.915Z" fill="white"/>
<path d="M72.0377 166.714L71.8027 166.971L69.1946 166.573C69.3873 166.71 69.5716 166.859 69.7468 167.018L70.9216 168.013L70.7336 168.224L68.7012 166.479L68.9361 166.222L71.5325 166.62C71.4424 166.564 71.3596 166.497 71.2858 166.421L70.9921 166.187L69.876 165.18L70.064 164.957L72.0377 166.714Z" fill="white"/>
<path d="M73.6126 164.055L73.4834 164.325L71.357 163.318L70.9928 164.067L70.7461 163.95L71.592 162.17L71.8387 162.287L71.4862 163.036L73.6126 164.055Z" fill="white"/>
<path d="M53.1484 150.741L52.608 151.525L51.4332 150.706L50.7988 151.631L51.9736 152.45L51.4214 153.235L48.4844 151.256L49.0365 150.471L50.1291 151.209L50.7635 150.296L49.6709 149.546L50.2231 148.762L53.1484 150.741Z" fill="white"/>
<path d="M55.4633 148.914L53.7246 145.811L54.5705 145.343L56.3092 148.434L55.4633 148.914Z" fill="white"/>
<path d="M61.4539 144.886C61.474 145.055 61.4593 145.226 61.4109 145.389C61.3624 145.552 61.2811 145.704 61.172 145.835C60.9095 146.086 60.5609 146.228 60.1969 146.233H59.9267L60.0207 147.404L59.0573 147.474L58.7871 143.961L60.0207 143.867C60.381 143.811 60.7496 143.89 61.0545 144.09C61.1742 144.187 61.2717 144.308 61.3406 144.445C61.4095 144.582 61.4481 144.733 61.4539 144.886ZM59.8679 145.472H60.0442C60.171 145.467 60.2919 145.417 60.3849 145.331C60.459 145.23 60.4925 145.104 60.4788 144.98C60.4788 144.746 60.3261 144.628 60.0559 144.652H59.8092L59.8679 145.472Z" fill="white"/>
<path d="M66.0957 148.598L66.2132 147.919L65.1559 147.45L64.7212 147.989L63.7461 147.556L66.2602 144.769L67.435 145.284L67.0591 149.019L66.0957 148.598ZM66.3424 147.122L66.4482 146.525C66.4482 146.385 66.4482 146.221 66.5304 146.01C66.6126 145.799 66.6009 145.659 66.6126 145.565C66.6244 145.471 66.4952 145.752 66.3777 145.904L65.661 146.806L66.3424 147.122Z" fill="white"/>
<path d="M70.3122 152.626L70.7587 152.099L70.1008 151.15L69.4546 151.373L68.8555 150.506L72.4622 149.44L73.1906 150.494L70.8997 153.48L70.3122 152.626ZM71.2991 151.455L71.6868 150.998C71.7808 150.892 71.8865 150.764 72.0392 150.611C72.1336 150.492 72.2356 150.378 72.3447 150.272L71.957 150.436L70.8644 150.834L71.2991 151.455Z" fill="white"/>
<path d="M49.2251 157.767C49.2251 157.938 49.1741 158.106 49.0785 158.248C48.983 158.391 48.8472 158.502 48.6884 158.568C48.5295 158.633 48.3547 158.65 48.1861 158.617C48.0174 158.583 47.8625 158.501 47.741 158.38C47.6194 158.258 47.5366 158.104 47.503 157.936C47.4695 157.768 47.4867 157.594 47.5525 157.435C47.6183 157.277 47.7297 157.142 47.8727 157.046C48.0157 156.951 48.1837 156.9 48.3557 156.9C48.5853 156.903 48.8047 156.996 48.9671 157.158C49.1294 157.319 49.222 157.538 49.2251 157.767Z" fill="white"/>
<path d="M74.6587 157.767C74.6587 157.938 74.6077 158.106 74.5122 158.248C74.4166 158.391 74.2808 158.502 74.122 158.568C73.9631 158.633 73.7883 158.65 73.6197 158.617C73.451 158.583 73.2961 158.501 73.1746 158.38C73.053 158.258 72.9702 158.104 72.9366 157.936C72.9031 157.768 72.9203 157.594 72.9861 157.435C73.0519 157.277 73.1633 157.142 73.3063 157.046C73.4493 156.951 73.6174 156.9 73.7893 156.9C74.0189 156.903 74.2383 156.996 74.4007 157.158C74.5631 157.319 74.6556 157.538 74.6587 157.767Z" fill="white"/>
<path fill-rule="evenodd" clip-rule="evenodd" d="M42.7069 157.802C42.9581 157.748 43.2181 157.749 43.4691 157.804C43.72 157.859 43.9561 157.968 44.1611 158.122C44.3662 158.277 44.5353 158.474 44.657 158.699C44.7787 158.925 44.8502 159.174 44.8664 159.43C44.8827 159.685 44.8433 159.941 44.7511 160.181C44.659 160.42 44.5161 160.636 44.3322 160.815C44.1484 160.994 43.928 161.132 43.686 161.218C43.444 161.304 43.1862 161.338 42.9301 161.315C42.6739 161.381 42.4063 161.389 42.1465 161.34C41.8866 161.291 41.6409 161.185 41.4268 161.03C41.2128 160.875 41.0357 160.675 40.9082 160.444C40.7806 160.213 40.7059 159.956 40.6891 159.693C40.6724 159.43 40.7142 159.167 40.8114 158.921C40.9087 158.676 41.059 158.455 41.2518 158.275C41.4445 158.094 41.6749 157.958 41.9264 157.877C42.1779 157.795 42.4444 157.77 42.7069 157.802Z" fill="#41B4E4"/>
<path fill-rule="evenodd" clip-rule="evenodd" d="M45.6323 148.364C46.0514 148.58 46.3672 148.952 46.5104 149.4C46.6537 149.848 46.6125 150.335 46.3959 150.753C46.1794 151.17 45.8052 151.485 45.3557 151.628C44.9063 151.771 44.4184 151.73 43.9993 151.514C43.7698 151.42 43.5623 151.28 43.39 151.102C43.2178 150.925 43.0846 150.713 42.9988 150.481C42.9131 150.249 42.8768 150.002 42.8921 149.756C42.9074 149.509 42.9741 149.268 43.088 149.049C43.2018 148.829 43.3602 148.636 43.5531 148.481C43.7461 148.325 43.9694 148.212 44.2087 148.148C44.448 148.083 44.6982 148.069 44.9433 148.106C45.1884 148.143 45.423 148.231 45.6323 148.364Z" fill="#41B4E4"/>
<path fill-rule="evenodd" clip-rule="evenodd" d="M53.0672 141.818C53.2072 142.018 53.3048 142.243 53.3539 142.481C53.403 142.72 53.4026 142.966 53.3527 143.204C53.3028 143.442 53.2045 143.667 53.0638 143.866C52.9231 144.065 52.743 144.233 52.5347 144.359C52.3264 144.486 52.0942 144.569 51.8525 144.602C51.6109 144.636 51.3648 144.62 51.1296 144.555C50.8943 144.491 50.6749 144.379 50.4848 144.226C50.2948 144.074 50.1381 143.884 50.0244 143.668C49.8844 143.469 49.7868 143.244 49.7377 143.005C49.6886 142.767 49.689 142.521 49.7389 142.283C49.7888 142.045 49.8871 141.82 50.0278 141.621C50.1685 141.422 50.3486 141.254 50.5569 141.128C50.7652 141.001 50.9974 140.918 51.2391 140.884C51.4808 140.851 51.7268 140.867 51.9621 140.931C52.1973 140.996 52.4167 141.108 52.6068 141.261C52.7969 141.413 52.9536 141.603 53.0672 141.818Z" fill="#41B4E4"/>
<path fill-rule="evenodd" clip-rule="evenodd" d="M62.8175 140.05C62.8593 140.304 62.8451 140.565 62.7758 140.814C62.7066 141.062 62.5838 141.293 62.4162 141.49C62.2486 141.687 62.04 141.845 61.805 141.953C61.57 142.061 61.3142 142.117 61.0553 142.117C60.7963 142.117 60.5405 142.061 60.3055 141.953C60.0705 141.845 59.8619 141.687 59.6943 141.49C59.5267 141.293 59.4039 141.062 59.3347 140.814C59.2654 140.565 59.2512 140.304 59.293 140.05C59.2512 139.795 59.2654 139.534 59.3347 139.286C59.4039 139.037 59.5267 138.806 59.6943 138.609C59.8619 138.413 60.0705 138.255 60.3055 138.146C60.5405 138.038 60.7963 137.982 61.0553 137.982C61.3142 137.982 61.57 138.038 61.805 138.146C62.04 138.255 62.2486 138.413 62.4162 138.609C62.5838 138.806 62.7066 139.037 62.7758 139.286C62.8451 139.534 62.8593 139.795 62.8175 140.05Z" fill="#41B4E4"/>
<path fill-rule="evenodd" clip-rule="evenodd" d="M72.0749 143.609C71.9592 143.82 71.802 144.005 71.6127 144.153C71.4234 144.302 71.2059 144.411 70.9733 144.473C70.7408 144.536 70.4979 144.551 70.2593 144.517C70.0208 144.484 69.7915 144.402 69.5853 144.278C69.3791 144.154 69.2002 143.99 69.0594 143.795C68.9186 143.6 68.8188 143.379 68.766 143.144C68.7133 142.91 68.7086 142.668 68.7523 142.432C68.796 142.195 68.8872 141.971 69.0204 141.77C69.1244 141.539 69.2766 141.332 69.4669 141.164C69.6572 140.995 69.8812 140.869 70.1241 140.793C70.367 140.717 70.6233 140.694 70.876 140.724C71.1286 140.755 71.372 140.838 71.5898 140.969C71.8077 141.1 71.9952 141.276 72.1398 141.485C72.2844 141.694 72.3829 141.931 72.4288 142.18C72.4746 142.43 72.4668 142.686 72.4058 142.933C72.3448 143.179 72.232 143.409 72.0749 143.609Z" fill="#41B4E4"/>
<path fill-rule="evenodd" clip-rule="evenodd" d="M78.1494 151.432C77.941 151.553 77.7102 151.63 77.471 151.659C77.2318 151.689 76.9891 151.67 76.7575 151.603C76.5259 151.536 76.3102 151.424 76.1235 151.272C75.9368 151.12 75.7828 150.932 75.6709 150.719C75.559 150.506 75.4915 150.273 75.4724 150.034C75.4533 149.794 75.4831 149.553 75.5599 149.326C75.6367 149.098 75.7589 148.888 75.9193 148.709C76.0796 148.529 76.2748 148.384 76.4929 148.282C76.7023 148.138 76.94 148.039 77.1904 147.993C77.4407 147.948 77.698 147.955 77.9452 148.016C78.1924 148.077 78.4238 148.189 78.6242 148.345C78.8245 148.502 78.9892 148.699 79.1074 148.924C79.2256 149.148 79.2945 149.396 79.3097 149.649C79.3248 149.902 79.2858 150.156 79.1952 150.393C79.1047 150.63 78.9646 150.845 78.7843 151.024C78.604 151.204 78.3876 151.342 78.1494 151.432Z" fill="#41B4E4"/>
<path fill-rule="evenodd" clip-rule="evenodd" d="M79.2543 161.269C78.7868 161.212 78.3556 160.989 78.0403 160.64C77.725 160.292 77.547 159.841 77.5391 159.372C77.5991 158.914 77.8242 158.494 78.1723 158.19C78.5204 157.887 78.9677 157.719 79.4305 157.721C79.693 157.687 79.9598 157.711 80.2118 157.791C80.4638 157.872 80.6949 158.007 80.8884 158.187C81.082 158.367 81.2332 158.588 81.3314 158.833C81.4296 159.078 81.4723 159.341 81.4565 159.605C81.4406 159.868 81.3666 160.124 81.2397 160.356C81.1128 160.588 80.9362 160.788 80.7225 160.944C80.5087 161.1 80.2631 161.206 80.0032 161.256C79.7433 161.306 79.4756 161.299 79.2191 161.234L79.2543 161.269Z" fill="#41B4E4"/>
<path d="M61.0919 149.839C60.8769 149.839 60.6707 149.924 60.5187 150.076C60.3667 150.228 60.2812 150.433 60.2812 150.647C60.2812 150.862 60.3667 151.067 60.5187 151.219C60.6707 151.37 60.8769 151.455 61.0919 151.455C61.3069 151.455 61.513 151.37 61.6651 151.219C61.8171 151.067 61.9025 150.862 61.9025 150.647C61.9025 150.433 61.8171 150.228 61.6651 150.076C61.513 149.924 61.3069 149.839 61.0919 149.839Z" fill="#26A9E0"/>
<path d="M61.359 151.584H60.8186C60.7906 151.584 60.7637 151.595 60.7439 151.615C60.724 151.635 60.7129 151.661 60.7129 151.689C60.7129 151.717 60.724 151.744 60.7439 151.764C60.7637 151.784 60.7906 151.795 60.8186 151.795H61.359C61.3871 151.795 61.414 151.784 61.4338 151.764C61.4536 151.744 61.4648 151.717 61.4648 151.689C61.4648 151.661 61.4536 151.635 61.4338 151.615C61.414 151.595 61.3871 151.584 61.359 151.584Z" fill="#26A9E0"/>
<path d="M61.0899 151.912C61.0659 151.908 61.0413 151.91 61.0182 151.917C60.995 151.925 60.9739 151.938 60.9567 151.955C60.9395 151.972 60.9267 151.993 60.9193 152.016C60.9119 152.039 60.9102 152.064 60.9143 152.088V157.451L61.1016 157.358H61.1836V152.135C61.2773 151.947 61.1953 151.912 61.0899 151.912Z" fill="#26A9E0"/>
<path d="M60.9609 160.284C61.0504 160.248 61.1456 160.228 61.242 160.226V159.664H60.9609V160.284Z" fill="#26A9E0"/>
<path d="M61.1477 163.494L60.9727 163.564V164.138C61.0213 164.103 61.0771 164.079 61.136 164.067V163.517H61.0543L61.1477 163.494Z" fill="#26A9E0"/>
<path d="M60.9844 164.851V165.402C61.0409 165.381 61.1029 165.381 61.1594 165.402V164.723H61.0894L60.9844 164.851Z" fill="#26A9E0"/>
<path d="M61.09 166.011L60.9844 166.07V167.112C60.9921 167.135 61.007 167.156 61.027 167.17C61.047 167.185 61.0711 167.193 61.0958 167.193C61.1205 167.193 61.1446 167.185 61.1646 167.17C61.1846 167.156 61.1995 167.135 61.2073 167.112V166.046L61.09 166.011Z" fill="#26A9E0"/>
<path d="M61.2073 162.205H61.1252H60.9727V162.837H61.0665H61.219V162.216L61.2073 162.205Z" fill="#26A9E0"/>
<path d="M60.9609 161.42L61.1482 161.35V160.881L60.8672 160.952L60.9609 161.42Z" fill="#26A9E0"/>
<path d="M60.9512 158.435V158.95L61.1975 158.879V158.376H61.0919L60.9512 158.435Z" fill="#26A9E0"/>
<path d="M59.9165 153.071C59.5993 152.919 59.9165 152.696 59.9987 152.485C60.1489 152.252 60.219 151.977 60.1984 151.701C60.1497 151.543 60.056 151.403 59.9288 151.297C59.8016 151.191 59.6464 151.124 59.4818 151.104C59.3243 151.087 59.165 151.102 59.0136 151.149C58.8622 151.195 58.7217 151.271 58.6007 151.373C58.3084 151.57 57.9976 151.739 57.6726 151.877C56.3435 152.493 54.9424 152.941 53.502 153.211C53.7864 153.588 54.2089 153.836 54.6768 153.902C54.6768 154.125 55.0762 154.359 55.2524 154.429C55.4942 154.523 55.7626 154.523 56.0043 154.429C56.0749 154.535 56.1661 154.625 56.2726 154.694C56.3791 154.763 56.4985 154.81 56.6237 154.832C56.7489 154.854 56.8772 154.85 57.001 154.821C57.1247 154.792 57.2413 154.739 57.3436 154.664C57.3436 154.863 57.7313 154.98 57.884 155.015C58.1347 155.05 58.3902 155.018 58.6242 154.921C58.8004 154.921 58.8709 154.991 59.0588 155.027C59.2548 155.084 59.4655 155.063 59.6462 154.968C59.7285 154.968 59.6462 154.898 59.7872 154.898C59.9282 154.898 59.9282 154.968 59.9987 154.98C60.0692 154.991 60.3041 154.874 60.3981 154.745C60.5398 154.532 60.6505 154.299 60.7271 154.055V153.165C60.4533 153.186 60.1779 153.155 59.9165 153.071Z" fill="#26A9E0"/>
<path d="M63.5463 151.373C63.4253 151.271 63.2848 151.195 63.1334 151.149C62.982 151.102 62.8227 151.087 62.6652 151.104C62.5006 151.124 62.3454 151.191 62.2182 151.297C62.091 151.403 61.9974 151.543 61.9486 151.701C61.928 151.977 61.9981 152.252 62.1483 152.485C62.2658 152.696 62.5477 152.919 62.2305 153.071C61.963 153.125 61.6874 153.125 61.4199 153.071V154.019C61.4977 154.239 61.596 154.451 61.7136 154.652C61.8194 154.781 61.9486 154.921 62.1248 154.886C62.301 154.851 62.2775 154.816 62.3363 154.804C62.395 154.792 62.3363 154.804 62.4773 154.874C62.658 154.969 62.8687 154.99 63.0647 154.933C63.2526 154.933 63.3231 154.781 63.4993 154.827C63.7333 154.924 63.9888 154.956 64.2395 154.921C64.3922 154.921 64.7564 154.769 64.7799 154.57C64.8822 154.645 64.9988 154.699 65.1225 154.728C65.2463 154.757 65.3746 154.76 65.4998 154.738C65.625 154.717 65.7445 154.67 65.8509 154.6C65.9574 154.531 66.0486 154.441 66.1192 154.336C66.3609 154.43 66.6293 154.43 66.8711 154.336C67.0473 154.265 67.4702 154.031 67.435 153.809C67.9029 153.742 68.3254 153.494 68.6098 153.118C67.1693 152.847 65.7683 152.399 64.4392 151.783C64.1298 151.673 63.831 151.536 63.5463 151.373Z" fill="#26A9E0"/>
<path d="M59.1059 156.608C58.8592 156.432 59.1059 156.268 59.2939 156.221C59.6399 156.126 59.9634 155.963 60.2455 155.741C60.3512 155.647 60.5039 155.378 60.3394 155.261C60.175 155.144 59.8695 155.261 59.7403 155.261C59.5433 155.278 59.3516 155.334 59.1764 155.425C58.838 155.559 58.5617 155.814 58.401 156.139C58.3538 156.265 58.3388 156.4 58.3573 156.533C58.3757 156.666 58.4271 156.792 58.5067 156.9C58.8129 157.208 59.1814 157.448 59.5876 157.603L60.0692 157.814C60.0692 157.814 60.6801 157.568 60.9034 157.416C60.3982 157.217 60.034 157.053 59.8695 156.971C59.606 156.869 59.3507 156.748 59.1059 156.608Z" fill="#26A9E0"/>
<path d="M61.2792 165.789L61.1504 165.93L61.2207 166C61.2948 166.08 61.3468 166.179 61.3714 166.286C61.396 166.392 61.3925 166.504 61.3612 166.609C61.3612 166.609 61.4314 166.609 61.4666 166.445C61.4865 166.352 61.4864 166.256 61.4662 166.163C61.446 166.07 61.4062 165.982 61.3495 165.906C61.3235 165.869 61.3 165.83 61.2792 165.789Z" fill="#26A9E0"/>
<path d="M61.62 163.236C61.498 163.329 61.3683 163.411 61.2323 163.482L61.6082 163.693C61.6082 163.693 61.4907 163.938 61.3497 164.032L60.8798 164.407C60.7051 164.526 60.5636 164.687 60.4686 164.875C60.4274 164.978 60.4224 165.092 60.4544 165.199C60.4864 165.305 60.5535 165.397 60.6449 165.461L60.8798 165.695C60.8798 165.695 60.9856 165.601 61.009 165.531C60.6918 165.262 60.4921 164.934 61.009 164.641C61.1618 164.536 61.338 164.43 61.5142 164.29C61.6116 164.22 61.6986 164.138 61.7727 164.044C61.8387 163.988 61.8863 163.913 61.9093 163.829C61.9324 163.746 61.9298 163.657 61.9019 163.575C61.8797 163.503 61.8433 163.436 61.795 163.378C61.7466 163.319 61.6871 163.271 61.62 163.236Z" fill="#26A9E0"/>
<path d="M62.0787 160.695L61.3268 160.999L61.644 161.093C61.6987 161.088 61.7538 161.088 61.8085 161.093C61.7281 161.162 61.6368 161.217 61.5383 161.257L60.8099 161.597C60.5249 161.7 60.2732 161.878 60.0815 162.112C60.0256 162.204 60.0032 162.312 60.0182 162.419C60.0332 162.526 60.0846 162.624 60.1637 162.697C60.2582 162.807 60.3691 162.902 60.4927 162.978L60.6101 163.049C60.7394 162.955 60.8921 162.896 61.0213 162.814L60.7276 162.639C60.5279 162.51 60.3987 162.311 60.4574 162.334C60.6292 162.202 60.8191 162.096 61.0213 162.018L61.738 161.702C61.8878 161.649 62.027 161.569 62.1492 161.468C62.2553 161.4 62.3322 161.295 62.3648 161.174C62.3974 161.053 62.3833 160.923 62.3254 160.812C62.2558 160.751 62.1703 160.71 62.0787 160.695Z" fill="#26A9E0"/>
<path d="M62.5 158.083C62.3683 158.012 62.2307 157.954 62.0888 157.907C61.8147 158.064 61.5278 158.197 61.2312 158.305L61.7011 158.469C61.8806 158.527 62.0571 158.593 62.2298 158.668L62.3472 158.739L62.1593 158.797C61.9596 158.856 61.7246 158.891 61.5014 158.938C60.9638 158.962 60.4348 159.081 59.9389 159.289C59.7681 159.371 59.6222 159.496 59.5159 159.652C59.4861 159.718 59.4707 159.79 59.4707 159.863C59.4707 159.935 59.4861 160.007 59.5159 160.074C59.5608 160.181 59.629 160.277 59.7157 160.355C59.8378 160.453 59.972 160.536 60.1151 160.601C60.2675 160.556 60.4167 160.501 60.5615 160.437H60.6555L60.9022 160.343L60.7025 160.273C60.4872 160.205 60.2847 160.102 60.1033 159.968L60.2678 159.863C60.7099 159.705 61.1733 159.614 61.6424 159.593C61.8913 159.559 62.1383 159.512 62.3825 159.453L62.7584 159.336C62.8625 159.3 62.9564 159.24 63.0321 159.161C63.1078 159.081 63.163 158.985 63.1931 158.879C63.2519 158.434 62.6057 158.13 62.5 158.083Z" fill="#26A9E0"/>
<path d="M61.3974 164.489L61.1859 164.676C61.9496 165.121 60.998 165.519 60.8217 165.847C60.7089 166.003 60.6625 166.196 60.6925 166.386C60.6925 166.515 60.7982 166.55 60.81 166.55C60.7786 166.445 60.775 166.333 60.7997 166.227C60.8245 166.12 60.8766 166.021 60.951 165.941C61.1339 165.748 61.3302 165.568 61.5384 165.402C61.6266 165.336 61.6913 165.244 61.723 165.138C61.7547 165.033 61.7518 164.92 61.7146 164.817C61.6375 164.683 61.5286 164.57 61.3974 164.489Z" fill="#26A9E0"/>
<path d="M61.7612 161.866L61.2208 162.135C61.4101 162.205 61.5853 162.308 61.7377 162.44C61.8082 162.44 61.7377 162.615 61.4792 162.744L60.8683 163.095C60.6921 163.212 60.3749 163.201 60.2339 163.575C60.2061 163.657 60.2035 163.746 60.2265 163.829C60.2495 163.913 60.2971 163.988 60.3632 164.044C60.4373 164.138 60.5243 164.22 60.6216 164.29L60.7156 164.36L61.0211 164.184L60.8331 164.032C60.6804 163.938 60.5394 163.716 60.5746 163.692C60.7251 163.596 60.8821 163.51 61.0446 163.435C61.2747 163.331 61.4983 163.214 61.7142 163.084C61.8377 163.007 61.9487 162.913 62.0432 162.803C62.1204 162.728 62.1705 162.63 62.1854 162.524C62.2003 162.418 62.1792 162.31 62.1254 162.217C62.0359 162.071 61.9106 161.95 61.7612 161.866Z" fill="#26A9E0"/>
<path d="M62.4654 159.454C62.2892 159.454 61.6313 159.641 61.4786 159.676C61.6447 159.707 61.8064 159.758 61.9603 159.828L62.1247 159.934C61.9434 160.068 61.7409 160.171 61.5256 160.238L60.7619 160.472L60.3742 160.589C60.2568 160.648 60.0453 160.589 59.8926 160.917C59.8346 161.029 59.8205 161.158 59.8531 161.279C59.8857 161.401 59.9627 161.505 60.0688 161.573C60.1655 161.659 60.2769 161.726 60.3977 161.772L60.9617 161.55L60.621 161.397C60.5211 161.361 60.4293 161.305 60.3508 161.234H60.527L60.9029 161.128C61.1496 161.058 61.4198 160.999 61.69 160.906C61.9809 160.814 62.2548 160.676 62.5007 160.496C62.5873 160.418 62.6555 160.322 62.7004 160.215C62.754 160.079 62.754 159.929 62.7004 159.793C62.6428 159.667 62.5633 159.552 62.4654 159.454Z" fill="#26A9E0"/>
<path d="M62.9953 155.449C62.8195 155.359 62.6281 155.303 62.4314 155.285C62.3022 155.285 61.9498 155.179 61.8323 155.285C61.7148 155.39 61.8323 155.671 61.9263 155.765C62.2083 155.986 62.5318 156.149 62.8779 156.245C62.9953 156.245 63.3125 156.456 63.0541 156.631C62.8156 156.782 62.564 156.912 62.3022 157.018L61.1274 157.51L60.1875 157.873C60.0231 157.931 59.7998 158.013 59.6001 158.107C59.4004 158.2 58.86 158.458 58.9775 158.856C59.0076 158.962 59.0628 159.058 59.1385 159.138C59.2142 159.217 59.3081 159.277 59.4121 159.313L59.6471 159.383C59.8661 159.205 60.1119 159.063 60.3755 158.962L59.9056 158.856L59.7176 158.798L59.8351 158.727C60.0078 158.652 60.1842 158.586 60.3638 158.528L61.3271 158.165C61.891 157.943 62.2905 157.767 62.5019 157.685C62.9081 157.53 63.2766 157.291 63.5828 156.983C63.6624 156.874 63.7138 156.748 63.7322 156.615C63.7507 156.482 63.7356 156.347 63.6885 156.221C63.5561 155.89 63.3106 155.617 62.9953 155.449Z" fill="#26A9E0"/>
<path d="M374.66 74.5549C341.084 55.6431 346.288 17.761 347.24 12.3275C350.615 13.5152 354.164 14.1364 357.743 14.166C363.9 14.2486 369.888 12.1487 374.637 8.24072C379.39 12.1501 385.38 14.2536 391.542 14.1777C395.125 14.1492 398.678 13.5279 402.057 12.3393C403.032 17.761 408.236 55.6431 374.66 74.5549Z" fill="#F7F7F7"/>
<path d="M374.695 9.02517C379.5 12.7931 385.451 14.8132 391.565 14.7514C394.981 14.7235 398.371 14.1584 401.61 13.0769C402.725 20.5091 402.646 28.0709 401.375 35.4782C398.391 52.5515 389.403 65.4561 374.659 73.8639C359.916 65.4561 350.928 52.5515 347.944 35.4782C346.693 28.0683 346.626 20.5078 347.744 13.0769C350.985 14.1495 354.375 14.7067 357.789 14.728C363.897 14.7877 369.843 12.7722 374.648 9.01346L374.695 9.02517ZM374.648 7.40918C369.957 11.4506 363.941 13.6342 357.742 13.5453C353.996 13.5165 350.285 12.8267 346.781 11.5077C346.781 11.5077 337.453 54.4837 374.648 75.1871C411.842 54.4837 402.503 11.5077 402.503 11.5077C398.998 12.8267 395.287 13.5165 391.542 13.5453C385.346 13.6324 379.334 11.4489 374.648 7.40918Z" fill="#BFDFEF"/>
<path d="M376.682 35.5254H396.747V38.2538H391.966V43.6873C391.966 44.8583 391.966 46.0293 391.966 47.1301H389.217C389.217 47.1301 389.217 47.013 389.217 46.9661V38.4998C389.217 38.4295 389.217 38.3475 389.217 38.289H389.123H376.964C376.832 38.287 376.703 38.3238 376.592 38.3946C376.481 38.4654 376.394 38.5671 376.341 38.6871C376.262 38.8217 376.22 38.9749 376.219 39.131C376.219 39.2871 376.261 39.4404 376.34 39.5752C376.419 39.71 376.532 39.8213 376.669 39.8978C376.805 39.9743 376.96 40.0132 377.116 40.0104C379.466 40.0104 381.874 40.0104 384.259 40.0104C385.127 40.0231 385.961 40.3475 386.609 40.924C387.256 41.5004 387.673 42.2903 387.784 43.1487C388.007 44.952 387.02 47.1652 385.199 47.1652C385.07 47.1652 372.276 47.1652 372.276 47.1652C370.49 47.1652 369.68 45.6429 369.668 43.8396C369.668 42.5046 369.668 41.1579 369.668 39.823C369.668 38.488 369.668 37.0009 369.668 35.5957H372.417C372.417 35.7362 372.417 35.865 372.417 36.0055V43.9215C372.417 44.3548 372.511 44.4719 372.875 44.4719H384.306C384.467 44.4803 384.625 44.4338 384.756 44.3401C384.886 44.2464 384.98 44.1111 385.023 43.9566C385.072 43.8249 385.089 43.683 385.071 43.5434C385.054 43.4038 385.002 43.2705 384.921 43.1552C384.84 43.0399 384.732 42.946 384.607 42.8816C384.481 42.8172 384.342 42.7843 384.2 42.7856C381.851 42.7856 379.407 42.7856 377.011 42.7856C376.084 42.9301 375.137 42.7015 374.379 42.1503C373.621 41.5991 373.114 40.7704 372.969 39.8464C372.824 38.9225 373.054 37.979 373.607 37.2235C374.16 36.4681 374.991 35.9626 375.918 35.8181C376.188 35.6425 376.435 35.5957 376.682 35.5254Z" fill="black"/>
<path d="M365.72 47.1301H364.828C363.893 46.8987 363.064 46.3579 362.478 45.5961C360.34 43.254 358.178 40.912 356.005 38.57C355.899 38.4529 355.652 38.3241 355.535 38.3709C355.465 38.4249 355.408 38.4941 355.37 38.5733C355.331 38.6525 355.311 38.7395 355.312 38.8276C355.312 40.2094 355.312 41.5795 355.312 42.9496V47.1769H352.574V38.1836L352.645 37.9611C352.768 37.3863 353.055 36.8593 353.472 36.4437C353.889 36.0282 354.418 35.7418 354.994 35.6191L355.347 35.5254H355.969C356.977 35.7557 357.868 36.3371 358.484 37.1648C360.598 39.5068 362.736 41.8488 364.875 44.1909C364.98 44.3197 365.192 44.3548 365.356 44.4251C365.427 44.2611 365.568 44.0972 365.568 43.9332C365.568 42.4578 365.568 40.9706 365.568 39.4951C365.568 38.0196 365.568 36.8838 365.568 35.5722H368.317C368.317 38.4529 368.317 41.3453 368.317 44.226C368.298 44.8681 368.073 45.4872 367.676 45.9929C367.278 46.4986 366.729 46.8642 366.108 47.0364L365.72 47.1301Z" fill="black"/>
<path d="M501.754 141.677C462.162 119.428 468.577 74.6487 469.634 68.6883C473.601 70.1035 477.779 70.8437 481.993 70.8781C489.208 70.9493 496.213 68.4586 501.754 63.8521C507.293 68.4189 514.279 70.8758 521.467 70.7844C525.681 70.7501 529.859 70.0098 533.826 68.5946C534.883 74.5551 541.298 119.311 501.707 141.584L501.754 141.677Z" fill="#F7F7F7"/>
<path d="M501.799 64.6951C507.401 69.1486 514.372 71.5393 521.536 71.4635C525.585 71.4314 529.602 70.7554 533.437 69.4611C534.777 78.2151 534.697 87.1267 533.202 95.8556C529.678 115.95 519.104 131.138 501.764 141.01C484.412 131.162 473.839 115.997 470.338 95.9259C468.835 87.1743 468.752 78.239 470.091 69.4611C473.926 70.7554 477.943 71.4314 481.992 71.4635C489.15 71.5342 496.115 69.1485 501.717 64.7068L501.799 64.6951ZM501.717 63.0908C496.244 67.8224 489.213 70.3779 481.969 70.2691C477.595 70.2408 473.261 69.4481 469.163 67.9271C469.163 67.9271 458.249 118.152 501.717 142.356C545.185 118.152 534.283 67.9271 534.283 67.9271C530.185 69.4481 525.851 70.2408 521.478 70.2691C514.229 70.3797 507.194 67.8242 501.717 63.0908Z" fill="#BFDFEF"/>
<path d="M510.587 102.261C510.41 108.292 505.417 109.709 501.94 108.116C500.988 107.71 500.205 106.991 499.72 106.079C499.119 105.029 498.795 103.846 498.776 102.638C498.758 101.43 499.046 100.237 499.614 99.1699C500.172 98.1431 501.038 97.3164 502.092 96.806C503.146 96.2956 504.333 96.1272 505.488 96.3244C506.663 96.4247 507.772 96.9062 508.647 97.6951C509.521 98.484 510.112 99.5368 510.328 100.692C510.493 101.325 510.54 101.922 510.587 102.261Z" fill="#0979BE"/>
<path d="M522.241 108.562C521.301 108.562 520.573 108.562 519.891 108.562C519.639 108.559 519.392 108.482 519.183 108.341C518.974 108.199 518.812 107.999 518.717 107.765C518.176 106.864 517.542 105.974 517.084 105.048C516.696 104.311 516.473 104.475 516.144 105.048C515.815 105.622 515.239 106.395 514.887 107.133C514.701 107.66 514.325 108.1 513.832 108.367C513.339 108.633 512.764 108.707 512.22 108.573C511.829 108.546 511.436 108.546 511.045 108.573C512.22 106.735 513.395 105.06 514.569 103.362C514.79 103.123 514.912 102.809 514.912 102.484C514.912 102.159 514.79 101.845 514.569 101.606C513.395 99.9897 512.396 98.3152 511.209 96.5001H513.665C513.896 96.5122 514.119 96.5874 514.309 96.7176C514.5 96.8477 514.651 97.0277 514.746 97.2379C515.357 98.2683 515.991 99.2871 516.649 100.376C517.316 99.6928 517.86 98.9007 518.258 98.0341C518.45 97.4789 518.843 97.0154 519.361 96.7356C519.879 96.4559 520.483 96.3802 521.054 96.5235C521.383 96.5495 521.713 96.5495 522.041 96.5235C521.325 97.5775 520.702 98.4791 520.091 99.4042C519.48 100.329 518.458 101.243 518.352 102.238C518.247 103.233 519.41 104.147 519.997 105.107C520.585 106.067 521.395 107.262 522.241 108.562Z" fill="#0979BE"/>
<path d="M493.13 108.772C492.053 108.767 490.989 108.539 490.005 108.105C489.171 107.683 489.135 107.18 489.887 106.617C490.129 106.432 490.418 106.319 490.721 106.29C491.025 106.261 491.33 106.317 491.603 106.454C492.26 106.724 492.98 106.805 493.682 106.688C494.363 106.582 494.857 106.325 495.045 105.517C495.12 105.165 495.055 104.798 494.865 104.492C494.674 104.187 494.372 103.966 494.023 103.877C493.523 103.699 493.013 103.55 492.495 103.432C491.685 103.261 490.896 102.998 490.146 102.648C489.545 102.412 489.037 101.987 488.7 101.437C488.363 100.888 488.215 100.244 488.278 99.6032C488.287 98.9421 488.506 98.3009 488.902 97.7709C489.299 97.241 489.853 96.8495 490.486 96.6522C491.726 96.1991 493.074 96.1338 494.352 96.4648C494.763 96.5702 495.456 96.4648 495.397 97.2611C495.382 97.4389 495.33 97.6116 495.244 97.7684C495.159 97.9252 495.042 98.0629 494.901 98.1727C494.76 98.2826 494.598 98.3623 494.424 98.4069C494.251 98.4516 494.07 98.4601 493.893 98.4321C493.307 98.2844 492.698 98.2408 492.096 98.3033C491.8 98.3024 491.515 98.4128 491.297 98.6126C491.079 98.8123 490.945 99.0866 490.921 99.3807C490.889 99.6375 490.951 99.8972 491.096 100.112C491.24 100.327 491.458 100.483 491.708 100.552C492.578 100.856 493.471 101.067 494.352 101.313C496.889 102.027 497.958 103.467 497.571 105.657C497.454 106.324 497.134 106.939 496.655 107.418C496.176 107.898 495.56 108.219 494.892 108.339C494.312 108.512 493.724 108.657 493.13 108.772Z" fill="#0979BE"/>
<path d="M484.46 101.032C483.717 100.088 482.843 99.2563 481.863 98.5607C483.238 97.0736 483.238 97.0736 484.601 98.4553C485.436 96.8653 486.382 95.3354 487.432 93.8767C488.505 92.3998 489.873 91.1599 491.45 90.2349C491.45 91.6986 491.45 93.0219 491.45 94.3334C491.45 94.7081 491.191 94.7901 490.945 94.9189C488.744 96.2321 486.945 98.1188 485.74 100.376C485.564 100.669 485.176 101.043 485.94 101.172C486.21 101.172 486.14 101.512 486.104 101.711C486.069 101.91 485.822 101.98 485.611 101.98C485.047 101.98 484.436 101.98 483.907 101.98C483.602 101.98 483.144 102.167 483.109 101.582C483.073 100.996 483.532 101.16 483.849 101.125C484.025 101.055 484.131 101.055 484.46 101.032Z" fill="#0979BE"/>
<path d="M498.334 112.227C497.887 112.461 498.016 113.046 497.593 113.398L497.076 112.297H496.936V114.99C496.936 115.236 496.936 115.517 496.607 115.541C496.278 115.564 496.172 115.295 496.172 114.99V110.693C496.172 110.447 496.172 110.166 496.501 110.131C496.83 110.096 496.924 110.33 497.018 110.564C497.182 110.986 497.382 111.395 497.629 111.969C497.887 111.395 498.075 110.974 498.251 110.541C498.357 110.306 498.475 110.096 498.792 110.119C499.109 110.142 499.085 110.459 499.085 110.693C499.085 112.133 499.085 113.585 499.085 115.025C499.085 115.318 499.085 115.634 498.674 115.588C498.263 115.541 498.334 115.213 498.334 114.955V112.227Z" fill="#127EC1"/>
<path d="M514.664 112.964V110.622C514.664 110.388 514.664 110.083 515.005 110.095C515.346 110.107 515.322 110.411 515.322 110.645C515.322 112.121 515.322 113.608 515.322 115.084C515.322 115.294 515.322 115.529 515.04 115.552C514.758 115.575 514.676 115.4 514.606 115.189C514.346 114.4 513.991 113.645 513.548 112.941C513.548 113.608 513.548 114.264 513.548 114.931C513.548 115.201 513.631 115.552 513.184 115.54C512.738 115.529 512.89 115.201 512.89 114.978C512.89 113.526 512.89 112.086 512.89 110.645C512.89 110.446 512.89 110.177 513.114 110.118C513.337 110.06 513.525 110.318 513.607 110.552C513.889 111.348 514.194 112.133 514.476 112.894L514.664 112.964Z" fill="#0E7BC0"/>
<path d="M491.943 112.929C491.955 112.223 492.094 111.524 492.355 110.868C492.432 110.621 492.589 110.407 492.802 110.259C493.014 110.11 493.27 110.036 493.529 110.048C493.763 110.058 493.988 110.136 494.176 110.274C494.365 110.411 494.507 110.602 494.587 110.821C494.863 111.453 495.005 112.134 495.005 112.823C495.005 113.512 494.863 114.194 494.587 114.826C494.521 115.068 494.38 115.282 494.184 115.438C493.987 115.594 493.745 115.683 493.494 115.692C492.883 115.692 492.566 115.271 492.319 114.779C492.095 114.186 491.968 113.562 491.943 112.929Z" fill="#0D7BBF"/>
<path d="M511.692 115.048C511.692 115.341 511.751 115.564 511.434 115.587C511.116 115.61 511.058 115.458 511.034 115.201C511.011 114.943 510.952 114.439 510.388 114.451C509.824 114.463 509.789 114.838 509.754 115.236C509.718 115.634 509.507 115.634 509.237 115.575C508.967 115.517 509.037 115.259 509.072 115.072C509.366 113.549 509.66 112.027 509.942 110.493C509.942 110.212 510.094 110.048 510.412 110.06C510.519 110.053 510.624 110.089 510.705 110.159C510.787 110.229 510.837 110.328 510.846 110.435C511.128 111.992 511.422 113.561 511.692 115.048Z" fill="#0F7CC0"/>
<path d="M520.057 112.824V111.349C520.057 110.096 520.374 109.85 521.643 110.096C521.866 110.096 522.066 110.178 522.066 110.459C522.066 110.74 521.854 110.822 521.631 110.81C521.102 110.81 520.773 110.88 520.797 111.536C520.82 112.192 520.855 112.52 521.572 112.426C521.617 112.419 521.662 112.422 521.705 112.434C521.748 112.446 521.789 112.468 521.823 112.496C521.857 112.525 521.885 112.561 521.905 112.601C521.924 112.642 521.935 112.686 521.936 112.73C521.936 113 521.772 113.093 521.537 113.082C520.444 113.023 520.914 113.843 520.832 114.335C520.714 115.026 521.22 114.932 521.643 114.932C522.066 114.932 522.148 114.932 522.124 115.307C522.101 115.681 521.878 115.576 521.678 115.611C520.221 115.834 520.057 115.693 520.057 114.194V112.824Z" fill="#1A82C3"/>
<path d="M500.555 112.836V111.138C500.555 110.06 500.813 109.885 501.894 110.212C502.192 110.27 502.46 110.428 502.653 110.661C502.846 110.894 502.951 111.187 502.951 111.489C502.951 112.18 502.846 112.894 502.141 113.023C501.189 113.199 501.213 113.772 501.26 114.452C501.26 114.697 501.26 114.943 501.26 115.201C501.26 115.459 501.189 115.599 500.895 115.587C500.602 115.576 500.578 115.377 500.566 115.154V112.812L500.555 112.836Z" fill="#0C7ABF"/>
<path d="M489.465 112.918C489.474 113.38 489.513 113.842 489.582 114.299C489.588 114.407 489.619 114.511 489.671 114.605C489.724 114.699 489.796 114.78 489.885 114.842C489.973 114.903 490.074 114.945 490.18 114.962C490.286 114.98 490.395 114.974 490.498 114.943C490.651 114.943 490.863 114.569 490.98 114.943C491.005 115.009 491.016 115.08 491.012 115.15C491.007 115.221 490.988 115.289 490.954 115.352C490.921 115.414 490.874 115.468 490.818 115.511C490.762 115.554 490.697 115.584 490.628 115.599C490.347 115.714 490.032 115.716 489.749 115.605C489.467 115.494 489.238 115.278 489.112 115.002C488.79 114.333 488.623 113.601 488.623 112.859C488.623 112.117 488.79 111.385 489.112 110.716C489.199 110.5 489.353 110.318 489.552 110.195C489.751 110.073 489.984 110.018 490.216 110.037C490.581 110.037 491.004 110.166 490.957 110.611C490.91 111.056 490.545 110.693 490.346 110.704C489.829 110.704 489.653 111.067 489.582 111.442C489.513 111.931 489.474 112.424 489.465 112.918Z" fill="#137EC1"/>
<path d="M516.578 112.871C516.554 112.201 516.674 111.534 516.93 110.915C517.001 110.662 517.156 110.44 517.369 110.285C517.582 110.13 517.841 110.051 518.105 110.06C518.457 110.06 518.892 110.177 518.833 110.634C518.775 111.091 518.422 110.716 518.211 110.716C517.635 110.716 517.494 111.161 517.435 111.559C517.294 112.432 517.294 113.321 517.435 114.194C517.518 114.662 517.741 115.072 518.363 114.932C518.54 114.932 518.833 114.557 518.88 115.061C518.901 115.183 518.874 115.309 518.804 115.411C518.734 115.514 518.626 115.585 518.504 115.611C518.222 115.73 517.904 115.734 517.619 115.622C517.334 115.511 517.103 115.292 516.977 115.014C516.652 114.349 516.514 113.608 516.578 112.871Z" fill="#137EC1"/>
<path d="M507.193 112.918C507.193 112.168 507.193 111.43 507.193 110.681C507.193 110.412 507.134 110.084 507.592 110.107C508.05 110.131 507.98 110.365 507.98 110.634V115.084C507.98 115.353 507.98 115.576 507.592 115.599C507.204 115.623 507.193 115.318 507.193 115.037C507.181 114.334 507.193 113.62 507.193 112.918Z" fill="#1C83C3"/>
<path d="M504.172 112.788C504.172 112.086 504.172 111.383 504.172 110.669C504.172 110.435 504.172 110.142 504.501 110.13C504.83 110.119 504.842 110.411 504.842 110.657C504.842 111.828 504.842 112.999 504.842 114.17C504.842 114.732 504.936 115.037 505.582 114.955C505.84 114.955 506.216 114.873 506.204 115.306C506.193 115.739 505.793 115.599 505.535 115.611C504.16 115.693 504.16 115.693 504.16 114.287L504.172 112.788Z" fill="#0A79BF"/>
<path d="M507.827 102.367C507.827 104.849 506.958 106.208 505.219 106.547C504.594 106.678 503.942 106.594 503.371 106.31C502.799 106.025 502.341 105.555 502.071 104.978C501.431 103.582 501.347 101.995 501.836 100.54C501.982 99.9354 502.331 99.3985 502.824 99.0176C503.317 98.6367 503.926 98.4343 504.55 98.4438C505.193 98.4031 505.832 98.5781 506.364 98.941C506.896 99.3038 507.291 99.8337 507.487 100.446C507.74 101.054 507.857 101.709 507.827 102.367Z" fill="#FEFEFE"/>
<path d="M494.2 112.835C494.234 113.437 494.142 114.039 493.929 114.603C493.898 114.703 493.835 114.791 493.751 114.854C493.667 114.917 493.565 114.952 493.46 114.955C493.352 114.954 493.247 114.917 493.164 114.848C493.08 114.78 493.023 114.685 493.001 114.58C492.575 113.448 492.575 112.199 493.001 111.067C493.225 110.528 493.612 110.622 493.847 111.067C494.117 111.616 494.239 112.225 494.2 112.835Z" fill="#F8FBFC"/>
<path d="M510.575 112.414C510.592 112.483 510.592 112.556 510.575 112.625C510.493 112.976 510.974 113.351 510.575 113.667C510.531 113.695 510.48 113.71 510.428 113.71C510.376 113.71 510.325 113.695 510.281 113.667C509.882 113.339 510.281 112.965 510.281 112.613C510.293 112.484 510.34 112.274 510.575 112.414Z" fill="#F8FBFC"/>
<path d="M510.574 112.414L510.199 112.613C510.199 112.355 510.071 111.969 510.352 111.91C510.633 111.851 510.574 112.191 510.574 112.414Z" fill="#8CC0E1"/>
<path d="M501.223 111.7C501.364 111.419 500.964 110.845 501.657 110.857C502.092 110.857 502.245 111.231 502.256 111.594C502.268 111.957 502.127 112.496 501.599 112.508C501.07 112.519 501.352 111.981 501.223 111.7Z" fill="#E2EFF7"/>
<path d="M188.841 142.04C190.78 143.47 192.136 145.549 192.66 147.895H188.536C188.023 146.603 187.109 145.507 185.928 144.769C184.647 143.963 183.154 143.556 181.64 143.598C180.208 143.573 178.798 143.942 177.563 144.663C176.351 145.382 175.368 146.43 174.732 147.685C174.033 149.117 173.687 150.694 173.721 152.287C173.675 153.939 174.03 155.578 174.755 157.064C175.394 158.343 176.406 159.401 177.657 160.097C178.994 160.819 180.496 161.182 182.016 161.151C183.923 161.189 185.777 160.522 187.22 159.278C188.709 157.952 189.644 156.117 189.84 154.137H180.923V151.256H193.153V155.003C192.887 156.746 192.233 158.406 191.238 159.863C190.227 161.34 188.867 162.546 187.279 163.376C185.538 164.275 183.6 164.726 181.64 164.688C179.444 164.73 177.278 164.184 175.366 163.107C173.579 162.074 172.124 160.555 171.172 158.727C170.198 156.732 169.691 154.541 169.691 152.322C169.691 150.102 170.198 147.912 171.172 145.916C172.117 144.094 173.569 142.581 175.354 141.56C177.26 140.49 179.418 139.948 181.604 139.991C184.176 139.873 186.716 140.592 188.841 142.04Z" fill="#74A5E8"/>
<path d="M209.891 164.36L203.829 154.676H201.033V164.36H197.109V140.12H205.686C207.976 139.958 210.24 140.684 212.006 142.146C212.724 142.836 213.286 143.669 213.657 144.592C214.028 145.514 214.198 146.504 214.156 147.497C214.233 149.203 213.663 150.876 212.558 152.181C211.318 153.491 209.654 154.32 207.859 154.523L214.238 164.372L209.891 164.36ZM201.033 151.9H205.368C208.54 151.9 210.126 150.495 210.126 147.708C210.156 147.138 210.067 146.568 209.865 146.034C209.663 145.5 209.352 145.013 208.952 144.605C207.95 143.758 206.655 143.337 205.345 143.434H201.01L201.033 151.9Z" fill="#74A5E8"/>
<path d="M235.997 142.145C237.992 143.681 239.401 145.85 239.991 148.293H235.832C235.301 146.871 234.346 145.645 233.095 144.78C231.728 143.892 230.121 143.443 228.49 143.492C227.122 143.474 225.778 143.844 224.613 144.558C223.446 145.3 222.514 146.355 221.922 147.602C221.246 149.045 220.913 150.624 220.947 152.216C220.914 153.797 221.248 155.364 221.922 156.795C222.514 158.042 223.446 159.097 224.613 159.839C225.775 160.559 227.121 160.928 228.49 160.905C230.121 160.954 231.728 160.505 233.095 159.617C234.336 158.767 235.29 157.562 235.832 156.162H239.991C239.403 158.603 237.993 160.769 235.997 162.298C233.84 163.855 231.221 164.647 228.56 164.547C226.422 164.587 224.314 164.044 222.463 162.978C220.703 161.95 219.279 160.437 218.363 158.621C217.411 156.619 216.918 154.431 216.918 152.216C216.918 150.001 217.411 147.813 218.363 145.811C219.283 143.991 220.705 142.472 222.463 141.431C224.31 140.354 226.42 139.807 228.56 139.85C231.228 139.759 233.848 140.568 235.997 142.145Z" fill="#74A5E8"/>
</svg>
