<svg width="240" height="205" viewBox="0 0 240 205" fill="none" xmlns="http://www.w3.org/2000/svg">
<path d="M27.487 146.654L94.6225 146.476V164.535L23.9003 164.535L23.8917 164.535C20.9192 164.56 17.9694 163.959 15.21 162.764C12.4503 161.569 9.93324 159.801 7.80421 157.559C5.67505 155.317 3.97609 152.645 2.8074 149.693C1.63913 146.742 1.02449 143.571 1 140.363V26.2145C1.00552 19.7071 3.42419 13.4805 7.70603 8.89833C11.9857 4.3185 17.7736 1.75685 23.7947 1.75098H177.991C184.008 1.75098 189.793 4.30827 194.07 8.88505C198.349 13.4641 200.764 19.6883 200.764 26.1914V62.2512H184.186V29.2122C184.189 27.9702 183.964 26.7384 183.52 25.5868C183.077 24.435 182.424 23.384 181.596 22.4955C180.768 21.6068 179.78 20.8978 178.688 20.4127C177.595 19.9274 176.421 19.6766 175.234 19.6766H26.5936C24.1909 19.6766 21.9015 20.6987 20.2246 22.4931C18.5499 24.2853 17.6198 26.7024 17.6198 29.2097V137.121C17.6198 139.629 18.5499 142.046 20.2246 143.838C21.9015 145.632 24.1909 146.654 26.5936 146.654H27.4843H27.487ZM180.366 78.6395H180.368C191.929 78.613 203.244 82.2572 212.881 89.1199C222.518 95.9832 230.046 105.759 234.502 117.218C238.957 128.678 240.137 141.298 237.889 153.478C235.64 165.658 230.067 176.843 221.884 185.618C213.702 194.393 203.28 200.365 191.94 202.789C180.601 205.212 168.845 203.982 158.155 199.251C147.464 194.52 138.314 186.495 131.872 176.183C125.429 165.87 121.986 153.737 121.986 141.32V141.318C121.97 133.084 123.471 124.929 126.403 117.32C129.334 109.711 133.638 102.8 139.064 96.9812C144.49 91.1621 150.932 86.5494 158.019 83.4035C165.105 80.2576 172.699 78.6395 180.366 78.6395ZM196.77 120.349L173.769 145.007L165.169 135.825L165.169 135.825C163.636 134.19 161.545 133.258 159.35 133.258C157.154 133.258 155.063 134.19 153.53 135.825L153.526 135.83C152.006 137.474 151.164 139.68 151.164 141.967C151.164 144.253 152.006 146.459 153.526 148.103L153.529 148.107L167.949 163.539C168.707 164.351 169.61 164.999 170.609 165.443C171.609 165.887 172.684 166.117 173.77 166.117C174.857 166.117 175.932 165.887 176.931 165.443C177.931 164.999 178.834 164.351 179.592 163.539L208.41 132.654C208.41 132.654 208.41 132.654 208.41 132.654C209.17 131.843 209.771 130.884 210.181 129.832C210.59 128.78 210.801 127.654 210.804 126.518C210.806 125.382 210.599 124.256 210.194 123.202C209.788 122.149 209.191 121.187 208.434 120.373C207.676 119.558 206.772 118.908 205.772 118.462C204.772 118.016 203.696 117.784 202.608 117.782C201.52 117.779 200.443 118.006 199.441 118.448C198.439 118.89 197.533 119.536 196.772 120.347L196.77 120.349ZM48.8007 52.8814H118.48V62.2285H48.8007V52.8814ZM48.8007 78.4579H94.5801V87.8051H48.8007V78.4579ZM48.8007 104.034H70.6798V113.382H48.8007V104.034Z" stroke="#5A98FD" stroke-width="2"/>
</svg>
