<svg width="240" height="288" viewBox="0 0 240 288" fill="none" xmlns="http://www.w3.org/2000/svg">
<mask id="path-1-inside-1_457_4846" fill="white">
<path d="M121.081 76.6871C126.721 76.6871 132.235 74.8941 136.924 71.535C141.614 68.1759 145.268 63.4016 147.425 57.8161C149.582 52.2305 150.145 46.0848 149.043 40.1564C147.94 34.228 145.222 28.7832 141.231 24.511C137.241 20.2387 132.158 17.3309 126.625 16.1554C121.092 14.98 115.359 15.5897 110.149 17.9074C104.94 20.2251 100.489 24.1467 97.3596 29.1761C94.2303 34.2054 92.5631 40.1165 92.569 46.1616C92.5769 54.2604 95.5844 62.0246 100.931 67.7483C106.277 73.472 113.524 76.6871 121.081 76.6871ZM121.081 91.9658C112.62 91.9721 104.347 89.2884 97.3092 84.2543C90.2715 79.2202 84.7852 72.0619 81.5445 63.6851C78.3038 55.3084 77.4543 46.0896 79.1036 37.1953C80.7528 28.301 84.8267 20.1308 90.8097 13.7186C96.7927 7.30635 104.416 2.94023 112.715 1.17265C121.014 -0.59493 129.615 0.315473 137.431 3.78866C145.247 7.26186 151.927 13.1417 156.624 20.6844C161.321 28.227 163.825 37.0933 163.819 46.1616C163.811 58.307 159.306 69.9526 151.293 78.5407C143.279 87.1288 132.413 91.9573 121.081 91.9658ZM121.081 61.4403C123.901 61.4403 126.657 60.5442 129.001 58.8654C131.346 57.1865 133.173 54.8003 134.252 52.0085C135.331 49.2167 135.613 46.1446 135.063 43.1809C134.513 40.2171 133.155 37.4947 131.161 35.3579C129.168 33.2211 126.628 31.766 123.862 31.1764C121.097 30.5869 118.23 30.8895 115.625 32.0459C113.021 33.2023 110.794 35.1606 109.228 37.6732C107.661 40.1858 106.825 43.1398 106.825 46.1616C106.825 50.2138 108.327 54.1 111 56.9653C113.674 59.8306 117.3 61.4403 121.081 61.4403ZM42.703 158.163C45.5225 158.163 48.2788 157.267 50.6232 155.588C52.9676 153.909 54.7948 151.523 55.8738 148.731C56.9528 145.939 57.2351 142.867 56.685 139.903C56.135 136.94 54.7772 134.217 52.7835 132.081C50.7897 129.944 48.2496 128.489 45.4842 127.899C42.7188 127.31 39.8524 127.612 37.2475 128.769C34.6425 129.925 32.416 131.883 30.8496 134.396C29.2831 136.908 28.447 139.862 28.447 142.884C28.447 144.891 28.8158 146.877 29.5322 148.731C30.2486 150.585 31.2987 152.269 32.6225 153.688C33.9463 155.107 35.5178 156.232 37.2475 157C38.9771 157.768 40.8309 158.163 42.703 158.163ZM197.073 158.163C199.894 158.169 202.653 157.279 205.001 155.604C207.35 153.929 209.181 151.545 210.265 148.753C211.349 145.962 211.635 142.889 211.088 139.923C210.542 136.957 209.186 134.232 207.194 132.092C205.201 129.952 202.661 128.494 199.895 127.901C197.129 127.309 194.261 127.61 191.654 128.765C189.048 129.921 186.819 131.879 185.251 134.392C183.684 136.906 182.847 139.861 182.847 142.884C182.847 146.931 184.345 150.812 187.012 153.677C189.679 156.541 193.297 158.154 197.073 158.163ZM169.426 177.821C164.926 173.755 161.257 168.738 158.65 163.083C156.042 157.428 154.552 151.257 154.272 144.956C153.992 138.655 154.929 132.36 157.023 126.465C159.117 120.57 162.324 115.202 166.444 110.697L135.039 77.0387L145.119 66.2349L178.254 101.747C184.106 98.6516 190.548 97.0542 197.073 97.08C203.345 97.055 209.545 98.5086 215.234 101.338C220.923 104.167 225.962 108.303 229.994 113.452C234.025 118.601 236.951 124.637 238.563 131.133C240.175 137.629 240.434 144.426 239.323 151.041C238.211 157.656 235.755 163.928 232.13 169.413C228.504 174.898 223.797 179.461 218.343 182.779C212.888 186.097 206.819 188.088 200.567 188.612C194.314 189.137 188.03 188.18 182.161 185.812L155.319 214.579C160.108 221.39 163.029 229.499 163.754 237.992C164.478 246.485 162.977 255.027 159.419 262.655C155.862 270.284 150.389 276.698 143.616 281.176C136.843 285.653 129.039 288.016 121.081 288C113.235 287.998 105.54 285.682 98.8398 281.307C92.1393 276.932 86.691 270.665 83.0912 263.193C79.4915 255.721 77.8789 247.332 78.4301 238.944C78.9814 230.555 81.6751 222.491 86.2165 215.634L58.2116 185.716C51.5714 188.48 44.3919 189.421 37.3258 188.454C30.2598 187.488 23.5312 184.643 17.752 180.18C11.9728 175.717 7.32619 169.776 4.23467 162.898C1.14315 156.02 -0.295229 148.423 0.0503193 140.797C0.395868 133.172 2.51438 125.76 6.21324 119.235C9.9121 112.711 15.074 107.28 21.2296 103.438C27.3852 99.596 34.3392 97.4638 41.4594 97.2354C48.5797 97.007 55.6403 98.6896 61.9992 102.13L95.4023 66.3308L105.483 77.0387L73.571 111.24C77.5713 115.716 80.6822 121.016 82.7154 126.819C84.7486 132.621 85.6618 138.806 85.3997 144.998C85.1376 151.19 83.7056 157.26 81.1905 162.842C78.6754 168.423 75.1295 173.399 70.7675 177.469L96.2971 204.894C103.372 199.511 111.806 196.559 120.482 196.428C129.158 196.297 137.666 198.993 144.881 204.159L169.426 177.821ZM144.582 224.903L137.216 216.976C131.334 212.624 124.147 210.784 117.065 211.817C109.982 212.851 103.516 216.683 98.9338 222.563C94.3519 228.442 91.9851 235.945 92.2978 243.598C92.6105 251.251 95.5801 258.503 100.624 263.93C105.668 269.358 112.422 272.57 119.562 272.936C126.701 273.302 133.711 270.796 139.215 265.909C144.72 261.022 148.322 254.107 149.315 246.521C150.307 238.935 148.62 231.225 144.582 224.903ZM121.081 257.443C118.261 257.443 115.505 256.547 113.161 254.868C110.816 253.189 108.989 250.803 107.91 248.011C106.831 245.219 106.549 242.147 107.099 239.183C107.649 236.219 109.007 233.497 111 231.36C112.994 229.223 115.534 227.768 118.3 227.179C121.065 226.589 123.932 226.892 126.536 228.048C129.141 229.205 131.368 231.163 132.934 233.676C134.501 236.188 135.337 239.142 135.337 242.164C135.337 246.216 133.835 250.102 131.161 252.968C128.488 255.833 124.862 257.443 121.081 257.443ZM42.703 173.442C48.3421 173.442 53.8546 171.649 58.5434 168.292C63.2321 164.934 66.8866 160.162 69.0446 154.578C71.2026 148.994 71.7672 142.85 70.6671 136.923C69.5669 130.995 66.8514 125.55 62.864 121.277C58.8765 117.003 53.7962 114.093 48.2654 112.914C42.7346 111.735 37.0018 112.34 31.7919 114.653C26.5821 116.966 22.1291 120.882 18.9962 125.907C15.8633 130.933 14.1911 136.841 14.1911 142.884C14.1911 150.989 17.195 158.761 22.542 164.492C25.1896 167.329 28.3327 169.58 31.7919 171.116C35.2512 172.651 38.9587 173.442 42.703 173.442ZM197.073 173.442C202.713 173.448 208.229 171.661 212.921 168.307C217.614 164.953 221.273 160.183 223.436 154.6C225.598 149.017 226.167 142.872 225.07 136.942C223.974 131.013 221.261 125.565 217.274 121.288C213.288 117.011 208.208 114.098 202.676 112.916C197.145 111.735 191.41 112.338 186.199 114.65C180.987 116.962 176.532 120.878 173.398 125.904C170.264 130.93 168.591 136.839 168.591 142.884C168.591 150.983 171.591 158.751 176.931 164.48C182.272 170.21 189.516 173.433 197.073 173.442Z"/>
</mask>
<path d="M121.081 76.6871C126.721 76.6871 132.235 74.8941 136.924 71.535C141.614 68.1759 145.268 63.4016 147.425 57.8161C149.582 52.2305 150.145 46.0848 149.043 40.1564C147.94 34.228 145.222 28.7832 141.231 24.511C137.241 20.2387 132.158 17.3309 126.625 16.1554C121.092 14.98 115.359 15.5897 110.149 17.9074C104.94 20.2251 100.489 24.1467 97.3596 29.1761C94.2303 34.2054 92.5631 40.1165 92.569 46.1616C92.5769 54.2604 95.5844 62.0246 100.931 67.7483C106.277 73.472 113.524 76.6871 121.081 76.6871ZM121.081 91.9658C112.62 91.9721 104.347 89.2884 97.3092 84.2543C90.2715 79.2202 84.7852 72.0619 81.5445 63.6851C78.3038 55.3084 77.4543 46.0896 79.1036 37.1953C80.7528 28.301 84.8267 20.1308 90.8097 13.7186C96.7927 7.30635 104.416 2.94023 112.715 1.17265C121.014 -0.59493 129.615 0.315473 137.431 3.78866C145.247 7.26186 151.927 13.1417 156.624 20.6844C161.321 28.227 163.825 37.0933 163.819 46.1616C163.811 58.307 159.306 69.9526 151.293 78.5407C143.279 87.1288 132.413 91.9573 121.081 91.9658ZM121.081 61.4403C123.901 61.4403 126.657 60.5442 129.001 58.8654C131.346 57.1865 133.173 54.8003 134.252 52.0085C135.331 49.2167 135.613 46.1446 135.063 43.1809C134.513 40.2171 133.155 37.4947 131.161 35.3579C129.168 33.2211 126.628 31.766 123.862 31.1764C121.097 30.5869 118.23 30.8895 115.625 32.0459C113.021 33.2023 110.794 35.1606 109.228 37.6732C107.661 40.1858 106.825 43.1398 106.825 46.1616C106.825 50.2138 108.327 54.1 111 56.9653C113.674 59.8306 117.3 61.4403 121.081 61.4403ZM42.703 158.163C45.5225 158.163 48.2788 157.267 50.6232 155.588C52.9676 153.909 54.7948 151.523 55.8738 148.731C56.9528 145.939 57.2351 142.867 56.685 139.903C56.135 136.94 54.7772 134.217 52.7835 132.081C50.7897 129.944 48.2496 128.489 45.4842 127.899C42.7188 127.31 39.8524 127.612 37.2475 128.769C34.6425 129.925 32.416 131.883 30.8496 134.396C29.2831 136.908 28.447 139.862 28.447 142.884C28.447 144.891 28.8158 146.877 29.5322 148.731C30.2486 150.585 31.2987 152.269 32.6225 153.688C33.9463 155.107 35.5178 156.232 37.2475 157C38.9771 157.768 40.8309 158.163 42.703 158.163ZM197.073 158.163C199.894 158.169 202.653 157.279 205.001 155.604C207.35 153.929 209.181 151.545 210.265 148.753C211.349 145.962 211.635 142.889 211.088 139.923C210.542 136.957 209.186 134.232 207.194 132.092C205.201 129.952 202.661 128.494 199.895 127.901C197.129 127.309 194.261 127.61 191.654 128.765C189.048 129.921 186.819 131.879 185.251 134.392C183.684 136.906 182.847 139.861 182.847 142.884C182.847 146.931 184.345 150.812 187.012 153.677C189.679 156.541 193.297 158.154 197.073 158.163ZM169.426 177.821C164.926 173.755 161.257 168.738 158.65 163.083C156.042 157.428 154.552 151.257 154.272 144.956C153.992 138.655 154.929 132.36 157.023 126.465C159.117 120.57 162.324 115.202 166.444 110.697L135.039 77.0387L145.119 66.2349L178.254 101.747C184.106 98.6516 190.548 97.0542 197.073 97.08C203.345 97.055 209.545 98.5086 215.234 101.338C220.923 104.167 225.962 108.303 229.994 113.452C234.025 118.601 236.951 124.637 238.563 131.133C240.175 137.629 240.434 144.426 239.323 151.041C238.211 157.656 235.755 163.928 232.13 169.413C228.504 174.898 223.797 179.461 218.343 182.779C212.888 186.097 206.819 188.088 200.567 188.612C194.314 189.137 188.03 188.18 182.161 185.812L155.319 214.579C160.108 221.39 163.029 229.499 163.754 237.992C164.478 246.485 162.977 255.027 159.419 262.655C155.862 270.284 150.389 276.698 143.616 281.176C136.843 285.653 129.039 288.016 121.081 288C113.235 287.998 105.54 285.682 98.8398 281.307C92.1393 276.932 86.691 270.665 83.0912 263.193C79.4915 255.721 77.8789 247.332 78.4301 238.944C78.9814 230.555 81.6751 222.491 86.2165 215.634L58.2116 185.716C51.5714 188.48 44.3919 189.421 37.3258 188.454C30.2598 187.488 23.5312 184.643 17.752 180.18C11.9728 175.717 7.32619 169.776 4.23467 162.898C1.14315 156.02 -0.295229 148.423 0.0503193 140.797C0.395868 133.172 2.51438 125.76 6.21324 119.235C9.9121 112.711 15.074 107.28 21.2296 103.438C27.3852 99.596 34.3392 97.4638 41.4594 97.2354C48.5797 97.007 55.6403 98.6896 61.9992 102.13L95.4023 66.3308L105.483 77.0387L73.571 111.24C77.5713 115.716 80.6822 121.016 82.7154 126.819C84.7486 132.621 85.6618 138.806 85.3997 144.998C85.1376 151.19 83.7056 157.26 81.1905 162.842C78.6754 168.423 75.1295 173.399 70.7675 177.469L96.2971 204.894C103.372 199.511 111.806 196.559 120.482 196.428C129.158 196.297 137.666 198.993 144.881 204.159L169.426 177.821ZM144.582 224.903L137.216 216.976C131.334 212.624 124.147 210.784 117.065 211.817C109.982 212.851 103.516 216.683 98.9338 222.563C94.3519 228.442 91.9851 235.945 92.2978 243.598C92.6105 251.251 95.5801 258.503 100.624 263.93C105.668 269.358 112.422 272.57 119.562 272.936C126.701 273.302 133.711 270.796 139.215 265.909C144.72 261.022 148.322 254.107 149.315 246.521C150.307 238.935 148.62 231.225 144.582 224.903ZM121.081 257.443C118.261 257.443 115.505 256.547 113.161 254.868C110.816 253.189 108.989 250.803 107.91 248.011C106.831 245.219 106.549 242.147 107.099 239.183C107.649 236.219 109.007 233.497 111 231.36C112.994 229.223 115.534 227.768 118.3 227.179C121.065 226.589 123.932 226.892 126.536 228.048C129.141 229.205 131.368 231.163 132.934 233.676C134.501 236.188 135.337 239.142 135.337 242.164C135.337 246.216 133.835 250.102 131.161 252.968C128.488 255.833 124.862 257.443 121.081 257.443ZM42.703 173.442C48.3421 173.442 53.8546 171.649 58.5434 168.292C63.2321 164.934 66.8866 160.162 69.0446 154.578C71.2026 148.994 71.7672 142.85 70.6671 136.923C69.5669 130.995 66.8514 125.55 62.864 121.277C58.8765 117.003 53.7962 114.093 48.2654 112.914C42.7346 111.735 37.0018 112.34 31.7919 114.653C26.5821 116.966 22.1291 120.882 18.9962 125.907C15.8633 130.933 14.1911 136.841 14.1911 142.884C14.1911 150.989 17.195 158.761 22.542 164.492C25.1896 167.329 28.3327 169.58 31.7919 171.116C35.2512 172.651 38.9587 173.442 42.703 173.442ZM197.073 173.442C202.713 173.448 208.229 171.661 212.921 168.307C217.614 164.953 221.273 160.183 223.436 154.6C225.598 149.017 226.167 142.872 225.07 136.942C223.974 131.013 221.261 125.565 217.274 121.288C213.288 117.011 208.208 114.098 202.676 112.916C197.145 111.735 191.41 112.338 186.199 114.65C180.987 116.962 176.532 120.878 173.398 125.904C170.264 130.93 168.591 136.839 168.591 142.884C168.591 150.983 171.591 158.751 176.931 164.48C182.272 170.21 189.516 173.433 197.073 173.442Z" stroke="#5A98FD" stroke-width="4" mask="url(#path-1-inside-1_457_4846)"/>
</svg>
