<svg width="240" height="219" viewBox="0 0 240 219" fill="none" xmlns="http://www.w3.org/2000/svg">
<path d="M237.728 204.459L238.014 204.971H238.082C238.667 206.198 238.983 207.559 238.999 208.949C239.018 210.536 238.645 212.096 237.922 213.472C237.2 214.847 236.156 215.985 234.903 216.777C233.652 217.568 232.235 217.988 230.793 218H9.15149C7.71309 217.986 6.29918 217.564 5.05292 216.77C3.80464 215.976 2.7667 214.835 2.05184 213.459C1.33683 212.081 0.972997 210.521 1.00156 208.937C1.03012 207.354 1.44992 205.81 2.21349 204.465L2.21688 204.459L112.929 6.17492L112.931 6.17186C113.665 4.84604 114.704 3.7562 115.938 3.00281C117.172 2.24981 118.562 1.85693 119.972 1.85693C121.382 1.85693 122.772 2.24981 124.006 3.00281C125.241 3.7562 126.279 4.84604 127.013 6.17186L127.015 6.17492L237.728 204.459ZM24.6713 197.739L23.8409 199.226H25.5444H214.4H216.104L215.273 197.739L120.845 28.5916L119.972 27.0276L119.099 28.5916L24.6713 197.739ZM129.851 92.3284L129.851 92.3371V92.3457V133.287V133.296L129.851 133.305C129.891 135.533 129.214 137.7 127.945 139.444C126.68 141.183 124.907 142.39 122.932 142.882C121.679 143.162 120.385 143.14 119.141 142.818C117.894 142.494 116.724 141.876 115.717 141.002C114.711 140.128 113.894 139.02 113.33 137.755C112.766 136.491 112.471 135.104 112.468 133.697V91.9597C112.471 90.5528 112.766 89.1664 113.33 87.9018C113.894 86.6373 114.711 85.5293 115.717 84.6551C116.724 83.7812 117.894 83.1627 119.141 82.8394C120.386 82.517 121.68 82.495 122.933 82.7748C124.906 83.2625 126.678 84.4654 127.944 86.2006C129.212 87.94 129.89 90.1036 129.851 92.3284ZM126.022 175.378C124.586 176.402 122.907 176.942 121.196 176.937C118.909 176.932 116.701 175.954 115.063 174.195C113.423 172.432 112.491 170.031 112.491 167.514C112.491 165.635 113.011 163.802 113.98 162.25C114.948 160.698 116.317 159.5 117.905 158.796C119.492 158.093 121.233 157.911 122.912 158.271C124.592 158.631 126.145 159.518 127.369 160.834C128.594 162.15 129.435 163.834 129.774 165.677C130.113 167.519 129.935 169.428 129.263 171.158C128.591 172.887 127.46 174.354 126.022 175.378Z" stroke="#5A98FD" stroke-width="2"/>
</svg>
