<svg width="200" height="200" viewBox="0 0 200 200" fill="none" xmlns="http://www.w3.org/2000/svg">
<path d="M161.45 95.8C161.45 87.15 161.5 78.65 161.45 70.15C161.45 67.3 162.05 64.7 163.7 62.35C166.5 58.3 170.5 56.5 175.3 57.15C180.1 57.75 183.55 60.5 185.2 65.1C185.75 66.55 186 68.2 186 69.8C186.05 93.85 186.05 117.9 186 141.95C186 143.25 185.4 144.7 184.65 145.75C181.5 149.95 178.1 153.95 174.9 158.1C174.25 158.95 173.95 160.05 173.3 161.45C174.9 161.45 175.9 161.4 176.9 161.45C178.8 161.6 179.9 162.6 179.9 164.5C179.95 172.7 179.95 180.85 179.9 189.05C179.9 191.2 178.65 192.1 176.1 192.1C167.65 192.1 159.2 192.1 150.75 192.1C143.4 192.1 136.05 192.1 128.7 192.1C125.65 192.1 124.65 191.15 124.65 188.1C124.65 180.7 124.65 173.25 124.65 165.85C124.65 162.25 125.45 161.4 129 161.4C129.5 161.4 130 161.4 130.8 161.4C130.8 160.65 130.8 159.95 130.8 159.3C130.8 153.35 130.75 147.4 130.85 141.45C130.9 140.05 131.3 138.55 131.95 137.3C138.15 126.4 144.5 115.6 150.65 104.7C153.1 100.35 155.95 96.55 161.45 95.8ZM150.7 141.45C151.1 140.75 151.4 140.25 151.65 139.75C157.2 130.15 162.7 120.6 168.25 111C169.6 108.7 169.35 106.4 167.85 104.35C166.45 102.4 164.35 101.55 161.95 102C159.7 102.4 158.25 103.85 157.15 105.75C151.6 115.4 146.2 125.15 140.4 134.6C137.75 138.95 136.45 143.25 136.8 148.3C137.1 152.6 136.85 156.95 136.85 161.35C147.2 161.35 157.3 161.35 167.7 161.35C166.65 157.8 168.85 155.6 170.75 153.25C173.5 149.9 176.25 146.5 178.9 143.05C179.4 142.4 179.75 141.45 179.75 140.65C179.8 117.05 179.8 93.45 179.8 69.85C179.8 65.95 177.15 63.15 173.65 63.15C170.15 63.15 167.55 65.95 167.55 69.85C167.55 78.25 167.55 86.6 167.5 95C167.5 96.15 167.8 96.85 168.9 97.35C171.25 98.4 172.95 100.25 174 102.6C175.95 106.8 175.5 110.85 173.15 114.85C167.65 124.25 162.25 133.65 156.85 143.05C156.55 143.55 156.25 144 155.9 144.5C154.2 143.45 152.5 142.5 150.7 141.45ZM173.55 185.95C173.55 179.85 173.55 173.8 173.55 167.7C159.25 167.7 145.05 167.7 130.85 167.7C130.85 173.85 130.85 179.9 130.85 185.95C145.15 185.95 159.3 185.95 173.55 185.95Z" fill="#861BB9"/>
<path d="M69.3004 161.35C69.8004 161.4 70.0504 161.45 70.3004 161.45C75.0004 161.55 75.4504 162 75.4504 166.65C75.4504 173.75 75.4504 180.85 75.4504 187.95C75.4504 191.25 74.5504 192.15 71.2504 192.15C55.6504 192.15 40.0504 192.15 24.4504 192.15C21.1504 192.15 20.2504 191.25 20.2504 187.95C20.2504 180.7 20.2504 173.5 20.2504 166.25C20.2504 162.15 20.9004 161.5 25.0004 161.45C25.4004 161.45 25.7504 161.45 26.7004 161.45C26.2004 160.2 26.0004 159.1 25.4004 158.3C22.2004 154.15 18.8004 150.15 15.6504 145.95C14.8004 144.8 14.1504 143.2 14.1504 141.8C14.0504 117.9 14.1004 93.95 14.1004 70.05C14.1004 63.1 18.6504 57.75 25.0004 57.1C32.3004 56.35 38.5504 61.9 38.6504 69.4C38.7504 77.45 38.6504 85.5 38.6504 93.6C38.6504 94.3 38.6504 95 38.6504 95.9C44.4504 96.65 47.2504 100.8 49.8504 105.4C55.7504 115.8 61.7504 126.15 67.8004 136.45C68.9004 138.35 69.4504 140.2 69.4004 142.4C69.2504 148.65 69.3004 154.9 69.3004 161.35ZM63.2004 161.3C63.2004 156.85 62.9504 152.5 63.2504 148.15C63.6504 143.1 62.2504 138.8 59.6004 134.5C53.7504 124.95 48.3504 115.2 42.7004 105.5C40.6504 101.95 37.2504 100.85 34.1004 102.6C30.8004 104.45 30.0504 107.9 32.1004 111.55C33.8004 114.55 35.5504 117.55 37.3004 120.5C41.3004 127.4 45.2504 134.3 49.3504 141.4C47.5504 142.45 45.8504 143.4 44.0504 144.45C43.6504 143.8 43.2504 143.2 42.9004 142.6C38.4004 134.85 33.9504 127.1 29.5004 119.35C28.2504 117.2 26.9504 115.05 25.9004 112.8C23.3004 106.9 25.6004 100.25 31.3004 97.2C32.2504 96.7 32.5004 96.1 32.5004 95.15C32.4504 86.7 32.5004 78.25 32.4504 69.8C32.4504 65.95 29.8004 63.1 26.3004 63.15C22.8004 63.15 20.2004 66 20.2004 69.9C20.2004 93.45 20.2004 117 20.2504 140.5C20.2504 141.35 20.6504 142.35 21.1504 143.05C23.6504 146.3 26.2004 149.45 28.8004 152.65C30.8504 155.15 33.4004 157.45 32.3504 161.3C42.7004 161.3 52.8004 161.3 63.2004 161.3ZM26.4004 185.85C40.8004 185.85 55.0004 185.85 69.1504 185.85C69.1504 179.7 69.1504 173.65 69.1504 167.65C54.8004 167.65 40.6504 167.65 26.4004 167.65C26.4004 173.75 26.4004 179.75 26.4004 185.85Z" fill="#861BB9"/>
<path d="M143 50.95C143 52.85 143.05 54.8 143 56.7C142.95 58.7 142.05 59.75 140.05 60.1C137.95 60.45 135.9 60.75 133.8 60.95C132.55 61.1 132.1 61.75 131.5 62.8C130 65.4 130.45 67.5 132.5 69.55C133.5 70.55 134.2 71.8 135 72.95C136.05 74.45 135.85 75.85 134.65 77.1C131.9 79.95 129.05 82.7 126.25 85.5C124.9 86.8 123.4 86.85 121.9 85.75C120.15 84.45 118.4 83.2 116.7 81.85C115.85 81.15 115.15 81.2 114.1 81.5C111.2 82.3 109.7 83.85 109.8 87C109.85 88.3 109.45 89.65 109.25 91C108.95 92.85 107.85 93.9 106 93.9C102.05 93.95 98.0502 93.95 94.1002 93.9C92.1002 93.85 91.1003 92.9 90.8003 90.85C90.4503 88.7 90.2503 86.55 89.8003 84.4C89.6503 83.7 88.9503 83 88.3003 82.55C85.7503 80.8 83.4503 81.1 81.3003 83.4C80.4003 84.35 79.2002 85.05 78.1002 85.8C76.5502 86.9 75.1002 86.7 73.7502 85.4C70.9502 82.65 68.2002 79.9 65.4502 77.15C64.1502 75.85 64.0002 74.35 65.1002 72.85C66.4002 71.05 67.8503 69.3 69.0503 67.45C69.4503 66.85 69.5002 65.85 69.3502 65.1C68.8002 62.05 67.0002 60.6 63.8002 60.7C62.5002 60.75 61.1502 60.4 59.8002 60.15C58.0002 59.8 57.0002 58.7 57.0002 56.8C57.0002 52.9 56.9502 49 57.0002 45.1C57.0502 43.1 57.9503 42.05 59.9503 41.7C62.1003 41.35 64.2503 41.05 66.4003 40.8C67.5003 40.7 67.9002 40.1 68.4502 39.2C70.0002 36.55 69.7002 34.4 67.5002 32.3C66.5502 31.4 65.8502 30.2 65.1002 29.1C64.0002 27.6 64.1003 26.05 65.4003 24.75C68.1003 21.95 70.9002 19.2 73.7002 16.5C75.2002 15.05 76.6002 15.05 78.3502 16.3C80.0502 17.5 81.7002 18.9 83.4502 20.05C84.0502 20.45 85.0503 20.45 85.8003 20.35C89.1003 19.8 90.3503 17.7 90.3003 14.5C90.3003 13.3 90.5503 12.1 90.8003 10.9C91.1503 9.09999 92.2502 8.09999 94.1002 8.04999C98.0002 8.04999 101.9 7.99999 105.8 8.04999C107.75 8.04999 108.85 9.04999 109.2 11C109.55 13.1 109.85 15.15 110.1 17.25C110.25 18.35 110.8 18.9 111.8 19.45C114.55 21.05 116.55 20.35 118.9 18.45C124.1 14.25 124.2 14.4 129 19.15C130.75 20.9 132.55 22.65 134.3 24.45C136 26.15 136.1 27.4 134.7 29.4C133.55 31 132.4 32.65 131.15 34.15C130.3 35.15 130.35 36 130.7 37.25C131.5 40.05 133.15 41.25 136 41.2C137.3 41.15 138.65 41.55 140 41.75C142.05 42.1 142.95 43.15 143 45.3C143.05 47.1 143 49 143 50.95ZM123.55 22.4C121.75 23.75 120 24.95 118.35 26.3C116.7 27.65 115.2 27.8 113.25 26.8C111.3 25.75 109.2 24.9 107.1 24.2C105.5 23.65 104.7 22.75 104.45 21.1C104.15 18.75 103.75 16.45 103.4 14.1C101.05 14.1 98.8502 14.1 96.5002 14.1C96.1502 16.55 95.7502 18.95 95.4002 21.35C95.2002 22.85 94.4002 23.7 92.9502 24.2C90.7502 24.95 88.5502 25.85 86.4502 26.95C84.7502 27.8 83.3502 27.75 81.8502 26.6C80.0502 25.2 78.2002 23.85 76.5002 22.55C74.7502 24.25 73.1502 25.75 71.5002 27.35C72.9502 29.3 74.3002 31.2 75.7502 33.05C76.7002 34.3 76.8003 35.55 76.1503 36.95C75.1003 39.2 74.1503 41.5 73.3003 43.85C72.7503 45.35 71.8502 46.15 70.2502 46.35C67.8502 46.65 65.5003 47.1 63.2003 47.45C63.2003 49.85 63.2003 52.1 63.2003 54.35C65.6503 54.75 67.9503 55.15 70.3003 55.45C71.8503 55.65 72.7503 56.5 73.3003 58C74.1003 60.2 74.9502 62.4 76.0002 64.55C76.8002 66.2 76.6503 67.55 75.5503 69C74.1503 70.8 72.8002 72.65 71.6002 74.3C73.2502 76.1 74.7502 77.7 76.3502 79.4C78.3002 77.95 80.2002 76.55 82.1002 75.1C83.3502 74.15 84.5502 74 86.0002 74.7C88.2502 75.75 90.5502 76.75 92.8502 77.6C94.4002 78.2 95.2502 79.15 95.4502 80.8C95.7002 83.1 96.1502 85.4 96.5002 87.65C98.9502 87.65 101.15 87.65 103.4 87.65C103.75 85.25 104.15 83 104.4 80.75C104.6 79.05 105.5 78.15 107 77.6C109.2 76.75 111.4 75.9 113.5 74.85C115.15 74.05 116.5 74.15 117.95 75.25C119.75 76.65 121.6 78 123.45 79.4C125.1 77.75 126.65 76.15 128.3 74.45C126.9 72.55 125.55 70.65 124.1 68.8C123.1 67.5 123.05 66.2 123.75 64.7C124.75 62.55 125.65 60.4 126.45 58.15C127.05 56.5 128.05 55.65 129.75 55.45C132.05 55.15 134.35 54.7 136.65 54.35C136.65 51.95 136.65 49.75 136.65 47.5C134.2 47.1 131.9 46.65 129.55 46.4C127.95 46.2 127.1 45.35 126.55 43.9C125.7 41.65 124.8 39.4 123.8 37.2C123.05 35.6 123.2 34.3 124.25 32.95C125.65 31.15 127 29.3 128.35 27.45C126.8 25.65 125.25 24.1 123.55 22.4Z" fill="#861BB9"/>
<path d="M24.0506 14.85C25.6006 16.4 26.9506 17.8 28.5506 19.4C27.2506 20.45 25.9006 21.55 24.6006 22.6C24.7006 22.8 24.8506 23.05 24.9506 23.25C26.4506 23.25 27.9506 23.25 29.4506 23.25C33.5006 23.25 37.5006 23.2 41.5506 23.25C46.9006 23.35 50.8506 27.1 50.9006 32.45C51.0006 42.45 50.9506 52.4 50.9006 62.4C50.9006 62.6 50.8506 62.75 50.8006 63.05C48.8506 63.05 46.9006 63.05 44.8006 63.05C44.8006 62.3 44.8006 61.6 44.8006 60.95C44.8006 51.85 44.8006 42.8 44.8006 33.7C44.8006 30.3 43.9006 29.4 40.4506 29.4C35.3506 29.4 30.2006 29.4 24.5506 29.4C26.2006 30.7 27.5006 31.75 28.7006 32.65C26.8506 34.5 25.5006 35.9 23.9006 37.45C21.9006 35.45 19.6506 33.2 17.4506 30.95C12.9506 26.4 12.9506 26.15 17.4006 21.65C19.5506 19.45 21.7506 17.2 24.0506 14.85Z" fill="#861BB9"/>
<path d="M175.2 23.05C174.15 21.9 173.35 21.2 172.7 20.35C172.35 19.95 171.9 19.1 172.05 18.95C173.15 17.65 174.4 16.45 175.7 15.3C175.85 15.2 176.6 15.55 176.95 15.9C179.65 18.55 182.3 21.2 184.9 23.95C186.45 25.55 186.45 27 184.9 28.7C182.25 31.45 179.5 34.15 176.7 36.8C176.4 37.05 175.45 37.1 175.15 36.8C174 35.85 172.95 34.7 171.75 33.5C172.9 32.25 173.95 31.05 175.3 29.6C174.35 29.55 173.85 29.45 173.3 29.45C168.75 29.45 164.2 29.45 159.7 29.45C156.45 29.45 155.45 30.45 155.45 33.65C155.45 42.6 155.45 51.55 155.45 60.5C155.45 61.25 155.45 62 155.45 63.1C153.55 63.1 151.85 63.2 150.15 63.05C149.8 63 149.25 62.15 149.25 61.7C149.2 51.85 149.1 42 149.3 32.15C149.4 27.3 152.9 23.75 157.85 23.45C162.8 23.15 167.8 23.3 172.8 23.25C173.35 23.15 174.05 23.1 175.2 23.05Z" fill="#861BB9"/>
<path d="M118.45 111.3C118.45 111.9 118.45 112.5 118.45 113.15C118.45 119.4 118.4 125.7 118.5 131.95C118.5 133.35 118.15 133.85 116.7 133.85C112.35 133.85 112.35 133.9 112.35 129.6C112.35 123.55 112.35 117.45 112.35 110.85C110.8 112.2 109.65 113.25 107.85 114.8C106.8 113.5 105.7 112.25 104.75 110.9C104.5 110.55 104.65 109.65 104.95 109.35C107.75 106.45 110.6 103.6 113.45 100.75C114.7 99.5 116.05 99.45 117.3 100.7C120.15 103.55 123 106.4 125.8 109.25C125.9 109.35 126.05 109.4 126.05 109.55C126.6 111.8 124.3 112.15 123.4 113.45C123.15 113.8 121.95 113.95 121.6 113.65C120.7 112.9 120 111.85 119.25 110.9C119 111 118.75 111.15 118.45 111.3Z" fill="#861BB9"/>
<path d="M87.7 111.55C87.7 113.6 87.7 115.6 87.7 117.65C87.7 122.5 87.65 127.35 87.7 132.2C87.7 133.45 87.35 133.85 86.05 133.85C81.5 133.9 81.5 133.95 81.5 129.3C81.5 123.8 81.5 118.3 81.5 112.8C81.5 112.3 81.4 111.85 81.35 111.05C80.75 111.5 80.4 111.8 80.05 112.1C79.55 112.6 79 113.05 78.55 113.6C77.65 114.65 76.85 114.15 76.4 113.3C75.65 111.95 72.6 111.35 74.15 109.45C76.7 106.2 79.9 103.45 82.85 100.55C84 99.45 85.3 99.45 86.45 100.6C89.4 103.5 92.35 106.45 95.2 109.45C95.45 109.7 95.5 110.55 95.3 110.85C94.45 111.9 93.5 112.85 92.45 113.7C92.1 113.95 91.15 113.85 90.75 113.55C89.85 112.9 89.1 112.05 88.3 111.3C88.1 111.3 87.9 111.4 87.7 111.55Z" fill="#861BB9"/>
<path d="M44.8003 75.3C44.8003 73.35 44.8003 71.45 44.8003 69.45C46.8003 69.45 48.7503 69.45 50.7503 69.45C50.7503 71.4 50.7503 73.3 50.7503 75.3C48.9003 75.3 46.9503 75.3 44.8003 75.3Z" fill="#861BB9"/>
<path d="M44.8003 87.55C44.8003 85.6 44.8003 83.7 44.8003 81.7C46.8003 81.7 48.7503 81.7 50.7503 81.7C50.7503 83.65 50.7503 85.55 50.7503 87.55C48.9003 87.55 46.9503 87.55 44.8003 87.55Z" fill="#861BB9"/>
<path d="M161.601 47.85C163.601 47.85 165.501 47.85 167.501 47.85C167.501 49.85 167.501 51.8 167.501 53.8C165.551 53.8 163.651 53.8 161.601 53.8C161.601 51.95 161.601 50 161.601 47.85Z" fill="#861BB9"/>
<path d="M161.601 35.6C163.601 35.6 165.501 35.6 167.501 35.6C167.501 37.6 167.501 39.55 167.501 41.55C165.551 41.55 163.651 41.55 161.601 41.55C161.601 39.65 161.601 37.7 161.601 35.6Z" fill="#861BB9"/>
<path d="M149.101 72.3C149.101 69.35 149.101 69.3 151.351 69.35C155.751 69.4 155.301 68.65 155.301 72.65C155.301 76.1 155.601 75.35 151.151 75.4C149.101 75.45 149.101 75.4 149.101 72.3Z" fill="#861BB9"/>
<path d="M38.6501 38.65C38.6501 41.75 38.6501 41.75 35.5001 41.75C32.4001 41.75 32.4001 41.75 32.4501 38.35C32.4501 35.4 32.4501 35.4 35.8001 35.4C38.6501 35.45 38.6501 35.45 38.6501 38.65Z" fill="#861BB9"/>
<path d="M87.7001 143.05C87.5501 144.3 88.5001 146.15 85.7001 146C81.5501 145.8 81.5001 145.95 81.5501 142.8C81.5501 139.85 81.5501 139.85 84.8501 139.9C87.7001 139.9 87.7001 139.9 87.7001 143.05Z" fill="#861BB9"/>
<path d="M112.35 142.8C112.35 139.7 112 139.85 115.4 139.85C118.5 139.85 118.5 139.85 118.5 143C118.5 145.95 118.5 145.95 116.25 145.95C112.35 145.95 112.35 145.95 112.35 142.8Z" fill="#861BB9"/>
<path d="M152.2 81.7C155.65 81.7 155.3 81.3 155.3 84.9C155.3 88.25 155.45 87.65 151.55 87.7C149.05 87.7 149.05 87.7 149.05 84.4C149.1 81.7 149.1 81.7 152.2 81.7Z" fill="#861BB9"/>
<path d="M35.6504 47.85C38.6504 47.85 38.6504 47.85 38.7004 50.6C38.7004 53.9 38.7004 53.9 35.5504 53.9C32.4504 53.9 32.4504 53.9 32.4504 50.55C32.4004 47.85 32.4004 47.85 35.6504 47.85Z" fill="#861BB9"/>
<path d="M87.7003 155.4C87.7003 158.35 87.7003 158.35 84.8003 158.35C81.5503 158.35 81.5503 158.35 81.5503 155.3C81.5503 152.15 81.5503 152.15 84.7003 152.15C87.7003 152.2 87.7003 152.2 87.7003 155.4Z" fill="#861BB9"/>
<path d="M112.351 155.15C112.351 152.2 112.351 152.2 115.201 152.2C118.501 152.2 118.501 152.2 118.501 155.35C118.501 158.4 118.501 158.4 115.101 158.4C112.351 158.35 112.351 158.35 112.351 155.15Z" fill="#861BB9"/>
<path d="M142.9 173.85C142.9 175.9 142.9 177.8 142.9 179.75C140.9 179.75 139.05 179.75 137 179.75C137 177.85 137 175.9 137 173.85C138.9 173.85 140.85 173.85 142.9 173.85Z" fill="#861BB9"/>
<path d="M63.0504 179.75C61.1004 179.75 59.2004 179.75 57.1504 179.75C57.1504 177.8 57.1504 175.9 57.1504 173.8C59.0504 173.8 61.0004 173.8 63.0504 173.8C63.0504 175.75 63.0504 177.65 63.0504 179.75Z" fill="#861BB9"/>
<path d="M118.4 51.1C118.2 61.95 109.55 69.15 100.05 69.2C90.6502 69.2 81.7002 62.05 81.7002 50.95C81.7002 40.85 89.2002 32.55 100 32.55C111 32.55 118.4 41.15 118.4 51.1ZM100 38.6C93.2502 38.65 87.7002 44.25 87.7502 51C87.8002 57.85 93.3002 63.1 100.25 63.05C107 63 112.35 57.65 112.35 51C112.35 44.25 106.7 38.55 100 38.6Z" fill="#861BB9"/>
<path d="M114.851 70C116.301 68.8 117.601 67.75 118.851 66.7C118.901 66.65 118.951 66.6 119.001 66.6C120.951 66.25 121.351 68.15 122.451 69C122.951 69.35 123.351 70.6 123.101 70.95C122.201 72.4 121.001 73.6 119.851 75C118.101 73.2 116.801 71.9 114.851 70Z" fill="#861BB9"/>
<path d="M84.8003 70.7C83.6503 71.75 82.6003 72.7 81.5503 73.65C81.3503 73.8 81.2003 74.15 81.0003 74.15C78.8503 74.4 78.4003 72.25 77.1503 71.25C76.8503 71 76.8503 69.75 77.1503 69.4C81.1503 65.35 79.8003 65.45 83.7503 69.3C84.0503 69.6 84.3003 70 84.8003 70.7Z" fill="#861BB9"/>
<path d="M97.0003 78.55C97.0503 75.2 96.5003 75.4 100.2 75.4C103.05 75.4 103.05 75.4 103.05 77.75C103 81.85 103.85 81.65 99.8503 81.65C97.0003 81.7 97.0003 81.7 97.0003 78.55Z" fill="#861BB9"/>
<path d="M130.7 50.8C130.65 54.15 131.25 54 127.55 54C124.65 54 124.6 54 124.65 51.7C124.7 47.4 123.9 47.75 128 47.75C130.7 47.75 130.7 47.75 130.7 50.8Z" fill="#861BB9"/>
<path d="M103.05 23.25C103.05 23.65 103 24 103.05 24.4C103.3 25.95 102.6 26.4 101.1 26.35C96.05 26.25 97.15 26.85 96.95 22.2C96.85 20.5 97.45 19.85 99.1 20.05C99.35 20.1 99.6 20.05 99.85 20.05C103.6 20.1 103 19.95 103.05 23.25Z" fill="#861BB9"/>
<path d="M75.4003 50.95C75.4003 51.4 75.4003 51.85 75.4003 52.3C75.4003 52.55 75.5003 52.85 75.3503 53.05C74.2003 55.05 72.2503 53.65 70.7003 53.95C70.3003 54 69.7003 53.2 69.3003 52.7C69.1003 52.45 69.2503 51.95 69.3003 51.55C69.4003 47.3 68.5003 47.85 73.1503 47.7C74.9503 47.65 75.6003 48.25 75.3503 50C75.4003 50.3 75.4003 50.65 75.4003 50.95Z" fill="#861BB9"/>
<path d="M115.101 31.65C115.901 30.85 116.201 30.45 116.551 30.1C119.801 26.8 120.101 26.85 123.051 30.6C123.801 31.6 123.351 32.2 122.651 32.65C121.401 33.4 120.901 35.9 118.851 34.85C117.501 34.1 116.401 32.8 115.101 31.65Z" fill="#861BB9"/>
<path d="M84.9502 31.65C83.6502 32.8 82.6002 34.1 81.2002 34.8C79.0002 35.95 78.6002 33.25 77.2502 32.5C76.4002 32 76.3002 31.35 77.0502 30.45C80.2002 26.75 80.1502 26.75 83.5502 30.2C83.9002 30.5 84.2002 30.85 84.9502 31.65Z" fill="#861BB9"/>
</svg>
