<svg width="200" height="201" viewBox="0 0 200 201" fill="none" xmlns="http://www.w3.org/2000/svg">
<path d="M43.3 178.35C43.3 180.9 43.3 183.15 43.3 185.65C45.95 185.65 48.55 185.65 51.15 185.65C51.9 185.65 52.6 185.65 53.35 185.7C55 185.8 55.7 186.9 55.85 188.35C56 189.8 54.9 191.1 53.4 191.2C51.35 191.3 49.25 191.25 47.2 191.25C40.85 191.25 34.5 191.25 28.2 191.25C26 191.25 24.8 190.05 24.95 188.2C25.1 186.65 26.15 185.7 27.95 185.65C31.05 185.6 34.15 185.65 37.4 185.65C37.4 183.2 37.4 180.9 37.4 178.3C32.95 178.3 28.55 178.3 24.1 178.3C20.4 178.3 16.65 178.35 12.95 178.3C10.2 178.3 9.25 177.35 9.25 174.7C9.25 162.15 9.25 149.6 9.25 137.05C9.25 134.6 10.35 133.45 12.8 133.45C31.2 133.45 49.6 133.45 68 133.45C70.4 133.45 71.55 134.65 71.55 137.1C71.55 149.6 71.55 162.1 71.55 174.6C71.55 177.35 70.5 178.3 67.75 178.3C60.3 178.3 52.9 178.3 45.45 178.3C44.75 178.35 44.1 178.35 43.3 178.35ZM14.95 172.5C31.95 172.5 48.8 172.5 65.7 172.5C65.7 161.35 65.7 150.35 65.7 139.35C48.7 139.35 31.85 139.35 14.95 139.35C14.95 150.45 14.95 161.45 14.95 172.5Z" fill="#861BB9"/>
<path d="M149.25 158.9C145.8 155.5 142.65 152.35 139.45 149.2C138.95 148.75 138.5 148.25 138.05 147.75C136.95 146.45 136.95 144.8 137.95 143.75C139.05 142.6 140.75 142.55 142.05 143.75C144.25 145.85 146.4 148.05 148.55 150.2C149.95 151.6 151.35 153.05 153 154.7C153.05 153.8 153.15 153.3 153.15 152.8C153.15 148.65 153.15 144.5 153.15 140.35C153.15 137.6 154.1 136.25 155.95 136.25C157.9 136.25 158.8 137.5 158.8 140.3C158.8 144.4 158.8 148.45 158.8 152.55C158.8 153.15 158.85 153.7 158.85 154.3C159 154.4 159.15 154.5 159.3 154.6C161.75 152.1 164.15 149.55 166.6 147.05C167.65 145.95 168.75 144.85 169.85 143.85C171.15 142.65 172.9 142.65 173.95 143.7C175.1 144.9 175.1 146.55 173.75 147.95C170.85 150.9 167.9 153.8 164.95 156.7C164.25 157.35 163.55 158 162.85 158.65C162.9 158.8 163 158.95 163.05 159.05C166.3 159.05 169.55 159.05 172.85 159.05C175.1 159.05 177.35 159 179.6 159.05C185 159.15 188.95 162.55 189.4 167.9C189.7 171.7 189.7 175.6 189.4 179.4C189 184.95 185.1 188.3 179.35 188.35C168.4 188.4 157.4 188.35 146.45 188.35C141.15 188.35 135.85 188.35 130.55 188.35C124.15 188.3 120.25 184.4 120.2 177.95C120.2 175.15 120.2 172.35 120.2 169.55C120.25 163 124.2 159.05 130.7 159.05C136.6 159.05 142.5 159.05 148.45 159.05C148.5 159.05 148.65 159 149.25 158.9ZM155 182.75C162.9 182.75 170.85 182.75 178.75 182.75C182.35 182.75 183.8 181.35 183.8 177.85C183.8 175 183.85 172.1 183.8 169.25C183.75 166.2 182.35 164.7 179.35 164.7C163.05 164.65 146.7 164.65 130.4 164.7C127.45 164.7 125.95 166.3 125.95 169.3C125.9 172 125.95 174.65 125.95 177.35C125.95 181.4 127.25 182.75 131.3 182.75C139.15 182.75 147.1 182.75 155 182.75Z" fill="#861BB9"/>
<path d="M162.6 54.5C162.6 57 162.6 59.3 162.6 61.8C165.45 61.8 168.25 61.8 171.05 61.8C171.8 61.8 172.65 61.7 173.2 62.05C173.95 62.6 174.9 63.45 175 64.25C175.1 65.05 174.45 66.15 173.85 66.85C173.45 67.3 172.55 67.5 171.85 67.5C163.75 67.55 155.65 67.55 147.55 67.5C146.05 67.5 144.75 66.95 144.3 65.35C143.75 63.4 145 61.85 147.3 61.8C149.85 61.7 152.4 61.8 155 61.75C155.55 61.75 156.05 61.7 156.7 61.7C156.7 59.3 156.7 57.05 156.7 54.45C155.45 54.45 154.2 54.45 152.95 54.45C146.05 54.45 139.15 54.5 132.3 54.5C129.5 54.5 128.55 53.5 128.55 50.8C128.55 38.5 128.55 26.15 128.55 13.85C128.55 10.55 129.35 9.75 132.65 9.75C150.7 9.75 168.75 9.75 186.8 9.75C190.15 9.75 190.85 10.45 190.85 13.85C190.85 26.15 190.85 38.5 190.85 50.8C190.85 53.65 190 54.5 187.15 54.55C179.7 54.55 172.3 54.55 164.85 54.55C164.1 54.5 163.45 54.5 162.6 54.5ZM185.1 48.8C185.1 37.65 185.1 26.6 185.1 15.45C168.15 15.45 151.3 15.45 134.35 15.45C134.35 26.6 134.35 37.65 134.35 48.8C151.3 48.8 168.15 48.8 185.1 48.8Z" fill="#861BB9"/>
<path d="M28.6999 59.15C26.4499 59.15 24.4499 59.15 22.4499 59.15C17.7499 59.1 14.6999 56.2 14.6999 51.55C14.6499 40.6 14.6499 29.6 14.6999 18.65C14.7499 13.1 18.2499 9.75 23.8499 9.75C29.0499 9.75 34.1999 9.75 39.3999 9.75C44.7999 9.75 48.3999 13.2 48.4499 18.6C48.5499 29.65 48.5499 40.65 48.4499 51.7C48.3999 56.25 45.2999 59.15 40.7499 59.2C38.7499 59.2 36.7499 59.2 34.4999 59.2C34.4999 60.9 34.4499 62.45 34.5499 64C34.5499 64.35 34.9999 64.85 35.3999 65C37.9499 66.1 39.6999 67.95 40.5999 70.6C40.9499 71.6 41.4999 71.9 42.4999 71.85C44.4499 71.8 46.3999 71.8 48.3499 71.85C50.3499 71.9 51.4499 72.95 51.3999 74.7C51.3999 76.45 50.2999 77.4 48.2499 77.45C47.2999 77.45 46.2999 77.55 45.3499 77.45C42.5499 77.2 40.4499 77.75 38.4499 80.3C34.5999 85.2 26.9999 84.3 23.6499 78.9C22.8999 77.7 22.1499 77.35 20.8499 77.4C18.8999 77.5 16.9499 77.45 14.9999 77.4C12.8999 77.35 11.8999 76.4 11.8499 74.65C11.7999 72.85 12.7999 71.9 14.8999 71.8C16.8499 71.7 18.7999 71.75 20.7499 71.8C21.7499 71.8 22.2999 71.55 22.5999 70.5C23.4499 67.95 25.2499 66.2 27.6499 65C28.1499 64.75 28.5999 64 28.6999 63.4C28.7999 62.1 28.6999 60.75 28.6999 59.15ZM42.7499 34.85C42.7499 29.5 42.7499 24.1 42.7499 18.75C42.7499 16.25 41.8499 15.4 39.4499 15.4C34.1499 15.4 28.8499 15.4 23.5499 15.4C21.3499 15.4 20.3999 16.3 20.3999 18.5C20.3999 29.4 20.3999 40.3 20.3999 51.2C20.3999 52.75 21.0999 53.35 22.5999 53.35C28.5499 53.3 34.5499 53.3 40.4999 53.35C42.1499 53.35 42.7499 52.7 42.7499 51.05C42.6999 45.7 42.7499 40.3 42.7499 34.85ZM35.4999 73.9C35.5499 71.7 33.7999 69.95 31.6499 69.9C29.4999 69.85 27.6499 71.65 27.6499 73.75C27.6499 75.9 29.4999 77.7 31.5999 77.7C33.6999 77.65 35.4499 75.9 35.4999 73.9Z" fill="#861BB9"/>
<path d="M157.7 101.2C157.7 98.95 156.6 97.95 154.25 97.95C149.5 97.95 144.75 97.85 140 98C137.9 98.05 136.2 97.75 135.15 95.75C134.85 95.2 134.3 94.65 133.75 94.35C131.5 93.1 129.2 91.9 126.7 90.6C127 86.1 125.3 81.95 121.45 78.95C117.65 75.95 113.25 74.85 108.9 76.3C107.3 74.3 106.1 72.35 104.4 70.95C102.7 69.5 100.5 68.65 98.3003 67.4C98.3003 56.85 98.3003 46 98.3003 35.05C99.1003 35 99.8003 34.95 100.55 34.95C105.8 34.95 111.05 35 116.25 35C116.9 35 117.6 34.95 118.25 34.8C119.6 34.45 120.3 33.5 120.25 32.1C120.2 30.75 119.5 29.8 118.15 29.45C117.5 29.3 116.8 29.35 116.15 29.35C109.75 29.35 103.35 29.35 96.9503 29.35C93.4503 29.35 92.6503 30.1 92.6503 33.65C92.6503 44.5 92.6503 55.35 92.7003 66.2C92.7003 67.45 92.3503 67.95 91.1503 68.35C86.6503 69.9 83.6503 73 82.2003 77.55C81.8503 78.7 81.4503 79.15 80.2003 79.4C75.1503 80.3 71.6503 83.2 70.4003 88.25C69.8503 90.45 70.0503 92.8 69.9003 95.15C65.7003 96.5 62.9003 99.45 61.6503 103.9C52.6503 103.9 43.7003 103.9 34.5503 103.9C34.5503 100.6 34.5503 97.4 34.5503 94.15C34.5503 91.75 33.5003 90.45 31.7003 90.45C29.9003 90.45 28.8503 91.75 28.8003 94.1C28.8003 97.75 28.8003 101.4 28.8003 105.05C28.8003 108.9 29.5503 109.6 33.4503 109.6C42.3003 109.6 51.1003 109.6 59.9503 109.6C60.8503 109.6 61.6503 109.5 62.1003 110.75C64.1503 116.2 68.2003 118.9 74.0503 118.95C81.0503 119 88.0503 118.95 95.1003 118.95C95.7503 118.95 96.4003 118.95 97.1503 118.95C97.1503 130.2 97.1503 141.25 97.1503 152.4C96.3003 152.4 95.5503 152.4 94.8503 152.4C91.4003 152.4 87.9003 152.35 84.4503 152.45C82.7003 152.5 81.7003 153.6 81.7003 155.2C81.7003 156.7 82.6503 157.95 84.2503 158C89.6003 158.05 95.0003 158.05 100.35 158C102 158 102.85 156.9 103 155.3C103.05 154.55 103.05 153.85 103.05 153.1C103.05 142.45 103.05 131.75 103.05 121.1C103.05 120.4 103.05 119.7 103.05 118.9C110.4 118.9 117.5 118.95 124.55 118.9C130.5 118.85 135.05 116.25 137.55 110.8C138.55 108.65 138.8 106.15 139.4 103.7C143.45 103.7 147.75 103.7 152.2 103.7C152.2 104.45 152.2 105.1 152.2 105.8C152.2 109.7 152.15 113.6 152.25 117.5C152.25 118.4 152.35 119.55 152.85 120.05C153.6 120.7 154.85 121.15 155.85 121.1C157.45 120.95 157.9 119.55 157.9 118.1C157.75 112.4 157.75 106.8 157.7 101.2Z" fill="#861BB9"/>
<path d="M134.95 176.6C134 176.6 133 176.65 132.05 176.6C130.4 176.5 129.55 175.4 129.4 173.85C129.25 172.45 130.35 171.15 131.9 171.05C133.95 170.95 136 170.95 138.05 171.05C139.7 171.15 140.5 172.25 140.55 173.85C140.6 175.3 139.5 176.5 137.95 176.6C137 176.65 136 176.6 134.95 176.6Z" fill="#861BB9"/>
<path d="M150.7 176.6C149.65 176.6 148.65 176.65 147.6 176.6C146.1 176.45 144.95 175.25 145.05 173.8C145.15 172.3 145.85 171.2 147.45 171.1C149.65 171 151.8 171 154 171.15C155.5 171.25 156.25 172.4 156.25 173.8C156.3 175.3 155.5 176.4 153.95 176.6C152.9 176.65 151.8 176.55 150.7 176.6C150.7 176.55 150.7 176.55 150.7 176.6Z" fill="#861BB9"/>
<path d="M177.6 173.65C177.65 175.95 175.9 177.75 173.6 177.75C171.45 177.75 169.65 176 169.6 173.85C169.55 171.65 171.45 169.75 173.65 169.75C175.8 169.7 177.55 171.45 177.6 173.65Z" fill="#861BB9"/>
<path d="M31.6499 34.8C30.1499 34.8 28.5999 34.85 27.0999 34.8C25.3999 34.7 24.6499 33.6 24.5999 32C24.5499 30.5 25.5999 29.3 27.1999 29.25C30.1999 29.15 33.1499 29.15 36.1499 29.25C37.6999 29.3 38.6999 30.55 38.6499 32.05C38.5999 33.6 37.7999 34.6 36.2499 34.75C34.6499 34.85 33.1499 34.8 31.6499 34.8Z" fill="#861BB9"/>
<path d="M31.55 25.6C30.15 25.6 28.7501 25.65 27.3501 25.6C25.6501 25.55 24.6 24.5 24.55 22.85C24.5 21.25 25.5501 20.1 27.2501 20.05C30.1501 20 33.1001 20 36.0001 20.05C37.5501 20.1 38.6 21.25 38.6 22.75C38.65 24.3 37.5501 25.5 35.9001 25.55C34.4501 25.65 33 25.6 31.55 25.6Z" fill="#861BB9"/>
<path d="M35.3503 46.35C35.4003 48.55 33.7503 50.2 31.6003 50.2C29.5003 50.2 27.9003 48.6 27.8503 46.5C27.8003 44.4 29.3503 42.75 31.4503 42.7C33.6003 42.6 35.3003 44.2 35.3503 46.35Z" fill="#861BB9"/>
</svg>
