<svg width="200" height="200" viewBox="0 0 200 200" fill="none" xmlns="http://www.w3.org/2000/svg">
<path d="M75.8992 136.85C79.0492 137.8 81.6492 137.4 84.1492 136.4C86.8492 135.35 88.9492 133.5 90.5492 131.1C91.2992 130 91.5492 129 90.5492 127.85C89.7492 126.9 89.1492 125.75 88.3992 124.5C89.9992 123.45 91.5492 122.4 93.1992 121.25C93.6992 122.05 94.2992 122.7 94.6492 123.5C95.6992 126.1 97.7492 126.75 100.299 126.5C103.499 126.2 106.649 125.55 109.449 123.55C108.499 121.9 107.549 120.25 106.549 118.55C108.149 117.6 109.699 116.7 111.499 115.6C112.949 118.05 114.299 120.45 115.849 122.75C116.399 123.6 117.349 124.35 118.299 124.85C120.299 125.9 122.499 126.6 124.499 127.7C130.499 131 136.549 130.85 142.599 128.05C144.599 127.15 146.399 125.85 148.499 124.65C149.499 125.95 150.599 127.35 151.999 129.2C149.549 130.65 147.349 132.25 144.899 133.35C142.499 134.45 139.899 135.1 137.599 135.85C142.649 140.7 147.749 145.65 153.049 150.75C165.449 145.85 178.949 143.9 192.749 142.8C192.849 143.6 192.999 144.1 193.049 144.65C193.149 145.9 193.199 147.15 193.249 148.4C187.449 149.15 181.799 149.85 176.149 150.65C169.399 151.65 162.699 153.05 156.349 155.7C155.399 156.1 154.749 156.5 154.849 157.9C155.399 164.15 152.899 167.75 146.899 169.6C146.349 169.75 145.749 169.95 145.049 170.15C145.849 174.25 145.449 178.05 141.849 180.75C138.549 183.25 134.799 184.25 130.749 183.2C126.849 189.75 120.899 191.35 112.549 188.15C108.999 193.6 103.849 193.45 98.4992 191.85C92.6492 190.15 87.2992 187.35 82.5492 183.5C76.0492 178.25 69.6492 172.8 63.3492 167.3C54.1492 159.25 43.5992 154.5 31.3992 153.5C24.0492 152.9 16.6992 152.4 9.34922 151.85C8.74922 151.8 8.14922 151.75 7.49922 151.75C7.49922 149.8 7.49922 148 7.49922 146.25C10.1992 146.25 12.7492 146.05 15.2492 146.3C23.8492 147.15 32.4992 147.85 40.9992 149.25C50.2492 150.8 58.1492 155.6 65.2992 161.55C71.0992 166.4 76.6992 171.5 82.5492 176.35C87.7492 180.65 93.2992 184.4 99.8492 186.25C101.449 186.7 103.149 186.9 104.799 186.8C105.699 186.75 106.849 185.95 107.199 185.15C107.449 184.6 106.799 183.3 106.149 182.7C104.149 180.75 101.999 178.95 99.7992 177.05C101.049 175.55 102.199 174.15 103.499 172.65C106.099 174.95 108.649 177.2 111.199 179.4C112.349 180.4 113.499 181.5 114.699 182.45C117.149 184.45 120.449 184.7 123.149 183.1C125.299 181.8 125.749 179.85 123.849 178.15C120.899 175.55 117.699 173.2 114.649 170.7C113.149 169.5 111.799 168.15 110.249 166.75C111.799 165.3 113.149 164.1 114.599 162.8C119.649 167.25 124.749 171.55 129.649 176.05C131.449 177.7 133.349 178.2 135.549 177.5C137.249 176.95 139.149 176.3 139.399 174.15C139.749 171.65 138.549 169.85 136.649 168.3C131.449 164.1 126.349 159.75 121.149 155.5C120.699 155.1 120.199 154.8 119.549 154.3C121.149 152.8 122.499 151.6 123.949 150.25C126.199 152.3 128.499 154.5 130.949 156.55C133.599 158.8 136.399 160.9 139.149 163C141.449 164.75 144.049 164.65 146.599 163.6C148.599 162.8 149.399 160.9 148.999 158.6C148.449 155.5 146.849 152.95 144.699 150.8C136.749 142.75 128.099 135.6 117.599 131.05C117.249 130.9 116.849 130.75 116.499 130.6C113.849 129.3 111.349 129.1 108.549 130.6C105.399 132.3 101.749 132.6 98.1992 132.3C96.9492 132.2 96.2992 132.5 95.6492 133.6C91.6992 140.5 83.8492 144.25 76.0492 143.1C70.8992 142.35 68.7992 138.65 70.9992 133.95C73.0492 129.6 75.1492 125.25 77.2992 120.95C79.5492 116.4 82.9992 113.05 87.7492 111.15C91.6992 109.6 95.5992 107.9 99.4992 106.15C94.8992 105.75 90.4992 106.65 86.2492 108.25C81.6992 110 77.1992 111.95 72.7992 114C68.4992 116 64.0492 116.9 59.3992 116.9C48.8992 116.95 38.4992 115.85 28.1992 114.2C22.3992 113.3 16.5992 112.2 10.7992 111.2C9.49922 110.95 8.19922 110.6 6.69922 110.25C7.14922 108.4 7.54922 106.65 7.89922 105C18.5492 106.8 29.0492 108.55 39.8992 110.35C39.6492 107.55 39.3992 105.3 39.2992 103.05C38.5492 86.6 43.7492 72.5 55.6992 61C56.2492 60.5 56.4992 59.5 56.5492 58.7C56.6492 55.15 56.5992 51.6 56.5992 47.8C63.3492 47.8 69.9992 47.8 76.9492 47.8C76.9492 34.1 76.9492 20.7 76.9492 7.14999C92.4992 7.14999 107.749 7.14999 123.249 7.14999C123.249 20.6 123.249 34 123.249 47.65C130.099 47.65 136.699 47.65 143.649 47.65C143.649 50.95 143.749 54.1 143.599 57.2C143.499 59.3 144.199 60.75 145.699 62.25C156.749 73.45 161.649 87.05 160.899 102.75C160.899 103.2 160.899 103.65 160.899 104.3C171.399 105.4 181.799 105.75 192.549 104.5C192.799 106.35 193.049 108.15 193.349 110.25C191.149 110.5 189.099 110.75 187.049 110.9C176.649 111.7 166.299 110.65 155.949 109.85C145.749 109.1 135.499 108.35 125.249 108C112.199 107.55 100.149 111.5 88.5992 117.2C87.0492 117.95 85.3492 119.15 84.4992 120.6C81.5492 125.85 78.8492 131.25 75.8992 136.85ZM56.7492 68.5C56.1992 69.05 55.9992 69.2 55.8492 69.4C46.2992 81.15 43.6492 94.6 45.9992 109.25C46.0992 109.8 47.0992 110.6 47.6992 110.65C52.3992 110.9 57.0992 111.2 61.7492 111.05C64.0992 111 66.4992 110.25 68.6992 109.4C74.1992 107.25 79.4992 104.75 84.9992 102.65C94.6992 98.95 104.499 99.25 114.349 102.3C115.299 102.6 116.299 102.7 117.299 102.7C124.149 102.7 130.949 102.5 137.799 102.7C143.549 102.85 149.299 103.45 155.249 103.85C156.049 90.75 152.849 79 143.799 68.95C143.799 77.3 143.799 85.6 143.799 94C114.649 94 85.7992 94 56.7992 94C56.7492 85.6 56.7492 77.3 56.7492 68.5ZM82.8992 47.65C94.5492 47.65 105.999 47.65 117.549 47.65C117.549 36.1 117.549 24.65 117.549 13.15C112.699 13.15 107.949 13.15 102.999 13.15C102.999 15.05 102.999 16.85 102.999 18.55C100.949 18.55 99.1992 18.55 97.1992 18.55C97.1992 16.65 97.1992 14.9 97.1992 13.1C92.2992 13.1 87.6492 13.1 82.8492 13.1C82.8992 24.6 82.8992 36.05 82.8992 47.65ZM103.299 53.75C103.299 65.35 103.299 76.8 103.299 88.3C114.899 88.3 126.299 88.3 137.799 88.3C137.799 76.7 137.799 65.25 137.799 53.75C132.999 53.75 128.299 53.75 123.449 53.75C123.449 55.6 123.449 57.4 123.449 59.2C121.399 59.2 119.599 59.2 117.599 59.2C117.599 57.3 117.599 55.6 117.599 53.75C112.749 53.75 108.099 53.75 103.299 53.75ZM97.1992 88.25C97.1992 76.6 97.1992 65.2 97.1992 53.8C92.3492 53.8 87.6492 53.8 82.7492 53.8C82.7492 55.75 82.7492 57.5 82.7492 59.2C80.7492 59.2 78.9992 59.2 76.9492 59.2C76.9492 57.3 76.9492 55.55 76.9492 53.8C72.0492 53.8 67.3992 53.8 62.6492 53.8C62.6492 65.35 62.6492 76.75 62.6492 88.3C74.1992 88.25 85.6492 88.25 97.1992 88.25Z" fill="#861BB9"/>
<path d="M136.049 38.55C135.149 36.85 134.299 35.2 133.399 33.4C140.399 29.8 147.249 26.2 154.149 22.65C160.349 28.85 166.449 34.95 172.549 41.05C173.849 42.35 175.049 43.65 176.399 44.85C177.349 45.7 177.449 46.45 176.849 47.6C174.349 52.2 171.949 56.8 169.649 61.5C169.199 62.4 169.099 63.7 169.449 64.6C170.849 68.35 172.549 72 173.999 75.75C174.499 77 175.199 77.6 176.499 77.9C181.999 79.05 187.449 80.35 192.949 81.6C192.949 87.3 192.949 92.9 192.949 98.6C191.099 98.6 189.299 98.6 187.299 98.6C187.299 95.3 187.149 92.1 187.349 88.9C187.449 86.85 186.949 85.95 184.799 85.55C180.499 84.8 176.299 83.75 172.049 82.7C171.249 82.5 170.249 81.75 169.949 81C167.499 75.35 165.149 69.65 162.899 63.95C162.599 63.2 162.699 62.1 163.049 61.4C165.449 56.6 167.949 51.9 170.549 46.95C164.949 41.4 159.349 35.9 153.699 30.45C153.299 30.1 152.099 30.2 151.449 30.55C146.899 32.85 142.449 35.25 137.899 37.6C137.399 37.9 136.799 38.2 136.049 38.55Z" fill="#861BB9"/>
<path d="M22.9495 46.2C30.7995 38.3 38.4495 30.55 46.2995 22.65C53.1495 26.2 59.9995 29.75 67.0495 33.4C66.1495 35.15 65.3495 36.8 64.3995 38.6C59.4495 36 54.4995 33.6 49.7495 30.9C47.9495 29.9 46.9995 29.95 45.5495 31.45C40.8995 36.35 36.0495 41.1 31.1995 45.8C30.2495 46.75 29.9995 47.4 30.6995 48.65C32.9995 52.75 35.0495 56.95 37.2495 61.05C37.7995 62.1 37.9495 63 37.4495 64.2C35.0495 69.75 32.7995 75.3 30.5495 80.9C30.1495 81.95 29.5995 82.45 28.4495 82.7C23.3995 83.75 18.3995 84.95 13.1995 86.15C13.1995 90.25 13.1995 94.3 13.1995 98.5C11.2495 98.5 9.4495 98.5 7.3495 98.5C7.3495 96.95 7.3495 95.45 7.3495 93.95C7.3495 90.4 7.4495 86.85 7.2995 83.3C7.2495 81.85 7.7995 81.35 9.0995 81.05C14.0995 80 19.0495 78.95 23.9995 77.7C24.8495 77.5 25.8995 76.65 26.2495 75.85C27.9495 72.1 29.5495 68.25 30.9995 64.35C31.2995 63.55 31.2495 62.4 30.8495 61.6C28.3495 56.5 25.6495 51.35 22.9495 46.2Z" fill="#861BB9"/>
<path d="M116.3 137.9C118.15 138.75 119.8 139.5 121.5 140.3C118.6 147.35 115.25 153.9 109.1 158.65C107.3 160.05 105.9 162.05 104.6 164C100.65 169.9 95.7496 174.55 88.5996 176.55C87.9496 174.85 87.2996 173.2 86.5996 171.4C86.7996 171.25 86.9496 171.1 87.1496 171.05C93.2996 169.2 97.1996 164.75 100.65 159.65C102.1 157.5 103.85 155.45 105.85 153.9C109.9 150.65 112.45 146.4 114.55 141.8C115.05 140.5 115.65 139.3 116.3 137.9Z" fill="#861BB9"/>
<path d="M46.2994 177.3C40.5494 171.4 34.8994 165.7 29.1494 159.85C30.3994 158.65 31.7494 157.35 33.1494 156C37.4494 160.3 41.7994 164.55 46.0494 168.95C47.0494 170 47.8494 170.2 49.0994 169.45C51.3994 168.1 53.7994 166.95 56.3994 165.6C57.2994 167.3 58.1994 168.9 59.1494 170.7C54.8494 172.9 50.6494 175.05 46.2994 177.3Z" fill="#861BB9"/>
<path d="M165.2 158.6C166.35 159.7 167.6 161 168.8 162.1C163.7 167.2 158.6 172.25 153.4 177.45C152.45 176.35 151.2 175 150 173.6C154.9 168.75 160.1 163.65 165.2 158.6Z" fill="#861BB9"/>
<path d="M111.7 41.95C108.2 41.95 104.8 42 101.4 41.9C101 41.9 100.4 41.25 100.35 40.85C100.2 39.65 100.2 38.45 100.35 37.25C100.4 36.8 101.15 36.15 101.55 36.15C104.9 36.05 108.2 36.1 111.7 36.1C111.7 38.05 111.7 39.9 111.7 41.95Z" fill="#861BB9"/>
<path d="M132.049 82.5C128.199 82.5 124.499 82.5 120.699 82.5C120.699 80.55 120.699 78.75 120.699 76.8C124.499 76.8 128.199 76.8 132.049 76.8C132.049 78.75 132.049 80.55 132.049 82.5Z" fill="#861BB9"/>
<path d="M91.4494 82.5C87.5994 82.5 83.9494 82.5 80.1494 82.5C80.1494 80.65 80.1494 78.85 80.1494 76.85C83.8494 76.85 87.5994 76.85 91.4494 76.85C91.4494 78.7 91.4494 80.5 91.4494 82.5Z" fill="#861BB9"/>
</svg>
