<svg width="200" height="201" viewBox="0 0 200 201" fill="none" xmlns="http://www.w3.org/2000/svg">
<path d="M29.5499 60.55C19.4999 48.8 23.2999 36.15 30.0999 29.9C38.8999 21.75 51.5499 21.85 59.9499 30.15C67.8499 38 69.0499 50.8 60.0499 60.7C61.1999 60.7 61.9999 60.7 62.7999 60.7C68.1499 60.55 72.5999 62.45 76.2999 66.25C81.0999 71.15 85.9499 76 90.8499 80.75C91.6499 81.5 92.9499 82.05 94.0499 82.05C99.9499 82.2 105.85 82.05 111.75 82.15C113.35 82.15 114.45 81.75 115.55 80.6C123.25 72.8 131 65.1 138.7 57.35C139.25 56.8 139.75 56.15 140.5 55.35C141.9 57 143.1 58.5 144.5 60.2C144.35 60.35 143.85 60.9 143.3 61.45C135.4 69.35 127.5 77.2 119.7 85.15C118.95 85.9 118.45 87.25 118.4 88.35C118.25 92.15 118.35 95.95 118.35 99.75C118.35 102.4 117.25 103.55 114.65 103.55C103.85 103.6 93.0499 103.65 82.2999 103.45C80.8999 103.45 79.2999 102.4 78.2499 101.35C74.3499 97.65 70.5999 93.75 66.4999 89.65C66.4499 90.65 66.3499 91.25 66.3499 91.9C66.3499 100.35 65.9999 108.85 66.4499 117.3C66.7499 123.15 68.1499 128.95 69.1499 134.75C72.2499 152.5 75.3499 170.2 78.4499 187.95C78.9499 190.75 77.6499 192.4 74.8499 192.4C69.1499 192.45 63.4999 192.4 57.7999 192.4C55.6499 192.4 54.4499 191.45 54.0499 189.3C52.1999 179.6 50.2499 169.9 47.9499 160.25C47.9499 161.05 47.9499 161.85 47.9499 162.65C47.9499 171.2 47.9499 179.7 47.9499 188.25C47.9499 191.45 46.9999 192.4 43.7499 192.4C38.4999 192.4 33.2499 192.4 27.9999 192.4C24.2999 192.4 23.4499 191.6 23.4499 187.95C23.4499 167.95 23.4499 147.95 23.4499 128C23.4499 127.15 23.4499 126.25 23.4499 125.05C20.7499 125.05 18.0499 125.05 15.3999 125.05C14.2999 125.05 13.1999 125.05 12.0999 125.05C9.14988 125 8.14988 124.05 8.09988 121.1C8.09988 114.15 8.09988 107.25 8.09988 100.3C8.09988 94.95 8.29988 89.65 8.04988 84.35C7.44988 71.55 16.2499 61.3 29.5499 60.55ZM71.7499 186.2C71.7499 185.9 71.7499 185.7 71.6999 185.45C68.9499 169.7 66.1999 153.9 63.4999 138.15C62.3999 131.85 60.5999 125.55 60.3499 119.2C59.8499 106.95 60.1499 94.7 60.2499 82.45C60.2499 81.4 61.0499 80.05 61.8999 79.45C63.4999 78.4 64.8999 79.4 66.0999 80.6C71.2499 85.75 76.3499 90.95 81.5999 96.05C82.3999 96.8 83.6999 97.35 84.7999 97.35C89.9499 97.5 95.1499 97.45 100.3 97.45C104.2 97.45 108.1 97.45 112 97.45C112 94.2 112 91.25 112 88.2C105.35 88.2 98.8999 88.15 92.3999 88.25C90.2499 88.3 88.6999 87.55 87.1999 86.05C81.9999 80.75 76.6499 75.55 71.4999 70.2C69.0999 67.75 66.2999 66.7 62.8999 66.7C52.1999 66.75 41.4499 66.7 30.7499 66.75C20.6499 66.75 14.1999 73.2 14.1499 83.25C14.1499 89.75 14.1499 96.25 14.1499 102.7C14.1499 108 14.1499 113.3 14.1499 118.65C17.3499 118.65 20.2999 118.65 23.4499 118.65C23.4499 106.35 23.4499 94.25 23.4499 82.15C25.5499 82.15 27.3999 82.15 29.4999 82.15C29.4999 116.85 29.4999 151.45 29.4999 186.05C33.6999 186.05 37.6499 186.05 41.6999 186.05C41.6999 185.3 41.6999 184.75 41.6999 184.15C41.6999 165.75 41.6999 147.4 41.6999 129C41.6999 126.45 42.6999 125.1 44.4499 124.95C46.2499 124.8 47.3999 125.95 47.8999 128.4C50.9499 143.45 53.9999 158.55 56.9999 173.6C57.8499 177.8 58.6999 181.95 59.5499 186.1C63.8499 186.2 67.7999 186.2 71.7499 186.2ZM60.1499 45.65C60.3499 37.4 53.3999 30.2 45.0999 30.05C36.8499 29.9 29.7499 36.8 29.5999 45.2C29.4499 53.5 36.2999 60.5 44.7999 60.7C52.8499 60.85 59.9499 53.9 60.1499 45.65Z" fill="#861BB9"/>
<path d="M127.5 147.25C129.8 139.35 134.4 134.7 142.2 134.4C150.55 134.05 155.5 138.85 158.2 147C160.15 140.5 163.8 136.2 170.1 134.7C174.1 133.75 177.95 134.35 181.45 136.5C189.85 141.6 190.9 150.85 184.15 160.85C190.55 164.7 192.3 170.65 191.95 177.7C191.8 181.25 191.95 184.85 191.9 188.4C191.9 191.35 190.75 192.5 187.75 192.5C158.9 192.5 130 192.5 101.15 192.5C99.85 192.5 98.5 192.55 97.2 192.5C95.1 192.4 93.9 191.25 93.9 189.25C93.85 183.8 93.7 178.3 93.95 172.85C94.15 168.5 96.25 164.95 99.7 162.25C100.3 161.75 100.95 161.3 101.65 160.8C96.65 155.05 95.05 148.8 99 142.05C102.25 136.45 107.4 133.85 113.9 134.55C121.25 135.25 125.4 139.85 127.5 147.25ZM100.05 186.35C107.95 186.35 115.55 186.35 123.2 186.3C123.6 186.3 124.35 185.45 124.4 185C124.5 181.15 124.6 177.25 124.35 173.4C124.05 168.6 120.45 165.1 115.75 164.85C113.45 164.7 111.1 164.7 108.75 164.85C104.3 165.1 100.35 168.5 100.15 172.7C99.85 177.1 100.05 181.55 100.05 186.35ZM142.9 186.35C146.4 186.35 149.9 186.3 153.4 186.35C154.65 186.35 155.25 186 155.2 184.6C155.1 181.05 155.25 177.45 155.15 173.9C155.05 169.65 152.4 165.95 148.2 165.25C144.75 164.7 141.1 164.65 137.65 165.2C133.35 165.9 130.85 169.45 130.75 173.8C130.7 177.35 130.8 180.95 130.7 184.5C130.65 185.85 131.15 186.3 132.45 186.3C135.9 186.3 139.4 186.35 142.9 186.35ZM173.5 186.35C177 186.35 180.5 186.35 184 186.4C185.1 186.4 185.85 186.25 185.8 184.9C185.75 181.25 185.95 177.6 185.7 174C185.35 168.4 181.55 164.95 176 164.85C174.35 164.8 172.65 164.8 171 164.85C165.25 164.95 161.4 168.7 161.25 174.4C161.15 177.75 161.3 181.1 161.2 184.45C161.15 186.05 161.8 186.45 163.25 186.4C166.65 186.3 170.1 186.35 173.5 186.35ZM112.2 158.7C117.3 158.7 121.35 154.65 121.35 149.55C121.35 144.4 117.3 140.35 112.25 140.35C107.2 140.35 103.05 144.45 103.05 149.5C103.1 154.6 107.15 158.7 112.2 158.7ZM142.7 158.7C147.75 158.75 152 154.65 152.05 149.7C152.1 144.65 148 140.4 143.05 140.35C137.85 140.3 133.8 144.25 133.75 149.35C133.7 154.55 137.65 158.65 142.7 158.7ZM173.45 158.7C178.4 158.7 182.6 154.65 182.65 149.75C182.75 144.6 178.6 140.35 173.45 140.35C168.4 140.35 164.2 144.5 164.25 149.5C164.3 154.55 168.45 158.7 173.45 158.7ZM158.2 164.65C159.8 163.25 161.3 161.95 162.55 160.9C161 158.05 159.55 155.4 158.2 152.9C156.85 155.35 155.3 158.1 153.75 160.85C155.1 162 156.6 163.3 158.2 164.65ZM127.55 152.8C126.2 155.3 124.65 158.1 123.15 160.85C124.55 162.05 126.05 163.35 127.55 164.6C129.15 163.2 130.65 161.95 131.9 160.85C130.35 158.05 128.85 155.25 127.55 152.8Z" fill="#861BB9"/>
<path d="M124.65 103.4C124.65 101.5 124.65 99.65 124.65 97.55C126.5 97.55 128.45 97.55 130.6 97.55C130.6 93.35 130.6 89.4 130.6 85.3C132.7 85.3 134.55 85.3 136.7 85.3C136.7 89.25 136.7 93.2 136.7 97.3C138.85 97.3 140.75 97.3 142.85 97.3C142.85 89.25 142.85 81.25 142.85 73.1C144.95 73.1 146.85 73.1 149 73.1C149 81.15 149 89.2 149 97.35C151.1 97.35 153 97.35 155.1 97.35C155.1 93.4 155.1 89.45 155.1 85.35C157.2 85.35 159.1 85.35 161.2 85.35C161.2 89.25 161.2 93.25 161.2 97.35C163.3 97.35 165.15 97.35 167.3 97.35C167.3 86.3 167.3 75.2 167.3 63.95C169.45 63.95 171.35 63.95 173.45 63.95C173.45 75.05 173.45 86.1 173.45 97.35C175.5 97.35 177.45 97.35 179.6 97.35C179.6 91.4 179.6 85.4 179.6 79.25C181.7 79.25 183.55 79.25 185.7 79.25C185.7 85.2 185.7 91.25 185.7 97.45C187.85 97.45 189.8 97.45 191.8 97.45C191.8 99.55 191.8 101.4 191.8 103.45C169.45 103.4 147.1 103.4 124.65 103.4Z" fill="#861BB9"/>
<path d="M98.8999 51.5C91.3999 51.5 83.8999 51.5 76.3499 51.5C74.7999 51.5 73.4499 51.25 72.6999 49.65C71.9499 47.95 72.7999 46.7 73.9499 45.6C76.0499 43.5 78.2499 41.45 80.2499 39.2C80.9999 38.4 81.4999 37.1 81.5499 36C81.6999 32 81.5999 28 81.5999 23.95C81.6499 15.6 87.9999 8.8 96.3999 8.65C104.95 8.45 113.45 8.45 122 8.65C129.65 8.8 135.75 14.4 136.55 22.35C137.05 27.55 137.05 32.9 136.55 38.1C135.75 45.9 129.3 51.35 121.45 51.45C113.9 51.55 106.4 51.5 98.8999 51.5ZM82.7999 44.95C83.5999 45.25 83.6999 45.35 83.8499 45.35C96.5499 45.35 109.2 45.45 121.9 45.35C126.5 45.3 130.45 41.4 130.6 36.85C130.75 32.4 130.75 27.95 130.6 23.5C130.4 18.65 126.45 14.8 121.65 14.75C113.35 14.7 105.05 14.7 96.7499 14.75C91.7499 14.8 87.8499 18.85 87.7999 23.9C87.7499 27.05 87.6499 30.15 87.7999 33.3C87.9999 37.85 87.9999 42.3 82.7999 44.95Z" fill="#861BB9"/>
<path d="M149.05 26.85C149.05 24.85 149.05 23 149.05 21.05C163.3 21.05 177.45 21.05 191.75 21.05C191.75 22.95 191.75 24.85 191.75 26.85C177.6 26.85 163.45 26.85 149.05 26.85Z" fill="#861BB9"/>
<path d="M149.1 39.1C149.1 37.05 149.1 35.2 149.1 33.25C163.3 33.25 177.4 33.25 191.7 33.25C191.7 35.15 191.7 37.05 191.7 39.1C177.6 39.1 163.45 39.1 149.1 39.1Z" fill="#861BB9"/>
<path d="M149.1 115.7C149.1 113.65 149.1 111.8 149.1 109.85C163.3 109.85 177.4 109.85 191.7 109.85C191.7 111.75 191.7 113.65 191.7 115.7C177.6 115.7 163.4 115.7 149.1 115.7Z" fill="#861BB9"/>
<path d="M191.8 45.5C191.8 47.5 191.8 49.35 191.8 51.35C186.75 51.35 181.75 51.35 176.7 51.35C176.7 49.4 176.7 47.55 176.7 45.5C181.65 45.5 186.6 45.5 191.8 45.5Z" fill="#861BB9"/>
<path d="M161.4 122.05C163.4 122.05 165.25 122.05 167.25 122.05C167.25 124 167.25 125.85 167.25 127.9C165.4 127.9 163.5 127.9 161.4 127.9C161.4 126.05 161.4 124.15 161.4 122.05Z" fill="#861BB9"/>
<path d="M179.45 128C177.5 128 175.65 128 173.65 128C173.65 126.05 173.65 124.1 173.65 122.1C175.55 122.1 177.4 122.1 179.45 122.1C179.45 123.95 179.45 125.85 179.45 128Z" fill="#861BB9"/>
<path d="M191.75 128C189.75 128 187.9 128 185.9 128C185.9 126.05 185.9 124.15 185.9 122.1C187.8 122.1 189.7 122.1 191.75 122.1C191.75 124 191.75 125.9 191.75 128Z" fill="#861BB9"/>
<path d="M50.8999 73.1C50.8999 75.05 50.8999 76.95 50.8999 78.95C49.9499 79 48.9999 79.05 47.9999 79.1C47.9999 88.25 47.9999 97.25 47.9999 106.4C45.9499 106.4 44.0499 106.4 41.8999 106.4C41.8999 97.4 41.8999 88.35 41.8999 79.15C40.7999 79.05 39.8999 79 38.8999 78.9C38.8999 76.95 38.8999 75.1 38.8999 73.05C42.7499 73.1 46.7499 73.1 50.8999 73.1Z" fill="#861BB9"/>
<path d="M93.9497 26.85C93.9497 24.8 93.9497 22.95 93.9497 20.95C104.05 20.95 114.05 20.95 124.3 20.95C124.3 22.85 124.3 24.75 124.3 26.85C114.3 26.85 104.2 26.85 93.9497 26.85Z" fill="#861BB9"/>
<path d="M94 33.2C104.1 33.2 114.15 33.2 124.35 33.2C124.35 35.1 124.35 37 124.35 39.1C114.3 39.1 104.25 39.1 94 39.1C94 37.15 94 35.25 94 33.2Z" fill="#861BB9"/>
</svg>
