<svg width="200" height="200" viewBox="0 0 200 200" fill="none" xmlns="http://www.w3.org/2000/svg">
<path d="M146.8 90.25C146.8 82.6 141.45 77.3 133.8 77.25C111.3 77.25 88.8503 77.25 66.3503 77.25C58.7003 77.25 53.4003 82.6 53.3503 90.25C53.3503 113.15 53.3503 136 53.3503 158.9C53.3503 161.3 53.1503 163.7 53.5003 166.05C54.4003 172.65 59.5003 176.95 66.2003 176.95C83.3503 176.95 100.55 176.95 117.7 176.9C118.55 176.9 119.1 177.05 119.5 177.45C118.9 175.3 118.55 173.05 118.55 170.7H117.3C100.4 170.7 83.5003 170.7 66.6003 170.7C62.0003 170.7 59.5503 168.25 59.5503 163.6C59.5503 145 59.5503 126.4 59.5503 107.8C59.5503 102 59.5503 96.2 59.5503 90.4C59.5503 85.95 62.0503 83.45 66.4503 83.45C88.9003 83.45 111.35 83.45 133.8 83.45C137.9 83.45 140.55 86 140.55 90C140.55 108.35 140.55 126.65 140.55 145C140.55 145.2 140.55 145.45 140.5 145.7C141.5 145.6 142.5 145.5 143.55 145.5C144.65 145.5 145.7 145.55 146.8 145.7V144.2C146.8 126.35 146.8 108.3 146.8 90.25Z" fill="#861BB9"/>
<path d="M56.8507 46.65C58.7507 34.25 64.6507 24.25 74.7507 16.9C82.7007 11.15 91.7007 8.54999 101.551 8.79999C120.151 9.24999 139.801 23.05 143.351 46.6C144.001 46.55 144.651 46.45 145.351 46.4C158.901 45.15 170.651 49.25 180.401 58.65C187.301 65.3 191.601 73.55 192.951 83.1C194.951 97.05 191.001 109.2 181.501 119.5C174.901 126.7 166.701 131 157.101 132.65C155.051 133 153.401 132 153.051 130.2C152.701 128.45 154.001 126.95 156.051 126.55C171.251 123.5 181.301 114.5 185.801 99.75C190.201 85.4 184.851 69.6 172.951 60.35C163.751 53.2 153.351 50.85 141.901 53.15C138.901 53.75 137.601 52.95 137.301 49.95C136.801 44.65 135.601 39.55 133.001 34.85C126.951 24 117.951 17.2 105.501 15.4C93.9507 13.75 83.7007 16.75 75.0007 24.6C67.7507 31.1 63.7007 39.35 62.8507 49.1C62.8007 49.5 62.7507 49.85 62.7007 50.25C62.4007 52.75 60.9507 53.7 58.4507 53.3C56.0507 52.9 53.6007 52.4 51.1507 52.35C37.6507 52.25 26.9507 57.8 19.2007 68.75C10.8507 80.6 10.7007 97.25 18.5507 109.4C24.4007 118.45 32.5507 124.15 43.1507 126.3C44.3007 126.55 45.5007 127 46.3507 127.75C47.3507 128.6 47.2507 130.15 46.6007 131.25C45.8507 132.4 44.6007 132.9 43.1007 132.65C36.9507 131.6 31.3007 129.4 26.1007 125.9C18.2507 120.6 12.6007 113.55 9.30068 104.7C6.05068 95.95 5.65068 87 8.15068 77.95C10.7007 68.9 15.7007 61.45 23.0507 55.55C29.6507 50.45 37.0507 47.4 45.2507 46.5C48.7007 46.15 52.2507 46.5 55.7507 46.55C56.0507 46.55 56.4007 46.6 56.8507 46.65Z" fill="#861BB9"/>
<path d="M163.3 164.15C163.2 163.85 163.1 163.5 162.95 163.2C162.85 162.9 162.7 162.6 162.55 162.25C162.45 162 162.3 161.75 162.2 161.5C162.15 161.4 162.1 161.3 162.05 161.2C161.9 160.95 161.8 160.7 161.65 160.45C161.3 159.8 160.9 159.2 160.45 158.6C160.35 158.45 160.25 158.3 160.1 158.15C159.55 157.45 158.95 156.75 158.35 156.1C158.25 156 158.1 155.85 158 155.75C157.75 155.5 157.5 155.3 157.25 155.05C157 154.85 156.75 154.65 156.5 154.4C155.85 153.9 155.15 153.4 154.45 152.95C154.2 152.8 154 152.7 153.75 152.55C150.8 150.9 147.4 149.95 143.8 149.9C138.1 149.85 132.85 152.2 129.1 155.95C128.85 156.2 128.65 156.45 128.4 156.65C128.2 156.9 127.95 157.15 127.75 157.4C127.55 157.65 127.35 157.9 127.15 158.2C126.75 158.75 126.35 159.3 126.05 159.85C125.85 160.15 125.7 160.45 125.55 160.7C125.4 161 125.25 161.3 125.1 161.6C124.95 161.9 124.8 162.2 124.7 162.5C124.15 163.75 123.75 165 123.5 166.35C123.45 166.7 123.35 167.05 123.3 167.35C123.15 168.35 123.05 169.4 123.05 170.5C123 181.85 132.3 191.2 143.6 191.25C149.3 191.3 154.55 188.95 158.3 185.2C158.55 184.95 158.75 184.7 159 184.5C159.2 184.25 159.45 184 159.65 183.75C159.85 183.5 160.05 183.25 160.25 183C160.65 182.45 161.05 181.9 161.35 181.35C161.55 181.05 161.7 180.8 161.85 180.5C162 180.2 162.15 179.9 162.3 179.6C162.45 179.3 162.6 179 162.7 178.7C163.25 177.45 163.65 176.15 163.9 174.85C163.95 174.5 164.05 174.2 164.1 173.85C164.25 172.85 164.35 171.8 164.35 170.7C164.35 168.45 164 166.25 163.3 164.15ZM156.25 166.55C151.9 170.95 147.55 175.3 143.15 179.65C141.2 181.55 139.3 181.55 137.4 179.65C135.35 177.65 133.35 175.6 131.3 173.55C129.6 171.85 129.45 169.7 130.85 168.35C132.4 166.85 134.45 166.95 136.15 168.7C137.45 170.05 138.7 171.4 140.15 172.9C142.05 171 143.65 169.3 145.3 167.65C147.3 165.65 149.25 163.65 151.3 161.65C153 160.05 155.15 159.95 156.55 161.4C157.95 162.85 157.85 164.95 156.25 166.55Z" fill="#861BB9"/>
<path d="M100.2 96C108.25 96 116.3 96 124.35 96.05C125.25 96.05 126.25 96.3 127 96.8C128.05 97.5 128.35 98.7 128 99.95C127.65 101.25 126.75 102 125.45 102.2C125.05 102.25 124.65 102.25 124.3 102.25C108.15 102.25 92.0505 102.25 75.9005 102.25C74.5005 102.25 73.3005 102 72.5505 100.75C71.3005 98.65 72.7004 96.1 75.2004 96.05C77.4504 96 79.7004 96.05 81.9504 96.05C88.0504 96 94.1504 96 100.2 96Z" fill="#861BB9"/>
<path d="M99.9508 120.9C91.7508 120.9 83.5008 120.9 75.3008 120.9C73.3508 120.9 72.0508 119.55 72.0508 117.75C72.0508 115.95 73.4008 114.7 75.3508 114.7C83.4008 114.7 91.4508 114.7 99.5008 114.7C107.851 114.7 116.201 114.7 124.551 114.7C125.901 114.7 127.051 115.05 127.701 116.3C128.851 118.4 127.451 120.8 125.001 120.9C123.351 120.95 121.701 120.9 120.051 120.9C113.351 120.9 106.651 120.9 99.9508 120.9Z" fill="#861BB9"/>
<path d="M100.05 133.35C108.2 133.35 116.4 133.35 124.55 133.35C125.9 133.35 127.05 133.7 127.7 134.95C128.8 136.9 127.6 139.25 125.35 139.55C125 139.6 124.65 139.6 124.3 139.6C108.15 139.6 91.9504 139.6 75.8004 139.6C74.3004 139.6 73.0504 139.25 72.3504 137.8C71.3004 135.6 72.8004 133.4 75.3504 133.35C79.5504 133.3 83.7504 133.35 87.9504 133.35C92.0004 133.35 96.0004 133.35 100.05 133.35Z" fill="#861BB9"/>
<path d="M87.6504 152.05C91.6004 152.05 95.5004 152 99.4504 152.1C100.3 152.1 101.3 152.3 102 152.8C103.05 153.45 103.4 154.65 103.1 155.9C102.8 157.15 102.05 157.95 100.75 158.2C100.35 158.3 99.9004 158.3 99.4504 158.3C91.4504 158.3 83.4504 158.3 75.4504 158.3C72.7504 158.3 71.2504 155.95 72.4004 153.75C73.0004 152.55 74.1004 152.1 75.4004 152.1C79.5004 152.05 83.5504 152.05 87.6504 152.05Z" fill="#861BB9"/>
<g opacity="0.43">
<path d="M163.3 164.15C163.2 163.85 163.05 163.5 162.95 163.2C162.85 162.9 162.7 162.6 162.55 162.25C162.45 162 162.3 161.75 162.2 161.5C162.15 161.4 162.1 161.3 162.05 161.2C161.9 160.95 161.8 160.7 161.65 160.45C161.3 159.8 160.9 159.2 160.45 158.6C160.35 158.45 160.25 158.3 160.1 158.15C159.55 157.45 158.95 156.75 158.35 156.1C158.25 156 158.1 155.85 158 155.75C157.75 155.5 157.5 155.3 157.25 155.05C157 154.85 156.75 154.65 156.5 154.4C155.85 153.9 155.15 153.4 154.45 152.95C154.2 152.8 154 152.65 153.75 152.55C150.8 150.9 147.4 149.95 143.8 149.9C138.1 149.85 132.85 152.2 129.1 155.95C128.85 156.2 128.65 156.45 128.4 156.65C128.2 156.9 127.95 157.15 127.75 157.4C127.55 157.65 127.35 157.9 127.15 158.2C126.75 158.75 126.35 159.3 126.05 159.85C125.85 160.15 125.7 160.45 125.55 160.7C125.4 161 125.25 161.3 125.1 161.6C124.95 161.9 124.8 162.2 124.7 162.5C124.15 163.75 123.75 165 123.5 166.35C123.45 166.7 123.35 167.05 123.3 167.35C123.15 168.35 123.05 169.4 123.05 170.5C123 181.85 132.3 191.2 143.6 191.25C149.3 191.3 154.55 188.95 158.3 185.2C158.55 184.95 158.75 184.7 159 184.5C159.2 184.25 159.45 184 159.65 183.75C159.85 183.5 160.05 183.25 160.25 183C160.65 182.45 161.05 181.9 161.35 181.35C161.55 181.05 161.7 180.8 161.85 180.5C162 180.2 162.15 179.9 162.3 179.6C162.45 179.3 162.6 179 162.7 178.7C163.25 177.45 163.65 176.15 163.9 174.85C163.95 174.5 164.05 174.2 164.1 173.85C164.25 172.85 164.35 171.8 164.35 170.7C164.35 168.45 164 166.25 163.3 164.15ZM156.25 166.55C151.9 170.95 147.55 175.3 143.15 179.65C141.2 181.55 139.3 181.55 137.4 179.65C135.35 177.65 133.35 175.6 131.3 173.55C129.6 171.85 129.45 169.7 130.85 168.35C132.4 166.85 134.45 166.95 136.15 168.7C137.45 170.05 138.7 171.4 140.15 172.9C142.05 171 143.65 169.3 145.3 167.65C147.3 165.65 149.25 163.65 151.3 161.65C153 160.05 155.15 159.95 156.55 161.4C157.95 162.85 157.85 164.95 156.25 166.55Z" fill="#861BB9"/>
</g>
<g opacity="0.43">
<path d="M147.001 146C146.951 146 146.851 146 146.801 145.95V145.85L147.001 146Z" fill="#861BB9"/>
</g>
</svg>
