<svg width="200" height="200" viewBox="0 0 200 200" fill="none" xmlns="http://www.w3.org/2000/svg">
<path d="M147.25 130.95C147.25 139.25 147.25 147.25 147.25 155.2C147.25 166.55 147.25 178 147.25 189.35C147.25 192.8 146.15 193.9 142.8 193.9C101.75 193.9 60.7498 193.9 19.7498 193.9C16.3498 193.9 15.2998 192.85 15.2998 189.4C15.2998 137 15.2998 84.55 15.2998 32.15C15.2998 28.75 16.3498 27.65 19.7998 27.65C28.7998 27.65 37.8498 27.65 46.8498 27.65C48.0498 27.65 49.2498 27.65 50.5998 27.65C50.6498 26.75 50.7498 26 50.7498 25.25C50.7498 20.3 50.7498 15.35 50.7498 10.35C50.7498 7.15 51.8998 6 54.9998 6C72.4998 6 90.0998 6 107.6 6C110.65 6 111.75 7.15 111.8 10.2C111.8 15.35 111.8 20.55 111.8 25.7C111.8 26.25 111.9 26.8 111.95 27.65C115.05 27.65 118.15 27.65 121.2 27.65C128.55 27.65 135.9 27.55 143.2 27.6C146.2 27.6 147.3 28.8 147.35 31.9C147.4 37.7 147.35 43.5 147.35 49.65C148.55 49.65 149.6 49.6 150.7 49.65C153.5 49.85 154.4 50.75 154.55 53.55C154.65 55.65 154.5 57.75 154.65 59.85C154.7 60.45 155.3 61.4 155.85 61.6C156.5 61.85 157.6 61.7 158.1 61.25C159.75 59.85 161.15 58.2 162.7 56.7C164.4 55.05 166.1 55 167.8 56.65C171.05 59.8 174.25 63 177.45 66.25C179.3 68.15 179.3 69.75 177.45 71.75C176 73.25 174.4 74.65 173.05 76.25C172.65 76.7 172.4 77.8 172.65 78.3C172.95 78.9 173.8 79.7 174.45 79.75C176.5 79.95 178.65 79.8 180.75 79.8C183.4 79.85 184.6 80.9 184.65 83.4C184.75 88 184.75 92.6 184.65 97.25C184.6 99.6 183.25 100.75 180.9 100.8C178.8 100.85 176.7 100.7 174.6 100.85C173.95 100.9 173 101.55 172.75 102.2C172.5 102.8 172.75 103.9 173.2 104.4C174.6 106.05 176.25 107.5 177.75 109.05C179.4 110.8 179.45 112.3 177.75 114C174.5 117.35 171.15 120.65 167.75 123.85C166.05 125.45 164.5 125.4 162.8 123.75C161.55 122.6 160.4 121.35 159.25 120.2C157.3 118.25 157.3 118.25 154.6 119.35C154.6 121.7 154.65 124.05 154.6 126.4C154.55 129.7 153.45 130.7 150.1 130.75C149.15 130.95 148.3 130.95 147.25 130.95ZM127.85 174.3C127.85 173.2 127.85 172.4 127.85 171.55C127.85 161.7 127.85 151.85 127.85 142C127.85 141.15 127.85 140.3 127.95 139.45C128.25 137.75 129.45 136.9 131.05 136.9C132.7 136.85 133.9 137.7 134.25 139.35C134.4 140 134.35 140.75 134.35 141.4C134.35 153.1 134.35 164.75 134.35 176.4C134.35 179.9 133.35 180.85 129.85 180.85C97.4998 180.85 65.1498 180.85 32.7998 180.85C28.8998 180.85 28.1498 180.05 28.1498 176.2C28.1498 132.35 28.1498 88.6 28.1498 44.75C28.1498 41.4 29.1498 40.35 32.5498 40.35C37.3498 40.35 42.1998 40.35 46.9998 40.35C51.6998 40.35 56.4498 40.35 61.1998 40.35C61.1998 38.15 61.1998 36.15 61.1998 34.15C48.0498 34.15 35.0998 34.15 21.9998 34.15C21.9998 85.15 21.9998 136.1 21.9998 186.95C61.5998 186.95 101.05 186.95 140.4 186.95C140.4 168.15 140.4 149.55 140.4 130.85C139.25 130.8 138.3 130.75 137.3 130.7C134.35 130.55 133.4 129.6 133.4 126.7C133.4 124.6 133.5 122.5 133.35 120.4C133.3 119.8 132.65 119 132 118.75C131.45 118.55 130.4 118.65 129.95 119.05C128.2 120.55 126.7 122.3 124.95 123.8C123.2 125.3 121.75 125.25 120.15 123.65C116.85 120.45 113.6 117.2 110.35 113.9C108.6 112.15 108.65 110.65 110.4 108.8C111.9 107.25 113.5 105.8 114.95 104.15C115.35 103.7 115.6 102.6 115.35 102.1C115.05 101.5 114.15 100.75 113.5 100.7C111.25 100.5 108.9 100.6 106.55 100.5C104.3 100.4 103.25 99.35 103.25 97.1C103.2 92.5 103.2 87.9 103.25 83.25C103.25 80.9 104.45 79.75 106.7 79.7C108.9 79.65 111.2 79.8 113.4 79.6C114.05 79.55 114.95 78.8 115.25 78.2C115.5 77.7 115.3 76.6 114.9 76.15C113.5 74.5 111.9 73.05 110.4 71.45C108.6 69.55 108.55 68.1 110.35 66.2C113.5 63 116.65 59.85 119.85 56.75C121.75 54.9 123.35 54.95 125.35 56.8C126.85 58.25 128.25 59.85 129.85 61.2C130.35 61.6 131.5 61.7 132.2 61.45C132.75 61.25 133.35 60.3 133.4 59.7C133.55 57.5 133.4 55.25 133.45 53C133.5 50.85 134.65 49.7 136.8 49.6C138.05 49.55 139.25 49.6 140.35 49.6C140.35 44.3 140.35 39.3 140.35 34.25C127.2 34.25 114.25 34.25 101.15 34.25C101.15 36.3 101.15 38.3 101.15 40.4C104.3 40.4 107.3 40.4 110.3 40.4C115.25 40.4 120.2 40.35 125.2 40.4C128.05 40.45 129.65 42.55 128.65 45C127.85 46.9 126.2 47.05 124.45 47.05C98.7998 47.05 73.1498 47 47.4998 47C43.2498 47 38.9498 47 34.6998 47C34.6998 89.5 34.6998 131.8 34.6998 174.2C65.8998 174.3 96.7498 174.3 127.85 174.3ZM165.05 63.45C163.45 65.15 161.9 66.7 160.45 68.3C159.2 69.65 157.8 69.9 156.1 69.15C154.4 68.35 152.7 67.55 150.9 67.05C148.65 66.4 147.75 65 147.8 62.75C147.85 60.7 147.8 58.6 147.8 56.5C145.1 56.5 142.7 56.5 140.2 56.5C140.1 59.1 139.95 61.6 139.85 64.1C139.8 65.55 139 66.3 137.7 66.85C135.85 67.45 134.1 68.25 132.25 69C130.45 69.8 128.8 69.9 127.3 68.3C125.85 66.7 124.4 65.15 123.1 63.75C121.05 65.75 119.25 67.5 117.1 69.65C118.6 70.95 120.15 72.35 121.75 73.75C123.3 75.1 123.5 76.65 122.7 78.45C122 80.1 121.2 81.75 120.7 83.45C120.05 85.55 118.75 86.5 116.5 86.5C114.4 86.45 112.25 86.5 110.15 86.5C110.15 89.3 110.15 91.75 110.15 94.4C112.4 94.4 114.5 94.45 116.6 94.4C118.75 94.35 119.95 95.35 120.6 97.35C121.15 99.05 121.8 100.8 122.6 102.35C123.6 104.2 123.25 105.65 121.75 107C120.15 108.45 118.55 109.9 117.2 111.1C119.3 113.25 121.05 115.05 123.2 117.3C124.6 115.7 126 113.9 127.55 112.35C128.9 110.95 130.55 110.75 132.3 111.75C133.75 112.55 135.3 113.2 136.9 113.7C139.1 114.4 140.05 115.8 140 118.1C139.95 120.15 140 122.25 140 124.3C142.75 124.3 145.15 124.3 147.9 124.3C147.9 121.65 147.9 119.25 147.9 116.8C147.9 115.25 148.85 114.4 150.25 113.95C152 113.35 153.75 112.65 155.4 111.8C157.35 110.75 159 110.95 160.5 112.6C161.95 114.15 163.4 115.75 164.65 117.15C166.8 115.05 168.6 113.25 170.65 111.3C169.15 109.9 167.6 108.4 165.95 106.95C164.35 105.6 164.2 104.1 165.1 102.3C165.95 100.7 166.65 99 167.15 97.3C167.8 95.15 169.15 94.25 171.35 94.3C173.45 94.35 175.65 94.3 177.75 94.3C177.75 91.55 177.75 89.15 177.75 86.4C175.25 86.4 172.95 86.4 170.55 86.4C168.8 86.4 167.75 85.6 167.25 83.85C166.8 82.25 166.1 80.7 165.4 79.2C164.1 76.55 164.2 75.6 166.35 73.4C167.75 71.95 169.15 70.55 170.5 69.15C168.75 67.15 167.05 65.4 165.05 63.45ZM57.3498 27.5C59.2998 27.5 60.9998 27.5 62.7998 27.5C67.0998 27.55 67.8998 28.35 67.9998 32.6C68.0498 35.15 67.9998 37.7 67.9998 40.3C76.9498 40.3 85.6498 40.3 94.4998 40.3C94.4998 37.3 94.4998 34.45 94.4998 31.6C94.4998 28.65 95.6498 27.55 98.5998 27.55C100.65 27.55 102.75 27.55 104.95 27.55C104.95 22.5 104.95 17.65 104.95 12.75C88.9998 12.75 73.1498 12.75 57.2998 12.75C57.3498 17.75 57.3498 22.5 57.3498 27.5Z" fill="#025FAC"/>
<path d="M153.55 149.25C153.55 146.3 153.55 143.4 153.55 140.45C153.6 137.9 154.55 136.75 157 136.75C163.15 136.65 169.3 136.7 175.4 136.75C177.75 136.75 178.9 137.9 178.95 140.2C179.05 146.35 179.05 152.5 178.95 158.6C178.9 160.95 177.55 162.2 175.25 162.2C169.25 162.25 163.25 162.25 157.25 162.2C154.7 162.15 153.6 160.95 153.55 158.45C153.55 155.4 153.55 152.3 153.55 149.25ZM160.2 155.55C164.4 155.55 168.35 155.55 172.3 155.55C172.3 151.4 172.3 147.4 172.3 143.4C168.15 143.4 164.25 143.4 160.2 143.4C160.2 147.5 160.2 151.45 160.2 155.55Z" fill="#025FAC"/>
<path d="M166.25 193.9C163.2 193.9 160.1 193.9 157.05 193.9C154.9 193.9 153.65 192.75 153.6 190.6C153.55 184.25 153.55 177.9 153.6 171.6C153.6 169.65 154.8 168.45 156.75 168.4C163.1 168.35 169.45 168.35 175.75 168.4C177.6 168.4 178.85 169.6 178.9 171.4C179 177.85 179.05 184.35 178.95 190.85C178.9 192.8 177.45 193.9 175.45 193.95C172.35 193.95 169.3 193.9 166.25 193.9ZM172.3 187.2C172.3 183 172.3 179.1 172.3 175.15C168.2 175.15 164.25 175.15 160.2 175.15C160.2 179.25 160.2 183.15 160.2 187.2C164.3 187.2 168.2 187.2 172.3 187.2Z" fill="#025FAC"/>
<path d="M81.1492 62.6498C72.9992 62.6498 64.7992 62.6498 56.6492 62.6498C54.1492 62.6498 52.9992 61.7498 52.6992 59.7998C52.4992 58.1498 53.0992 56.8498 54.6992 56.3498C55.5492 56.0998 56.4492 56.0498 57.3992 56.0498C73.2992 56.0498 89.2492 56.0498 105.099 56.0498C105.349 56.0498 105.649 56.0498 105.949 56.0498C108.449 56.1498 109.949 57.4498 109.899 59.4498C109.849 61.4998 108.399 62.6998 105.849 62.6998C97.5992 62.6498 89.3992 62.6498 81.1492 62.6498Z" fill="#025FAC"/>
<path d="M92.95 150.75C84.75 150.75 76.45 150.75 68.25 150.75C65.15 150.75 63.3 148.05 65 145.8C65.65 144.85 67.35 144.2 68.55 144.2C78.9 144.1 89.25 144.15 99.55 144.15C105.55 144.15 111.55 144.15 117.55 144.15C119.1 144.15 120.5 144.45 121.25 145.95C122.4 148.35 120.8 150.7 117.9 150.75C111.3 150.8 104.6 150.75 98 150.75C96.3 150.75 94.65 150.75 92.95 150.75Z" fill="#025FAC"/>
<path d="M92.9498 165.5C84.7998 165.5 76.5998 165.5 68.4498 165.5C66.7498 165.5 65.2498 165.25 64.5998 163.35C63.9498 161.4 64.9998 159.45 67.0498 159.1C67.8998 158.95 68.6998 158.95 69.5498 158.95C85.1998 158.95 100.8 158.95 116.5 158.95C117.15 158.95 117.9 158.95 118.55 159C120.5 159.25 121.65 160.5 121.5 162.35C121.35 164.15 120.4 165.35 118.45 165.45C117.85 165.5 117.2 165.5 116.6 165.5C108.7 165.5 100.85 165.5 92.9498 165.5Z" fill="#025FAC"/>
<path d="M95.5494 136.1C88.1494 136.1 80.7494 136.1 73.3994 136.1C70.7494 136.1 69.4494 134.7 69.7494 132.45C69.8994 130.95 70.6994 129.95 72.1994 129.7C73.0494 129.55 73.8494 129.55 74.6994 129.55C88.6994 129.55 102.699 129.55 116.799 129.55C117.149 129.55 117.499 129.55 117.849 129.55C120.449 129.65 121.799 130.85 121.699 132.95C121.649 135 120.349 136.1 117.849 136.1C110.349 136.1 102.949 136.1 95.5494 136.1Z" fill="#025FAC"/>
<path d="M85.6991 121.4C79.9491 121.4 74.1991 121.4 68.4991 121.4C65.8491 121.4 64.4491 120.3 64.3991 118.25C64.2991 116.15 65.8491 114.8 68.4991 114.8C79.9991 114.8 91.3991 114.8 102.849 114.8C105.549 114.8 107.049 116.1 106.949 118.2C106.899 120.25 105.499 121.4 102.849 121.4C97.1491 121.4 91.4491 121.4 85.6991 121.4Z" fill="#025FAC"/>
<path d="M86.3504 77.3496C82.1004 77.3496 77.8004 77.3496 73.6004 77.3496C71.0004 77.3496 69.6504 76.1996 69.6504 74.0996C69.6504 71.9996 71.0004 70.7496 73.5504 70.7496C82.1004 70.6996 90.5504 70.6996 99.1004 70.7996C100.25 70.7996 101.75 71.2496 102.45 72.0496C103.05 72.6996 103.15 74.1996 103 75.2996C102.7 76.8996 101.25 77.3496 99.8004 77.3996C95.3004 77.3496 90.8504 77.3496 86.3504 77.3496Z" fill="#025FAC"/>
<path d="M46.9997 84.0999C50.5997 80.4999 54.0497 76.9999 57.5497 73.5999C59.6997 71.4999 62.3997 71.9499 63.1997 74.5999C63.4997 75.5999 63.1997 77.2999 62.4997 77.9999C58.1997 82.4499 53.7497 86.7999 49.2497 91.0999C47.8997 92.3999 46.2997 92.2999 44.8997 90.9999C43.0497 89.2999 41.2497 87.5499 39.4997 85.7499C38.0497 84.2499 38.1497 82.4999 39.5997 81.0999C40.9497 79.7499 42.7997 79.6999 44.2497 81.0999C45.1497 82.0499 45.9497 83.0499 46.9997 84.0999Z" fill="#025FAC"/>
<path d="M80.1996 92.05C76.2496 92.05 72.3996 92.05 68.4496 92.05C65.7996 92.05 64.3996 90.9 64.3996 88.85C64.3496 86.75 65.8497 85.45 68.5497 85.45C76.3497 85.45 84.1996 85.4 91.9996 85.45C94.5996 85.45 95.9496 86.65 95.8996 88.8C95.8996 90.9 94.5496 92.05 91.9496 92.05C88.0496 92.05 84.0996 92.05 80.1996 92.05Z" fill="#025FAC"/>
<path d="M47.0505 113.55C50.7005 109.95 54.1505 106.45 57.6005 103.05C59.2505 101.45 60.9505 101.35 62.4005 102.75C63.7505 104.05 63.9005 105.95 62.4505 107.45C58.1005 111.9 53.7005 116.3 49.2505 120.6C47.8505 121.95 46.1505 121.85 44.7505 120.5C42.9505 118.8 41.1505 117 39.4505 115.2C38.1505 113.85 38.2005 112.25 39.4505 110.9C40.6505 109.5 42.5505 109.25 43.9505 110.4C45.0005 111.2 45.9005 112.35 47.0505 113.55Z" fill="#025FAC"/>
<path d="M46.9495 142.95C50.6495 139.25 54.0995 135.8 57.5495 132.4C59.2495 130.7 60.8495 130.55 62.2995 131.9C63.8495 133.3 63.9495 135.25 62.3495 136.9C58.0995 141.25 53.7495 145.5 49.4495 149.7C48.0495 151.05 46.3995 151.15 44.9495 149.8C43.0495 148.05 41.2495 146.25 39.4495 144.3C38.0495 142.8 38.2495 141.05 39.7495 139.7C41.0995 138.45 42.7995 138.5 44.2495 139.85C45.1495 140.9 45.9495 141.9 46.9495 142.95Z" fill="#025FAC"/>
<path d="M84.3492 106.75C80.7492 106.75 77.0492 106.75 73.4492 106.75C70.9492 106.75 69.6992 105.6 69.6992 103.55C69.6992 101.45 70.9492 100.25 73.3992 100.2C80.9492 100.15 88.4992 100.15 96.0492 100.2C98.4492 100.2 99.6992 101.55 99.5992 103.65C99.5492 105.6 98.1992 106.7 95.8992 106.75C91.9992 106.8 88.1492 106.75 84.3492 106.75Z" fill="#025FAC"/>
<path d="M128.949 89.9502C128.949 82.0002 135.749 75.2502 143.899 75.2002C152.249 75.2002 159.099 82.0502 159.049 90.4502C158.999 98.5002 152.049 105.3 143.949 105.3C135.549 105.35 128.949 98.5502 128.949 89.9502ZM135.599 90.0002C135.549 94.9002 139.099 98.7002 143.799 98.7502C148.399 98.8002 152.349 95.0502 152.349 90.5002C152.399 85.7502 148.649 81.9002 143.899 81.9002C139.349 81.9002 135.599 85.5002 135.599 90.0002Z" fill="#025FAC"/>
<path d="M81.1496 23.4501C78.6996 23.4501 76.2496 23.5001 73.7996 23.4501C71.5496 23.3501 70.3496 22.1001 70.3496 20.1001C70.3996 18.1501 71.6496 16.9501 73.9496 16.9501C78.7496 16.9001 83.5496 16.9001 88.3996 16.9501C90.7496 16.9501 91.9496 18.1001 92.0496 20.1001C92.1496 22.1501 90.8496 23.4001 88.4496 23.5001C86.0996 23.5001 83.6496 23.4501 81.1496 23.4501Z" fill="#025FAC"/>
</svg>
