<svg width="200" height="200" viewBox="0 0 200 200" fill="none" xmlns="http://www.w3.org/2000/svg">
<path d="M77.5506 156.25C77.5506 156.75 77.5506 157.2 77.5506 157.65C77.5506 161.1 77.5506 164.55 77.5506 168C77.5006 173.15 74.2006 176.5 69.0506 176.5C63.5006 176.55 57.9506 176.5 52.3506 176.5C51.9006 176.5 51.4506 176.5 50.8006 176.5C51.1506 178.05 51.4006 179.55 51.8006 180.95C51.9006 181.2 52.6006 181.4 53.0506 181.4C56.8506 181.7 59.6506 184 60.2506 187.45C60.4506 188.55 60.4006 189.7 60.3506 190.8C60.2506 192.05 59.3506 192.75 57.9006 192.75C53.8006 192.75 49.7006 192.75 45.6006 192.75C39.4006 192.75 33.2506 192.75 27.0506 192.75C24.9006 192.75 24.2506 192.05 24.2506 189.9C24.2006 185.5 26.0506 182.8 29.6506 181.7C29.8506 181.65 30.0506 181.6 30.2506 181.55C31.1006 181.4 32.2506 181.55 32.8006 181.05C33.3506 180.55 33.3006 179.45 33.5006 178.6C33.6506 177.95 33.8006 177.3 34.0006 176.55C33.4506 176.55 33.0006 176.55 32.5506 176.55C27.0006 176.55 21.4506 176.55 15.8506 176.55C10.3506 176.55 7.10059 173.3 7.10059 167.8C7.10059 157 7.10059 146.2 7.10059 135.45C7.10059 131.3 9.40059 128.15 13.1506 127.25C14.0006 127.05 14.9506 127.05 15.8506 127.05C23.4006 127.05 30.9506 127.05 38.5006 127.05C39.0006 127.05 39.5006 127.05 40.0506 127.05C40.0506 121.2 40.0506 115.5 40.0506 110.05C38.5006 109.1 36.8506 108.45 35.6506 107.35C29.9506 102.25 31.8506 93.0002 39.0506 90.5502C39.9006 90.2502 40.1506 89.8502 40.1506 89.0002C40.1006 84.0502 40.1506 79.1002 40.1506 74.2002C40.1506 73.8502 40.1006 73.4502 40.1006 72.9502C39.6006 72.9502 39.2006 72.9002 38.7506 72.9002C34.8506 72.9002 30.9506 72.9002 27.0506 72.9002C24.9006 72.9002 24.3506 72.2002 24.2506 70.0502C24.0006 65.2502 26.6506 62.7502 29.8006 61.8502C30.0506 61.8002 30.3006 61.7002 30.5006 61.7002C32.8506 61.4502 32.8506 61.4502 33.4506 59.1502C33.6506 58.4002 33.8006 57.6002 34.0506 56.7002C33.5506 56.7002 33.1006 56.7002 32.6506 56.7002C27.0006 56.7002 21.3506 56.7002 15.7006 56.7002C10.4506 56.7002 7.15059 53.4002 7.10059 48.1502C7.10059 37.4502 7.10059 26.7502 7.10059 16.0502C7.10059 10.8002 10.4006 7.4502 15.6506 7.4502C33.4006 7.4502 51.1506 7.4502 68.9506 7.4502C74.2506 7.4502 77.5506 10.7502 77.5506 16.1002C77.5506 24.7502 77.5506 33.3502 77.5506 42.0002C77.5506 42.5002 77.5506 43.0502 77.5506 43.6502C81.8506 43.6502 86.0006 43.6502 90.2006 43.6502C90.3506 43.2502 90.4506 42.8502 90.6006 42.5002C92.0006 38.6002 95.8506 35.8502 99.8506 35.9002C104.251 35.9002 108.051 38.5002 109.401 42.5502C109.751 43.5002 110.151 43.8002 111.101 43.8002C114.401 43.7502 117.751 43.8002 121.051 43.7502C121.451 43.7502 121.851 43.7002 122.451 43.7002C122.451 43.1002 122.451 42.6002 122.451 42.0502C122.451 33.4002 122.451 24.7002 122.451 16.0502C122.451 11.9502 124.601 8.8502 128.201 7.8502C129.101 7.6002 130.101 7.5502 131.051 7.5502C148.751 7.5502 166.501 7.5502 184.201 7.5502C189.501 7.5502 192.851 10.8502 192.851 16.1502C192.851 27.0002 192.851 37.9002 192.851 48.7502C192.851 53.2002 189.201 56.7002 184.551 56.7502C178.801 56.8002 173.101 56.7502 167.351 56.7502C166.901 56.7502 166.451 56.7502 165.901 56.7502C166.251 58.2502 166.551 59.6502 167.001 60.9502C167.101 61.2502 167.601 61.6502 167.901 61.6502C172.251 61.5502 176.101 65.1502 175.401 71.0002C175.251 72.2502 174.451 72.9502 173.001 72.9502C169.101 72.9502 165.201 72.9502 161.301 72.9502C160.851 72.9502 160.401 72.9502 159.851 72.9502C159.851 78.8002 159.851 84.5002 159.851 90.2002C164.601 91.7002 167.401 94.9002 167.601 99.9502C167.751 104.4 165.351 107.35 159.801 109.9C159.801 115.55 159.801 121.25 159.801 127.1C160.301 127.1 160.801 127.1 161.301 127.1C168.901 127.1 176.501 127.25 184.101 127.05C189.051 126.9 192.951 130.7 192.901 135.85C192.801 146.5 192.851 157.2 192.901 167.85C192.901 171.9 190.201 176.8 184.101 176.7C178.601 176.6 173.051 176.7 167.551 176.7C167.101 176.7 166.651 176.7 166.001 176.7C166.401 178.25 166.701 179.75 167.151 181.2C167.251 181.45 167.901 181.6 168.301 181.65C170.551 181.75 172.351 182.7 173.801 184.35C175.551 186.4 175.651 188.8 175.401 191.3C175.301 192.4 174.301 192.95 172.851 192.95C166.801 192.95 160.751 192.95 154.701 192.95C150.501 192.95 146.301 192.95 142.151 192.95C140.101 192.95 139.401 192.25 139.351 190.2C139.301 185.8 141.101 182.95 144.801 181.9C145.601 181.7 146.451 181.6 147.251 181.6C148.001 181.6 148.251 181.35 148.401 180.65C148.601 179.4 148.901 178.15 149.251 176.7C148.701 176.7 148.251 176.7 147.801 176.7C142.301 176.7 136.851 176.55 131.351 176.75C125.651 176.9 122.351 172.65 122.501 167.9C122.601 164.2 122.501 160.5 122.501 156.8C122.501 156.7 122.451 156.65 122.401 156.45C118.251 156.45 114.101 156.45 109.851 156.45C109.751 156.8 109.601 157.2 109.451 157.6C108.001 161.6 104.201 164.2 99.8506 164.2C95.8506 164.2 92.0006 161.45 90.6506 157.55C90.3006 156.55 89.9006 156.3 88.9006 156.3C85.6006 156.35 82.2506 156.3 78.9506 156.35C78.5006 156.2 78.1006 156.2 77.5506 156.25ZM122.401 151.85C122.401 151.3 122.401 150.85 122.401 150.4C122.401 145.4 122.451 140.45 122.401 135.45C122.301 130.35 126.451 126.8 130.901 126.9C138.301 127.1 145.651 126.95 153.051 126.95C153.801 126.95 154.601 126.95 155.401 126.95C155.401 121.05 155.401 115.35 155.401 109.7C150.851 107.95 149.751 106.85 147.951 102.45C147.801 102.1 147.451 101.85 147.101 101.6C146.051 100.8 145.701 99.2002 146.701 98.5002C147.801 97.7002 148.001 96.5502 148.551 95.5502C149.201 94.4502 149.901 93.3002 150.851 92.5002C152.151 91.4002 153.751 90.6502 155.301 89.7502C155.301 84.2502 155.301 78.5502 155.301 72.7502C154.701 72.7502 154.151 72.7502 153.601 72.7502C149.601 72.7502 145.651 72.7502 141.651 72.7502C140.501 72.7502 139.451 72.3502 139.301 71.2002C138.651 67.1502 139.901 63.3002 144.301 61.8502C145.401 61.5002 146.651 61.5002 148.001 61.3002C148.301 59.8502 148.651 58.2502 149.051 56.5502C148.401 56.5502 147.951 56.5502 147.501 56.5502C141.801 56.5502 136.151 56.5502 130.451 56.5502C126.601 56.5502 123.551 54.2002 122.651 50.6502C122.451 49.8002 122.401 48.8502 122.251 47.9002C118.051 47.9002 113.901 47.9002 109.751 47.9002C107.701 53.1502 104.251 55.8502 99.7506 55.7502C95.3506 55.6502 92.0506 53.0002 90.1006 47.9002C85.9506 47.9002 81.7506 47.9002 77.6006 47.9002C77.4506 48.9502 77.4506 49.9502 77.2006 50.9002C76.3506 54.2002 73.1006 56.5502 69.3006 56.5502C63.6006 56.6002 57.9506 56.5502 52.2506 56.5502C51.8006 56.5502 51.3506 56.5502 50.9506 56.5502C50.9006 56.7502 50.9006 56.8502 50.9006 56.9502C51.0506 57.8002 51.2506 58.6502 51.4006 59.5002C51.8006 61.4002 51.8006 61.4002 53.8006 61.5502C54.1506 61.6002 54.5506 61.6502 54.9006 61.7502C58.6006 62.8002 60.4506 65.6502 60.4006 70.0502C60.4006 72.0002 59.6506 72.8002 57.7006 72.8002C54.1006 72.8002 50.5006 72.8002 46.8506 72.8002C46.1006 72.8002 45.3006 72.8002 44.4506 72.8002C44.4506 78.7002 44.4506 84.4002 44.4506 90.1002C48.6006 91.6502 50.5506 93.5002 51.7506 96.7502C51.9506 97.3002 52.3506 97.8002 52.8006 98.1502C53.8006 99.0002 54.1506 100.65 53.1506 101.3C52.1006 102 51.8506 103 51.4006 104C50.6006 105.85 49.3506 107.3 47.6506 108.35C46.6506 108.95 45.6006 109.35 44.5506 109.85C44.5506 115.55 44.5506 121.25 44.5506 127C44.9506 127 45.3006 127.05 45.6006 127.05C53.2506 127.05 60.9506 127.05 68.6006 127.05C69.5506 127.05 70.5506 127.05 71.4506 127.3C75.1506 128.25 77.4506 131.4 77.5006 135.55C77.5506 140.55 77.5006 145.6 77.5006 150.6C77.5006 151.05 77.5006 151.45 77.5006 151.95C81.8506 151.95 85.9506 151.95 90.1506 151.95C91.3506 147.7 94.1006 145.15 98.4006 144.2C97.6006 142.7 97.6506 141.65 98.6006 140.9C99.4506 140.2 100.401 140.25 101.251 140.8C102.251 141.45 102.351 142.55 101.601 144.25C105.901 145.15 108.601 147.8 109.801 151.95C114.001 151.85 118.101 151.85 122.401 151.85ZM126.851 41.5002C127.551 41.5002 128.051 41.5002 128.601 41.5002C147.651 41.5002 166.651 41.5002 185.701 41.5002C186.301 41.5002 186.851 41.4502 187.451 41.5002C188.251 41.5502 188.501 41.2502 188.501 40.4502C188.501 32.2502 188.501 24.0502 188.501 15.8002C188.501 13.0002 187.101 11.7002 184.351 11.7002C166.551 11.7002 148.751 11.7002 131.001 11.6502C128.601 11.6502 126.801 13.2502 126.851 15.7502C126.951 23.9002 126.901 32.1002 126.901 40.2502C126.851 40.6002 126.851 40.9502 126.851 41.5002ZM73.1506 41.4002C73.1506 40.9002 73.1506 40.5002 73.1506 40.1002C73.1506 32.0502 73.0506 24.0002 73.2006 15.9502C73.2506 13.1002 71.4506 11.6002 68.8506 11.6002C51.2006 11.6502 33.5006 11.6502 15.8506 11.6502C15.8006 11.6502 15.7506 11.6502 15.7506 11.6502C12.8506 11.6502 11.5006 12.9502 11.5006 15.9502C11.5006 24.0502 11.5006 32.1502 11.5006 40.2002C11.5006 40.5502 11.5506 40.9502 11.5506 41.4002C32.1006 41.4002 52.5506 41.4002 73.1506 41.4002ZM188.501 161.05C188.501 160.5 188.501 160.15 188.501 159.8C188.501 151.75 188.501 143.7 188.501 135.65C188.501 132.6 187.151 131.25 184.101 131.25C166.501 131.25 148.851 131.25 131.251 131.25C128.151 131.25 126.851 132.55 126.851 135.65C126.851 142.3 126.851 148.9 126.801 155.55C126.801 157.35 126.801 159.15 126.801 161.05C147.401 161.05 167.851 161.05 188.501 161.05ZM11.5006 161.05C32.1006 161.05 52.6006 161.05 73.1006 161.05C73.1006 160.55 73.1506 160.15 73.1506 159.75C73.1506 151.7 73.1506 143.65 73.1506 135.6C73.1506 132.55 71.8506 131.25 68.7506 131.25C51.1506 131.25 33.5006 131.25 15.9006 131.25C12.8506 131.25 11.5006 132.6 11.5006 135.65C11.5006 141.8 11.5006 147.95 11.5006 154.05C11.5006 156.35 11.5006 158.65 11.5006 161.05ZM11.5006 165.55C11.5006 166.2 11.5506 166.65 11.5006 167.1C11.2006 170.45 12.7006 172.2 16.5006 172.15C33.8506 172.05 51.1506 172.1 68.5006 172.1C69.0506 172.1 69.6006 172.1 70.1006 172.05C71.5006 171.9 72.9506 170.7 73.1006 169.3C73.2506 168.1 73.1506 166.85 73.1506 165.55C52.5506 165.55 32.1006 165.55 11.5006 165.55ZM126.801 165.55C126.801 166.5 126.801 167.3 126.801 168.05C126.851 170.75 128.201 172.1 130.851 172.1C142.751 172.1 154.651 172.1 166.551 172.1C172.501 172.1 178.401 172.1 184.351 172.1C186.001 172.1 187.251 171.5 188.001 170C188.701 168.55 188.551 167.05 188.351 165.5C167.801 165.55 147.401 165.55 126.801 165.55ZM11.5006 45.8502C11.5006 46.8502 11.4506 47.8002 11.5006 48.7002C11.7006 50.8002 12.9006 51.9502 15.0506 52.1502C15.5006 52.2002 15.9506 52.2002 16.4006 52.2002C27.0006 52.2002 37.6006 52.1502 48.2506 52.1502C55.1506 52.1502 62.0006 52.2002 68.9006 52.2002C71.1006 52.2002 72.8506 51.1502 73.0506 49.6002C73.2006 48.4002 73.1006 47.1502 73.1006 45.9002C52.5006 45.8502 32.1006 45.8502 11.5006 45.8502ZM188.551 45.9002C167.901 45.9002 147.401 45.9002 126.851 45.9002C126.851 46.9002 126.701 47.8002 126.901 48.7002C127.051 49.5002 127.401 50.3502 127.851 51.0002C128.651 52.1502 129.951 52.1502 131.251 52.1502C138.601 52.1502 145.901 52.1502 153.251 52.1502C163.551 52.1502 173.801 52.1502 184.101 52.1502C184.501 52.1502 184.951 52.1002 185.351 52.0502C186.901 51.8502 188.151 50.7502 188.401 49.2002C188.501 48.1502 188.501 47.1002 188.551 45.9002ZM105.601 154.05C105.601 150.95 103.201 148.4 100.201 148.35C96.9506 148.3 94.4006 150.75 94.4006 154C94.4006 157.25 96.9006 159.7 100.151 159.65C103.151 159.65 105.601 157.15 105.601 154.05ZM105.601 45.6502C105.601 42.5502 103.151 40.0502 100.151 40.0502C96.8506 40.0502 94.4006 42.5002 94.4006 45.7502C94.4006 48.9502 96.9506 51.4002 100.251 51.3502C103.201 51.3002 105.601 48.7502 105.601 45.6502ZM42.3506 105.45C45.5506 105.45 47.9506 103.05 48.0006 99.9002C48.0506 96.7002 45.6006 94.2502 42.3506 94.2502C39.2006 94.2502 36.7506 96.6502 36.7006 99.8002C36.7006 103 39.1006 105.45 42.3506 105.45ZM163.251 99.8002C163.251 96.6002 160.751 94.2002 157.501 94.2502C154.351 94.2502 151.951 96.7502 151.951 99.9002C151.951 103.1 154.401 105.5 157.701 105.45C160.851 105.45 163.251 102.95 163.251 99.8002ZM170.951 68.4002C170.651 66.6502 169.601 65.8002 167.651 65.8002C163.101 65.8002 158.551 65.7502 153.951 65.7502C151.601 65.7502 149.201 65.7502 146.851 65.8002C145.001 65.8502 143.951 66.7502 143.751 68.4002C152.801 68.4002 161.851 68.4002 170.951 68.4002ZM28.8506 68.4002C37.8506 68.4002 46.8506 68.4002 55.9006 68.4002C55.7506 66.6502 54.6006 65.8002 52.4506 65.8002C46.8506 65.8002 41.2506 65.8002 35.6506 65.8002C34.1006 65.8002 32.5006 65.8002 30.9506 66.0002C29.5506 66.2002 28.9006 67.0502 28.8506 68.4002ZM143.751 188.3C152.851 188.3 161.901 188.3 170.901 188.3C170.701 186.65 169.651 185.8 167.901 185.75C165.601 185.7 163.351 185.75 161.051 185.75C156.351 185.75 151.701 185.75 147.001 185.75C145.101 185.75 144.101 186.55 143.751 188.3ZM55.9506 188.3C55.6006 186.55 54.6006 185.75 52.7006 185.75C47.9006 185.75 43.1006 185.75 38.2506 185.75C36.1006 185.75 33.9506 185.75 31.8006 185.75C30.0506 185.75 29.0006 186.65 28.8006 188.3C37.8006 188.3 46.8006 188.3 55.9506 188.3ZM38.5006 56.6002C38.1006 58.2002 37.7006 59.8002 37.3006 61.4002C40.7506 61.4002 44.0506 61.4002 47.4006 61.4002C47.0506 59.7002 46.7006 58.1502 46.3506 56.6002C43.7006 56.6002 41.1506 56.6002 38.5006 56.6002ZM162.651 61.4502C162.201 59.7502 161.851 58.1502 161.451 56.6002C158.751 56.6002 156.201 56.6002 153.601 56.6002C153.251 58.2002 152.901 59.8002 152.551 61.4502C155.901 61.4502 159.151 61.4502 162.651 61.4502ZM37.3506 181.35C40.8506 181.35 44.0506 181.35 47.4506 181.35C47.1006 179.7 46.7506 178.15 46.4506 176.6C43.7506 176.6 41.1506 176.6 38.5506 176.6C38.1006 178.15 37.7506 179.65 37.3506 181.35ZM162.651 181.35C162.201 179.65 161.851 178.1 161.451 176.55C158.751 176.55 156.201 176.55 153.601 176.55C153.251 178.15 152.901 179.7 152.551 181.35C155.951 181.35 159.151 181.35 162.651 181.35Z" fill="#025FAC"/>
<path d="M98.3503 84.1001C97.6503 82.5001 97.7503 81.5501 98.6503 80.8001C99.4003 80.1501 100.65 80.2001 101.4 80.8501C102.25 81.6001 102.35 82.5501 101.6 84.1001C106.9 84.9001 111.05 87.4501 113.75 92.1501C115.75 95.6501 116.3 99.4001 115.4 103.3C113.7 110.9 107 116.05 99.4503 115.6C90.5503 115.1 84.3503 108.75 84.2003 100.05C84.0503 92.2501 89.4503 85.3501 98.3503 84.1001ZM111.45 100C111.5 93.7001 106.35 88.3501 100.25 88.3501C93.8503 88.3501 88.6503 93.3501 88.5503 99.6001C88.4503 106.1 93.5503 111.2 100.2 111.3C106.15 111.4 111.4 106.15 111.45 100Z" fill="#025FAC"/>
<path d="M102.151 59.2496C102.151 60.4496 101.201 61.3996 99.9508 61.4496C98.8508 61.4996 97.8008 60.4496 97.8008 59.2996C97.8008 58.1496 98.8008 57.0996 99.9008 57.0996C101.101 57.0996 102.151 58.0996 102.151 59.2496Z" fill="#025FAC"/>
<path d="M99.8506 78.85C98.7506 78.85 97.7506 77.75 97.8006 76.6C97.8506 75.5 98.8506 74.5 99.8506 74.5C101.151 74.5 102.201 75.5 102.151 76.75C102.101 77.95 101.101 78.85 99.8506 78.85Z" fill="#025FAC"/>
<path d="M99.9008 117.1C101.151 117.1 102.151 118.1 102.151 119.25C102.151 120.45 101.051 121.5 99.8008 121.45C98.7508 121.4 97.8008 120.4 97.8008 119.3C97.8008 118.15 98.8508 117.1 99.9008 117.1Z" fill="#025FAC"/>
<path d="M99.8506 127.2C98.7506 127.15 97.7506 126.1 97.8006 124.95C97.8506 123.8 98.8506 122.85 100.001 122.9C101.301 122.95 102.201 123.9 102.151 125.1C102.101 126.3 101.051 127.25 99.8506 127.2Z" fill="#025FAC"/>
<path d="M99.9008 138.8C98.7508 138.8 97.8008 137.8 97.8008 136.65C97.8008 135.5 98.8508 134.5 99.9508 134.5C101.201 134.55 102.201 135.5 102.201 136.7C102.151 137.85 101.151 138.8 99.9008 138.8Z" fill="#025FAC"/>
<path d="M59.6 99.9002C59.6 101 58.55 102 57.4 102C56.25 102 55.25 101 55.25 99.8502C55.25 98.6502 56.35 97.6002 57.5 97.6502C58.6 97.7002 59.6 98.7502 59.6 99.9002Z" fill="#025FAC"/>
<path d="M144.75 99.8C144.8 100.9 143.8 101.95 142.65 102C141.5 102.05 140.45 101.05 140.4 99.95C140.35 98.75 141.4 97.7 142.6 97.7C143.7 97.65 144.75 98.65 144.75 99.8Z" fill="#025FAC"/>
<path d="M121.601 99.8502C121.601 100.95 120.551 101.95 119.401 101.95C118.251 101.95 117.251 100.95 117.201 99.8502C117.201 98.6502 118.251 97.6002 119.451 97.6502C120.601 97.7002 121.601 98.7502 121.601 99.8502Z" fill="#025FAC"/>
<path d="M82.7506 99.9002C82.7006 101 81.6506 102 80.5006 101.95C79.3506 101.9 78.3506 100.9 78.3506 99.8002C78.3506 98.6002 79.4506 97.6002 80.6506 97.6502C81.8006 97.7502 82.8006 98.8002 82.7506 99.9002Z" fill="#025FAC"/>
<path d="M65.35 99.9002C65.35 101.05 64.35 102 63.15 102C62 102 61 101 61 99.8502C61 98.6502 62.05 97.6002 63.25 97.6502C64.4 97.7002 65.4 98.7502 65.35 99.9002Z" fill="#025FAC"/>
<path d="M138.95 99.8504C138.95 101 138 102 136.85 102C135.7 102 134.65 101.05 134.65 99.9004C134.6 98.7004 135.65 97.6504 136.85 97.6504C137.95 97.7004 138.9 98.6504 138.95 99.8504Z" fill="#025FAC"/>
<path d="M100.001 63C101.301 63.05 102.201 64 102.151 65.2C102.101 66.4 101.101 67.3 99.8008 67.25C98.7008 67.2 97.7008 66.15 97.7508 65C97.8508 63.85 98.8508 62.95 100.001 63Z" fill="#025FAC"/>
<path d="M99.9508 73C98.8008 73 97.8508 72.05 97.8008 70.9C97.8008 69.75 98.8008 68.75 99.9008 68.75C101.151 68.75 102.151 69.7 102.151 70.9C102.201 72.05 101.251 73 99.9508 73Z" fill="#025FAC"/>
<path d="M102.151 130.85C102.151 132.05 101.151 132.95 99.9008 132.95C98.7508 132.95 97.8008 131.95 97.8008 130.8C97.8008 129.65 98.8008 128.65 99.9508 128.7C101.251 128.75 102.201 129.65 102.151 130.85Z" fill="#025FAC"/>
<path d="M127.35 99.9C127.35 101.05 126.35 102 125.15 102C124 102 123 101 123 99.85C123 98.65 124.05 97.65 125.25 97.7C126.45 97.75 127.4 98.75 127.35 99.9Z" fill="#025FAC"/>
<path d="M74.8005 97.6504C75.9505 97.6504 76.9005 98.6504 76.9005 99.8004C76.9005 100.95 75.9505 101.9 74.7505 101.95C73.5505 101.95 72.5005 100.95 72.5505 99.7504C72.6505 98.6004 73.7005 97.6504 74.8005 97.6504Z" fill="#025FAC"/>
<path d="M68.8011 101.951C67.5511 101.851 66.7011 100.801 66.8511 99.5508C67.0011 98.4008 68.1011 97.5508 69.2511 97.7008C70.4511 97.8508 71.2511 98.8508 71.1511 100.051C71.0511 101.201 69.9511 102.101 68.8011 101.951Z" fill="#025FAC"/>
<path d="M131.05 102C129.85 102.05 128.9 101.1 128.85 99.9502C128.8 98.7002 129.8 97.7002 131 97.7002C132.15 97.7002 133.1 98.6502 133.15 99.8502C133.15 101 132.25 101.95 131.05 102Z" fill="#025FAC"/>
<path d="M135.151 20.0502C135.151 22.3002 135.151 24.2502 135.151 26.2502C135.151 27.3502 134.751 28.2002 133.651 28.6002C132.351 29.0502 130.951 28.1502 130.901 26.7002C130.801 23.7002 130.801 20.7502 130.901 17.7502C130.951 16.4002 131.851 15.7002 133.401 15.7002C137.801 15.7002 142.201 15.7002 146.601 15.7002C148.151 15.7002 149.101 16.6002 149.051 17.9002C149.051 19.1002 148.101 20.0002 146.601 20.0002C143.301 20.0502 139.951 20.0002 136.651 20.0002C136.201 20.0502 135.751 20.0502 135.151 20.0502Z" fill="#025FAC"/>
<path d="M20.15 20.0496C20.15 22.1996 20.15 24.1996 20.15 26.1496C20.15 27.6496 19.45 28.5496 18.25 28.6496C16.9 28.7996 15.9 27.9496 15.85 26.5496C15.8 23.6496 15.8 20.7496 15.85 17.8496C15.9 16.4496 16.75 15.6996 18.25 15.6996C22.7 15.6496 27.15 15.6496 31.55 15.6996C33.1 15.6996 34 16.5996 34 17.8996C34 19.0996 33.05 19.9996 31.55 19.9996C28.25 20.0496 25 19.9996 21.7 19.9996C21.25 20.0496 20.8 20.0496 20.15 20.0496Z" fill="#025FAC"/>
<path d="M135.15 139.7C135.15 141.75 135.2 143.7 135.15 145.6C135.15 146.2 135.1 147.05 134.75 147.35C134.15 147.85 133.25 148.25 132.5 148.25C131.55 148.2 130.85 147.4 130.85 146.35C130.8 143.35 130.8 140.4 130.85 137.4C130.85 136.3 131.55 135.65 132.6 135.45C133 135.35 133.4 135.35 133.85 135.35C137.9 135.35 141.95 135.35 146.05 135.35C146.35 135.35 146.65 135.35 146.9 135.4C148.3 135.55 149.1 136.4 149.05 137.65C149 138.9 148.1 139.7 146.75 139.7C143.4 139.7 140.05 139.7 136.7 139.7C136.2 139.7 135.75 139.7 135.15 139.7Z" fill="#025FAC"/>
<path d="M20.1 139.7C20.1 142 20.1 144.2 20.1 146.4C20.1 147.45 19.4 148.2 18.45 148.25C17.75 148.3 16.9 147.9 16.3 147.45C15.95 147.2 15.85 146.5 15.85 146C15.8 143.25 15.8 140.55 15.85 137.8C15.85 136.35 16.55 135.45 18 135.45C22.65 135.4 27.3 135.4 31.9 135.45C33.3 135.45 34.1 136.45 34 137.7C33.95 138.95 33.05 139.75 31.65 139.75C28.3 139.75 24.95 139.75 21.6 139.75C21.2 139.7 20.75 139.7 20.1 139.7Z" fill="#025FAC"/>
</svg>
