<svg width="200" height="200" viewBox="0 0 200 200" fill="none" xmlns="http://www.w3.org/2000/svg">
<path d="M99.1495 103.049C108.35 103.049 117.6 103.049 126.8 103.049C142.45 103.049 158.1 103.049 173.7 103.049C176.7 103.049 179.35 102.249 181.7 100.249C186.2 96.4492 186.25 88.4992 181.7 84.6492C179.35 82.6492 176.75 81.8992 173.7 81.8992C150.05 81.8992 126.35 81.8992 102.7 81.8992C90.0995 81.8992 77.4995 81.8992 64.9495 81.8992C58.1495 81.8992 53.0495 78.8492 49.8995 72.8992C44.3495 62.3992 51.6995 49.4992 63.5995 48.7992C64.2995 48.7492 64.9995 48.7492 65.7495 48.7492C92.2495 48.7492 118.7 48.7492 145.2 48.7492C149.05 48.7492 152.3 47.5492 154.55 44.3492C156.85 41.1492 157.2 37.5992 155.65 33.9992C154.1 30.3992 151.25 28.0492 147.3 27.8492C141.05 27.5492 134.8 27.5992 128.55 27.5992C108.95 27.5992 89.3495 27.5992 69.7495 27.5992C67.1995 27.5992 65.7495 25.9992 66.2995 23.8492C66.5495 22.7992 67.2495 22.1492 68.2495 21.8492C68.7495 21.6992 69.2495 21.6492 69.7495 21.6492C95.1495 21.6492 120.5 21.5992 145.9 21.6492C152.8 21.6492 157.95 24.8992 160.9 31.0492C163.8 37.0492 163.1 42.9492 159.1 48.2492C156.15 52.1492 152.1 54.3492 147.15 54.6492C146.3 54.6992 145.4 54.6992 144.55 54.6992C118.25 54.6992 91.9995 54.6992 65.6995 54.6992C62.6995 54.6992 59.9995 55.3492 57.6495 57.3492C54.7995 59.7992 53.3495 64.3992 54.3995 67.8992C55.7495 72.2992 59.1995 75.4492 63.2995 75.6492C67.7995 75.8992 72.2995 75.7992 76.8495 75.8492C84.6995 75.8992 92.5495 75.8992 100.35 75.8992C116.8 75.8992 133.3 75.8492 149.75 75.8492C158.3 75.8492 166.85 75.7492 175.4 75.9492C183.15 76.0992 189.65 81.9992 190.95 89.6492C192.65 99.6992 185 108.949 174.75 108.999C150.3 109.049 125.8 108.999 101.35 108.999C92.6995 108.999 83.9995 108.999 75.3495 108.999C58.8995 108.999 42.3995 108.999 25.9495 108.999C20.7495 108.999 16.8495 111.799 15.2495 116.599C13.3495 122.349 17.5495 129.049 23.4995 129.899C24.5495 130.049 25.6495 130.099 26.6995 130.099C50.5495 130.099 74.4495 130.099 98.2995 130.099C105.1 130.099 111.9 130.049 118.75 130.099C126.6 130.149 133.05 135.249 134.95 142.899C137.4 152.749 129.95 162.799 119.8 163.149C114 163.349 108.15 163.249 102.35 163.249C92.6495 163.249 82.9495 163.249 73.2495 163.249C64.5995 163.249 55.8995 163.249 47.2495 163.249C43.4995 163.249 40.2495 164.449 37.9995 167.599C35.6995 170.799 35.2995 174.349 36.8495 177.949C38.3995 181.549 41.2495 183.699 45.1495 184.199C46.8495 184.399 48.5495 184.349 50.2495 184.349C83.3495 184.349 116.45 184.349 149.55 184.349C150.95 184.349 152.25 184.499 153.05 185.849C154.05 187.499 153.25 189.649 151.4 190.149C150.85 190.299 150.25 190.349 149.65 190.349C116.15 190.349 82.6495 190.349 49.1495 190.349C46.1995 190.349 43.2995 190.399 40.4995 189.199C34.1995 186.499 30.4495 181.749 29.9995 174.899C29.4995 167.849 32.6495 162.549 38.8495 159.099C41.1995 157.749 43.7995 157.199 46.4995 157.199C64.3995 157.199 82.2995 157.199 100.2 157.199C106.35 157.199 112.45 157.249 118.6 157.149C124.75 157.099 129.2 152.949 129.4 146.799C129.55 141.349 125.85 137.099 120.6 136.199C119.35 135.999 118.1 135.999 116.8 135.999C94.8995 135.999 72.9995 135.999 51.0995 135.999C42.4495 135.999 33.8495 136.049 25.1995 135.999C17.0995 135.949 10.4995 130.199 9.04952 122.249C7.29952 112.399 14.8995 102.999 24.8995 102.949C42.2995 102.849 59.6495 102.899 77.0495 102.899C84.3995 103.049 91.7995 103.049 99.1495 103.049Z" fill="#025FAC"/>
<path d="M29.8499 9.5498C39.1499 9.5498 47.5499 16.2498 50.1499 25.5998C51.7499 31.3498 50.7499 36.6498 48.0999 41.7498C43.9999 49.4998 38.3999 56.1498 32.4499 62.5498C30.7999 64.3498 28.9999 64.2998 27.2999 62.4998C21.3999 56.1998 15.8999 49.5998 11.7499 41.9498C6.49994 32.1998 8.99994 23.0998 14.4999 16.6498C18.2999 12.1498 24.0999 9.5498 29.8499 9.5498ZM29.7999 56.3498C29.9499 56.2498 30.0999 56.1998 30.1499 56.0998C34.9999 50.7498 39.4499 45.1498 42.8999 38.7498C45.3499 34.1498 45.4999 29.5998 43.4999 24.8498C40.2999 17.3498 31.9999 13.7498 24.4999 16.6998C16.6499 19.8498 12.9999 29.8498 15.7999 36.1998C19.1499 43.7998 24.3499 50.1498 29.7999 56.3498Z" fill="#025FAC"/>
<path d="M168.6 136.05C177.3 136.2 185.45 142.3 188.4 150.7C190.9 157.8 189.4 164.2 185.75 170.4C181.6 177.45 176.4 183.65 170.8 189.5C169.45 190.9 167.55 190.8 166 189.05C162.65 185.25 159.35 181.4 156.25 177.45C153.35 173.8 150.95 169.8 149.15 165.45C146.3 158.6 147.4 152.2 151.2 146.1C154.15 141.3 158.5 138.15 164 136.8C165.45 136.4 167.05 136.25 168.6 136.05ZM168.45 182.95C168.7 182.85 168.8 182.85 168.85 182.8C169.4 182.2 169.95 181.55 170.5 180.95C174.75 176 178.75 170.9 181.8 165.05C184.25 160.35 184.15 155.75 181.95 151.05C178.25 143.1 169.1 139.95 161.6 144.1C155.85 147.3 151 156.2 155.1 164.3C157.65 169.3 160.8 173.85 164.35 178.2C165.7 179.8 167.1 181.35 168.45 182.95Z" fill="#025FAC"/>
<path d="M20.8488 30.6496C20.8488 28.7996 20.8488 26.9496 20.8488 25.0496C20.8988 22.7996 22.0488 21.5996 24.2988 21.5996C27.9988 21.5996 31.6488 21.5996 35.3488 21.5996C37.7488 21.5996 38.8988 22.7996 38.8988 25.1996C38.8988 28.8496 38.8988 32.4996 38.8988 36.1496C38.8988 38.4996 37.7488 39.6496 35.3988 39.6496C31.6988 39.6496 27.9488 39.6496 24.2488 39.6496C21.9488 39.6496 20.8488 38.5496 20.7988 36.1996C20.8488 34.3496 20.8488 32.4996 20.8488 30.6496ZM26.9488 27.6496C26.9488 29.6996 26.9488 31.6496 26.9488 33.5996C28.9488 33.5996 30.8488 33.5996 32.7988 33.5996C32.7988 31.5996 32.7988 29.6496 32.7988 27.6496C30.8488 27.6496 28.9488 27.6496 26.9488 27.6496Z" fill="#025FAC"/>
<path d="M168.6 166.299C166.75 166.299 164.9 166.299 163.05 166.299C160.8 166.249 159.65 165.149 159.6 162.849C159.6 159.149 159.6 155.399 159.6 151.699C159.6 149.399 160.8 148.199 163.15 148.199C166.8 148.199 170.4 148.199 174.05 148.199C176.5 148.199 177.7 149.399 177.7 151.849C177.7 155.449 177.7 159.049 177.7 162.649C177.7 165.099 176.55 166.249 174.05 166.299C172.25 166.299 170.4 166.299 168.6 166.299ZM171.5 160.299C171.5 158.249 171.5 156.299 171.5 154.349C169.45 154.349 167.55 154.349 165.65 154.349C165.65 156.399 165.65 158.349 165.65 160.299C167.65 160.299 169.55 160.299 171.5 160.299Z" fill="#025FAC"/>
</svg>
