<svg width="200" height="200" viewBox="0 0 200 200" fill="none" xmlns="http://www.w3.org/2000/svg">
<path d="M101 86.7497C88.1 86.7497 75.2 86.7997 62.3 86.6997C55.55 86.6497 50.7 81.6497 50.6 74.8497C50.55 71.0997 50.55 67.3497 50.6 63.5497C50.6 61.2497 52.25 59.5997 54.55 59.5497C54.65 59.5497 54.8 59.5497 54.9 59.5497C56 59.4497 57.55 60.0497 58.15 59.2997C58.7 58.5997 58.35 57.1497 58.35 55.9997C58.35 41.8997 58.35 27.7997 58.35 13.6997C58.35 8.44971 61.55 5.19971 66.75 5.19971C89.65 5.19971 112.5 5.19971 135.4 5.19971C139.65 5.19971 142.8 7.64971 143.55 11.4997C143.9 13.2997 143.7 15.1497 143.7 16.9497C143.7 30.6997 143.7 44.4497 143.65 58.1997C143.65 59.2997 143.95 59.6497 145.05 59.5497C145.95 59.4497 146.85 59.4997 147.7 59.5497C149.6 59.6497 151.35 61.0997 151.4 62.9497C151.5 67.3497 151.8 71.7997 151.3 76.1497C150.55 82.6997 145.85 86.6997 139.3 86.6997C126.7 86.6997 114.1 86.6997 101.45 86.6497C101.3 86.6997 101.15 86.6997 101 86.7497ZM100.9 59.5997C112.15 59.5997 123.45 59.5997 134.7 59.5997C135.7 59.5997 135.95 59.3997 135.95 58.3497C135.9 43.6497 135.9 28.9497 135.95 14.2497C135.95 13.2497 135.75 12.9997 134.7 12.9997C112.25 13.0497 89.75 13.0497 67.3 12.9997C66.3 12.9997 66.05 13.1997 66.05 14.2497C66.1 28.8997 66.1 43.5997 66.05 58.2497C66.05 59.3497 66.3 59.6497 67.4 59.5997C78.6 59.5997 89.75 59.5997 100.9 59.5997ZM100.95 78.9997C104.2 78.9997 107.4 78.9997 110.65 78.9997C120.25 78.9997 129.9 78.9997 139.5 78.9997C142.05 78.9997 143.7 77.3997 143.7 74.8497C143.7 72.6497 143.7 70.3997 143.7 68.1997C143.7 67.5997 143.6 67.3497 142.9 67.3497C134.35 67.3497 125.75 67.3497 117.2 67.3497C116.7 67.3497 116.55 67.4497 116.45 67.9497C115.85 70.2497 114.5 71.1997 112.15 71.1997C104.7 71.1997 97.2 71.1997 89.75 71.1997C87.55 71.1997 86.1 70.1497 85.6 68.0497C85.45 67.4497 85.25 67.2997 84.7 67.2997C76.2 67.2997 67.75 67.2997 59.25 67.2997C58.45 67.2997 58.3 67.5497 58.35 68.2497C58.4 70.2497 58.35 72.1997 58.35 74.1997C58.35 77.5497 59.8 78.9497 63.15 78.9497C75.75 78.9997 88.35 78.9997 100.95 78.9997Z" fill="#025FAC"/>
<path d="M50.5995 191.5C39.1995 191.5 27.7995 191.5 16.3995 191.5C11.1495 191.5 7.89954 188.3 7.89954 183.05C7.89954 181.1 7.94954 179.15 7.89954 177.25C7.84954 176.3 8.09954 175.9 9.14954 175.95C10.8995 176.05 12.6995 175.9 14.4995 176C15.5495 176.05 15.7495 175.65 15.7495 174.7C15.6995 162.3 15.6995 149.9 15.7495 137.5C15.7495 133.6 17.9495 130.75 21.6995 129.65C22.3995 129.45 23.1495 129.45 23.8495 129.45C41.6995 129.45 59.5995 129.45 77.4495 129.45C82.2495 129.45 85.5495 132.8 85.5495 137.65C85.5495 150 85.5495 162.3 85.5495 174.65C85.5495 175.7 85.7495 176.15 86.8995 176.05C88.6495 175.95 90.3995 176.05 92.0995 176C92.9995 175.95 93.3995 176.15 93.3495 177.15C93.2495 179.25 93.3495 181.35 93.2995 183.45C93.2495 188.15 89.8995 191.5 85.1995 191.5C73.6495 191.55 62.0995 191.5 50.5995 191.5ZM50.5495 176C59.1995 176 67.8495 176 76.4995 176.05C77.4495 176.05 77.7995 175.85 77.7995 174.8C77.7495 162.65 77.7495 150.55 77.7995 138.4C77.7995 137.35 77.4995 137.15 76.4995 137.15C59.2495 137.2 41.9995 137.2 24.6995 137.15C23.5995 137.15 23.3995 137.5 23.3995 138.5C23.4495 150.6 23.4495 162.65 23.3995 174.75C23.3995 175.8 23.7495 176 24.6995 176C33.2995 176 41.9495 176 50.5495 176Z" fill="#025FAC"/>
<path d="M151.499 191.5C140.099 191.5 128.699 191.5 117.299 191.5C112.049 191.5 108.799 188.3 108.799 183.05C108.799 181.15 108.849 179.25 108.799 177.35C108.749 176.3 108.999 175.85 110.149 175.95C111.899 176.05 113.649 175.9 115.349 176C116.399 176.05 116.599 175.7 116.599 174.7C116.549 162.3 116.549 149.9 116.599 137.5C116.599 133.6 118.849 130.7 122.549 129.65C123.249 129.45 123.999 129.45 124.699 129.45C142.549 129.45 160.449 129.45 178.299 129.45C183.099 129.45 186.399 132.8 186.399 137.65C186.399 149.95 186.399 162.2 186.399 174.5C186.399 175.65 186.599 176.15 187.899 176.05C189.649 175.9 191.399 176.1 193.099 176C194.049 175.95 194.249 176.3 194.199 177.15C194.149 179.25 194.199 181.35 194.199 183.45C194.149 188.2 190.849 191.5 186.099 191.5C174.499 191.55 162.999 191.5 151.499 191.5ZM151.449 176C160.149 176 168.799 176 177.499 176C178.349 176 178.649 175.85 178.649 174.9C178.599 162.75 178.599 150.6 178.649 138.4C178.649 137.4 178.349 137.15 177.399 137.15C160.099 137.2 142.799 137.2 125.549 137.15C124.649 137.15 124.299 137.3 124.299 138.3C124.349 150.45 124.349 162.6 124.299 174.8C124.299 175.75 124.549 176 125.499 176C134.149 176 142.799 176 151.449 176Z" fill="#025FAC"/>
<path d="M100.9 113.9C85.95 113.9 71 113.9 56.05 113.9C54.45 113.9 54.45 113.9 54.45 115.5C54.45 116.25 54.45 117.05 54.45 117.8C54.4 119.95 52.65 121.65 50.55 121.65C48.5 121.65 46.75 119.95 46.7 117.75C46.65 115.3 46.7 112.8 46.7 110.35C46.7 107.75 48.35 106.1 50.95 106.1C61.6 106.1 72.2 106.1 82.85 106.1C87.3 106.1 91.75 106.1 96.2 106.1C97 106.1 97.2 105.9 97.2 105.1C97.15 102.95 97.15 100.8 97.2 98.7C97.2 96.3 98.85 94.45 100.95 94.5C103.3 94.5 104.95 96.2 104.95 98.75C104.95 100.85 105 102.95 104.95 105.05C104.9 105.95 105.15 106.2 106.1 106.15C121.05 106.1 136 106.15 150.95 106.1C152.1 106.1 153.1 106.3 154 107.05C154.95 107.85 155.45 108.85 155.45 110.1C155.45 112.6 155.45 115.1 155.45 117.6C155.4 119.85 153.7 121.6 151.6 121.6C149.45 121.6 147.8 119.85 147.7 117.6C147.7 117.5 147.7 117.45 147.7 117.35C147.6 116.2 148.2 114.65 147.45 114C146.8 113.45 145.3 113.8 144.15 113.8C129.7 113.9 115.3 113.9 100.9 113.9Z" fill="#025FAC"/>
<path d="M97.0997 51.85C94.4497 51.85 92.6497 49.2 93.4997 46.55C95.7997 39.65 98.0997 32.8 100.4 25.9C100.7 25 100.95 24.15 101.3 23.25C102.1 21.2 104.25 20.3 106.4 21.05C108.25 21.7 109.3 23.95 108.6 25.95C106.05 33.6 103.5 41.25 100.9 48.9C100.3 50.8 98.8997 51.85 97.0997 51.85Z" fill="#025FAC"/>
<path d="M89.3994 28.2996C89.3994 29.5996 88.9994 30.5496 88.1994 31.2996C86.7494 32.6996 85.3494 34.1996 83.8994 35.5496C83.3494 36.0996 83.2494 36.3996 83.8994 36.9996C85.3494 38.3996 86.7494 39.8496 88.1994 41.2996C89.3494 42.4496 89.6994 43.8496 89.1494 45.3996C88.6494 46.8496 87.5494 47.5496 86.0994 47.8496C84.9494 48.0996 83.8994 47.7996 83.0994 46.9996C80.3494 44.2996 77.5494 41.5496 74.8494 38.7996C73.4994 37.3996 73.4994 35.2496 74.8494 33.8496C77.5494 31.0496 80.2994 28.2996 83.0494 25.5996C84.1994 24.4996 85.6494 24.3496 87.0994 25.0496C88.5494 25.6996 89.2994 26.8996 89.3994 28.2996Z" fill="#025FAC"/>
<path d="M128.199 36.3495C128.199 37.2495 127.949 38.1495 127.299 38.7995C124.549 41.5495 121.849 44.2995 119.049 46.9995C117.599 48.3495 115.699 48.2995 114.149 47.1495C112.849 46.1995 112.299 44.2495 112.949 42.6995C113.199 42.0495 113.699 41.5495 114.149 41.0495C115.449 39.7495 116.749 38.3995 118.099 37.0995C118.699 36.5495 118.799 36.1995 118.149 35.5995C116.699 34.2495 115.299 32.8495 113.949 31.3995C112.249 29.6495 112.199 27.4495 113.799 25.8495C115.399 24.1995 117.649 24.2495 119.399 25.9495C121.949 28.4495 124.449 31.0495 126.999 33.5495C127.749 34.2995 128.199 35.1995 128.199 36.3495Z" fill="#025FAC"/>
<path d="M50.6 144.95C55.75 144.95 60.85 144.95 66 144.95C67.85 144.95 69.25 146 69.85 147.7C70.35 149.2 69.8 150.85 68.45 151.9C67.75 152.4 66.95 152.7 66.1 152.7C55.8 152.7 45.5 152.7 35.2 152.7C32.95 152.7 31.25 150.95 31.25 148.8C31.25 146.65 33 144.95 35.25 144.95C40.35 144.95 45.45 144.95 50.6 144.95Z" fill="#025FAC"/>
<path d="M50.5992 168.25C45.5992 168.25 40.5992 168.25 35.5992 168.25C33.0492 168.25 31.2492 166.65 31.1992 164.4C31.1992 162.15 32.9492 160.5 35.4992 160.5C45.6492 160.5 55.7492 160.5 65.8992 160.5C67.8492 160.5 69.2492 161.55 69.7992 163.35C70.2992 164.85 69.6992 166.5 68.3492 167.5C67.5492 168.05 66.6992 168.25 65.7492 168.25C60.6992 168.25 55.6492 168.25 50.5992 168.25Z" fill="#025FAC"/>
<path d="M151.5 152.7C146.35 152.7 141.15 152.7 136 152.7C133.95 152.7 132.3 151.2 132.1 149.25C131.9 147.4 133.05 145.7 134.95 145.15C135.3 145.05 135.65 145 136 145C146.3 145 156.6 145 166.9 145C168.65 145 170.05 146 170.65 147.6C171.2 149.1 170.8 150.65 169.55 151.8C168.75 152.55 167.75 152.8 166.65 152.8C161.6 152.7 156.55 152.7 151.5 152.7Z" fill="#025FAC"/>
<path d="M151.45 168.25C146.3 168.25 141.2 168.25 136.05 168.25C134.2 168.25 132.8 167.2 132.25 165.45C131.75 163.9 132.3 162.3 133.7 161.3C134.4 160.8 135.2 160.55 136.05 160.55C146.3 160.55 156.55 160.55 166.8 160.55C169.05 160.55 170.8 162.25 170.85 164.35C170.85 166.55 169.1 168.25 166.8 168.25C161.7 168.25 156.55 168.25 151.45 168.25Z" fill="#025FAC"/>
</svg>
