<svg width="200" height="200" viewBox="0 0 200 200" fill="none" xmlns="http://www.w3.org/2000/svg">
<path d="M180.5 100.15C180.5 128.15 180.5 156.15 180.5 184.15C180.5 185.4 180.45 186.75 180.15 187.95C178.95 192.6 174.95 195.1 169.7 194.6C165.15 194.15 161.9 190.7 161.6 186.05C161.55 185.4 161.55 184.75 161.55 184.15C161.55 128.05 161.55 71.9497 161.55 15.7997C161.55 13.1497 161.9 10.6997 163.6 8.59971C165.9 5.74971 170.15 4.59971 174.1 5.74971C177.75 6.84971 180.15 9.79971 180.45 13.6497C180.5 14.4997 180.5 15.2997 180.5 16.1497C180.5 44.1497 180.5 72.1497 180.5 100.15Z" fill="#025FAC"/>
<path d="M133.15 133.25C133.15 150.35 133.15 167.45 133.15 184.55C133.15 187.85 132.35 190.85 129.5 192.85C126.35 195.05 122.85 195.25 119.35 193.7C115.9 192.2 114.45 189.3 114.2 185.7C114.15 185.2 114.15 184.7 114.15 184.2C114.15 150.1 114.15 115.95 114.15 81.85C114.15 79.25 114.55 76.85 116.2 74.75C118.5 71.9 122.75 70.7 126.7 71.9C130.35 73 132.75 75.95 133.05 79.75C133.1 80.55 133.1 81.35 133.1 82.1C133.15 99.25 133.15 116.25 133.15 133.25Z" fill="#025FAC"/>
<path d="M66.8498 156.799C66.8498 147.449 66.8998 138.049 66.8498 128.699C66.7998 119.199 75.9998 117.199 81.2998 120.149C84.0498 121.649 85.3498 124.099 85.7498 127.099C85.8498 127.749 85.8498 128.399 85.8498 128.999C85.8498 147.549 85.8498 166.049 85.8498 184.599C85.8498 187.599 85.2498 190.399 82.7998 192.449C79.5498 195.099 75.8498 195.399 72.0998 193.799C68.3998 192.199 66.9498 189.099 66.9498 185.249C66.8498 175.699 66.8498 166.249 66.8498 156.799Z" fill="#025FAC"/>
<path d="M19.4998 175.75C19.4998 172.7 19.4998 169.65 19.4998 166.6C19.3998 157.1 28.6498 155.1 33.9498 158.05C36.7498 159.6 38.2998 162.05 38.3498 165.1C38.4998 172.2 38.5498 179.3 38.3498 186.4C38.1998 191.4 34.0998 194.75 28.8498 194.7C23.6498 194.65 19.8498 191.25 19.5998 186.25C19.4498 182.75 19.5498 179.2 19.4998 175.75C19.5498 175.75 19.5498 175.75 19.4998 175.75Z" fill="#025FAC"/>
</svg>
