<svg width="200" height="200" viewBox="0 0 200 200" fill="none" xmlns="http://www.w3.org/2000/svg">
<path d="M158.049 119.15C158.049 118 158.049 116.9 158.049 115.75C157.999 110.1 155.449 107.65 149.749 107.65H29.9494C24.0494 107.65 21.3994 110.25 21.3494 116.3C21.2994 122.65 21.3494 129 21.3494 135.35C21.3494 143.9 23.6494 146.2 32.2494 146.2C57.0494 146.2 81.7994 146.2 106.599 146.2C107.899 146.2 109.249 146.2 110.549 146.2C112.449 138.45 116.999 131.7 123.149 127.05C123.149 126.6 123.199 126.1 123.299 125.55C123.949 122.6 126.199 121.4 129.049 121.2C130.299 121.1 131.549 121.2 132.749 121.2C133.349 121.2 133.999 121.2 134.599 121.2C134.749 121.2 134.949 121.2 135.099 121.2C137.799 120.5 140.649 120.1 143.599 120.1C148.799 120.1 153.699 121.2 158.049 123.2C158.099 121.85 158.099 120.5 158.049 119.15ZM103.499 132.25C93.6494 132.3 83.8494 132.25 73.9994 132.25C64.1494 132.25 54.2994 132.25 44.4994 132.25C40.3494 132.25 37.9494 130.25 37.8494 126.9C37.7494 123.55 40.1994 121.25 44.2994 121.2C64.0994 121.15 83.8994 121.15 103.699 121.2C107.599 121.2 110.199 123.8 110.049 127.05C109.849 130.2 107.449 132.2 103.499 132.25Z" fill="#025FAC"/>
<path d="M89.6492 96.1512C69.5992 96.1512 49.5991 96.1512 29.5492 96.1512C24.6992 96.1512 21.6492 93.5512 21.5492 88.8012C21.3492 81.2012 21.2992 73.6512 21.5492 66.0512C21.6992 60.4512 24.2492 58.2012 29.7492 58.2012C69.7992 58.2012 109.899 58.2012 149.949 58.2012C155.249 58.2012 157.749 60.5012 157.849 65.9012C157.999 73.6012 157.949 81.3512 157.849 89.0512C157.799 93.6012 154.849 96.1512 150.099 96.1512C129.949 96.1512 109.799 96.1512 89.6492 96.1512ZM74.3992 71.4012C64.4492 71.4012 54.4492 71.4012 44.4992 71.4012C40.0992 71.4012 37.6992 73.5012 37.6992 77.0512C37.7492 80.5512 40.1991 82.7012 44.5991 82.7512C64.1491 82.8012 83.6992 82.8012 103.249 82.7512C107.499 82.7512 110.149 80.3012 110.099 76.9512C109.999 73.4512 107.499 71.4012 103.149 71.4012C93.5492 71.4012 83.9992 71.4012 74.3992 71.4012ZM132.499 71.4012C131.249 71.4012 129.999 71.3512 128.799 71.4012C125.449 71.5012 123.399 73.3512 123.099 76.6012C122.799 79.7512 124.549 81.9012 127.599 82.4512C130.899 83.0512 134.249 83.1012 137.549 82.3512C140.499 81.7012 141.999 79.6012 141.799 76.7012C141.599 73.6512 139.799 71.7012 136.599 71.4512C135.249 71.3512 133.849 71.4012 132.499 71.4012Z" fill="#025FAC"/>
<path d="M89.2988 46.4006C69.6488 46.4006 49.9488 46.4006 30.2988 46.4006C24.0488 46.4006 21.4488 43.9006 21.3988 37.6506C21.3488 30.9506 21.3488 24.2006 21.3988 17.5006C21.4488 10.9506 24.2488 8.10059 30.6988 8.10059C70.1488 8.10059 109.599 8.10059 149.099 8.10059C155.199 8.10059 158.099 10.9506 158.149 16.9506C158.199 24.0506 158.249 31.1506 158.149 38.2506C158.099 43.8006 155.399 46.4006 149.799 46.4006C129.649 46.4006 109.449 46.4006 89.2988 46.4006ZM73.9488 21.7506C63.9988 21.7506 54.0488 21.7006 44.0488 21.8006C40.5488 21.8006 37.9988 24.1506 37.8488 27.0006C37.6988 30.3506 39.8488 32.6506 43.5988 33.0006C44.6988 33.1006 45.8488 33.0506 46.9488 33.0506C57.7488 33.0506 68.5988 33.0506 79.3988 33.0506C87.2488 33.0506 95.0988 33.1006 102.949 33.0006C107.849 32.9506 110.349 30.5006 109.799 26.6506C109.349 23.4506 107.099 21.7006 102.999 21.7006C93.3488 21.7006 83.6488 21.7506 73.9488 21.7506ZM131.849 33.2006C133.599 33.1006 134.999 33.1506 136.299 32.9506C139.849 32.4506 141.949 30.1006 141.699 27.0506C141.499 24.0506 138.999 21.8506 135.599 21.7506C133.249 21.6506 130.849 21.5006 128.549 21.8006C125.599 22.1506 123.449 23.8006 123.199 27.0006C122.949 30.2006 124.749 32.1006 127.799 32.8006C129.249 33.1006 130.749 33.1006 131.849 33.2006Z" fill="#025FAC"/>
<path d="M175.7 133.55L175.65 133.5C174.9 132.35 174.05 131.25 173.15 130.2C173 130 172.85 129.85 172.7 129.65C172.55 129.5 172.45 129.35 172.3 129.2C169.25 125.85 165.6 123 161.5 120.95C161.45 120.95 161.45 120.9 161.45 120.9C160.45 120.4 159.5 119.95 158.45 119.55C155 118.15 151.3 117.25 147.4 116.9C146.3 116.8 145.2 116.75 144.1 116.75C143.9 116.75 143.7 116.75 143.45 116.75C137.95 116.85 132.7 118.1 128 120.3C125.6 121.45 123.3 122.8 121.2 124.4C114.1 129.75 108.9 137.55 106.9 146.55C106.6 147.8 106.4 149.05 106.25 150.3C106.1 151.5 106.05 152.7 106 153.9C106 154.2 106 154.5 106 154.8C106 174.6 121.1 190.85 140.4 192.7C140.65 192.75 140.95 192.75 141.2 192.75H141.25C141.85 192.8 142.45 192.8 143.05 192.85C143.35 192.85 143.65 192.85 143.9 192.85H144C149.05 192.85 153.85 191.85 158.3 190.1C158.5 190 158.7 189.95 158.9 189.85C172.55 184.05 182.1 170.55 182.1 154.8C182.2 146.9 179.8 139.6 175.7 133.55ZM144.25 189.15C125.25 189.15 109.9 173.8 109.9 154.85C109.9 152 110.25 149.2 110.9 146.55C112.8 138.8 117.35 132.05 123.5 127.4C127.05 124.7 131.1 122.7 135.5 121.55C138.2 120.85 141.05 120.45 144 120.45C149.2 120.45 154.1 121.55 158.45 123.55C170.4 128.95 178.6 140.85 178.6 154.9C178.6 173.85 163.25 189.15 144.25 189.15Z" fill="#025FAC"/>
<path d="M170.6 139.35C170.55 139.2 170.45 139.1 170.4 139C170.35 138.95 170.35 138.95 170.3 138.9C169.8 138.45 168.95 138.1 168.3 138.05C167.6 138 166.85 137.9 166.15 137.85C164 137.65 161.8 137.5 159.65 137.35C159.25 137.3 158.9 137.3 158.5 137.25C157.45 137.2 156.4 137.1 155.3 137C153.85 136.9 152.4 136.8 150.95 136.65C150.05 136.6 149.4 136.75 149 137.2C148.9 137.3 148.85 137.4 148.75 137.5C148.65 137.65 148.6 137.8 148.55 137.95C148.5 138.05 148.5 138.15 148.45 138.25C148.45 138.3 148.45 138.3 148.45 138.35C148.45 138.45 148.4 138.5 148.4 138.6C148.4 138.65 148.4 138.65 148.4 138.65V138.7C148.4 138.75 148.4 138.75 148.4 138.75C148.25 141 148.05 143.2 147.9 145.45C147.85 145.8 147.85 146.15 147.85 146.45C147.75 147.6 147.7 148.75 147.6 149.9C147.5 151.4 147.4 152.85 147.3 154.35C147.25 155.1 147.2 155.85 147.15 156.6C147.15 156.75 147.15 156.9 147.2 157.1C147.25 157.25 147.3 157.4 147.35 157.55C147.4 157.65 147.4 157.7 147.45 157.8C147.65 158.15 147.9 158.5 148.15 158.6C148.65 158.85 149.55 158.6 150.15 158.25C150.2 158.2 150.25 158.2 150.35 158.15C150.65 157.95 150.95 157.75 151.2 157.55C152.05 156.9 152.85 156.15 153.9 155.3C154.2 157.4 154.25 159.4 154.1 161.3C154.05 161.7 154 162.1 153.95 162.45C153.9 162.75 153.85 163.05 153.8 163.35C153.75 163.7 153.65 164 153.55 164.35C153.25 165.5 152.85 166.6 152.35 167.65C152.15 168.05 151.95 168.45 151.7 168.85C151.6 169.05 151.45 169.25 151.35 169.45C150.75 170.4 150.35 171.6 151.4 172.3C152 172.7 153.2 172.6 153.9 172.3C154.85 171.85 155.75 171.35 156.65 170.8C157.1 170.5 157.5 170.2 157.95 169.9C163.6 165.6 167.2 158.5 166.95 151.6C166.95 151.2 166.9 150.85 166.85 150.45C166.8 150.05 166.75 149.7 166.7 149.3C166.65 148.9 166.6 148.5 166.55 148.15C166.5 147.6 166.5 147.1 166.5 146.6C166.5 146.35 166.55 146.15 166.55 145.95C166.6 145.75 166.6 145.6 166.65 145.4C166.65 145.3 166.7 145.2 166.7 145.15C167.1 143.8 168 142.75 169.55 141.75C170.2 141.35 170.8 140 170.6 139.35ZM164.05 141.8C161.85 143.1 162 144.9 162.55 147.15C164.25 153.7 162.55 159.55 158.35 164.7C158 165.15 157.5 165.5 156.8 166.15C157.95 161.4 158.15 157 156.85 152.65C156.1 150.05 155.1 149.7 153 151.35C152.45 151.75 151.9 152.2 151 152.9C151.15 150.65 151.35 148.55 151.5 146.4C151.65 144.35 151.8 142.35 151.95 140.3C154.05 140.45 156.1 140.65 158.15 140.8C160.15 140.95 162.15 141.15 164.2 141.3C164.15 141.55 164.15 141.75 164.05 141.8Z" fill="#025FAC"/>
<path d="M140.85 150.85C140.75 150.75 140.65 150.65 140.55 150.6C140.1 150.35 139.1 150.6 138.55 151C137.95 151.4 137.35 151.85 136.75 152.35C136.3 152.75 135.85 153.15 135.35 153.55C135.3 153.55 135.3 153.6 135.25 153.6C135.1 153.7 134.95 153.85 134.8 153.95C134.8 153.9 134.8 153.9 134.8 153.85C134.8 153.8 134.8 153.8 134.8 153.75C134.8 153.7 134.8 153.65 134.75 153.6C134.75 153.5 134.7 153.4 134.7 153.3C134.65 153.05 134.6 152.8 134.55 152.6C134.55 152.45 134.5 152.35 134.5 152.2C134.5 152.05 134.45 151.95 134.45 151.8C134.45 151.7 134.45 151.65 134.45 151.55C134.45 151.35 134.4 151.1 134.4 150.9C134.35 149.75 134.4 148.6 134.55 147.5C134.6 147.15 134.65 146.85 134.7 146.5C134.7 146.4 134.75 146.3 134.75 146.15C134.8 145.95 134.85 145.7 134.9 145.5C135 145.05 135.1 144.65 135.25 144.2C135.45 143.55 135.7 142.9 136 142.3C136.15 141.95 136.3 141.6 136.5 141.25C136.75 140.75 137 140.3 137.3 139.85C137.5 139.55 137.7 139.25 137.8 138.9C137.85 138.8 137.9 138.7 137.9 138.55C138 138.15 138 137.75 137.8 137.35C137.75 137.2 137.65 137.05 137.5 136.9C137.45 136.85 137.4 136.8 137.35 136.75C136.4 135.85 135.45 136.4 134.45 136.95C129.95 139.4 126.6 142.6 124.5 146.4C122.5 150.05 121.65 154.35 122.05 159.2C122.4 163.1 122.1 165.8 118.65 167.85C118.25 168.1 117.95 168.95 117.95 169.6C117.95 169.75 117.95 169.85 118 170C118.15 170.5 119.05 171.1 119.7 171.15C125.65 171.7 131.6 172.1 137.55 172.6C137.9 172.65 138.25 172.6 138.55 172.55C138.65 172.55 138.75 172.5 138.85 172.5C139.15 172.4 139.4 172.25 139.6 172.05C139.65 172 139.7 171.95 139.75 171.9C140.05 171.55 140.2 171 140.25 170.35C140.7 164.4 141.15 158.45 141.5 152.5C141.55 152.05 141.3 151.4 140.95 150.95C141 151 140.9 150.9 140.85 150.85ZM136.85 168.1C136.8 168.45 136.1 169 135.7 168.95C132 168.7 128.3 168.4 124.65 168.05C124.65 167.8 124.65 167.65 124.7 167.6C126.8 166.25 126.75 164.5 126.15 162.25C124.7 156.5 125.75 151.25 128.95 146.55C129.35 145.95 129.85 145.3 130.35 144.7C130.55 144.5 130.75 144.25 131 144.1C131.15 144 131.3 143.95 131.35 143.95C131.3 144.8 131.2 145.7 131.15 146.55C131 148.25 130.85 149.9 130.95 151.6C131.05 153.55 131.55 155.55 132.1 157.45C132.6 159.25 133.85 159.5 135.35 158.35C136.05 157.85 136.7 157.25 137.75 156.4C137.45 160.65 137.2 164.4 136.85 168.1Z" fill="#025FAC"/>
<path d="M158.5 131.8C159.1 132.1 159.7 132.3 160.2 132.15C160.25 132.15 160.3 132.1 160.4 132.1C160.5 132.05 160.6 132 160.65 131.95C160.7 131.9 160.75 131.85 160.8 131.8C160.95 131.65 161.05 131.5 161.2 131.3C161.7 130.4 161.5 129.8 161 129.3C160.9 129.2 160.75 129.1 160.65 129C160.5 128.9 160.35 128.8 160.2 128.7C160.1 128.65 160 128.6 159.9 128.5C159.45 128.25 158.95 127.95 158.45 127.7C154.4 125.6 150.1 124.5 145.5 124.05C145.2 124.1 144.9 124.1 144.6 124.15C144 124.2 143.35 124.25 142.75 124.35C142.3 124.4 141.9 124.45 141.45 124.5C141.25 124.5 141.05 124.55 140.85 124.55C140.25 124.65 139.65 124.75 139.05 124.85C138.75 124.9 138.45 125 138.15 125.1C137.55 125.3 137 125.45 136.4 125.65C136.2 125.7 136 125.8 135.8 125.85C133.5 126.7 131.2 127.7 128.95 128.7C128.8 128.75 128.65 128.85 128.5 128.95C128.4 129 128.3 129.05 128.25 129.15C128.2 129.2 128.15 129.2 128.15 129.25C128.1 129.3 128.05 129.3 128.05 129.35C127.6 129.8 127.4 130.35 127.6 131.05C127.6 131.1 127.65 131.15 127.65 131.2C127.7 131.35 127.75 131.45 127.85 131.6C127.9 131.65 127.95 131.75 128 131.8C128.05 131.85 128.1 131.9 128.15 131.95C128.5 132.3 128.9 132.45 129.35 132.4C129.5 132.4 129.6 132.35 129.75 132.3C129.8 132.3 129.9 132.25 129.95 132.25C130.1 132.2 130.25 132.15 130.35 132.05C130.5 132 130.65 131.9 130.75 131.85C130.9 131.75 131.05 131.7 131.2 131.6C132.25 131 133.3 130.45 134.4 130C135.3 129.65 136.15 129.35 137 129.05C137.35 128.95 137.65 128.85 137.95 128.75C138.3 128.65 138.6 128.6 138.9 128.5C139.1 128.45 139.35 128.4 139.55 128.35C140 128.25 140.4 128.2 140.85 128.1C141.2 128.05 141.55 128 141.85 127.95C147.35 127.3 152.75 128.55 158.05 131.55C158.25 131.7 158.35 131.75 158.5 131.8Z" fill="#025FAC"/>
<path d="M119.75 143.301C119.95 142.751 120.15 142.201 120.35 141.701C120.45 141.401 120.3 140.851 120 140.451C119.95 140.401 119.9 140.301 119.85 140.251C119.8 140.201 119.8 140.201 119.75 140.151C119.7 140.101 119.7 140.101 119.65 140.051C119.55 139.951 119.5 139.901 119.4 139.851C118.95 139.601 117.85 139.751 117.5 140.101L117.45 140.151L117.4 140.201C116.3 142.201 115.4 144.301 114.4 146.551C114.3 146.751 114.25 146.901 114.15 147.101C114.7 147.751 115.1 148.601 115.65 148.701C116.15 148.801 117 148.601 117.45 148.251C117.5 148.201 117.55 148.151 117.6 148.101L117.65 148.051C117.9 147.551 118.15 147.051 118.4 146.551C118.9 145.451 119.35 144.401 119.75 143.301Z" fill="#025FAC"/>
</svg>
