<svg width="200" height="201" viewBox="0 0 200 201" fill="none" xmlns="http://www.w3.org/2000/svg">
<path d="M75.7001 190.9C73.8001 190.9 72.0501 190.9 70.1001 190.9C70.1001 182.2 70.1001 173.6 70.1001 164.75C60.3001 164.75 50.7001 164.75 40.8501 164.75C40.8501 160.7 40.8501 156.9 40.8501 153.1C40.8501 145.65 40.8001 138.25 40.9001 130.8C40.9001 129.25 40.4001 128.75 39.0001 128.35C32.8001 126.65 26.6001 124.85 20.4501 123.05C20.0501 122.95 19.6501 122.8 19.1001 122.55C20.4501 120.1 21.7501 117.7 23.1001 115.35C28.0001 106.55 33.0001 97.75 37.8501 88.9C38.4001 87.85 38.7001 86.45 38.5501 85.3C36.5501 68.7 40.3501 53.5 49.7001 39.75C60.3001 24.2 75.0001 14.6 93.5001 11.1C105.9 8.75 118.1 10.25 129.9 14.75C130.35 14.9 130.8 15.05 131.4 15.25C131.4 13.45 131.4 11.85 131.4 10.05C139.15 10.05 146.8 10.05 154.65 10.05C154.65 12.8 154.65 15.65 154.65 18.6C158.6 18.6 162.35 18.6 166.25 18.6C166.25 25.4 166.25 32.1 166.25 38.95C162.5 38.95 158.7 38.95 154.8 38.95C154.8 44 154.8 48.8 154.8 53.85C161.8 53.85 168.7 53.85 175.9 53.85C174.9 57.8 174 61.45 173.1 65.15C172.2 68.7 171.4 72.25 170.4 75.75C170.05 77.1 170.3 77.6 171.65 78.1C177.25 80.2 181.15 86.2 180.95 91.9C180.7 99.85 174.95 104.55 170.35 105.65C168.2 106.15 165.9 106.2 163.55 106.45C163.55 108.25 163.55 110.1 163.55 112.1C164.4 112.15 165.25 112.2 166.2 112.25C166.2 114.05 166.2 115.85 166.2 117.85C165.4 117.9 164.55 117.95 163.4 118.05C163.5 119.95 163.55 121.8 163.65 123.75C164.55 123.85 165.35 123.9 166.2 123.95C166.2 125.75 166.2 127.55 166.2 129.5C165.7 129.55 165.2 129.65 164.5 129.75C164.55 130.45 164.55 131.1 164.7 131.7C166 136.7 167.2 141.7 168.7 146.65C170.8 153.4 173.65 159.85 177.4 165.9C177.8 166.5 178.05 167.4 177.95 168.1C176.95 175.4 175.9 182.65 174.8 189.95C174.75 190.25 174.65 190.5 174.55 190.95C173.9 190.95 173.35 190.95 172.75 190.95C152.9 190.95 133.05 190.95 113.25 191C111.8 191 111.2 190.65 111 189.2C110.1 182.45 109.1 175.7 108.25 168.95C108.1 167.85 108.35 166.5 108.9 165.55C114.1 156.45 117.75 146.75 120.3 136.65C120.5 135.95 120.2 135.15 120.15 134.4C119.95 131 119.75 127.55 119.5 124.05C120.6 124 121.3 123.95 122.25 123.9C122.4 122.05 122.55 120.2 122.7 118.15C121.7 118.1 120.8 118.05 119.8 118C119.8 116.15 119.8 114.35 119.8 112.4C120.7 112.35 121.55 112.25 122.55 112.2C122.55 110.3 122.55 108.45 122.55 106.5C120.8 106.35 119.1 106.25 117.45 106.05C112.05 105.4 108.3 102.25 106.3 97.45C104.2 92.4 104.7 87.35 108.25 82.85C110 80.65 112.1 78.95 114.75 78.05C115.85 77.7 116 77.25 115.7 76.2C114 69.5 112.3 62.75 110.65 56.05C110.5 55.4 110.4 54.8 110.2 53.95C117.3 53.95 124.2 53.95 131.05 53.95C131.35 52.35 131.35 52.35 128.15 50.45C129.1 46.15 129.6 45.25 131.2 45.35C131.2 43.4 131.2 41.4 131.2 39.3C127.4 39.3 123.65 39.3 119.75 39.3C119.75 32.5 119.75 25.85 119.75 19C120.7 18.9 121.65 18.85 122.6 18.75C122.6 18.6 122.65 18.45 122.65 18.25C119.1 17.6 115.6 16.7 112 16.25C101.8 15.05 91.8501 16.4 82.3001 20.3C71.3001 24.75 62.4001 31.9 55.4001 41.45C46.9501 53 43.0501 66 43.6001 80.3C43.7001 82.6 44.1501 84.9 44.3001 87.2C44.3501 88.1 44.2001 89.15 43.8001 89.9C38.7001 99.1 33.5501 108.3 28.4501 117.45C28.1501 117.95 27.9001 118.5 27.4501 119.25C33.8001 121.1 40.0501 122.9 46.4001 124.75C46.4001 136.1 46.4001 147.45 46.4001 159.05C56.2001 159.05 65.8501 159.05 75.5501 159.05C75.7001 169.7 75.7001 180.25 75.7001 190.9ZM114.2 170.55C114.8 174.95 115.45 179.1 115.95 183.3C116.15 184.8 116.65 185.35 118.2 185.35C134.75 185.3 151.3 185.3 167.85 185.35C169.35 185.35 169.85 184.8 170.05 183.4C170.6 179.25 171.3 175.1 171.8 170.95C171.95 169.65 171.95 168.05 171.35 166.95C165.35 155.8 160.95 144.05 159 131.5C158.8 130.1 158.3 129.6 156.8 129.65C147.55 129.75 138.3 129.7 129.05 129.7C128.5 129.7 128 129.75 127.4 129.8C125.55 142.15 121.4 153.6 115.9 164.9C129 164.9 141.85 164.9 154.7 164.9C154.7 166.85 154.7 168.65 154.7 170.6C141.2 170.55 127.85 170.55 114.2 170.55ZM151.7 82.9C150.85 82.9 150.2 82.9 149.55 82.9C139.5 82.9 129.5 82.9 119.45 82.9C114.8 82.9 110.95 86.85 110.85 91.55C110.75 96.35 114.55 100.4 119.3 100.5C122.85 100.55 126.35 100.45 129.9 100.45C142.2 100.45 154.45 100.55 166.75 100.5C171.55 100.5 175.25 96.45 175.2 91.55C175.15 86.85 171.35 83 166.65 82.9C165.4 82.9 164.15 82.9 162.75 82.9C164.7 75 166.6 67.4 168.55 59.65C151.45 59.65 134.6 59.65 117.65 59.65C117.8 60.45 117.85 61.05 118 61.65C119.15 66.25 120.35 70.85 121.45 75.45C121.75 76.75 122.25 77.2 123.65 77.2C132.35 77.15 141.05 77.15 149.75 77.15C150.4 77.15 151.05 77.15 151.75 77.15C151.7 79.15 151.7 80.9 151.7 82.9ZM149 53.7C149 46.8 149 40.1 149 33.25C152.95 33.25 156.7 33.25 160.5 33.25C160.5 30.25 160.5 27.45 160.5 24.4C156.6 24.4 152.8 24.4 148.85 24.4C148.85 21.4 148.85 18.6 148.85 15.85C144.85 15.85 141.1 15.85 137.1 15.85C137.1 18.75 137.1 21.5 137.1 24.55C133.15 24.55 129.35 24.55 125.6 24.55C125.6 27.65 125.6 30.45 125.6 33.4C129.5 33.4 133.25 33.4 137.2 33.4C137.2 40.25 137.2 46.95 137.2 53.7C141.15 53.7 144.9 53.7 149 53.7ZM128.05 123.75C138.15 123.75 148.05 123.75 158.05 123.75C157.95 121.75 157.8 119.9 157.7 118C147.8 118 138.15 118 128.35 118C128.3 119.95 128.2 121.75 128.05 123.75ZM157.75 112.15C157.75 110.6 157.7 109.25 157.75 107.95C157.8 106.8 157.35 106.35 156.15 106.35C152.7 106.4 149.2 106.35 145.75 106.35C140.5 106.35 135.3 106.3 130.05 106.4C129.45 106.4 128.45 107 128.4 107.4C128.2 108.95 128.3 110.5 128.3 112.15C138.2 112.15 147.85 112.15 157.75 112.15Z" fill="#861BB9"/>
<path d="M117.2 41.8C117.05 43.9 116.95 45.5 116.75 47C116.7 47.35 116.05 47.75 115.65 47.8C112.65 48.05 109.6 48.2 106.6 48.5C105.4 48.6 105.15 47.85 105.2 47.1C105.35 45.7 103.2 43.55 105.4 43.05C109.05 42.15 113 42.2 117.2 41.8Z" fill="#861BB9"/>
<path d="M83.45 124.65C80.75 121.45 78.3 118.6 75.8 115.7C75.7 115.55 75.5 115.3 75.5 115.25C76.55 114.25 77.55 113.25 78.7 112.4C79.1 112.1 80.1 112.05 80.35 112.35C82.65 114.9 84.85 117.55 87.15 120.3C86.1 121.6 84.95 122.9 83.45 124.65Z" fill="#861BB9"/>
<path d="M107.9 129.65C107.65 131.25 107.4 132.95 107.1 134.75C102.75 134.5 98.8503 133 94.8003 131.35C95.4503 129.9 96.0503 128.5 96.7003 127.15C96.8503 126.85 97.5003 126.45 97.8003 126.5C101.15 127.5 104.5 128.55 107.9 129.65Z" fill="#861BB9"/>
<path d="M81.3999 54.85C84.7499 52.5 87.9499 50.3 91.0999 48.1C91.2499 48 91.5499 47.85 91.5499 47.9C92.4499 49.2 93.3999 50.45 94.0999 51.85C94.2499 52.15 93.7999 53 93.3999 53.35C91.1499 55.05 88.7999 56.7 86.4499 58.3C86.0499 58.6 85.0999 58.7 84.7999 58.4C83.7499 57.4 82.7499 56.25 81.3999 54.85Z" fill="#861BB9"/>
<path d="M68.7002 77.2C69.3002 75.25 69.7502 73.4 70.4502 71.6C71.1502 69.85 72.1002 68.2 72.8502 66.5C73.2502 65.65 73.6502 65.5 74.5502 65.95C78.5502 67.95 78.5502 67.9 76.6002 71.9C75.9002 73.35 75.2002 74.9 74.8502 76.45C74.4502 78.3 73.5502 78.65 71.9502 78.1C70.9502 77.8 69.9502 77.6 68.7002 77.2Z" fill="#861BB9"/>
<path d="M67.2002 90.4C69.1002 90.4 70.9002 90.4 72.6002 90.4C73.2502 93.75 73.9502 97 74.5002 100.25C74.5502 100.65 74.0002 101.4 73.6002 101.6C72.4002 102.1 71.0502 102.4 69.6002 102.85C67.9502 98.9 67.6002 94.7 67.2002 90.4Z" fill="#861BB9"/>
</svg>
