<svg width="200" height="200" viewBox="0 0 200 200" fill="none" xmlns="http://www.w3.org/2000/svg">
<path d="M76.4004 163.2C76.4004 162.25 76.1504 161.6 75.7004 161.1C75.2004 160.6 74.5504 160.4 73.6004 160.4C71.1004 160.45 68.5504 160.45 66.0504 160.4C65.0004 160.4 64.0004 160.4 62.9504 160.4C61.9004 160.4 60.9004 160.4 59.8504 160.4C57.3504 160.4 54.7004 160.4 52.1504 160.35C51.1504 160.35 50.4004 160.55 49.9004 161.05C49.4004 161.55 49.1504 162.3 49.1504 163.3C49.1504 167.3 49.1504 171.35 49.1504 175.3C49.1504 178.15 49.1504 181.05 49.1504 183.9C49.1504 186.25 49.8004 186.85 52.1504 186.85C54.6004 186.85 57.0504 186.85 59.5004 186.85C64.0504 186.85 68.7504 186.85 73.4004 186.9H73.4504C74.4004 186.9 75.1004 186.65 75.6004 186.2C76.1004 185.7 76.3004 185 76.3004 184.05C76.3504 176.95 76.4004 169.85 76.4004 163.2ZM71.9504 164.8V182.5H53.6504V164.8H71.9504Z" fill="#861BB9"/>
<path d="M144.2 160.4C141.75 160.4 139.3 160.4 136.85 160.4H133.75C132.75 160.4 131.7 160.4 130.7 160.4C128.2 160.4 125.65 160.4 123.15 160.35C122.15 160.35 121.45 160.55 120.95 161.05C120.45 161.55 120.25 162.2 120.25 163.15C120.25 170.55 120.25 177.35 120.25 184.05C120.25 185 120.5 185.7 120.95 186.15C121.6 186.8 122.45 186.85 123.1 186.85H123.15C127.9 186.8 132.75 186.8 137.4 186.8C139.7 186.8 142.05 186.8 144.35 186.8C146.65 186.8 147.35 186.1 147.35 183.8C147.35 177.2 147.35 170.35 147.35 163.35C147.35 161.1 146.65 160.45 144.2 160.4ZM142.95 164.85V182.5H124.65V164.9L142.95 164.85Z" fill="#861BB9"/>
<path d="M76.4003 126.85C76.4003 125.95 76.1503 125.25 75.7003 124.8C75.2003 124.3 74.5003 124.1 73.6003 124.1C71.1003 124.15 68.5003 124.15 66.0503 124.1C65.0503 124.1 64.0003 124.1 63.0003 124.1C61.9003 124.1 60.8503 124.1 59.7503 124.1C57.3503 124.1 54.8003 124.1 52.3503 124.1C49.9503 124.1 49.3003 124.8 49.3003 127.2C49.3003 133.55 49.3003 140.1 49.3003 147.3C49.3003 149.9 49.9003 150.5 52.4503 150.5C55.4503 150.5 58.5003 150.5 61.5003 150.5C65.4503 150.5 69.5003 150.5 73.5003 150.5C73.5003 150.5 73.5003 150.5 73.5503 150.5C74.2003 150.5 75.1003 150.4 75.7503 149.8C76.2503 149.3 76.4503 148.65 76.4503 147.7C76.3503 140.65 76.4003 133.3 76.4003 126.85ZM71.9503 128.45V146.2H53.7003V128.45H71.9503Z" fill="#861BB9"/>
<path d="M147.35 135.75C147.35 132.85 147.35 129.95 147.35 127.05C147.35 124.8 146.6 124.1 144.25 124.1C141.8 124.1 139.35 124.1 136.9 124.1H133.8C132.8 124.1 131.75 124.1 130.75 124.1C128.3 124.1 125.7 124.1 123.2 124.05C122.15 124 121.45 124.25 120.95 124.75C120.45 125.25 120.2 125.95 120.2 126.95C120.25 134.2 120.25 140.95 120.2 147.55C120.2 148.2 120.25 149.15 120.95 149.8C121.45 150.3 122.15 150.5 123.1 150.5C123.1 150.5 123.1 150.5 123.15 150.5C129.3 150.45 136.05 150.45 144.4 150.5C145.05 150.5 146 150.45 146.7 149.75C147.2 149.25 147.45 148.55 147.45 147.6C147.35 143.7 147.35 139.65 147.35 135.75ZM142.9 128.45V146.2H124.65V128.45H142.9Z" fill="#861BB9"/>
<path d="M40.2005 161.1C39.7505 160.65 39.0505 160.4 38.1505 160.4C31.1005 160.45 23.8005 160.45 16.5505 160.4C15.6005 160.4 14.9505 160.6 14.4505 161.1C14.0005 161.55 13.7505 162.25 13.7505 163.15C13.8005 171.25 13.7505 177.9 13.7505 184.1C13.7505 185.05 14.0005 185.75 14.4505 186.25C15.0505 186.85 15.9005 186.95 16.5005 186.95C16.5505 186.95 16.6005 186.95 16.6005 186.95C19.1005 186.9 21.7005 186.9 24.1505 186.9C25.1505 186.9 26.2005 186.9 27.2005 186.9C28.2005 186.9 29.2505 186.9 30.2505 186.9C32.8505 186.9 35.5005 186.9 38.1005 186.9C39.0005 186.9 39.6505 186.7 40.1505 186.25C40.6005 185.8 40.8505 185.15 40.8505 184.25C40.8505 176.65 40.8505 169.75 40.8505 163.15C40.9005 162.25 40.6505 161.6 40.2005 161.1ZM36.5005 164.8V182.45H18.1005V164.8H36.5005Z" fill="#861BB9"/>
<path d="M111.15 161.1C110.5 160.45 109.5 160.4 108.85 160.4C106.35 160.45 103.8 160.45 101.3 160.45C99.2504 160.45 97.2004 160.45 95.1504 160.45C92.7004 160.45 90.1004 160.45 87.6004 160.4C86.6004 160.4 85.9004 160.6 85.4004 161.1C84.7504 161.75 84.6504 162.7 84.6504 163.35C84.7004 170.25 84.7004 177.15 84.6504 183.95C84.6504 184.6 84.7004 185.55 85.3504 186.2C85.8504 186.7 86.5004 186.9 87.5004 186.9H87.5504C94.2004 186.85 101.2 186.85 108.95 186.9C109.9 186.9 110.6 186.7 111.1 186.2C111.75 185.55 111.8 184.65 111.8 184.05C111.75 176.7 111.75 169.9 111.8 163.3C111.9 162.3 111.65 161.6 111.15 161.1ZM107.45 164.8V182.5H89.1004V164.8H107.45Z" fill="#861BB9"/>
<path d="M182.85 163.35C182.85 162.7 182.8 161.75 182.1 161.1C181.6 160.6 180.9 160.35 179.9 160.4C173 160.45 165.85 160.45 158.65 160.4C158 160.4 157.05 160.45 156.35 161.1C155.85 161.6 155.65 162.3 155.65 163.3C155.7 169.75 155.7 176.55 155.65 184.05C155.65 184.7 155.7 185.6 156.35 186.25C156.85 186.75 157.55 186.95 158.5 186.95C161.05 186.9 163.65 186.9 166.15 186.9C168.2 186.9 170.25 186.9 172.35 186.9C174.8 186.9 177.4 186.9 179.9 186.95C179.95 186.95 180 186.95 180 186.95C180.95 186.95 181.6 186.7 182.1 186.25C182.75 185.6 182.85 184.65 182.85 183.95C182.85 177.35 182.85 170.45 182.85 163.35ZM178.5 164.85V182.45H160.1V164.85H178.5Z" fill="#861BB9"/>
<path d="M111.9 126.9C111.9 125.95 111.65 125.25 111.2 124.8C110.55 124.15 109.7 124.1 109.05 124.1H109C101.95 124.15 94.7502 124.15 87.6002 124.1C86.9502 124.1 86.0502 124.15 85.4002 124.8C84.9002 125.3 84.7002 125.95 84.7002 126.9C84.7502 134.8 84.7502 141.4 84.7002 147.65C84.7002 148.65 84.9502 149.35 85.4502 149.85C86.1002 150.45 86.9502 150.55 87.6002 150.55C87.6502 150.55 87.7002 150.55 87.7002 150.55C90.2002 150.5 92.7502 150.5 95.2502 150.55C97.3002 150.55 99.3502 150.55 101.4 150.55C103.85 150.55 106.45 150.55 108.95 150.55C109.6 150.55 110.55 150.5 111.2 149.85C111.7 149.35 111.95 148.65 111.95 147.65C111.85 141.65 111.85 135.05 111.9 126.9ZM107.45 128.45V146.2H89.0502V128.45H107.45Z" fill="#861BB9"/>
<path d="M182.15 124.8C181.5 124.15 180.55 124.1 179.85 124.1C177.35 124.15 174.8 124.15 172.3 124.15C170.25 124.15 168.2 124.15 166.15 124.15C163.7 124.15 161.15 124.15 158.6 124.1C157.65 124.1 156.9 124.3 156.4 124.8C155.75 125.45 155.65 126.4 155.65 127.05C155.7 133.65 155.7 140.4 155.65 147.65C155.65 148.3 155.7 149.2 156.35 149.85C156.8 150.3 157.5 150.55 158.45 150.55C164.85 150.5 171.7 150.5 180.05 150.55C180.95 150.55 181.65 150.3 182.1 149.85C182.6 149.35 182.8 148.7 182.8 147.75C182.75 139.85 182.75 133.25 182.8 127C182.9 126 182.65 125.3 182.15 124.8ZM178.5 128.5V146.2H160.1V128.5H178.5Z" fill="#861BB9"/>
<path d="M40.1506 124.8C39.6506 124.3 38.9506 124.1 37.9506 124.1C35.4506 124.15 32.9006 124.15 30.4006 124.15C28.3506 124.15 26.3006 124.15 24.2506 124.15C21.7506 124.15 19.2006 124.15 16.7006 124.1C16.0506 124.1 15.0506 124.15 14.4006 124.8C13.9006 125.3 13.6506 126 13.7006 127C13.7506 134.5 13.7506 142.05 13.7006 147.75C13.7006 148.7 13.9506 149.4 14.4006 149.85C14.8506 150.3 15.5506 150.55 16.4506 150.55C24.7506 150.55 31.6006 150.55 38.0006 150.55C38.9506 150.55 39.6006 150.3 40.1006 149.85C40.6006 149.35 40.8506 148.65 40.8006 147.65C40.7506 140.3 40.7506 133.55 40.8006 127.05C40.9006 126.4 40.8506 125.45 40.1506 124.8ZM36.5006 128.4V146.15H18.1006V128.4H36.5006Z" fill="#861BB9"/>
<path d="M180.05 118.4C181 118.4 181.7 118.15 182.15 117.7C182.8 117.05 182.85 116.15 182.85 115.5C182.85 111.45 182.85 107.35 182.85 103.3C182.85 98.35 182.85 93.25 182.8 88.2C182.8 87.35 182.45 86.3 181.9 85.65C178.55 81.35 174.5 76.25 170.25 71.1C169.55 70.3 168.25 69.65 167.2 69.6C162.05 69.5 156.85 69.55 151.8 69.55C150.6 69.55 149.4 69.55 148.25 69.55C145.8 69.55 145.15 70.2 145.15 72.65C145.15 78.05 145.15 83.5 145.15 88.9V94.05C145.15 95.8 145.15 97.6 145.15 99.35C145.15 104.65 145.15 110.1 145.15 115.45C145.15 116.2 145.2 117.1 145.85 117.75C146.3 118.2 146.95 118.45 147.85 118.45C157.8 118.35 168.3 118.35 180.05 118.4ZM165.95 80.15C165.95 82.3 165.95 84.55 165.95 86.75C165.95 87.7 166.15 88.45 166.65 88.9C167.15 89.4 167.85 89.6 168.85 89.6C171.05 89.55 173.35 89.55 175.5 89.6C176.15 89.6 176.8 89.6 177.5 89.6C177.8 89.6 178.15 89.6 178.5 89.65V114.05H149.5V74H165.95V77.45C165.95 78.35 165.95 79.25 165.95 80.15Z" fill="#861BB9"/>
<path d="M51.4502 115.35V113.3C51.4502 105.15 51.4502 96.7 51.4002 88.35C51.4002 87.35 51.0002 86.25 50.4002 85.5C46.0502 79.9 42.4002 75.35 38.8502 71.05C38.2002 70.25 36.8502 69.6 35.8002 69.6C30.8502 69.5 25.8002 69.55 20.9002 69.55C19.6002 69.55 18.3002 69.55 17.0002 69.55C14.3502 69.55 13.7002 70.2 13.7002 72.8C13.7002 77.95 13.7002 83.05 13.7002 88.2V94.05V99.85C13.7002 105 13.7002 110.15 13.7002 115.3C13.7002 117.75 14.3502 118.4 16.7502 118.4C21.9002 118.4 27.1502 118.4 32.5002 118.4C37.6002 118.4 42.8502 118.4 48.3002 118.4C50.8502 118.4 51.4502 117.8 51.4502 115.35ZM34.6502 86.5C34.6502 89 35.2502 89.6 37.7002 89.6C39.6502 89.6 41.6502 89.6 43.6002 89.6H47.1002V114H18.1002V74H34.6502V82.25C34.6502 83.7 34.6502 85.1 34.6502 86.5Z" fill="#861BB9"/>
<path d="M57.5503 99.95C57.5503 105.05 57.5503 110.15 57.5503 115.25C57.5503 117.85 58.1503 118.45 60.7003 118.45C65.9003 118.45 71.1003 118.45 76.3003 118.45C81.6503 118.45 86.9503 118.45 92.3003 118.45C94.7003 118.45 95.3003 117.85 95.3003 115.5V113.25C95.3003 105.1 95.3003 96.65 95.2503 88.35C95.2503 87.4 94.9003 86.35 94.3503 85.65C92.1503 82.85 89.9503 80.05 87.7503 77.35C86.1503 75.35 84.5003 73.25 82.8503 71.2C82.0003 70.1 81.0003 69.6 79.6003 69.6H79.5503C75.2503 69.65 70.9003 69.65 66.7003 69.65C64.7003 69.65 62.7003 69.65 60.7503 69.65C58.2003 69.65 57.5503 70.25 57.5503 72.8C57.5503 77.95 57.5503 83.05 57.5503 88.2V94.05V99.95ZM79.1003 88.9C79.7503 89.55 80.7003 89.6 81.3503 89.6C83.7503 89.55 86.1503 89.55 88.6503 89.55C89.4003 89.55 90.1503 89.55 90.9003 89.55V114H61.9003V74H78.4003C78.4003 74.35 78.4503 74.65 78.4503 74.95C78.4503 75.9 78.4503 76.8 78.4503 77.75C78.4503 80.7 78.5003 83.7 78.4503 86.7C78.4003 87.3 78.4503 88.25 79.1003 88.9Z" fill="#861BB9"/>
<path d="M139.05 115.4V113.65C139.05 105.35 139.05 96.75 139 88.3C139 87.35 138.65 86.4 138.15 85.7C133.6 79.9 129.9 75.25 126.4 71C125.75 70.2 124.5 69.6 123.45 69.6C118.3 69.55 113.05 69.55 108 69.55H104.45C101.9 69.55 101.3 70.2 101.3 72.75C101.3 77.9 101.3 83.05 101.3 88.2V94V99.8C101.3 105 101.3 110.2 101.3 115.4C101.3 117.8 101.9 118.4 104.25 118.4C109.5 118.4 114.8 118.4 120.1 118.4C125.4 118.4 130.7 118.4 135.95 118.4C138.4 118.4 139.05 117.75 139.05 115.4ZM105.7 73.95C105.85 73.95 106 73.9 106.1 73.9C107.8 73.9 109.5 73.9 111.15 73.9C114.55 73.9 118 73.9 121.45 73.85C122 73.85 122.1 73.95 122.1 73.95C122.1 73.95 122.2 74.05 122.2 74.6C122.15 77.65 122.15 80.7 122.15 83.7C122.15 84.55 122.15 85.4 122.15 86.2C122.15 89 122.7 89.55 125.45 89.55C127.75 89.55 130.05 89.55 132.4 89.55H134.65V114H105.65L105.7 73.95Z" fill="#861BB9"/>
<path d="M145.15 42.95V47.9C145.15 53.05 145.15 58.25 145.15 63.4C145.15 66.05 145.65 66.6 148.25 66.6C153.5 66.6 158.75 66.6 164 66.6C169.25 66.6 174.5 66.6 179.75 66.6C182.15 66.6 182.8 65.95 182.8 63.5V59.4C182.8 51.95 182.8 44.25 182.75 36.7C182.75 35.65 182.35 34.5 181.75 33.7C177.8 28.5 174 23.8 170.25 19.25C169.6 18.45 168.35 17.85 167.3 17.85C162.15 17.8 156.95 17.8 151.9 17.8C150.65 17.8 149.45 17.8 148.2 17.8C145.75 17.8 145.15 18.4 145.15 20.9C145.15 26 145.15 31.1 145.15 36.2V42.15V42.95ZM149.5 62.25V22.25H165.9C165.9 22.55 165.95 22.9 165.95 23.2C165.95 25.05 165.95 26.9 165.95 28.75C165.95 30.75 165.95 32.8 165.95 34.8C165.95 37.05 166.75 37.85 168.95 37.85C171.35 37.85 173.7 37.85 176.15 37.85H178.4V62.3L149.5 62.25Z" fill="#861BB9"/>
<path d="M60.6005 66.6C64.3505 66.6 68.1005 66.6 71.8505 66.6H76.3005C77.7505 66.6 79.2505 66.6 80.7005 66.6C84.5005 66.6 88.4505 66.6 92.3005 66.65C92.3505 66.65 92.3505 66.65 92.4005 66.65C93.1005 66.65 93.9505 66.55 94.5505 65.95C95.2005 65.3 95.2505 64.4 95.2505 63.8C95.2505 59.25 95.2005 54.6 95.2005 50.1C95.2005 45.6 95.2005 40.95 95.1505 36.35C95.1505 35.5 94.8005 34.45 94.2505 33.8C89.8505 28.2 86.1005 23.55 82.6005 19.25C82.0005 18.5 80.8005 17.9 79.8005 17.9C74.4505 17.85 69.0005 17.85 63.7505 17.85H60.5005C58.1505 17.85 57.5005 18.5 57.5005 20.85C57.5005 35.15 57.5005 49.4 57.5005 63.7C57.5505 66 58.2005 66.6 60.6005 66.6ZM78.4505 34.75C78.4505 37.1 79.1505 37.75 81.4505 37.8C83.8005 37.8 86.2005 37.8 88.6005 37.8H90.9005V62.25H62.0005V22.2H78.5005V28.5C78.4005 30.6 78.4005 32.7 78.4505 34.75Z" fill="#861BB9"/>
<path d="M13.7502 63.5C13.7502 66 14.3502 66.6 16.8002 66.6C22.1502 66.6 27.4502 66.6 32.8002 66.6C38.0002 66.6 43.1502 66.6 48.3502 66.6C50.8502 66.6 51.4502 66 51.4502 63.55V60.85C51.4502 52.9 51.4502 44.65 51.4002 36.55C51.4002 35.5 51.0002 34.35 50.3502 33.55C48.1502 30.7 45.8502 27.85 43.6502 25.1C42.1502 23.2 40.6002 21.25 39.0502 19.35C38.1502 18.25 37.2002 17.75 35.8502 17.75H35.8002C31.4002 17.8 26.9002 17.8 22.5502 17.8C20.6502 17.8 18.7502 17.8 16.8502 17.8C14.3502 17.8 13.7002 18.45 13.7002 21C13.7002 26.15 13.7002 31.25 13.7002 36.4V42.25V47.95C13.7502 53.15 13.7502 58.3 13.7502 63.5ZM34.6502 34.65C34.6502 37.2 35.3002 37.8 37.8502 37.8C40.1502 37.8 42.5002 37.8 44.8502 37.8H47.0502V62.2H18.1502V22.2H34.6502V25.3C34.6502 28.45 34.6502 31.55 34.6502 34.65Z" fill="#861BB9"/>
<path d="M102.051 65.9C102.501 66.4 103.201 66.6 104.201 66.6C113.801 66.55 124.251 66.55 136.201 66.6C137.151 66.6 137.851 66.35 138.351 65.9C139.001 65.25 139.051 64.35 139.051 63.75C139.051 59.75 139.051 55.8 139.051 51.8C139.051 46.75 139.051 41.55 139.001 36.45C139.001 35.5 138.651 34.45 138.051 33.75C133.601 28.05 129.901 23.5 126.501 19.35C125.801 18.55 124.501 17.9 123.451 17.9C118.451 17.8 113.351 17.85 108.451 17.85C107.151 17.85 105.801 17.85 104.501 17.85C101.901 17.85 101.351 18.4 101.351 21.05C101.351 27.05 101.351 33.05 101.351 39.1V42.3C101.351 44.05 101.351 45.8 101.351 47.55C101.351 52.85 101.351 58.3 101.351 63.7C101.351 64.35 101.401 65.25 102.051 65.9ZM105.751 62.2V22.2H122.201C122.201 22.5 122.251 22.8 122.251 23.1C122.251 24.7 122.251 26.25 122.251 27.85C122.251 30.15 122.251 32.4 122.251 34.7C122.251 37.1 122.951 37.75 125.401 37.8C127.751 37.8 130.151 37.8 132.551 37.8H134.751V62.2H105.751Z" fill="#861BB9"/>
</svg>
