<svg width="200" height="200" viewBox="0 0 200 200" fill="none" xmlns="http://www.w3.org/2000/svg">
<path d="M99.9502 88.4001C87.0502 88.4001 74.1502 88.4501 61.2502 88.3501C54.5002 88.3001 49.6502 83.3001 49.5502 76.5001C49.5002 72.7501 49.5002 69.0001 49.5502 65.2001C49.5502 62.9001 51.2002 61.2501 53.5002 61.2001C53.6002 61.2001 53.7502 61.2001 53.8502 61.2001C54.9502 61.1001 56.5002 61.7001 57.1002 60.9501C57.6502 60.2501 57.3002 58.8001 57.3002 57.6501C57.3002 43.5501 57.3002 29.4501 57.3002 15.3501C57.3002 10.1001 60.5002 6.8501 65.7002 6.8501C88.6002 6.8501 111.45 6.8501 134.35 6.8501C138.6 6.8501 141.75 9.3001 142.5 13.1501C142.85 14.9501 142.65 16.8001 142.65 18.6001C142.65 32.3501 142.65 46.1001 142.6 59.8501C142.6 60.9501 142.9 61.3001 144 61.2001C144.9 61.1001 145.8 61.1501 146.65 61.2001C148.55 61.3001 150.3 62.7501 150.35 64.6001C150.45 69.0001 150.75 73.4501 150.25 77.8001C149.5 84.3501 144.8 88.3501 138.25 88.3501C125.65 88.3501 113.05 88.3501 100.4 88.3001C100.25 88.3501 100.1 88.3501 99.9502 88.4001ZM99.8502 61.2501C111.1 61.2501 122.4 61.2501 133.65 61.2501C134.65 61.2501 134.9 61.0501 134.9 60.0001C134.85 45.3001 134.85 30.6001 134.9 15.9001C134.9 14.9001 134.7 14.6501 133.65 14.6501C111.2 14.7001 88.7002 14.7001 66.2502 14.6501C65.2502 14.6501 65.0002 14.8501 65.0002 15.9001C65.0502 30.5501 65.0502 45.2501 65.0002 59.9001C65.0002 61.0001 65.2502 61.3001 66.3502 61.2501C77.5502 61.2501 88.7002 61.2501 99.8502 61.2501ZM99.9002 80.6501C103.15 80.6501 106.35 80.6501 109.6 80.6501C119.2 80.6501 128.85 80.6501 138.45 80.6501C141 80.6501 142.65 79.0501 142.65 76.5001C142.65 74.3001 142.65 72.0501 142.65 69.8501C142.65 69.2501 142.55 69.0001 141.85 69.0001C133.3 69.0001 124.7 69.0001 116.15 69.0001C115.65 69.0001 115.5 69.1001 115.4 69.6001C114.8 71.9001 113.45 72.8501 111.1 72.8501C103.65 72.8501 96.1502 72.8501 88.7002 72.8501C86.5002 72.8501 85.0502 71.8001 84.5502 69.7001C84.4002 69.1001 84.2002 68.9501 83.6502 68.9501C75.1502 68.9501 66.7002 68.9501 58.2002 68.9501C57.4002 68.9501 57.2502 69.2001 57.3002 69.9001C57.3502 71.9001 57.3002 73.8501 57.3002 75.8501C57.3002 79.2001 58.7502 80.6001 62.1002 80.6001C74.7002 80.6501 87.3002 80.6501 99.9002 80.6501Z" fill="#861BB9"/>
<path d="M49.5507 193.15C38.1507 193.15 26.7507 193.15 15.3507 193.15C10.1007 193.15 6.85071 189.95 6.85071 184.7C6.85071 182.75 6.90071 180.8 6.85071 178.9C6.80071 177.95 7.05071 177.55 8.10071 177.6C9.85071 177.7 11.6507 177.55 13.4507 177.65C14.5007 177.7 14.7007 177.3 14.7007 176.35C14.6507 163.95 14.6507 151.55 14.7007 139.15C14.7007 135.25 16.9007 132.4 20.6507 131.3C21.3507 131.1 22.1007 131.1 22.8007 131.1C40.6507 131.1 58.5507 131.1 76.4007 131.1C81.2007 131.1 84.5007 134.45 84.5007 139.3C84.5007 151.65 84.5007 163.95 84.5007 176.3C84.5007 177.35 84.7007 177.8 85.8507 177.7C87.6007 177.6 89.3507 177.7 91.0507 177.65C91.9507 177.6 92.3507 177.8 92.3007 178.8C92.2007 180.9 92.3007 183 92.2507 185.1C92.2007 189.8 88.8507 193.15 84.1507 193.15C72.6007 193.2 61.0507 193.15 49.5507 193.15ZM49.5007 177.65C58.1507 177.65 66.8007 177.65 75.4507 177.7C76.4007 177.7 76.7507 177.5 76.7507 176.45C76.7007 164.3 76.7007 152.2 76.7507 140.05C76.7507 139 76.4507 138.8 75.4507 138.8C58.2007 138.85 40.9507 138.85 23.6507 138.8C22.5507 138.8 22.3507 139.15 22.3507 140.15C22.4007 152.25 22.4007 164.3 22.3507 176.4C22.3507 177.45 22.7007 177.65 23.6507 177.65C32.2507 177.65 40.9007 177.65 49.5007 177.65Z" fill="#861BB9"/>
<path d="M150.451 193.15C139.051 193.15 127.651 193.15 116.251 193.15C111.001 193.15 107.751 189.95 107.751 184.7C107.751 182.8 107.801 180.9 107.751 179C107.701 177.95 107.951 177.5 109.101 177.6C110.851 177.7 112.601 177.55 114.301 177.65C115.351 177.7 115.551 177.35 115.551 176.35C115.501 163.95 115.501 151.55 115.551 139.15C115.551 135.25 117.801 132.35 121.501 131.3C122.201 131.1 122.951 131.1 123.651 131.1C141.501 131.1 159.401 131.1 177.251 131.1C182.051 131.1 185.351 134.45 185.351 139.3C185.351 151.6 185.351 163.85 185.351 176.15C185.351 177.3 185.551 177.8 186.851 177.7C188.601 177.55 190.351 177.75 192.051 177.65C193.001 177.6 193.201 177.95 193.151 178.8C193.101 180.9 193.151 183 193.151 185.1C193.101 189.85 189.801 193.15 185.051 193.15C173.451 193.2 161.951 193.15 150.451 193.15ZM150.401 177.65C159.101 177.65 167.751 177.65 176.451 177.65C177.301 177.65 177.601 177.5 177.601 176.55C177.551 164.4 177.551 152.25 177.601 140.05C177.601 139.05 177.301 138.8 176.351 138.8C159.051 138.85 141.751 138.85 124.501 138.8C123.601 138.8 123.251 138.95 123.251 139.95C123.301 152.1 123.301 164.25 123.251 176.45C123.251 177.4 123.501 177.65 124.451 177.65C133.101 177.65 141.751 177.65 150.401 177.65Z" fill="#861BB9"/>
<path d="M99.8501 115.55C84.9001 115.55 69.9502 115.55 55.0002 115.55C53.4002 115.55 53.4002 115.55 53.4002 117.15C53.4002 117.9 53.4002 118.7 53.4002 119.45C53.3502 121.6 51.6002 123.3 49.5002 123.3C47.4502 123.3 45.7002 121.6 45.6502 119.4C45.6002 116.95 45.6502 114.45 45.6502 112C45.6502 109.4 47.3002 107.75 49.9002 107.75C60.5502 107.75 71.1502 107.75 81.8002 107.75C86.2502 107.75 90.7002 107.75 95.1502 107.75C95.9502 107.75 96.1502 107.55 96.1502 106.75C96.1002 104.6 96.1002 102.45 96.1502 100.35C96.1502 97.95 97.8002 96.1 99.9002 96.15C102.25 96.15 103.9 97.85 103.9 100.4C103.9 102.5 103.95 104.6 103.9 106.7C103.85 107.6 104.1 107.85 105.05 107.8C120 107.75 134.95 107.8 149.9 107.75C151.05 107.75 152.05 107.95 152.95 108.7C153.9 109.5 154.4 110.5 154.4 111.75C154.4 114.25 154.4 116.75 154.4 119.25C154.35 121.5 152.65 123.25 150.55 123.25C148.4 123.25 146.75 121.5 146.65 119.25C146.65 119.15 146.65 119.1 146.65 119C146.55 117.85 147.15 116.3 146.4 115.65C145.75 115.1 144.25 115.45 143.1 115.45C128.65 115.55 114.25 115.55 99.8501 115.55Z" fill="#861BB9"/>
<path d="M96.0504 53.5001C93.4004 53.5001 91.6004 50.8501 92.4504 48.2001C94.7504 41.3001 97.0504 34.4501 99.3504 27.5501C99.6504 26.6501 99.9004 25.8001 100.25 24.9001C101.05 22.8501 103.2 21.9501 105.35 22.7001C107.2 23.3501 108.25 25.6001 107.55 27.6001C105 35.2501 102.45 42.9001 99.8504 50.5501C99.2504 52.4501 97.8504 53.5001 96.0504 53.5001Z" fill="#861BB9"/>
<path d="M88.3506 29.95C88.3506 31.25 87.9506 32.2 87.1506 32.95C85.7006 34.35 84.3006 35.85 82.8506 37.2C82.3006 37.75 82.2006 38.05 82.8506 38.65C84.3006 40.05 85.7006 41.5 87.1506 42.95C88.3006 44.1 88.6506 45.5 88.1006 47.05C87.6006 48.5 86.5006 49.2 85.0506 49.5C83.9006 49.75 82.8506 49.45 82.0506 48.65C79.3006 45.95 76.5006 43.2 73.8006 40.45C72.4506 39.05 72.4506 36.9 73.8006 35.5C76.5006 32.7 79.2506 29.95 82.0006 27.25C83.1506 26.15 84.6006 26 86.0506 26.7C87.5006 27.35 88.2506 28.55 88.3506 29.95Z" fill="#861BB9"/>
<path d="M127.151 38.0001C127.151 38.9001 126.901 39.8001 126.251 40.4501C123.501 43.2001 120.801 45.9501 118.001 48.6501C116.551 50.0001 114.651 49.9501 113.101 48.8001C111.801 47.8501 111.251 45.9001 111.901 44.3501C112.151 43.7001 112.651 43.2001 113.101 42.7001C114.401 41.4001 115.701 40.0501 117.051 38.7501C117.651 38.2001 117.751 37.8501 117.101 37.2501C115.651 35.9001 114.251 34.5001 112.901 33.0501C111.201 31.3001 111.151 29.1001 112.751 27.5001C114.351 25.8501 116.601 25.9001 118.351 27.6001C120.901 30.1001 123.401 32.7001 125.951 35.2001C126.701 35.9501 127.151 36.8501 127.151 38.0001Z" fill="#861BB9"/>
<path d="M49.5502 146.6C54.7002 146.6 59.8002 146.6 64.9502 146.6C66.8002 146.6 68.2002 147.65 68.8002 149.35C69.3002 150.85 68.7502 152.5 67.4002 153.55C66.7002 154.05 65.9002 154.35 65.0502 154.35C54.7502 154.35 44.4502 154.35 34.1502 154.35C31.9002 154.35 30.2002 152.6 30.2002 150.45C30.2002 148.3 31.9502 146.6 34.2002 146.6C39.3002 146.6 44.4002 146.6 49.5502 146.6Z" fill="#861BB9"/>
<path d="M49.5504 169.9C44.5504 169.9 39.5504 169.9 34.5504 169.9C32.0004 169.9 30.2004 168.3 30.1504 166.05C30.1504 163.8 31.9004 162.15 34.4504 162.15C44.6004 162.15 54.7004 162.15 64.8504 162.15C66.8004 162.15 68.2004 163.2 68.7504 165C69.2504 166.5 68.6504 168.15 67.3004 169.15C66.5004 169.7 65.6504 169.9 64.7004 169.9C59.6504 169.9 54.6004 169.9 49.5504 169.9Z" fill="#861BB9"/>
<path d="M150.451 154.35C145.301 154.35 140.101 154.35 134.951 154.35C132.901 154.35 131.251 152.85 131.051 150.9C130.851 149.05 132.001 147.35 133.901 146.8C134.251 146.7 134.601 146.65 134.951 146.65C145.251 146.65 155.551 146.65 165.851 146.65C167.601 146.65 169.001 147.65 169.601 149.25C170.151 150.75 169.751 152.3 168.501 153.45C167.701 154.2 166.701 154.45 165.601 154.45C160.551 154.35 155.501 154.35 150.451 154.35Z" fill="#861BB9"/>
<path d="M150.4 169.9C145.25 169.9 140.15 169.9 135 169.9C133.15 169.9 131.75 168.85 131.2 167.1C130.7 165.55 131.25 163.95 132.65 162.95C133.35 162.45 134.15 162.2 135 162.2C145.25 162.2 155.5 162.2 165.75 162.2C168 162.2 169.75 163.9 169.8 166C169.8 168.2 168.05 169.9 165.75 169.9C160.65 169.9 155.5 169.9 150.4 169.9Z" fill="#861BB9"/>
</svg>
