<svg width="200" height="201" viewBox="0 0 200 201" fill="none" xmlns="http://www.w3.org/2000/svg">
<path d="M102.95 188.6C102.95 190.3 103 192 102.95 193.7C102.9 195.85 101.75 197.05 99.9497 197.1C98.2497 197.1 97.0997 195.85 97.0497 193.85C96.9997 190.35 96.9997 186.8 97.0497 183.3C97.0997 181.35 98.1497 180.2 99.8497 180.15C101.65 180.1 102.85 181.2 102.95 183.2C103 184.95 102.95 186.75 102.95 188.6Z" fill="#861BB9"/>
<path d="M102.95 12.4999C102.95 14.1999 103 15.8999 102.95 17.5999C102.9 19.7499 101.8 20.8999 99.9497 20.9499C98.1997 20.9499 97.0997 19.7999 97.0497 17.6999C96.9997 14.1999 96.9997 10.6499 97.0497 7.14993C97.0997 5.24993 98.1997 4.04993 99.8497 3.94993C101.6 3.89993 102.75 5.04993 102.95 7.04993C102.95 7.14993 102.95 7.29993 102.95 7.44993C102.95 9.09993 102.95 10.7999 102.95 12.4999Z" fill="#861BB9"/>
<path d="M11.8999 103.45C10.1999 103.45 8.4999 103.5 6.7999 103.45C4.6999 103.4 3.3999 102.2 3.3999 100.45C3.3999 98.7499 4.5999 97.6 6.6499 97.55C10.1499 97.5 13.6999 97.5 17.1999 97.55C19.2499 97.6 20.3999 98.7499 20.3999 100.5C20.3999 102.2 19.1499 103.35 17.1499 103.4C15.4499 103.5 13.6999 103.45 11.8999 103.45Z" fill="#861BB9"/>
<path d="M187.95 103.45C186.2 103.45 184.45 103.5 182.65 103.45C180.65 103.35 179.5 102.2 179.55 100.45C179.6 98.75 180.7 97.65 182.65 97.6C186.25 97.55 189.8 97.55 193.4 97.6C195.35 97.65 196.6 98.95 196.55 100.6C196.5 102.2 195.25 103.4 193.4 103.45C191.6 103.5 189.75 103.45 187.95 103.45Z" fill="#861BB9"/>
<path d="M61.9497 171.45C61.5497 172.6 61.3997 173.25 61.0497 173.85C59.3497 176.85 57.6497 179.85 55.8497 182.8C54.8497 184.5 53.1497 184.95 51.6997 184.1C50.2997 183.3 49.8497 181.6 50.7497 180C52.5497 176.75 54.4497 173.6 56.2997 170.4C57.0997 169.1 58.3997 168.6 59.6997 169.2C60.6497 169.7 61.2997 170.75 61.9497 171.45Z" fill="#861BB9"/>
<path d="M62.0001 29.4C61.2501 30.2 60.6501 31.25 59.7001 31.75C58.5001 32.35 57.1501 32 56.4001 30.75C54.4001 27.45 52.4501 24.05 50.6001 20.65C49.8501 19.25 50.2501 17.9 51.5501 17C52.8501 16.05 54.4001 16.1 55.2501 17.4C57.5001 20.95 59.5001 24.65 61.5501 28.25C61.6501 28.45 61.6501 28.75 61.6501 29C61.7501 29.2 61.9001 29.3 62.0001 29.4Z" fill="#861BB9"/>
<path d="M141.7 32.0001C139 31.9501 137.6 29.8001 138.6 27.8001C140.4 24.4501 142.35 21.1501 144.35 17.8501C145.25 16.4001 146.95 16.0501 148.3 16.9001C149.7 17.8001 150.15 19.2001 149.35 20.6501C147.5 24.0501 145.55 27.4501 143.5 30.7501C143.1 31.4501 142.05 31.7501 141.7 32.0001Z" fill="#861BB9"/>
<path d="M181.6 150.5C180.5 150.05 179.85 149.9 179.25 149.55C176.3 147.9 173.35 146.25 170.45 144.5C168.65 143.45 168.05 141.75 168.9 140.25C169.75 138.75 171.5 138.4 173.35 139.45C176.4 141.15 179.45 142.9 182.45 144.7C183.75 145.5 184.5 146.75 183.8 148.2C183.35 149.15 182.3 149.8 181.6 150.5Z" fill="#861BB9"/>
<path d="M170.75 62.2501C170.2 61.7501 169.2 61.2001 168.75 60.3001C168.1 59.1001 168.45 57.7001 169.7 57.0001C173.1 54.9001 176.6 52.9001 180.1 50.9501C181.45 50.2501 182.7 50.8501 183.5 52.1001C184.3 53.3001 184.3 54.8001 183.2 55.5001C179.6 57.8501 175.8 59.9001 172.05 62.0501C171.85 62.2001 171.55 62.1501 170.75 62.2501Z" fill="#861BB9"/>
<path d="M18.4999 150.3C17.9499 149.85 16.6499 149.3 16.3999 148.45C16.0999 147.5 16.3499 145.75 16.9999 145.3C20.4999 143 24.1499 140.9 27.8499 138.95C29.0999 138.3 30.6999 138.9 31.1499 140.3C31.4499 141.3 31.2499 143.2 30.5999 143.65C27.0499 145.95 23.2999 147.95 19.5999 150.05C19.3999 150.2 19.1999 150.15 18.4999 150.3Z" fill="#861BB9"/>
<path d="M29.0997 62.45C27.9497 62.05 27.2997 61.9 26.6997 61.55C23.7497 59.9 20.7997 58.25 17.8997 56.5C16.0497 55.4 15.4997 53.75 16.2997 52.25C17.0497 50.9 18.7497 50.35 20.1997 51.15C23.5497 53 26.7997 54.95 30.0997 56.9C31.3497 57.65 31.7997 58.9 31.2497 60.15C30.8497 61.1 29.7997 61.75 29.0997 62.45Z" fill="#861BB9"/>
<path d="M141.9 169.05C142.3 169.4 143.35 169.85 143.85 170.7C145.75 173.75 147.5 176.85 149.25 179.95C150.15 181.55 149.7 183.2 148.3 184.05C146.85 184.9 145.2 184.5 144.25 182.9C142.4 179.8 140.55 176.65 138.8 173.45C137.65 171.25 139 168.95 141.9 169.05Z" fill="#861BB9"/>
<path d="M164.4 94.0501C162.1 91.4001 159.55 88.9501 156.9 86.6501C154 84.1501 153.35 81.3 154.2 77.7C155 74.3 155.55 70.8 155.95 68.6C155.9 61.75 153.45 58.5501 148.1 57.4001C144.8 56.7001 141.4 56.3001 138.05 55.9501C134.7 55.6001 132.25 54.2001 130.95 50.9501C130 48.6501 128.85 46.4 127.75 44.1C123.8 35.9 118.85 34.3001 110.8 38.7001C108.15 40.1501 105.5 41.6001 102.85 42.9501C101 43.9001 99.05 43.8501 97.2 42.9501C94.75 41.7001 92.35 40.25 89.85 39.1C87.65 38.05 85.4 36.9501 83.05 36.4501C79.15 35.6501 75.4 38.1 72.95 42.85C71.65 45.35 70.4 47.9 69.4 50.55C68 54.1 65.45 55.65 61.8 56C58.5 56.3 55.15 56.7001 51.95 57.4001C46.35 58.6501 43.55 62.6 44.2 68.35C44.55 71.65 45.3 74.9001 46 78.1501C46.65 81.4001 46.1 84.2 43.4 86.45C41.15 88.35 39 90.4 36.9 92.5C31.7 97.75 31.7 103.25 36.9 108.5C39.1 110.75 41.45 112.85 43.75 114.95C45.6 116.65 46.55 118.65 46.1 121.15C45.55 124.3 44.9 127.45 44.35 130.6C43 138 46 142.55 53.35 143.95C56.2 144.5 59.05 144.75 61.95 145C65.45 145.3 67.95 146.85 69.3 150.25C70.3 152.75 71.45 155.2 72.65 157.6C76.2 164.6 80.95 166.25 87.95 162.85C90.5 161.6 92.9 160.15 95.35 158.7C98.45 156.85 101.5 156.9 104.6 158.75C107.1 160.25 109.6 161.65 112.15 162.95C118.45 166.1 123.05 164.8 126.6 158.65C128.15 156 129.4 153.15 130.6 150.35C132.05 146.75 134.7 145.3 138.45 144.9C142.1 144.55 145.85 144.05 149.4 143.1C153.75 141.9 156.1 138.55 155.8 134.05C155.55 130.3 154.9 126.6 154.1 122.9C153.35 119.35 154.1 116.6 156.95 114.2C159.6 111.95 162.1 109.6 164.35 106.95C168 102.85 168 98.2501 164.4 94.0501ZM58.9 99.5501C59.15 78.7001 75.5 60.1501 98.65 59.4501C122.2 58.7501 140.75 77 141.05 100.35C141.1 122.2 124.15 140.55 101.7 141.5C77.8 142.5 58.55 123.75 58.9 99.5501Z" fill="#861BB9"/>
<path d="M100.3 65.25C80.3496 65.25 64.6996 81.3 64.8496 100.2C64.4996 118.25 78.6496 135.75 100.15 135.7C120.2 135.65 135 119.85 135.25 100.9C135.5 81.55 119.5 65.25 100.3 65.25ZM123.25 89.4C122.9 89.85 122.55 90.25 122.2 90.55L119.05 93.7C111.2 101.55 103.35 109.4 95.4496 117.25C93.8996 118.8 92.4996 119.55 91.0996 119.55C89.6996 119.55 88.2496 118.75 86.6996 117.2C85.9496 116.45 85.1996 115.7 84.4496 114.95C82.0996 112.65 79.6996 110.2 77.3996 107.75C76.2996 106.6 75.5496 104.3 76.1996 102.65C76.9496 100.75 79.0496 99.75 79.9496 99.45C81.5996 98.8 83.4996 100.1 84.2496 100.85C86.2496 102.9 88.1496 104.95 90.1996 107.1C90.4496 107.35 90.6496 107.6 90.8996 107.8L94.9996 103.7C101.6 97.05 108 90.7 114.4 84.3C114.5 84.2 114.65 84.05 114.75 83.9C115.25 83.4 115.75 82.85 116.45 82.4C118.6 80.9 121.05 81.1 122.9 82.95C124.6 84.8 124.8 87.25 123.25 89.4Z" fill="#861BB9"/>
</svg>
