<svg width="560" height="231" viewBox="0 0 560 231" fill="none" xmlns="http://www.w3.org/2000/svg">
<path d="M303.997 202.513V187.635H256.002V202.513C255.999 206.398 254.579 210.149 252.008 213.059C249.438 215.969 245.894 217.838 242.045 218.314V218.437H317.954V218.314C314.104 217.838 310.561 215.969 307.991 213.059C305.42 210.149 304 206.398 303.997 202.513Z" fill="#DBD8D1" stroke="#56501E" stroke-width="1.62319" stroke-miterlimit="10"/>
<path d="M375.485 56.4731H184.515C183.489 56.4744 182.473 56.6786 181.527 57.0742C180.58 57.4697 179.721 58.0488 178.998 58.7781C178.275 59.5073 177.703 60.3725 177.316 61.3238C176.928 62.2751 176.731 63.2937 176.737 64.3213V189.578C176.736 190.602 176.936 191.616 177.327 192.562C177.717 193.509 178.29 194.369 179.012 195.093C179.734 195.818 180.592 196.392 181.536 196.785C182.48 197.177 183.493 197.379 184.515 197.379H375.485C376.507 197.379 377.519 197.177 378.464 196.785C379.408 196.392 380.266 195.818 380.988 195.093C381.71 194.369 382.283 193.509 382.673 192.562C383.063 191.616 383.264 190.602 383.262 189.578V64.3213C383.269 63.2937 383.072 62.2751 382.684 61.3238C382.296 60.3725 381.725 59.5073 381.002 58.7781C380.279 58.0488 379.42 57.4697 378.473 57.0742C377.526 56.6786 376.511 56.4744 375.485 56.4731Z" fill="white" stroke="#56501E" stroke-width="1.62319" stroke-miterlimit="10"/>
<path d="M280.181 190.997C279.414 190.997 278.664 190.769 278.026 190.342C277.388 189.915 276.891 189.308 276.597 188.598C276.303 187.888 276.227 187.107 276.376 186.353C276.526 185.599 276.895 184.907 277.438 184.363C277.98 183.82 278.672 183.45 279.424 183.3C280.177 183.15 280.957 183.227 281.665 183.521C282.374 183.815 282.98 184.313 283.406 184.952C283.832 185.591 284.06 186.343 284.06 187.111C284.06 188.142 283.651 189.13 282.924 189.859C282.196 190.588 281.21 190.997 280.181 190.997Z" fill="white" stroke="#56501E" stroke-width="1.62319" stroke-miterlimit="10"/>
<path d="M373.688 65.312H186.312V168.262H373.688V65.312Z" fill="#F1F2F2"/>
<path d="M331.609 224.895C331.609 226.113 331.127 227.282 330.268 228.144C329.408 229.007 328.243 229.493 327.026 229.495H232.939C231.722 229.493 230.555 229.007 229.694 228.145C228.834 227.283 228.349 226.114 228.347 224.895V222.99C228.349 221.771 228.834 220.602 229.694 219.74C230.555 218.878 231.722 218.392 232.939 218.39H327.065C328.281 218.392 329.446 218.878 330.306 219.74C331.165 220.603 331.647 221.772 331.647 222.99L331.609 224.895Z" fill="white" stroke="#56501E" stroke-width="1.62319" stroke-miterlimit="10"/>
<path d="M321.851 101.724C318.066 101.72 314.326 102.553 310.899 104.162C309.469 97.0349 305.591 90.6348 299.938 86.0756C294.286 81.5165 287.217 79.0867 279.961 79.209C272.705 79.3313 265.721 81.998 260.225 86.7451C254.729 91.4922 251.068 98.0194 249.879 105.191C247.654 104.574 245.317 104.481 243.05 104.919C240.784 105.357 238.649 106.315 236.813 107.716C234.977 109.118 233.49 110.927 232.468 113C231.445 115.074 230.916 117.356 230.92 119.668C230.92 119.925 230.92 120.183 230.92 120.44C230.217 120.345 229.509 120.294 228.8 120.287C224.45 120.391 220.313 122.196 217.273 125.315C214.233 128.434 212.531 132.62 212.531 136.979C212.531 141.338 214.233 145.524 217.273 148.643C220.313 151.762 224.45 153.567 228.8 153.671H321.775C325.18 153.671 328.552 152.999 331.697 151.694C334.843 150.388 337.701 148.475 340.109 146.063C342.516 143.651 344.426 140.788 345.729 137.637C347.032 134.486 347.703 131.108 347.703 127.697C347.703 124.287 347.032 120.909 345.729 117.758C344.426 114.607 342.516 111.743 340.109 109.332C337.701 106.92 334.843 105.006 331.697 103.701C328.552 102.396 325.18 101.724 321.775 101.724H321.851Z" fill="#599AFE"/>
<path d="M0.68457 229.495H559.315" stroke="#56501E" stroke-width="1.62319" stroke-linejoin="round"/>
<path d="M188.147 140.689L171.375 123.497H111.534V228.905H188.156L188.147 140.689Z" fill="white" stroke="#56501E" stroke-width="1.62319" stroke-miterlimit="10"/>
<path d="M186.997 141.194H170.854V124.497L186.997 141.194Z" fill="#FFA466"/>
<path d="M149.08 143.308C144.891 143.325 140.8 144.585 137.325 146.929C133.849 149.273 131.145 152.596 129.553 156.479C127.962 160.361 127.554 164.629 128.382 168.744C129.209 172.858 131.235 176.635 134.204 179.596C137.173 182.558 140.951 184.573 145.061 185.385C149.171 186.198 153.43 185.772 157.299 184.162C161.168 182.552 164.475 179.83 166.801 176.339C169.127 172.848 170.368 168.745 170.368 164.548H149.08V143.308Z" fill="#599AFE"/>
<path d="M152.589 143.594V161.033H170.073C169.341 156.662 167.261 152.629 164.126 149.502C160.99 146.374 156.956 144.308 152.589 143.594Z" fill="#FFA466"/>
<path d="M155.753 194.512H126.536V198.607H155.753V194.512Z" fill="#D66E17"/>
<path d="M171.898 202.093H126.338V206.189H171.898V202.093Z" fill="#D66E17"/>
<path d="M164.747 209.456H126.536V213.551H164.747V209.456Z" fill="#D66E17"/>
<path d="M430.191 126.44C430.191 127.194 429.968 127.93 429.55 128.557C429.132 129.183 428.538 129.672 427.843 129.96C427.148 130.248 426.384 130.324 425.646 130.177C424.908 130.03 424.231 129.667 423.699 129.134C423.167 128.601 422.805 127.922 422.658 127.183C422.511 126.444 422.587 125.678 422.874 124.982C423.162 124.286 423.65 123.691 424.275 123.272C424.901 122.854 425.636 122.63 426.388 122.63C427.397 122.63 428.364 123.032 429.077 123.746C429.79 124.461 430.191 125.43 430.191 126.44Z" fill="#DDDDDD" stroke="#56501E" stroke-width="1.62319" stroke-miterlimit="10"/>
<path d="M439.178 115.83C438.811 115.769 438.474 115.589 438.219 115.317C437.965 115.045 437.807 114.696 437.771 114.325V105.182C437.619 102.476 436.522 99.9099 434.673 97.932C432.824 95.9542 430.34 94.6904 427.654 94.3618L429.052 75.2081C429.074 74.8272 429.018 74.4459 428.888 74.0874C428.758 73.7289 428.556 73.4009 428.295 73.1234C428.034 72.8459 427.718 72.6248 427.369 72.4737C427.019 72.3226 426.642 72.2446 426.261 72.2446C425.881 72.2446 425.504 72.3226 425.154 72.4737C424.805 72.6248 424.489 72.8459 424.228 73.1234C423.967 73.4009 423.765 73.7289 423.635 74.0874C423.505 74.4459 423.449 74.8272 423.471 75.2081L424.859 94.3618C422.171 94.6863 419.682 95.9482 417.829 97.9264C415.976 99.9047 414.876 102.473 414.724 105.182V114.325C414.706 114.706 414.57 115.073 414.335 115.373C414.1 115.674 413.777 115.893 413.412 116.001C412.537 116.28 411.781 116.845 411.265 117.604C410.748 118.364 410.499 119.275 410.56 120.192V123.735C410.56 125.288 410.702 125.421 412.242 125.421H440.281C441.821 125.421 441.954 125.288 441.954 123.735V120.192C441.925 117.125 440.385 116.135 439.178 115.83Z" fill="#51D187" stroke="#56501E" stroke-width="1.62319" stroke-miterlimit="10"/>
<path d="M414.658 114.62H437.809" stroke="#56501E" stroke-width="1.62319" stroke-miterlimit="10"/>
<path d="M399.566 126.326C398.018 125.452 396.718 124.197 395.789 122.679C394.859 121.162 394.331 119.432 394.254 117.654C394.177 115.875 394.554 114.106 395.348 112.514C396.143 110.922 397.33 109.559 398.796 108.553" stroke="#56501E" stroke-width="1.62319" stroke-linejoin="round"/>
<path d="M404.416 122.735C403.05 121.267 402.275 119.343 402.241 117.336C402.208 115.329 402.918 113.381 404.236 111.868" stroke="#56501E" stroke-width="1.62319" stroke-linejoin="round"/>
<path d="M451.338 126.326C452.886 125.452 454.186 124.197 455.116 122.679C456.045 121.162 456.573 119.432 456.65 117.654C456.727 115.875 456.351 114.106 455.556 112.514C454.761 110.922 453.575 109.559 452.108 108.553" stroke="#56501E" stroke-width="1.62319" stroke-linejoin="round"/>
<path d="M446.499 122.735C447.868 121.268 448.644 119.343 448.676 117.334C448.707 115.326 447.992 113.378 446.67 111.868" stroke="#56501E" stroke-width="1.62319" stroke-linejoin="round"/>
<path d="M100.783 185.997H89.8488C88.7114 186.005 87.6232 186.463 86.8217 187.271C86.0201 188.079 85.5703 189.172 85.5703 190.312V199.084C85.5778 200.219 86.0306 201.306 86.8311 202.11C87.6316 202.913 88.7155 203.369 89.8488 203.379H91.2749V208.646H90.3907C90.0608 208.674 89.7534 208.826 89.5294 209.07C89.3054 209.314 89.1811 209.634 89.1811 209.965C89.1811 210.297 89.3054 210.617 89.5294 210.861C89.7534 211.105 90.0608 211.257 90.3907 211.285H91.2749V213.342H90.3907C90.0427 213.342 89.709 213.48 89.4629 213.727C89.2169 213.973 89.0786 214.308 89.0786 214.656C89.0786 215.005 89.2169 215.339 89.4629 215.586C89.709 215.832 90.0427 215.971 90.3907 215.971H91.2749V217.933H90.3907C90.0427 217.933 89.709 218.071 89.4629 218.318C89.2169 218.564 89.0786 218.898 89.0786 219.247C89.0786 219.596 89.2169 219.93 89.4629 220.176C89.709 220.423 90.0427 220.561 90.3907 220.561H91.2749V223.847C91.2749 224.858 91.6756 225.827 92.3888 226.541C93.102 227.256 94.0693 227.657 95.078 227.657H97.1411C97.7119 227.655 98.2584 227.426 98.6611 227.021C99.0638 226.615 99.2898 226.067 99.2898 225.495V203.379H100.783C101.927 203.379 103.025 202.924 103.835 202.113C104.644 201.302 105.099 200.202 105.099 199.055V190.283C105.091 189.142 104.633 188.051 103.824 187.247C103.015 186.444 101.922 185.995 100.783 185.997ZM97.7116 192.178C97.7116 192.608 97.5413 193.02 97.2382 193.323C96.935 193.627 96.5239 193.798 96.0953 193.798H94.1937C93.7642 193.798 93.3521 193.627 93.0475 193.324C92.7428 193.021 92.5704 192.609 92.5679 192.178V190.274C92.5704 189.843 92.7428 189.431 93.0475 189.128C93.3521 188.825 93.7642 188.654 94.1937 188.654H96.0953C96.5239 188.654 96.935 188.825 97.2382 189.129C97.5413 189.432 97.7116 189.844 97.7116 190.274V192.178Z" fill="#51D187" stroke="#56501E" stroke-width="1.62319" stroke-miterlimit="10"/>
<path d="M96.6348 204.503V223.561" stroke="#56501E" stroke-width="1.62319" stroke-linejoin="round"/>
<path d="M471.721 162.062H413.819V163.824H471.721V162.062Z" fill="#CCCA62"/>
<path d="M421.816 1.94531H364.2C362.522 1.94784 360.914 2.61726 359.728 3.80659C358.543 4.99592 357.877 6.60792 357.877 8.28863V42.7768C357.884 44.4517 358.554 46.0554 359.739 47.237C360.924 48.4187 362.528 49.0821 364.2 49.082H421.816C423.493 49.082 425.101 48.4147 426.287 47.2269C427.472 46.0391 428.138 44.4281 428.138 42.7482V8.28863C428.138 6.60792 427.473 4.99592 426.287 3.80659C425.102 2.61726 423.494 1.94784 421.816 1.94531Z" fill="white"/>
<path d="M421.816 1.94531H364.2C362.522 1.94784 360.914 2.61726 359.728 3.80659C358.543 4.99592 357.877 6.60792 357.877 8.28863V42.7768C357.884 44.4517 358.554 46.0554 359.739 47.237C360.924 48.4187 362.528 49.0821 364.2 49.082H421.816C423.493 49.082 425.101 48.4147 426.287 47.2269C427.472 46.0391 428.138 44.4281 428.138 42.7482V8.28863C428.138 6.60792 427.473 4.99592 426.287 3.80659C425.102 2.61726 423.494 1.94784 421.816 1.94531V1.94531Z" stroke="#56501E" stroke-width="1.62319" stroke-miterlimit="10"/>
<path d="M427.425 30.2236H358.666V39.71H427.425V30.2236Z" fill="#D66E17"/>
<path d="M436.183 6.0791H453.886" stroke="#56501E" stroke-width="1.62319" stroke-linejoin="round"/>
<path d="M466.416 6.0791H478.167" stroke="#56501E" stroke-width="1.62319" stroke-linejoin="round"/>
<path d="M465.322 18.6992H471.464" stroke="#56501E" stroke-width="1.62319" stroke-linejoin="round"/>
<path d="M483.987 18.6992H527.123" stroke="#56501E" stroke-width="1.62319" stroke-linejoin="round"/>
<path d="M55.7236 81.8179H61.8561" stroke="#56501E" stroke-width="1.62319" stroke-linejoin="round"/>
<path d="M51.7314 69.3315H70.6421" stroke="#56501E" stroke-width="1.62319" stroke-linejoin="round"/>
<path d="M38.1836 69.3315H43.2892" stroke="#56501E" stroke-width="1.62319" stroke-linejoin="round"/>
<path d="M74.3867 81.8179H117.523" stroke="#56501E" stroke-width="1.62319" stroke-linejoin="round"/>
<path d="M457.146 31.3096H479.708" stroke="#56501E" stroke-width="1.62319" stroke-linejoin="round"/>
<path d="M515.105 183.54H503.354" stroke="#56501E" stroke-width="1.62319" stroke-linejoin="round"/>
<path d="M516.959 196.16H510.826" stroke="#56501E" stroke-width="1.62319" stroke-linejoin="round"/>
<path d="M535.879 208.77H513.317" stroke="#56501E" stroke-width="1.62319" stroke-linejoin="round"/>
<path d="M492.23 31.3096H516.96" stroke="#56501E" stroke-width="1.62319" stroke-linejoin="round"/>
<path d="M192.578 63.1884C192.58 63.9622 192.429 64.7286 192.134 65.4438C191.839 66.1591 191.407 66.8091 190.861 67.3567C190.315 67.9043 189.667 68.3387 188.953 68.6351C188.24 68.9315 187.475 69.084 186.703 69.084H113.332C112.558 69.0866 111.791 68.9358 111.076 68.6406C110.36 68.3453 109.71 67.9113 109.162 67.3634C108.614 66.8156 108.18 66.1647 107.884 65.4482C107.588 64.7318 107.436 63.9638 107.438 63.1884C107.438 61.6273 108.057 60.1301 109.158 59.0263C110.26 57.9224 111.755 57.3022 113.313 57.3022H186.684C188.242 57.3022 189.737 57.9224 190.838 59.0263C191.94 60.1301 192.559 61.6273 192.559 63.1884H192.578Z" fill="white" stroke="#56501E" stroke-width="1.62319" stroke-miterlimit="10"/>
<path d="M123.075 62.9973C123.075 63.6062 122.894 64.2013 122.556 64.7075C122.218 65.2136 121.738 65.6079 121.177 65.8405C120.615 66.073 119.997 66.1334 119.401 66.0139C118.805 65.8944 118.258 65.6005 117.829 65.1693C117.4 64.7381 117.108 64.189 116.99 63.5916C116.873 62.9942 116.935 62.3754 117.169 61.8134C117.403 61.2514 117.798 60.7716 118.304 60.4347C118.811 60.0979 119.405 59.919 120.013 59.9209C120.416 59.9209 120.815 60.0006 121.187 60.1553C121.559 60.31 121.897 60.5368 122.181 60.8225C122.466 61.1083 122.691 61.4476 122.844 61.8207C122.998 62.1939 123.076 62.5938 123.075 62.9973Z" fill="#56501E"/>
<path d="M136.91 62.9973C136.91 63.6058 136.73 64.2006 136.393 64.7065C136.055 65.2124 135.576 65.6067 135.015 65.8395C134.454 66.0724 133.836 66.1333 133.24 66.0146C132.645 65.8959 132.097 65.6029 131.668 65.1727C131.239 64.7424 130.946 64.1943 130.828 63.5975C130.709 63.0007 130.77 62.3822 131.002 61.82C131.235 61.2579 131.628 60.7774 132.133 60.4394C132.638 60.1013 133.232 59.9209 133.84 59.9209C134.654 59.9209 135.435 60.245 136.011 60.822C136.587 61.3989 136.91 62.1814 136.91 62.9973Z" fill="#56501E"/>
<path d="M150.753 62.9973C150.753 63.6058 150.573 64.2006 150.236 64.7065C149.898 65.2124 149.419 65.6067 148.857 65.8395C148.296 66.0724 147.679 66.1333 147.083 66.0146C146.487 65.8959 145.94 65.6029 145.511 65.1727C145.081 64.7424 144.789 64.1943 144.67 63.5975C144.552 63.0007 144.613 62.3822 144.845 61.82C145.078 61.2579 145.471 60.7774 145.976 60.4394C146.481 60.1013 147.075 59.9209 147.682 59.9209C148.497 59.9209 149.278 60.245 149.854 60.822C150.43 61.3989 150.753 62.1814 150.753 62.9973Z" fill="#56501E"/>
<path d="M164.588 62.9973C164.588 63.6058 164.408 64.2006 164.071 64.7065C163.733 65.2124 163.254 65.6067 162.692 65.8395C162.131 66.0724 161.514 66.1333 160.918 66.0146C160.322 65.8959 159.775 65.6029 159.346 65.1727C158.916 64.7424 158.624 64.1943 158.505 63.5975C158.387 63.0007 158.448 62.3822 158.68 61.82C158.912 61.2579 159.306 60.7774 159.811 60.4394C160.316 60.1013 160.91 59.9209 161.517 59.9209C162.332 59.9209 163.113 60.245 163.689 60.822C164.265 61.3989 164.588 62.1814 164.588 62.9973Z" fill="#56501E"/>
<path d="M170.435 65.5884H184.05" stroke="#56501E" stroke-width="1.62319" stroke-linejoin="round"/>
<path d="M481.085 144.422H370.607C365.324 144.422 361.042 148.712 361.042 154.004V219.98C361.042 225.272 365.324 229.562 370.607 229.562H481.085C486.368 229.562 490.65 225.272 490.65 219.98V154.004C490.65 148.712 486.368 144.422 481.085 144.422Z" fill="#FF8633"/>
<path d="M478.225 154.356H377.358V219.628H478.225V154.356Z" fill="white" stroke="#56501E" stroke-width="1.62319" stroke-miterlimit="10"/>
<path d="M483.938 189.292C483.483 189.291 483.039 189.154 482.662 188.899C482.285 188.645 481.992 188.284 481.819 187.863C481.646 187.442 481.602 186.979 481.692 186.532C481.782 186.086 482.002 185.676 482.324 185.354C482.646 185.033 483.056 184.814 483.502 184.726C483.948 184.638 484.41 184.684 484.83 184.859C485.25 185.034 485.609 185.329 485.861 185.708C486.113 186.087 486.248 186.532 486.248 186.988C486.248 187.291 486.188 187.592 486.072 187.872C485.956 188.152 485.786 188.407 485.571 188.621C485.356 188.835 485.101 189.004 484.821 189.12C484.541 189.235 484.241 189.294 483.938 189.292Z" fill="#9C8E4B"/>
<path d="M369.658 190.893C368.887 190.893 368.133 190.664 367.492 190.234C366.851 189.805 366.352 189.196 366.056 188.482C365.761 187.768 365.684 186.983 365.835 186.226C365.985 185.468 366.356 184.772 366.901 184.226C367.447 183.68 368.141 183.308 368.897 183.158C369.654 183.007 370.437 183.084 371.15 183.38C371.862 183.675 372.471 184.176 372.899 184.818C373.327 185.46 373.556 186.215 373.556 186.988C373.556 188.023 373.145 189.017 372.414 189.749C371.683 190.481 370.692 190.893 369.658 190.893Z" fill="#D66E17" stroke="#56501E" stroke-width="1.62319" stroke-miterlimit="10"/>
<path d="M401.251 165.595H384.062V182.815H401.251V165.595Z" fill="#599AFE"/>
<path d="M458.002 186.102H446.479V196.302H458.002V186.102Z" fill="#599AFE"/>
<path d="M471.379 186.102H459.855V196.302H471.379V186.102Z" fill="#599AFE"/>
<path d="M458.002 197.874H446.479V208.075H458.002V197.874Z" fill="#599AFE"/>
<path d="M471.379 197.874H459.855V208.075H471.379V197.874Z" fill="#599AFE"/>
<path d="M471.522 165.595H405.14V167.367H471.522V165.595Z" fill="#D66E17"/>
<path d="M471.522 170.729H405.14V172.501H471.522V170.729Z" fill="#D66E17"/>
<path d="M471.522 175.854H405.14V177.625H471.522V175.854Z" fill="#D66E17"/>
<path d="M471.522 180.978H405.14V182.749H471.522V180.978Z" fill="#D66E17"/>
<path d="M442.828 186.102H405.14V187.873H442.828V186.102Z" fill="#D66E17"/>
<path d="M442.828 191.226H384.062V192.997H442.828V191.226Z" fill="#D66E17"/>
<path d="M442.828 196.359H384.062V198.131H442.828V196.359Z" fill="#D66E17"/>
<path d="M442.828 201.484H384.062V203.255H442.828V201.484Z" fill="#D66E17"/>
<path d="M442.828 206.608H384.062V208.379H442.828V206.608Z" fill="#D66E17"/>
<path d="M394.452 186.978C394.461 187.103 394.494 187.225 394.549 187.338C394.605 187.45 394.682 187.55 394.777 187.633C394.872 187.715 394.981 187.778 395.1 187.817C395.219 187.857 395.345 187.873 395.469 187.864H400.147C400.272 187.877 400.397 187.863 400.516 187.824C400.635 187.786 400.745 187.722 400.838 187.638C400.931 187.554 401.005 187.452 401.056 187.337C401.107 187.223 401.133 187.099 401.133 186.973C401.133 186.848 401.107 186.724 401.056 186.609C401.005 186.495 400.931 186.392 400.838 186.308C400.745 186.224 400.635 186.161 400.516 186.122C400.397 186.083 400.272 186.07 400.147 186.083H395.517C395.388 186.067 395.256 186.078 395.131 186.115C395.006 186.152 394.89 186.215 394.79 186.299C394.691 186.383 394.609 186.486 394.551 186.603C394.493 186.72 394.459 186.848 394.452 186.978Z" fill="#51D187"/>
<path d="M384.792 186.978C384.8 187.103 384.833 187.225 384.889 187.338C384.945 187.45 385.022 187.55 385.117 187.632C385.211 187.715 385.321 187.777 385.44 187.817C385.559 187.857 385.684 187.873 385.809 187.863H390.478C390.602 187.876 390.728 187.863 390.847 187.824C390.966 187.785 391.075 187.722 391.168 187.638C391.261 187.554 391.335 187.451 391.386 187.337C391.437 187.222 391.463 187.098 391.463 186.973C391.463 186.848 391.437 186.724 391.386 186.609C391.335 186.495 391.261 186.392 391.168 186.308C391.075 186.224 390.966 186.161 390.847 186.122C390.728 186.083 390.602 186.069 390.478 186.082H385.809C385.684 186.073 385.557 186.089 385.438 186.13C385.319 186.17 385.208 186.234 385.114 186.317C385.019 186.4 384.942 186.501 384.887 186.615C384.831 186.728 384.799 186.852 384.792 186.978Z" fill="#D66E17"/>
<path d="M31.5361 208.808H57.6061" stroke="#56501E" stroke-width="1.62319" stroke-linejoin="round"/>
<path d="M20.0322 208.808H24.2441" stroke="#56501E" stroke-width="1.62319" stroke-linejoin="round"/>
<path d="M11.9707 196.426H28.2668" stroke="#56501E" stroke-width="1.62319" stroke-linejoin="round"/>
<path d="M5.63867 183.54H13.9769" stroke="#56501E" stroke-width="1.62319" stroke-linejoin="round"/>
<path d="M200.496 227.609C200.251 227.608 200.009 227.56 199.783 227.466C188.849 222.704 175.196 208.865 172.724 185.311C172.679 184.839 172.819 184.367 173.116 183.997C173.412 183.627 173.842 183.387 174.312 183.33C176.015 183.128 177.643 182.514 179.055 181.539C180.467 180.565 181.621 179.261 182.416 177.739C183.211 176.217 183.624 174.524 183.618 172.806C183.613 171.088 183.189 169.398 182.384 167.881C182.271 167.671 182.201 167.441 182.179 167.204C182.156 166.967 182.18 166.728 182.251 166.5C182.398 166.041 182.719 165.658 183.145 165.433C188.514 162.673 194.461 161.23 200.496 161.224C206.533 161.225 212.485 162.644 217.876 165.367C218.089 165.477 218.278 165.629 218.432 165.814C218.585 165.999 218.7 166.213 218.77 166.443C218.845 166.671 218.872 166.913 218.849 167.152C218.826 167.392 218.754 167.624 218.637 167.834C217.811 169.378 217.377 171.101 217.372 172.853C217.371 175.44 218.32 177.938 220.039 179.87C221.757 181.802 224.124 183.033 226.69 183.33C227.155 183.387 227.579 183.623 227.875 183.987C228.171 184.35 228.315 184.815 228.277 185.282C225.843 208.884 212.181 222.742 201.219 227.438C200.991 227.542 200.746 227.6 200.496 227.609Z" fill="#FF8633"/>
<path d="M226.281 183.863C223.666 183.485 221.272 182.185 219.529 180.196C217.787 178.207 216.809 175.661 216.773 173.015C216.768 171.181 217.199 169.373 218.028 167.738C218.203 167.453 218.279 167.119 218.247 166.786C218.244 166.604 218.19 166.427 218.091 166.275C217.992 166.123 217.851 166.003 217.686 165.929C212.534 163.284 206.836 161.885 201.047 161.843L200.705 227.019C200.943 227.019 201.123 226.847 201.361 226.762C210.251 223.323 225.292 209.399 227.735 185.359C227.811 184.33 227.279 183.978 226.281 183.863Z" fill="#FFA466"/>
</svg>
