<svg width="240" height="217" viewBox="0 0 240 217" fill="none" xmlns="http://www.w3.org/2000/svg">
<g clip-path="url(#clip0_449_432)">
<mask id="path-1-inside-1_449_432" fill="white">
<path fill-rule="evenodd" clip-rule="evenodd" d="M11.6644 0.816895H147.096C149.967 0.816895 152.72 1.95824 154.75 3.98986C156.78 6.02147 157.92 8.77694 157.92 11.6501V33.2684C157.908 36.1332 156.762 38.8763 154.733 40.8976C152.705 42.9188 149.959 44.0536 147.096 44.0535H11.6644C8.79149 44.0535 6.03589 42.913 4.00219 40.882C1.96848 38.8511 0.822762 36.0957 0.816406 33.2204V11.602C0.835419 8.73503 1.98672 5.99194 4.01906 3.97138C6.05139 1.95081 8.79977 0.816831 11.6644 0.816895ZM11.6644 54.8627H147.096C149.963 54.8627 152.712 56.0007 154.742 58.0272C156.771 60.0536 157.914 62.8029 157.92 65.6719V87.2902C157.92 88.7128 157.64 90.1215 157.096 91.4359C156.553 92.7502 155.755 93.9445 154.75 94.9504C153.745 95.9564 152.552 96.7543 151.239 97.2987C149.925 97.8432 148.518 98.1234 147.096 98.1234H11.6644C8.79149 98.1234 6.03589 96.9828 4.00219 94.9519C1.96848 92.9209 0.822762 90.1655 0.816406 87.2902V65.6719C0.816406 62.7924 1.95932 60.0308 3.99371 57.9947C6.02811 55.9585 8.78734 54.8147 11.6644 54.8147V54.8627ZM11.6644 108.909H147.096C148.52 108.909 149.929 109.189 151.244 109.735C152.559 110.281 153.753 111.081 154.759 112.09C155.764 113.098 156.561 114.296 157.103 115.613C157.646 116.93 157.924 118.341 157.92 119.766V141.384C157.901 144.245 156.753 146.982 154.725 148.998C152.697 151.014 149.955 152.145 147.096 152.145H11.6644C8.79149 152.145 6.03589 151.005 4.00219 148.974C1.96848 146.943 0.822762 144.187 0.816406 141.312V119.694C0.835419 116.827 1.98672 114.084 4.01906 112.063C6.05139 110.042 8.79977 108.908 11.6644 108.909ZM17.0884 27.8398C17.7975 27.8398 18.4997 27.7 19.1549 27.4284C19.8101 27.1568 20.4053 26.7587 20.9068 26.2568C21.4082 25.755 21.806 25.1592 22.0774 24.5035C22.3487 23.8477 22.4884 23.145 22.4884 22.4352C22.4932 21.3595 22.1785 20.3066 21.5843 19.4102C20.9901 18.5138 20.1433 17.8143 19.1512 17.4005C18.1591 16.9866 17.0665 16.8771 16.0122 17.0858C14.9578 17.2945 13.9891 17.812 13.2291 18.5726C12.4691 19.3333 11.952 20.3028 11.7435 21.3581C11.535 22.4133 11.6444 23.5068 12.0579 24.4998C12.4714 25.4927 13.1704 26.3403 14.066 26.9349C14.9616 27.5296 16.0136 27.8445 17.0884 27.8398ZM38.6884 17.0306C37.9793 17.0164 37.2743 17.1422 36.6137 17.4007C35.9531 17.6592 35.3499 18.0453 34.8384 18.5372C33.8054 19.5305 33.2091 20.8937 33.1804 22.3271C33.1518 23.7605 33.6932 25.1466 34.6857 26.1804C35.6781 27.2142 37.0402 27.8111 38.4724 27.8398H76.8004C78.2326 27.8398 79.6061 27.2704 80.6188 26.2568C81.6315 25.2433 82.2004 23.8686 82.2004 22.4352C82.2004 21.0018 81.6315 19.6272 80.6188 18.6136C79.6061 17.6 78.2326 17.0306 76.8004 17.0306H38.7364H38.6884ZM38.6884 71.0764C37.2562 71.0764 35.8827 71.6458 34.87 72.6594C33.8573 73.673 33.2884 75.0476 33.2884 76.481C33.2884 77.9144 33.8573 79.2891 34.87 80.3026C35.8827 81.3162 37.2562 81.8856 38.6884 81.8856H76.8004C78.2326 81.8856 79.6061 81.3162 80.6188 80.3026C81.6315 79.2891 82.2004 77.9144 82.2004 76.481C82.2004 75.0476 81.6315 73.673 80.6188 72.6594C79.6061 71.6458 78.2326 71.0764 76.8004 71.0764H38.6884ZM38.6884 125.122C37.9793 125.108 37.2743 125.234 36.6137 125.492C35.9531 125.751 35.3499 126.137 34.8384 126.629C33.8054 127.622 33.2091 128.985 33.1804 130.419C33.1518 131.852 33.6932 133.238 34.6857 134.272C35.6781 135.306 37.0402 135.903 38.4724 135.931H76.8004C78.2326 135.96 79.6175 135.418 80.6504 134.425C81.6834 133.432 82.2798 132.068 82.3084 130.635C82.337 129.202 81.7956 127.815 80.8031 126.782C79.8107 125.748 78.4486 125.151 77.0164 125.122H38.7364H38.6884ZM17.0884 81.8856C18.5206 81.8856 19.8941 81.3162 20.9068 80.3026C21.9195 79.2891 22.4884 77.9144 22.4884 76.481C22.4884 75.0476 21.9195 73.673 20.9068 72.6594C19.8941 71.6458 18.5206 71.0764 17.0884 71.0764C15.654 71.0764 14.278 71.6451 13.2615 72.6579C12.245 73.6708 11.6708 75.0454 11.6644 76.481C11.6644 77.1928 11.8049 77.8975 12.0777 78.5548C12.3506 79.2121 12.7505 79.809 13.2545 80.3111C13.7585 80.8133 14.3566 81.2109 15.0145 81.4811C15.6725 81.7513 16.3773 81.8888 17.0884 81.8856ZM17.0884 135.931C18.5206 135.931 19.8941 135.362 20.9068 134.348C21.9195 133.335 22.4884 131.96 22.4884 130.527C22.4884 129.093 21.9195 127.719 20.9068 126.705C19.8941 125.692 18.5206 125.122 17.0884 125.122C15.654 125.122 14.278 125.691 13.2615 126.704C12.245 127.717 11.6708 129.091 11.6644 130.527C11.6612 131.239 11.7995 131.946 12.0712 132.604C12.343 133.263 12.7428 133.861 13.2474 134.364C13.752 134.867 14.3514 135.264 15.0108 135.533C15.6702 135.803 16.3764 135.938 17.0884 135.931Z"/>
</mask>
<path fill-rule="evenodd" clip-rule="evenodd" d="M11.6644 0.816895H147.096C149.967 0.816895 152.72 1.95824 154.75 3.98986C156.78 6.02147 157.92 8.77694 157.92 11.6501V33.2684C157.908 36.1332 156.762 38.8763 154.733 40.8976C152.705 42.9188 149.959 44.0536 147.096 44.0535H11.6644C8.79149 44.0535 6.03589 42.913 4.00219 40.882C1.96848 38.8511 0.822762 36.0957 0.816406 33.2204V11.602C0.835419 8.73503 1.98672 5.99194 4.01906 3.97138C6.05139 1.95081 8.79977 0.816831 11.6644 0.816895ZM11.6644 54.8627H147.096C149.963 54.8627 152.712 56.0007 154.742 58.0272C156.771 60.0536 157.914 62.8029 157.92 65.6719V87.2902C157.92 88.7128 157.64 90.1215 157.096 91.4359C156.553 92.7502 155.755 93.9445 154.75 94.9504C153.745 95.9564 152.552 96.7543 151.239 97.2987C149.925 97.8432 148.518 98.1234 147.096 98.1234H11.6644C8.79149 98.1234 6.03589 96.9828 4.00219 94.9519C1.96848 92.9209 0.822762 90.1655 0.816406 87.2902V65.6719C0.816406 62.7924 1.95932 60.0308 3.99371 57.9947C6.02811 55.9585 8.78734 54.8147 11.6644 54.8147V54.8627ZM11.6644 108.909H147.096C148.52 108.909 149.929 109.189 151.244 109.735C152.559 110.281 153.753 111.081 154.759 112.09C155.764 113.098 156.561 114.296 157.103 115.613C157.646 116.93 157.924 118.341 157.92 119.766V141.384C157.901 144.245 156.753 146.982 154.725 148.998C152.697 151.014 149.955 152.145 147.096 152.145H11.6644C8.79149 152.145 6.03589 151.005 4.00219 148.974C1.96848 146.943 0.822762 144.187 0.816406 141.312V119.694C0.835419 116.827 1.98672 114.084 4.01906 112.063C6.05139 110.042 8.79977 108.908 11.6644 108.909ZM17.0884 27.8398C17.7975 27.8398 18.4997 27.7 19.1549 27.4284C19.8101 27.1568 20.4053 26.7587 20.9068 26.2568C21.4082 25.755 21.806 25.1592 22.0774 24.5035C22.3487 23.8477 22.4884 23.145 22.4884 22.4352C22.4932 21.3595 22.1785 20.3066 21.5843 19.4102C20.9901 18.5138 20.1433 17.8143 19.1512 17.4005C18.1591 16.9866 17.0665 16.8771 16.0122 17.0858C14.9578 17.2945 13.9891 17.812 13.2291 18.5726C12.4691 19.3333 11.952 20.3028 11.7435 21.3581C11.535 22.4133 11.6444 23.5068 12.0579 24.4998C12.4714 25.4927 13.1704 26.3403 14.066 26.9349C14.9616 27.5296 16.0136 27.8445 17.0884 27.8398ZM38.6884 17.0306C37.9793 17.0164 37.2743 17.1422 36.6137 17.4007C35.9531 17.6592 35.3499 18.0453 34.8384 18.5372C33.8054 19.5305 33.2091 20.8937 33.1804 22.3271C33.1518 23.7605 33.6932 25.1466 34.6857 26.1804C35.6781 27.2142 37.0402 27.8111 38.4724 27.8398H76.8004C78.2326 27.8398 79.6061 27.2704 80.6188 26.2568C81.6315 25.2433 82.2004 23.8686 82.2004 22.4352C82.2004 21.0018 81.6315 19.6272 80.6188 18.6136C79.6061 17.6 78.2326 17.0306 76.8004 17.0306H38.7364H38.6884ZM38.6884 71.0764C37.2562 71.0764 35.8827 71.6458 34.87 72.6594C33.8573 73.673 33.2884 75.0476 33.2884 76.481C33.2884 77.9144 33.8573 79.2891 34.87 80.3026C35.8827 81.3162 37.2562 81.8856 38.6884 81.8856H76.8004C78.2326 81.8856 79.6061 81.3162 80.6188 80.3026C81.6315 79.2891 82.2004 77.9144 82.2004 76.481C82.2004 75.0476 81.6315 73.673 80.6188 72.6594C79.6061 71.6458 78.2326 71.0764 76.8004 71.0764H38.6884ZM38.6884 125.122C37.9793 125.108 37.2743 125.234 36.6137 125.492C35.9531 125.751 35.3499 126.137 34.8384 126.629C33.8054 127.622 33.2091 128.985 33.1804 130.419C33.1518 131.852 33.6932 133.238 34.6857 134.272C35.6781 135.306 37.0402 135.903 38.4724 135.931H76.8004C78.2326 135.96 79.6175 135.418 80.6504 134.425C81.6834 133.432 82.2798 132.068 82.3084 130.635C82.337 129.202 81.7956 127.815 80.8031 126.782C79.8107 125.748 78.4486 125.151 77.0164 125.122H38.7364H38.6884ZM17.0884 81.8856C18.5206 81.8856 19.8941 81.3162 20.9068 80.3026C21.9195 79.2891 22.4884 77.9144 22.4884 76.481C22.4884 75.0476 21.9195 73.673 20.9068 72.6594C19.8941 71.6458 18.5206 71.0764 17.0884 71.0764C15.654 71.0764 14.278 71.6451 13.2615 72.6579C12.245 73.6708 11.6708 75.0454 11.6644 76.481C11.6644 77.1928 11.8049 77.8975 12.0777 78.5548C12.3506 79.2121 12.7505 79.809 13.2545 80.3111C13.7585 80.8133 14.3566 81.2109 15.0145 81.4811C15.6725 81.7513 16.3773 81.8888 17.0884 81.8856ZM17.0884 135.931C18.5206 135.931 19.8941 135.362 20.9068 134.348C21.9195 133.335 22.4884 131.96 22.4884 130.527C22.4884 129.093 21.9195 127.719 20.9068 126.705C19.8941 125.692 18.5206 125.122 17.0884 125.122C15.654 125.122 14.278 125.691 13.2615 126.704C12.245 127.717 11.6708 129.091 11.6644 130.527C11.6612 131.239 11.7995 131.946 12.0712 132.604C12.343 133.263 12.7428 133.861 13.2474 134.364C13.752 134.867 14.3514 135.264 15.0108 135.533C15.6702 135.803 16.3764 135.938 17.0884 135.931Z" stroke="#5A98FD" stroke-width="4" mask="url(#path-1-inside-1_449_432)"/>
<path fill-rule="evenodd" clip-rule="evenodd" d="M176.879 210.586C165.877 210.539 155.136 207.23 146.011 201.078C136.886 194.926 129.787 186.206 125.609 176.019C121.432 165.832 120.363 154.635 122.539 143.841C124.714 133.047 130.036 123.139 137.833 115.37C145.629 107.6 155.551 102.317 166.345 100.186C177.139 98.0548 188.322 99.1724 198.482 103.397C208.643 107.622 217.324 114.765 223.432 123.924C229.54 133.083 232.799 143.848 232.799 154.859C232.755 169.667 226.842 183.852 216.357 194.3C205.873 204.748 191.675 210.605 176.879 210.586Z" fill="#5A98FD"/>
<path d="M176.88 105.522C186.621 105.56 196.133 108.486 204.214 113.93C212.296 119.374 218.584 127.093 222.286 136.112C225.988 145.13 226.937 155.044 225.013 164.602C223.089 174.16 218.379 182.933 211.477 189.814C204.576 196.695 195.792 201.375 186.234 203.263C176.677 205.151 166.775 204.163 157.779 200.423C148.782 196.683 141.095 190.36 135.686 182.25C130.278 174.141 127.392 164.61 127.392 154.86C127.436 141.755 132.67 129.202 141.947 119.954C151.224 110.705 163.786 105.516 176.88 105.522ZM176.88 92.7191C164.613 92.7808 152.64 96.4777 142.471 103.343C132.302 110.209 124.392 119.935 119.741 131.295C115.089 142.655 113.904 155.14 116.335 167.173C118.766 179.207 124.703 190.25 133.399 198.909C142.094 207.568 153.158 213.456 165.193 215.828C177.228 218.201 189.696 216.952 201.023 212.24C212.35 207.528 222.028 199.563 228.837 189.351C235.646 179.139 239.279 167.137 239.28 154.86C239.267 146.677 237.642 138.576 234.498 131.022C231.354 123.468 226.752 116.609 220.956 110.837C215.16 105.065 208.284 100.494 200.72 97.3853C193.157 94.2763 185.056 92.6907 176.88 92.7191Z" fill="#F1F1F1"/>
<path d="M190.416 135.932V146.741H163.344V135.932C163.344 129.974 169.392 125.122 176.88 125.122C184.368 125.122 190.416 129.974 190.416 135.932ZM195.216 146.741V135.932C195.216 126.996 187.032 119.718 176.928 119.718C166.824 119.718 158.64 126.924 158.64 135.932V146.741C157.109 146.642 155.602 147.156 154.45 148.169C153.297 149.183 152.595 150.613 152.496 152.145V179.192C152.595 180.715 153.291 182.138 154.433 183.15C155.574 184.162 157.069 184.682 158.592 184.597H195.168C196.691 184.682 198.186 184.162 199.328 183.15C200.469 182.138 201.165 180.715 201.264 179.192V152.145C201.165 150.622 200.469 149.199 199.328 148.187C198.186 147.175 196.691 146.655 195.168 146.741H195.216ZM182.4 165.669C182.4 167.108 181.829 168.489 180.811 169.507C179.794 170.525 178.415 171.097 176.976 171.097C175.538 171.097 174.158 170.525 173.141 169.507C172.124 168.489 171.552 167.108 171.552 165.669C171.552 164.229 172.124 162.848 173.141 161.83C174.158 160.812 175.538 160.24 176.976 160.24C178.415 160.24 179.794 160.812 180.811 161.83C181.829 162.848 182.4 164.229 182.4 165.669Z" fill="white"/>
</g>
<defs>
<clipPath id="clip0_449_432">
<rect width="240" height="216.183" fill="white" transform="translate(0 0.816895)"/>
</clipPath>
</defs>
</svg>
