<svg width="320" height="357" viewBox="0 0 320 357" fill="none" xmlns="http://www.w3.org/2000/svg">
<g clip-path="url(#clip0_451_746)">
<path d="M108.27 276.049H71.4777C70.8452 276.049 70.2386 276.301 69.7913 276.749C69.344 277.197 69.0928 277.805 69.0928 278.439V302.463C69.0972 303.094 69.3504 303.698 69.7972 304.142C70.244 304.587 70.8481 304.837 71.4777 304.837L89.8236 286.447L108.169 304.837C108.799 304.837 109.403 304.587 109.85 304.142C110.297 303.698 110.55 303.094 110.554 302.463V278.439C110.555 277.822 110.317 277.229 109.892 276.784C109.466 276.338 108.885 276.075 108.27 276.049Z" fill="#E2E3E4"/>
<path d="M108.269 305.923C107.981 305.921 107.706 305.807 107.501 305.605L89.8727 287.935L72.244 305.605C72.0394 305.807 71.7641 305.921 71.4768 305.923C70.5612 305.923 69.683 305.558 69.0356 304.909C68.3881 304.26 68.0244 303.38 68.0244 302.462V278.439C68.0244 277.521 68.3881 276.641 69.0356 275.992C69.683 275.343 70.5612 274.979 71.4768 274.979H108.269C109.184 274.979 110.062 275.343 110.71 275.992C111.357 276.641 111.721 277.521 111.721 278.439V302.462C111.721 303.38 111.357 304.26 110.71 304.909C110.062 305.558 109.184 305.923 108.269 305.923ZM89.8727 285.26C90.0153 285.258 90.157 285.285 90.2889 285.339C90.4208 285.394 90.5402 285.475 90.6399 285.577L108.602 303.649C108.866 303.567 109.098 303.403 109.263 303.181C109.428 302.959 109.518 302.689 109.519 302.412V278.439C109.519 278.093 109.382 277.762 109.138 277.517C108.894 277.272 108.564 277.135 108.219 277.135H71.4768C71.1318 277.135 70.8009 277.272 70.5569 277.517C70.3129 277.762 70.1759 278.093 70.1759 278.439V302.462C70.1778 302.739 70.2677 303.009 70.4327 303.231C70.5976 303.454 70.829 303.618 71.0932 303.699L89.1055 285.644C89.1992 285.53 89.3159 285.436 89.4481 285.37C89.5803 285.304 89.725 285.266 89.8727 285.26Z" fill="black"/>
<path d="M71.4766 304.837H108.268L89.8724 286.397L71.4766 304.837Z" fill="#E2E3E4"/>
<path d="M108.268 305.924H71.4761C71.2626 305.921 71.0543 305.857 70.8766 305.738C70.699 305.62 70.5596 305.452 70.4754 305.255C70.3969 305.055 70.3772 304.837 70.4186 304.627C70.46 304.417 70.5607 304.223 70.7089 304.068L89.0548 285.679C89.1543 285.575 89.2735 285.493 89.4053 285.437C89.5371 285.381 89.6788 285.353 89.822 285.353C89.9651 285.353 90.1068 285.381 90.2386 285.437C90.3704 285.493 90.4896 285.575 90.5892 285.679L108.935 304.068C109.083 304.223 109.184 304.417 109.225 304.627C109.267 304.837 109.247 305.055 109.169 305.255C109.092 305.437 108.968 305.595 108.809 305.713C108.651 305.83 108.464 305.903 108.268 305.924ZM74.0779 303.75H105.666L89.872 287.935L74.0779 303.75Z" fill="black"/>
<path d="M108.268 276.049H71.4766L89.8724 294.488L108.268 276.049Z" fill="#E2E3E4"/>
<path d="M89.8717 295.575C89.5844 295.574 89.3091 295.46 89.1045 295.258L70.7586 276.868C70.6086 276.715 70.5066 276.521 70.4651 276.31C70.4237 276.099 70.4445 275.88 70.5251 275.681C70.61 275.486 70.75 275.321 70.9279 275.205C71.1058 275.089 71.3137 275.028 71.5258 275.029H108.268C108.48 275.028 108.688 275.089 108.865 275.205C109.043 275.321 109.183 275.486 109.268 275.681C109.349 275.88 109.37 276.099 109.328 276.31C109.287 276.521 109.185 276.715 109.035 276.868L90.6889 295.258C90.5817 295.364 90.4538 295.447 90.3132 295.501C90.1726 295.556 90.0223 295.581 89.8717 295.575ZM74.0776 277.186L89.8717 293.017L105.666 277.186H74.0776Z" fill="black"/>
<path d="M132.435 303.65L123.913 312.193L115.39 320.735C115.245 320.881 115.129 321.054 115.05 321.245C114.971 321.436 114.931 321.64 114.931 321.847C114.931 322.053 114.971 322.258 115.05 322.449C115.129 322.639 115.245 322.813 115.39 322.959L126.481 334.076C126.627 334.222 126.8 334.338 126.99 334.417C127.18 334.496 127.384 334.537 127.59 334.537C127.796 334.537 128 334.496 128.191 334.417C128.381 334.338 128.554 334.222 128.699 334.076V316.907H145.744C146.034 316.613 146.196 316.216 146.196 315.804C146.196 315.391 146.034 314.994 145.744 314.7L134.637 303.65C134.493 303.504 134.321 303.389 134.132 303.31C133.943 303.231 133.741 303.19 133.536 303.19C133.331 303.19 133.129 303.231 132.94 303.31C132.751 303.389 132.58 303.504 132.435 303.65Z" fill="white"/>
<path d="M127.6 335.53C127.253 335.533 126.909 335.467 126.588 335.335C126.267 335.203 125.976 335.008 125.732 334.761L114.624 323.711C114.378 323.465 114.183 323.173 114.05 322.852C113.916 322.531 113.848 322.186 113.848 321.838C113.848 321.49 113.916 321.146 114.05 320.824C114.183 320.503 114.378 320.211 114.624 319.966L131.669 302.881C132.176 302.406 132.843 302.142 133.537 302.142C134.231 302.142 134.898 302.406 135.405 302.881L146.513 314.014C147.006 314.512 147.282 315.185 147.282 315.887C147.282 316.588 147.006 317.261 146.513 317.759C146.314 317.96 146.044 318.075 145.762 318.077H129.768V334.076C129.766 334.364 129.653 334.64 129.451 334.845C128.949 335.31 128.283 335.556 127.6 335.53ZM133.62 304.185C133.557 304.185 133.495 304.198 133.438 304.224C133.38 304.25 133.329 304.288 133.287 304.335L116.158 321.42C116.112 321.464 116.074 321.517 116.048 321.576C116.023 321.635 116.01 321.699 116.01 321.763C116.01 321.827 116.023 321.891 116.048 321.95C116.074 322.009 116.112 322.062 116.158 322.106L127.249 333.223C127.297 333.272 127.354 333.31 127.417 333.336C127.48 333.362 127.548 333.375 127.616 333.373V316.907C127.616 316.618 127.731 316.342 127.934 316.138C128.137 315.934 128.413 315.82 128.7 315.82H145.112C145.118 315.753 145.11 315.684 145.087 315.621C145.064 315.557 145.027 315.5 144.978 315.452L133.887 304.335C133.818 304.256 133.724 304.203 133.62 304.185Z" fill="black"/>
<path d="M128.699 333.992L145.744 316.907H128.699V333.992Z" fill="white"/>
<path d="M128.7 335.079C128.557 335.077 128.416 335.049 128.283 334.995C128.087 334.911 127.919 334.771 127.801 334.593C127.683 334.415 127.618 334.206 127.616 333.992V316.907C127.616 316.619 127.73 316.342 127.934 316.139C128.137 315.935 128.413 315.82 128.7 315.82H145.745C145.958 315.825 146.166 315.89 146.343 316.008C146.52 316.127 146.66 316.294 146.746 316.489C146.827 316.689 146.846 316.909 146.801 317.121C146.757 317.332 146.65 317.525 146.496 317.676L129.451 334.761C129.251 334.961 128.982 335.075 128.7 335.079ZM129.768 317.994V331.368L143.11 317.994H129.768Z" fill="black"/>
<path d="M132.436 303.566L115.391 320.651H132.436V303.566Z" fill="white"/>
<path d="M132.436 321.739H115.391C115.178 321.736 114.969 321.672 114.792 321.553C114.614 321.435 114.475 321.267 114.39 321.07C114.312 320.87 114.292 320.652 114.334 320.442C114.375 320.232 114.476 320.038 114.624 319.883L131.669 302.797C131.822 302.647 132.016 302.545 132.226 302.503C132.437 302.462 132.654 302.483 132.853 302.563C133.049 302.648 133.217 302.787 133.335 302.966C133.454 303.144 133.518 303.352 133.52 303.566V320.652C133.52 320.94 133.406 321.216 133.203 321.42C132.999 321.624 132.724 321.739 132.436 321.739ZM117.993 319.565H131.335V306.191L117.993 319.565Z" fill="black"/>
<path d="M272.898 326.887C272.295 322.08 270.322 317.549 267.215 313.837C264.108 310.125 259.999 307.39 255.381 305.96C250.762 304.529 245.831 304.464 241.176 305.772C236.522 307.08 232.342 309.706 229.139 313.334C225.936 316.963 223.844 321.44 223.115 326.23C222.386 331.02 223.05 335.919 225.028 340.34C227.006 344.761 230.214 348.516 234.267 351.156C238.321 353.796 243.048 355.208 247.881 355.224C248.996 355.227 250.11 355.16 251.217 355.023C257.266 354.224 262.819 351.249 266.841 346.651C270.864 342.053 273.082 336.146 273.082 330.03C273.088 328.98 273.027 327.93 272.898 326.887Z" fill="white"/>
<path d="M247.948 356.31C241.148 356.317 234.612 353.673 229.723 348.936C224.834 344.199 221.975 337.741 221.751 330.929C221.526 324.117 223.955 317.484 228.522 312.435C233.089 307.385 239.437 304.314 246.222 303.872C253.008 303.43 259.699 305.651 264.88 310.066C270.061 314.48 273.325 320.742 273.983 327.526C274.64 334.31 272.639 341.084 268.403 346.415C264.166 351.747 258.027 355.218 251.284 356.093C250.178 356.238 249.063 356.311 247.948 356.31ZM247.948 305.923C241.677 306.089 235.718 308.702 231.341 313.207C226.964 317.711 224.515 323.75 224.515 330.038C224.515 336.326 226.964 342.366 231.341 346.87C235.718 351.375 241.677 353.988 247.948 354.154C248.996 354.154 250.044 354.087 251.083 353.953C256.876 353.188 262.194 350.34 266.05 345.94C269.906 341.54 272.037 335.887 272.048 330.03C272.046 329.024 271.985 328.019 271.864 327.021C271.125 321.188 268.287 315.826 263.884 311.942C259.48 308.057 253.814 305.917 247.948 305.923Z" fill="black"/>
<path d="M247.948 310.186C245.251 310.19 242.666 311.266 240.759 313.178C238.852 315.089 237.779 317.681 237.774 320.384V327.372H242.328V320.367C242.406 318.924 243.033 317.565 244.08 316.572C245.127 315.578 246.514 315.024 247.956 315.024C249.398 315.024 250.786 315.578 251.833 316.572C252.88 317.565 253.507 318.924 253.585 320.367V327.355H258.138V320.367C258.13 317.664 257.052 315.074 255.142 313.166C253.232 311.258 250.645 310.186 247.948 310.186Z" fill="black"/>
<path d="M247.947 327.373H235.822V345.979H247.947H260.072V327.373H247.947Z" fill="#40C6FF"/>
<path d="M260.073 347.115H235.823C235.54 347.115 235.269 347.003 235.068 346.802C234.868 346.601 234.756 346.329 234.756 346.045V327.372C234.756 327.086 234.868 326.813 235.067 326.609C235.267 326.406 235.539 326.29 235.823 326.285H260.073C260.361 326.285 260.636 326.4 260.84 326.603C261.043 326.807 261.157 327.084 261.157 327.372V345.979C261.166 346.126 261.145 346.274 261.095 346.413C261.044 346.551 260.965 346.678 260.863 346.785C260.762 346.892 260.639 346.976 260.503 347.033C260.367 347.09 260.22 347.118 260.073 347.115ZM236.907 344.959H258.989V328.525H236.907V344.959Z" fill="black"/>
<path d="M250.833 335.246C250.836 334.737 250.706 334.236 250.454 333.794C250.202 333.352 249.839 332.984 249.4 332.728C248.962 332.472 248.463 332.336 247.956 332.335C247.448 332.334 246.949 332.466 246.509 332.72C246.069 332.974 245.704 333.34 245.45 333.78C245.196 334.221 245.062 334.721 245.063 335.23C245.063 335.739 245.197 336.238 245.452 336.678C245.707 337.119 246.073 337.484 246.513 337.737V340.06C246.513 340.442 246.665 340.807 246.934 341.077C247.203 341.347 247.567 341.498 247.948 341.498C248.328 341.498 248.693 341.347 248.962 341.077C249.231 340.807 249.382 340.442 249.382 340.06V337.737C249.82 337.485 250.185 337.122 250.439 336.685C250.694 336.248 250.83 335.752 250.833 335.246Z" fill="black"/>
<path d="M249.016 304.837H246.864V310.187H249.016V304.837Z" fill="black"/>
<path d="M249.016 345.979H246.864V355.24H249.016V345.979Z" fill="black"/>
<path d="M116.14 60.9263H98.8284L89.4887 70.3048L80.149 79.65H74.9454H33.734H18.707V137.576H74.9454H131.167V79.65V60.9263H116.14Z" fill="#FF8633"/>
<path d="M111.204 27.04H91.4402H37.8369V122.581H111.204V66.6608V46.8504V27.04Z" fill="white"/>
<path d="M111.204 123.669H37.8204C37.5358 123.669 37.2625 123.556 37.0597 123.356C36.8569 123.156 36.7407 122.884 36.7363 122.599V27.0407C36.7363 26.7525 36.8505 26.4762 37.0538 26.2724C37.2571 26.0686 37.5329 25.9541 37.8204 25.9541H111.204C111.346 25.9541 111.487 25.9822 111.619 26.0368C111.75 26.0914 111.87 26.1715 111.97 26.2724C112.071 26.3733 112.151 26.4931 112.205 26.6249C112.26 26.7567 112.288 26.898 112.288 27.0407V122.599C112.284 122.884 112.167 123.156 111.965 123.356C111.762 123.556 111.488 123.669 111.204 123.669ZM38.9212 121.512H110.12V28.1274H38.9212V121.512Z" fill="black"/>
<path d="M72.9117 35.6338H46.1768V62.4321H72.9117V35.6338Z" fill="#40C6FF"/>
<path d="M72.9106 63.5015H46.2257C45.9382 63.5015 45.6624 63.3871 45.4591 63.1833C45.2558 62.9795 45.1416 62.7031 45.1416 62.4149V35.6667C45.1416 35.3785 45.2558 35.1021 45.4591 34.8984C45.6624 34.6946 45.9382 34.5801 46.2257 34.5801H72.9106C73.1952 34.5845 73.4666 34.7009 73.6664 34.9042C73.8661 35.1075 73.978 35.3814 73.978 35.6667V62.4149C73.978 62.7002 73.8661 62.9741 73.6664 63.1774C73.4666 63.3807 73.1952 63.4972 72.9106 63.5015ZM47.243 61.345H71.9099V36.7032H47.243V61.345Z" fill="black"/>
<path d="M131.167 99.2603H18.707V137.577H131.167V99.2603Z" fill="#FFA466"/>
<path d="M46.9403 34.8696L45.4189 36.3945L72.154 63.193L73.6754 61.6681L46.9403 34.8696Z" fill="black"/>
<path d="M72.1423 34.8573L45.4072 61.6558L46.9285 63.1807L73.6636 36.3822L72.1423 34.8573Z" fill="black"/>
<path d="M103.599 37.2378H78.8154V39.3944H103.599V37.2378Z" fill="black"/>
<path d="M103.599 48.0205H78.8154V50.1771H103.599V48.0205Z" fill="black"/>
<path d="M103.599 58.7871H78.8154V60.9437H103.599V58.7871Z" fill="black"/>
<path d="M103.616 69.5703H46.21V71.7269H103.616V69.5703Z" fill="black"/>
<path d="M103.599 80.3354H46.21V82.492H103.599V80.3354Z" fill="black"/>
<path d="M103.616 91.1187H46.21V93.2752H103.616V91.1187Z" fill="black"/>
<path d="M131.167 98.1738H18.707V100.33H131.167V98.1738Z" fill="black"/>
<path d="M51.1455 128.733C50.5421 123.922 48.5664 119.388 45.4556 115.675C42.3448 111.961 38.231 109.227 33.6081 107.799C28.9851 106.372 24.0494 106.312 19.3932 107.626C14.7371 108.941 10.5583 111.575 7.35852 115.211C4.15872 118.848 2.07381 123.332 1.35403 128.127C0.634243 132.922 1.31016 137.823 3.30066 142.243C5.29116 146.662 8.51167 150.412 12.5757 153.042C16.6397 155.672 21.3745 157.07 26.2118 157.069C27.2994 157.065 28.3855 156.992 29.4641 156.852C35.5144 156.061 41.071 153.09 45.0972 148.495C49.1234 143.899 51.3443 137.992 51.3457 131.876C51.3471 130.825 51.2802 129.775 51.1455 128.733Z" fill="#FF8633"/>
<path d="M26.2117 158.207C19.4119 158.214 12.876 155.569 7.9868 150.832C3.09755 146.095 0.238414 139.638 0.0142472 132.825C-0.209919 126.013 2.21846 119.381 6.78567 114.331C11.3529 109.281 17.7007 106.211 24.4861 105.769C31.2716 105.327 37.9626 107.548 43.1435 111.962C48.3244 116.377 51.5889 122.638 52.2464 129.422C52.9039 136.206 50.9028 142.98 46.6665 148.312C42.4301 153.644 36.2908 157.114 29.5473 157.989C28.4413 158.134 27.3271 158.207 26.2117 158.207ZM26.2117 107.82C22.999 107.735 19.802 108.296 16.8092 109.47C13.8163 110.644 11.0883 112.406 8.78614 114.654C6.48395 116.902 4.65419 119.589 3.40482 122.557C2.15545 125.525 1.51178 128.714 1.51178 131.935C1.51178 135.156 2.15545 138.345 3.40482 141.313C4.65419 144.281 6.48395 146.968 8.78614 149.216C11.0883 151.464 13.8163 153.226 16.8092 154.4C19.802 155.574 22.999 156.135 26.2117 156.05C27.2545 156.05 28.2962 155.983 29.3305 155.85C35.1194 155.068 40.4287 152.207 44.2721 147.798C48.1155 143.389 50.2319 137.732 50.2281 131.876C50.2272 130.871 50.1659 129.866 50.0446 128.867C49.3109 123.046 46.4868 117.691 42.1004 113.805C37.714 109.919 32.0657 107.768 26.2117 107.753V107.82Z" fill="black"/>
<path d="M26.3613 150.433V116.797L41.505 119.087C41.505 149.179 26.3613 150.433 26.3613 150.433Z" fill="#40C6FF"/>
<path d="M26.3634 150.433V116.797L11.2197 119.087C11.2197 149.179 26.3634 150.433 26.3634 150.433Z" fill="#66D1FF"/>
<path d="M26.3453 151.519H26.2452C25.5781 151.519 9.83398 149.48 9.83398 119.104V118.185L26.3619 115.727L42.573 118.185V119.104C42.573 149.848 27.1124 151.519 26.4453 151.519H26.3453ZM12.0021 120.023C12.2857 146.287 25.061 149.129 26.3619 149.346C27.6128 149.146 40.138 146.454 40.4215 120.023L26.3619 117.9L12.0021 120.023Z" fill="black"/>
<path d="M27.4298 106.666H25.2783V116.797H27.4298V106.666Z" fill="black"/>
<path d="M27.4298 150.433H25.2783V157.07H27.4298V150.433Z" fill="black"/>
<path d="M165.775 18.3306C165.309 14.6139 163.784 11.1108 161.381 8.24203C158.978 5.37322 155.8 3.26059 152.228 2.1578C148.657 1.055 144.844 1.00891 141.247 2.02506C137.65 3.0412 134.422 5.07639 131.951 7.88628C129.479 10.6962 127.87 14.1613 127.315 17.8657C126.76 21.5701 127.284 25.3563 128.823 28.7697C130.362 32.1831 132.851 35.0787 135.992 37.1087C139.133 39.1387 142.791 40.217 146.528 40.214C147.37 40.2144 148.211 40.1641 149.047 40.0635C154.122 39.3723 158.72 36.7023 161.842 32.6332C164.965 28.5642 166.36 23.4246 165.725 18.3306H165.775Z" fill="white"/>
<path d="M146.528 41.2999C142.583 41.3013 138.721 40.1613 135.406 38.0168C132.091 35.8722 129.464 32.8142 127.84 29.2099C126.216 25.6056 125.665 21.6082 126.252 17.6974C126.838 13.7866 128.539 10.1288 131.149 7.16289C133.759 4.19701 137.167 2.04917 140.965 0.977192C144.762 -0.0947853 148.788 -0.0453413 152.559 1.11959C156.329 2.28452 159.684 4.51543 162.22 7.54452C164.757 10.5736 166.367 14.2721 166.859 18.1961C166.961 19.0505 167.011 19.9102 167.009 20.7707C167.012 25.7616 165.205 30.5835 161.925 34.3386C158.645 38.0937 154.116 40.5261 149.18 41.1829C148.299 41.2717 147.414 41.3108 146.528 41.2999ZM146.528 2.3813C141.662 2.3813 136.996 4.31874 133.556 7.76742C130.115 11.2161 128.182 15.8935 128.182 20.7707C128.182 25.6478 130.115 30.3252 133.556 33.7739C136.996 37.2226 141.662 39.16 146.528 39.16C147.32 39.1543 148.111 39.0984 148.896 38.9929C153.306 38.4133 157.356 36.2475 160.292 32.8986C163.228 29.5497 164.851 25.2457 164.857 20.7874C164.86 20.0214 164.81 19.2562 164.707 18.4971C164.155 14.0525 162.003 9.96284 158.656 6.99562C155.309 4.02841 150.996 2.38765 146.528 2.3813Z" fill="black"/>
<path d="M146.645 35.0977V9.13525L158.319 10.807C158.336 34.1281 146.645 35.0977 146.645 35.0977Z" fill="#FF8633"/>
<path d="M146.644 35.0977V9.13525L134.97 10.807C134.953 34.1281 146.644 35.0977 146.644 35.0977Z" fill="#FFA466"/>
<path d="M146.627 36.1684H146.527C146.01 36.1684 133.618 34.4967 133.618 10.8914V9.97196L146.627 8.03271L159.386 9.97196V10.8914C159.386 34.8477 147.227 36.135 146.71 36.1684H146.627ZM135.803 11.8276C136.087 31.5878 145.56 33.8113 146.644 34.0119C147.828 33.828 156.967 31.8386 157.251 11.8276L146.644 10.1559L135.803 11.8276Z" fill="black"/>
<path d="M147.712 1.31201H145.561V9.13585H147.712V1.31201Z" fill="black"/>
<path d="M147.712 35.0981H145.561V40.2137H147.712V35.0981Z" fill="black"/>
<path d="M89.6729 170.945L60.0693 200.619L83.1684 223.772H96.1606L119.26 200.619L89.6729 170.945Z" fill="black"/>
<path d="M96.1596 224.843H83.1674C83.0271 224.846 82.8877 224.819 82.7584 224.764C82.6291 224.709 82.5128 224.628 82.4169 224.525L59.3011 201.371C59.1025 201.168 58.9912 200.895 58.9912 200.611C58.9912 200.326 59.1025 200.053 59.3011 199.85L88.9046 170.176C89.1112 169.985 89.3821 169.878 89.6635 169.878C89.9448 169.878 90.2158 169.985 90.4223 170.176L120.026 199.85C120.126 199.95 120.206 200.068 120.26 200.199C120.315 200.329 120.343 200.469 120.343 200.611C120.343 200.752 120.315 200.892 120.26 201.023C120.206 201.153 120.126 201.272 120.026 201.371L96.9268 224.525C96.8277 224.628 96.7084 224.71 96.5764 224.765C96.4443 224.819 96.3024 224.846 96.1596 224.843ZM83.5843 222.686H95.6759L117.708 200.619L89.6718 172.467L61.6027 200.619L83.5843 222.686Z" fill="black"/>
<path d="M109.769 187.078L98.9287 176.229V187.078H109.769Z" fill="black"/>
<path d="M109.769 187.078H98.9287L109.769 197.928V187.078Z" fill="#959595"/>
<path d="M98.9286 187.078V176.229H69.5752V226.197H109.769V197.928L98.9286 187.078Z" fill="#FAFEFF"/>
<path d="M109.769 227.284H69.5753C69.4329 227.284 69.292 227.256 69.1604 227.201C69.0289 227.146 68.9094 227.066 68.8087 226.966C68.7081 226.865 68.6282 226.745 68.5737 226.613C68.5192 226.481 68.4912 226.34 68.4912 226.197V176.228C68.4912 175.94 68.6054 175.664 68.8087 175.46C69.012 175.256 69.2878 175.142 69.5753 175.142H98.9453C99.2276 175.144 99.4974 175.258 99.6958 175.459L110.537 186.309C110.738 186.514 110.852 186.79 110.853 187.078V226.197C110.853 226.34 110.825 226.481 110.771 226.613C110.716 226.745 110.637 226.865 110.536 226.966C110.435 227.066 110.316 227.146 110.184 227.201C110.053 227.256 109.912 227.284 109.769 227.284ZM70.6427 225.077H108.685V187.529L98.495 177.298H70.6427V225.077Z" fill="black"/>
<path d="M119.26 200.619L96.1611 223.773L119.26 246.927C120.278 246.927 121.253 246.522 121.973 245.801C122.692 245.08 123.096 244.102 123.096 243.082V204.448C123.096 203.943 122.997 203.444 122.804 202.979C122.611 202.513 122.328 202.09 121.972 201.735C121.615 201.379 121.192 201.097 120.727 200.906C120.262 200.714 119.763 200.617 119.26 200.619Z" fill="#959595"/>
<path d="M119.261 248.013C118.978 248.011 118.708 247.897 118.51 247.696L95.4109 224.525C95.3085 224.427 95.227 224.309 95.1713 224.178C95.1156 224.047 95.0869 223.907 95.0869 223.764C95.0869 223.622 95.1156 223.482 95.1713 223.351C95.227 223.22 95.3085 223.102 95.4109 223.004L118.51 199.85C118.708 199.649 118.978 199.534 119.261 199.532C120.57 199.532 121.828 200.047 122.764 200.966C123.699 201.884 124.238 203.135 124.264 204.447V243.082C124.242 244.397 123.705 245.651 122.769 246.574C121.833 247.497 120.573 248.013 119.261 248.013ZM97.6958 223.773L119.677 245.807C120.332 245.714 120.93 245.387 121.363 244.886C121.795 244.385 122.032 243.744 122.029 243.082V204.447C122.037 203.778 121.803 203.129 121.371 202.619C120.939 202.109 120.337 201.773 119.677 201.672L97.6958 223.773Z" fill="black"/>
<path d="M96.1606 223.773H83.1684L60.0693 246.927H119.26L96.1606 223.773Z" fill="#959595"/>
<path d="M119.26 248.013H60.0699C59.8564 248.011 59.6481 247.947 59.4704 247.828C59.2927 247.709 59.1533 247.541 59.0692 247.345C58.9907 247.145 58.9709 246.927 59.0123 246.717C59.0537 246.506 59.1545 246.312 59.3027 246.158L82.4185 223.004C82.6169 222.802 82.8868 222.688 83.169 222.686H96.1612C96.4485 222.688 96.7238 222.801 96.9284 223.004L120.027 246.158C120.179 246.31 120.283 246.503 120.325 246.714C120.367 246.925 120.345 247.144 120.263 247.343C120.181 247.541 120.042 247.711 119.863 247.83C119.685 247.95 119.475 248.013 119.26 248.013ZM62.6717 245.84H116.659L95.7109 224.843H83.5859L62.6717 245.84Z" fill="black"/>
<path d="M89.8729 181.31H74.1455V183.467H89.8729V181.31Z" fill="black"/>
<path d="M89.8729 187.212H74.1455V189.369H89.8729V187.212Z" fill="black"/>
<path d="M105.617 193.13H74.1455V195.286H105.617V193.13Z" fill="black"/>
<path d="M105.617 199.031H74.1455V201.187H105.617V199.031Z" fill="black"/>
<path d="M105.617 204.933H74.1455V207.089H105.617V204.933Z" fill="black"/>
<path d="M105.599 210.833H89.8721V212.99H105.599V210.833Z" fill="black"/>
<path d="M102.097 216.735H89.8721V218.891H102.097V216.735Z" fill="black"/>
<path d="M86.6197 214.712C86.6197 215.906 86.2666 217.073 85.605 218.065C84.9434 219.058 84.0031 219.831 82.903 220.288C81.8028 220.745 80.5922 220.864 79.4243 220.631C78.2564 220.399 77.1836 219.824 76.3416 218.98C75.4996 218.136 74.9261 217.06 74.6938 215.89C74.4615 214.719 74.5807 213.506 75.0364 212.403C75.4921 211.3 76.2638 210.357 77.2539 209.694C78.2441 209.031 79.4081 208.677 80.5989 208.677C82.1957 208.677 83.7271 209.313 84.8562 210.445C85.9854 211.577 86.6197 213.112 86.6197 214.712Z" fill="#FF8633"/>
<path d="M60.0684 200.619C59.5654 200.617 59.067 200.714 58.6017 200.906C58.1364 201.097 57.7134 201.379 57.357 201.735C57.0005 202.09 56.7177 202.513 56.5247 202.979C56.3318 203.444 56.2324 203.943 56.2324 204.448V243.082C56.2324 243.587 56.3316 244.087 56.5244 244.553C56.7172 245.02 56.9997 245.444 57.3559 245.801C57.7122 246.158 58.135 246.441 58.6004 246.634C59.0658 246.827 59.5646 246.927 60.0684 246.927L83.1675 223.773L60.0684 200.619Z" fill="#959595"/>
<path d="M60.0681 248.013C58.7845 247.971 57.5665 247.435 56.6662 246.517C55.7658 245.599 55.2521 244.369 55.2314 243.082V204.447C55.2314 203.144 55.748 201.894 56.6676 200.972C57.5872 200.05 58.8343 199.532 60.1348 199.532C60.4221 199.534 60.6974 199.648 60.902 199.85L84.0011 223.004C84.1997 223.207 84.311 223.48 84.311 223.764C84.311 224.049 84.1997 224.322 84.0011 224.525L60.8353 247.696C60.6307 247.898 60.3554 248.012 60.0681 248.013ZM59.6511 201.672C59.0028 201.775 58.4122 202.106 57.9845 202.605C57.5568 203.104 57.32 203.739 57.3162 204.397V243.031C57.3131 243.691 57.5475 244.33 57.9764 244.831C58.4053 245.331 59 245.66 59.6511 245.756L81.6495 223.723L59.6511 201.672Z" fill="black"/>
<path d="M75.3954 241.677C75.007 238.578 73.7347 235.656 71.7311 233.264C69.7275 230.871 67.0777 229.109 64.0997 228.188C61.1217 227.268 57.9419 227.228 54.9419 228.074C51.9419 228.92 49.2491 230.615 47.1866 232.957C45.1242 235.299 43.7796 238.188 43.3143 241.276C42.849 244.365 43.2828 247.523 44.5635 250.371C45.8441 253.219 47.9174 255.636 50.5345 257.332C53.1516 259.028 56.2013 259.931 59.3177 259.933C60.0203 259.931 60.722 259.886 61.4192 259.799C65.6564 259.224 69.4977 257.001 72.1129 253.61C74.7281 250.219 75.9072 245.932 75.3954 241.677Z" fill="#FF8633"/>
<path d="M59.3194 261.02C55.9939 261.02 52.7391 260.057 49.9456 258.249C47.1522 256.44 44.9388 253.862 43.571 250.824C42.2033 247.785 41.7394 244.416 42.2349 241.119C42.7305 237.823 44.1644 234.74 46.3647 232.241C48.565 229.742 51.4382 227.932 54.6393 227.029C57.8404 226.125 61.2336 226.168 64.4115 227.15C67.5893 228.132 70.4169 230.012 72.5549 232.566C74.6929 235.119 76.0504 238.236 76.4644 241.544C76.5504 242.259 76.595 242.979 76.5979 243.7C76.5942 247.899 75.0706 251.953 72.31 255.111C69.5494 258.268 65.7395 260.315 61.5876 260.869C60.8359 260.972 60.078 261.022 59.3194 261.02ZM59.3194 228.554C55.3966 228.685 51.678 230.339 48.9491 233.166C46.2202 235.994 44.6946 239.774 44.6946 243.709C44.6946 247.643 46.2202 251.423 48.9491 254.251C51.678 257.079 55.3966 258.733 59.3194 258.863C59.9776 258.861 60.6349 258.816 61.2874 258.729C64.9248 258.243 68.2624 256.45 70.6797 253.682C73.097 250.915 74.4296 247.362 74.4297 243.684C74.4324 243.052 74.3934 242.421 74.313 241.794C73.8467 238.138 72.0673 234.777 69.3076 232.34C66.548 229.903 62.9972 228.557 59.3194 228.554Z" fill="black"/>
<path d="M59.4189 255.67V233.938L69.1756 235.409C69.1756 254.851 59.4189 255.67 59.4189 255.67Z" fill="#40C6FF"/>
<path d="M59.4197 255.67V233.938L49.6631 235.409C49.6631 254.851 59.4197 255.67 59.4197 255.67Z" fill="#66D1FF"/>
<path d="M59.402 256.841H59.302C58.8683 256.841 48.3945 255.486 48.3945 235.576V234.64L59.4187 232.968L70.2595 234.64V235.576C70.2595 255.72 59.9524 256.807 59.5021 256.841H59.402ZM50.5627 236.495C50.8295 252.578 58.368 254.467 59.4354 254.651C60.4694 254.5 67.7744 252.745 68.0913 236.495L59.4187 235.174L50.5627 236.495Z" fill="black"/>
<path d="M60.5021 227.484H58.3506V234.004H60.5021V227.484Z" fill="black"/>
<path d="M60.4845 255.67H58.333V259.95H60.4845V255.67Z" fill="black"/>
<path d="M318.947 157.254C318.947 157.793 318.787 158.32 318.489 158.768C318.19 159.216 317.765 159.565 317.269 159.771C316.772 159.978 316.225 160.032 315.698 159.926C315.171 159.821 314.686 159.562 314.306 159.181C313.926 158.8 313.667 158.314 313.562 157.785C313.457 157.257 313.511 156.709 313.717 156.211C313.922 155.713 314.271 155.287 314.718 154.988C315.165 154.689 315.691 154.529 316.228 154.529C316.949 154.529 317.641 154.816 318.151 155.327C318.66 155.838 318.947 156.531 318.947 157.254Z" fill="black"/>
<path d="M308.004 146.287C308.004 146.829 307.843 147.359 307.543 147.81C307.242 148.261 306.815 148.612 306.315 148.82C305.815 149.027 305.265 149.081 304.735 148.976C304.204 148.87 303.717 148.609 303.334 148.225C302.952 147.842 302.691 147.353 302.586 146.822C302.48 146.29 302.534 145.738 302.741 145.237C302.948 144.736 303.299 144.308 303.749 144.007C304.199 143.706 304.727 143.545 305.268 143.545C305.628 143.543 305.985 143.612 306.318 143.749C306.651 143.886 306.953 144.088 307.207 144.343C307.462 144.598 307.663 144.901 307.8 145.235C307.937 145.568 308.006 145.926 308.004 146.287Z" fill="black"/>
<path d="M225.533 56.2289C225.533 56.7678 225.373 57.2947 225.075 57.7428C224.776 58.1909 224.351 58.5402 223.855 58.7464C223.358 58.9527 222.811 59.0066 222.284 58.9015C221.757 58.7963 221.272 58.5368 220.892 58.1557C220.512 57.7746 220.253 57.2891 220.148 56.7605C220.043 56.2319 220.097 55.684 220.303 55.1861C220.508 54.6881 220.857 54.2626 221.304 53.9631C221.751 53.6637 222.277 53.5039 222.814 53.5039C223.535 53.5039 224.227 53.791 224.737 54.302C225.246 54.8131 225.533 55.5062 225.533 56.2289Z" fill="black"/>
<path d="M225.533 42.9383C225.533 43.4773 225.373 44.0041 225.075 44.4523C224.776 44.9004 224.351 45.2496 223.855 45.4559C223.358 45.6621 222.811 45.7161 222.284 45.611C221.757 45.5058 221.272 45.2463 220.892 44.8652C220.512 44.4841 220.253 43.9986 220.148 43.47C220.043 42.9414 220.097 42.3935 220.303 41.8955C220.508 41.3976 220.857 40.972 221.304 40.6726C221.751 40.3732 222.277 40.2134 222.814 40.2134C223.535 40.2134 224.227 40.5005 224.737 41.0115C225.246 41.5225 225.533 42.2156 225.533 42.9383Z" fill="black"/>
<path d="M217.861 283.054C217.861 283.593 217.701 284.119 217.403 284.568C217.104 285.016 216.679 285.365 216.183 285.571C215.686 285.777 215.139 285.831 214.612 285.726C214.085 285.621 213.6 285.362 213.22 284.98C212.84 284.599 212.581 284.114 212.476 283.585C212.371 283.057 212.425 282.509 212.631 282.011C212.837 281.513 213.185 281.087 213.632 280.788C214.079 280.488 214.605 280.329 215.142 280.329C215.863 280.329 216.555 280.616 217.065 281.127C217.574 281.638 217.861 282.331 217.861 283.054Z" fill="black"/>
<path d="M279.902 304.837C279.902 305.376 279.742 305.903 279.444 306.351C279.145 306.799 278.72 307.148 278.224 307.354C277.727 307.561 277.18 307.615 276.653 307.509C276.126 307.404 275.641 307.145 275.261 306.764C274.881 306.383 274.622 305.897 274.517 305.368C274.412 304.84 274.466 304.292 274.672 303.794C274.878 303.296 275.226 302.87 275.673 302.571C276.12 302.272 276.646 302.112 277.183 302.112C277.904 302.112 278.596 302.399 279.106 302.91C279.615 303.421 279.902 304.114 279.902 304.837Z" fill="black"/>
<path d="M149.364 63.8524C149.364 64.3914 149.204 64.9182 148.906 65.3663C148.607 65.8144 148.182 66.1637 147.686 66.37C147.189 66.5762 146.642 66.6302 146.115 66.525C145.588 66.4199 145.103 66.1604 144.723 65.7793C144.343 65.3982 144.084 64.9126 143.979 64.384C143.874 63.8554 143.928 63.3075 144.134 62.8096C144.339 62.3117 144.688 61.8861 145.135 61.5867C145.582 61.2873 146.108 61.1274 146.645 61.1274C147.366 61.1274 148.058 61.4145 148.568 61.9256C149.077 62.4366 149.364 63.1297 149.364 63.8524Z" fill="black"/>
<path d="M217.861 299.42C217.857 299.959 217.695 300.484 217.395 300.93C217.094 301.376 216.668 301.722 216.171 301.926C215.674 302.13 215.128 302.181 214.602 302.074C214.076 301.967 213.593 301.706 213.214 301.325C212.836 300.943 212.578 300.457 212.475 299.929C212.371 299.401 212.426 298.854 212.632 298.357C212.839 297.86 213.187 297.435 213.634 297.137C214.08 296.838 214.605 296.679 215.142 296.679C215.501 296.679 215.856 296.75 216.186 296.888C216.517 297.026 216.818 297.228 217.07 297.483C217.323 297.738 217.523 298.04 217.659 298.372C217.794 298.705 217.863 299.061 217.861 299.42Z" fill="black"/>
<path d="M201.533 299.42C201.529 299.959 201.367 300.484 201.066 300.93C200.766 301.376 200.34 301.722 199.843 301.926C199.346 302.13 198.8 302.181 198.274 302.074C197.747 301.967 197.265 301.706 196.886 301.325C196.508 300.943 196.25 300.457 196.147 299.929C196.043 299.401 196.098 298.854 196.304 298.357C196.51 297.86 196.859 297.435 197.306 297.137C197.752 296.838 198.277 296.679 198.814 296.679C199.173 296.679 199.527 296.75 199.858 296.888C200.189 297.026 200.49 297.228 200.742 297.483C200.995 297.738 201.195 298.04 201.331 298.372C201.466 298.705 201.535 299.061 201.533 299.42Z" fill="black"/>
<path d="M125.897 283.054C125.897 283.593 125.738 284.119 125.439 284.568C125.14 285.016 124.716 285.365 124.219 285.571C123.722 285.777 123.175 285.831 122.648 285.726C122.121 285.621 121.636 285.362 121.256 284.98C120.876 284.599 120.617 284.114 120.512 283.585C120.407 283.057 120.461 282.509 120.667 282.011C120.873 281.513 121.221 281.087 121.668 280.788C122.115 280.488 122.641 280.329 123.178 280.329C123.899 280.329 124.591 280.616 125.101 281.127C125.611 281.638 125.897 282.331 125.897 283.054Z" fill="black"/>
<path d="M58.9684 181.611C58.9717 182.154 58.8141 182.686 58.5156 183.139C58.217 183.592 57.791 183.946 57.2915 184.156C56.792 184.366 56.2415 184.423 55.7099 184.319C55.1782 184.215 54.6893 183.955 54.3051 183.573C53.9209 183.19 53.6587 182.701 53.5518 182.169C53.4449 181.637 53.4981 181.085 53.7046 180.583C53.9112 180.081 54.2617 179.652 54.7119 179.35C55.162 179.048 55.6915 178.886 56.2332 178.886C56.5916 178.884 56.9469 178.953 57.2786 179.089C57.6104 179.225 57.9121 179.425 58.1663 179.678C58.4205 179.932 58.6222 180.233 58.7599 180.565C58.8975 180.896 58.9684 181.252 58.9684 181.611Z" fill="black"/>
<path d="M312.992 169.842L293.695 150.5V169.842H312.992Z" fill="black"/>
<path d="M312.992 169.842H293.695L312.992 189.185V169.842Z" fill="#959595"/>
<path d="M293.695 169.842V150.5H241.376V239.555H312.992V189.185L293.695 169.842Z" fill="white"/>
<path d="M312.992 240.641H241.376C241.234 240.641 241.093 240.613 240.961 240.558C240.83 240.504 240.71 240.424 240.609 240.323C240.509 240.222 240.429 240.102 240.374 239.97C240.32 239.838 240.292 239.697 240.292 239.554V150.5C240.296 150.214 240.413 149.942 240.615 149.742C240.818 149.542 241.091 149.43 241.376 149.43H293.728C293.871 149.429 294.012 149.456 294.144 149.511C294.276 149.565 294.395 149.646 294.496 149.747L313.742 169.09C313.943 169.289 314.057 169.559 314.059 169.842V239.554C314.059 239.84 313.947 240.114 313.747 240.317C313.548 240.52 313.276 240.637 312.992 240.641ZM242.46 238.451H311.924V170.293L293.261 151.519H242.46V238.451Z" fill="black"/>
<path d="M277.551 169.407H249.516V174.673H277.551V169.407Z" fill="#FF8633"/>
<path d="M305.587 179.923H249.516V185.189H305.587V179.923Z" fill="#FF8633"/>
<path d="M305.587 190.438H249.516V195.704H305.587V190.438Z" fill="#FF8633"/>
<path d="M305.587 200.954H249.516V206.22H305.587V200.954Z" fill="#FF8633"/>
<path d="M305.586 211.486H268.678V216.752H305.586V211.486Z" fill="#FF8633"/>
<path d="M305.586 222.001H268.678V227.267H305.586V222.001Z" fill="#FF8633"/>
<path d="M277.551 158.892H249.516V164.158H277.551V158.892Z" fill="#FF8633"/>
<path d="M265.727 229.524C265.342 226.392 264.062 223.439 262.043 221.019C260.023 218.599 257.35 216.814 254.343 215.881C251.336 214.947 248.125 214.903 245.094 215.755C242.063 216.606 239.342 218.317 237.258 220.681C235.173 223.046 233.815 225.963 233.344 229.083C232.874 232.203 233.313 235.392 234.608 238.268C235.902 241.144 237.998 243.584 240.642 245.295C243.287 247.006 246.368 247.915 249.516 247.913C250.224 247.911 250.931 247.866 251.634 247.779C255.564 247.26 259.171 245.328 261.785 242.342C264.399 239.356 265.841 235.519 265.844 231.546C265.846 230.87 265.807 230.195 265.727 229.524Z" fill="#FF8633"/>
<path d="M249.514 249.017C246.163 249.017 242.883 248.047 240.068 246.224C237.254 244.402 235.023 241.803 233.645 238.742C232.267 235.68 231.8 232.284 232.299 228.963C232.798 225.641 234.244 222.535 236.461 220.016C238.678 217.497 241.574 215.673 244.799 214.763C248.025 213.853 251.445 213.896 254.647 214.886C257.849 215.875 260.699 217.771 262.853 220.343C265.008 222.916 266.375 226.058 266.793 229.391C266.88 230.118 266.924 230.849 266.926 231.581C266.918 235.816 265.377 239.904 262.589 243.087C259.8 246.269 255.955 248.329 251.766 248.883C251.019 248.979 250.267 249.024 249.514 249.017ZM249.514 216.284C247.469 216.216 245.431 216.562 243.521 217.299C241.612 218.037 239.87 219.152 238.399 220.579C236.928 222.005 235.759 223.713 234.96 225.602C234.161 227.491 233.749 229.521 233.749 231.572C233.749 233.624 234.161 235.654 234.96 237.543C235.759 239.431 236.928 241.14 238.399 242.566C239.87 243.992 241.612 245.108 243.521 245.845C245.431 246.583 247.469 246.928 249.514 246.861C250.178 246.864 250.841 246.825 251.499 246.744C255.181 246.272 258.566 244.474 261.022 241.683C263.477 238.893 264.835 235.302 264.841 231.581C264.836 230.938 264.797 230.297 264.725 229.658C264.253 225.953 262.446 222.549 259.645 220.085C256.844 217.622 253.241 216.27 249.514 216.284Z" fill="black"/>
<path d="M249.515 218.674C247.746 218.674 246.049 219.379 244.798 220.633C243.547 221.887 242.844 223.588 242.844 225.361V229.892H245.796V225.361C245.796 224.39 246.181 223.459 246.866 222.773C247.551 222.086 248.48 221.7 249.448 221.7C250.417 221.7 251.346 222.086 252.031 222.773C252.716 223.459 253.101 224.39 253.101 225.361V229.892H256.069V225.361C256.07 223.608 255.383 221.925 254.157 220.674C252.931 219.423 251.264 218.705 249.515 218.674Z" fill="black"/>
<path d="M249.516 229.841H241.644V241.928H249.516H257.388V229.841H249.516Z" fill="white"/>
<path d="M257.386 243.015H241.642C241.354 243.015 241.078 242.901 240.875 242.697C240.672 242.493 240.558 242.217 240.558 241.928V229.842C240.558 229.699 240.586 229.558 240.64 229.426C240.695 229.294 240.774 229.174 240.875 229.073C240.976 228.972 241.095 228.892 241.227 228.838C241.358 228.783 241.499 228.755 241.642 228.755H257.386C257.528 228.755 257.669 228.783 257.801 228.838C257.932 228.892 258.052 228.972 258.152 229.073C258.253 229.174 258.333 229.294 258.387 229.426C258.442 229.558 258.47 229.699 258.47 229.842V241.928C258.47 242.217 258.356 242.493 258.152 242.697C257.949 242.901 257.673 243.015 257.386 243.015ZM242.709 240.842H256.318V230.928H242.709V240.842Z" fill="black"/>
<path d="M251.382 234.957C251.382 234.46 251.185 233.984 250.835 233.633C250.484 233.282 250.009 233.084 249.514 233.084C249.018 233.084 248.543 233.282 248.193 233.633C247.843 233.984 247.646 234.46 247.646 234.957C247.639 235.294 247.722 235.626 247.886 235.92C248.05 236.214 248.29 236.459 248.58 236.629V238.133C248.58 238.381 248.678 238.62 248.853 238.795C249.029 238.971 249.266 239.069 249.514 239.069C249.762 239.069 249.999 238.971 250.174 238.795C250.349 238.62 250.448 238.381 250.448 238.133V236.629C250.738 236.459 250.978 236.214 251.142 235.92C251.306 235.626 251.389 235.294 251.382 234.957Z" fill="black"/>
<path d="M250.583 215.197H248.432V218.674H250.583V215.197Z" fill="black"/>
<path d="M250.583 241.929H248.432V247.947H250.583V241.929Z" fill="black"/>
<path d="M215.142 203.093H123.18V273.658H215.142V203.093Z" fill="white"/>
<path d="M169.159 137.912V155.198C174.82 155.202 180.247 157.458 184.25 161.47C188.252 165.482 190.503 170.922 190.507 176.596V203.094H207.752V176.596C207.739 166.34 203.669 156.509 196.434 149.257C189.199 142.005 179.391 137.925 169.159 137.912Z" fill="black"/>
<path d="M180.069 226.381C180.072 224.46 179.57 222.573 178.613 220.908C177.657 219.244 176.28 217.861 174.621 216.9C172.962 215.939 171.08 215.432 169.164 215.432C167.248 215.431 165.365 215.937 163.706 216.897C162.047 217.858 160.669 219.24 159.712 220.904C158.755 222.567 158.252 224.455 158.254 226.375C158.256 228.296 158.762 230.182 159.723 231.844C160.683 233.507 162.063 234.886 163.724 235.843V244.637C163.724 246.082 164.297 247.468 165.317 248.49C166.336 249.512 167.719 250.087 169.161 250.087C170.603 250.087 171.986 249.512 173.006 248.49C174.026 247.468 174.598 246.082 174.598 244.637V235.843C176.26 234.887 177.64 233.509 178.601 231.848C179.561 230.187 180.068 228.301 180.069 226.381Z" fill="#FF8633"/>
<path d="M235.355 106.181H233.987C233.993 96.1282 230.808 86.3336 224.892 78.2155C218.976 70.0975 210.636 64.077 201.08 61.0255C191.523 57.9739 181.246 58.0497 171.736 61.2419C162.225 64.434 153.975 70.5768 148.178 78.7813C143.927 75.1663 138.731 72.8476 133.206 72.0995C127.681 71.3515 122.057 72.2053 117.001 74.56C111.945 76.9148 107.667 80.6719 104.674 85.3869C101.681 90.102 100.098 95.5777 100.112 101.166C100.113 102.848 100.264 104.526 100.563 106.181C90.2404 106.78 80.5591 111.395 73.5802 119.042C66.6014 126.689 62.8762 136.765 63.1979 147.124C63.5197 157.483 67.8629 167.307 75.3028 174.504C82.7427 181.701 92.6915 185.703 103.031 185.657H235.355C245.878 185.657 255.97 181.467 263.411 174.008C270.851 166.55 275.032 156.434 275.032 145.886C275.032 135.338 270.851 125.222 263.411 117.763C255.97 110.305 245.878 106.115 235.355 106.115V106.181Z" fill="#40C6FF"/>
<path d="M130.567 176.596V203.094H147.812V176.596C147.817 170.922 150.067 165.482 154.07 161.47C158.073 157.458 163.5 155.202 169.16 155.198V137.912C158.929 137.925 149.12 142.005 141.886 149.257C134.651 156.509 130.581 166.34 130.567 176.596Z" fill="black"/>
<path d="M217.459 100.581C217.224 100.582 216.996 100.505 216.809 100.363C216.622 100.221 216.487 100.022 216.425 99.795C214.522 92.9917 210.454 86.9983 204.838 82.7277C199.223 78.4571 192.369 76.1436 185.32 76.1396C177.804 76.1375 170.524 78.7691 164.739 83.5789C164.517 83.7543 164.236 83.8358 163.954 83.806C163.673 83.7762 163.415 83.6374 163.234 83.4194C163.054 83.2013 162.965 82.9211 162.988 82.6386C163.01 82.3562 163.142 82.0937 163.355 81.9072C169.532 76.7784 177.299 73.9701 185.32 73.9663C192.835 73.9811 200.14 76.4546 206.124 81.0109C212.109 85.5672 216.446 91.9572 218.476 99.2099C218.553 99.487 218.517 99.7834 218.376 100.034C218.236 100.285 218.002 100.469 217.725 100.547C217.639 100.572 217.549 100.583 217.459 100.581Z" fill="black"/>
<path d="M215.141 274.728H123.178C123.036 274.731 122.896 274.705 122.764 274.652C122.633 274.599 122.513 274.521 122.412 274.421C122.311 274.321 122.231 274.203 122.177 274.072C122.122 273.941 122.094 273.8 122.094 273.659V203.093C122.094 202.951 122.122 202.809 122.176 202.678C122.231 202.546 122.311 202.426 122.411 202.325C122.512 202.224 122.631 202.144 122.763 202.09C122.895 202.035 123.035 202.007 123.178 202.007H215.141C215.425 202.011 215.697 202.128 215.896 202.331C216.096 202.534 216.208 202.808 216.208 203.093V273.659C216.208 273.942 216.096 274.214 215.895 274.415C215.695 274.616 215.424 274.728 215.141 274.728ZM124.262 272.572H214.057V204.163H124.262V272.572Z" fill="black"/>
<path d="M105.266 172.768C98.1686 172.768 91.3621 169.942 86.3437 164.911C81.3252 159.881 78.5059 153.058 78.5059 145.944C78.5059 138.83 81.3252 132.008 86.3437 126.977C91.3621 121.947 98.1686 119.121 105.266 119.121C105.408 119.121 105.549 119.149 105.681 119.204C105.812 119.258 105.932 119.338 106.032 119.439C106.133 119.54 106.213 119.66 106.267 119.792C106.322 119.924 106.35 120.065 106.35 120.208C106.35 120.35 106.322 120.49 106.267 120.621C106.212 120.752 106.132 120.871 106.031 120.97C105.93 121.07 105.811 121.148 105.679 121.201C105.548 121.254 105.407 121.28 105.266 121.278C98.8501 121.445 92.7534 124.117 88.2747 128.725C83.7961 133.333 81.2897 139.511 81.2897 145.944C81.2897 152.378 83.7961 158.556 88.2747 163.164C92.7534 167.772 98.8501 170.444 105.266 170.611C105.553 170.611 105.829 170.726 106.032 170.93C106.236 171.133 106.35 171.41 106.35 171.698C106.35 171.84 106.322 171.98 106.267 172.111C106.212 172.242 106.132 172.361 106.031 172.46C105.93 172.56 105.811 172.639 105.679 172.691C105.548 172.744 105.407 172.77 105.266 172.768Z" fill="black"/>
<path d="M215.141 261.12H123.178C122.89 261.12 122.615 261.006 122.411 260.802C122.208 260.598 122.094 260.322 122.094 260.033C122.094 259.745 122.208 259.469 122.411 259.265C122.615 259.061 122.89 258.947 123.178 258.947H215.141C215.428 258.947 215.704 259.061 215.907 259.265C216.11 259.469 216.225 259.745 216.225 260.033C216.225 260.322 216.11 260.598 215.907 260.802C215.704 261.006 215.428 261.12 215.141 261.12Z" fill="black"/>
<path d="M277.9 23.1616H246.328C241.98 23.1616 238.456 26.6944 238.456 31.0523V99.9289C238.456 104.287 241.98 107.82 246.328 107.82H277.9C282.247 107.82 285.772 104.287 285.772 99.9289V31.0523C285.772 26.6944 282.247 23.1616 277.9 23.1616Z" fill="#959595"/>
<path d="M264.375 100.982C264.378 101.43 264.25 101.868 264.005 102.243C263.761 102.617 263.412 102.911 263.001 103.088C262.591 103.264 262.138 103.315 261.699 103.235C261.26 103.154 260.854 102.945 260.533 102.635C260.211 102.324 259.989 101.925 259.892 101.488C259.796 101.052 259.83 100.596 259.991 100.178C260.152 99.761 260.433 99.4005 260.797 99.1421C261.162 98.8836 261.594 98.7388 262.04 98.7256C262.342 98.7167 262.643 98.7683 262.925 98.8776C263.207 98.9868 263.464 99.1513 263.682 99.3616C263.899 99.5718 264.072 99.8235 264.192 100.102C264.311 100.38 264.373 100.68 264.375 100.982Z" fill="#3C3C3B"/>
<path d="M280.454 36.8706H243.779V94.1117H280.454V36.8706Z" fill="white"/>
<path d="M267.461 51.1968H256.754V79.7839H267.461V51.1968Z" fill="#3C3C3B"/>
<path d="M287.856 59.8403H262.105V69.0183L262.156 69.0517L266.475 73.0807L269.911 69.9043L270.795 69.1353L275.031 73.0807L279.317 69.1019L283.587 73.0807L287.856 69.1019V59.8403Z" fill="#FF8633"/>
<path d="M283.588 74.167C283.452 74.1677 283.317 74.1415 283.191 74.0899C283.065 74.0383 282.95 73.9622 282.854 73.8661L279.318 70.5226L275.766 73.8661C275.565 74.0506 275.304 74.1529 275.032 74.1529C274.76 74.1529 274.498 74.0506 274.298 73.8661L270.762 70.5226L270.612 70.6564L267.276 73.7993C267.081 73.9863 266.821 74.0906 266.551 74.0906C266.281 74.0906 266.021 73.9863 265.825 73.7993L261.489 69.787C261.26 69.5672 261.123 69.2684 261.106 68.9512V59.8401C261.103 59.6982 261.129 59.5572 261.182 59.4255C261.235 59.2937 261.313 59.1738 261.412 59.0727C261.512 58.9716 261.63 58.8912 261.761 58.8364C261.891 58.7816 262.031 58.7534 262.173 58.7534H287.924V60.9267H263.19V68.5499L266.526 71.6093L270.145 68.2657C270.343 68.0906 270.598 67.994 270.862 67.994C271.126 67.994 271.381 68.0906 271.579 68.2657L275.082 71.6093L278.634 68.2657C278.834 68.0813 279.096 67.9789 279.368 67.9789C279.64 67.9789 279.902 68.0813 280.102 68.2657L283.638 71.6093L287.173 68.2657L288.641 69.9375L284.371 73.8996C284.266 73.9959 284.142 74.0694 284.007 74.1154C283.873 74.1614 283.73 74.179 283.588 74.167Z" fill="black"/>
<path d="M256.637 99.0431C256.265 96.0644 255.043 93.2567 253.118 90.9569C251.193 88.6572 248.647 86.9631 245.785 86.0781C242.923 85.193 239.868 85.1545 236.984 85.9673C234.101 86.7801 231.514 88.4095 229.532 90.6601C227.55 92.9106 226.258 95.6867 225.811 98.6551C225.364 101.623 225.781 104.658 227.013 107.395C228.244 110.131 230.237 112.453 232.752 114.083C235.267 115.712 238.198 116.579 241.193 116.58C241.868 116.586 242.543 116.542 243.211 116.446C246.958 115.958 250.399 114.12 252.892 111.274C255.384 108.428 256.757 104.769 256.754 100.982C256.757 100.334 256.718 99.6862 256.637 99.0431Z" fill="#FF8633"/>
<path d="M241.194 117.667C237.98 117.675 234.833 116.752 232.13 115.01C229.427 113.267 227.284 110.779 225.959 107.845C224.633 104.91 224.181 101.655 224.658 98.4689C225.135 95.2834 226.52 92.3037 228.646 89.8883C230.772 87.4729 233.549 85.7247 236.643 84.8539C239.737 83.9831 243.016 84.0268 246.086 84.9798C249.155 85.9327 251.885 87.7544 253.947 90.2256C256.008 92.6968 257.313 95.7123 257.705 98.9095C257.792 99.5971 257.836 100.289 257.839 100.982C257.834 105.03 256.363 108.939 253.701 111.983C251.039 115.026 247.365 116.999 243.362 117.533C242.643 117.62 241.919 117.664 241.194 117.667ZM241.194 86.4716C237.354 86.4716 233.672 88.0004 230.957 90.7217C228.243 93.443 226.717 97.1339 226.717 100.982C226.717 104.831 228.243 108.522 230.957 111.243C233.672 113.965 237.354 115.493 241.194 115.493C241.824 115.497 242.454 115.457 243.078 115.376C246.563 114.918 249.762 113.204 252.078 110.556C254.395 107.908 255.672 104.505 255.67 100.982C255.67 100.379 255.637 99.7765 255.57 99.1769C255.124 95.6693 253.419 92.4447 250.773 90.1063C248.127 87.7678 244.721 86.4757 241.194 86.4716Z" fill="black"/>
<path d="M241.293 112.484V91.6709L250.666 93.0752C250.666 111.699 241.293 112.484 241.293 112.484Z" fill="#40C6FF"/>
<path d="M241.292 112.484V91.6709L231.919 93.0752C231.919 111.699 241.292 112.484 241.292 112.484Z" fill="#66D1FF"/>
<path d="M241.277 113.571H241.177C240.744 113.571 230.653 112.267 230.653 93.0917V92.1722L241.294 90.5005L251.734 92.1722V93.0081C251.734 112.401 241.811 113.454 241.377 113.487L241.277 113.571ZM232.821 94.0112C233.105 109.375 240.277 111.197 241.294 111.381C242.311 111.23 249.299 109.525 249.633 94.0112L241.294 92.7574L232.821 94.0112Z" fill="black"/>
<path d="M287.106 63.2505H262.105V65.4071H287.106V63.2505Z" fill="black"/>
<path d="M299.598 76.374C306.497 76.374 312.09 70.768 312.09 63.8525C312.09 56.9371 306.497 51.3311 299.598 51.3311C292.699 51.3311 287.106 56.9371 287.106 63.8525C287.106 70.768 292.699 76.374 299.598 76.374Z" fill="#FF8633"/>
<path d="M299.598 77.4604C296.913 77.4637 294.286 76.6684 292.052 75.1752C289.817 73.6819 288.074 71.5577 287.044 69.0715C286.014 66.5852 285.743 63.8485 286.265 61.2077C286.787 58.5669 288.078 56.1406 289.976 54.2358C291.874 52.331 294.293 51.0333 296.927 50.5068C299.561 49.9804 302.292 50.2489 304.773 51.2784C307.255 52.3079 309.376 54.0521 310.869 56.2903C312.361 58.5285 313.158 61.1601 313.158 63.8523C313.153 67.4571 311.724 70.9133 309.182 73.4639C306.641 76.0145 303.195 77.4516 299.598 77.4604ZM299.598 52.384C297.338 52.3807 295.126 53.0499 293.245 54.307C291.364 55.564 289.897 57.3523 289.03 59.4455C288.163 61.5387 287.936 63.8426 288.376 66.0655C288.816 68.2885 289.905 70.3305 291.503 71.933C293.102 73.5356 295.139 74.6266 297.357 75.0679C299.575 75.5092 301.873 75.281 303.961 74.4122C306.05 73.5434 307.834 72.073 309.088 70.1873C310.342 68.3015 311.01 66.0852 311.006 63.8188C310.993 60.7933 309.786 57.8959 307.648 55.7596C305.511 53.6234 302.617 52.4218 299.598 52.4174V52.384Z" fill="black"/>
<path d="M304.536 67.8311C303.75 67.8311 302.982 67.5973 302.329 67.1594C301.676 66.7215 301.167 66.0991 300.867 65.3711C300.567 64.6431 300.489 63.8422 300.644 63.0699C300.798 62.2977 301.178 61.5888 301.735 61.033C302.292 60.4772 303.001 60.0996 303.772 59.948C304.543 59.7963 305.341 59.8775 306.066 60.1812C306.791 60.4849 307.41 60.9975 307.844 61.654C308.278 62.3105 308.508 63.0814 308.505 63.869C308.501 64.9214 308.081 65.9291 307.337 66.6717C306.593 67.4142 305.586 67.8311 304.536 67.8311Z" fill="white"/>
<path d="M304.535 68.9178C303.545 68.9178 302.578 68.6236 301.755 68.0725C300.932 67.5215 300.291 66.7382 299.912 65.8217C299.533 64.9053 299.434 63.8969 299.627 62.9241C299.82 61.9512 300.297 61.0576 300.997 60.3562C301.696 59.6548 302.588 59.1771 303.559 58.9836C304.529 58.7901 305.535 58.8894 306.449 59.269C307.364 59.6486 308.145 60.2914 308.695 61.1161C309.245 61.9409 309.538 62.9106 309.538 63.9025C309.538 65.2326 309.011 66.5083 308.073 67.4488C307.134 68.3894 305.862 68.9178 304.535 68.9178ZM304.535 60.9602C303.96 60.9569 303.397 61.1247 302.918 61.4423C302.438 61.7599 302.064 62.213 301.842 62.7442C301.62 63.2755 301.56 63.8609 301.67 64.4262C301.78 64.9916 302.055 65.5115 302.46 65.9199C302.865 66.3284 303.382 66.6071 303.946 66.7207C304.509 66.8343 305.093 66.7777 305.625 66.5581C306.156 66.3384 306.61 65.9656 306.93 65.4869C307.249 65.0081 307.42 64.4451 307.42 63.8691C307.422 63.4878 307.349 63.11 307.205 62.7571C307.061 62.4043 306.849 62.0835 306.581 61.8132C306.313 61.5429 305.994 61.3283 305.643 61.1819C305.292 61.0355 304.915 60.9602 304.535 60.9602Z" fill="black"/>
<path d="M267.928 28.9961H256.304V31.1527H267.928V28.9961Z" fill="black"/>
<path d="M242.361 85.4014H240.21V91.6705H242.361V85.4014Z" fill="black"/>
<path d="M242.361 112.484H240.21V116.58H242.361V112.484Z" fill="black"/>
<path d="M200.564 19.6172H185.938C182.391 19.6172 179.517 22.4988 179.517 26.0535V57.9005C179.517 61.4552 182.391 64.3368 185.938 64.3368H200.564C204.111 64.3368 206.985 61.4552 206.985 57.9005V26.0535C206.985 22.4988 204.111 19.6172 200.564 19.6172Z" fill="#40C6FF"/>
<path d="M200.565 65.4236H185.939C183.95 65.4191 182.043 64.6251 180.637 63.2153C179.23 61.8054 178.438 59.8945 178.434 57.9006V26.1372C178.438 24.1433 179.23 22.2324 180.637 20.8225C182.043 19.4127 183.95 18.6187 185.939 18.6143H200.565C202.553 18.6187 204.458 19.4132 205.862 20.8236C207.265 22.2339 208.054 24.1449 208.054 26.1372V57.9006C208.054 59.8929 207.265 61.8039 205.862 63.2142C204.458 64.6246 202.553 65.4191 200.565 65.4236ZM185.939 20.704C185.23 20.7039 184.528 20.8449 183.874 21.1187C183.221 21.3926 182.627 21.7939 182.129 22.2993C181.631 22.8047 181.238 23.4042 180.973 24.063C180.708 24.7218 180.576 25.4269 180.585 26.1372V57.9006C180.589 59.321 181.155 60.6816 182.159 61.6844C183.163 62.6872 184.522 63.2503 185.939 63.2503H200.565C201.979 63.2459 203.334 62.6808 204.334 61.6785C205.334 60.6762 205.898 59.3181 205.902 57.9006V26.1372C205.902 24.7168 205.341 23.3544 204.34 22.3485C203.34 21.3426 201.982 20.7753 200.565 20.7708L185.939 20.704Z" fill="black"/>
<path d="M196.395 22.8774H190.508V23.9474H196.395V22.8774Z" fill="#3C3C3B"/>
<path d="M193.411 57.667C193.107 57.667 192.807 57.7272 192.526 57.8442C192.246 57.9612 191.992 58.1326 191.778 58.3486C191.564 58.5646 191.394 58.8209 191.28 59.1027C191.165 59.3846 191.107 59.6864 191.109 59.9907C191.159 60.5709 191.423 61.1113 191.851 61.5052C192.279 61.899 192.839 62.1176 193.419 62.1176C194 62.1176 194.56 61.899 194.988 61.5052C195.415 61.1113 195.68 60.5709 195.729 59.9907C195.729 59.3744 195.485 58.7834 195.05 58.3476C194.616 57.9118 194.026 57.667 193.411 57.667Z" fill="#3C3C3B"/>
<path d="M203.868 27.2236H183.12V56.1952H203.868V27.2236Z" fill="white"/>
</g>
<defs>
<clipPath id="clip0_451_746">
<rect width="320" height="356.535" fill="white"/>
</clipPath>
</defs>
</svg>
