<svg width="240" height="252" viewBox="0 0 240 252" fill="none" xmlns="http://www.w3.org/2000/svg">
<mask id="path-1-inside-1_451_888" fill="white">
<path d="M11.3129 166.371C7.87981 164.304 5.02532 161.29 3.04533 157.643C1.06534 153.996 0.0319346 149.848 0.0522546 145.628V104.34C0.0543625 100.465 0.946915 96.6505 2.65109 93.233C4.35527 89.8156 6.81863 86.9004 9.82365 84.7448C6.82026 82.5873 4.35814 79.6717 2.65416 76.2547C0.950186 72.8377 0.0566476 69.0241 0.0522546 65.15V23.6651C0.059169 17.4089 2.38185 11.411 6.51081 6.98717C10.6398 2.56335 16.2379 0.074791 22.0771 0.0673828H218.027C223.86 0.082208 229.448 2.57493 233.568 6.99875C237.687 11.4226 240 17.4163 240 23.6651V65.094C239.996 68.9682 239.102 72.7817 237.398 76.1987C235.694 79.6157 233.232 82.5314 230.229 84.6888C233.234 86.8444 235.697 89.7596 237.401 93.1771C239.105 96.5945 239.998 100.409 240 104.284V145.628C240.002 149.829 238.959 153.954 236.98 157.58C235.001 161.205 232.157 164.201 228.739 166.259C232.155 168.312 234.998 171.303 236.977 174.924C238.956 178.545 240 182.665 240 186.861V228.458C239.997 231.558 239.422 234.627 238.31 237.489C237.199 240.351 235.571 242.95 233.52 245.136C231.469 247.323 229.036 249.055 226.359 250.233C223.683 251.411 220.816 252.011 217.923 252H21.9726C16.1403 251.985 10.5516 249.493 6.43244 245.069C2.31328 240.645 -1.6414e-05 234.651 0 228.402V186.973C0.00542394 182.772 1.05658 178.648 3.04513 175.026C5.03367 171.405 7.88764 168.417 11.3129 166.371ZM11.8093 21.9575V63.9463C11.8368 67.0598 13.0106 70.0358 15.0753 72.227C17.14 74.4182 19.9286 75.6473 22.8347 75.6472H219.464C222.389 75.6472 225.193 74.4026 227.261 72.1873C229.328 69.9719 230.49 66.9673 230.49 63.8344V21.8456C230.462 18.732 229.289 15.7561 227.224 13.5649C225.159 11.3737 222.371 10.1446 219.464 10.1447H22.8347C19.9106 10.1447 17.1062 11.3893 15.0386 13.6046C12.9709 15.8199 11.8093 18.8246 11.8093 21.9575ZM22.8347 90.7632C21.3812 90.7668 19.9426 91.0776 18.6014 91.6778C17.2602 92.278 16.0426 93.1558 15.0185 94.2609C13.9943 95.366 13.1837 96.6767 12.633 98.118C12.0823 99.5592 11.8024 101.103 11.8093 102.66V144.453C11.8093 147.586 12.9709 150.59 15.0386 152.806C17.1062 155.021 19.9106 156.266 22.8347 156.266H219.464C222.389 156.266 225.193 155.021 227.261 152.806C229.328 150.59 230.49 147.586 230.49 144.453V102.464C230.49 99.3311 229.328 96.3264 227.261 94.1111C225.193 91.8957 222.389 90.6512 219.464 90.6512L22.8347 90.7632ZM11.8093 185.714V227.703C11.8093 230.836 12.9709 233.84 15.0386 236.056C17.1062 238.271 19.9106 239.515 22.8347 239.515H219.464C222.389 239.515 225.193 238.271 227.261 236.056C229.328 233.84 230.49 230.836 230.49 227.703V185.714C230.49 182.581 229.328 179.576 227.261 177.361C225.193 175.145 222.389 173.901 219.464 173.901H22.8347C19.9106 173.901 17.1062 175.145 15.0386 177.361C12.9709 179.576 11.8093 182.581 11.8093 185.714ZM33.1287 51.0138C31.628 51.0249 30.158 50.5582 28.9051 49.673C27.6523 48.7877 26.673 47.5238 26.0915 46.0415C25.51 44.5592 25.3525 42.9252 25.6389 41.3468C25.9254 39.7685 26.6428 38.3168 27.7003 37.1759C28.7579 36.035 30.1078 35.2562 31.5789 34.9384C33.0501 34.6206 34.5762 34.7781 35.9637 35.3908C37.3512 36.0036 38.5377 37.044 39.3725 38.3801C40.2074 39.7163 40.6531 41.288 40.6532 42.8959C40.6566 43.9583 40.4647 45.011 40.0884 45.9939C39.7121 46.9768 39.1588 47.8707 38.4601 48.6245C37.7614 49.3783 36.931 49.9773 36.0162 50.3873C35.1014 50.7972 34.1202 51.0101 33.1287 51.0138ZM65.1078 35.338H114.121C115.048 35.3196 115.969 35.4969 116.831 35.8597C117.693 36.2226 118.481 36.7638 119.148 37.4527C119.815 38.1415 120.349 38.9644 120.719 39.8743C121.09 40.7843 121.289 41.7635 121.306 42.756C121.323 43.7485 121.158 44.7349 120.819 45.6589C120.481 46.583 119.975 47.4265 119.333 48.1413C118.69 48.8561 117.922 49.4282 117.072 49.825C116.223 50.2218 115.309 50.4355 114.383 50.4539H65.1078C63.2369 50.4539 61.4426 49.6576 60.1197 48.2402C58.7968 46.8228 58.0536 44.9004 58.0536 42.8959C58.0536 40.8914 58.7968 38.969 60.1197 37.5516C61.4426 36.1342 63.2369 35.338 65.1078 35.338ZM65.1078 115.956H114.121C115.326 115.962 116.51 116.295 117.562 116.925C118.613 117.555 119.498 118.461 120.133 119.559C120.768 120.656 121.132 121.908 121.191 123.197C121.25 124.487 121.002 125.771 120.47 126.929C119.894 128.2 118.99 129.266 117.864 130C116.738 130.735 115.439 131.107 114.121 131.072H65.1078C63.2369 131.072 61.4426 130.276 60.1197 128.859C58.7968 127.441 58.0536 125.519 58.0536 123.514C58.0536 121.51 58.7968 119.587 60.1197 118.17C61.4426 116.753 63.2369 115.956 65.1078 115.956ZM65.1078 199.094H113.651C115.525 199.045 117.346 199.765 118.741 201.108C120.135 202.451 120.997 204.314 121.15 206.316C121.192 207.337 121.041 208.356 120.705 209.312C120.37 210.268 119.857 211.141 119.198 211.879C118.538 212.617 117.746 213.204 116.869 213.604C115.992 214.005 115.049 214.211 114.095 214.21H65.6303C63.7534 214.26 61.9294 213.541 60.5309 212.198C59.1325 210.856 58.265 208.992 58.1058 206.988C58.0673 205.973 58.2193 204.961 58.553 204.01C58.8866 203.059 59.395 202.19 60.048 201.454C60.701 200.718 61.4853 200.13 62.3545 199.724C63.2236 199.319 64.1599 199.105 65.1078 199.094ZM33.1287 132.304C31.6217 132.321 30.1442 131.857 28.8836 130.972C27.623 130.087 26.6364 128.821 26.0489 127.334C25.4614 125.847 25.2996 124.207 25.5841 122.621C25.8685 121.036 26.5864 119.576 27.6465 118.429C28.7066 117.281 30.0611 116.497 31.538 116.176C33.0149 115.854 34.5476 116.011 35.9414 116.625C37.3352 117.239 38.5273 118.283 39.3662 119.624C40.2051 120.965 40.6531 122.544 40.6532 124.158C40.6601 125.223 40.4707 126.279 40.096 127.265C39.7212 128.251 39.1685 129.148 38.4694 129.905C37.7704 130.662 36.9387 131.263 36.0223 131.675C35.1058 132.087 34.1224 132.3 33.1287 132.304ZM33.1287 213.482C31.6217 213.499 30.1442 213.035 28.8836 212.151C27.623 211.266 26.6364 209.999 26.0489 208.512C25.4614 207.026 25.2996 205.385 25.5841 203.799C25.8685 202.214 26.5864 200.755 27.6465 199.607C28.7066 198.459 30.0611 197.675 31.538 197.354C33.0149 197.033 34.5476 197.189 35.9414 197.803C37.3352 198.417 38.5273 199.461 39.3662 200.802C40.2051 202.144 40.6531 203.722 40.6532 205.337C40.6705 206.408 40.4888 207.473 40.1188 208.469C39.7487 209.465 39.1976 210.372 38.4975 211.138C37.7974 211.903 36.9623 212.512 36.0406 212.929C35.1189 213.346 34.1291 213.563 33.1287 213.566V213.482Z"/>
</mask>
<path d="M11.3129 166.371C7.87981 164.304 5.02532 161.29 3.04533 157.643C1.06534 153.996 0.0319346 149.848 0.0522546 145.628V104.34C0.0543625 100.465 0.946915 96.6505 2.65109 93.233C4.35527 89.8156 6.81863 86.9004 9.82365 84.7448C6.82026 82.5873 4.35814 79.6717 2.65416 76.2547C0.950186 72.8377 0.0566476 69.0241 0.0522546 65.15V23.6651C0.059169 17.4089 2.38185 11.411 6.51081 6.98717C10.6398 2.56335 16.2379 0.074791 22.0771 0.0673828H218.027C223.86 0.082208 229.448 2.57493 233.568 6.99875C237.687 11.4226 240 17.4163 240 23.6651V65.094C239.996 68.9682 239.102 72.7817 237.398 76.1987C235.694 79.6157 233.232 82.5314 230.229 84.6888C233.234 86.8444 235.697 89.7596 237.401 93.1771C239.105 96.5945 239.998 100.409 240 104.284V145.628C240.002 149.829 238.959 153.954 236.98 157.58C235.001 161.205 232.157 164.201 228.739 166.259C232.155 168.312 234.998 171.303 236.977 174.924C238.956 178.545 240 182.665 240 186.861V228.458C239.997 231.558 239.422 234.627 238.31 237.489C237.199 240.351 235.571 242.95 233.52 245.136C231.469 247.323 229.036 249.055 226.359 250.233C223.683 251.411 220.816 252.011 217.923 252H21.9726C16.1403 251.985 10.5516 249.493 6.43244 245.069C2.31328 240.645 -1.6414e-05 234.651 0 228.402V186.973C0.00542394 182.772 1.05658 178.648 3.04513 175.026C5.03367 171.405 7.88764 168.417 11.3129 166.371ZM11.8093 21.9575V63.9463C11.8368 67.0598 13.0106 70.0358 15.0753 72.227C17.14 74.4182 19.9286 75.6473 22.8347 75.6472H219.464C222.389 75.6472 225.193 74.4026 227.261 72.1873C229.328 69.9719 230.49 66.9673 230.49 63.8344V21.8456C230.462 18.732 229.289 15.7561 227.224 13.5649C225.159 11.3737 222.371 10.1446 219.464 10.1447H22.8347C19.9106 10.1447 17.1062 11.3893 15.0386 13.6046C12.9709 15.8199 11.8093 18.8246 11.8093 21.9575ZM22.8347 90.7632C21.3812 90.7668 19.9426 91.0776 18.6014 91.6778C17.2602 92.278 16.0426 93.1558 15.0185 94.2609C13.9943 95.366 13.1837 96.6767 12.633 98.118C12.0823 99.5592 11.8024 101.103 11.8093 102.66V144.453C11.8093 147.586 12.9709 150.59 15.0386 152.806C17.1062 155.021 19.9106 156.266 22.8347 156.266H219.464C222.389 156.266 225.193 155.021 227.261 152.806C229.328 150.59 230.49 147.586 230.49 144.453V102.464C230.49 99.3311 229.328 96.3264 227.261 94.1111C225.193 91.8957 222.389 90.6512 219.464 90.6512L22.8347 90.7632ZM11.8093 185.714V227.703C11.8093 230.836 12.9709 233.84 15.0386 236.056C17.1062 238.271 19.9106 239.515 22.8347 239.515H219.464C222.389 239.515 225.193 238.271 227.261 236.056C229.328 233.84 230.49 230.836 230.49 227.703V185.714C230.49 182.581 229.328 179.576 227.261 177.361C225.193 175.145 222.389 173.901 219.464 173.901H22.8347C19.9106 173.901 17.1062 175.145 15.0386 177.361C12.9709 179.576 11.8093 182.581 11.8093 185.714ZM33.1287 51.0138C31.628 51.0249 30.158 50.5582 28.9051 49.673C27.6523 48.7877 26.673 47.5238 26.0915 46.0415C25.51 44.5592 25.3525 42.9252 25.6389 41.3468C25.9254 39.7685 26.6428 38.3168 27.7003 37.1759C28.7579 36.035 30.1078 35.2562 31.5789 34.9384C33.0501 34.6206 34.5762 34.7781 35.9637 35.3908C37.3512 36.0036 38.5377 37.044 39.3725 38.3801C40.2074 39.7163 40.6531 41.288 40.6532 42.8959C40.6566 43.9583 40.4647 45.011 40.0884 45.9939C39.7121 46.9768 39.1588 47.8707 38.4601 48.6245C37.7614 49.3783 36.931 49.9773 36.0162 50.3873C35.1014 50.7972 34.1202 51.0101 33.1287 51.0138ZM65.1078 35.338H114.121C115.048 35.3196 115.969 35.4969 116.831 35.8597C117.693 36.2226 118.481 36.7638 119.148 37.4527C119.815 38.1415 120.349 38.9644 120.719 39.8743C121.09 40.7843 121.289 41.7635 121.306 42.756C121.323 43.7485 121.158 44.7349 120.819 45.6589C120.481 46.583 119.975 47.4265 119.333 48.1413C118.69 48.8561 117.922 49.4282 117.072 49.825C116.223 50.2218 115.309 50.4355 114.383 50.4539H65.1078C63.2369 50.4539 61.4426 49.6576 60.1197 48.2402C58.7968 46.8228 58.0536 44.9004 58.0536 42.8959C58.0536 40.8914 58.7968 38.969 60.1197 37.5516C61.4426 36.1342 63.2369 35.338 65.1078 35.338ZM65.1078 115.956H114.121C115.326 115.962 116.51 116.295 117.562 116.925C118.613 117.555 119.498 118.461 120.133 119.559C120.768 120.656 121.132 121.908 121.191 123.197C121.25 124.487 121.002 125.771 120.47 126.929C119.894 128.2 118.99 129.266 117.864 130C116.738 130.735 115.439 131.107 114.121 131.072H65.1078C63.2369 131.072 61.4426 130.276 60.1197 128.859C58.7968 127.441 58.0536 125.519 58.0536 123.514C58.0536 121.51 58.7968 119.587 60.1197 118.17C61.4426 116.753 63.2369 115.956 65.1078 115.956ZM65.1078 199.094H113.651C115.525 199.045 117.346 199.765 118.741 201.108C120.135 202.451 120.997 204.314 121.15 206.316C121.192 207.337 121.041 208.356 120.705 209.312C120.37 210.268 119.857 211.141 119.198 211.879C118.538 212.617 117.746 213.204 116.869 213.604C115.992 214.005 115.049 214.211 114.095 214.21H65.6303C63.7534 214.26 61.9294 213.541 60.5309 212.198C59.1325 210.856 58.265 208.992 58.1058 206.988C58.0673 205.973 58.2193 204.961 58.553 204.01C58.8866 203.059 59.395 202.19 60.048 201.454C60.701 200.718 61.4853 200.13 62.3545 199.724C63.2236 199.319 64.1599 199.105 65.1078 199.094ZM33.1287 132.304C31.6217 132.321 30.1442 131.857 28.8836 130.972C27.623 130.087 26.6364 128.821 26.0489 127.334C25.4614 125.847 25.2996 124.207 25.5841 122.621C25.8685 121.036 26.5864 119.576 27.6465 118.429C28.7066 117.281 30.0611 116.497 31.538 116.176C33.0149 115.854 34.5476 116.011 35.9414 116.625C37.3352 117.239 38.5273 118.283 39.3662 119.624C40.2051 120.965 40.6531 122.544 40.6532 124.158C40.6601 125.223 40.4707 126.279 40.096 127.265C39.7212 128.251 39.1685 129.148 38.4694 129.905C37.7704 130.662 36.9387 131.263 36.0223 131.675C35.1058 132.087 34.1224 132.3 33.1287 132.304ZM33.1287 213.482C31.6217 213.499 30.1442 213.035 28.8836 212.151C27.623 211.266 26.6364 209.999 26.0489 208.512C25.4614 207.026 25.2996 205.385 25.5841 203.799C25.8685 202.214 26.5864 200.755 27.6465 199.607C28.7066 198.459 30.0611 197.675 31.538 197.354C33.0149 197.033 34.5476 197.189 35.9414 197.803C37.3352 198.417 38.5273 199.461 39.3662 200.802C40.2051 202.144 40.6531 203.722 40.6532 205.337C40.6705 206.408 40.4888 207.473 40.1188 208.469C39.7487 209.465 39.1976 210.372 38.4975 211.138C37.7974 211.903 36.9623 212.512 36.0406 212.929C35.1189 213.346 34.1291 213.563 33.1287 213.566V213.482Z" fill="white" stroke="#5A98FD" stroke-width="4" mask="url(#path-1-inside-1_451_888)"/>
</svg>
