<svg width="239" height="299" viewBox="0 0 239 299" fill="none" xmlns="http://www.w3.org/2000/svg">
<path d="M45.6771 64.6687L44.0462 65.5485L45.6768 66.4288L119.861 106.479L120.336 106.735L120.811 106.479L195.057 66.429L196.69 65.5485L195.057 64.6686L120.811 24.6517L120.336 24.3959L119.862 24.6519L45.6771 64.6687ZM13.0266 73.1963L13.0215 73.1936C11.721 72.5019 10.6152 71.4257 9.83761 70.0771C9.05975 68.728 8.64439 67.165 8.64439 65.5655C8.64439 63.9659 9.05975 62.4029 9.83761 61.0538C10.6152 59.7052 11.721 58.629 13.0215 57.9373L13.0266 57.9345L116.87 1.92577C116.87 1.92559 116.871 1.92541 116.871 1.92523C117.952 1.34701 119.138 1.04834 120.337 1.04834C121.535 1.04834 122.721 1.34698 123.802 1.92512C123.802 1.92534 123.803 1.92555 123.803 1.92577L227.672 57.9317C227.673 57.9322 227.674 57.9326 227.674 57.9331C229.501 58.9332 230.911 60.6808 231.575 62.8183C232.239 64.9551 232.097 67.2886 231.183 69.3093C230.405 70.9525 229.172 72.2746 227.673 73.0992C227.672 73.0997 227.671 73.1002 227.67 73.1006L123.803 129.205C123.802 129.206 123.801 129.206 123.8 129.207C122.72 129.784 121.535 130.083 120.337 130.083C119.138 130.083 117.952 129.784 116.871 129.206C116.871 129.206 116.87 129.205 116.87 129.205L13.0266 73.1963ZM120.486 161.78L120.963 160.964L223.33 105.784C225.692 104.524 228.412 104.326 230.904 105.226C233.399 106.127 235.485 108.066 236.684 110.645C237.885 113.226 238.09 116.221 237.252 118.969C236.414 121.715 234.61 123.97 232.258 125.26C232.258 125.26 232.257 125.261 232.256 125.261L128.416 181.302C125.798 182.714 122.917 183.446 119.998 183.446C117.08 183.446 114.198 182.714 111.581 181.302L7.73476 125.258C5.36334 123.978 3.53904 121.72 2.68844 118.963C1.83753 116.204 2.03877 113.193 3.24349 110.599C4.44748 108.006 6.5456 106.059 9.05456 105.159C11.5603 104.26 14.2935 104.47 16.6613 105.749L16.6618 105.749L119.033 160.964L119.511 161.78L119.527 161.771L119.565 161.749C119.704 161.674 119.852 161.638 119.998 161.638C120.145 161.638 120.293 161.674 120.431 161.749L120.47 161.771L120.486 161.78ZM128.416 238.407L128.416 238.407C125.798 239.819 122.917 240.552 119.998 240.552C117.08 240.552 114.198 239.819 111.581 238.407L111.58 238.407L7.73408 182.43L7.71107 182.417L7.68744 182.406C6.45131 181.821 5.33229 180.97 4.40027 179.899L3.64602 180.556L4.40027 179.899C3.46811 178.828 2.74293 177.561 2.27197 176.172C1.80098 174.782 1.59494 173.303 1.66753 171.822C1.74013 170.342 2.08967 168.895 2.69302 167.569C3.29633 166.243 4.13985 165.068 5.16911 164.111C6.19819 163.155 7.39153 162.437 8.67563 161.997C9.95947 161.556 11.3105 161.401 12.6487 161.539C13.987 161.677 15.2889 162.106 16.4762 162.803L16.7107 162.941H16.8838L119.523 218.367L119.998 218.623L120.473 218.367L223.318 162.896C225.658 161.746 228.312 161.614 230.737 162.524C233.17 163.437 235.203 165.337 236.393 167.853C237.584 170.369 237.829 173.292 237.072 176.004C236.317 178.706 234.633 180.97 232.392 182.343L128.416 238.407ZM7.7343 239.535L7.71118 239.523L7.68744 239.511C6.4513 238.926 5.33229 238.075 4.40027 237.004C3.46811 235.933 2.74293 234.666 2.27197 233.277C1.80098 231.888 1.59494 230.408 1.66753 228.928C1.74013 227.447 2.08967 226.001 2.69302 224.674C3.29633 223.349 4.13984 222.173 5.16911 221.217C6.19819 220.26 7.39154 219.542 8.67563 219.102C9.95948 218.662 11.3105 218.506 12.6487 218.644C13.987 218.783 15.2889 219.211 16.4762 219.909L16.7107 220.046H16.8838L119.523 275.472L119.998 275.729L120.473 275.473L223.318 220.035C225.658 218.885 228.312 218.753 230.737 219.663C233.17 220.576 235.203 222.476 236.393 224.991C237.584 227.508 237.829 230.43 237.072 233.142C236.317 235.845 234.633 238.109 232.392 239.481L128.416 295.545L128.89 296.426L128.416 295.546C125.798 296.957 122.917 297.69 119.998 297.69C117.08 297.69 114.198 296.957 111.581 295.546L7.7343 239.535Z" stroke="#599AFE" stroke-width="2"/>
</svg>
