<svg width="240" height="180" viewBox="0 0 240 180" fill="none" xmlns="http://www.w3.org/2000/svg">
<g clip-path="url(#clip0_451_899)">
<path d="M180.694 156.589L178.896 156.601L179.855 158.122L189.855 173.982L189.86 173.989C190.173 174.477 190.351 175.04 190.373 175.619C190.396 176.198 190.263 176.773 189.988 177.284C189.714 177.795 189.308 178.224 188.811 178.525C188.317 178.826 187.752 178.99 187.173 179H101.501H101.49L101.479 179C100.879 179.013 100.286 178.864 99.763 178.57C99.2402 178.275 98.8067 177.845 98.5082 177.325L98.502 177.314L98.4956 177.303C98.1881 176.797 98.0256 176.217 98.0256 175.625C98.0256 175.036 98.1867 174.459 98.4916 173.954C98.4929 173.952 98.4942 173.95 98.4956 173.948L141.924 105.135C141.925 105.134 141.925 105.133 141.926 105.133C142.227 104.661 142.643 104.272 143.134 104.003C143.627 103.733 144.179 103.592 144.741 103.592C145.303 103.592 145.855 103.733 146.348 104.003C146.84 104.273 147.256 104.661 147.557 105.134C147.557 105.134 147.558 105.134 147.558 105.135L171.555 143.201L171.849 143.668H172.401H193.195C197.586 143.717 201.941 142.879 205.999 141.205C210.053 139.532 213.728 137.059 216.802 133.933C217.855 132.933 218.8 131.827 219.624 130.632L219.801 130.375V130.227C224.216 124.479 226.546 117.4 226.401 110.15L226.401 110.149C226.217 101.278 222.539 92.837 216.165 86.6563C209.792 80.4767 201.238 77.0546 192.357 77.1311H175.561H175.553L175.546 77.1312C173.965 77.1551 172.437 76.563 171.286 75.4807C170.14 74.4032 169.457 72.9243 169.381 71.3553C169.379 70.928 169.331 70.2755 169.288 69.7194C169.28 69.6212 169.273 69.5268 169.266 69.4369C169.229 68.9599 169.201 68.6084 169.201 68.4836V68.4384L169.197 68.3934C167.841 53.4214 160.83 39.5265 149.588 29.531C138.345 19.5356 123.715 14.1889 108.669 14.5769C93.6225 14.9649 79.288 21.0583 68.5771 31.6199C57.9948 42.0547 51.7336 56.0779 51.0251 70.9004H51.001V70.9007V71.4797H51.0038C51.0581 77.2014 51.8968 82.8897 53.4974 88.3857C53.924 90.0096 53.7019 91.7358 52.8775 93.1995C52.051 94.6668 50.6843 95.7549 49.0672 96.2324C47.45 96.7099 45.7102 96.5391 44.2172 95.7564C42.7265 94.9749 41.5993 93.645 41.0737 92.0486C39.5736 87.2116 38.6423 82.2166 38.2987 77.1644L38.2094 75.8514L36.9684 76.2892C32.0469 78.0253 27.5744 80.8345 23.8759 84.5129L23.8744 84.5144C10.0568 98.3142 9.79398 120.023 26.1842 140.242L26.1995 140.26L26.2156 140.279C28.0068 142.281 30.5157 143.498 33.1986 143.666L33.2298 143.668H33.261L87.461 143.668L87.4691 143.668C87.5745 143.667 87.6792 143.687 87.777 143.727C87.8746 143.766 87.9635 143.825 88.0383 143.899L88.0462 143.906C91.1572 146.912 91.559 150.097 90.6435 152.461C89.7083 154.876 87.3563 156.589 84.601 156.589L36.001 156.589L35.9966 156.589C31.4655 156.609 26.9958 155.543 22.9621 153.482C18.9295 151.421 15.4504 148.425 12.8163 144.745C-4.38223 120.497 -1.97899 94.4253 14.5877 77.8799L14.5885 77.8791C20.7343 71.7267 28.4888 67.4242 36.9664 65.463L37.6475 65.3054L37.7334 64.6116C39.3617 51.4669 44.5789 39.0226 52.8142 28.6404C61.0495 18.2583 71.9857 10.3382 84.4262 5.74721C96.8668 1.15617 110.332 0.0710502 123.349 2.61063C136.365 5.15021 148.432 11.2166 158.227 20.1458L158.23 20.1484C170.662 31.3927 178.727 46.6527 181.01 63.2468L181.129 64.1105H182.001H204.273C208.883 64.3679 213.383 65.6153 217.465 67.7676C221.547 69.9193 225.116 72.9248 227.929 76.5788C242.537 98.2538 242.414 121.613 229.469 138.442C228.275 139.99 226.971 141.449 225.566 142.808L225.554 142.819L225.543 142.831C221.305 147.202 216.222 150.669 210.602 153.02C204.982 155.371 198.942 156.558 192.849 156.509L192.842 156.509L192.834 156.509L180.694 156.589ZM151.601 166.039H152.601V165.039V157.589V156.589H151.601H141.601H140.601V157.589V165.039V166.039H141.601H151.601ZM151.601 153.615H152.601V152.615V130.244V129.244H151.601H141.601H140.601V130.244V152.615V153.615H141.601H151.601Z" stroke="#5A98FD" stroke-width="2"/>
</g>
<defs>
<clipPath id="clip0_451_899">
<rect width="240" height="179.768" fill="white" transform="translate(0 0.231445)"/>
</clipPath>
</defs>
</svg>
