<svg width="70" height="70" viewBox="0 0 70 70" fill="none" xmlns="http://www.w3.org/2000/svg">
<path d="M69 5.07952C68.8 2.37952 66.7 0.179517 64 0.0795175C58.5 -0.220483 47.6 0.0795188 37.4 5.47952C32.2 8.17952 26.5 12.8795 22.2 18.1795L22 18.3795L11.9 19.1795C10.2 19.3795 8.69995 20.1795 7.89995 21.4795L0.999951 31.9795C0.299951 32.9795 0.199951 34.2795 0.699951 35.4795C1.19995 36.6795 2.19995 37.4795 3.49995 37.6795L12 38.9795C12 39.1795 11.9999 39.2795 11.7999 39.4795C11.4999 41.1795 12.0999 42.9795 13.2999 44.1795L25.2 56.0795C26.2 57.0795 27.5 57.5795 29 57.5795C29.2999 57.5795 29.5 57.5795 29.7999 57.5795C30 57.5795 30.0999 57.5795 30.2999 57.3795L31.5999 65.9795C31.7999 67.1795 32.6 68.2795 33.8 68.8795C34.3 69.0795 34.8 69.1795 35.3 69.1795C36 69.1795 36.6 68.9795 37.3 68.4795L47.6999 61.5795C48.9999 60.7795 50 59.2795 50 57.5795L51 47.5795L51.1999 47.3795C56.5999 42.8795 61.1 37.2795 63.9 32.0795C69 21.3795 69.1 10.6795 69 5.07952ZM45.1999 58.0795L35.0999 64.5795L33.8 56.3795C38 55.1795 42.1999 53.1795 46.1999 50.4795L45.6999 56.9795C45.8999 57.4795 45.6999 57.9795 45.1999 58.0795ZM27.7999 53.0795L15.9 41.1795C15.6 40.8795 15.3999 40.4795 15.5999 39.9795C15.8999 37.7795 16.3999 35.7795 17.0999 33.9795L34.9 51.7795C32.6 52.5795 30.5 53.0795 28.9 53.2795C28.4 53.3795 28.0999 53.3795 27.7999 53.0795ZM11.9 23.0795L18.4 22.5795C15.7 26.5795 13.7 30.7795 12.5 34.9795L4.29995 33.5795L10.7999 23.5795C11.1999 23.3795 11.5 23.0795 11.9 23.0795ZM48.1999 43.9795C44.9999 46.6795 41.8 48.6795 38.8 50.1795L18.7 30.0795C20.5 26.1795 22.9 23.0795 24.9 20.6795C29.1 15.7795 34.0999 11.4795 39 8.97952C48.6 4.07952 58.3999 3.77952 63.5999 4.07952C64.2999 4.07952 64.8 4.57952 64.8 5.27952C65.1 10.4795 64.7999 20.3795 60 29.9795C57.4 34.7795 53.1999 39.7795 48.1999 43.9795Z" fill="#DF2729"/>
<path d="M47.2 31.7795C49.7 31.7795 52.4 30.7795 54.4 28.7795C56.2 26.9795 57.4 24.2795 57.4 21.5795C57.4 18.8795 56.4 16.3795 54.4 14.3795C50.4 10.3795 44 10.3795 40.2 14.3795C38.4 16.1795 37.2 18.8795 37.2 21.5795C37.2 24.2795 38.2 26.7795 40.2 28.7795C42 30.7795 44.7 31.7795 47.2 31.7795ZM43 17.3795C44.2 16.1795 45.7 15.5795 47.4 15.5795C48.9 15.5795 50.6 16.2795 51.7 17.3795C52.9 18.5795 53.5 20.0795 53.5 21.7795C53.5 23.4795 52.8 24.9795 51.7 26.1795C49.4 28.4795 45.5 28.4795 43.2 26.1795C42 24.9795 41.4 23.4795 41.4 21.7795C41.3 20.0795 41.8 18.4795 43 17.3795Z" fill="#0067B1"/>
<path d="M2.09995 56.7795C2.59995 56.7795 3.09995 56.5795 3.59995 56.0795L10.1 49.5795C10.9 48.7795 10.9 47.5795 10.1 46.6795C9.29995 45.8795 8.09995 45.8795 7.29995 46.6795L0.799951 53.1795C-4.88162e-05 53.9795 -4.88162e-05 55.1795 0.799951 56.0795C0.999951 56.5795 1.59995 56.7795 2.09995 56.7795Z" fill="#F6B426"/>
<path d="M16.2 52.8795C15.4 52.0795 14.2 52.0795 13.4 52.8795L0.6 65.6795C-0.2 66.4795 -0.2 67.6795 0.6 68.5795C0.9 68.8795 1.4 69.2795 2.1 69.2795C2.8 69.2795 3.1 69.0795 3.6 68.5795L16.3 55.8795C16.9 54.8795 16.9 53.5795 16.2 52.8795Z" fill="#F6B426"/>
<path d="M19.4 58.9795L12.9 65.4795C12.1 66.2795 12.1 67.4795 12.9 68.3795C13.2 68.6795 13.7 69.0795 14.4 69.0795C15.1 69.0795 15.4 68.8795 15.9 68.3795L22.4 61.8795C23.2 61.0795 23.2 59.8795 22.4 58.9795C21.4 58.0795 20.1 58.0795 19.4 58.9795Z" fill="#F6B426"/>
</svg>
