<svg width="83" height="68" viewBox="0 0 83 68" fill="none" xmlns="http://www.w3.org/2000/svg">
<path d="M78.7 30H46.3C45.5 30 45 29 45 28C45 27 45.6 26 46.3 26H78.8C79.6 26 80.1 27 80.1 28C80.1 29 79.5 30 78.7 30Z" fill="#F6B426"/>
<path d="M79.7 42H46.3C45.5 42 45 41 45 40C45 39 45.7 38 46.3 38H79.7C80.5 38 81 39 81 40C81 41 80.5 42 79.7 42Z" fill="#F6B426"/>
<path d="M71.7 18H46.2C45.5 18 45 17.1 45 16.3C45 15.4 45.6 14.6 46.2 14.6H70.6V2.7C70.6 1.7 71.2 1 71.8 1H78.9C79.6 1 80.1 1.9 80.1 2.7C80.1 3.6 79.5 4.4 78.9 4.4H72.9V16.2C72.9 17.1 72.4 18 71.7 18Z" fill="#DF2729"/>
<path d="M79.8 67H72.5C71.8 67 71.3 66.1 71.3 65.3V53.4H46.2C45.5 53.4 45 52.5 45 51.7C45 50.7 45.6 50 46.2 50H72.5C73.2 50 73.7 50.9 73.7 51.7V63.5H79.9C80.6 63.5 81.1 64.4 81.1 65.2C81 66.1 80.5 67 79.8 67Z" fill="#DF2729"/>
<path d="M80 6C81.6 6 83 4.7 83 3C83 1.4 81.7 0 80 0C78.4 0 77 1.3 77 3C77 4.6 78.4 6 80 6Z" fill="#DF2729"/>
<path d="M80 30.9C81.6 30.9 83 29.6 83 27.9C83 26.3 81.7 24.9 80 24.9C78.4 24.9 77 26.2 77 27.9C77 29.6 78.4 30.9 80 30.9Z" fill="#F6B426"/>
<path d="M80 43C81.6 43 83 41.7 83 40C83 38.4 81.7 37 80 37C78.4 37 77 38.3 77 40C77 41.7 78.4 43 80 43Z" fill="#F6B426"/>
<path d="M80 68C81.6 68 83 66.7 83 65C83 63.4 81.7 62 80 62C78.4 62 77 63.3 77 65C77 66.7 78.4 68 80 68Z" fill="#DF2729"/>
<path d="M48 58.1H0V10.1H48V58.1ZM4 54.1H44V14.1H4V54.1Z" fill="#0067B1"/>
</svg>
