<svg width="60" height="75" viewBox="0 0 60 75" fill="none" xmlns="http://www.w3.org/2000/svg">
<path d="M29.8 7.5C29.1 7.5 28.5 6.9 28.5 6.2V1.3C28.5 0.600001 29.1 0 29.8 0C30.5 0 30.9 0.600001 30.9 1.3V6.2C30.9 6.9 30.3 7.5 29.8 7.5Z" fill="#F6B426"/>
<path d="M18 10.7C17.6 10.7 17.2 10.4 16.9 10.1L14.4 5.8C14.1 5.2 14.3 4.4 14.8 4.1C15.4 3.8 16.2 4 16.5 4.5L19 8.8C19.3 9.4 19.1 10.2 18.6 10.5C18.5 10.6 18.2 10.7 18 10.7Z" fill="#F6B426"/>
<path d="M9.39995 19.2C9.09995 19.2 8.99995 19.2 8.79995 19.1L4.49995 16.6C3.89995 16.3 3.69995 15.5 4.09995 14.9C4.39995 14.3 5.19995 14.1 5.79995 14.5L10.0999 17C10.6999 17.3 10.8999 18.1 10.4999 18.7C10.1999 19 9.79995 19.2 9.39995 19.2Z" fill="#F6B426"/>
<path d="M6.2 31H1.3C0.599999 31 0 30.4 0 29.7C0 29 0.599999 28.4 1.3 28.4H6.2C6.9 28.4 7.5 29 7.5 29.7C7.5 30.4 6.9 31 6.2 31Z" fill="#F6B426"/>
<path d="M5.10005 45.2C4.40005 45.2 3.80005 44.6 3.80005 43.9C3.80005 43.5 4.10005 43.1 4.40005 42.8L8.70005 40.3C9.30005 40 10.1001 40.2 10.4001 40.7C10.7001 41.3 10.5 42.1 10 42.4L5.80005 45.1C5.50005 45.2 5.30005 45.2 5.10005 45.2Z" fill="#F6B426"/>
<path d="M54.3001 45.2C54.0001 45.2 53.9001 45.2 53.7001 45.1L49.4001 42.6C48.8001 42.3 48.6001 41.5 49.0001 40.9C49.3001 40.3 50.1001 40.1 50.7001 40.5L55.0001 43C55.6001 43.3 55.8001 44.1 55.4001 44.7C55.2001 44.9 54.8001 45.2 54.3001 45.2Z" fill="#F6B426"/>
<path d="M58.0999 31H53.1999C52.4999 31 51.8999 30.4 51.8999 29.7C51.8999 29 52.4999 28.4 53.1999 28.4H58.0999C58.7999 28.4 59.3999 29 59.3999 29.7C59.3999 30.4 58.7999 31 58.0999 31Z" fill="#F6B426"/>
<path d="M50 19.2C49.3 19.2 48.7 18.6 48.7 17.9C48.7 17.5 48.9999 17.1 49.2999 16.8L53.6 14.3C54.2 14 54.9999 14.2 55.2999 14.7C55.5999 15.3 55.3999 16.1 54.8999 16.4L50.6 18.9C50.4 19.2 50.3 19.2 50 19.2Z" fill="#F6B426"/>
<path d="M41.5 10.7C40.8 10.7 40.2 10.1 40.2 9.40001C40.2 9.10001 40.1999 9.00001 40.2999 8.80001L42.7999 4.50001C43.0999 3.90001 43.9 3.70001 44.5 4.10001C45.1 4.40001 45.2999 5.20001 44.8999 5.80001L42.3999 10.1C42.2999 10.4 41.9 10.7 41.5 10.7Z" fill="#F6B426"/>
<path d="M30.5999 10C19.6999 9.40003 10.4999 17.8 9.8999 28.9C9.6999 35.2 12.2999 41.2 17.1999 45.1C17.9999 45.8 18.5999 46.8 18.5999 47.9V50.8C18.5999 52.3 19.5999 53.7 21.0999 54.3V55.7C21.0999 56.7 21.3999 57.5 22.0999 58.2C20.7999 59.6 20.7999 61.7 22.0999 63.1C20.6999 64.6 20.7999 66.9 22.3999 68.3C23.0999 68.9 23.8999 69.3 24.8999 69.3C25.5999 69.3 26.1999 68.7 26.1999 68.2C26.1999 67.9 26.0999 67.6 25.8999 67.5C25.8999 67.4 25.7999 67.4 25.7999 67.2C25.6999 67.1 25.4999 67.1 25.4999 66.9H25.3999C25.2999 66.9 25.0999 66.8 24.9999 66.8C24.2999 66.8 23.6999 66.2 23.6999 65.5C23.6999 64.8 24.2999 64.2 24.9999 64.2H29.8999C30.5999 64.2 31.1999 63.6 31.1999 62.9C31.1999 62.2 30.5999 61.6 29.8999 61.6H24.9999C24.2999 61.6 23.6999 61 23.6999 60.3C23.6999 59.6 24.2999 59 24.9999 59H29.8999C30.5999 59 31.1999 58.4 31.1999 57.7C31.1999 57 30.5999 56.4 29.8999 56.4H24.9999C24.2999 56.4 23.6999 55.8 23.6999 55.1V54.1H29.7999C30.4999 54.1 31.0999 53.5 31.0999 52.8C31.0999 52.1 30.4999 51.5 29.7999 51.5H22.3999C21.6999 51.5 21.0999 50.9 21.0999 50.2V47.3C21.0999 45.5 20.2999 43.7 18.6999 42.6C11.2999 36.6 10.2999 25.7 16.2999 18.3C19.7999 14.1 25.0999 11.7 30.4999 12C39.5999 12.6 46.7999 20 46.9999 29.2C46.9999 34.5 44.5999 39.4 40.5999 42.7C39.1999 43.8 38.3999 45.6 38.3999 47.4V50.2C38.3999 50.9 37.7999 51.5 37.0999 51.5H33.2999C32.5999 51.5 31.9999 52.1 31.9999 52.8C31.9999 53.5 32.5999 54.1 33.2999 54.1H35.7999V55.4C35.7999 56.1 35.1999 56.7 34.4999 56.7H33.1999C32.4999 56.7 31.8999 57.3 31.8999 58C31.8999 58.7 32.4999 59.3 33.1999 59.3H34.4999C35.1999 59.3 35.7999 59.9 35.7999 60.6C35.7999 61.3 35.1999 61.9 34.4999 61.9H33.1999C32.4999 61.9 31.8999 62.5 31.8999 63.2C31.8999 63.9 32.4999 64.5 33.1999 64.5H34.4999C35.1999 64.5 35.7999 65.1 35.7999 65.8C35.7999 66.5 35.1999 67.1 34.4999 67.1H28.3999C27.6999 67.1 27.0999 67.7 27.0999 68.4C27.0999 69.1 27.6999 69.7 28.3999 69.7H33.0999C32.3999 71.7 30.2999 72.6 28.3999 71.9C27.7999 71.8 27.2999 71.3 26.8999 70.9C26.4999 70.3 25.5999 70.3 25.1999 70.8C24.5999 71.2 24.5999 72.1 25.0999 72.5C27.2999 75 31.1999 75.3 33.7999 73.1C34.8999 72.1 35.5999 70.9 35.7999 69.5C37.7999 68.9 38.8999 66.8 38.1999 64.9C38.0999 64.3 37.7999 63.9 37.3999 63.5C38.6999 62.1 38.6999 60 37.3999 58.6C37.9999 57.9 38.3999 57.1 38.3999 56.1V54.1C39.8999 53.5 40.8999 52.1 40.8999 50.6V47.8C40.8999 46.7 41.2999 45.6 42.1999 44.9C46.8999 41.1 49.5999 35.4 49.5999 29.4C49.2999 19.2 41.0999 10.6 30.5999 10Z" fill="#0067B1"/>
</svg>
