<svg width="64" height="68" viewBox="0 0 64 68" fill="none" xmlns="http://www.w3.org/2000/svg">
<path d="M64.0001 64.7V13.7C64.0001 13.2 63.7001 12.9 63.2001 12.9H48.6001C48.1001 12.9 47.8001 13.2 47.8001 13.7V63.9C47.8001 64.4 47.5001 64.7 47.0001 64.7H42.1001C41.6001 64.7 41.3001 64.4 41.3001 63.9V26.7C41.3001 26.2 41.0001 25.9 40.5001 25.9H25.7001C25.2001 25.9 24.9001 26.2 24.9001 26.7V64C24.9001 64.5 24.6001 64.8 24.1001 64.8H19.2001C18.7001 64.8 18.4001 64.5 18.4001 64V42.9C18.4001 42.4 18.1001 42.1 17.6001 42.1H2.9001C2.4001 42.1 2.1001 42.4 2.1001 42.9V64.7V68H63.4001L64.0001 64.7ZM14.8001 64.7H6.7001C6.2001 64.7 5.9001 64.4 5.9001 63.9V46C5.9001 45.5 6.2001 45.2 6.7001 45.2H14.8001C15.3001 45.2 15.6001 45.5 15.6001 46V63.8C15.6001 64.4 15.1001 64.7 14.8001 64.7ZM37.4001 64.7H29.3001C28.8001 64.7 28.5001 64.4 28.5001 63.9V29.9C28.5001 29.4 28.8001 29.1 29.3001 29.1H37.4001C37.9001 29.1 38.2001 29.4 38.2001 29.9V63.9C38.2001 64.4 37.8001 64.7 37.4001 64.7ZM59.9001 64.7H51.8001C51.3001 64.7 51.0001 64.4 51.0001 63.9V17C51.0001 16.5 51.3001 16.2 51.8001 16.2H59.9001C60.4001 16.2 60.7001 16.5 60.7001 17V64C60.7001 64.4 60.4001 64.7 59.9001 64.7Z" fill="#0067B1"/>
<path d="M22.9 19.5H33.6C33.8 19.5 33.9 19.5 34.1 19.3L47.8 5.6V9.7H51.1V0.799999C51.1 0.299999 50.8 0 50.3 0H41.4V3.3H45.7L32.9 16C32.7 16.2 32.6 16.2 32.4 16.2H21.7C21.5 16.2 21.4 16.2 21.2 16.4L0 36L2.1 38.3L22.4 19.5C22.5 19.5 22.7 19.5 22.9 19.5Z" fill="#0E9B4F"/>
</svg>
