<svg width="201" height="201" viewBox="0 0 201 201" fill="none" xmlns="http://www.w3.org/2000/svg">
<path d="M99.7522 91.6162C105.302 91.6162 110.702 91.6162 116.352 91.6162C116.002 94.6162 115.752 97.4662 115.352 100.366C115.102 102.066 114.702 103.716 114.352 105.416C114.252 105.766 113.952 106.216 113.602 106.316C109.252 107.466 104.752 108.066 100.252 108.266C100.102 108.266 99.9521 108.216 99.7021 108.166C99.7521 102.616 99.7522 97.1662 99.7522 91.6162Z" fill="#025FAC"/>
<path d="M80.3018 91.6162C85.8518 91.6162 91.2518 91.6162 96.7518 91.6162C96.7518 97.1162 96.7518 102.566 96.7518 108.266C94.3518 108.066 92.0518 107.916 89.7518 107.616C87.5518 107.316 85.3518 106.816 83.2018 106.366C82.8518 106.266 82.3518 105.966 82.2518 105.666C81.0518 101.116 80.4518 96.4662 80.3018 91.6162Z" fill="#025FAC"/>
<path d="M99.9023 71.6665C104.002 72.2665 108.052 72.9665 112.102 73.4665C113.802 73.6665 114.452 74.4665 114.752 76.1165C115.502 80.2165 116.102 84.2665 116.202 88.6165C115.652 88.6165 115.152 88.6165 114.702 88.6165C110.052 88.6165 105.352 88.6665 100.702 88.6665C100.052 88.6665 99.6523 88.5665 99.6523 87.7665C99.7023 82.6665 99.6523 77.5665 99.6523 72.4165C99.7523 72.3165 99.8023 72.2165 99.9023 71.6665Z" fill="#025FAC"/>
<path d="M96.7531 71.9668C96.7531 77.5168 96.7531 82.9668 96.7531 88.5168C91.3031 88.5168 85.8531 88.5168 80.2031 88.5168C80.5031 85.7668 80.7031 83.0668 81.0531 80.4168C81.3031 78.5168 81.7531 76.6668 82.1531 74.8168C82.2031 74.4668 82.5031 74.0168 82.7531 73.9668C87.3531 72.7168 92.0031 72.1168 96.7531 71.9668Z" fill="#025FAC"/>
<path d="M113.402 109.666C112.302 112.516 111.102 115.266 110.152 118.116C109.502 120.116 108.252 121.166 106.202 121.466C104.102 121.766 102.002 122.216 99.702 122.616C99.702 120.366 99.702 118.466 99.702 116.566C99.702 115.066 99.652 113.516 99.752 112.016C99.752 111.666 100.202 111.116 100.502 111.116C104.652 110.566 108.802 110.066 112.952 109.566C113.002 109.516 113.102 109.566 113.402 109.666Z" fill="#025FAC"/>
<path d="M99.8027 68.8164C99.8027 65.2164 99.8027 61.5664 99.8027 57.5664C102.203 58.0164 104.503 58.5164 106.803 58.8664C108.453 59.1164 109.453 59.9664 110.003 61.5664C111.053 64.5664 112.303 67.5164 113.453 70.5164C108.803 69.9664 104.353 69.4164 99.8027 68.8164Z" fill="#025FAC"/>
<path d="M96.752 57.8164C96.752 61.5664 96.752 65.2164 96.752 68.8164C92.302 69.3664 87.852 69.9664 83.252 70.5164C83.752 69.0664 84.2519 67.5164 84.8019 66.0164C85.5519 64.0664 86.352 62.1664 87.202 60.2664C87.352 59.9664 87.552 59.5664 87.852 59.4664C90.702 58.5164 93.652 57.8664 96.752 57.8164Z" fill="#025FAC"/>
<path d="M96.7523 111.367C96.7523 114.967 96.7523 118.617 96.7523 122.367C93.7023 122.367 90.8023 121.717 87.9523 120.767C87.7023 120.667 87.4023 120.417 87.3023 120.117C85.9523 116.767 84.6523 113.367 83.3523 110.017C83.3023 109.917 83.3523 109.767 83.3523 109.667C87.8523 110.217 92.3023 110.817 96.7523 111.367Z" fill="#025FAC"/>
<path d="M119.403 91.6665C122.953 91.6665 126.553 91.6665 130.303 91.6665C130.203 94.7665 129.603 97.7165 128.653 100.567C128.553 100.817 128.303 101.017 128.103 101.117C124.653 102.567 121.203 103.967 117.703 105.467C118.253 100.667 118.853 96.2165 119.403 91.6665Z" fill="#025FAC"/>
<path d="M78.9033 105.466C75.4033 104.016 71.9533 102.616 68.5533 101.166C68.2533 101.016 67.9033 100.666 67.8533 100.316C67.2033 97.5163 66.6033 94.6663 65.9033 91.7163C69.9033 91.7163 73.5533 91.7163 77.1533 91.7163C77.7533 96.1663 78.3033 100.616 78.9033 105.466Z" fill="#025FAC"/>
<path d="M77.1529 88.5165C73.6029 88.5165 69.9529 88.5165 66.2529 88.5165C66.3029 85.4665 66.9529 82.5665 67.8529 79.7665C67.9529 79.5165 68.2029 79.1665 68.4529 79.0665C71.9029 77.6165 75.3529 76.1665 78.9029 74.6665C78.3029 79.5165 77.7529 84.0165 77.1529 88.5165Z" fill="#025FAC"/>
<path d="M130.553 88.5665C126.603 88.5665 122.953 88.5665 119.253 88.5665C119.053 86.2665 118.903 84.0165 118.603 81.7665C118.353 79.5665 117.903 77.3665 117.503 74.9165C119.503 75.6165 121.353 76.2665 123.203 76.9665C124.353 77.4165 125.453 78.0665 126.603 78.4165C128.103 78.8665 128.853 79.8165 129.153 81.3165C129.603 83.6665 130.053 86.0165 130.553 88.5665Z" fill="#025FAC"/>
<path d="M83.4025 61.4165C82.6025 63.6165 81.8525 65.6665 81.1025 67.7165C80.6525 69.0165 80.5025 70.6665 79.6525 71.5165C78.8025 72.3665 77.1525 72.4165 75.9025 72.8665C73.9525 73.5665 72.0525 74.2665 70.1025 75.0165C71.2025 71.5165 76.8525 64.7165 83.4025 61.4165Z" fill="#025FAC"/>
<path d="M113.203 61.5166C118.053 63.6166 124.403 69.9166 126.603 75.0166C126.303 74.9666 126.103 74.9166 125.903 74.8166C123.153 73.8166 120.353 72.8666 117.603 71.8166C117.203 71.6666 116.653 71.3166 116.503 70.9166C115.403 67.9166 114.353 64.8666 113.253 61.8166C113.203 61.7666 113.253 61.6666 113.203 61.5166Z" fill="#025FAC"/>
<path d="M70.0029 105.217C73.2029 106.317 76.3029 107.367 79.4029 108.417C79.7029 108.517 79.9529 108.867 80.0529 109.167C81.1529 112.267 82.1529 115.417 83.2029 118.467C80.2529 117.567 72.9529 111.667 70.0029 105.217Z" fill="#025FAC"/>
<path d="M113.152 118.667C113.702 117.267 114.252 115.967 114.702 114.617C115.302 112.967 115.802 111.317 116.302 109.617C116.502 108.917 116.852 108.517 117.602 108.267C120.602 107.317 123.552 106.267 126.452 105.267C125.552 108.967 118.102 116.517 113.152 118.667Z" fill="#025FAC"/>
<path d="M34.3519 114.317C36.3019 114.317 38.2519 114.317 40.2519 114.317C42.1519 114.317 44.0519 114.317 46.0019 114.317C48.5519 114.317 51.1019 114.317 53.6519 114.267C56.5519 114.217 59.0019 112.967 60.4519 110.817C61.9019 108.617 62.0519 105.817 60.9019 103.117L60.0519 101.117C59.1019 98.8668 58.1019 96.5168 57.1519 94.1668C56.9519 93.6168 56.8019 93.0168 56.8019 92.4668C56.8019 86.7668 56.8019 81.0668 56.8019 75.4168C56.8019 72.8168 56.8019 70.1668 56.8019 67.5668C56.8019 66.9668 56.8019 66.2668 56.7019 65.5168C56.2019 61.4668 53.1019 58.7668 49.0019 58.7168C45.9019 58.7168 42.8019 58.7168 39.7019 58.7168C33.5019 58.7168 27.1519 58.7668 20.8519 58.6168C18.2519 58.5668 15.9519 59.4168 14.3519 61.0168C12.8019 62.6168 11.9519 64.7668 12.0519 67.3668C12.2019 73.7668 12.1519 80.2668 12.1019 86.5668C12.1019 88.4668 12.1019 90.3668 12.0519 92.2668C12.0519 92.8668 11.9019 93.5168 11.7019 94.0668C11.1519 95.4668 10.5519 96.8668 9.95192 98.2168C9.30192 99.7668 8.65192 101.317 8.00192 102.867C7.65192 103.717 7.20192 105.017 7.15192 106.317C7.10192 108.367 7.80192 110.267 9.20192 111.667C10.7019 113.217 12.8519 114.067 15.2519 114.067C19.7519 114.067 24.3019 114.067 28.7019 114.067C30.6019 114.317 32.4519 114.317 34.3519 114.317ZM17.0019 77.1668C17.0019 73.7668 17.0019 70.3668 17.0019 66.9668C17.0019 64.6168 18.0019 63.6168 20.3519 63.6168C28.4519 63.6168 36.5019 63.6168 44.6019 63.6168H48.6519C50.6019 63.6168 51.8019 64.6668 51.8019 66.4168C51.8519 70.6668 51.8519 75.0168 51.8519 79.2168C51.8519 80.5668 51.8519 81.9668 51.8519 83.3168H17.0019V77.1668ZM51.8019 88.3168V91.3668H17.1019V88.3168H51.8019ZM38.4519 96.4168H44.4019C45.1519 96.4168 45.8519 96.4168 46.6019 96.4168C48.5019 96.4168 50.5019 96.4168 52.4519 96.4168C52.4519 96.4168 52.4519 96.4168 52.5019 96.4168C52.6519 96.4168 52.7019 96.4668 52.7019 96.4168C52.7019 96.4168 52.7519 96.4668 52.8519 96.6668C53.6019 98.4168 54.3519 100.217 55.1019 101.967C55.5519 102.967 55.9519 103.967 56.3519 104.967C56.9019 106.267 56.9019 107.417 56.4019 108.167C55.9019 108.917 54.8519 109.367 53.5019 109.367C49.0519 109.367 44.6019 109.367 40.1519 109.367H34.4519C32.6019 109.367 30.7519 109.367 28.9019 109.367C24.5519 109.317 20.0519 109.317 15.6019 109.467C14.3019 109.517 13.2019 109.017 12.6019 108.117C12.0519 107.217 12.0019 106.067 12.5519 105.017C13.7019 102.667 14.7019 100.217 15.6519 97.8168L16.0019 96.9168C16.1519 96.5168 16.2019 96.5168 16.6019 96.5168H16.6519C23.8519 96.4168 31.2519 96.4168 38.4519 96.4168Z" fill="#025FAC"/>
<path d="M105.603 138.267C100.603 138.217 95.6031 138.217 90.7531 138.267C85.8531 138.317 82.0031 142.217 81.9531 147.167C81.9531 148.817 81.9531 150.467 81.9531 152.117C81.9531 153.017 81.9531 153.867 81.9531 154.767C81.9531 157.717 81.9531 160.717 81.9531 163.667C81.9531 170.617 81.9531 177.867 81.9531 184.967C82.0031 189.967 85.8531 193.767 90.9531 193.767C93.3531 193.767 95.8031 193.767 98.2031 193.767C100.553 193.767 102.853 193.767 105.203 193.767C110.803 193.767 114.603 189.967 114.603 184.367C114.603 179.967 114.603 175.617 114.603 171.217V166.117C114.603 164.217 114.603 162.317 114.603 160.417C114.603 156.117 114.603 151.667 114.603 147.317C114.553 142.067 110.853 138.367 105.603 138.267ZM109.653 185.417C109.403 187.417 107.753 188.817 105.703 188.817C100.453 188.817 95.6531 188.817 91.0031 188.817C88.7031 188.817 87.1531 187.417 86.9531 185.167C86.8531 184.317 86.9031 183.467 86.9031 182.567C86.9031 182.467 86.9031 182.367 86.9031 182.267H109.653C109.653 182.417 109.653 182.517 109.653 182.667C109.703 183.667 109.753 184.567 109.653 185.417ZM106.303 143.817C105.303 145.417 104.403 146.917 103.453 148.367C103.403 148.417 103.303 148.417 103.303 148.417C100.153 148.467 96.9031 148.467 93.3031 148.417C93.2531 148.417 93.2031 148.417 93.2031 148.367C92.2031 146.817 91.2531 145.267 90.3031 143.717L90.1031 143.417C93.5031 142.917 103.003 142.917 106.553 143.367L106.303 143.817ZM92.3531 153.467H92.4031C96.4531 153.417 100.353 153.417 104.103 153.467C105.553 153.467 106.553 152.917 107.303 151.667C108.053 150.367 108.853 149.117 109.703 147.767C109.703 157.067 109.703 166.467 109.703 175.617V177.317H86.9531C86.6531 172.967 86.8031 155.167 87.1531 148.167C87.9031 149.367 88.6531 150.567 89.3531 151.767C90.0031 152.917 90.9531 153.467 92.3531 153.467Z" fill="#025FAC"/>
<path d="M193.202 63.0169C193.052 57.3169 191.152 51.9669 187.602 47.5669C185.102 44.4169 181.852 42.1669 178.702 40.0169C178.302 39.7669 177.952 39.4669 177.552 39.2169C175.852 38.0169 173.802 37.8169 171.902 38.6669C170.552 39.2669 169.552 39.9669 168.952 40.7669C166.752 43.5169 164.652 46.4169 162.652 49.1169C160.202 52.4669 160.802 56.4169 164.152 58.9169L164.952 59.5169C165.602 60.0169 166.252 60.5169 166.902 61.0169C170.052 63.5169 170.802 68.1169 168.602 71.4169C167.502 73.0669 166.552 74.4169 165.552 75.5669C163.352 78.1669 160.602 78.9669 157.602 77.9169C156.002 77.3669 154.452 76.2169 152.952 75.1169L152.502 74.7669C149.302 72.4169 145.202 72.8169 142.952 75.6169C140.652 78.5169 138.452 81.5169 136.352 84.5169C134.252 87.5169 134.902 91.5169 137.852 93.7669C138.552 94.3169 139.252 94.8169 139.952 95.3669C140.802 95.9669 141.602 96.6169 142.452 97.2669C145.752 99.8169 149.302 101.467 153.002 102.117C154.802 102.417 156.502 102.567 158.202 102.567C165.702 102.567 172.052 99.4169 177.052 93.1669C179.802 89.7169 182.452 86.1169 184.952 82.6669C186.002 81.2169 187.102 79.7669 188.152 78.2669C191.452 73.9669 193.102 68.9669 193.202 63.0169ZM170.602 57.7669C169.852 57.1169 169.102 56.5169 168.302 55.9169C167.952 55.6669 167.602 55.3669 167.252 55.1169C165.952 54.0669 165.802 53.2669 166.702 52.0169C168.402 49.6669 170.302 47.1169 172.802 43.8669C173.302 43.2169 174.202 42.7669 174.952 43.3169C175.502 43.7169 176.002 44.0669 176.552 44.4669C179.702 46.6669 182.652 48.7669 184.752 51.8669C189.702 59.2169 189.552 67.9669 184.352 75.2669C180.202 81.1169 176.402 86.1669 172.752 90.7169C169.352 94.9169 164.402 97.4669 159.102 97.7169C153.652 97.6669 149.552 96.3669 145.802 93.6169C144.302 92.5169 142.752 91.3169 141.252 90.1669C139.952 89.1669 139.802 88.3169 140.752 87.0169C142.502 84.6169 144.402 82.1169 146.552 79.2669C147.052 78.5669 147.552 78.2669 148.152 78.2669C148.602 78.2669 149.102 78.4669 149.702 78.8669C150.152 79.1669 150.552 79.4669 151.002 79.7669C152.502 80.8169 154.002 81.8669 155.752 82.5669C160.502 84.4669 166.002 82.9669 169.452 78.8169C170.752 77.2169 171.952 75.6669 172.952 74.1169C176.202 68.9169 175.252 61.8669 170.602 57.7669Z" fill="#025FAC"/>
<path d="M29.8026 49.6667C30.1026 49.8167 30.6026 50.0667 31.1526 50.0667C31.8526 50.0667 32.7026 49.7167 33.4026 48.5167C38.4026 40.3167 44.9526 33.2667 52.7526 27.5667C69.1026 15.6667 87.6026 10.8167 107.753 13.2667C120.803 14.8167 132.903 19.6667 143.753 27.6667C148.453 31.1667 152.853 35.2667 157.153 40.3167C157.903 41.1667 158.653 41.6167 159.453 41.6667C160.053 41.7167 160.653 41.4667 161.153 41.0167C161.653 40.5667 161.903 40.0167 161.903 39.4167C161.953 38.6167 161.553 37.8167 160.803 37.0167C160.253 36.4167 159.703 35.8167 159.153 35.2667C157.503 33.4667 155.803 31.5667 153.953 29.8667C138.853 15.7667 120.603 8.31673 99.7526 7.71673C94.4026 7.56673 88.8026 8.06673 82.5026 9.31673C69.3526 11.9167 57.4026 17.5167 47.1026 25.8667C40.0026 31.6167 34.0026 38.3667 29.3026 45.9167C28.7526 46.7667 28.5526 47.6167 28.7526 48.3167C28.8526 48.8667 29.2526 49.3667 29.8026 49.6667Z" fill="#025FAC"/>
<path d="M176.903 101.717C176.003 101.517 175.403 101.767 175.003 102.017C174.453 102.367 174.103 103.017 173.903 103.817C173.903 103.917 173.853 104.017 173.853 104.117C173.803 104.267 173.803 104.367 173.753 104.517C168.553 132.217 148.753 154.967 122.053 163.817C121.953 163.867 121.803 163.917 121.703 163.917C121.153 164.067 120.503 164.267 119.953 164.767C119.303 165.367 118.953 166.417 119.153 167.267C119.303 167.917 119.803 168.367 120.203 168.667C120.303 168.717 120.403 168.817 120.453 168.867L120.853 169.267L121.903 168.967C122.153 168.917 122.353 168.867 122.503 168.767C132.253 165.617 141.003 160.967 148.503 155.017C163.353 143.217 173.203 127.817 177.803 109.267C178.103 108.017 178.353 106.717 178.603 105.467L178.753 104.767C179.053 103.217 178.353 102.067 176.903 101.717Z" fill="#025FAC"/>
<path d="M73.5017 163.466C64.5517 160.416 56.4017 155.816 49.3517 149.866C40.1017 142.116 32.9517 132.616 28.1017 121.716C27.7517 120.966 26.7017 118.616 24.5017 119.516C23.8517 119.766 23.4517 120.216 23.2017 120.766C22.9017 121.516 23.0517 122.466 23.6017 123.716C32.4517 143.166 46.8017 157.366 66.2517 165.916C68.2017 166.766 70.2517 167.466 72.2017 168.166L72.3517 168.216C72.7017 168.316 73.0517 168.416 73.3517 168.416C73.9017 168.416 74.4517 168.266 74.9017 167.916C75.5017 167.466 75.8517 166.816 75.8517 166.066V166.016C75.7517 164.266 74.3517 163.766 73.5017 163.466Z" fill="#025FAC"/>
<path d="M24.4519 106.517C27.7519 106.517 31.1019 106.517 34.4019 106.517C37.7019 106.517 41.0519 106.517 44.3519 106.517C45.3519 106.517 46.1019 106.267 46.6019 105.767C46.9019 105.467 47.2519 104.917 47.2519 104.067C47.2519 103.167 46.8519 101.667 44.3019 101.667C41.9519 101.667 39.6019 101.667 37.3019 101.667H35.5019H31.6519C29.2519 101.667 26.8519 101.667 24.4019 101.667C23.4019 101.667 22.6519 101.917 22.1019 102.467C21.8019 102.767 21.4519 103.317 21.5019 104.167C21.5519 104.667 21.8019 106.517 24.4519 106.517Z" fill="#025FAC"/>
</svg>
