<svg width="201" height="201" viewBox="0 0 201 201" fill="none" xmlns="http://www.w3.org/2000/svg">
<path d="M154.797 157.573C151.447 157.923 148.397 158.223 145.347 158.473C141.147 158.873 137.947 156.073 137.697 151.873C137.697 151.473 137.697 151.073 137.697 150.673C137.697 130.423 137.697 110.123 137.697 89.8729C137.697 84.7229 140.697 81.8729 145.797 82.2729C149.047 82.5229 152.297 82.9729 155.647 83.3729C155.647 83.3229 155.747 83.0729 155.747 82.8229C155.747 78.3729 155.847 73.9229 155.697 69.4729C155.297 56.9729 150.297 46.5229 141.297 38.0229C131.847 29.0729 120.447 24.3229 107.597 22.9229C93.5472 21.4229 80.3972 24.1729 68.4972 31.8229C57.0972 39.0729 49.3972 49.1229 46.7472 62.6229C46.2472 65.1729 46.0972 67.8229 46.0472 70.4729C45.9472 74.5229 45.9972 78.5729 45.9972 82.6229C45.9972 82.9229 46.0472 83.1729 46.0472 83.5229C48.0972 83.1729 50.0472 82.8229 52.0472 82.5729C53.7472 82.3729 55.4972 82.2229 57.2472 82.2729C60.8472 82.3729 63.3472 84.8229 63.7472 88.4229C63.7972 88.7229 63.7972 89.0729 63.7972 89.3729C63.7972 110.073 63.7972 130.723 63.7972 151.423C63.7972 155.573 61.0472 158.623 57.0472 158.573C54.0472 158.523 50.9972 158.173 47.9972 157.623C41.9472 156.473 36.3972 154.023 31.4472 150.423C23.1472 144.373 17.6972 136.423 16.0472 126.223C14.0972 114.373 17.5972 104.073 25.7972 95.3729C27.5972 93.4729 29.6972 91.8729 31.7472 90.2229C32.3972 89.7229 32.6472 89.2729 32.6472 88.4229C32.6472 81.9729 32.5972 75.4729 32.7472 69.0229C32.9972 56.3729 37.2972 45.1229 45.0972 35.2229C54.7472 22.9229 67.3472 15.0729 82.3972 11.3729C102.147 6.47292 120.997 8.97292 138.547 19.3229C151.447 26.9229 160.747 37.7729 165.897 51.9729C168.097 58.0729 169.097 64.4229 169.047 70.8729C168.997 76.8229 169.047 82.7729 169.047 88.7229C169.047 89.4229 169.247 89.8729 169.847 90.3229C178.947 96.8729 184.497 105.623 185.847 116.823C186.797 124.823 184.947 132.323 180.697 139.223C177.797 143.973 173.997 147.973 169.347 151.023C168.597 151.523 168.547 152.123 168.547 152.873C168.697 158.923 167.147 164.473 163.547 169.373C158.197 176.723 150.797 180.173 141.747 180.273C136.897 180.323 132.047 180.323 127.197 180.273C126.347 180.273 125.947 180.473 125.597 181.323C122.447 188.473 117.047 192.473 109.197 192.723C104.397 192.873 99.5472 192.823 94.7472 192.723C87.0472 192.573 80.0472 186.923 78.0472 179.473C75.3972 169.523 80.2972 160.023 89.8472 156.673C91.4472 156.123 93.1472 155.823 94.8472 155.773C99.6472 155.673 104.497 155.573 109.297 155.773C116.397 156.073 121.647 159.423 124.947 165.723C125.447 166.723 125.997 167.023 127.047 166.973C131.997 166.923 136.897 166.973 141.847 166.923C146.197 166.873 149.897 165.323 152.547 161.723C153.397 160.473 153.997 159.023 154.797 157.573ZM50.3972 144.523C50.3972 128.323 50.3972 112.223 50.3972 96.1229C50.2972 96.0729 50.1972 96.0729 50.1472 96.0729C49.9972 96.0729 49.8472 96.1229 49.6472 96.1729C43.1472 97.4729 37.8472 100.823 33.8972 106.123C30.4972 110.723 28.3972 115.873 28.9472 121.623C29.8472 130.723 34.5972 137.523 42.6472 141.973C45.0472 143.273 47.6472 144.023 50.3972 144.523ZM151.047 144.523C157.397 143.373 162.547 140.473 166.597 135.623C170.697 130.673 173.147 125.023 172.447 118.523C171.697 111.223 168.147 105.323 162.297 100.823C158.947 98.2729 155.197 96.7229 151.047 96.0229C151.047 112.223 151.047 128.323 151.047 144.523ZM102.147 179.473C104.247 179.473 106.347 179.523 108.447 179.473C112.747 179.323 114.547 175.623 113.047 171.723C112.297 169.723 110.497 168.973 108.447 168.973C104.297 168.973 100.097 168.973 95.9472 168.973C95.2972 168.973 94.6472 169.073 94.0472 169.273C91.5972 170.123 90.3972 172.373 90.7972 175.073C91.1972 177.573 93.0972 179.323 95.6972 179.423C97.8472 179.523 99.9972 179.473 102.147 179.473Z" fill="#025FAC"/>
</svg>
