<svg width="201" height="201" viewBox="0 0 201 201" fill="none" xmlns="http://www.w3.org/2000/svg">
<path d="M30.3472 61.0367C20.2972 49.2867 24.0972 36.6367 30.8972 30.3867C39.6972 22.2367 52.3472 22.3367 60.7472 30.6367C68.6472 38.4867 69.8472 51.2867 60.8472 61.1867C61.9972 61.1867 62.7972 61.1867 63.5972 61.1867C68.9472 61.0367 73.3972 62.9367 77.0972 66.7367C81.8972 71.6367 86.7472 76.4867 91.6472 81.2367C92.4472 81.9867 93.7472 82.5367 94.8472 82.5367C100.747 82.6867 106.647 82.5367 112.547 82.6367C114.147 82.6367 115.247 82.2367 116.347 81.0867C124.047 73.2867 131.797 65.5867 139.497 57.8367C140.047 57.2867 140.547 56.6367 141.297 55.8367C142.697 57.4867 143.897 58.9867 145.297 60.6867C145.147 60.8367 144.647 61.3867 144.097 61.9367C136.197 69.8367 128.297 77.6867 120.497 85.6367C119.747 86.3867 119.247 87.7367 119.197 88.8367C119.047 92.6367 119.147 96.4367 119.147 100.237C119.147 102.887 118.047 104.037 115.447 104.037C104.647 104.087 93.8472 104.137 83.0972 103.937C81.6972 103.937 80.0972 102.887 79.0472 101.837C75.1472 98.1367 71.3972 94.2367 67.2972 90.1367C67.2472 91.1367 67.1472 91.7367 67.1472 92.3867C67.1472 100.837 66.7972 109.337 67.2472 117.787C67.5472 123.637 68.9472 129.437 69.9472 135.237C73.0472 152.987 76.1472 170.687 79.2472 188.437C79.7472 191.237 78.4472 192.887 75.6472 192.887C69.9472 192.937 64.2972 192.887 58.5972 192.887C56.4472 192.887 55.2472 191.937 54.8472 189.787C52.9972 180.087 51.0472 170.387 48.7472 160.737C48.7472 161.537 48.7472 162.337 48.7472 163.137C48.7472 171.687 48.7472 180.187 48.7472 188.737C48.7472 191.937 47.7972 192.887 44.5472 192.887C39.2972 192.887 34.0472 192.887 28.7972 192.887C25.0972 192.887 24.2472 192.087 24.2472 188.437C24.2472 168.437 24.2472 148.437 24.2472 128.487C24.2472 127.637 24.2472 126.737 24.2472 125.537C21.5472 125.537 18.8472 125.537 16.1972 125.537C15.0972 125.537 13.9972 125.537 12.8972 125.537C9.94724 125.487 8.94724 124.537 8.89724 121.587C8.89724 114.637 8.89724 107.737 8.89724 100.787C8.89724 95.4367 9.09724 90.1367 8.84724 84.8367C8.24724 72.0367 17.0472 61.7867 30.3472 61.0367ZM72.5472 186.687C72.5472 186.387 72.5472 186.187 72.4972 185.937C69.7472 170.187 66.9972 154.387 64.2972 138.637C63.1972 132.337 61.3972 126.037 61.1472 119.687C60.6472 107.437 60.9472 95.1867 61.0472 82.9367C61.0472 81.8867 61.8472 80.5367 62.6972 79.9367C64.2972 78.8867 65.6972 79.8867 66.8972 81.0867C72.0472 86.2367 77.1472 91.4367 82.3972 96.5367C83.1972 97.2867 84.4972 97.8367 85.5972 97.8367C90.7472 97.9867 95.9472 97.9367 101.097 97.9367C104.997 97.9367 108.897 97.9367 112.797 97.9367C112.797 94.6867 112.797 91.7367 112.797 88.6867C106.147 88.6867 99.6972 88.6367 93.1972 88.7367C91.0472 88.7867 89.4972 88.0367 87.9972 86.5367C82.7972 81.2367 77.4472 76.0367 72.2972 70.6867C69.8972 68.2367 67.0972 67.1867 63.6972 67.1867C52.9972 67.2367 42.2472 67.1867 31.5472 67.2367C21.4472 67.2367 14.9972 73.6867 14.9472 83.7367C14.9472 90.2367 14.9472 96.7367 14.9472 103.187C14.9472 108.487 14.9472 113.787 14.9472 119.137C18.1472 119.137 21.0972 119.137 24.2472 119.137C24.2472 106.837 24.2472 94.7367 24.2472 82.6367C26.3472 82.6367 28.1972 82.6367 30.2972 82.6367C30.2972 117.337 30.2972 151.937 30.2972 186.537C34.4972 186.537 38.4472 186.537 42.4972 186.537C42.4972 185.787 42.4972 185.237 42.4972 184.637C42.4972 166.237 42.4972 147.887 42.4972 129.487C42.4972 126.937 43.4972 125.587 45.2472 125.437C47.0472 125.287 48.1972 126.437 48.6972 128.887C51.7472 143.937 54.7972 159.037 57.7972 174.087C58.6472 178.287 59.4972 182.437 60.3472 186.587C64.6472 186.687 68.5972 186.687 72.5472 186.687ZM60.9472 46.1367C61.1472 37.8867 54.1972 30.6867 45.8972 30.5367C37.6472 30.3867 30.5472 37.2867 30.3972 45.6867C30.2472 53.9867 37.0972 60.9867 45.5972 61.1867C53.6472 61.3367 60.7472 54.3867 60.9472 46.1367Z" fill="#025FAC"/>
<path d="M128.297 147.736C130.597 139.836 135.197 135.186 142.997 134.886C151.347 134.536 156.297 139.336 158.997 147.486C160.947 140.986 164.597 136.686 170.897 135.186C174.897 134.236 178.747 134.836 182.247 136.986C190.647 142.086 191.697 151.336 184.947 161.336C191.347 165.186 193.097 171.136 192.747 178.186C192.597 181.736 192.747 185.336 192.697 188.886C192.697 191.836 191.547 192.986 188.547 192.986C159.697 192.986 130.797 192.986 101.947 192.986C100.647 192.986 99.2968 193.036 97.9968 192.986C95.8968 192.886 94.6968 191.736 94.6968 189.736C94.6468 184.286 94.4968 178.786 94.7468 173.336C94.9468 168.986 97.0468 165.436 100.497 162.736C101.097 162.236 101.747 161.786 102.447 161.286C97.4468 155.536 95.8468 149.286 99.7968 142.536C103.047 136.936 108.197 134.336 114.697 135.036C122.047 135.736 126.197 140.336 128.297 147.736ZM100.847 186.836C108.747 186.836 116.347 186.836 123.997 186.786C124.397 186.786 125.147 185.936 125.197 185.486C125.297 181.636 125.397 177.736 125.147 173.886C124.847 169.086 121.247 165.586 116.547 165.336C114.247 165.186 111.897 165.186 109.547 165.336C105.097 165.586 101.147 168.986 100.947 173.186C100.647 177.586 100.847 182.036 100.847 186.836ZM143.697 186.836C147.197 186.836 150.697 186.786 154.197 186.836C155.447 186.836 156.047 186.486 155.997 185.086C155.897 181.536 156.047 177.936 155.947 174.386C155.847 170.136 153.197 166.436 148.997 165.736C145.547 165.186 141.897 165.136 138.447 165.686C134.147 166.386 131.647 169.936 131.547 174.286C131.497 177.836 131.597 181.436 131.497 184.986C131.447 186.336 131.947 186.786 133.247 186.786C136.697 186.786 140.197 186.836 143.697 186.836ZM174.297 186.836C177.797 186.836 181.297 186.836 184.797 186.886C185.897 186.886 186.647 186.736 186.597 185.386C186.547 181.736 186.747 178.086 186.497 174.486C186.147 168.886 182.347 165.436 176.797 165.336C175.147 165.286 173.447 165.286 171.797 165.336C166.047 165.436 162.197 169.186 162.047 174.886C161.947 178.236 162.097 181.586 161.997 184.936C161.947 186.536 162.597 186.936 164.047 186.886C167.447 186.786 170.897 186.836 174.297 186.836ZM112.997 159.186C118.097 159.186 122.147 155.136 122.147 150.036C122.147 144.886 118.097 140.836 113.047 140.836C107.997 140.836 103.847 144.936 103.847 149.986C103.897 155.086 107.947 159.186 112.997 159.186ZM143.497 159.186C148.547 159.236 152.797 155.136 152.847 150.186C152.897 145.136 148.797 140.886 143.847 140.836C138.647 140.786 134.597 144.736 134.547 149.836C134.497 155.036 138.447 159.136 143.497 159.186ZM174.247 159.186C179.197 159.186 183.397 155.136 183.447 150.236C183.547 145.086 179.397 140.836 174.247 140.836C169.197 140.836 164.997 144.986 165.047 149.986C165.097 155.036 169.247 159.186 174.247 159.186ZM158.997 165.136C160.597 163.736 162.097 162.436 163.347 161.386C161.797 158.536 160.347 155.886 158.997 153.386C157.647 155.836 156.097 158.586 154.547 161.336C155.897 162.486 157.397 163.786 158.997 165.136ZM128.347 153.286C126.997 155.786 125.447 158.586 123.947 161.336C125.347 162.536 126.847 163.836 128.347 165.086C129.947 163.686 131.447 162.436 132.697 161.336C131.147 158.536 129.647 155.736 128.347 153.286Z" fill="#025FAC"/>
<path d="M125.447 103.887C125.447 101.987 125.447 100.137 125.447 98.0365C127.297 98.0365 129.247 98.0365 131.397 98.0365C131.397 93.8365 131.397 89.8865 131.397 85.7865C133.497 85.7865 135.347 85.7865 137.497 85.7865C137.497 89.7365 137.497 93.6865 137.497 97.7865C139.647 97.7865 141.547 97.7865 143.647 97.7865C143.647 89.7365 143.647 81.7365 143.647 73.5865C145.747 73.5865 147.647 73.5865 149.797 73.5865C149.797 81.6365 149.797 89.6865 149.797 97.8365C151.897 97.8365 153.797 97.8365 155.897 97.8365C155.897 93.8865 155.897 89.9365 155.897 85.8365C157.997 85.8365 159.897 85.8365 161.997 85.8365C161.997 89.7365 161.997 93.7365 161.997 97.8365C164.097 97.8365 165.947 97.8365 168.097 97.8365C168.097 86.7865 168.097 75.6865 168.097 64.4365C170.247 64.4365 172.147 64.4365 174.247 64.4365C174.247 75.5365 174.247 86.5865 174.247 97.8365C176.297 97.8365 178.247 97.8365 180.397 97.8365C180.397 91.8865 180.397 85.8865 180.397 79.7365C182.497 79.7365 184.347 79.7365 186.497 79.7365C186.497 85.6865 186.497 91.7365 186.497 97.9365C188.647 97.9365 190.597 97.9365 192.597 97.9365C192.597 100.037 192.597 101.887 192.597 103.937C170.247 103.887 147.897 103.887 125.447 103.887Z" fill="#025FAC"/>
<path d="M99.6973 51.9863C92.1973 51.9863 84.6973 51.9863 77.1473 51.9863C75.5973 51.9863 74.2473 51.7363 73.4973 50.1363C72.7473 48.4363 73.5973 47.1863 74.7473 46.0863C76.8473 43.9863 79.0473 41.9363 81.0473 39.6863C81.7973 38.8863 82.2973 37.5863 82.3473 36.4863C82.4973 32.4863 82.3973 28.4863 82.3973 24.4363C82.4473 16.0863 88.7973 9.28633 97.1973 9.13633C105.747 8.93633 114.247 8.93633 122.797 9.13633C130.447 9.28633 136.547 14.8863 137.347 22.8363C137.847 28.0363 137.847 33.3863 137.347 38.5863C136.547 46.3863 130.097 51.8363 122.247 51.9363C114.697 52.0363 107.197 51.9863 99.6973 51.9863ZM83.5973 45.4363C84.3973 45.7363 84.4973 45.8363 84.6473 45.8363C97.3473 45.8363 109.997 45.9363 122.697 45.8363C127.297 45.7863 131.247 41.8863 131.397 37.3363C131.547 32.8863 131.547 28.4363 131.397 23.9863C131.197 19.1363 127.247 15.2863 122.447 15.2363C114.147 15.1863 105.847 15.1863 97.5473 15.2363C92.5473 15.2863 88.6473 19.3363 88.5973 24.3863C88.5473 27.5363 88.4473 30.6363 88.5973 33.7863C88.7973 38.3363 88.7973 42.7863 83.5973 45.4363Z" fill="#025FAC"/>
<path d="M149.847 27.3366C149.847 25.3366 149.847 23.4866 149.847 21.5366C164.097 21.5366 178.247 21.5366 192.547 21.5366C192.547 23.4366 192.547 25.3366 192.547 27.3366C178.397 27.3366 164.247 27.3366 149.847 27.3366Z" fill="#025FAC"/>
<path d="M149.897 39.5868C149.897 37.5368 149.897 35.6868 149.897 33.7368C164.097 33.7368 178.197 33.7368 192.497 33.7368C192.497 35.6368 192.497 37.5368 192.497 39.5868C178.397 39.5868 164.247 39.5868 149.897 39.5868Z" fill="#025FAC"/>
<path d="M149.897 116.186C149.897 114.136 149.897 112.286 149.897 110.336C164.097 110.336 178.197 110.336 192.497 110.336C192.497 112.236 192.497 114.136 192.497 116.186C178.397 116.186 164.197 116.186 149.897 116.186Z" fill="#025FAC"/>
<path d="M192.596 45.9863C192.596 47.9863 192.596 49.8363 192.596 51.8363C187.546 51.8363 182.546 51.8363 177.496 51.8363C177.496 49.8863 177.496 48.0363 177.496 45.9863C182.446 45.9863 187.396 45.9863 192.596 45.9863Z" fill="#025FAC"/>
<path d="M162.197 122.536C164.197 122.536 166.047 122.536 168.047 122.536C168.047 124.486 168.047 126.336 168.047 128.386C166.197 128.386 164.297 128.386 162.197 128.386C162.197 126.536 162.197 124.636 162.197 122.536Z" fill="#025FAC"/>
<path d="M180.247 128.486C178.297 128.486 176.447 128.486 174.447 128.486C174.447 126.536 174.447 124.586 174.447 122.586C176.347 122.586 178.197 122.586 180.247 122.586C180.247 124.436 180.247 126.336 180.247 128.486Z" fill="#025FAC"/>
<path d="M192.547 128.486C190.547 128.486 188.697 128.486 186.697 128.486C186.697 126.536 186.697 124.636 186.697 122.586C188.597 122.586 190.497 122.586 192.547 122.586C192.547 124.486 192.547 126.386 192.547 128.486Z" fill="#025FAC"/>
<path d="M51.6973 73.5866C51.6973 75.5366 51.6973 77.4366 51.6973 79.4366C50.7473 79.4866 49.7973 79.5366 48.7973 79.5866C48.7973 88.7366 48.7973 97.7366 48.7973 106.887C46.7473 106.887 44.8473 106.887 42.6973 106.887C42.6973 97.8866 42.6973 88.8366 42.6973 79.6366C41.5973 79.5366 40.6973 79.4866 39.6973 79.3866C39.6973 77.4366 39.6973 75.5866 39.6973 73.5366C43.5473 73.5866 47.5473 73.5866 51.6973 73.5866Z" fill="#025FAC"/>
<path d="M94.7471 27.3365C94.7471 25.2865 94.7471 23.4365 94.7471 21.4365C104.847 21.4365 114.847 21.4365 125.097 21.4365C125.097 23.3365 125.097 25.2365 125.097 27.3365C115.097 27.3365 104.997 27.3365 94.7471 27.3365Z" fill="#025FAC"/>
<path d="M94.7969 33.6865C104.897 33.6865 114.947 33.6865 125.147 33.6865C125.147 35.5865 125.147 37.4865 125.147 39.5865C115.097 39.5865 105.047 39.5865 94.7969 39.5865C94.7969 37.6365 94.7969 35.7365 94.7969 33.6865Z" fill="#025FAC"/>
</svg>
