<svg width="201" height="201" viewBox="0 0 201 201" fill="none" xmlns="http://www.w3.org/2000/svg">
<path d="M151.347 138.633C152.897 155.083 148.347 169.333 136.747 181.033C126.647 191.183 114.197 196.183 99.8974 195.983C69.7974 195.483 46.5474 169.433 50.0974 138.733C47.8974 138.633 45.6974 138.583 43.4974 138.433C33.9474 137.833 25.6474 134.183 18.5974 127.783C10.9474 120.783 6.39744 112.033 5.34744 101.733C4.09744 89.3332 7.64744 78.3832 16.0974 69.1332C21.4474 63.2832 27.9474 59.3832 35.5474 57.2832C36.7474 56.9832 37.0974 56.4832 36.9974 55.1832C36.3974 45.7332 38.5974 36.8832 43.2974 28.6832C49.6474 17.6332 59.0474 10.2832 71.2474 6.63316C80.7474 3.78316 90.2974 3.93316 99.7474 7.08316C110.547 10.6832 118.897 17.3832 125.097 26.8832C125.547 27.5832 125.947 27.7332 126.797 27.5832C140.197 25.2832 152.697 30.8332 159.897 42.4332C162.297 46.3332 163.847 50.6332 164.197 55.2832C164.297 56.4332 164.747 56.9332 165.847 57.2332C179.547 61.2332 189.097 69.8832 193.897 83.2832C198.497 96.0332 196.947 108.433 189.547 119.883C183.097 129.783 173.847 135.683 162.347 137.933C159.647 138.483 156.797 138.433 154.047 138.633C153.097 138.683 152.197 138.633 151.347 138.633ZM154.447 132.183C154.447 132.283 154.447 132.383 154.497 132.483C157.147 132.133 159.897 131.983 162.497 131.383C172.897 128.983 180.747 123.033 185.847 113.683C189.597 106.783 190.747 99.3332 189.497 91.5832C188.097 83.1332 184.097 76.1332 177.597 70.5332C172.847 66.4332 167.297 63.9332 161.097 62.6832C158.947 62.2832 158.247 61.2332 158.097 59.0832C158.047 58.0832 157.947 57.0332 157.847 56.0332C156.847 45.6832 148.847 36.5832 138.697 34.1832C134.397 33.1832 130.097 33.1332 125.847 34.2832C123.247 34.9832 122.297 34.5332 120.897 32.2332C119.797 30.4832 118.847 28.6832 117.547 27.1332C106.297 13.6332 91.9974 8.38316 74.7974 12.2832C56.8974 16.3332 43.6974 32.8832 43.3474 51.1832C43.2974 53.5832 43.5474 55.9332 43.7474 58.3332C43.9974 60.8332 43.1474 62.1332 40.6974 62.6332C40.0474 62.7832 39.3974 62.8332 38.7474 62.9832C19.4974 67.4332 7.94744 86.4832 12.3474 105.033C14.9974 116.183 21.7474 124.183 32.0974 129.083C37.6474 131.733 43.5974 132.383 49.6974 132.233C50.9474 132.183 51.4974 131.883 51.8474 130.633C55.4974 118.633 62.4474 109.033 73.0474 102.183C85.4974 94.1832 98.9974 91.8332 113.247 95.5832C130.697 100.133 142.547 111.283 148.847 128.183C149.347 129.483 149.447 131.333 150.347 131.983C151.247 132.683 153.047 132.183 154.447 132.183ZM145.347 144.933C145.097 119.933 125.197 100.433 100.897 100.383C75.4474 100.333 56.0974 120.733 56.0474 145.033C56.0474 169.683 76.1474 189.733 100.847 189.633C125.597 189.483 145.197 169.583 145.347 144.933Z" fill="#025FAC"/>
<path d="M84.6481 20.7334C84.6481 22.8334 84.6481 24.8834 84.6481 26.8834C69.6481 27.2334 59.2481 39.4834 59.1481 52.4334C57.0981 52.4334 55.0481 52.4334 52.9981 52.4334C52.3981 36.5334 66.3481 20.4834 84.6481 20.7334Z" fill="#025FAC"/>
<path d="M154.947 122.583C154.947 120.483 154.947 118.433 154.947 116.333C160.197 116.133 164.747 114.383 168.447 110.683C172.097 107.033 173.947 102.483 174.097 97.2334C176.197 97.2334 178.247 97.2334 180.297 97.2334C180.797 109.883 169.597 122.733 154.947 122.583Z" fill="#025FAC"/>
<path d="M103.247 173.633C85.1471 173.833 71.9971 161.083 71.9971 145.133C71.9971 136.433 75.3471 129.133 81.8471 123.333C83.4971 121.883 85.2471 121.883 86.7971 123.433C90.4971 127.083 94.1471 130.733 97.7971 134.433C99.4471 136.083 99.3971 137.883 97.7971 139.583C96.2471 141.183 94.7471 142.783 93.0971 144.283C90.6971 146.383 91.2471 148.183 92.5471 149.983C93.5971 151.433 95.1471 152.633 96.6471 153.583C98.3471 154.633 99.6471 154.233 101.047 152.833C102.597 151.233 104.147 149.683 105.697 148.133C107.697 146.133 109.397 146.133 111.397 148.133C114.847 151.583 118.297 155.033 121.747 158.483C123.747 160.483 123.797 162.133 121.897 164.233C116.347 170.233 109.447 173.383 103.247 173.633ZM105.247 166.833C103.047 164.633 101.097 162.683 99.1471 160.733C98.9471 160.533 98.4971 160.533 98.1471 160.483C92.3471 160.033 86.3471 154.883 85.4971 149.133C85.1471 146.983 84.1971 145.583 82.7971 144.283C82.2471 143.783 81.7471 143.233 81.1971 142.683C80.4971 141.983 79.7971 141.333 78.8971 140.433C77.5471 149.183 79.8971 156.383 86.3971 161.933C91.6471 166.583 97.9471 168.083 105.247 166.833ZM84.1471 130.083C83.9971 130.283 83.7471 130.533 83.5471 130.783C81.1471 133.683 81.1471 133.683 83.7471 136.283C83.8471 136.383 83.9971 136.533 84.0971 136.633C85.3471 137.883 86.6471 139.183 87.6971 140.233C88.9971 139.083 90.1471 138.033 91.2471 137.033C88.8971 134.683 86.5471 132.433 84.1471 130.083ZM105.347 157.783C107.547 159.933 109.697 162.033 111.997 164.283C113.197 163.383 114.497 162.433 115.597 161.583C113.147 159.133 110.847 156.783 108.547 154.483C107.497 155.533 106.497 156.583 105.347 157.783Z" fill="#025FAC"/>
<path d="M103.947 125.733C103.947 123.683 103.947 121.633 103.947 119.633C116.047 119.233 126.547 130.033 126.097 141.733C124.097 141.733 122.047 141.733 119.997 141.733C118.947 132.133 113.697 126.783 103.947 125.733Z" fill="#025FAC"/>
<path d="M113.347 141.734C111.197 141.734 109.197 141.734 107.097 141.734C106.847 139.834 105.697 138.834 103.897 138.534C103.897 136.434 103.897 134.384 103.897 132.284C109.197 132.334 113.297 136.434 113.347 141.734Z" fill="#025FAC"/>
</svg>
