<svg width="200" height="201" viewBox="0 0 200 201" fill="none" xmlns="http://www.w3.org/2000/svg">
<path d="M129.7 184.2C133.95 184.8 138.2 185.35 142.4 185.95C142.8 186 143.1 186.4 143.65 186.8C141.7 188.5 139.45 188.75 137.25 189.1C124.3 191.05 111.25 191.45 98.2005 190.95C94.6005 190.8 91.0505 189.8 87.4505 189.3C83.8505 188.8 80.1505 188.6 76.5505 188C43.5505 182.45 15.3005 156.95 8.60047 124C3.05047 96.3 9.70047 71.45 27.5005 49.65C41.2005 32.95 59.2005 23.7 80.5005 20.75C84.1505 20.25 87.9005 20.3 91.6505 20.25C92.7005 20.25 93.3505 19.95 93.9505 19.1C95.1005 17.45 96.3005 15.85 97.5505 14.25C98.7505 12.7 99.7005 12.8 101.2 13.85C103.1 15.2 103.7 16.8 103.2 19C103.05 19.65 103.2 20.35 103.2 21C106.7 21.9 110.1 22.85 113.5 23.65C114.15 23.8 115 23.65 115.7 23.4C130.2 18.5 144.35 19.2 158.15 25.8C168.2 30.6 175.95 38.1 181.95 47.35C190.35 60.3 194.25 74.5 193.1 89.9C191.9 105.8 185.7 119.6 174.8 131.25C173.85 132.25 173.1 133.55 172.6 134.9C165.2 156.25 151.4 172.15 131.65 182.95C131.05 183.3 130.45 183.6 129.85 183.95C129.75 184.1 129.7 184.2 129.7 184.2ZM40.8505 152.1C53.3505 164.85 68.2505 171.95 86.0505 173.45C86.0505 172.2 86.0505 171 86.0505 169.8C86.0505 167.95 86.9005 166.7 88.2005 166.85C90.0005 167 90.3505 168.3 90.3005 169.85C90.2505 171.05 90.3005 172.2 90.3005 173.35C105.1 175.45 133.25 163.3 140.8 151.45C139.8 150.55 138.65 149.65 137.6 148.65C136.55 147.7 136.4 146.55 137.4 145.5C138.45 144.4 139.55 144.6 140.55 145.65C141.55 146.7 142.45 147.8 143.5 149.05C153.7 136.55 158.95 122.7 159.5 106.9C157.55 106.9 155.85 106.9 154.15 106.9C153.65 106.9 153.15 106.95 152.65 106.9C151.4 106.7 150.7 106 150.75 104.7C150.85 103.4 151.65 102.65 153 102.65C155.1 102.6 157.2 102.65 159.5 102.65C158.7 84.95 152.5 69.95 140.35 57.05C139.05 58.4 137.9 59.65 136.7 60.85C135.7 61.85 134.5 62.35 133.4 61.2C132.3 60.1 132.65 58.9 133.75 57.9C135 56.75 136.3 55.65 137.95 54.2C136.4 53.35 135.2 52.15 134.45 52.4C129.35 54.15 124.3 56.2 118.8 58.35C121.2 60.15 122.95 61.6 124.85 62.8C127.8 64.6 128.75 67.25 128.7 70.5C128.7 72.1 127.95 73.05 126.3 72.95C119.8 72.65 113.35 72.45 106.85 71.95C102.95 71.65 99.0505 70.9 95.1005 70.35C95.0005 70.85 94.9505 71.15 94.9505 71.45C94.6005 80.35 94.2505 89.25 94.0005 98.1C94.0005 98.7 94.5005 99.45 95.0005 99.9C97.3005 102.05 98.0505 105 96.7005 107.8C96.2005 108.85 96.5505 109.35 97.2505 110C100.25 112.8 103.2 115.65 106.15 118.5C108.6 120.8 111 123.15 113.65 125.65C113.25 123.2 113.7 122.05 115.15 121.85C116.9 121.65 117.55 122.9 118 124.3C119.4 128.7 116.2 133.45 111.6 133.6C110.85 133.65 109.7 132.95 109.45 132.35C109.2 131.7 109.8 130.7 110.1 129.9C110.25 129.6 110.7 129.45 111.25 129.15C110.6 128.55 110.05 128.1 109.55 127.65C104.2 122.55 98.8505 117.5 93.6005 112.35C92.8505 111.6 92.3005 111.3 91.2005 111.45C86.9505 112.05 83.6005 108.4 84.3505 104.2C84.9005 101.05 86.7005 99 89.8505 98.15C90.1505 88.65 90.5005 79.2 90.8005 69.85C84.5005 68.45 78.4505 67.15 72.4505 65.8C69.3505 65.1 68.9505 64.35 70.0005 61.3C72.7005 53.25 76.7005 45.8 81.0005 38.55C81.3005 38 81.6505 37.45 82.1005 36.65C65.4505 39.05 51.7505 46.05 40.3505 58.25C42.1005 59.95 43.7505 61.45 45.2505 63C46.5005 64.25 46.3505 66.25 44.9505 66.6C44.0505 66.8 42.7505 66.35 42.0005 65.75C40.4505 64.45 39.1005 62.85 37.7005 61.35C26.5005 74.4 21.5505 92.7 22.3005 103.15C24.3505 103.15 26.4005 103.15 28.4505 103.15C30.3005 103.15 31.3505 103.95 31.4005 105.35C31.4005 106.75 30.4005 107.5 28.4505 107.5C26.4005 107.5 24.3505 107.5 22.1005 107.5C22.8505 123.35 28.1505 137.1 38.3005 149.3C39.4005 148.1 40.3505 147.05 41.3005 146.1C42.2505 145.15 43.3505 144.75 44.4505 145.8C45.6005 146.9 45.4005 148.05 44.3505 149.1C43.1505 150 42.0505 151 40.8505 152.1ZM89.9005 24.5C83.7005 24.5 77.9005 25.25 72.2005 26.65C54.6005 30.95 40.1505 40.25 29.0005 54.5C17.2005 69.6 10.9505 86.8 10.9505 106.1C10.9505 126.2 17.4005 144.1 31.3005 158.55C55.1505 183.35 84.2005 191.6 116.95 180.5C147.7 170.1 165.4 147.3 170.3 115.35C173.8 92.6 166.95 72.4 152.35 54.7C150.75 52.75 148.9 51.65 146.5 51.4C144.7 51.25 142.9 51.2 141.1 51.1C141.05 51.3 141 51.55 140.95 51.75C141.5 52.2 142.05 52.6 142.55 53.1C159.2 70.5 166.4 91.2 163.2 115.05C159 146.4 134.85 171.25 103.65 176.65C81.6005 180.5 61.4505 175.5 44.4005 161C22.3505 142.5 14.0005 118.5 19.1005 90.25C22.1505 73.2 31.0505 59.2 44.4005 48.2C55.7505 38.9 68.8505 33.55 83.5005 32.05C84.1505 32 85.0505 31.7 85.4005 31.2C86.9005 29.15 88.3005 26.95 89.9005 24.5ZM94.8005 25.15C86.6505 36.6 79.1505 48.35 74.1005 61.8C88.7005 65.15 103 67.95 117.8 68.05C117.75 67.75 117.75 67.7 117.7 67.65C115.35 65.55 113.05 63.4 110.7 61.3C109 59.8 108.9 58.8 110.45 57.15C113.6 53.8 117.25 51.2 121.45 49.3C134 43.7 146.45 43.9 158.55 50.4C177 60.3 186.6 81.45 184.5 102.1C184.2 105.2 183.55 108.25 183 111.8C183.5 110.75 183.8 110.15 184.05 109.5C188.15 99.65 189.75 89.45 188.6 78.8C186.6 60.7 178.95 45.6 164.25 34.6C150.15 24.1 134.5 21.9 117.8 27.15C111.5 29.15 105.85 32.5 101.05 37.2C98.8005 39.4 97.1005 38.95 96.4505 35.85C95.7505 32.35 95.3505 28.85 94.8005 25.15ZM161.7 59.8C172.7 76.85 177.35 95.55 176.75 115.8C177.95 112.45 179.1 109.1 179.7 105.7C181.2 97.55 181.4 89.35 177.9 81.6C174.1 73.15 168.75 65.85 161.7 59.8ZM90.4005 107.15C91.6505 107 92.9505 106.7 93.1005 105.1C93.2005 103.95 91.7505 102.4 90.6005 102.5C89.2005 102.65 88.5005 103.55 88.4005 104.9C88.3005 106.25 89.0005 107.05 90.4005 107.15ZM102.65 30.15C104.55 28.95 106.2 27.9 108.3 26.55C106.15 26.15 104.6 25.85 102.85 25.5C102.8 27.15 102.7 28.45 102.65 30.15Z" fill="#025FAC"/>
</svg>
