<svg width="200" height="201" viewBox="0 0 200 201" fill="none" xmlns="http://www.w3.org/2000/svg">
<path d="M55.2498 174.65C55.2498 175.95 55.2498 177.25 55.2498 178.5C55.1998 183.95 51.5998 187.6 46.1998 187.65C38.9498 187.65 31.6998 187.65 24.4498 187.65C18.9998 187.65 15.3498 184 15.3498 178.55C15.3498 171.3 15.3498 164.05 15.3498 156.8C15.3498 151.35 18.9998 147.75 24.4498 147.7C25.7498 147.7 27.0498 147.7 28.3498 147.7C10.9498 117.25 10.9498 86.8999 28.3498 56.3999C27.0998 56.3999 25.7998 56.3999 24.4998 56.3999C18.9998 56.3999 15.3498 52.7499 15.3498 47.2499C15.3498 40.0499 15.3498 32.8499 15.3498 25.5999C15.3498 20.0999 18.9998 16.4499 24.4998 16.4499C31.6998 16.4499 38.8998 16.4499 46.1498 16.4499C51.5998 16.4499 55.2498 20.0999 55.2998 25.5499C55.2998 26.8499 55.2998 28.1499 55.2998 29.4499C85.6998 12.0499 116.05 12.0499 146.6 29.4499C146.6 28.1499 146.6 26.8999 146.6 25.5999C146.6 19.9999 150.2 16.3999 155.85 16.3999C163 16.3999 170.1 16.3999 177.25 16.3999C182.95 16.3999 186.55 19.9999 186.55 25.6999C186.55 32.7999 186.55 39.8999 186.55 46.9499C186.55 52.7499 182.95 56.3499 177.15 56.3499C175.95 56.3499 174.8 56.3499 173.55 56.3499C190.95 86.7499 190.95 117.1 173.55 147.65C174.8 147.65 176.15 147.5 177.45 147.7C178.95 147.9 180.55 148.05 181.9 148.7C185 150.2 186.5 152.9 186.55 156.25C186.6 163.8 186.65 171.4 186.55 178.95C186.5 183.85 182.85 187.5 177.9 187.55C170.35 187.6 162.85 187.6 155.3 187.55C150.3 187.5 146.7 183.8 146.6 178.8C146.55 177.4 146.6 176 146.6 174.6C116.05 192.1 85.6998 192.1 55.2498 174.65ZM20.9998 101.7C21.0498 108.3 21.7498 114.5 23.1998 120.55C25.4998 130.05 29.3498 138.9 34.9498 146.95C35.1998 147.3 35.7998 147.65 36.2498 147.65C39.3998 147.7 42.5998 147.7 45.7498 147.7C51.6498 147.7 55.1998 151.25 55.2498 157.15C55.2498 160.3 55.2498 163.5 55.2498 166.65C55.2498 167.05 55.4498 167.65 55.7498 167.85C59.2498 169.95 62.6498 172.25 66.2998 174C74.2498 177.9 82.6498 180.25 91.4998 181.3C100.9 182.45 110.15 181.85 119.35 179.75C128.9 177.5 137.7 173.6 145.8 168.05C146.35 167.65 146.55 167.3 146.55 166.6C146.5 163.35 146.55 160.1 146.55 156.85C146.55 151.35 150.2 147.7 155.7 147.65C159 147.65 162.3 147.65 165.55 147.6C165.95 147.6 166.55 147.4 166.7 147.1C168.75 143.7 170.95 140.4 172.7 136.85C176.65 128.85 179.05 120.35 180.15 111.45C181.3 102.05 180.75 92.7999 178.6 83.5999C176.35 73.9999 172.45 65.1499 166.85 57.0499C166.6 56.6999 166 56.3499 165.55 56.3499C162.35 56.2999 159.15 56.2999 155.9 56.2999C150.15 56.2999 146.55 52.6999 146.55 46.9999C146.55 43.7999 146.55 40.5999 146.55 37.3499C146.55 36.9499 146.35 36.3499 146.05 36.1499C141 32.6999 135.7 29.7499 129.95 27.5499C121.6 24.4999 112.95 22.6999 104 22.2999C96.6498 21.9999 89.4498 22.6999 82.2998 24.3999C72.7998 26.6499 63.9998 30.5499 55.9498 36.0499C55.3998 36.4499 55.1498 36.7999 55.1998 37.4999C55.2498 40.7499 55.1998 43.9999 55.1998 47.2499C55.1998 52.7999 51.5498 56.3999 46.0498 56.4499C42.7498 56.4499 39.4498 56.4499 36.1998 56.4999C35.7998 56.4999 35.1998 56.7999 34.9498 57.0999C25.6998 70.6499 21.1998 85.6999 20.9998 101.7ZM166.45 22.1999C162.8 22.1999 159.15 22.1999 155.5 22.1999C153.25 22.1999 152.2 23.2499 152.2 25.4499C152.2 32.7999 152.2 40.0999 152.2 47.4499C152.2 49.6499 153.25 50.7499 155.45 50.7499C162.8 50.7499 170.1 50.7499 177.45 50.7499C179.6 50.7499 180.7 49.6999 180.7 47.5499C180.7 40.2499 180.7 32.9499 180.7 25.6999C180.7 23.2499 179.7 22.2499 177.25 22.2499C173.7 22.1999 170.05 22.1999 166.45 22.1999ZM166.35 181.95C170.05 181.95 173.7 181.95 177.4 181.95C179.7 181.95 180.75 180.9 180.75 178.6C180.75 171.3 180.75 164.05 180.75 156.75C180.75 154.45 179.7 153.4 177.4 153.4C170.1 153.4 162.85 153.4 155.55 153.4C153.25 153.4 152.2 154.4 152.2 156.75C152.2 164.05 152.2 171.3 152.2 178.6C152.2 180.9 153.25 181.95 155.55 181.95C159.15 181.95 162.75 181.95 166.35 181.95ZM49.5498 167.8C49.5498 164.15 49.5498 160.5 49.5498 156.85C49.5498 154.5 48.4998 153.4 46.1998 153.4C38.8998 153.4 31.5998 153.4 24.3498 153.4C22.1498 153.4 21.0498 154.45 21.0498 156.65C21.0498 164 21.0498 171.3 21.0498 178.65C21.0498 180.85 22.1498 181.95 24.3498 181.95C31.6498 181.95 38.9498 181.95 46.1998 181.95C48.5498 181.95 49.5498 180.9 49.5498 178.5C49.5498 174.95 49.5498 171.4 49.5498 167.8ZM20.9998 36.3499C20.9998 40.0499 20.9998 43.7999 20.9998 47.4999C20.9998 49.6499 22.0998 50.6999 24.2498 50.6999C31.5998 50.6999 38.8998 50.6999 46.2498 50.6999C48.4498 50.6999 49.5498 49.5999 49.5498 47.4499C49.5498 40.0999 49.5498 32.7999 49.5498 25.4499C49.5498 23.2999 48.4498 22.1999 46.2498 22.1999C38.9498 22.1999 31.6498 22.1999 24.3998 22.1999C22.0998 22.1999 21.0498 23.2499 21.0498 25.5499C20.9998 29.1499 20.9998 32.7499 20.9998 36.3499Z" fill="#025FAC"/>
<path d="M100.8 68.6502C112.5 55.1502 130.05 53.5502 142.7 60.5002C151.05 65.1002 156.6 72.1002 159.3 81.3002C161.95 90.4002 160.85 99.2002 156.6 107.7C157.35 107.8 158 107.75 158.6 107.9C160 108.25 160.9 109.55 160.75 110.95C160.6 112.25 159.45 113.4 158 113.45C156.5 113.5 155 113.45 153.5 113.5C153.1 113.5 152.6 113.65 152.35 113.9C149.4 116.9 146.55 119.95 143.6 122.95C132.95 133.75 122.25 144.5 111.55 155.25C108.85 158 106.15 160.7 103.45 163.45C101.6 165.3 100.1 165.3 98.25 163.45C83 148.05 67.75 132.7 52.5 117.3C51.85 116.65 51.2 116.3 50.25 116.35C48.25 116.4 46.2 116.4 44.2 116.4C42.25 116.4 41 115.25 41 113.55C41 111.85 42.25 110.75 44.25 110.7C45.05 110.7 45.8 110.7 46.75 110.7C46.55 110.3 46.45 110.05 46.3 109.8C41.8 102.25 40.1 94.1002 41.5 85.4002C42.75 77.8002 46.2 71.2502 51.8 65.9002C56.5 61.4002 62 58.3502 68.4 57.2002C80.85 54.9502 91.45 58.5502 100.15 67.8002C100.3 68.0002 100.5 68.3002 100.8 68.6502ZM90.2 115.3C91 113.35 91.65 111.7 92.3 110.05C93 108.35 93.85 107.8 95.65 107.75C97.35 107.75 99.05 107.7 100.75 107.8C101.55 107.85 101.85 107.6 102.1 106.9C104.45 100.55 106.8 94.2502 109.2 87.9002C109.4 87.4002 109.6 86.8502 109.9 86.4002C111.1 84.4502 113.65 84.5002 114.75 86.5002C115 86.9502 115.2 87.5002 115.3 88.0502C116.85 94.2502 118.35 100.4 119.9 106.6C120.65 109.55 121.35 112.45 122.15 115.6C123.8 113.4 125.3 111.45 126.75 109.45C127.55 108.3 128.55 107.8 129.95 107.85C135.15 107.9 140.35 107.85 145.5 107.85C146.95 107.85 148.85 108.35 149.8 107.65C151.05 106.75 151.7 104.9 152.4 103.35C158.15 90.5502 154.2 75.8002 142.95 67.5002C134.2 61.0502 122.05 60.5002 112.7 66.0002C109 68.2002 106.05 71.0502 103.55 74.5502C102.95 75.3502 102.35 76.1002 101.25 76.2002C99.55 76.4002 98.75 75.3502 97.9 74.2002C93.3 67.9002 87.2 63.9002 79.5 62.6002C66.5 60.4002 53.75 67.5502 48.85 80.2002C44.75 90.8002 46.25 100.9 53.45 109.9C53.8 110.3 54.45 110.65 55 110.65C58.85 110.7 62.7 110.65 66.55 110.7C67.35 110.7 67.8 110.5 68.15 109.7C71.2 102.75 74.3 95.8002 77.4 88.8502C77.75 88.0502 78.05 87.2502 78.5 86.5002C79.1 85.5002 80.05 84.9002 81.3 85.0502C82.5 85.2002 83.3 85.9002 83.7 87.1002C83.8 87.5002 83.9 87.8502 84 88.2502C85.95 96.7502 87.9 105.25 89.85 113.7C89.9 114.1 90 114.55 90.2 115.3ZM59.9 116.35C59.8 116.45 59.75 116.55 59.65 116.65C73.5 130.25 87.35 143.85 101.2 157.5C115.55 143.05 130.1 128.4 144.85 113.55C144.45 113.5 144.35 113.5 144.2 113.5C139.95 113.5 135.7 113.5 131.5 113.55C131.1 113.55 130.55 113.9 130.3 114.25C127.95 117.3 125.65 120.35 123.3 123.4C122.95 123.85 122.5 124.3 122 124.55C120.2 125.4 118.5 124.45 117.95 122.4C116.2 115.4 114.45 108.45 112.75 101.45C112.45 100.2 112.1 99.0002 111.7 97.4502C109.9 102.2 108.25 106.65 106.55 111.1C105.85 112.9 105 113.5 103.05 113.5C101.05 113.5 99.1 113.5 97.1 113.5C96.85 114.15 96.6 114.7 96.35 115.3C94.95 118.75 93.6 122.2 92.2 125.65C91.65 127.05 90.4 127.85 89.2 127.75C87.95 127.65 87 126.75 86.6 125.35C86.55 125.1 86.5 124.9 86.45 124.65C84.45 115.95 82.4 107.2 80.4 98.5002C80.3 98.0502 80.2 97.6502 80 96.9502C79.65 97.6502 79.5 98.0502 79.3 98.4002C77 103.6 74.7 108.8 72.4 114.05C71.7 115.65 70.6 116.45 68.8 116.4C65.85 116.3 62.9 116.35 59.9 116.35Z" fill="#025FAC"/>
</svg>
