<svg width="200" height="201" viewBox="0 0 200 201" fill="none" xmlns="http://www.w3.org/2000/svg">
<path d="M137.401 138.05C136.251 136.85 135.201 135.75 134.051 134.6C123.101 144.75 110.101 149.45 95.6506 149.1C94.9006 150.4 94.4006 151.65 93.6006 152.55C92.2006 154.15 90.6006 155.7 89.0006 157.15C87.4006 158.6 86.2506 158.65 84.3506 157.6C81.4006 155.9 78.4006 154.25 75.4506 152.5C74.7006 152.05 74.0506 151.95 73.2506 152.35C71.3006 153.25 69.3506 154.05 67.4006 154.8C66.5506 155.1 66.1506 155.65 65.9506 156.5C65.1006 159.7 64.2506 162.95 63.3506 166.15C62.6506 168.65 61.7006 169.4 59.0506 169.4C56.9506 169.4 54.9006 169.4 52.8006 169.4C50.6506 169.4 49.6506 168.65 49.0506 166.5C48.1506 163.25 47.3006 160 46.4506 156.75C46.2006 155.7 45.7506 155 44.6506 154.6C42.7006 153.9 40.8506 152.95 38.9006 152.25C38.3506 152.05 37.5506 152.1 37.0506 152.4C34.0006 154.05 30.9506 155.8 27.9006 157.55C26.0506 158.6 24.8006 158.5 23.2506 157C21.6006 155.4 20.0006 153.8 18.4506 152.1C16.9506 150.5 16.8506 149.25 17.9506 147.35C19.6006 144.4 21.3006 141.5 23.0006 138.6C23.5006 137.75 23.5506 137.05 23.1506 136.15C22.3006 134.3 21.5506 132.4 20.8006 130.5C20.4506 129.65 19.9006 129.2 19.0006 128.95C15.8006 128.1 12.6006 127.2 9.35059 126.35C7.20059 125.75 6.35059 124.65 6.35059 122.4C6.35059 120.25 6.35059 118.05 6.35059 115.9C6.35059 113.7 7.15059 112.7 9.20059 112.1C12.5006 111.2 15.7506 110.25 19.0506 109.4C19.9006 109.2 20.4006 108.8 20.7506 107.95C21.5006 106 22.3506 104.1 23.2006 102.2C23.5506 101.35 23.5506 100.7 23.0506 99.8501C21.3006 96.9001 19.6506 93.9001 18.0006 90.9501C16.9506 89.1001 17.0506 87.8501 18.5006 86.3001C20.0506 84.6501 21.7006 83.0001 23.3506 81.4501C24.9006 80.0001 26.3006 79.9001 28.1006 80.9501C31.1006 82.6501 34.1006 84.4001 37.1006 86.0501C37.6506 86.3501 38.5006 86.4001 39.0506 86.1501C41.0506 85.4001 43.0506 84.5501 45.0006 83.6001C45.5006 83.3501 46.0506 82.7501 46.2006 82.2001C47.2506 78.7001 48.2506 75.1501 49.2006 71.6501C49.5506 70.3501 50.2506 69.3501 51.5506 68.8001C51.9006 68.6501 52.2006 68.3001 52.4006 68.0001C58.0506 59.1001 65.6006 52.2501 75.2006 47.8501C82.2506 44.6001 89.6506 42.9001 97.4506 42.9501C98.2506 42.9501 99.0006 42.9501 99.8506 42.9501C100.401 40.2001 102.751 38.7501 104.401 36.8501C104.901 36.3001 105.501 35.8001 106.051 35.3001C107.501 34.0501 109.001 33.9001 110.651 34.8001C113.601 36.4501 116.501 38.1001 119.401 39.8501C120.351 40.4001 121.101 40.4501 122.051 40.0001C123.851 39.1501 125.701 38.4001 127.551 37.6501C128.351 37.3501 128.801 36.8501 129.051 35.9501C129.901 32.5501 130.851 29.2001 131.801 25.8501C132.501 23.3501 133.501 22.6001 136.101 22.6001C138.101 22.6001 140.101 22.6001 142.101 22.6001C144.301 22.6001 145.401 23.4501 146.001 25.5501C146.951 29.0501 147.851 32.5501 148.751 36.0501C148.951 36.9001 149.351 37.4001 150.201 37.7501C152.101 38.5001 154.001 39.2501 155.851 40.1001C156.751 40.5001 157.501 40.5001 158.401 40.0001C161.251 38.3001 164.151 36.6501 167.051 35.0001C168.901 33.9501 170.151 34.0001 171.701 35.4501C173.451 37.0501 175.101 38.7501 176.701 40.5001C178.101 42.0501 178.201 43.3001 177.151 45.1501C175.501 48.1001 173.801 51.0001 172.101 53.9001C171.651 54.7001 171.551 55.3501 171.951 56.2001C172.801 58.0501 173.551 59.9501 174.251 61.8501C174.601 62.7001 175.101 63.2001 176.001 63.4001C179.351 64.3001 182.651 65.2001 186.001 66.1501C187.951 66.7001 188.751 67.8001 188.751 69.7501C188.751 72.0501 188.751 74.3501 188.751 76.6501C188.751 78.7001 187.901 79.8001 185.901 80.3501C182.701 81.2501 179.501 82.1501 176.251 82.9501C175.201 83.2001 174.501 83.7001 174.151 84.7501C173.501 86.5501 172.751 88.3001 171.951 90.0501C171.501 91.0501 171.601 91.8001 172.151 92.7501C173.701 95.4001 175.201 98.1001 176.751 100.8C178.351 103.55 178.301 104.4 176.051 106.75C174.601 108.3 173.051 109.75 171.501 111.2C170.051 112.5 168.851 112.55 167.151 111.6C164.201 109.9 161.201 108.2 158.301 106.45C157.451 105.95 156.751 105.9 155.851 106.3C154.001 107.1 152.101 107.9 150.201 108.6C149.401 108.9 148.951 109.4 148.701 110.25C147.801 113.6 146.851 116.9 145.951 120.25C145.601 121.6 144.951 122.7 143.501 123.15C143.251 123.25 143.001 123.45 142.851 123.7C140.701 126.6 138.601 129.55 136.451 132.45C137.501 133.4 138.651 134.5 139.851 135.65C143.051 133.65 146.651 133.2 150.301 135.1C151.351 135.65 152.301 136.45 153.151 137.3C161.051 145.15 168.951 153.05 176.851 161C179.901 164.1 180.901 167.8 179.351 171.9C177.801 175.95 174.701 178.1 170.401 178.35C167.551 178.55 165.051 177.6 163.001 175.6C156.701 169.4 150.501 163.15 144.251 156.9C142.751 155.4 141.301 153.8 139.701 152.4C135.651 148.85 134.051 143.5 137.401 138.05ZM97.7006 45.8501C68.7506 46.0001 46.7006 69.8501 47.6006 97.8001C48.4506 124.25 70.9006 147.3 99.9506 146C127.101 144.8 148.801 121.75 147.651 93.9001C146.501 66.8501 124.201 45.9001 97.7006 45.8501ZM45.4006 86.7501C43.6006 87.5001 42.0006 88.1501 40.4006 88.9001C38.7506 89.6501 37.2506 89.6001 35.6506 88.6501C32.8006 86.9501 29.9006 85.3501 27.0006 83.6501C26.3006 83.2501 25.8506 83.2501 25.2506 83.8001C23.9006 85.2001 22.5006 86.6001 21.0506 87.9001C20.3506 88.5501 20.4006 89.1001 20.8506 89.8501C22.6006 92.8501 24.2506 95.8501 26.0006 98.8501C26.7006 100.1 26.8006 101.35 26.2506 102.65C25.2506 104.9 24.3506 107.15 23.4006 109.45C22.8506 110.85 21.9006 111.65 20.4506 112.05C17.1506 112.9 13.9006 113.9 10.5506 114.7C9.55059 114.95 9.30059 115.4 9.35059 116.3C9.40059 118.15 9.40059 120.05 9.35059 121.9C9.30059 122.8 9.60059 123.2 10.5006 123.45C13.8006 124.3 17.1006 125.25 20.3506 126.1C21.8006 126.5 22.7506 127.35 23.3006 128.7C24.2006 130.85 25.0506 133 26.0006 135.15C26.7006 136.75 26.5506 138.2 25.7006 139.65C24.0006 142.5 22.4006 145.45 20.7006 148.3C20.2506 149.05 20.1506 149.6 20.8506 150.25C22.2506 151.6 23.6506 153 25.0006 154.4C25.5506 155 26.0506 154.95 26.7006 154.55C29.7006 152.8 32.7006 151.1 35.7006 149.4C37.0006 148.65 38.3006 148.5 39.7506 149.15C41.9006 150.1 44.1006 151 46.3006 151.9C47.7506 152.5 48.6506 153.5 49.0506 155.05C49.9006 158.45 50.9006 161.8 51.7506 165.2C51.9506 166.05 52.3506 166.3 53.2006 166.3C55.1006 166.25 57.0506 166.2 58.9506 166.25C59.8006 166.25 60.2006 166.05 60.4006 165.15C61.2506 161.9 62.2006 158.65 63.0506 155.4C63.5006 153.75 64.4006 152.6 66.0006 151.95C68.1006 151.15 70.2006 150.3 72.2006 149.4C73.8506 148.65 75.3006 148.85 76.8506 149.75C79.7006 151.4 82.5506 153 85.4006 154.7C86.1006 155.1 86.6006 155.2 87.2506 154.55C88.6006 153.15 90.0506 151.8 91.4006 150.4C91.7006 150.1 92.0006 149.45 91.9006 149.2C91.7506 148.85 91.1506 148.6 90.7006 148.55C80.2006 147.15 70.9006 142.95 62.9006 136C62.3006 135.45 61.8006 135.35 61.0006 135.6C57.9006 136.45 54.8006 136.6 51.6506 135.7C39.2006 132.2 34.8506 116.65 43.8506 107.4C45.0006 106.25 45.4506 105.2 45.1506 103.5C44.2506 98.0501 44.4006 92.5001 45.4006 86.7501ZM150.151 105.45C151.601 104.85 153.201 104.25 154.751 103.5C156.501 102.7 158.051 102.75 159.701 103.8C162.551 105.55 165.451 107.15 168.351 108.85C169.001 109.25 169.451 109.2 169.951 108.7C171.301 107.35 172.651 105.95 174.051 104.7C174.851 104 174.851 103.35 174.301 102.45C172.601 99.6001 171.001 96.6501 169.301 93.8001C168.451 92.4001 168.401 91.0001 169.051 89.5001C169.951 87.4001 170.851 85.3001 171.701 83.1501C172.301 81.6001 173.351 80.7001 174.901 80.3001C178.201 79.4501 181.501 78.5001 184.801 77.7001C185.601 77.5001 185.901 77.2001 185.851 76.3501C185.801 74.3501 185.801 72.3501 185.851 70.3501C185.851 69.5501 185.601 69.2001 184.801 69.0001C181.551 68.1501 178.301 67.2001 175.051 66.3001C173.451 65.8501 172.351 65.0001 171.751 63.4001C170.901 61.2501 170.051 59.1501 169.101 57.0501C168.451 55.5501 168.601 54.1501 169.401 52.7501C171.151 49.8001 172.801 46.8501 174.551 43.9001C174.951 43.2001 174.901 42.7001 174.351 42.1501C172.901 40.7501 171.501 39.3501 170.101 37.9501C169.551 37.3501 169.051 37.3501 168.351 37.8001C165.401 39.5501 162.401 41.1501 159.451 42.9001C158.051 43.7001 156.651 43.8501 155.151 43.1501C153.051 42.2001 150.951 41.3501 148.851 40.5001C147.301 39.9001 146.451 38.8501 146.051 37.2501C145.201 33.8001 144.201 30.3501 143.351 26.8501C143.151 26.0001 142.751 25.6001 141.801 25.6501C139.951 25.7001 138.051 25.7001 136.201 25.6501C135.401 25.6501 135.051 25.9501 134.851 26.7001C133.951 30.1001 133.001 33.5001 132.051 36.9501C131.601 38.6001 130.701 39.7501 129.051 40.3501C127.051 41.1501 125.051 41.9501 123.101 42.9001C121.401 43.7001 119.901 43.5501 118.351 42.6001C115.501 40.9001 112.551 39.3001 109.701 37.6001C108.951 37.1501 108.451 37.2001 107.851 37.8001C106.901 38.8001 105.851 39.7001 104.901 40.7001C104.251 41.4001 103.601 42.1501 103.001 42.8501C103.251 43.0501 103.301 43.1501 103.351 43.1501C103.651 43.2001 103.901 43.2501 104.201 43.3001C114.201 44.6501 123.201 48.4501 131.001 54.8501C132.601 56.1501 134.001 57.2501 136.151 56.2001C136.201 56.2001 136.251 56.2001 136.251 56.2001C143.801 55.1001 151.051 58.9501 154.351 65.7001C157.701 72.6001 156.201 80.4001 150.501 85.8501C150.151 86.2001 149.951 86.9001 149.951 87.4501C150.101 89.7501 150.551 92.1001 150.551 94.4001C150.601 98.0501 150.301 101.7 150.151 105.45ZM145.651 153.9C145.651 153.9 145.651 154 145.701 154.05C152.201 160.55 158.651 167.1 165.201 173.6C167.351 175.7 170.951 175.95 173.601 174.4C177.551 172.05 178.201 166.6 174.901 163.2C168.701 156.95 162.401 150.7 156.151 144.5C155.951 144.3 155.701 144.15 155.501 143.95C152.251 147.3 148.951 150.6 145.651 153.9ZM46.3006 109.35C41.7006 113.35 40.8006 121.5 44.2506 126.8C47.7006 132.05 54.4506 134.6 59.5006 132.8C53.1506 126.1 48.6506 118.4 46.3006 109.35ZM149.101 83.0001C153.751 78.3501 154.401 70.9001 150.851 65.5001C147.001 59.6501 139.601 58.1001 136.151 59.5501C142.451 66.2001 146.701 74.0001 149.101 83.0001ZM153.351 141.6C152.251 140.6 151.201 139.45 150.001 138.5C147.201 136.25 143.251 136.5 140.651 139C138.151 141.35 137.801 145.45 139.951 148.25C140.901 149.5 142.151 150.6 143.201 151.75C146.651 148.3 149.951 144.95 153.351 141.6Z" fill="#025FAC"/>
<path d="M77.1502 38.4004C77.4502 39.2504 77.8502 39.9004 77.9502 40.6004C78.0002 40.8504 77.5502 41.4004 77.2002 41.5504C73.1502 43.1004 69.3002 45.0504 65.7002 47.4504C58.4502 52.3004 52.4502 58.3004 48.0502 65.8504C47.4502 66.9004 46.9502 66.8004 46.1502 66.2504C45.4002 65.7504 44.7002 65.5004 45.4502 64.3004C52.0002 53.7504 60.8002 45.8004 72.0502 40.5504C73.6002 39.8004 75.3002 39.1504 77.1502 38.4004Z" fill="#025FAC"/>
<path d="M85.8506 35.9504C88.7006 35.6004 91.4006 35.2504 94.3006 34.9004C94.3006 36.0004 94.3006 36.9004 94.3006 37.9004C91.7506 38.2004 89.1506 38.5504 86.4506 38.8504C86.3006 38.0004 86.1006 37.1004 85.8506 35.9504Z" fill="#025FAC"/>
<path d="M138.551 92.85C138.551 95.25 138.551 97.45 138.551 99.7C135.401 100.55 132.301 101.45 129.151 102.25C127.651 102.65 126.701 103.5 126.151 104.95C125.451 106.8 124.651 108.65 123.851 110.5C123.251 111.85 123.351 113.05 124.101 114.3C125.701 117.1 127.301 119.95 129.051 123.05C127.601 124.45 126.101 125.9 124.551 127.25C124.351 127.45 123.701 127.35 123.401 127.2C120.901 125.8 118.401 124.4 115.901 122.95C114.451 122.1 113.101 121.95 111.501 122.65C109.751 123.5 107.901 124.15 106.101 124.9C104.801 125.45 103.951 126.35 103.551 127.75C102.701 130.9 101.751 134.05 100.801 137.3C98.6008 137.3 96.4008 137.3 94.1008 137.3C93.3008 134.25 92.4008 131.2 91.6508 128.15C91.2008 126.4 90.3008 125.3 88.6008 124.65C86.9508 124.05 85.3508 123.35 83.7508 122.6C82.1008 121.8 80.5508 121.95 79.0008 122.85C76.3508 124.4 73.6508 125.9 70.7008 127.55C69.3008 126.05 67.8508 124.6 66.5008 123.05C66.3008 122.85 66.4008 122.2 66.6008 121.9C68.0008 119.35 69.4508 116.85 70.9508 114.3C71.7508 112.95 71.8508 111.6 71.2008 110.15C70.4008 108.35 69.7008 106.55 68.9508 104.75C68.4008 103.4 67.5008 102.55 66.1008 102.2C63.2508 101.45 60.4008 100.6 57.5508 99.9001C56.8008 99.7001 56.5508 99.4001 56.5508 98.6501C56.6008 97.0001 56.6008 95.3001 56.5508 93.6501C56.5508 92.9001 56.8008 92.65 57.5008 92.45C60.2008 91.75 62.9008 91.0001 65.6008 90.3001C67.3508 89.8501 68.5508 88.9001 69.1508 87.1501C69.7508 85.5001 70.4508 83.9001 71.2008 82.3001C71.9508 80.7001 71.8008 79.2 70.9008 77.7C69.4508 75.25 68.1508 72.7501 66.7008 70.3001C66.3508 69.7001 66.3508 69.3001 66.8508 68.8001C68.0508 67.6501 69.2508 66.45 70.3508 65.25C70.8508 64.7 71.2508 64.75 71.8508 65.1C74.3508 66.6 76.9008 68 79.4008 69.5C80.7508 70.3 82.1008 70.45 83.5508 69.75C85.3008 68.95 87.1508 68.2 88.9508 67.45C90.3508 66.85 91.2508 65.9001 91.6008 64.4001C92.3508 61.4501 93.2008 58.55 94.0008 55.6C94.2008 54.85 94.5008 54.55 95.2508 54.6C96.8508 54.65 98.4008 54.65 100.001 54.6C100.801 54.55 101.101 54.9501 101.251 55.6501C102.001 58.5501 102.801 61.45 103.501 64.35C103.901 66 104.801 67.1 106.351 67.7C108.001 68.3 109.601 69 111.151 69.75C112.851 70.55 114.401 70.45 116.001 69.5C118.401 68.05 120.851 66.8 123.251 65.35C123.901 64.95 124.351 64.9501 124.851 65.5501C125.951 66.7501 127.101 67.9 128.301 69C128.851 69.5 128.801 69.9 128.451 70.5C127.001 72.95 125.601 75.5 124.151 77.95C123.301 79.4 123.151 80.8 123.851 82.35C124.651 84.1 125.351 85.8501 126.051 87.6501C126.601 89.1001 127.551 89.9501 129.101 90.3001C132.401 91.1001 135.451 92 138.551 92.85ZM97.7008 111.3C106.851 111.6 113.251 103.35 112.901 95.6C112.501 87.55 105.701 80.3001 96.2508 81.0501C88.2508 81.7001 82.1008 88.65 82.4008 96.75C82.7008 105.1 89.6008 111.65 97.7008 111.3Z" fill="#025FAC"/>
<path d="M97.6506 107.05C103.615 107.05 108.451 102.215 108.451 96.2502C108.451 90.2855 103.615 85.4502 97.6506 85.4502C91.6859 85.4502 86.8506 90.2855 86.8506 96.2502C86.8506 102.215 91.6859 107.05 97.6506 107.05Z" fill="#025FAC"/>
</svg>
