<svg width="200" height="200" viewBox="0 0 200 200" fill="none" xmlns="http://www.w3.org/2000/svg">
<path d="M104.95 192.25C101.15 190.95 99.7 188.25 99.9 184.3C100.05 180.7 99.9 177.05 99.9 173.45C99.9 173.35 99.85 173.25 99.9 173.4C94.7 173.4 89.6 173.45 84.5 173.4C80.8 173.35 78.25 171.5 76.85 168.05C76 166 75.25 163.85 74.3 161.85C74 161.2 73.25 160.5 72.6 160.3C66 158.5 59.7 155.95 53.75 152.5C53.15 152.15 52.15 152.1 51.45 152.35C49.25 153.15 47.1 154.15 44.95 155.05C41.9 156.3 38.95 156 36.55 153.7C33.3 150.65 30.15 147.45 27.1 144.25C24.8 141.8 24.5 138.9 25.75 135.85C26.6 133.75 27.65 131.65 28.4 129.5C28.65 128.75 28.65 127.7 28.3 127.05C24.85 121.1 22.25 114.85 20.5 108.2C20.3 107.5 19.6 106.75 18.95 106.45C16.8 105.45 14.6 104.7 12.4 103.8C9.25 102.45 7.5 100.1 7.45 96.6498C7.35 92.2998 7.35 87.9498 7.45 83.6498C7.55 80.2998 9.25 77.9498 12.35 76.6498C14.55 75.6998 16.85 74.8998 19.05 73.8998C19.65 73.5998 20.3 72.9498 20.5 72.2998C22.25 65.5998 24.9 59.2998 28.4 53.2998C28.75 52.7498 28.75 51.7998 28.55 51.1498C27.7 48.8998 26.65 46.6998 25.75 44.4498C24.55 41.4498 24.85 38.5498 27.1 36.1998C30.2 32.8998 33.4 29.6998 36.7 26.5998C39.1 24.3498 41.95 24.0498 44.95 25.2498C47.05 26.0998 49.15 27.1498 51.3 27.8998C52.1 28.1498 53.25 28.1498 53.9 27.7498C59.75 24.3998 65.9 21.7998 72.4 20.1498C73.55 19.8498 74.15 19.2998 74.5 18.2498C75.3 16.0998 76.15 13.9498 77.05 11.8498C78.35 8.7998 80.7 7.0498 84.05 6.9998C88.4 6.8998 92.75 6.8998 97.05 6.9998C100.45 7.0498 102.85 8.8498 104.15 11.9498C105.05 14.0998 105.85 16.3498 106.8 18.4998C107.1 19.1498 107.85 19.8498 108.55 19.9998C115.15 21.7498 121.3 24.3498 127.25 27.6998C127.95 28.0998 129.1 28.1498 129.85 27.8998C132 27.1498 134.05 26.0998 136.2 25.2498C139.25 23.9998 142.2 24.3498 144.6 26.6498C147.85 29.6998 151 32.8998 154.05 36.0998C156.3 38.4998 156.6 41.3498 155.45 44.3498C154.75 46.1498 154 47.8498 153.1 49.9498C154.15 49.9498 154.85 49.9498 155.55 49.9498C165.2 49.9498 174.9 50.0498 184.55 49.8998C188.45 49.8498 191.25 50.9998 192.65 54.7498C192.65 98.8498 192.65 143 192.65 187.1C191.8 189.65 190.1 191.35 187.55 192.2C160.1 192.25 132.5 192.25 104.95 192.25ZM123.85 49.9998C123.9 49.8498 123.95 49.6998 124 49.5998C123.5 49.1998 123.05 48.7498 122.55 48.3998C106.3 36.6498 88.7 34.0498 70.15 41.6998C47.35 51.0498 34.55 74.2998 38.55 98.5998C41.45 116.3 51.3 129.2 67.25 137.4C74.45 141.1 82.2 142.7 90.3 142.9C92.45 142.95 93.75 144.35 93.65 146.15C93.55 147.85 92.2 149 90.05 148.9C87.35 148.8 84.6 148.7 81.9 148.3C41.5 142.1 19.55 97.9498 39 62.0998C50.45 40.9998 73.95 28.8998 97.55 31.8998C111.1 33.5998 122.7 39.2998 132.35 48.8998C132.9 49.4498 133.75 49.8498 134.5 49.8998C138.05 49.9998 141.65 49.8998 145.2 49.9498C146.2 49.9498 146.7 49.5998 147.1 48.6498C147.9 46.5498 148.95 44.5498 149.65 42.4498C149.9 41.6498 149.7 40.2998 149.2 39.7498C146.6 36.8998 143.8 34.2498 141.05 31.4998C140.15 30.5998 139.25 30.4998 138.1 31.0498C135.5 32.1998 132.9 33.2498 130.3 34.3998C128.8 35.0498 127.45 35.0498 126 34.0998C119.55 29.9998 112.55 27.1498 105.05 25.4498C103.55 25.0998 102.6 24.2998 102.05 22.8998C101 20.1998 99.9 17.5498 98.85 14.7998C98.4 13.6498 97.75 12.9998 96.45 12.9998C92.55 13.0498 88.6 13.0498 84.7 12.9998C83.5 12.9998 82.85 13.5998 82.45 14.6998C81.4 17.3998 80.25 20.0498 79.25 22.7998C78.7 24.2998 77.7 25.0998 76.1 25.4498C68.65 27.0998 61.7 29.9498 55.3 34.0498C53.8 34.9998 52.4 35.0498 50.85 34.3498C48.3 33.1998 45.75 32.1998 43.2 31.0498C42 30.4998 41.05 30.5498 40.1 31.4998C37.45 34.1998 34.75 36.8998 32.05 39.5498C31.1 40.4998 31.05 41.4498 31.6 42.6498C32.75 45.1498 33.75 47.7498 34.9 50.2998C35.6 51.8498 35.55 53.2498 34.6 54.7498C30.5 61.1498 27.65 68.0998 26 75.5498C25.65 77.0998 24.8 78.0998 23.3 78.6498C20.6 79.6998 17.95 80.7998 15.2 81.8498C14.1 82.2498 13.5 82.8998 13.5 84.0998C13.5 87.8498 13.55 91.5998 13.45 95.2998C13.4 97.0498 14.25 97.8998 15.8 98.4498C18.3 99.3498 20.75 100.4 23.2 101.35C24.7 101.9 25.55 102.85 25.9 104.45C27.55 111.95 30.45 118.95 34.6 125.4C35.5 126.8 35.55 128.2 34.85 129.7C33.7 132.3 32.65 134.95 31.5 137.5C31 138.65 31.1 139.55 32 140.45C34.7 143.1 37.4 145.8 40.05 148.55C41 149.5 41.95 149.6 43.15 149.05C45.7 147.9 48.25 146.9 50.8 145.75C52.35 145.05 53.75 145.05 55.25 146C61.6 150.1 68.5 152.9 75.9 154.55C77.7 154.95 78.75 155.9 79.35 157.6C80.3 160.2 81.3 162.8 82.5 165.3C82.85 166.05 83.8 166.95 84.5 166.95C88.6 167.1 92.7 167.05 96.8 167C97.4 167 98.3 166.45 98.45 165.95C99.1 164.2 99.85 162.4 99.85 160.6C99.95 126.15 99.95 91.6998 99.95 57.2498C99.95 51.9998 102.15 49.7998 107.45 49.7998C112.05 49.7998 116.65 49.7998 121.25 49.7998C122.1 49.9998 123 49.9998 123.85 49.9998ZM186.2 121C186.2 100.35 186.2 79.6498 186.2 58.9998C186.2 56.3998 186.2 56.3998 183.6 56.3998C158.75 56.3998 133.9 56.3998 109.1 56.3998C106.45 56.3998 106.45 56.3998 106.45 58.9998C106.45 100.3 106.45 141.55 106.45 182.85C106.45 185.7 106.55 185.75 109.45 185.75C134.05 185.75 158.65 185.75 183.25 185.75C186.2 185.75 186.25 185.7 186.25 182.65C186.2 162.1 186.2 141.55 186.2 121Z" fill="#025FAC"/>
<path d="M112.05 121.2C112.05 108.05 112.05 94.8499 112.05 81.6999C112.05 77.8499 113.5 76.1499 117.25 75.2999C121.95 74.2499 125.1 71.5499 126.2 66.6999C126.85 63.8499 128.9 62.0499 131.9 62.0499C141.5 61.9999 151.1 61.9499 160.7 62.0499C163.75 62.0999 165.65 63.8499 166.4 66.8999C167.45 71.3499 170.3 73.9999 174.65 75.0999C179.4 76.2499 180.5 77.6499 180.5 82.4999C180.5 108.35 180.5 134.2 180.5 160.1C180.5 164.55 179.15 166.15 174.85 167.1C170.5 168.1 167.55 170.65 166.45 175.1C165.55 178.75 163.8 180.15 160.05 180.15C150.85 180.15 141.7 180.15 132.5 180.15C128.85 180.15 127.05 178.75 126.15 175.25C125 170.65 122 168.05 117.45 167.1C113.5 166.3 112.05 164.5 112.05 160.45C112.05 147.3 112.05 134.25 112.05 121.2ZM118.5 121C118.5 133.5 118.5 146 118.5 158.5C118.5 159.65 118.55 160.45 120 160.85C126.1 162.5 130.2 166.35 132.25 172.4C132.45 172.95 133.3 173.55 133.85 173.6C142.15 173.7 150.4 173.65 158.7 173.65C159.7 173.65 160.15 173.3 160.45 172.3C162.4 166.3 166.5 162.55 172.55 160.9C173.8 160.55 174.15 160 174.15 158.8C174.1 133.65 174.1 108.55 174.15 83.3999C174.15 82.0999 173.7 81.6499 172.5 81.2999C166.6 79.5999 162.45 75.9499 160.5 69.9999C160.15 68.8999 159.6 68.5999 158.55 68.6499C150.35 68.6999 142.1 68.6999 133.9 68.6499C132.9 68.6499 132.45 68.9499 132.1 69.9499C130.25 75.7499 126.3 79.4999 120.5 81.1499C118.75 81.6499 118.45 82.4499 118.45 84.0499C118.55 96.3499 118.5 108.7 118.5 121Z" fill="#025FAC"/>
<path d="M168.1 121.1C168.05 133 158.3 142.8 146.4 142.85C134.45 142.9 124.55 133 124.55 121.05C124.55 108.95 134.4 99.2998 146.6 99.3498C158.35 99.3998 168.1 109.3 168.1 121.1ZM146.35 106C137.85 106 131.2 112.5 131.15 120.95C131.1 129.5 137.75 136.3 146.1 136.3C154.7 136.3 161.35 129.65 161.35 121.05C161.4 112.6 154.8 106 146.35 106Z" fill="#025FAC"/>
<path d="M146.45 74.6499C151.6 74.6999 155.75 78.9499 155.7 84.0499C155.6 89.2499 151.3 93.3999 146.05 93.2999C141.05 93.1999 136.85 88.8999 136.9 83.9499C136.95 78.7499 141.2 74.5999 146.45 74.6499ZM149.05 83.9999C149.1 82.4999 147.9 81.1999 146.4 81.1499C145 81.0999 143.6 82.3999 143.55 83.7999C143.5 85.4499 144.65 86.6499 146.3 86.6499C147.9 86.6499 149 85.5499 149.05 83.9999Z" fill="#025FAC"/>
<path d="M146.4 167.599C141.35 167.649 137 163.449 136.9 158.349C136.8 153.249 141.05 148.899 146.3 148.849C151.3 148.749 155.7 153.149 155.7 158.149C155.7 163.249 151.5 167.549 146.4 167.599ZM149.05 158.149C149 156.599 147.8 155.449 146.25 155.449C144.65 155.449 143.45 156.749 143.55 158.399C143.65 159.949 144.85 161.049 146.45 160.999C148 160.899 149.1 159.699 149.05 158.149Z" fill="#025FAC"/>
</svg>
