<svg width="200" height="201" viewBox="0 0 200 201" fill="none" xmlns="http://www.w3.org/2000/svg">
<path d="M40.2492 168.5C37.2492 168.35 34.4492 166.65 32.9492 163.25C31.4492 159.8 31.9992 156.55 34.4992 153.75C36.9992 150.95 40.2492 150.2 43.7992 151.3C44.7992 151.6 45.2992 151.45 45.9992 150.75C52.4992 144.15 59.0992 137.6 65.6492 131.1C67.0492 129.7 68.7492 129.6 69.9992 130.85C71.1992 132.05 71.0492 133.75 69.6492 135.2C63.1492 141.7 56.6992 148.2 50.1492 154.65C49.3492 155.45 49.1992 156.15 49.4992 157.2C51.1492 163 46.9992 168.55 40.2492 168.5ZM41.0492 156.5C39.2492 156.5 37.7992 157.9 37.7992 159.65C37.7992 161.35 39.1992 162.75 40.9492 162.8C42.7492 162.8 44.1492 161.45 44.1492 159.65C44.1492 157.9 42.7992 156.55 41.0492 156.5Z" fill="#025FAC"/>
<path d="M169.05 160.55C168.95 163.4 167.3 166.15 163.95 167.7C160.55 169.25 157.25 168.75 154.45 166.35C151.65 163.95 150.8 160.75 151.85 157.2C152.2 156.05 152 155.35 151.15 154.55C144.8 148.25 138.45 141.9 132.1 135.55C131.2 134.65 130.5 133.75 130.75 132.4C131.15 130.45 133.3 129.5 134.95 130.6C135.45 130.95 135.9 131.35 136.3 131.8C142.65 138.15 149.05 144.5 155.4 150.9C155.95 151.45 156.4 151.75 157.3 151.4C163 149.25 169.05 153.55 169.05 160.55ZM160.25 156.5C158.45 156.5 157.05 157.85 157.05 159.65C157.05 161.45 158.45 162.8 160.25 162.8C162 162.8 163.35 161.45 163.4 159.7C163.4 157.9 162.05 156.55 160.25 156.5Z" fill="#025FAC"/>
<path d="M161.799 97.2507C166.199 97.2507 170.599 97.2007 174.999 97.2507C175.999 97.2507 176.599 97.0007 177.099 96.0007C178.899 92.3007 182.999 90.5007 186.999 91.4007C190.899 92.3007 193.799 95.9007 193.849 99.9507C193.899 104.001 191.099 107.651 187.199 108.601C183.149 109.601 178.999 107.801 177.149 104.151C176.649 103.201 176.149 102.901 175.099 102.901C166.299 102.951 157.499 102.901 148.699 102.951C147.449 102.951 146.399 102.701 145.749 101.501C144.649 99.5007 145.799 97.3507 148.099 97.3007C150.799 97.2507 153.549 97.3007 156.249 97.3007C158.099 97.3007 159.949 97.3007 161.799 97.2507ZM188.099 100.101C188.099 98.3007 186.649 96.9507 184.849 96.9507C183.099 97.0007 181.799 98.3007 181.799 100.101C181.799 101.801 183.199 103.251 184.899 103.251C186.599 103.301 188.099 101.851 188.099 100.101Z" fill="#025FAC"/>
<path d="M39.2997 102.95C34.7997 102.95 30.3497 102.95 25.8497 102.95C25.0497 102.95 24.6497 103.15 24.2997 103.9C22.3497 107.9 17.9997 109.8 13.7997 108.6C9.54971 107.35 6.99971 103.2 7.59971 98.6502C8.14971 94.6002 11.8497 91.3002 16.1497 91.2502C19.6997 91.2002 22.4997 92.8002 24.1497 96.0002C24.6497 97.0002 25.2497 97.3002 26.3497 97.3002C35.1497 97.2502 43.9497 97.2502 52.7497 97.3002C54.6497 97.3002 55.7997 98.2002 55.9497 99.7502C56.1497 101.65 54.8997 102.95 52.7997 102.95C48.2997 102.95 43.7997 102.95 39.2997 102.95ZM13.1997 100.1C13.1997 101.85 14.5997 103.3 16.3497 103.3C18.0497 103.3 19.4497 101.85 19.4997 100.2C19.4997 98.4002 18.1497 97.0002 16.3997 97.0002C14.5497 96.9002 13.1997 98.2502 13.1997 100.1Z" fill="#025FAC"/>
<path d="M97.7994 36.7501C97.7994 33.0001 97.7994 29.2501 97.7994 25.5001C97.7994 24.6501 97.5994 24.1501 96.7494 23.7001C92.6494 21.7001 90.7994 17.1501 92.2494 12.9001C93.6494 8.70006 98.0494 6.20006 102.399 7.05006C106.699 7.90006 109.749 11.8501 109.449 16.3001C109.249 19.6001 107.599 22.1001 104.649 23.6001C103.699 24.0501 103.499 24.6001 103.499 25.5501C103.549 33.0501 103.499 40.5501 103.499 48.0501C103.499 49.9001 102.749 51.0501 101.399 51.3501C99.3994 51.8001 97.8994 50.6501 97.7994 48.6001C97.7494 46.9001 97.7994 45.1501 97.7994 43.4501C97.7994 41.2501 97.7994 39.0001 97.7994 36.7501ZM97.4494 15.8001C97.4494 17.6001 98.8494 18.9501 100.649 18.9501C102.299 18.9501 103.749 17.5001 103.749 15.8001C103.749 14.1001 102.299 12.6501 100.649 12.6501C98.8994 12.6501 97.4994 14.0001 97.4494 15.8001Z" fill="#025FAC"/>
<path d="M103.5 165.35C103.5 168.5 103.55 171.65 103.5 174.8C103.5 175.65 103.75 176.1 104.55 176.45C108.15 178.2 110.15 182.15 109.4 185.85C108.6 190 105.45 192.85 101.35 193.2C97.1999 193.55 93.3499 190.85 92.1499 186.75C90.9999 182.7 92.8499 178.35 96.6499 176.5C97.6499 176 97.8499 175.4 97.8499 174.4C97.7999 168.25 97.8499 162.05 97.8499 155.9C97.8499 153.3 99.4499 151.95 101.65 152.65C102.85 153.05 103.55 154.1 103.55 155.7C103.5 158.95 103.5 162.15 103.5 165.35ZM97.4499 184.3C97.3999 186.05 98.7999 187.5 100.6 187.55C102.2 187.6 103.75 186.1 103.8 184.45C103.85 182.8 102.45 181.3 100.9 181.25C98.9499 181.2 97.4999 182.45 97.4499 184.3Z" fill="#025FAC"/>
<path d="M169.05 39.55C169.05 46.65 163.05 50.9 157.25 48.8C156.45 48.5 156 48.7 155.45 49.25C152.4 52.35 149.3 55.4 146.2 58.45C144.95 59.7 143.45 59.85 142.25 58.95C140.75 57.85 140.65 56 142.1 54.55C145 51.6 147.9 48.65 150.9 45.8C151.8 44.9 152.15 44.25 151.75 42.85C150.7 39.3 151.65 36.05 154.5 33.65C157.35 31.3 160.6 30.85 163.9 32.4C167.3 34.05 168.95 36.8 169.05 39.55ZM160.25 43.65C161.95 43.65 163.4 42.25 163.4 40.55C163.4 38.8 161.95 37.3 160.25 37.3C158.5 37.3 157.05 38.8 157.1 40.55C157.1 42.2 158.55 43.65 160.25 43.65Z" fill="#025FAC"/>
<path d="M32.1995 39.6997C32.3495 36.7497 33.9995 33.9997 37.3495 32.4497C40.8495 30.8497 44.1495 31.3997 46.9495 33.9497C49.6495 36.3497 50.5495 39.4997 49.4495 42.9997C49.0495 44.2497 49.3495 44.9497 50.1995 45.7497C52.9495 48.3497 55.5995 51.0497 58.2995 53.7497C59.5995 55.0497 59.5995 56.6997 58.4495 57.8997C57.3495 59.0497 55.5495 58.9997 54.2995 57.7497C51.5495 54.9997 48.7995 52.2997 46.0995 49.4997C45.3495 48.6997 44.7495 48.4997 43.6995 48.8497C37.9495 50.7497 32.1495 46.4497 32.1995 39.6997ZM44.1495 40.4997C44.1495 38.6997 42.7495 37.2497 40.9995 37.2497C39.3495 37.2497 37.8495 38.7497 37.8495 40.3997C37.7995 42.1497 39.2995 43.6497 41.0495 43.5997C42.7495 43.6497 44.1495 42.1997 44.1495 40.4997Z" fill="#025FAC"/>
<path d="M136.2 64.9C136.2 61.9 134.3 60.7 131.55 61.95C130.3 62.5 129.05 63.1 127.8 63.65C121.7 66.45 115.45 66.95 109.1 64.7C106.85 63.9 104.75 62.85 102.55 61.9C101.3 61.35 100.1 61.25 98.8496 61.9C97.2996 62.7 95.7496 63.35 94.1496 64.05C88.7496 66.35 83.1996 66.8 77.5996 65.05C74.9996 64.25 72.4996 63 69.9496 62C69.1996 61.7 68.3496 61.45 67.5996 61.45C65.9496 61.55 65.0496 62.85 65.0496 64.9C65.0496 75.45 64.9996 86.05 65.0996 96.6C65.1496 99.45 65.3496 102.4 65.9496 105.2C68.3496 116.1 73.9996 125.05 83.0496 131.6C88.0496 135.25 93.4996 138.25 98.6996 141.65C100.05 142.5 101.25 142.45 102.55 141.65C106.7 139.05 110.9 136.6 114.95 133.95C119.35 131.1 123.3 127.75 126.6 123.6C132.65 116 135.9 107.35 136.15 97.65C136.25 92.45 136.15 87.2 136.15 82H136.2C136.2 76.3 136.2 70.6 136.2 64.9ZM117.55 88.7C113.35 92.9 109.05 97.05 104.85 101.25C102.15 103.95 99.4996 106.7 96.7996 109.45C94.7996 111.5 93.4996 111.45 91.4496 109.45C89.2996 107.3 87.1496 105.2 85.0496 103.05C83.3496 101.3 83.5496 99.15 85.4496 98.2C86.5996 97.6 87.8496 97.85 88.9496 99C90.6496 100.65 92.2496 102.35 94.0996 104.25C95.4496 102.9 96.6496 101.65 97.8496 100.45C103.1 95.2 108.3 89.95 113.55 84.75C114.95 83.35 116.7 83.25 117.8 84.35C119.15 85.5 119.05 87.2 117.55 88.7Z" fill="#025FAC"/>
</svg>
