<svg width="200" height="166" viewBox="0 0 200 166" fill="none" xmlns="http://www.w3.org/2000/svg">
<mask id="path-1-inside-1_434_24535" fill="white">
<path d="M62.5851 136.523L57.5953 157.949H89.9522C87.7669 154.866 86.572 151.108 86.5462 147.236V136.523H62.5851ZM55.7731 136.523H16.6723C14.4837 136.526 12.3161 136.066 10.2934 135.17C8.27071 134.274 6.43264 132.96 4.88424 131.302C3.33585 129.644 2.10751 127.676 1.26944 125.509C0.431365 123.342 -1.1441e-06 121.02 0 118.675V18.6819C-1.1441e-06 16.3364 0.431365 14.014 1.26944 11.8473C2.10751 9.68061 3.33585 7.71218 4.88424 6.05454C6.43264 4.3969 8.27071 3.08255 10.2934 2.18665C12.3161 1.29074 14.4837 0.830843 16.6723 0.833241H163.266C165.461 0.821219 167.636 1.27401 169.666 2.16561C171.697 3.0572 173.543 4.37002 175.098 6.02862C176.654 7.68722 177.888 9.6589 178.731 11.8304C179.573 14.0018 180.007 16.3303 180.007 18.6819V57.9563H186.665C190.201 57.9611 193.59 59.4682 196.089 62.147C198.589 64.8258 199.995 68.4577 200 72.2461V150.722C200.009 152.611 199.668 154.483 198.998 156.23C198.328 157.977 197.341 159.564 196.094 160.899C194.848 162.235 193.367 163.293 191.737 164.011C190.107 164.729 188.36 165.094 186.597 165.085H159.945C157.666 165.092 155.424 164.463 153.44 163.26C153.144 163.809 152.72 164.266 152.21 164.586C151.699 164.906 151.119 165.078 150.528 165.085H39.9863C39.4895 165.2 38.975 165.194 38.4805 165.068C37.986 164.942 37.524 164.699 37.1285 164.357C36.733 164.015 36.414 163.582 36.1948 163.091C35.9757 162.599 35.8619 162.061 35.8619 161.517C35.8619 160.972 35.9757 160.434 36.1948 159.943C36.414 159.451 36.733 159.019 37.1285 158.677C37.524 158.335 37.986 158.092 38.4805 157.966C38.975 157.84 39.4895 157.834 39.9863 157.949H53.3208L50.0851 160.65L55.7731 136.523ZM148.399 157.949C147.254 155.766 146.667 153.299 146.696 150.795V72.3191C146.701 68.5307 148.107 64.8988 150.607 62.22C153.106 59.5412 156.495 58.0341 160.031 58.0293H173.195V54.3975C173.195 51.5562 172.141 48.8314 170.267 46.8223C168.392 44.8133 165.849 43.6846 163.198 43.6846H103.372C100.721 43.6846 98.1779 44.8133 96.3032 46.8223C94.4285 48.8314 93.3753 51.5562 93.3753 54.3975V147.236C93.3753 150.077 94.4285 152.802 96.3032 154.811C98.1779 156.82 100.721 157.949 103.372 157.949H148.399ZM59.8433 129.369H86.6314V54.3975C86.6314 52.0459 87.065 49.7174 87.9073 47.5459C88.7496 45.3745 89.9841 43.4028 91.5397 41.7442C93.0953 40.0856 94.9414 38.7728 96.972 37.8812C99.0025 36.9896 101.177 36.5368 103.372 36.5488H163.266C166.848 36.5501 170.333 37.7991 173.195 40.1076V18.6819C173.195 15.8407 172.141 13.1158 170.267 11.1068C168.392 9.09773 165.849 7.96906 163.198 7.96906H16.6723C14.0211 7.96906 11.4784 9.09773 9.60368 11.1068C7.72895 13.1158 6.67574 15.8407 6.67574 18.6819V118.675C6.67574 120.081 6.93443 121.473 7.43702 122.771C7.9396 124.07 8.67621 125.25 9.60471 126.243C10.5332 127.237 11.6353 128.024 12.8481 128.56C14.0608 129.097 15.3604 129.372 16.6723 129.369H59.8433ZM159.945 65.1103C158.178 65.1103 156.482 65.8615 155.231 67.1992C153.979 68.5369 153.274 70.3519 153.27 72.2461V150.722C153.27 152.619 153.973 154.439 155.225 155.781C156.477 157.122 158.175 157.876 159.945 157.876H186.597C187.473 157.876 188.34 157.691 189.149 157.331C189.958 156.971 190.693 156.444 191.312 155.779C191.93 155.115 192.42 154.326 192.754 153.458C193.088 152.59 193.258 151.66 193.256 150.722V72.2461C193.256 70.3536 192.554 68.5386 191.306 67.2003C190.057 65.8621 188.363 65.1103 186.597 65.1103H159.945ZM121.628 143.586H138.283C138.735 143.586 139.168 143.778 139.487 144.121C139.807 144.463 139.986 144.927 139.986 145.411V149.061C139.986 149.545 139.807 150.009 139.487 150.352C139.168 150.694 138.735 150.886 138.283 150.886H121.628C121.176 150.886 120.743 150.694 120.424 150.352C120.104 150.009 119.925 149.545 119.925 149.061V145.411C119.943 144.94 120.13 144.494 120.447 144.167C120.765 143.841 121.188 143.659 121.628 143.659V143.586ZM168.852 143.586H178.849C179.3 143.586 179.733 143.778 180.053 144.121C180.372 144.463 180.552 144.927 180.552 145.411V149.061C180.552 149.545 180.372 150.009 180.053 150.352C179.733 150.694 179.3 150.886 178.849 150.886H168.852C168.4 150.886 167.967 150.694 167.648 150.352C167.328 150.009 167.149 149.545 167.149 149.061V145.411C167.167 144.94 167.354 144.494 167.671 144.167C167.989 143.841 168.412 143.659 168.852 143.659V143.586Z"/>
</mask>
<path d="M62.5851 136.523L57.5953 157.949H89.9522C87.7669 154.866 86.572 151.108 86.5462 147.236V136.523H62.5851ZM55.7731 136.523H16.6723C14.4837 136.526 12.3161 136.066 10.2934 135.17C8.27071 134.274 6.43264 132.96 4.88424 131.302C3.33585 129.644 2.10751 127.676 1.26944 125.509C0.431365 123.342 -1.1441e-06 121.02 0 118.675V18.6819C-1.1441e-06 16.3364 0.431365 14.014 1.26944 11.8473C2.10751 9.68061 3.33585 7.71218 4.88424 6.05454C6.43264 4.3969 8.27071 3.08255 10.2934 2.18665C12.3161 1.29074 14.4837 0.830843 16.6723 0.833241H163.266C165.461 0.821219 167.636 1.27401 169.666 2.16561C171.697 3.0572 173.543 4.37002 175.098 6.02862C176.654 7.68722 177.888 9.6589 178.731 11.8304C179.573 14.0018 180.007 16.3303 180.007 18.6819V57.9563H186.665C190.201 57.9611 193.59 59.4682 196.089 62.147C198.589 64.8258 199.995 68.4577 200 72.2461V150.722C200.009 152.611 199.668 154.483 198.998 156.23C198.328 157.977 197.341 159.564 196.094 160.899C194.848 162.235 193.367 163.293 191.737 164.011C190.107 164.729 188.36 165.094 186.597 165.085H159.945C157.666 165.092 155.424 164.463 153.44 163.26C153.144 163.809 152.72 164.266 152.21 164.586C151.699 164.906 151.119 165.078 150.528 165.085H39.9863C39.4895 165.2 38.975 165.194 38.4805 165.068C37.986 164.942 37.524 164.699 37.1285 164.357C36.733 164.015 36.414 163.582 36.1948 163.091C35.9757 162.599 35.8619 162.061 35.8619 161.517C35.8619 160.972 35.9757 160.434 36.1948 159.943C36.414 159.451 36.733 159.019 37.1285 158.677C37.524 158.335 37.986 158.092 38.4805 157.966C38.975 157.84 39.4895 157.834 39.9863 157.949H53.3208L50.0851 160.65L55.7731 136.523ZM148.399 157.949C147.254 155.766 146.667 153.299 146.696 150.795V72.3191C146.701 68.5307 148.107 64.8988 150.607 62.22C153.106 59.5412 156.495 58.0341 160.031 58.0293H173.195V54.3975C173.195 51.5562 172.141 48.8314 170.267 46.8223C168.392 44.8133 165.849 43.6846 163.198 43.6846H103.372C100.721 43.6846 98.1779 44.8133 96.3032 46.8223C94.4285 48.8314 93.3753 51.5562 93.3753 54.3975V147.236C93.3753 150.077 94.4285 152.802 96.3032 154.811C98.1779 156.82 100.721 157.949 103.372 157.949H148.399ZM59.8433 129.369H86.6314V54.3975C86.6314 52.0459 87.065 49.7174 87.9073 47.5459C88.7496 45.3745 89.9841 43.4028 91.5397 41.7442C93.0953 40.0856 94.9414 38.7728 96.972 37.8812C99.0025 36.9896 101.177 36.5368 103.372 36.5488H163.266C166.848 36.5501 170.333 37.7991 173.195 40.1076V18.6819C173.195 15.8407 172.141 13.1158 170.267 11.1068C168.392 9.09773 165.849 7.96906 163.198 7.96906H16.6723C14.0211 7.96906 11.4784 9.09773 9.60368 11.1068C7.72895 13.1158 6.67574 15.8407 6.67574 18.6819V118.675C6.67574 120.081 6.93443 121.473 7.43702 122.771C7.9396 124.07 8.67621 125.25 9.60471 126.243C10.5332 127.237 11.6353 128.024 12.8481 128.56C14.0608 129.097 15.3604 129.372 16.6723 129.369H59.8433ZM159.945 65.1103C158.178 65.1103 156.482 65.8615 155.231 67.1992C153.979 68.5369 153.274 70.3519 153.27 72.2461V150.722C153.27 152.619 153.973 154.439 155.225 155.781C156.477 157.122 158.175 157.876 159.945 157.876H186.597C187.473 157.876 188.34 157.691 189.149 157.331C189.958 156.971 190.693 156.444 191.312 155.779C191.93 155.115 192.42 154.326 192.754 153.458C193.088 152.59 193.258 151.66 193.256 150.722V72.2461C193.256 70.3536 192.554 68.5386 191.306 67.2003C190.057 65.8621 188.363 65.1103 186.597 65.1103H159.945ZM121.628 143.586H138.283C138.735 143.586 139.168 143.778 139.487 144.121C139.807 144.463 139.986 144.927 139.986 145.411V149.061C139.986 149.545 139.807 150.009 139.487 150.352C139.168 150.694 138.735 150.886 138.283 150.886H121.628C121.176 150.886 120.743 150.694 120.424 150.352C120.104 150.009 119.925 149.545 119.925 149.061V145.411C119.943 144.94 120.13 144.494 120.447 144.167C120.765 143.841 121.188 143.659 121.628 143.659V143.586ZM168.852 143.586H178.849C179.3 143.586 179.733 143.778 180.053 144.121C180.372 144.463 180.552 144.927 180.552 145.411V149.061C180.552 149.545 180.372 150.009 180.053 150.352C179.733 150.694 179.3 150.886 178.849 150.886H168.852C168.4 150.886 167.967 150.694 167.648 150.352C167.328 150.009 167.149 149.545 167.149 149.061V145.411C167.167 144.94 167.354 144.494 167.671 144.167C167.989 143.841 168.412 143.659 168.852 143.659V143.586Z" stroke="#5A98FD" stroke-width="4" mask="url(#path-1-inside-1_434_24535)"/>
</svg>
