<svg width="200" height="194" viewBox="0 0 200 194" fill="none" xmlns="http://www.w3.org/2000/svg">
<mask id="path-1-inside-1_434_24545" fill="white">
<path d="M9.82368 0.634766C8.81901 0.772573 7.89361 1.29104 7.21502 2.0963C6.53642 2.90156 6.14949 3.9404 6.12425 5.02474V52.5864L0.12517 73.8082C-0.025584 74.461 -0.0403559 75.1413 0.0819026 75.8008C0.204161 76.4603 0.460453 77.083 0.832598 77.6246C1.20474 78.1662 1.68362 78.6134 2.23526 78.9346C2.7869 79.2558 3.39778 79.443 4.02457 79.4831H77.5533C78.1788 79.4394 78.7877 79.2498 79.3376 78.9275C79.8874 78.6052 80.3648 78.1581 80.7363 77.6175C81.1078 77.0769 81.3644 76.4558 81.4881 75.7978C81.6119 75.1397 81.5998 74.4607 81.4527 73.8082L75.4536 52.5864V5.02474C75.3961 3.90886 74.9563 2.85489 74.2184 2.06465C73.4804 1.2744 72.4962 0.803401 71.4542 0.741838L9.82368 0.634766ZM14.283 9.39331H67.3549V48.8175H14.283V9.39331ZM159.201 24.7261C156.368 24.7219 153.598 25.6175 151.241 27.2997C148.884 28.982 147.045 31.3751 145.959 34.1765C144.872 36.9778 144.585 40.0614 145.136 43.0371C145.686 46.0127 147.048 48.7468 149.049 50.8933C151.051 53.0397 153.602 54.5022 156.38 55.0955C159.158 55.6889 162.038 55.3865 164.655 54.2266C167.273 53.0667 169.51 51.1015 171.084 48.5796C172.658 46.0577 173.499 43.0924 173.499 40.0589C173.488 35.9996 171.979 32.1094 169.3 29.237C166.622 26.3646 162.991 24.7431 159.201 24.7261ZM79.593 33.4847V42.2432H140.824V33.4847H79.593ZM159.201 33.4847C160.416 33.4804 161.605 33.8624 162.617 34.5822C163.629 35.302 164.419 36.3273 164.887 37.5282C165.354 38.7291 165.479 40.0516 165.244 41.3283C165.01 42.605 164.427 43.7784 163.569 44.7C162.711 45.6216 161.617 46.2498 160.426 46.5052C159.234 46.7607 157.999 46.6317 156.876 46.1348C155.753 45.6378 154.793 44.7952 154.118 43.7136C153.442 42.632 153.082 41.3601 153.082 40.0589C153.063 39.1918 153.208 38.3295 153.508 37.5241C153.809 36.7187 154.258 35.9867 154.83 35.3724C155.402 34.7581 156.084 34.2741 156.835 33.9497C157.586 33.6253 158.391 33.4671 159.201 33.4847ZM13.2232 57.576H68.4347L72.0141 70.7245H9.56372L13.1832 57.576H13.2232ZM155.201 59.7175V110.149H163.36V59.7603L155.201 59.7175ZM36.7396 83.8516V136.424H44.8983V83.8516H36.7396ZM128.206 114.517C127.219 114.656 126.309 115.16 125.633 115.942C124.957 116.725 124.558 117.736 124.506 118.8V166.469L118.507 187.691C118.359 188.352 118.349 189.039 118.479 189.705C118.608 190.37 118.874 190.997 119.256 191.539C119.638 192.082 120.128 192.527 120.69 192.842C121.252 193.158 121.872 193.337 122.506 193.366H195.995C196.62 193.323 197.229 193.133 197.778 192.811C198.327 192.488 198.804 192.041 199.174 191.499C199.544 190.958 199.798 190.336 199.919 189.678C200.04 189.02 200.025 188.342 199.875 187.691L193.875 166.469V118.907C193.809 117.795 193.367 116.746 192.631 115.957C191.894 115.169 190.915 114.695 189.876 114.624L128.206 114.517ZM132.665 123.276H185.737V162.7H132.665V123.276ZM40.8189 140.729C37.9854 140.72 35.2133 141.612 32.8535 143.292C30.4937 144.971 28.6523 147.363 27.5625 150.164C26.4727 152.965 26.1835 156.049 26.7314 159.026C27.2793 162.003 28.6398 164.74 30.6406 166.888C32.6413 169.037 35.1925 170.501 37.9709 171.096C40.7494 171.692 43.6303 171.39 46.2488 170.231C48.8674 169.072 51.1059 167.107 52.6809 164.584C54.256 162.062 55.0967 159.096 55.0967 156.061C55.081 152.008 53.573 148.124 50.8999 145.253C48.2268 142.383 44.6044 140.757 40.8189 140.729ZM40.8189 149.487C42.034 149.483 43.2228 149.865 44.235 150.585C45.2472 151.305 46.0372 152.33 46.5049 153.531C46.9726 154.732 47.0971 156.054 46.8624 157.331C46.6278 158.608 46.0447 159.781 45.187 160.703C44.3292 161.624 43.2354 162.252 42.044 162.508C40.8526 162.763 39.6172 162.634 38.4943 162.137C37.3713 161.64 36.4113 160.798 35.7359 159.716C35.0604 158.635 34.6999 157.363 34.6999 156.061C34.6808 155.194 34.8259 154.332 35.1264 153.527C35.4269 152.721 35.8766 151.989 36.4484 151.375C37.0201 150.761 37.7022 150.277 38.4533 149.952C39.2044 149.628 40.0092 149.47 40.8189 149.487ZM59.1961 151.757V160.516H120.427V151.757H59.1961ZM131.585 171.458H186.837L190.456 184.607H128.006L131.645 171.458H131.585Z"/>
</mask>
<path d="M9.82368 0.634766C8.81901 0.772573 7.89361 1.29104 7.21502 2.0963C6.53642 2.90156 6.14949 3.9404 6.12425 5.02474V52.5864L0.12517 73.8082C-0.025584 74.461 -0.0403559 75.1413 0.0819026 75.8008C0.204161 76.4603 0.460453 77.083 0.832598 77.6246C1.20474 78.1662 1.68362 78.6134 2.23526 78.9346C2.7869 79.2558 3.39778 79.443 4.02457 79.4831H77.5533C78.1788 79.4394 78.7877 79.2498 79.3376 78.9275C79.8874 78.6052 80.3648 78.1581 80.7363 77.6175C81.1078 77.0769 81.3644 76.4558 81.4881 75.7978C81.6119 75.1397 81.5998 74.4607 81.4527 73.8082L75.4536 52.5864V5.02474C75.3961 3.90886 74.9563 2.85489 74.2184 2.06465C73.4804 1.2744 72.4962 0.803401 71.4542 0.741838L9.82368 0.634766ZM14.283 9.39331H67.3549V48.8175H14.283V9.39331ZM159.201 24.7261C156.368 24.7219 153.598 25.6175 151.241 27.2997C148.884 28.982 147.045 31.3751 145.959 34.1765C144.872 36.9778 144.585 40.0614 145.136 43.0371C145.686 46.0127 147.048 48.7468 149.049 50.8933C151.051 53.0397 153.602 54.5022 156.38 55.0955C159.158 55.6889 162.038 55.3865 164.655 54.2266C167.273 53.0667 169.51 51.1015 171.084 48.5796C172.658 46.0577 173.499 43.0924 173.499 40.0589C173.488 35.9996 171.979 32.1094 169.3 29.237C166.622 26.3646 162.991 24.7431 159.201 24.7261ZM79.593 33.4847V42.2432H140.824V33.4847H79.593ZM159.201 33.4847C160.416 33.4804 161.605 33.8624 162.617 34.5822C163.629 35.302 164.419 36.3273 164.887 37.5282C165.354 38.7291 165.479 40.0516 165.244 41.3283C165.01 42.605 164.427 43.7784 163.569 44.7C162.711 45.6216 161.617 46.2498 160.426 46.5052C159.234 46.7607 157.999 46.6317 156.876 46.1348C155.753 45.6378 154.793 44.7952 154.118 43.7136C153.442 42.632 153.082 41.3601 153.082 40.0589C153.063 39.1918 153.208 38.3295 153.508 37.5241C153.809 36.7187 154.258 35.9867 154.83 35.3724C155.402 34.7581 156.084 34.2741 156.835 33.9497C157.586 33.6253 158.391 33.4671 159.201 33.4847ZM13.2232 57.576H68.4347L72.0141 70.7245H9.56372L13.1832 57.576H13.2232ZM155.201 59.7175V110.149H163.36V59.7603L155.201 59.7175ZM36.7396 83.8516V136.424H44.8983V83.8516H36.7396ZM128.206 114.517C127.219 114.656 126.309 115.16 125.633 115.942C124.957 116.725 124.558 117.736 124.506 118.8V166.469L118.507 187.691C118.359 188.352 118.349 189.039 118.479 189.705C118.608 190.37 118.874 190.997 119.256 191.539C119.638 192.082 120.128 192.527 120.69 192.842C121.252 193.158 121.872 193.337 122.506 193.366H195.995C196.62 193.323 197.229 193.133 197.778 192.811C198.327 192.488 198.804 192.041 199.174 191.499C199.544 190.958 199.798 190.336 199.919 189.678C200.04 189.02 200.025 188.342 199.875 187.691L193.875 166.469V118.907C193.809 117.795 193.367 116.746 192.631 115.957C191.894 115.169 190.915 114.695 189.876 114.624L128.206 114.517ZM132.665 123.276H185.737V162.7H132.665V123.276ZM40.8189 140.729C37.9854 140.72 35.2133 141.612 32.8535 143.292C30.4937 144.971 28.6523 147.363 27.5625 150.164C26.4727 152.965 26.1835 156.049 26.7314 159.026C27.2793 162.003 28.6398 164.74 30.6406 166.888C32.6413 169.037 35.1925 170.501 37.9709 171.096C40.7494 171.692 43.6303 171.39 46.2488 170.231C48.8674 169.072 51.1059 167.107 52.6809 164.584C54.256 162.062 55.0967 159.096 55.0967 156.061C55.081 152.008 53.573 148.124 50.8999 145.253C48.2268 142.383 44.6044 140.757 40.8189 140.729ZM40.8189 149.487C42.034 149.483 43.2228 149.865 44.235 150.585C45.2472 151.305 46.0372 152.33 46.5049 153.531C46.9726 154.732 47.0971 156.054 46.8624 157.331C46.6278 158.608 46.0447 159.781 45.187 160.703C44.3292 161.624 43.2354 162.252 42.044 162.508C40.8526 162.763 39.6172 162.634 38.4943 162.137C37.3713 161.64 36.4113 160.798 35.7359 159.716C35.0604 158.635 34.6999 157.363 34.6999 156.061C34.6808 155.194 34.8259 154.332 35.1264 153.527C35.4269 152.721 35.8766 151.989 36.4484 151.375C37.0201 150.761 37.7022 150.277 38.4533 149.952C39.2044 149.628 40.0092 149.47 40.8189 149.487ZM59.1961 151.757V160.516H120.427V151.757H59.1961ZM131.585 171.458H186.837L190.456 184.607H128.006L131.645 171.458H131.585Z" stroke="#5A98FD" stroke-width="4" mask="url(#path-1-inside-1_434_24545)"/>
</svg>
