<svg width="200" height="236" viewBox="0 0 200 236" fill="none" xmlns="http://www.w3.org/2000/svg">
<mask id="path-1-inside-1_434_24554" fill="white">
<path d="M184.644 155.935C186.625 155.867 188.598 156.234 190.442 157.012C192.286 157.791 193.963 158.965 195.369 160.464C196.775 161.962 197.881 163.752 198.619 165.725C199.357 167.698 199.711 169.812 199.661 171.937C199.661 176.325 198.035 180.535 195.141 183.638C192.248 186.741 188.323 188.485 184.231 188.485C180.139 188.485 176.215 186.741 173.321 183.638C170.427 180.535 168.802 176.325 168.802 171.937C168.774 169.841 169.198 167.766 170.039 165.874L140.806 147.661L103.857 170.636V202.665C107.462 203.721 110.588 206.144 112.653 209.484C114.718 212.824 115.583 216.855 115.086 220.828C114.59 224.8 112.766 228.444 109.953 231.083C107.141 233.722 103.531 235.177 99.7938 235.177C96.0567 235.177 92.4467 233.722 89.6341 231.083C86.8215 228.444 84.9976 224.8 84.5011 220.828C84.0046 216.855 84.8693 212.824 86.9345 209.484C88.9997 206.144 92.1251 203.721 95.7302 202.665V170.636L58.7578 147.713L29.6456 165.874C30.4674 167.772 30.8819 169.844 30.8586 171.937C30.8778 175.214 29.9893 178.423 28.3056 181.158C26.6219 183.893 24.2189 186.031 21.4013 187.299C18.5837 188.568 15.4783 188.91 12.4789 188.283C9.47956 187.657 6.72122 186.089 4.55366 183.779C2.38609 181.469 0.906914 178.52 0.303658 175.308C-0.299598 172.095 0.000238448 168.762 1.16515 165.732C2.33006 162.702 4.30759 160.112 6.84701 158.289C9.38643 156.466 12.3734 155.493 15.4291 155.493C18.8318 155.437 22.1452 156.661 24.7936 158.953L55.24 140.35V94.452L24.7936 75.8484C22.0431 78.0663 18.6744 79.2219 15.2343 79.1279C11.7943 79.0338 8.48486 77.6954 5.84336 75.33C3.20186 72.9646 1.38336 69.7112 0.68307 66.0977C-0.0172188 62.4843 0.441825 58.7231 1.98568 55.4247C3.52953 52.1264 6.06755 49.4845 9.18771 47.928C12.3079 46.3714 15.827 45.9917 19.1737 46.8504C22.5204 47.709 25.4983 49.7557 27.6239 52.6581C29.7494 55.5605 30.8979 59.1483 30.8829 62.8389C30.8673 65.0616 30.4556 67.2607 29.6699 69.3176L58.782 87.5309L95.7302 64.5821V33.3593C92.4744 32.3673 89.6069 30.2681 87.5593 27.3776C85.5118 24.4871 84.3948 20.9616 84.3765 17.3316C84.3833 14.2439 85.1954 11.2199 86.7211 8.60146C88.2467 5.983 90.425 3.87455 93.0097 2.51452C95.5943 1.1545 98.4821 0.597142 101.347 0.90548C104.211 1.21382 106.938 2.37555 109.219 4.25932C111.5 6.14308 113.245 8.67374 114.255 11.5651C115.265 14.4565 115.5 17.5934 114.935 20.6209C114.369 23.6484 113.025 26.4459 111.055 28.697C109.085 30.9482 106.566 32.5631 103.785 33.3593V64.5821L140.733 87.5309L170.354 69.7859C169.569 67.7291 169.157 65.53 169.141 63.3072C169.122 60.0299 170.011 56.8204 171.694 54.0854C173.378 51.3504 175.781 49.2132 178.599 47.9448C181.416 46.6763 184.522 46.3337 187.521 46.9604C190.52 47.5871 193.279 49.1549 195.446 51.465C197.614 53.7751 199.093 56.7235 199.696 59.9363C200.3 63.1491 200 66.4817 198.835 69.5115C197.67 72.5414 195.692 75.132 193.153 76.955C190.614 78.7779 187.627 79.7512 184.571 79.7512C181.183 79.8441 177.871 78.6662 175.206 76.4208L144.857 94.8943V140.766L175.206 159.395C177.848 157.109 181.152 155.885 184.547 155.935H184.644ZM184.644 55.0592C182.713 55.0592 180.862 55.8816 179.497 57.3454C178.132 58.8093 177.366 60.7947 177.366 62.8649C177.366 64.9351 178.132 66.9205 179.497 68.3844C180.862 69.8482 182.713 70.6706 184.644 70.6706C186.574 70.6706 188.425 69.8482 189.79 68.3844C191.155 66.9205 191.922 64.9351 191.922 62.8649C191.922 60.7947 191.155 58.8093 189.79 57.3454C188.425 55.8816 186.574 55.0592 184.644 55.0592ZM92.4794 17.4097C92.4266 18.4692 92.5758 19.5292 92.9178 20.5248C93.2599 21.5204 93.7876 22.4308 94.4688 23.2003C95.1499 23.9698 95.9702 24.5823 96.8795 25.0003C97.7888 25.4183 98.7681 25.6332 99.7574 25.6317C101.729 25.5439 103.591 24.6366 104.949 23.1019C106.308 21.5672 107.056 19.5257 107.035 17.4097C107.035 15.3395 106.269 13.354 104.904 11.8902C103.539 10.4263 101.688 9.60395 99.7574 9.60395C97.8271 9.60395 95.9759 10.4263 94.611 11.8902C93.2461 13.354 92.4794 15.3395 92.4794 17.4097ZM7.22922 62.8649C7.22922 64.9351 7.99601 66.9205 9.36091 68.3844C10.7258 69.8482 12.577 70.6706 14.5073 70.6706C16.4375 70.6706 18.2887 69.8482 19.6536 68.3844C21.0185 66.9205 21.7853 64.9351 21.7853 62.8649C21.7853 60.7947 21.0185 58.8093 19.6536 57.3454C18.2887 55.8816 16.4375 55.0592 14.5073 55.0592C12.577 55.0592 10.7258 55.8816 9.36091 57.3454C7.99601 58.8093 7.22922 60.7947 7.22922 62.8649ZM14.9439 180.497C16.8531 180.426 18.6659 179.58 20.0167 178.132C21.3675 176.683 22.1556 174.739 22.222 172.691C22.2595 171.011 21.8378 169.356 21.009 167.93C20.5966 167.93 20.5966 167.513 20.2084 167.071C18.7604 165.665 16.8727 164.895 14.9197 164.911C12.9894 164.911 11.1382 165.734 9.77333 167.198C8.40844 168.662 7.64165 170.647 7.64165 172.717C7.64165 174.787 8.40844 176.773 9.77333 178.237C11.1382 179.701 12.9894 180.523 14.9197 180.523L14.9439 180.497ZM107.132 218.589C107.132 216.519 106.366 214.533 105.001 213.069C103.636 211.605 101.785 210.783 99.8544 210.783C97.9242 210.783 96.073 211.605 94.7081 213.069C93.3432 214.533 92.5764 216.519 92.5764 218.589C92.5764 220.659 93.3432 222.644 94.7081 224.108C96.073 225.572 97.9242 226.394 99.8544 226.394C101.785 226.394 103.636 225.572 105.001 224.108C106.366 222.644 107.132 220.659 107.132 218.589ZM184.644 180.497C186.574 180.497 188.425 179.674 189.79 178.211C191.155 176.747 191.922 174.761 191.922 172.691C191.922 170.621 191.155 168.636 189.79 167.172C188.425 165.708 186.574 164.885 184.644 164.885C182.713 164.885 180.862 165.708 179.497 167.172C178.132 168.636 177.366 170.621 177.366 172.691C177.366 174.761 178.132 176.747 179.497 178.211C180.862 179.674 182.713 180.497 184.644 180.497ZM125.352 108.788C126.596 107.448 127.295 105.633 127.295 103.741C127.295 101.849 126.596 100.034 125.352 98.6931C124.746 98.0409 124.025 97.5235 123.232 97.1704C122.439 96.8173 121.589 96.6356 120.73 96.6356C119.872 96.6356 119.021 96.8173 118.228 97.1704C117.435 97.5235 116.715 98.0409 116.109 98.6931L94.2746 122.11L85.735 112.873C85.1288 112.221 84.4085 111.704 83.6154 111.351C82.8224 110.998 81.9721 110.816 81.1135 110.816C80.2548 110.816 79.4046 110.998 78.6115 111.351C77.8185 111.704 77.0982 112.221 76.4919 112.873C75.2534 114.218 74.5588 116.031 74.5588 117.921C74.5588 119.811 75.2534 121.625 76.4919 122.969L89.6652 137.279C90.2735 137.932 90.9958 138.45 91.7909 138.804C92.586 139.157 93.4382 139.339 94.2989 139.339C95.1595 139.339 96.0117 139.157 96.8068 138.804C97.6019 138.45 98.3242 137.932 98.9325 137.279L125.352 108.788Z"/>
</mask>
<path d="M184.644 155.935C186.625 155.867 188.598 156.234 190.442 157.012C192.286 157.791 193.963 158.965 195.369 160.464C196.775 161.962 197.881 163.752 198.619 165.725C199.357 167.698 199.711 169.812 199.661 171.937C199.661 176.325 198.035 180.535 195.141 183.638C192.248 186.741 188.323 188.485 184.231 188.485C180.139 188.485 176.215 186.741 173.321 183.638C170.427 180.535 168.802 176.325 168.802 171.937C168.774 169.841 169.198 167.766 170.039 165.874L140.806 147.661L103.857 170.636V202.665C107.462 203.721 110.588 206.144 112.653 209.484C114.718 212.824 115.583 216.855 115.086 220.828C114.59 224.8 112.766 228.444 109.953 231.083C107.141 233.722 103.531 235.177 99.7938 235.177C96.0567 235.177 92.4467 233.722 89.6341 231.083C86.8215 228.444 84.9976 224.8 84.5011 220.828C84.0046 216.855 84.8693 212.824 86.9345 209.484C88.9997 206.144 92.1251 203.721 95.7302 202.665V170.636L58.7578 147.713L29.6456 165.874C30.4674 167.772 30.8819 169.844 30.8586 171.937C30.8778 175.214 29.9893 178.423 28.3056 181.158C26.6219 183.893 24.2189 186.031 21.4013 187.299C18.5837 188.568 15.4783 188.91 12.4789 188.283C9.47956 187.657 6.72122 186.089 4.55366 183.779C2.38609 181.469 0.906914 178.52 0.303658 175.308C-0.299598 172.095 0.000238448 168.762 1.16515 165.732C2.33006 162.702 4.30759 160.112 6.84701 158.289C9.38643 156.466 12.3734 155.493 15.4291 155.493C18.8318 155.437 22.1452 156.661 24.7936 158.953L55.24 140.35V94.452L24.7936 75.8484C22.0431 78.0663 18.6744 79.2219 15.2343 79.1279C11.7943 79.0338 8.48486 77.6954 5.84336 75.33C3.20186 72.9646 1.38336 69.7112 0.68307 66.0977C-0.0172188 62.4843 0.441825 58.7231 1.98568 55.4247C3.52953 52.1264 6.06755 49.4845 9.18771 47.928C12.3079 46.3714 15.827 45.9917 19.1737 46.8504C22.5204 47.709 25.4983 49.7557 27.6239 52.6581C29.7494 55.5605 30.8979 59.1483 30.8829 62.8389C30.8673 65.0616 30.4556 67.2607 29.6699 69.3176L58.782 87.5309L95.7302 64.5821V33.3593C92.4744 32.3673 89.6069 30.2681 87.5593 27.3776C85.5118 24.4871 84.3948 20.9616 84.3765 17.3316C84.3833 14.2439 85.1954 11.2199 86.7211 8.60146C88.2467 5.983 90.425 3.87455 93.0097 2.51452C95.5943 1.1545 98.4821 0.597142 101.347 0.90548C104.211 1.21382 106.938 2.37555 109.219 4.25932C111.5 6.14308 113.245 8.67374 114.255 11.5651C115.265 14.4565 115.5 17.5934 114.935 20.6209C114.369 23.6484 113.025 26.4459 111.055 28.697C109.085 30.9482 106.566 32.5631 103.785 33.3593V64.5821L140.733 87.5309L170.354 69.7859C169.569 67.7291 169.157 65.53 169.141 63.3072C169.122 60.0299 170.011 56.8204 171.694 54.0854C173.378 51.3504 175.781 49.2132 178.599 47.9448C181.416 46.6763 184.522 46.3337 187.521 46.9604C190.52 47.5871 193.279 49.1549 195.446 51.465C197.614 53.7751 199.093 56.7235 199.696 59.9363C200.3 63.1491 200 66.4817 198.835 69.5115C197.67 72.5414 195.692 75.132 193.153 76.955C190.614 78.7779 187.627 79.7512 184.571 79.7512C181.183 79.8441 177.871 78.6662 175.206 76.4208L144.857 94.8943V140.766L175.206 159.395C177.848 157.109 181.152 155.885 184.547 155.935H184.644ZM184.644 55.0592C182.713 55.0592 180.862 55.8816 179.497 57.3454C178.132 58.8093 177.366 60.7947 177.366 62.8649C177.366 64.9351 178.132 66.9205 179.497 68.3844C180.862 69.8482 182.713 70.6706 184.644 70.6706C186.574 70.6706 188.425 69.8482 189.79 68.3844C191.155 66.9205 191.922 64.9351 191.922 62.8649C191.922 60.7947 191.155 58.8093 189.79 57.3454C188.425 55.8816 186.574 55.0592 184.644 55.0592ZM92.4794 17.4097C92.4266 18.4692 92.5758 19.5292 92.9178 20.5248C93.2599 21.5204 93.7876 22.4308 94.4688 23.2003C95.1499 23.9698 95.9702 24.5823 96.8795 25.0003C97.7888 25.4183 98.7681 25.6332 99.7574 25.6317C101.729 25.5439 103.591 24.6366 104.949 23.1019C106.308 21.5672 107.056 19.5257 107.035 17.4097C107.035 15.3395 106.269 13.354 104.904 11.8902C103.539 10.4263 101.688 9.60395 99.7574 9.60395C97.8271 9.60395 95.9759 10.4263 94.611 11.8902C93.2461 13.354 92.4794 15.3395 92.4794 17.4097ZM7.22922 62.8649C7.22922 64.9351 7.99601 66.9205 9.36091 68.3844C10.7258 69.8482 12.577 70.6706 14.5073 70.6706C16.4375 70.6706 18.2887 69.8482 19.6536 68.3844C21.0185 66.9205 21.7853 64.9351 21.7853 62.8649C21.7853 60.7947 21.0185 58.8093 19.6536 57.3454C18.2887 55.8816 16.4375 55.0592 14.5073 55.0592C12.577 55.0592 10.7258 55.8816 9.36091 57.3454C7.99601 58.8093 7.22922 60.7947 7.22922 62.8649ZM14.9439 180.497C16.8531 180.426 18.6659 179.58 20.0167 178.132C21.3675 176.683 22.1556 174.739 22.222 172.691C22.2595 171.011 21.8378 169.356 21.009 167.93C20.5966 167.93 20.5966 167.513 20.2084 167.071C18.7604 165.665 16.8727 164.895 14.9197 164.911C12.9894 164.911 11.1382 165.734 9.77333 167.198C8.40844 168.662 7.64165 170.647 7.64165 172.717C7.64165 174.787 8.40844 176.773 9.77333 178.237C11.1382 179.701 12.9894 180.523 14.9197 180.523L14.9439 180.497ZM107.132 218.589C107.132 216.519 106.366 214.533 105.001 213.069C103.636 211.605 101.785 210.783 99.8544 210.783C97.9242 210.783 96.073 211.605 94.7081 213.069C93.3432 214.533 92.5764 216.519 92.5764 218.589C92.5764 220.659 93.3432 222.644 94.7081 224.108C96.073 225.572 97.9242 226.394 99.8544 226.394C101.785 226.394 103.636 225.572 105.001 224.108C106.366 222.644 107.132 220.659 107.132 218.589ZM184.644 180.497C186.574 180.497 188.425 179.674 189.79 178.211C191.155 176.747 191.922 174.761 191.922 172.691C191.922 170.621 191.155 168.636 189.79 167.172C188.425 165.708 186.574 164.885 184.644 164.885C182.713 164.885 180.862 165.708 179.497 167.172C178.132 168.636 177.366 170.621 177.366 172.691C177.366 174.761 178.132 176.747 179.497 178.211C180.862 179.674 182.713 180.497 184.644 180.497ZM125.352 108.788C126.596 107.448 127.295 105.633 127.295 103.741C127.295 101.849 126.596 100.034 125.352 98.6931C124.746 98.0409 124.025 97.5235 123.232 97.1704C122.439 96.8173 121.589 96.6356 120.73 96.6356C119.872 96.6356 119.021 96.8173 118.228 97.1704C117.435 97.5235 116.715 98.0409 116.109 98.6931L94.2746 122.11L85.735 112.873C85.1288 112.221 84.4085 111.704 83.6154 111.351C82.8224 110.998 81.9721 110.816 81.1135 110.816C80.2548 110.816 79.4046 110.998 78.6115 111.351C77.8185 111.704 77.0982 112.221 76.4919 112.873C75.2534 114.218 74.5588 116.031 74.5588 117.921C74.5588 119.811 75.2534 121.625 76.4919 122.969L89.6652 137.279C90.2735 137.932 90.9958 138.45 91.7909 138.804C92.586 139.157 93.4382 139.339 94.2989 139.339C95.1595 139.339 96.0117 139.157 96.8068 138.804C97.6019 138.45 98.3242 137.932 98.9325 137.279L125.352 108.788Z" stroke="#5A98FD" stroke-width="4" mask="url(#path-1-inside-1_434_24554)"/>
</svg>
