<svg width="200" height="157" viewBox="0 0 200 157" fill="none" xmlns="http://www.w3.org/2000/svg">
<mask id="path-1-inside-1_441_24597" fill="white">
<path d="M198.847 52.397C199.213 52.7877 199.503 53.2521 199.7 53.7635C199.898 54.2748 200 54.8231 200 55.3768C200 55.9306 199.898 56.4788 199.7 56.9902C199.503 57.5015 199.213 57.9659 198.847 58.3567L176.064 82.9651C174.506 84.643 172.446 85.6762 170.247 85.8824C168.049 86.0887 165.853 85.4548 164.047 84.0926L151.231 96.7458C152.204 98.8101 152.677 101.105 152.606 103.417C152.535 105.73 151.922 107.986 150.824 109.977C149.726 111.968 148.178 113.629 146.323 114.808C144.469 115.986 142.368 116.643 140.214 116.719C140.214 120.28 138.978 123.712 136.747 126.347C134.461 129.043 131.286 130.674 127.897 130.893C127.929 132.634 127.633 134.364 127.025 135.979C126.418 137.594 125.513 139.06 124.364 140.289C122.261 142.585 119.427 143.94 116.431 144.083C116.318 147.374 115.023 150.489 112.816 152.776C110.61 155.062 107.664 156.34 104.597 156.343C103.046 156.345 101.511 156.016 100.08 155.374C98.649 154.731 97.3517 153.789 96.2639 152.602L91.4806 147.448C89.4418 148.622 87.1537 149.206 84.8411 149.143C82.5285 149.079 80.2709 148.371 78.2904 147.088C76.3098 145.804 74.6743 143.989 73.5447 141.821C72.415 139.653 71.8301 137.207 71.8473 134.723C68.3005 134.7 64.9068 133.169 62.4082 130.466C59.9096 127.762 58.5094 124.107 58.5139 120.298C54.9777 120.298 51.5863 118.79 49.0858 116.105C46.5853 113.42 45.1806 109.778 45.1806 105.981C45.1453 103.6 45.6546 101.246 46.6639 99.1261L33.8306 85.2738C32.1467 85.9488 30.3174 86.0883 28.5616 85.6757C26.8058 85.2631 25.1979 84.3158 23.9306 82.9472L1.14722 58.3567C0.412394 57.5621 0 56.4877 0 55.3679C0 54.2481 0.412394 53.1737 1.14722 52.3791L38.6139 11.9319C39.3499 11.1439 40.3472 10.7022 41.3865 10.7039C41.9011 10.7047 42.4105 10.8144 42.8856 11.0266C43.3607 11.2388 43.7923 11.5495 44.1556 11.9408C44.5189 12.3321 44.8069 12.7965 45.0031 13.3073C45.1993 13.8181 45.2999 14.3655 45.2991 14.918C45.2984 15.4706 45.1962 16.0176 44.9986 16.5278C44.801 17.038 44.5117 17.5014 44.1472 17.8916L9.43056 55.3679L29.4306 76.9875C29.7202 77.2914 30.109 77.4615 30.5139 77.4615C30.9188 77.4615 31.3076 77.2914 31.5972 76.9875L70.1473 35.5559L71.2306 34.3926C71.507 34.0637 71.66 33.6365 71.66 33.1935C71.66 32.7505 71.507 32.3233 71.2306 31.9944L58.1639 17.7842C57.4291 16.9896 57.0167 15.9152 57.0167 14.7954C57.0167 13.6755 57.4291 12.6012 58.1639 11.8066C58.525 11.4153 58.9546 11.1048 59.428 10.8929C59.9015 10.6809 60.4093 10.5718 60.9223 10.5718C61.4352 10.5718 61.943 10.6809 62.4165 10.8929C62.8899 11.1048 63.3195 11.4153 63.6806 11.8066L76.7639 25.9273C78.5274 27.8283 79.5164 30.4029 79.5139 33.0861C79.513 33.9928 79.401 34.8954 79.1806 35.7707L84.9973 41.9809H116.664L121.214 37.0771C120.476 35.2203 120.27 33.1692 120.623 31.1861C120.977 29.2031 121.873 27.3783 123.197 25.9452L136.664 11.4307C137.025 11.0395 137.455 10.729 137.928 10.517C138.402 10.3051 138.909 10.196 139.422 10.196C139.935 10.196 140.443 10.3051 140.917 10.517C141.39 10.729 141.82 11.0395 142.181 11.4307C142.546 11.8215 142.836 12.2859 143.034 12.7972C143.231 13.3086 143.333 13.8569 143.333 14.4106C143.333 14.9643 143.231 15.5126 143.034 16.0239C142.836 16.5353 142.546 16.9997 142.181 17.3904L128.764 31.9765C128.488 32.3054 128.335 32.7326 128.335 33.1756C128.335 33.6186 128.488 34.0458 128.764 34.3747L168.331 76.9875C168.476 77.1439 168.649 77.2679 168.839 77.3526C169.029 77.4372 169.233 77.4808 169.439 77.4808C169.645 77.4808 169.849 77.4372 170.039 77.3526C170.229 77.2679 170.402 77.1439 170.547 76.9875L190.547 55.3679L156.314 18.3927C155.949 18.0019 155.659 17.5375 155.461 17.0262C155.263 16.5148 155.161 15.9665 155.161 15.4128C155.161 14.8591 155.263 14.3108 155.461 13.7995C155.659 13.2881 155.949 12.8237 156.314 12.433C156.675 12.0417 157.105 11.7312 157.578 11.5193C158.052 11.3073 158.559 11.1982 159.072 11.1982C159.585 11.1982 160.093 11.3073 160.567 11.5193C161.04 11.7312 161.47 12.0417 161.831 12.433L198.847 52.397ZM58.4473 111.869C59.5543 111.879 60.6393 111.536 61.5644 110.883C62.4895 110.23 63.2129 109.297 63.6427 108.201C64.0725 107.105 64.1892 105.897 63.9781 104.73C63.767 103.563 63.2376 102.49 62.4571 101.647C61.6766 100.804 60.6803 100.229 59.5948 99.995C58.5093 99.7613 57.3836 99.8794 56.3607 100.334C55.3379 100.789 54.4641 101.56 53.8503 102.55C53.2366 103.539 52.9107 104.702 52.9139 105.891C52.9139 107.47 53.4958 108.985 54.5325 110.105C55.5693 111.225 56.9767 111.859 58.4473 111.869ZM75.9806 124.271C76.9387 123.112 77.4386 121.598 77.3742 120.049C77.3099 118.501 76.6863 117.04 75.6357 115.978C74.5852 114.915 73.1904 114.333 71.7472 114.356C70.304 114.379 68.9259 115.005 67.9053 116.101C66.8847 117.197 66.3018 118.677 66.2804 120.227C66.2589 121.776 66.8005 123.274 67.7903 124.402C68.7801 125.53 70.1403 126.2 71.5822 126.269C73.0241 126.338 74.4344 125.801 75.5139 124.772L75.9806 124.271ZM89.1306 138.893C90.1413 137.792 90.7141 136.313 90.7281 134.767C90.742 133.221 90.1961 131.73 89.2056 130.608C88.215 129.487 86.8574 128.822 85.4191 128.755C83.9809 128.688 82.5746 129.224 81.4973 130.249C81.3502 130.425 81.1944 130.592 81.0306 130.75C80.3133 131.609 79.8428 132.672 79.6758 133.812C79.5088 134.951 79.6524 136.119 80.0894 137.173C80.5264 138.226 81.238 139.122 82.1384 139.751C83.0388 140.38 84.0896 140.716 85.1639 140.719C85.8841 140.709 86.5953 140.546 87.2563 140.239C87.9172 139.932 88.5147 139.486 89.0139 138.929L89.1306 138.893ZM143.331 106.732C143.798 106.238 144.168 105.646 144.417 104.994C144.666 104.342 144.79 103.643 144.781 102.938C144.784 101.517 144.262 100.153 143.331 99.144L117.981 72.1732L103.664 72.0121L90.5806 86.115C89.426 87.3676 88.0515 88.3621 86.5368 89.0407C85.022 89.7194 83.3969 90.0688 81.7556 90.0688C80.1143 90.0688 78.4892 89.7194 76.9744 89.0407C75.4596 88.3621 74.0852 87.3676 72.9306 86.115C70.5816 83.5883 69.2623 80.164 69.2623 76.5937C69.2623 73.0235 70.5816 69.5992 72.9306 67.0725L88.3306 50.4104H83.3306C82.8164 50.4106 82.3072 50.3016 81.8324 50.0896C81.3576 49.8777 80.9265 49.5671 80.5639 49.1755L74.5139 42.7147L39.9972 79.9763L52.2139 93.1664C54.1378 92.0465 56.2922 91.4619 58.4806 91.4662C62.0168 91.4662 65.4082 92.9746 67.9087 95.6597C70.4092 98.3448 71.8139 101.986 71.8139 105.784C75.3501 105.784 78.7415 107.292 81.242 109.977C83.7425 112.662 85.1473 116.304 85.1473 120.101C87.4476 120.134 89.7015 120.802 91.6923 122.04C93.6832 123.278 95.3442 125.044 96.5157 127.17C97.6872 129.297 98.33 131.71 98.3822 134.18C98.4345 136.65 97.8944 139.093 96.8139 141.274L101.664 146.643C102.432 147.417 103.45 147.84 104.503 147.821C105.556 147.802 106.561 147.344 107.305 146.543C108.048 145.742 108.472 144.662 108.486 143.531C108.5 142.4 108.104 141.308 107.381 140.486L103.331 136.048C102.966 135.657 102.677 135.194 102.479 134.684C102.282 134.174 102.179 133.627 102.179 133.074C102.177 131.958 102.589 130.887 103.322 130.097C104.056 129.307 105.052 128.862 106.091 128.86C107.131 128.858 108.128 129.3 108.864 130.088L112.797 134.347C113.597 135.201 114.678 135.68 115.806 135.68C116.933 135.68 118.015 135.201 118.814 134.347C119.223 133.919 119.548 133.407 119.77 132.841C119.992 132.276 120.107 131.668 120.107 131.054C120.107 130.441 119.992 129.833 119.77 129.267C119.548 128.702 119.223 128.19 118.814 127.761L110.297 119.063C109.543 118.293 109.104 117.234 109.076 116.117C109.048 115 109.433 113.916 110.147 113.104C110.854 112.297 111.829 111.823 112.859 111.786C113.89 111.749 114.893 112.152 115.647 112.907L123.464 120.907C123.975 121.426 124.576 121.831 125.234 122.098C125.892 122.364 126.592 122.488 127.295 122.462C127.997 122.435 128.688 122.258 129.327 121.942C129.965 121.626 130.539 121.177 131.014 120.62C131.943 119.531 132.445 118.1 132.417 116.624C132.389 115.148 131.833 113.74 130.864 112.692L122.731 103.922C122.001 103.129 121.592 102.058 121.592 100.943C121.592 99.8272 122.001 98.7566 122.731 97.9628C123.093 97.571 123.524 97.2601 123.999 97.0479C124.474 96.8357 124.983 96.7265 125.497 96.7265C126.012 96.7265 126.521 96.8357 126.996 97.0479C127.47 97.2601 127.901 97.571 128.264 97.9628L136.381 106.732C137.315 107.716 138.572 108.267 139.881 108.267C141.189 108.267 142.446 107.716 143.381 106.732H143.331ZM146.164 90.3207L158.414 78.2403L126.281 43.5559L121.081 49.1755C120.722 49.5673 120.294 49.8783 119.821 50.0904C119.349 50.3024 118.842 50.4112 118.331 50.4104H99.3973L78.4473 73.0322C78.0078 73.5013 77.6591 74.059 77.4212 74.6733C77.1832 75.2876 77.0607 75.9463 77.0607 76.6116C77.0607 77.277 77.1832 77.9357 77.4212 78.55C77.6591 79.1643 78.0078 79.722 78.4473 80.191C78.8806 80.6694 79.3988 81.0497 79.9714 81.3094C80.5439 81.5691 81.1591 81.7028 81.7806 81.7028C82.4021 81.7028 83.0173 81.5691 83.5898 81.3094C84.1624 81.0497 84.6806 80.6694 85.1139 80.191L99.3473 64.8175C99.7174 64.422 100.157 64.1091 100.64 63.8972C101.124 63.6852 101.642 63.5783 102.164 63.5826L119.164 63.7974C119.746 63.7154 120.338 63.7795 120.893 63.9844C121.448 64.1893 121.952 64.5296 122.364 64.9786L146.164 90.3207ZM171.164 61.5245C170.65 61.5268 170.14 61.4196 169.665 61.2088C169.19 60.9981 168.758 60.6881 168.395 60.2968C168.033 59.9056 167.746 59.4408 167.552 58.9296C167.357 58.4184 167.26 57.8708 167.264 57.3187C167.26 56.7665 167.357 56.219 167.552 55.7077C167.746 55.1965 168.033 54.7317 168.395 54.3405C168.758 53.9492 169.19 53.6392 169.665 53.4285C170.14 53.2178 170.65 53.1105 171.164 53.1129C172.203 53.1129 173.199 53.556 173.933 54.3447C174.668 55.1335 175.081 56.2032 175.081 57.3187C175.081 58.4341 174.668 59.5039 173.933 60.2926C173.199 61.0814 172.203 61.5245 171.164 61.5245ZM28.3306 61.954C27.2947 61.9493 26.3028 61.5041 25.5718 60.7158C24.8409 59.9276 24.4306 58.8605 24.4306 57.7482C24.4195 57.1899 24.5121 56.6348 24.7029 56.1154C24.8937 55.5959 25.179 55.1224 25.542 54.7226C25.905 54.3228 26.3386 54.0046 26.8174 53.7866C27.2961 53.5686 27.8105 53.4552 28.3306 53.4529C29.368 53.4624 30.3599 53.9115 31.0903 54.7026C31.8208 55.4937 32.2306 56.5626 32.2306 57.6766C32.2372 58.2328 32.1414 58.7849 31.9488 59.3012C31.7562 59.8175 31.4705 60.2879 31.1081 60.6853C30.7457 61.0827 30.3138 61.3994 29.8372 61.6171C29.3605 61.8348 28.8485 61.9493 28.3306 61.954ZM51.1972 9.40837C50.1585 9.40837 49.1623 8.96527 48.4277 8.17653C47.6932 7.38779 47.2806 6.31802 47.2806 5.20258C47.2806 4.08713 47.6932 3.01737 48.4277 2.22863C49.1623 1.43989 50.1585 0.996782 51.1972 0.996782C52.2217 1.0013 53.2037 1.43664 53.9327 2.20947C54.6618 2.9823 55.0798 4.03109 55.0973 5.13099C55.1061 5.6878 55.0118 6.24094 54.82 6.75833C54.6282 7.27571 54.3426 7.74704 53.9798 8.14496C53.617 8.54288 53.1842 8.85946 52.7065 9.07634C52.2289 9.29323 51.7158 9.40609 51.1972 9.40837ZM148.731 9.06833C148.217 9.06834 147.709 8.95942 147.234 8.74784C146.76 8.53626 146.329 8.22618 145.967 7.8354C145.605 7.44462 145.318 6.98084 145.123 6.47067C144.928 5.9605 144.828 5.414 144.831 4.86253C144.831 3.75018 145.241 2.68312 145.972 1.8949C146.703 1.10667 147.695 0.661472 148.731 0.656738C149.767 0.661472 150.758 1.10667 151.489 1.8949C152.22 2.68312 152.631 3.75018 152.631 4.86253C152.633 5.414 152.534 5.9605 152.339 6.47067C152.144 6.98084 151.857 7.44462 151.494 7.8354C151.132 8.22618 150.701 8.53626 150.227 8.74784C149.753 8.95942 149.244 9.06834 148.731 9.06833Z"/>
</mask>
<path d="M198.847 52.397C199.213 52.7877 199.503 53.2521 199.7 53.7635C199.898 54.2748 200 54.8231 200 55.3768C200 55.9306 199.898 56.4788 199.7 56.9902C199.503 57.5015 199.213 57.9659 198.847 58.3567L176.064 82.9651C174.506 84.643 172.446 85.6762 170.247 85.8824C168.049 86.0887 165.853 85.4548 164.047 84.0926L151.231 96.7458C152.204 98.8101 152.677 101.105 152.606 103.417C152.535 105.73 151.922 107.986 150.824 109.977C149.726 111.968 148.178 113.629 146.323 114.808C144.469 115.986 142.368 116.643 140.214 116.719C140.214 120.28 138.978 123.712 136.747 126.347C134.461 129.043 131.286 130.674 127.897 130.893C127.929 132.634 127.633 134.364 127.025 135.979C126.418 137.594 125.513 139.06 124.364 140.289C122.261 142.585 119.427 143.94 116.431 144.083C116.318 147.374 115.023 150.489 112.816 152.776C110.61 155.062 107.664 156.34 104.597 156.343C103.046 156.345 101.511 156.016 100.08 155.374C98.649 154.731 97.3517 153.789 96.2639 152.602L91.4806 147.448C89.4418 148.622 87.1537 149.206 84.8411 149.143C82.5285 149.079 80.2709 148.371 78.2904 147.088C76.3098 145.804 74.6743 143.989 73.5447 141.821C72.415 139.653 71.8301 137.207 71.8473 134.723C68.3005 134.7 64.9068 133.169 62.4082 130.466C59.9096 127.762 58.5094 124.107 58.5139 120.298C54.9777 120.298 51.5863 118.79 49.0858 116.105C46.5853 113.42 45.1806 109.778 45.1806 105.981C45.1453 103.6 45.6546 101.246 46.6639 99.1261L33.8306 85.2738C32.1467 85.9488 30.3174 86.0883 28.5616 85.6757C26.8058 85.2631 25.1979 84.3158 23.9306 82.9472L1.14722 58.3567C0.412394 57.5621 0 56.4877 0 55.3679C0 54.2481 0.412394 53.1737 1.14722 52.3791L38.6139 11.9319C39.3499 11.1439 40.3472 10.7022 41.3865 10.7039C41.9011 10.7047 42.4105 10.8144 42.8856 11.0266C43.3607 11.2388 43.7923 11.5495 44.1556 11.9408C44.5189 12.3321 44.8069 12.7965 45.0031 13.3073C45.1993 13.8181 45.2999 14.3655 45.2991 14.918C45.2984 15.4706 45.1962 16.0176 44.9986 16.5278C44.801 17.038 44.5117 17.5014 44.1472 17.8916L9.43056 55.3679L29.4306 76.9875C29.7202 77.2914 30.109 77.4615 30.5139 77.4615C30.9188 77.4615 31.3076 77.2914 31.5972 76.9875L70.1473 35.5559L71.2306 34.3926C71.507 34.0637 71.66 33.6365 71.66 33.1935C71.66 32.7505 71.507 32.3233 71.2306 31.9944L58.1639 17.7842C57.4291 16.9896 57.0167 15.9152 57.0167 14.7954C57.0167 13.6755 57.4291 12.6012 58.1639 11.8066C58.525 11.4153 58.9546 11.1048 59.428 10.8929C59.9015 10.6809 60.4093 10.5718 60.9223 10.5718C61.4352 10.5718 61.943 10.6809 62.4165 10.8929C62.8899 11.1048 63.3195 11.4153 63.6806 11.8066L76.7639 25.9273C78.5274 27.8283 79.5164 30.4029 79.5139 33.0861C79.513 33.9928 79.401 34.8954 79.1806 35.7707L84.9973 41.9809H116.664L121.214 37.0771C120.476 35.2203 120.27 33.1692 120.623 31.1861C120.977 29.2031 121.873 27.3783 123.197 25.9452L136.664 11.4307C137.025 11.0395 137.455 10.729 137.928 10.517C138.402 10.3051 138.909 10.196 139.422 10.196C139.935 10.196 140.443 10.3051 140.917 10.517C141.39 10.729 141.82 11.0395 142.181 11.4307C142.546 11.8215 142.836 12.2859 143.034 12.7972C143.231 13.3086 143.333 13.8569 143.333 14.4106C143.333 14.9643 143.231 15.5126 143.034 16.0239C142.836 16.5353 142.546 16.9997 142.181 17.3904L128.764 31.9765C128.488 32.3054 128.335 32.7326 128.335 33.1756C128.335 33.6186 128.488 34.0458 128.764 34.3747L168.331 76.9875C168.476 77.1439 168.649 77.2679 168.839 77.3526C169.029 77.4372 169.233 77.4808 169.439 77.4808C169.645 77.4808 169.849 77.4372 170.039 77.3526C170.229 77.2679 170.402 77.1439 170.547 76.9875L190.547 55.3679L156.314 18.3927C155.949 18.0019 155.659 17.5375 155.461 17.0262C155.263 16.5148 155.161 15.9665 155.161 15.4128C155.161 14.8591 155.263 14.3108 155.461 13.7995C155.659 13.2881 155.949 12.8237 156.314 12.433C156.675 12.0417 157.105 11.7312 157.578 11.5193C158.052 11.3073 158.559 11.1982 159.072 11.1982C159.585 11.1982 160.093 11.3073 160.567 11.5193C161.04 11.7312 161.47 12.0417 161.831 12.433L198.847 52.397ZM58.4473 111.869C59.5543 111.879 60.6393 111.536 61.5644 110.883C62.4895 110.23 63.2129 109.297 63.6427 108.201C64.0725 107.105 64.1892 105.897 63.9781 104.73C63.767 103.563 63.2376 102.49 62.4571 101.647C61.6766 100.804 60.6803 100.229 59.5948 99.995C58.5093 99.7613 57.3836 99.8794 56.3607 100.334C55.3379 100.789 54.4641 101.56 53.8503 102.55C53.2366 103.539 52.9107 104.702 52.9139 105.891C52.9139 107.47 53.4958 108.985 54.5325 110.105C55.5693 111.225 56.9767 111.859 58.4473 111.869ZM75.9806 124.271C76.9387 123.112 77.4386 121.598 77.3742 120.049C77.3099 118.501 76.6863 117.04 75.6357 115.978C74.5852 114.915 73.1904 114.333 71.7472 114.356C70.304 114.379 68.9259 115.005 67.9053 116.101C66.8847 117.197 66.3018 118.677 66.2804 120.227C66.2589 121.776 66.8005 123.274 67.7903 124.402C68.7801 125.53 70.1403 126.2 71.5822 126.269C73.0241 126.338 74.4344 125.801 75.5139 124.772L75.9806 124.271ZM89.1306 138.893C90.1413 137.792 90.7141 136.313 90.7281 134.767C90.742 133.221 90.1961 131.73 89.2056 130.608C88.215 129.487 86.8574 128.822 85.4191 128.755C83.9809 128.688 82.5746 129.224 81.4973 130.249C81.3502 130.425 81.1944 130.592 81.0306 130.75C80.3133 131.609 79.8428 132.672 79.6758 133.812C79.5088 134.951 79.6524 136.119 80.0894 137.173C80.5264 138.226 81.238 139.122 82.1384 139.751C83.0388 140.38 84.0896 140.716 85.1639 140.719C85.8841 140.709 86.5953 140.546 87.2563 140.239C87.9172 139.932 88.5147 139.486 89.0139 138.929L89.1306 138.893ZM143.331 106.732C143.798 106.238 144.168 105.646 144.417 104.994C144.666 104.342 144.79 103.643 144.781 102.938C144.784 101.517 144.262 100.153 143.331 99.144L117.981 72.1732L103.664 72.0121L90.5806 86.115C89.426 87.3676 88.0515 88.3621 86.5368 89.0407C85.022 89.7194 83.3969 90.0688 81.7556 90.0688C80.1143 90.0688 78.4892 89.7194 76.9744 89.0407C75.4596 88.3621 74.0852 87.3676 72.9306 86.115C70.5816 83.5883 69.2623 80.164 69.2623 76.5937C69.2623 73.0235 70.5816 69.5992 72.9306 67.0725L88.3306 50.4104H83.3306C82.8164 50.4106 82.3072 50.3016 81.8324 50.0896C81.3576 49.8777 80.9265 49.5671 80.5639 49.1755L74.5139 42.7147L39.9972 79.9763L52.2139 93.1664C54.1378 92.0465 56.2922 91.4619 58.4806 91.4662C62.0168 91.4662 65.4082 92.9746 67.9087 95.6597C70.4092 98.3448 71.8139 101.986 71.8139 105.784C75.3501 105.784 78.7415 107.292 81.242 109.977C83.7425 112.662 85.1473 116.304 85.1473 120.101C87.4476 120.134 89.7015 120.802 91.6923 122.04C93.6832 123.278 95.3442 125.044 96.5157 127.17C97.6872 129.297 98.33 131.71 98.3822 134.18C98.4345 136.65 97.8944 139.093 96.8139 141.274L101.664 146.643C102.432 147.417 103.45 147.84 104.503 147.821C105.556 147.802 106.561 147.344 107.305 146.543C108.048 145.742 108.472 144.662 108.486 143.531C108.5 142.4 108.104 141.308 107.381 140.486L103.331 136.048C102.966 135.657 102.677 135.194 102.479 134.684C102.282 134.174 102.179 133.627 102.179 133.074C102.177 131.958 102.589 130.887 103.322 130.097C104.056 129.307 105.052 128.862 106.091 128.86C107.131 128.858 108.128 129.3 108.864 130.088L112.797 134.347C113.597 135.201 114.678 135.68 115.806 135.68C116.933 135.68 118.015 135.201 118.814 134.347C119.223 133.919 119.548 133.407 119.77 132.841C119.992 132.276 120.107 131.668 120.107 131.054C120.107 130.441 119.992 129.833 119.77 129.267C119.548 128.702 119.223 128.19 118.814 127.761L110.297 119.063C109.543 118.293 109.104 117.234 109.076 116.117C109.048 115 109.433 113.916 110.147 113.104C110.854 112.297 111.829 111.823 112.859 111.786C113.89 111.749 114.893 112.152 115.647 112.907L123.464 120.907C123.975 121.426 124.576 121.831 125.234 122.098C125.892 122.364 126.592 122.488 127.295 122.462C127.997 122.435 128.688 122.258 129.327 121.942C129.965 121.626 130.539 121.177 131.014 120.62C131.943 119.531 132.445 118.1 132.417 116.624C132.389 115.148 131.833 113.74 130.864 112.692L122.731 103.922C122.001 103.129 121.592 102.058 121.592 100.943C121.592 99.8272 122.001 98.7566 122.731 97.9628C123.093 97.571 123.524 97.2601 123.999 97.0479C124.474 96.8357 124.983 96.7265 125.497 96.7265C126.012 96.7265 126.521 96.8357 126.996 97.0479C127.47 97.2601 127.901 97.571 128.264 97.9628L136.381 106.732C137.315 107.716 138.572 108.267 139.881 108.267C141.189 108.267 142.446 107.716 143.381 106.732H143.331ZM146.164 90.3207L158.414 78.2403L126.281 43.5559L121.081 49.1755C120.722 49.5673 120.294 49.8783 119.821 50.0904C119.349 50.3024 118.842 50.4112 118.331 50.4104H99.3973L78.4473 73.0322C78.0078 73.5013 77.6591 74.059 77.4212 74.6733C77.1832 75.2876 77.0607 75.9463 77.0607 76.6116C77.0607 77.277 77.1832 77.9357 77.4212 78.55C77.6591 79.1643 78.0078 79.722 78.4473 80.191C78.8806 80.6694 79.3988 81.0497 79.9714 81.3094C80.5439 81.5691 81.1591 81.7028 81.7806 81.7028C82.4021 81.7028 83.0173 81.5691 83.5898 81.3094C84.1624 81.0497 84.6806 80.6694 85.1139 80.191L99.3473 64.8175C99.7174 64.422 100.157 64.1091 100.64 63.8972C101.124 63.6852 101.642 63.5783 102.164 63.5826L119.164 63.7974C119.746 63.7154 120.338 63.7795 120.893 63.9844C121.448 64.1893 121.952 64.5296 122.364 64.9786L146.164 90.3207ZM171.164 61.5245C170.65 61.5268 170.14 61.4196 169.665 61.2088C169.19 60.9981 168.758 60.6881 168.395 60.2968C168.033 59.9056 167.746 59.4408 167.552 58.9296C167.357 58.4184 167.26 57.8708 167.264 57.3187C167.26 56.7665 167.357 56.219 167.552 55.7077C167.746 55.1965 168.033 54.7317 168.395 54.3405C168.758 53.9492 169.19 53.6392 169.665 53.4285C170.14 53.2178 170.65 53.1105 171.164 53.1129C172.203 53.1129 173.199 53.556 173.933 54.3447C174.668 55.1335 175.081 56.2032 175.081 57.3187C175.081 58.4341 174.668 59.5039 173.933 60.2926C173.199 61.0814 172.203 61.5245 171.164 61.5245ZM28.3306 61.954C27.2947 61.9493 26.3028 61.5041 25.5718 60.7158C24.8409 59.9276 24.4306 58.8605 24.4306 57.7482C24.4195 57.1899 24.5121 56.6348 24.7029 56.1154C24.8937 55.5959 25.179 55.1224 25.542 54.7226C25.905 54.3228 26.3386 54.0046 26.8174 53.7866C27.2961 53.5686 27.8105 53.4552 28.3306 53.4529C29.368 53.4624 30.3599 53.9115 31.0903 54.7026C31.8208 55.4937 32.2306 56.5626 32.2306 57.6766C32.2372 58.2328 32.1414 58.7849 31.9488 59.3012C31.7562 59.8175 31.4705 60.2879 31.1081 60.6853C30.7457 61.0827 30.3138 61.3994 29.8372 61.6171C29.3605 61.8348 28.8485 61.9493 28.3306 61.954ZM51.1972 9.40837C50.1585 9.40837 49.1623 8.96527 48.4277 8.17653C47.6932 7.38779 47.2806 6.31802 47.2806 5.20258C47.2806 4.08713 47.6932 3.01737 48.4277 2.22863C49.1623 1.43989 50.1585 0.996782 51.1972 0.996782C52.2217 1.0013 53.2037 1.43664 53.9327 2.20947C54.6618 2.9823 55.0798 4.03109 55.0973 5.13099C55.1061 5.6878 55.0118 6.24094 54.82 6.75833C54.6282 7.27571 54.3426 7.74704 53.9798 8.14496C53.617 8.54288 53.1842 8.85946 52.7065 9.07634C52.2289 9.29323 51.7158 9.40609 51.1972 9.40837ZM148.731 9.06833C148.217 9.06834 147.709 8.95942 147.234 8.74784C146.76 8.53626 146.329 8.22618 145.967 7.8354C145.605 7.44462 145.318 6.98084 145.123 6.47067C144.928 5.9605 144.828 5.414 144.831 4.86253C144.831 3.75018 145.241 2.68312 145.972 1.8949C146.703 1.10667 147.695 0.661472 148.731 0.656738C149.767 0.661472 150.758 1.10667 151.489 1.8949C152.22 2.68312 152.631 3.75018 152.631 4.86253C152.633 5.414 152.534 5.9605 152.339 6.47067C152.144 6.98084 151.857 7.44462 151.494 7.8354C151.132 8.22618 150.701 8.53626 150.227 8.74784C149.753 8.95942 149.244 9.06834 148.731 9.06833Z" stroke="#5A98FD" stroke-width="4" mask="url(#path-1-inside-1_441_24597)"/>
</svg>
