<svg width="200" height="182" viewBox="0 0 200 182" fill="none" xmlns="http://www.w3.org/2000/svg">
<g clip-path="url(#clip0_434_24567)">
<mask id="path-1-inside-1_434_24567" fill="white">
<path fill-rule="evenodd" clip-rule="evenodd" d="M9.72066 0.923828H122.581C124.973 0.923828 127.267 1.87495 128.959 3.56797C130.65 5.26098 131.601 7.5572 131.601 9.95148V27.9667C131.59 30.3541 130.635 32.64 128.945 34.3244C127.254 36.0088 124.966 36.9544 122.581 36.9544H9.72066C7.32657 36.9544 5.03024 36.0039 3.33548 34.3114C1.64072 32.619 0.685961 30.3228 0.680664 27.9267V9.91144C0.696508 7.52227 1.65592 5.23636 3.34954 3.55256C5.04315 1.86876 7.33347 0.923776 9.72066 0.923828V0.923828ZM9.72066 45.962H122.581C124.969 45.962 127.261 46.9104 128.952 48.5991C130.643 50.2877 131.595 52.5788 131.601 54.9696V72.9849C131.601 74.1704 131.367 75.3443 130.914 76.4396C130.461 77.5349 129.796 78.5301 128.959 79.3684C128.121 80.2067 127.127 80.8717 126.032 81.3254C124.938 81.779 123.765 82.0125 122.581 82.0125H9.72066C7.32657 82.0126 5.03024 81.0621 3.33548 79.3696C1.64072 77.6772 0.685961 75.381 0.680664 72.9849V54.9696C0.680664 52.57 1.63309 50.2687 3.32842 48.572C5.02375 46.8752 7.32311 45.922 9.72066 45.922V45.962ZM9.72066 91.0002H122.581C123.767 91.0002 124.941 91.2343 126.037 91.6893C127.133 92.1442 128.128 92.811 128.966 93.6514C129.804 94.4918 130.468 95.4894 130.92 96.587C131.372 97.6845 131.603 98.8606 131.601 100.048V118.063C131.585 120.447 130.628 122.728 128.938 124.408C127.248 126.088 124.963 127.031 122.581 127.031H9.72066C7.32657 127.031 5.03024 126.08 3.33548 124.388C1.64072 122.695 0.685961 120.399 0.680664 118.003V99.9878C0.696508 97.5986 1.65592 95.3127 3.34954 93.6289C5.04315 91.9451 7.33347 91.0001 9.72066 91.0002ZM14.2407 23.4429C14.8316 23.4429 15.4168 23.3264 15.9627 23.1001C16.5087 22.8737 17.0048 22.542 17.4226 22.1238C17.8405 21.7056 18.172 21.2091 18.3981 20.6626C18.6243 20.1162 18.7407 19.5305 18.7407 18.9391C18.7446 18.0427 18.4824 17.1653 17.9872 16.4183C17.4921 15.6713 16.7864 15.0884 15.9597 14.7435C15.1329 14.3986 14.2224 14.3073 13.3438 14.4812C12.4651 14.6552 11.6579 15.0864 11.0246 15.7203C10.3913 16.3542 9.96036 17.1621 9.78659 18.0415C9.61282 18.9209 9.70402 19.8321 10.0486 20.6595C10.3932 21.487 10.9756 22.1933 11.722 22.6889C12.4684 23.1844 13.345 23.4469 14.2407 23.4429ZM32.2407 14.4353C31.6497 14.4234 31.0622 14.5282 30.5117 14.7436C29.9613 14.9591 29.4585 15.2809 29.0323 15.6907C28.1715 16.5185 27.6745 17.6545 27.6507 18.849C27.6268 20.0435 28.078 21.1986 28.905 22.0601C29.7321 22.9216 30.8672 23.419 32.0607 23.4429H64.0007C65.1941 23.4429 66.3387 22.9684 67.1827 22.1238C68.0266 21.2791 68.5007 20.1336 68.5007 18.9391C68.5007 17.7446 68.0266 16.599 67.1827 15.7544C66.3387 14.9098 65.1941 14.4353 64.0007 14.4353H32.2807H32.2407ZM32.2407 59.4734C31.0472 59.4734 29.9026 59.948 29.0587 60.7926C28.2148 61.6372 27.7407 62.7828 27.7407 63.9773C27.7407 65.1718 28.2148 66.3173 29.0587 67.1619C29.9026 68.0066 31.0472 68.4811 32.2407 68.4811H64.0007C65.1941 68.4811 66.3387 68.0066 67.1827 67.1619C68.0266 66.3173 68.5007 65.1718 68.5007 63.9773C68.5007 62.7828 68.0266 61.6372 67.1827 60.7926C66.3387 59.948 65.1941 59.4734 64.0007 59.4734H32.2407ZM32.2407 104.512C31.6497 104.5 31.0622 104.605 30.5117 104.82C29.9613 105.035 29.4585 105.357 29.0323 105.767C28.1715 106.595 27.6745 107.731 27.6507 108.925C27.6268 110.12 28.078 111.275 28.905 112.136C29.7321 112.998 30.8672 113.495 32.0607 113.519H64.0007C65.1941 113.543 66.3482 113.092 67.209 112.264C68.0698 111.436 68.5668 110.3 68.5907 109.106C68.6145 107.911 68.1633 106.756 67.3363 105.894C66.5093 105.033 65.3741 104.536 64.1807 104.512H32.2807H32.2407ZM14.2407 68.4811C15.4341 68.4811 16.5787 68.0066 17.4226 67.1619C18.2666 66.3173 18.7407 65.1718 18.7407 63.9773C18.7407 62.7828 18.2666 61.6372 17.4226 60.7926C16.5787 59.948 15.4341 59.4734 14.2407 59.4734C13.0453 59.4734 11.8987 59.9473 11.0516 60.7914C10.2045 61.6354 9.72595 62.7809 9.72066 63.9773C9.72066 64.5704 9.83771 65.1577 10.0651 65.7054C10.2925 66.2532 10.6258 66.7506 11.0457 67.169C11.4657 67.5875 11.9642 67.9189 12.5124 68.144C13.0607 68.3692 13.648 68.4837 14.2407 68.4811ZM14.2407 113.519C15.4341 113.519 16.5787 113.045 17.4226 112.2C18.2666 111.355 18.7407 110.21 18.7407 109.015C18.7407 107.821 18.2666 106.675 17.4226 105.831C16.5787 104.986 15.4341 104.512 14.2407 104.512C13.0453 104.512 11.8987 104.985 11.0516 105.83C10.2045 106.674 9.72595 107.819 9.72066 109.015C9.71799 109.609 9.83323 110.198 10.0597 110.747C10.2861 111.296 10.6193 111.794 11.0398 112.213C11.4603 112.632 11.9598 112.963 12.5093 113.188C13.0588 113.412 13.6473 113.525 14.2407 113.519Z"/>
</mask>
<path fill-rule="evenodd" clip-rule="evenodd" d="M9.72066 0.923828H122.581C124.973 0.923828 127.267 1.87495 128.959 3.56797C130.65 5.26098 131.601 7.5572 131.601 9.95148V27.9667C131.59 30.3541 130.635 32.64 128.945 34.3244C127.254 36.0088 124.966 36.9544 122.581 36.9544H9.72066C7.32657 36.9544 5.03024 36.0039 3.33548 34.3114C1.64072 32.619 0.685961 30.3228 0.680664 27.9267V9.91144C0.696508 7.52227 1.65592 5.23636 3.34954 3.55256C5.04315 1.86876 7.33347 0.923776 9.72066 0.923828V0.923828ZM9.72066 45.962H122.581C124.969 45.962 127.261 46.9104 128.952 48.5991C130.643 50.2877 131.595 52.5788 131.601 54.9696V72.9849C131.601 74.1704 131.367 75.3443 130.914 76.4396C130.461 77.5349 129.796 78.5301 128.959 79.3684C128.121 80.2067 127.127 80.8717 126.032 81.3254C124.938 81.779 123.765 82.0125 122.581 82.0125H9.72066C7.32657 82.0126 5.03024 81.0621 3.33548 79.3696C1.64072 77.6772 0.685961 75.381 0.680664 72.9849V54.9696C0.680664 52.57 1.63309 50.2687 3.32842 48.572C5.02375 46.8752 7.32311 45.922 9.72066 45.922V45.962ZM9.72066 91.0002H122.581C123.767 91.0002 124.941 91.2343 126.037 91.6893C127.133 92.1442 128.128 92.811 128.966 93.6514C129.804 94.4918 130.468 95.4894 130.92 96.587C131.372 97.6845 131.603 98.8606 131.601 100.048V118.063C131.585 120.447 130.628 122.728 128.938 124.408C127.248 126.088 124.963 127.031 122.581 127.031H9.72066C7.32657 127.031 5.03024 126.08 3.33548 124.388C1.64072 122.695 0.685961 120.399 0.680664 118.003V99.9878C0.696508 97.5986 1.65592 95.3127 3.34954 93.6289C5.04315 91.9451 7.33347 91.0001 9.72066 91.0002ZM14.2407 23.4429C14.8316 23.4429 15.4168 23.3264 15.9627 23.1001C16.5087 22.8737 17.0048 22.542 17.4226 22.1238C17.8405 21.7056 18.172 21.2091 18.3981 20.6626C18.6243 20.1162 18.7407 19.5305 18.7407 18.9391C18.7446 18.0427 18.4824 17.1653 17.9872 16.4183C17.4921 15.6713 16.7864 15.0884 15.9597 14.7435C15.1329 14.3986 14.2224 14.3073 13.3438 14.4812C12.4651 14.6552 11.6579 15.0864 11.0246 15.7203C10.3913 16.3542 9.96036 17.1621 9.78659 18.0415C9.61282 18.9209 9.70402 19.8321 10.0486 20.6595C10.3932 21.487 10.9756 22.1933 11.722 22.6889C12.4684 23.1844 13.345 23.4469 14.2407 23.4429ZM32.2407 14.4353C31.6497 14.4234 31.0622 14.5282 30.5117 14.7436C29.9613 14.9591 29.4585 15.2809 29.0323 15.6907C28.1715 16.5185 27.6745 17.6545 27.6507 18.849C27.6268 20.0435 28.078 21.1986 28.905 22.0601C29.7321 22.9216 30.8672 23.419 32.0607 23.4429H64.0007C65.1941 23.4429 66.3387 22.9684 67.1827 22.1238C68.0266 21.2791 68.5007 20.1336 68.5007 18.9391C68.5007 17.7446 68.0266 16.599 67.1827 15.7544C66.3387 14.9098 65.1941 14.4353 64.0007 14.4353H32.2807H32.2407ZM32.2407 59.4734C31.0472 59.4734 29.9026 59.948 29.0587 60.7926C28.2148 61.6372 27.7407 62.7828 27.7407 63.9773C27.7407 65.1718 28.2148 66.3173 29.0587 67.1619C29.9026 68.0066 31.0472 68.4811 32.2407 68.4811H64.0007C65.1941 68.4811 66.3387 68.0066 67.1827 67.1619C68.0266 66.3173 68.5007 65.1718 68.5007 63.9773C68.5007 62.7828 68.0266 61.6372 67.1827 60.7926C66.3387 59.948 65.1941 59.4734 64.0007 59.4734H32.2407ZM32.2407 104.512C31.6497 104.5 31.0622 104.605 30.5117 104.82C29.9613 105.035 29.4585 105.357 29.0323 105.767C28.1715 106.595 27.6745 107.731 27.6507 108.925C27.6268 110.12 28.078 111.275 28.905 112.136C29.7321 112.998 30.8672 113.495 32.0607 113.519H64.0007C65.1941 113.543 66.3482 113.092 67.209 112.264C68.0698 111.436 68.5668 110.3 68.5907 109.106C68.6145 107.911 68.1633 106.756 67.3363 105.894C66.5093 105.033 65.3741 104.536 64.1807 104.512H32.2807H32.2407ZM14.2407 68.4811C15.4341 68.4811 16.5787 68.0066 17.4226 67.1619C18.2666 66.3173 18.7407 65.1718 18.7407 63.9773C18.7407 62.7828 18.2666 61.6372 17.4226 60.7926C16.5787 59.948 15.4341 59.4734 14.2407 59.4734C13.0453 59.4734 11.8987 59.9473 11.0516 60.7914C10.2045 61.6354 9.72595 62.7809 9.72066 63.9773C9.72066 64.5704 9.83771 65.1577 10.0651 65.7054C10.2925 66.2532 10.6258 66.7506 11.0457 67.169C11.4657 67.5875 11.9642 67.9189 12.5124 68.144C13.0607 68.3692 13.648 68.4837 14.2407 68.4811ZM14.2407 113.519C15.4341 113.519 16.5787 113.045 17.4226 112.2C18.2666 111.355 18.7407 110.21 18.7407 109.015C18.7407 107.821 18.2666 106.675 17.4226 105.831C16.5787 104.986 15.4341 104.512 14.2407 104.512C13.0453 104.512 11.8987 104.985 11.0516 105.83C10.2045 106.674 9.72595 107.819 9.72066 109.015C9.71799 109.609 9.83323 110.198 10.0597 110.747C10.2861 111.296 10.6193 111.794 11.0398 112.213C11.4603 112.632 11.9598 112.963 12.5093 113.188C13.0588 113.412 13.6473 113.525 14.2407 113.519Z" stroke="#5A98FD" stroke-width="4" mask="url(#path-1-inside-1_434_24567)"/>
<path fill-rule="evenodd" clip-rule="evenodd" d="M147.399 175.732C138.231 175.692 129.28 172.935 121.676 167.808C114.071 162.681 108.155 155.415 104.674 146.926C101.193 138.437 100.302 129.106 102.115 120.111C103.928 111.115 108.363 102.859 114.86 96.3848C121.357 89.9101 129.625 85.507 138.62 83.7313C147.616 81.9556 156.935 82.8869 165.402 86.4076C173.868 89.9283 181.103 95.8806 186.193 103.513C191.283 111.146 193.999 120.116 193.999 129.292C193.962 141.632 189.034 153.453 180.297 162.16C171.56 170.867 159.729 175.748 147.399 175.732Z" fill="#5A98FD"/>
<path d="M147.4 88.1777C155.518 88.2093 163.445 90.6475 170.179 95.1845C176.913 99.7214 182.154 106.154 185.239 113.669C188.323 121.185 189.114 129.446 187.511 137.411C185.908 145.376 181.983 152.687 176.231 158.421C170.48 164.155 163.16 168.055 155.196 169.629C147.231 171.202 138.98 170.379 131.483 167.262C123.986 164.146 117.579 158.876 113.072 152.118C108.565 145.36 106.16 137.417 106.16 129.293C106.197 118.372 110.559 107.911 118.289 100.204C126.02 92.4972 136.488 88.1723 147.4 88.1777ZM147.4 77.5086C137.178 77.56 127.2 80.6407 118.726 86.362C110.252 92.0832 103.66 100.189 99.7842 109.655C95.908 119.122 94.9204 129.526 96.946 139.554C98.9717 149.582 103.92 158.784 111.166 166C118.412 173.216 127.632 178.123 137.661 180.1C147.691 182.077 158.08 181.036 167.52 177.109C176.959 173.182 185.024 166.545 190.698 158.035C196.372 149.525 199.4 139.523 199.4 129.293C199.389 122.473 198.035 115.723 195.415 109.428C192.795 103.133 188.96 97.417 184.13 92.6071C179.3 87.7972 173.57 83.9879 167.267 81.3971C160.965 78.8063 154.213 77.4849 147.4 77.5086Z" fill="#F1F1F1"/>
<path d="M158.68 113.519V122.527H136.12V113.519C136.12 108.555 141.16 104.512 147.4 104.512C153.64 104.512 158.68 108.555 158.68 113.519ZM162.68 122.527V113.519C162.68 106.073 155.86 100.008 147.44 100.008C139.02 100.008 132.2 106.013 132.2 113.519V122.527C130.924 122.445 129.668 122.873 128.708 123.718C127.748 124.562 127.162 125.754 127.08 127.031V149.57C127.162 150.839 127.742 152.025 128.694 152.868C129.645 153.712 130.891 154.145 132.16 154.074H162.64C163.909 154.145 165.155 153.712 166.106 152.868C167.058 152.025 167.638 150.839 167.72 149.57V127.031C167.638 125.761 167.058 124.576 166.106 123.732C165.155 122.889 163.909 122.456 162.64 122.527H162.68ZM152 138.3C152 139.5 151.524 140.651 150.676 141.499C149.829 142.347 148.679 142.824 147.48 142.824C146.281 142.824 145.132 142.347 144.284 141.499C143.436 140.651 142.96 139.5 142.96 138.3C142.96 137.1 143.436 135.95 144.284 135.101C145.132 134.253 146.281 133.776 147.48 133.776C148.679 133.776 149.829 134.253 150.676 135.101C151.524 135.95 152 137.1 152 138.3Z" fill="white"/>
</g>
<defs>
<clipPath id="clip0_434_24567">
<rect width="200" height="180.153" fill="white" transform="translate(0 0.923828)"/>
</clipPath>
</defs>
</svg>
