<svg width="200" height="200" viewBox="0 0 200 200" fill="none" xmlns="http://www.w3.org/2000/svg">
<path d="M100.05 13.1499C126.95 13.1499 153.9 13.2499 180.8 13.0499C187.95 12.9999 191.9 17.8999 191.9 24.1499C191.75 66.0999 191.85 108.05 191.8 149.95C191.8 155.25 189.15 159.1 184.6 160.2C183.35 160.5 182 160.5 180.7 160.5C153.9 160.5 127.1 160.45 100.3 160.45C73.2 160.45 46.1 160.5 19 160.45C16.95 160.45 14.7 160 12.8 159.1C9.8 157.65 8.35 154.85 8.05 151.55C8 151 8 150.45 8 149.95C8 107.85 8 65.6999 8 23.5999C8 18.2999 10.65 14.5499 15.3 13.3999C16.25 13.1499 17.3 13.1499 18.3 13.1499C45.6 13.1499 72.85 13.1499 100.05 13.1499ZM185.5 133.15C185.5 132.45 185.5 131.95 185.5 131.5C185.5 95.5999 185.5 59.6999 185.5 23.7999C185.5 20.3999 184.6 19.4999 181.1 19.4499C157.55 19.4499 133.95 19.3999 110.4 19.3999C79.95 19.3999 49.5 19.3999 19.05 19.3999C15.4 19.3999 14.45 20.2999 14.45 23.9499C14.45 59.6499 14.45 95.3999 14.45 131.1C14.45 131.75 14.45 132.35 14.45 133.1C71.55 133.15 128.4 133.15 185.5 133.15ZM185.45 139.75C128.4 139.75 71.5 139.75 14.65 139.75C14.55 140 14.5 140.15 14.5 140.25C14.5 143.3 14.45 146.35 14.45 149.4C14.45 153.35 15.35 154.25 19.35 154.25C73.15 154.25 126.9 154.25 180.7 154.25C181.4 154.25 182.15 154.25 182.85 154.15C184.4 153.9 185.4 152.95 185.45 151.4C185.5 147.55 185.45 143.75 185.45 139.75Z" fill="#E8565C"/>
<path d="M123 180.45C123 176.1 123 172 123 167.8C125.1 167.8 127.05 167.8 129.2 167.8C129.2 171.45 129.3 174.95 129.15 178.45C129.1 180.25 129.55 180.85 131.4 180.75C134.5 180.6 137.6 180.7 140.8 180.7C140.8 182.85 140.8 184.75 140.8 186.9C113.6 186.9 86.4001 186.9 59.1001 186.9C59.1001 184.9 59.1001 182.95 59.1001 180.75C62.8501 180.75 66.6501 180.75 70.6001 180.75C70.6001 176.9 70.7001 173.3 70.5501 169.75C70.5001 168.1 71.0001 167.5 72.6501 167.65C74.0001 167.8 75.3501 167.7 76.9501 167.7C76.9501 172.05 76.9501 176.25 76.9501 180.5C92.4001 180.45 107.55 180.45 123 180.45Z" fill="#E8565C"/>
<path d="M103.2 92.8999C103.2 81.8499 103.2 70.8999 103.2 59.6499C104.85 59.6499 106.45 59.6499 108.05 59.6499C111.6 59.6999 115.1 59.5999 118.65 59.7999C123.15 60.0999 127.1 63.9499 127.3 68.3999C127.5 73.4499 127.55 78.5499 127.35 83.6499C127.15 88.6499 123.5 92.4999 118.5 92.7999C113.8 93.0999 109.05 92.9499 104.35 92.9999C103.95 93.0499 103.6 92.9999 103.2 92.8999ZM109.5 86.7499C112.1 86.7499 114.55 86.7999 117 86.7499C119.5 86.6999 120.95 85.3999 121 82.8999C121.1 78.5999 121.1 74.2999 121 69.9999C120.95 67.7499 119.9 66.3499 117.9 66.2499C115.15 66.0499 112.35 66.1999 109.45 66.1999C109.5 72.9999 109.5 79.6999 109.5 86.7499Z" fill="#E8565C"/>
<path d="M133.7 59.7998C141.8 59.7998 149.75 59.7998 157.9 59.7998C157.9 61.8498 157.9 63.8498 157.9 65.9998C152 65.9998 146.2 65.9998 140.2 65.9998C140.2 68.3998 140.2 70.6498 140.2 73.0998C143.05 73.0998 145.95 73.0998 148.95 73.0998C148.95 75.3498 148.95 77.3998 148.95 79.6498C146 79.6498 143.15 79.6498 140.2 79.6498C140.2 82.0498 140.2 84.2998 140.2 86.7498C146.1 86.7498 152 86.7498 158 86.7498C158 88.9498 158 90.8998 158 92.9498C149.95 92.9498 141.9 92.9498 133.75 92.9498C133.7 81.8498 133.7 70.8998 133.7 59.7998Z" fill="#E8565C"/>
<path d="M96.7998 76.2C96.7998 78.65 96.8998 81.1 96.7998 83.55C96.5998 88.4 93.0498 92.35 88.2498 92.85C85.8998 93.1 83.4498 93.1 81.0998 92.85C76.4498 92.35 72.8498 88.7 72.6998 84.05C72.4998 78.85 72.4998 73.65 72.6998 68.45C72.8998 63.95 76.8498 60.15 81.2998 59.85C83.3998 59.7 85.4998 59.65 87.5498 59.8C92.8498 60.2 96.5498 64.05 96.7998 69.4C96.8998 71.65 96.7998 73.95 96.7998 76.2ZM90.4998 76.6C90.4998 74.75 90.4998 72.9 90.4998 71.05C90.4998 67.35 89.2498 66.05 85.5998 66.05C84.8998 66.05 84.1498 66.05 83.4498 66.05C80.3498 66.1 78.9498 67.4 78.8998 70.5C78.8498 74.45 78.8498 78.4 78.8998 82.35C78.9498 85.4 80.2998 86.7 83.2998 86.75C84.2998 86.75 85.3498 86.75 86.3498 86.75C89.1498 86.7 90.4998 85.35 90.5498 82.5C90.4998 80.5 90.4998 78.55 90.4998 76.6Z" fill="#E8565C"/>
<path d="M30.0998 51.6998C27.8498 51.6998 25.8498 51.6998 23.7998 51.6998C23.7998 44.0498 23.7998 36.4498 23.7998 28.7998C41.7498 28.7998 59.5998 28.7998 77.5498 28.7998C77.5498 30.8998 77.5498 32.8998 77.5498 35.0498C61.7498 35.0498 46.0498 35.0498 30.0998 35.0498C30.0998 40.6498 30.0998 46.0998 30.0998 51.6998Z" fill="#E8565C"/>
<path d="M176.15 28.7C176.15 36.45 176.15 44 176.15 51.7C174.1 51.7 172.1 51.7 169.95 51.7C169.95 46.2 169.95 40.8 169.95 35.2C154.05 35.2 138.3 35.2 122.65 35.2C122.45 34.9 122.35 34.8 122.35 34.7C121.95 28.75 121.95 28.75 127.8 28.75C143.15 28.75 158.55 28.75 173.9 28.75C174.6 28.7 175.3 28.7 176.15 28.7Z" fill="#E8565C"/>
<path d="M23.7998 123.95C23.7998 116.3 23.7998 108.75 23.7998 101.1C25.8498 101.1 27.8498 101.1 30.0498 101.1C30.0498 106.6 30.0498 112.05 30.0498 117.65C45.9498 117.65 61.6998 117.65 77.5498 117.65C77.5498 119.85 77.5498 121.85 77.5498 123.95C59.5998 123.95 41.7498 123.95 23.7998 123.95Z" fill="#E8565C"/>
<path d="M169.9 117.65C169.9 112 169.9 106.6 169.9 101.05C172.05 101.05 174.05 101.05 176.15 101.05C176.15 108.7 176.15 116.25 176.15 123.95C158.2 123.95 140.35 123.95 122.4 123.95C122.4 121.85 122.4 119.85 122.4 117.65C138.2 117.65 153.95 117.65 169.9 117.65Z" fill="#E8565C"/>
<path d="M66.1499 72.6999C64.0999 72.6999 62.1499 72.6999 59.8999 72.6999C59.8999 71.7499 59.9499 70.8499 59.8999 69.8999C59.7499 67.3999 58.4499 66.0999 55.8999 65.9999C54.6499 65.9499 53.3999 65.9499 52.1499 65.9999C49.8999 66.0999 48.4499 67.3499 48.3999 69.5499C48.2999 74.1499 48.2999 78.7499 48.3999 83.3499C48.4499 85.0999 49.7499 86.3999 51.6499 86.5999C53.2999 86.7499 54.9999 86.7499 56.6499 86.6499C58.5999 86.4999 59.7499 85.1499 59.8999 83.1999C59.9499 82.1999 59.8999 81.1999 59.8999 80.0999C62.0999 80.0999 64.0999 80.0999 66.0999 80.0999C67.4999 87.3499 63.1499 92.8999 55.8499 93.0499C53.7499 93.0999 51.5999 93.1499 49.5999 92.6499C44.7999 91.4999 42.0999 87.9999 41.9499 82.8999C41.7999 78.3999 41.7999 73.9499 41.9499 69.4499C42.1499 64.0499 45.9999 60.1499 51.3499 59.7999C54.4999 59.5999 57.7499 59.1999 60.6999 60.6999C65.4499 63.1999 66.7999 67.4499 66.1499 72.6999Z" fill="#E8565C"/>
<path d="M103.1 28.7998C103.1 30.8998 103.1 32.8498 103.1 34.9498C101.05 34.9498 99.0001 34.9498 96.8501 34.9498C96.8501 32.9498 96.8501 30.9498 96.8501 28.7998C98.9001 28.7998 100.9 28.7998 103.1 28.7998Z" fill="#E8565C"/>
<path d="M96.7998 123.95C96.7998 121.85 96.7998 119.9 96.7998 117.8C98.8998 117.8 100.95 117.8 103.05 117.8C103.05 119.85 103.05 121.85 103.05 123.95C101 123.95 98.9998 123.95 96.7998 123.95Z" fill="#E8565C"/>
<path d="M84.1001 34.9498C84.1001 32.8998 84.1001 30.8998 84.1001 28.7998C86.1501 28.7998 88.1001 28.7998 90.2001 28.7998C90.2001 30.7998 90.2001 32.7998 90.2001 34.9498C88.2501 34.9498 86.2001 34.9498 84.1001 34.9498Z" fill="#E8565C"/>
<path d="M115.9 34.9998C113.75 34.9998 111.8 34.9998 109.7 34.9998C109.7 33.0498 109.7 31.0998 109.7 28.7498C111.55 28.7498 113.45 28.6998 115.35 28.7998C115.55 28.7998 115.85 29.4498 115.85 29.7998C115.9 31.4498 115.9 33.1498 115.9 34.9998Z" fill="#E8565C"/>
<path d="M84.1001 123.95C84.1001 121.85 84.1001 119.85 84.1001 117.75C86.2001 117.75 88.2001 117.75 90.2501 117.75C90.2501 119.85 90.2501 121.85 90.2501 123.95C88.2001 123.95 86.3001 123.95 84.1001 123.95Z" fill="#E8565C"/>
<path d="M115.8 124C113.7 124 111.8 124 109.7 124C109.7 121.95 109.7 119.95 109.7 117.8C111.65 117.8 113.65 117.8 115.8 117.8C115.8 119.8 115.8 121.8 115.8 124Z" fill="#E8565C"/>
</svg>
