<svg width="200" height="200" viewBox="0 0 200 200" fill="none" xmlns="http://www.w3.org/2000/svg">
<path d="M129.699 182.1C133.949 182.7 138.199 183.25 142.399 183.85C142.799 183.9 143.099 184.3 143.649 184.7C141.699 186.4 139.449 186.65 137.249 187C124.299 188.95 111.249 189.35 98.1995 188.85C94.5995 188.7 91.0495 187.7 87.4495 187.2C83.8495 186.7 80.1495 186.5 76.5495 185.9C43.5495 180.35 15.2995 154.85 8.5995 121.9C3.0495 94.1999 9.6995 69.3499 27.4995 47.5499C41.1995 30.8499 59.1995 21.5999 80.4995 18.6499C84.1495 18.1499 87.8995 18.1999 91.6495 18.1499C92.6995 18.1499 93.3495 17.8499 93.9495 16.9999C95.0995 15.3499 96.2995 13.7499 97.5495 12.1499C98.7495 10.5999 99.6995 10.6999 101.199 11.7499C103.099 13.0999 103.699 14.6999 103.199 16.8999C103.049 17.5499 103.199 18.2499 103.199 18.8999C106.699 19.7999 110.099 20.7499 113.499 21.5499C114.149 21.6999 114.999 21.5499 115.699 21.2999C130.199 16.3999 144.349 17.0999 158.149 23.6999C168.199 28.4999 175.949 35.9999 181.949 45.2499C190.349 58.1999 194.25 72.3999 193.1 87.7999C191.9 103.7 185.699 117.5 174.799 129.15C173.849 130.15 173.1 131.45 172.6 132.8C165.2 154.15 151.399 170.05 131.649 180.85C131.049 181.2 130.45 181.5 129.85 181.85C129.75 182 129.699 182.1 129.699 182.1ZM40.8495 150C53.3495 162.75 68.2495 169.85 86.0495 171.35C86.0495 170.1 86.0495 168.9 86.0495 167.7C86.0495 165.85 86.8995 164.6 88.1995 164.75C89.9995 164.9 90.3495 166.2 90.2995 167.75C90.2495 168.95 90.2995 170.1 90.2995 171.25C105.099 173.35 133.249 161.2 140.799 149.35C139.799 148.45 138.65 147.55 137.6 146.55C136.55 145.6 136.399 144.45 137.399 143.4C138.449 142.3 139.549 142.5 140.549 143.55C141.549 144.6 142.449 145.7 143.499 146.95C153.699 134.45 158.949 120.6 159.499 104.8C157.549 104.8 155.849 104.8 154.149 104.8C153.649 104.8 153.149 104.85 152.649 104.8C151.399 104.6 150.699 103.9 150.749 102.6C150.849 101.3 151.649 100.55 152.999 100.55C155.099 100.5 157.199 100.55 159.499 100.55C158.699 82.8499 152.5 67.8499 140.35 54.9499C139.05 56.2999 137.899 57.5499 136.699 58.7499C135.699 59.7499 134.499 60.2499 133.399 59.0999C132.299 57.9999 132.649 56.7999 133.749 55.7999C134.999 54.6499 136.299 53.5499 137.949 52.0999C136.399 51.2499 135.199 50.0499 134.449 50.2999C129.349 52.0499 124.299 54.0999 118.799 56.2499C121.199 58.0499 122.949 59.4999 124.849 60.6999C127.799 62.4999 128.749 65.1499 128.699 68.3999C128.699 69.9999 127.949 70.9499 126.299 70.8499C119.799 70.5499 113.349 70.3499 106.849 69.8499C102.949 69.5499 99.0495 68.7999 95.0995 68.2499C94.9995 68.7499 94.9495 69.0499 94.9495 69.3499C94.5995 78.2499 94.2495 87.1499 93.9995 95.9999C93.9995 96.5999 94.4995 97.3499 94.9995 97.7999C97.2995 99.9499 98.0495 102.9 96.6995 105.7C96.1995 106.75 96.5495 107.25 97.2495 107.9C100.249 110.7 103.199 113.55 106.149 116.4C108.599 118.7 110.999 121.05 113.649 123.55C113.249 121.1 113.699 119.95 115.149 119.75C116.899 119.55 117.549 120.8 117.999 122.2C119.399 126.6 116.199 131.35 111.599 131.5C110.849 131.55 109.699 130.85 109.449 130.25C109.199 129.6 109.799 128.6 110.099 127.8C110.249 127.5 110.699 127.35 111.249 127.05C110.599 126.45 110.049 126 109.549 125.55C104.199 120.45 98.8495 115.4 93.5995 110.25C92.8495 109.5 92.2995 109.2 91.1995 109.35C86.9495 109.95 83.5995 106.3 84.3495 102.1C84.8995 98.9499 86.6995 96.8999 89.8495 96.0499C90.1495 86.5499 90.4995 77.0999 90.7995 67.7499C84.4995 66.3499 78.4495 65.0499 72.4495 63.6999C69.3495 62.9999 68.9495 62.2499 69.9995 59.1999C72.6995 51.1499 76.6995 43.6999 80.9995 36.4499C81.2995 35.8999 81.6495 35.3499 82.0995 34.5499C65.4495 36.9499 51.7495 43.9499 40.3495 56.1499C42.0995 57.8499 43.7495 59.3499 45.2495 60.8999C46.4995 62.1499 46.3495 64.1499 44.9495 64.4999C44.0495 64.6999 42.7495 64.2499 41.9995 63.6499C40.4495 62.3499 39.0995 60.7499 37.6995 59.2499C26.4995 72.2999 21.5495 90.5999 22.2995 101.05C24.3495 101.05 26.3995 101.05 28.4495 101.05C30.2995 101.05 31.3495 101.85 31.3995 103.25C31.3995 104.65 30.3995 105.4 28.4495 105.4C26.3995 105.4 24.3495 105.4 22.0995 105.4C22.8495 121.25 28.1495 135 38.2995 147.2C39.3995 146 40.3495 144.95 41.2995 144C42.2495 143.05 43.3495 142.65 44.4495 143.7C45.5995 144.8 45.3995 145.95 44.3495 147C43.1495 147.9 42.0495 148.9 40.8495 150ZM89.8995 22.3999C83.6995 22.3999 77.8995 23.1499 72.1995 24.5499C54.5995 28.8499 40.1495 38.1499 28.9995 52.3999C17.1995 67.4999 10.9495 84.6999 10.9495 104C10.9495 124.1 17.3995 142 31.2995 156.45C55.1495 181.25 84.1995 189.5 116.949 178.4C147.699 168 165.399 145.2 170.299 113.25C173.799 90.4999 166.95 70.2999 152.35 52.5999C150.75 50.6499 148.899 49.5499 146.499 49.2999C144.699 49.1499 142.9 49.0999 141.1 48.9999C141.05 49.1999 140.999 49.4499 140.949 49.6499C141.499 50.0999 142.049 50.4999 142.549 50.9999C159.199 68.3999 166.399 89.0999 163.199 112.95C158.999 144.3 134.849 169.15 103.649 174.55C81.5995 178.4 61.4495 173.4 44.3995 158.9C22.3495 140.4 13.9995 116.4 19.0995 88.1499C22.1495 71.0999 31.0495 57.0999 44.3995 46.0999C55.7495 36.7999 68.8495 31.4499 83.4995 29.9499C84.1495 29.8999 85.0495 29.5999 85.3995 29.0999C86.8995 27.0499 88.2995 24.8499 89.8995 22.3999ZM94.7995 23.0499C86.6495 34.4999 79.1495 46.2499 74.0995 59.6999C88.6995 63.0499 102.999 65.8499 117.799 65.9499C117.749 65.6499 117.749 65.5999 117.699 65.5499C115.349 63.4499 113.049 61.2999 110.699 59.1999C108.999 57.6999 108.899 56.6999 110.449 55.0499C113.599 51.6999 117.249 49.0999 121.449 47.1999C133.999 41.5999 146.449 41.7999 158.549 48.2999C177 58.1999 186.599 79.3499 184.499 99.9999C184.199 103.1 183.549 106.15 182.999 109.7C183.499 108.65 183.799 108.05 184.049 107.4C188.149 97.5499 189.75 87.3499 188.6 76.6999C186.6 58.5999 178.949 43.4999 164.249 32.4999C150.149 21.9999 134.5 19.7999 117.799 25.0499C111.499 27.0499 105.849 30.3999 101.049 35.0999C98.7995 37.2999 97.0995 36.8499 96.4495 33.7499C95.7495 30.2499 95.3495 26.7499 94.7995 23.0499ZM161.699 57.6999C172.699 74.7499 177.349 93.4499 176.749 113.7C177.949 110.35 179.099 107 179.699 103.6C181.199 95.4499 181.399 87.2499 177.899 79.4999C174.099 71.0499 168.749 63.7499 161.699 57.6999ZM90.3995 105.05C91.6495 104.9 92.9495 104.6 93.0995 103C93.1995 101.85 91.7495 100.3 90.5995 100.4C89.1995 100.55 88.4995 101.45 88.3995 102.8C88.2995 104.15 88.9995 104.95 90.3995 105.05ZM102.649 28.0499C104.549 26.8499 106.199 25.7999 108.299 24.4499C106.149 24.0499 104.599 23.7499 102.849 23.3999C102.799 25.0499 102.699 26.3499 102.649 28.0499Z" fill="#E8565C"/>
</svg>
