<svg width="200" height="200" viewBox="0 0 200 200" fill="none" xmlns="http://www.w3.org/2000/svg">
<path d="M100.001 23C120.051 23 140.151 23 160.201 23C167.901 23 175.601 23 183.301 23C188.301 23 192.401 27.0999 192.401 32.0999C192.401 53.8499 192.401 75.6499 192.401 97.3999C192.401 120.4 192.301 143.4 192.451 166.4C192.501 172.75 188.101 177.05 181.851 177.05C127.251 176.95 72.6508 177 18.0008 177C11.3508 177 7.60078 173.25 7.60078 166.65C7.60078 122.05 7.65078 77.3999 7.55078 32.7999C7.55078 27.3499 12.2508 22.95 17.3008 22.95C44.8508 23.1 72.4008 23 100.001 23ZM13.7008 53.7999C13.7008 54.4999 13.7008 55 13.7008 55.5C13.7008 92.5499 13.7008 129.65 13.7008 166.7C13.7008 169.9 14.7008 170.95 17.9508 170.95C27.8008 170.95 37.6508 170.95 47.5008 170.95C92.3008 170.95 137.151 170.95 181.951 170.95C185.301 170.95 186.301 170 186.301 166.7C186.301 129.65 186.301 92.5499 186.301 55.5C186.301 54.95 186.301 54.3999 186.301 53.8499C128.701 53.7999 71.3008 53.7999 13.7008 53.7999ZM186.301 47.65C186.301 42.9 186.301 38.3499 186.301 33.7999C186.301 30.1499 185.301 29.15 181.651 29.15C152.851 29.15 124.051 29.15 95.2508 29.15C69.4508 29.15 43.7008 29.15 17.9008 29.15C14.9008 29.15 13.7008 30.3499 13.7008 33.3499C13.7008 37.5999 13.7008 41.85 13.7008 46.15C13.7008 46.65 13.7508 47.15 13.8008 47.7C71.3008 47.65 128.701 47.65 186.301 47.65Z" fill="#E8565C"/>
<path d="M124.001 104.45C128.101 97.4499 132.101 90.5999 136.101 83.6999C138.501 79.5999 140.901 75.4499 143.301 71.3499C144.801 68.8499 146.451 68.5499 148.701 70.4499C155.001 75.7999 161.251 81.1999 167.651 86.6999C169.801 84.5499 171.901 82.3999 174.051 80.2999C176.101 78.2499 177.651 77.9999 179.101 79.3999C180.601 80.8999 180.351 82.4499 178.301 84.5499C175.701 87.1499 173.151 89.6999 170.551 92.2999C168.551 94.2499 167.351 94.3499 165.251 92.5499C159.451 87.6499 153.701 82.6999 147.901 77.7999C147.651 77.5499 147.351 77.3499 147.001 77.0499C143.901 82.3499 140.801 87.6499 137.751 92.8999C134.601 98.3499 131.401 103.8 128.251 109.25C126.951 111.45 125.701 111.85 123.351 110.85C115.851 107.55 108.351 104.25 100.851 100.9C99.8508 100.45 99.5508 101 99.1008 101.5C93.2508 107.55 87.4508 113.65 81.6008 119.7C81.0508 120.25 80.5008 120.8 79.8508 121.15C78.6508 121.85 77.4508 121.55 76.4508 120.65C75.5008 119.75 75.3008 118.6 75.8008 117.4C76.0508 116.8 76.5008 116.25 76.9508 115.8C82.3508 110.25 87.7508 104.7 93.1508 99.0999C94.3508 97.8499 95.5008 96.4999 96.7008 95.2499C97.8008 94.0999 99.0508 93.5499 100.701 94.2499C103.951 95.6999 107.201 97.0999 110.451 98.4999C114.801 100.45 119.351 102.4 124.001 104.45Z" fill="#E8565C"/>
<path d="M44.6013 152.3C31.4513 152.55 20.2513 141.55 19.9513 128.05C19.6513 114.8 30.7513 103.3 44.1013 103.15C57.7513 102.95 68.9013 113.8 69.1513 127.5C69.4013 140.95 58.4013 152.05 44.6013 152.3ZM63.0513 127.7C63.0513 117.65 54.7013 109.2 44.8013 109.2C34.3513 109.2 26.0013 117.5 26.0013 127.8C26.0013 138.05 34.3513 146.25 44.7013 146.3C54.7013 146.35 63.0513 137.85 63.0513 127.7Z" fill="#E8565C"/>
<path d="M127.701 152.4C141.501 152.4 155.301 152.4 169.151 152.4C169.551 152.4 169.951 152.4 170.401 152.4C172.451 152.45 173.901 153.75 173.901 155.5C173.851 157.15 172.401 158.45 170.401 158.45C164.951 158.5 159.501 158.45 154.051 158.45C131.351 158.45 108.651 158.45 85.9507 158.45C85.3007 158.45 84.6007 158.45 83.9507 158.3C82.5007 158 81.4507 156.65 81.5007 155.3C81.5507 153.9 82.6007 152.7 84.0507 152.4C84.6507 152.3 85.3007 152.3 85.9007 152.3C99.9007 152.4 113.801 152.4 127.701 152.4Z" fill="#E8565C"/>
<path d="M143.151 118.5C143.151 110.8 143.151 103.1 143.151 95.4001C143.151 95.0001 143.151 94.6001 143.151 94.1501C143.251 92.2501 144.501 90.8501 146.101 90.8001C147.801 90.7501 149.151 92.1501 149.201 94.1001C149.251 96.1501 149.201 98.2001 149.201 100.25C149.201 114.2 149.201 128.2 149.201 142.15C149.201 142.7 149.151 143.3 149.051 143.8C148.701 145.2 147.451 146.1 146.101 146.05C144.801 146 143.551 145 143.301 143.65C143.151 143.05 143.151 142.45 143.151 141.8C143.151 134.1 143.151 126.3 143.151 118.5Z" fill="#E8565C"/>
<path d="M161.601 121.55C161.601 128.3 161.601 135.1 161.601 141.85C161.601 142.4 161.601 143 161.501 143.55C161.251 145 160.051 146.05 158.651 146.15C157.301 146.2 156.051 145.25 155.701 143.7C155.551 143.1 155.551 142.5 155.551 141.85C155.551 128.3 155.551 114.75 155.551 101.2C155.551 100.85 155.551 100.5 155.551 100.1C155.701 98.1498 157.001 96.8498 158.601 96.8998C160.251 96.9498 161.501 98.2998 161.551 100.25C161.601 103.7 161.551 107.1 161.551 110.55C161.601 114.3 161.601 117.95 161.601 121.55Z" fill="#E8565C"/>
<path d="M41.3507 72.2499C35.4007 72.2499 29.4507 72.2499 23.5007 72.2499C20.9007 72.2499 19.3507 70.2999 20.2007 68.1499C20.8007 66.6499 22.0007 66.1499 23.5507 66.1499C30.5007 66.1499 37.4007 66.1499 44.3507 66.1499C49.2507 66.1499 54.1007 66.1499 59.0007 66.1499C59.7007 66.1499 60.4507 66.1999 61.1007 66.4499C62.3007 66.8999 63.0007 67.8999 62.9507 69.1999C62.9507 70.4999 62.2507 71.4999 61.0507 71.9499C60.4007 72.1999 59.6507 72.2499 58.9507 72.2499C53.0507 72.2499 47.2007 72.2499 41.3507 72.2499Z" fill="#E8565C"/>
<path d="M173.901 124.65C173.901 130.45 173.901 136.25 173.901 142.05C173.901 142.65 173.901 143.3 173.751 143.9C173.401 145.3 172.151 146.2 170.801 146.15C169.501 146.1 168.251 145.1 167.951 143.75C167.851 143.2 167.801 142.65 167.801 142.05C167.801 130.45 167.801 118.85 167.801 107.25C167.801 106.7 167.801 106.1 167.951 105.55C168.251 104.2 169.451 103.15 170.751 103.15C172.101 103.1 173.351 104.05 173.701 105.4C173.851 106 173.851 106.6 173.851 107.25C173.901 113.05 173.901 118.85 173.901 124.65Z" fill="#E8565C"/>
<path d="M35.251 84.55C31.501 84.55 27.751 84.55 24.001 84.55C23.351 84.55 22.651 84.5 22.051 84.3C20.751 83.85 20.001 82.85 20.001 81.5C20.001 80.15 20.751 79.15 22.001 78.7C22.551 78.5 23.201 78.45 23.801 78.45C31.451 78.45 39.101 78.4 46.751 78.45C47.601 78.45 48.551 78.6 49.251 79.05C50.351 79.7 50.851 80.8 50.551 82.1C50.201 83.55 49.201 84.4 47.701 84.5C46.251 84.6 44.851 84.55 43.401 84.55C40.651 84.55 37.951 84.55 35.251 84.55Z" fill="#E8565C"/>
<path d="M99.9506 130.9C99.9506 134.85 99.9506 138.8 99.9506 142.75C99.9506 144.2 99.3506 145.35 97.9506 145.95C96.6506 146.5 95.4506 146.15 94.6506 145.05C94.2006 144.4 93.9006 143.45 93.9006 142.65C93.8506 134.8 93.8506 126.95 93.8506 119.1C93.8506 117 95.1506 115.55 96.9006 115.55C98.6506 115.55 99.9506 117 99.9506 119.1C100.001 123 99.9506 126.95 99.9506 130.9Z" fill="#E8565C"/>
<path d="M106.201 130.8C106.201 126.95 106.201 123.1 106.201 119.25C106.201 118.5 106.201 117.5 106.651 117.05C107.401 116.35 108.451 115.65 109.451 115.55C110.701 115.4 111.651 116.35 112.051 117.55C112.251 118.15 112.251 118.85 112.251 119.5C112.251 127 112.251 134.5 112.251 142C112.251 142.35 112.251 142.7 112.251 143.1C112.101 144.9 110.751 146.15 109.151 146.1C107.651 146.05 106.351 144.8 106.201 143.1C106.101 141.95 106.151 140.75 106.151 139.55C106.201 136.65 106.201 133.75 106.201 130.8Z" fill="#E8565C"/>
<path d="M136.951 130.85C136.951 134.85 136.951 138.85 136.951 142.85C136.951 144.3 136.301 145.45 134.901 145.95C133.551 146.45 132.401 146 131.651 144.95C131.201 144.35 130.951 143.45 130.951 142.65C130.901 134.75 130.901 126.85 130.951 118.95C130.951 116.95 132.251 115.5 133.901 115.5C135.651 115.45 137.001 116.9 137.001 119C136.951 122.9 136.951 126.9 136.951 130.85Z" fill="#E8565C"/>
<path d="M118.501 133.75C118.501 130.95 118.501 128.1 118.501 125.3C118.501 123.2 119.751 121.7 121.451 121.65C123.251 121.6 124.551 123.1 124.551 125.3C124.551 131.05 124.551 136.8 124.551 142.55C124.551 144.75 123.251 146.25 121.451 146.2C119.751 146.15 118.501 144.7 118.501 142.55C118.501 139.6 118.501 136.65 118.501 133.75Z" fill="#E8565C"/>
<path d="M87.651 136.9C87.651 138.8 87.651 140.7 87.651 142.6C87.601 144.7 86.351 146.15 84.601 146.15C82.901 146.15 81.601 144.7 81.601 142.6C81.551 138.85 81.551 135.1 81.601 131.35C81.601 129.25 82.951 127.8 84.651 127.8C86.401 127.8 87.651 129.25 87.701 131.35C87.651 133.2 87.651 135.05 87.651 136.9Z" fill="#E8565C"/>
<path d="M26.0007 38.3499C26.0507 39.9999 24.6507 41.3999 23.0007 41.4499C21.3507 41.4999 19.9507 40.0999 19.9007 38.4499C19.8507 36.7999 21.2507 35.3999 22.9007 35.3499C24.5507 35.2999 26.0007 36.6999 26.0007 38.3499Z" fill="#E8565C"/>
<path d="M38.351 38.4001C38.351 40.0501 36.951 41.4501 35.301 41.4501C33.651 41.4501 32.251 40.0501 32.251 38.4001C32.251 36.7501 33.651 35.3501 35.301 35.3501C36.901 35.3501 38.351 36.7501 38.351 38.4001Z" fill="#E8565C"/>
<path d="M50.6509 38.3499C50.7009 39.9499 49.3009 41.3999 47.6509 41.4499C46.0509 41.4999 44.6009 40.0999 44.6009 38.4499C44.5509 36.7999 45.9509 35.3999 47.5509 35.3499C49.2009 35.2999 50.6509 36.6999 50.6509 38.3499Z" fill="#E8565C"/>
</svg>
