<svg width="200" height="200" viewBox="0 0 200 200" fill="none" xmlns="http://www.w3.org/2000/svg">
<path d="M75.7508 136.85C78.9008 137.8 81.5008 137.4 84.0008 136.4C86.7008 135.35 88.8008 133.5 90.4008 131.1C91.1508 130 91.4008 129 90.4008 127.85C89.6008 126.9 89.0008 125.75 88.2508 124.5C89.8508 123.45 91.4008 122.4 93.0508 121.25C93.5508 122.05 94.1508 122.7 94.5008 123.5C95.5508 126.1 97.6008 126.75 100.151 126.5C103.351 126.2 106.501 125.55 109.301 123.55C108.351 121.9 107.401 120.25 106.401 118.55C108.001 117.6 109.551 116.7 111.351 115.6C112.801 118.05 114.151 120.45 115.701 122.75C116.251 123.6 117.201 124.35 118.151 124.85C120.151 125.9 122.351 126.6 124.351 127.7C130.351 131 136.401 130.85 142.451 128.05C144.451 127.15 146.251 125.85 148.351 124.65C149.351 125.95 150.451 127.35 151.851 129.2C149.401 130.65 147.201 132.25 144.751 133.35C142.351 134.45 139.751 135.1 137.451 135.85C142.501 140.7 147.601 145.65 152.901 150.75C165.301 145.85 178.801 143.9 192.601 142.8C192.701 143.6 192.851 144.1 192.901 144.65C193.001 145.9 193.051 147.15 193.101 148.4C187.301 149.15 181.651 149.85 176.001 150.65C169.251 151.65 162.551 153.05 156.201 155.7C155.251 156.1 154.601 156.5 154.701 157.9C155.251 164.15 152.751 167.75 146.751 169.6C146.201 169.75 145.601 169.95 144.901 170.15C145.701 174.25 145.301 178.05 141.701 180.75C138.401 183.25 134.651 184.25 130.601 183.2C126.701 189.75 120.751 191.35 112.401 188.15C108.851 193.6 103.701 193.45 98.3508 191.85C92.5008 190.15 87.1508 187.35 82.4008 183.5C75.9008 178.25 69.5008 172.8 63.2008 167.3C54.0008 159.25 43.4508 154.5 31.2508 153.5C23.9008 152.9 16.5508 152.4 9.20078 151.85C8.60078 151.8 8.00078 151.75 7.35078 151.75C7.35078 149.8 7.35078 148 7.35078 146.25C10.0508 146.25 12.6008 146.05 15.1008 146.3C23.7008 147.15 32.3508 147.85 40.8508 149.25C50.1008 150.8 58.0008 155.6 65.1508 161.55C70.9508 166.4 76.5508 171.5 82.4008 176.35C87.6008 180.65 93.1508 184.4 99.7008 186.25C101.301 186.7 103.001 186.9 104.651 186.8C105.551 186.75 106.701 185.95 107.051 185.15C107.301 184.6 106.651 183.3 106.001 182.7C104.001 180.75 101.851 178.95 99.6508 177.05C100.901 175.55 102.051 174.15 103.351 172.65C105.951 174.95 108.501 177.2 111.051 179.4C112.201 180.4 113.351 181.5 114.551 182.45C117.001 184.45 120.301 184.7 123.001 183.1C125.151 181.8 125.601 179.85 123.701 178.15C120.751 175.55 117.551 173.2 114.501 170.7C113.001 169.5 111.651 168.15 110.101 166.75C111.651 165.3 113.001 164.1 114.451 162.8C119.501 167.25 124.601 171.55 129.501 176.05C131.301 177.7 133.201 178.2 135.401 177.5C137.101 176.95 139.001 176.3 139.251 174.15C139.601 171.65 138.401 169.85 136.501 168.3C131.301 164.1 126.201 159.75 121.001 155.5C120.551 155.1 120.051 154.8 119.401 154.3C121.001 152.8 122.351 151.6 123.801 150.25C126.051 152.3 128.351 154.5 130.801 156.55C133.451 158.8 136.251 160.9 139.001 163C141.301 164.75 143.901 164.65 146.451 163.6C148.451 162.8 149.251 160.9 148.851 158.6C148.301 155.5 146.701 152.95 144.551 150.8C136.601 142.75 127.951 135.6 117.451 131.05C117.101 130.9 116.701 130.75 116.351 130.6C113.701 129.3 111.201 129.1 108.401 130.6C105.251 132.3 101.601 132.6 98.0508 132.3C96.8008 132.2 96.1508 132.5 95.5008 133.6C91.5508 140.5 83.7008 144.25 75.9008 143.1C70.7508 142.35 68.6508 138.65 70.8508 133.95C72.9008 129.6 75.0008 125.25 77.1508 120.95C79.4008 116.4 82.8508 113.05 87.6008 111.15C91.5508 109.6 95.4508 107.9 99.3508 106.15C94.7508 105.75 90.3508 106.65 86.1008 108.25C81.5508 110 77.0508 111.95 72.6508 114C68.3508 116 63.9008 116.9 59.2508 116.9C48.7508 116.95 38.3508 115.85 28.0508 114.2C22.2508 113.3 16.4508 112.2 10.6508 111.2C9.35078 110.95 8.05078 110.6 6.55078 110.25C7.00078 108.4 7.40078 106.65 7.75078 105C18.4008 106.8 28.9008 108.55 39.7508 110.35C39.5008 107.55 39.2508 105.3 39.1508 103.05C38.4008 86.6001 43.6008 72.5001 55.5508 61.0001C56.1008 60.5001 56.3508 59.5001 56.4008 58.7001C56.5008 55.1501 56.4508 51.6001 56.4508 47.8001C63.2008 47.8001 69.8508 47.8001 76.8008 47.8001C76.8008 34.1001 76.8008 20.7001 76.8008 7.15015C92.3508 7.15015 107.601 7.15015 123.101 7.15015C123.101 20.6001 123.101 34.0001 123.101 47.6501C129.951 47.6501 136.551 47.6501 143.501 47.6501C143.501 50.9501 143.601 54.1001 143.451 57.2001C143.351 59.3001 144.051 60.7501 145.551 62.2501C156.601 73.4501 161.501 87.0501 160.751 102.75C160.751 103.2 160.751 103.65 160.751 104.3C171.251 105.4 181.651 105.75 192.401 104.5C192.651 106.35 192.901 108.15 193.201 110.25C191.001 110.5 188.951 110.75 186.901 110.9C176.501 111.7 166.151 110.65 155.801 109.85C145.601 109.1 135.351 108.35 125.101 108C112.051 107.55 100.001 111.5 88.4508 117.2C86.9008 117.95 85.2008 119.15 84.3508 120.6C81.4008 125.85 78.7008 131.25 75.7508 136.85ZM56.6008 68.5001C56.0508 69.0501 55.8508 69.2001 55.7008 69.4001C46.1508 81.1501 43.5008 94.6001 45.8508 109.25C45.9508 109.8 46.9508 110.6 47.5508 110.65C52.2508 110.9 56.9508 111.2 61.6008 111.05C63.9508 111 66.3508 110.25 68.5508 109.4C74.0508 107.25 79.3508 104.75 84.8508 102.65C94.5508 98.9501 104.351 99.2501 114.201 102.3C115.151 102.6 116.151 102.7 117.151 102.7C124.001 102.7 130.801 102.5 137.651 102.7C143.401 102.85 149.151 103.45 155.101 103.85C155.901 90.7501 152.701 79.0001 143.651 68.9501C143.651 77.3001 143.651 85.6001 143.651 94.0001C114.501 94.0001 85.6508 94.0001 56.6508 94.0001C56.6008 85.6001 56.6008 77.3001 56.6008 68.5001ZM82.7508 47.6501C94.4008 47.6501 105.851 47.6501 117.401 47.6501C117.401 36.1001 117.401 24.6501 117.401 13.1501C112.551 13.1501 107.801 13.1501 102.851 13.1501C102.851 15.0501 102.851 16.8501 102.851 18.5501C100.801 18.5501 99.0508 18.5501 97.0508 18.5501C97.0508 16.6501 97.0508 14.9001 97.0508 13.1001C92.1508 13.1001 87.5008 13.1001 82.7008 13.1001C82.7508 24.6001 82.7508 36.0501 82.7508 47.6501ZM103.151 53.7501C103.151 65.3501 103.151 76.8001 103.151 88.3001C114.751 88.3001 126.151 88.3001 137.651 88.3001C137.651 76.7001 137.651 65.2501 137.651 53.7501C132.851 53.7501 128.151 53.7501 123.301 53.7501C123.301 55.6001 123.301 57.4001 123.301 59.2001C121.251 59.2001 119.451 59.2001 117.451 59.2001C117.451 57.3001 117.451 55.6001 117.451 53.7501C112.601 53.7501 107.951 53.7501 103.151 53.7501ZM97.0508 88.2501C97.0508 76.6001 97.0508 65.2001 97.0508 53.8001C92.2008 53.8001 87.5008 53.8001 82.6008 53.8001C82.6008 55.7501 82.6008 57.5001 82.6008 59.2001C80.6008 59.2001 78.8508 59.2001 76.8008 59.2001C76.8008 57.3001 76.8008 55.5501 76.8008 53.8001C71.9008 53.8001 67.2508 53.8001 62.5008 53.8001C62.5008 65.3501 62.5008 76.7501 62.5008 88.3001C74.0508 88.2501 85.5008 88.2501 97.0508 88.2501Z" fill="#E8565C"/>
<path d="M135.901 38.5501C135.001 36.8501 134.151 35.2001 133.251 33.4001C140.251 29.8001 147.101 26.2001 154.001 22.6501C160.201 28.8501 166.301 34.9501 172.401 41.0501C173.701 42.3501 174.901 43.6501 176.251 44.8501C177.201 45.7001 177.301 46.4501 176.701 47.6001C174.201 52.2001 171.801 56.8001 169.501 61.5001C169.051 62.4001 168.951 63.7001 169.301 64.6001C170.701 68.3501 172.401 72.0001 173.851 75.7501C174.351 77.0001 175.051 77.6001 176.351 77.9001C181.851 79.0501 187.301 80.3501 192.801 81.6001C192.801 87.3001 192.801 92.9001 192.801 98.6001C190.951 98.6001 189.151 98.6001 187.151 98.6001C187.151 95.3001 187.001 92.1001 187.201 88.9001C187.301 86.8501 186.801 85.9501 184.651 85.5501C180.351 84.8001 176.151 83.7501 171.901 82.7001C171.101 82.5001 170.101 81.7501 169.801 81.0001C167.351 75.3501 165.001 69.6501 162.751 63.9501C162.451 63.2001 162.551 62.1001 162.901 61.4001C165.301 56.6001 167.801 51.9001 170.401 46.9501C164.801 41.4001 159.201 35.9001 153.551 30.4501C153.151 30.1001 151.951 30.2001 151.301 30.5501C146.751 32.8501 142.301 35.2501 137.751 37.6001C137.251 37.9001 136.651 38.2001 135.901 38.5501Z" fill="#E8565C"/>
<path d="M22.8006 46.2001C30.6506 38.3001 38.3006 30.5501 46.1506 22.6501C53.0006 26.2001 59.8506 29.7501 66.9006 33.4001C66.0006 35.1501 65.2006 36.8001 64.2506 38.6001C59.3006 36.0001 54.3506 33.6001 49.6006 30.9001C47.8006 29.9001 46.8506 29.9501 45.4006 31.4501C40.7506 36.3501 35.9006 41.1001 31.0506 45.8001C30.1006 46.7501 29.8506 47.4001 30.5506 48.6501C32.8506 52.7501 34.9006 56.9501 37.1006 61.0501C37.6506 62.1001 37.8006 63.0001 37.3006 64.2001C34.9006 69.7501 32.6506 75.3001 30.4006 80.9001C30.0006 81.9501 29.4506 82.4501 28.3006 82.7001C23.2506 83.7501 18.2506 84.9501 13.0506 86.1501C13.0506 90.2501 13.0506 94.3001 13.0506 98.5001C11.1006 98.5001 9.30057 98.5001 7.20057 98.5001C7.20057 96.9501 7.20057 95.4501 7.20057 93.9501C7.20057 90.4001 7.30058 86.8501 7.15058 83.3001C7.10058 81.8501 7.65057 81.3501 8.95057 81.0501C13.9506 80.0001 18.9006 78.9501 23.8506 77.7001C24.7006 77.5001 25.7506 76.6501 26.1006 75.8501C27.8006 72.1001 29.4006 68.2501 30.8506 64.3501C31.1506 63.5501 31.1006 62.4001 30.7006 61.6001C28.2006 56.5001 25.5006 51.3501 22.8006 46.2001Z" fill="#E8565C"/>
<path d="M116.151 137.9C118.001 138.75 119.651 139.5 121.351 140.3C118.451 147.35 115.101 153.9 108.951 158.65C107.151 160.05 105.751 162.05 104.451 164C100.501 169.9 95.6007 174.55 88.4507 176.55C87.8007 174.85 87.1507 173.2 86.4507 171.4C86.6507 171.25 86.8007 171.1 87.0007 171.05C93.1507 169.2 97.0507 164.75 100.501 159.65C101.951 157.5 103.701 155.45 105.701 153.9C109.751 150.65 112.301 146.4 114.401 141.8C114.901 140.5 115.501 139.3 116.151 137.9Z" fill="#E8565C"/>
<path d="M46.151 177.3C40.401 171.4 34.751 165.7 29.001 159.85C30.251 158.65 31.601 157.35 33.001 156C37.301 160.3 41.651 164.55 45.901 168.95C46.901 170 47.701 170.2 48.951 169.45C51.251 168.1 53.651 166.95 56.251 165.6C57.151 167.3 58.051 168.9 59.001 170.7C54.701 172.9 50.501 175.05 46.151 177.3Z" fill="#E8565C"/>
<path d="M165.051 158.6C166.201 159.7 167.451 161 168.651 162.1C163.551 167.2 158.451 172.25 153.251 177.45C152.301 176.35 151.051 175 149.851 173.6C154.751 168.75 159.951 163.65 165.051 158.6Z" fill="#E8565C"/>
<path d="M111.551 41.9501C108.051 41.9501 104.651 42.0001 101.251 41.9001C100.851 41.9001 100.251 41.2501 100.201 40.8501C100.051 39.6501 100.051 38.4501 100.201 37.2501C100.251 36.8001 101.001 36.1501 101.401 36.1501C104.751 36.0501 108.051 36.1001 111.551 36.1001C111.551 38.0501 111.551 39.9001 111.551 41.9501Z" fill="#E8565C"/>
<path d="M131.901 82.5003C128.051 82.5003 124.351 82.5003 120.551 82.5003C120.551 80.5503 120.551 78.7503 120.551 76.8003C124.351 76.8003 128.051 76.8003 131.901 76.8003C131.901 78.7503 131.901 80.5503 131.901 82.5003Z" fill="#E8565C"/>
<path d="M91.301 82.5001C87.451 82.5001 83.801 82.5001 80.001 82.5001C80.001 80.6501 80.001 78.8501 80.001 76.8501C83.701 76.8501 87.451 76.8501 91.301 76.8501C91.301 78.7001 91.301 80.5001 91.301 82.5001Z" fill="#E8565C"/>
</svg>
