<svg width="200" height="200" viewBox="0 0 200 200" fill="none" xmlns="http://www.w3.org/2000/svg">
<path d="M20.5504 117.55C16.4004 117.55 12.6504 117.55 8.65039 117.55C8.65039 116.8 8.65039 116.2 8.65039 115.6C8.65039 103.7 8.65039 91.7503 8.65039 79.8503C8.65039 70.9503 14.9504 64.6503 23.8004 64.6003C26.7004 64.6003 29.6504 64.6003 32.5504 64.5003C22.5004 61.8503 19.8004 53.7003 20.5504 47.9003C21.5004 40.7003 27.7004 35.2503 34.9504 35.1503C41.9004 35.0503 48.2004 40.2503 49.5004 46.9003C50.8004 53.3503 47.7004 61.8003 37.7004 64.6503C40.4004 64.6503 43.0504 64.6503 45.7504 64.6503C55.5004 64.7003 61.6004 70.8003 61.6504 80.5503C61.6504 92.2003 61.6504 103.9 61.6504 115.55C61.6504 116.15 61.6504 116.75 61.6504 117.6C57.7504 117.6 53.9004 117.6 49.9504 117.6C49.9504 134.35 49.9504 150.95 49.9504 167.65C40.1504 167.65 30.4504 167.65 20.6004 167.65C20.5504 151.05 20.5504 134.45 20.5504 117.55ZM49.8504 79.4503C49.8504 90.2503 49.8504 100.95 49.8504 111.65C51.9504 111.65 53.8004 111.65 55.7504 111.65C55.7504 100.5 55.9004 89.4503 55.7004 78.4003C55.6004 73.9503 51.5004 70.4003 47.1004 70.3503C39.2004 70.3503 31.2504 70.3503 23.3504 70.4003C18.2504 70.4003 14.4504 74.3003 14.4504 79.4003C14.4504 86.9003 14.4504 94.4003 14.4504 101.85C14.4504 105.1 14.4504 108.3 14.4504 111.65C16.5504 111.65 18.4004 111.65 20.5004 111.65C20.5004 100.85 20.5004 90.1503 20.5004 79.4503C22.5004 79.4503 24.3504 79.4503 26.3504 79.4503C26.3504 86.3503 26.3504 93.1003 26.3504 99.8503C32.3504 99.8503 38.1504 99.8503 44.1004 99.8503C44.1004 93.0003 44.1004 86.2503 44.1004 79.4503C46.0504 79.4503 47.8504 79.4503 49.8504 79.4503ZM26.3504 149.95C28.2504 149.95 30.1504 149.95 32.2504 149.95C32.2504 140.2 32.2504 130.5 32.2504 120.75C34.2504 120.75 36.1004 120.75 38.1004 120.75C38.1004 130.55 38.1004 140.3 38.1004 150C40.2004 150 42.0504 150 43.9004 150C43.9004 135.25 43.9004 120.6 43.9004 105.95C38.0004 105.95 32.2004 105.95 26.3004 105.95C26.3504 120.6 26.3504 135.2 26.3504 149.95ZM26.2504 49.6503C26.3004 54.8003 30.1504 58.7503 35.1504 58.7003C40.1504 58.7003 44.1004 54.6503 44.0504 49.6003C44.0004 44.7503 39.9004 40.8503 34.9504 40.9003C30.2004 41.0003 26.2004 45.0003 26.2504 49.6503ZM26.3504 156C26.3504 158.05 26.3504 159.9 26.3504 161.8C28.3004 161.8 30.2004 161.8 32.0504 161.8C32.0504 159.8 32.0504 157.9 32.0504 156C30.1504 156 28.3004 156 26.3504 156ZM38.1504 156C38.1504 158.05 38.1504 159.9 38.1504 161.8C40.1504 161.8 42.0004 161.8 43.8504 161.8C43.8504 159.8 43.8504 157.9 43.8504 156C41.9004 156 40.1004 156 38.1504 156Z" fill="#E8565C"/>
<path d="M162.3 64.6503C153.7 61.7003 149.05 55.2003 150.3 47.6003C151.5 40.3503 157.7 35.0503 165 35.1503C172.35 35.2503 178.3 40.6003 179.4 48.1503C180.45 55.5503 175.85 61.9003 167.45 64.6503C170.1 64.6503 172.8 64.6503 175.45 64.6503C185.2 64.6503 191.35 70.8003 191.35 80.5003C191.35 92.2503 191.35 103.95 191.35 115.7C191.35 116.25 191.35 116.8 191.35 117.6C189.25 117.6 187.2 117.6 184.9 117.6C186.3 124.6 187.6 131.3 189 138.2C185.85 138.2 182.85 138.2 179.65 138.2C179.65 148.05 179.65 157.8 179.65 167.65C169.75 167.65 160.1 167.65 150.2 167.65C150.2 157.95 150.2 148.2 150.2 138.35C147 138.35 144 138.35 140.7 138.35C142.05 131.4 143.4 124.65 144.8 117.7C142.6 117.7 140.6 117.7 138.4 117.7C138.4 116.85 138.4 116.2 138.4 115.55C138.4 103.7 138.4 91.8503 138.4 80.0003C138.4 71.0503 144.6 64.8003 153.5 64.7003C156.4 64.6003 159.35 64.6503 162.3 64.6503ZM185.35 111.7C185.4 111.55 185.5 111.4 185.5 111.3C185.5 100.45 185.6 89.5503 185.45 78.7003C185.4 74.0503 181.35 70.4503 176.7 70.4503C168.9 70.4003 161.1 70.4003 153.3 70.4003C147.95 70.4003 144.15 74.2503 144.15 79.5503C144.15 87.0003 144.1 94.4003 144.1 101.85C144.1 105.15 144.1 108.45 144.1 111.6C145.6 112.05 146.05 111.55 146.25 110.4C146.7 107.8 147.35 105.25 147.8 102.65C148.8 96.8503 150.6 91.2003 150.15 85.2003C150 83.3003 150.15 81.4503 150.15 79.5003C152.2 79.5003 154.05 79.5003 155.6 79.5003C155.6 84.1003 156.2 88.7003 155.5 93.0503C153.85 103.25 151.55 113.4 149.5 123.55C148.9 126.45 148.35 129.35 147.8 132.35C159.3 132.35 170.55 132.35 181.8 132.35C181.75 131.9 181.8 131.5 181.7 131.15C180.05 122.95 178.4 114.8 176.8 106.6C175.15 98.2003 172.95 89.8503 173.7 81.1503C173.75 80.5503 173.7 80.0003 173.7 79.5003C175.8 79.5003 177.6 79.5003 179.7 79.5003C178.3 90.6503 181.75 101 183.65 111.7C184.3 111.7 184.85 111.7 185.35 111.7ZM164.7 58.7003C169.65 58.7503 173.7 54.8003 173.75 49.9503C173.8 45.0503 169.85 40.9503 165 40.9003C160.2 40.8503 156.05 44.7503 156 49.2503C155.9 54.6503 159.65 58.7003 164.7 58.7003ZM156.1 138.3C156.1 142.3 156.1 146.15 156.1 150C158.1 150 159.95 150 161.8 150C161.8 146.05 161.8 142.15 161.8 138.3C159.85 138.3 158 138.3 156.1 138.3ZM173.65 138.35C171.6 138.35 169.75 138.35 167.85 138.35C167.85 142.3 167.85 146.1 167.85 150C169.8 150 171.7 150 173.65 150C173.65 146.1 173.65 142.3 173.65 138.35ZM161.8 161.85C161.8 159.9 161.8 158 161.8 156.05C159.8 156.05 157.95 156.05 156.1 156.05C156.1 158.05 156.1 159.9 156.1 161.85C158 161.85 159.8 161.85 161.8 161.85ZM167.85 161.75C169.85 161.75 171.75 161.75 173.6 161.75C173.6 159.75 173.6 157.9 173.6 156C171.6 156 169.75 156 167.85 156C167.85 158 167.85 159.85 167.85 161.75Z" fill="#E8565C"/>
<path d="M120.1 120.65C122.65 120.65 124.45 120.65 126.4 120.65C126.4 122.6 126.4 124.4 126.4 126.35C124.55 126.35 122.75 126.35 120.7 126.35C120.7 131.3 120.7 136.1 120.7 141.05C106.9 141.05 93.3004 141.05 79.5004 141.05C79.5004 136.25 79.5004 131.45 79.5004 126.5C77.4504 126.5 75.6504 126.5 73.7004 126.5C73.7004 124.55 73.7004 122.75 73.7004 120.7C75.5004 120.7 77.3504 120.7 79.9004 120.7C79.2504 119.55 79.0504 118.75 78.5004 118.2C68.8504 109 65.3004 97.8002 69.0004 85.0502C72.7004 72.3002 81.6504 64.4502 94.7504 62.1502C113.25 58.9002 130.5 72.4502 132.15 91.1002C133.1 101.9 129.35 110.8 121.55 118.15C121 118.7 120.75 119.5 120.1 120.65ZM114.7 120.55C114.75 119.95 114.85 119.5 114.75 119.1C114.35 117 115.25 115.6 116.95 114.35C121.15 111.1 124.05 106.8 125.45 101.75C131.05 81.8002 114.1 64.9002 96.1504 67.8502C85.4504 69.6002 78.0504 75.6502 74.7004 85.9502C71.4004 96.1502 73.7504 105.4 81.4004 113C83.5504 115.15 86.3504 116.75 85.0504 120.55C89.2504 120.55 93.0504 120.55 97.1004 120.55C97.1004 114.65 97.1004 108.8 97.0504 103C97.0504 102.55 96.5004 101.95 96.0004 101.7C92.1504 99.7002 90.4504 95.8502 91.5504 91.6502C92.5504 87.9002 96.1504 85.2002 100.05 85.2502C104.25 85.3002 107.6 88.0502 108.5 92.0502C109.4 96.1002 107.65 99.7002 104.05 101.6C103.5 101.9 102.95 102.85 102.95 103.55C102.85 107.5 102.9 111.4 102.9 115.35C102.9 117.05 102.9 118.75 102.9 120.5C106.95 120.55 110.75 120.55 114.7 120.55ZM114.7 126.55C104.8 126.55 95.0504 126.55 85.3004 126.55C85.3004 129.55 85.3004 132.4 85.3004 135.25C95.1504 135.25 104.9 135.25 114.7 135.25C114.7 132.3 114.7 129.45 114.7 126.55ZM103 94.0502C103 92.4502 101.65 91.0502 100.15 91.0002C98.4004 90.9502 97.0004 92.3502 97.0504 94.1002C97.1004 95.7502 98.4504 97.1002 100.15 97.0502C101.65 97.0502 103 95.6002 103 94.0502Z" fill="#E8565C"/>
<path d="M57.7506 51.85C56.4006 50.4 55.2006 49.15 53.6006 47.45C57.4506 44.7 61.1006 41.75 65.0006 39.35C68.1506 37.4 71.6506 35.9 75.0006 34.35C76.0506 33.85 76.4506 33.35 76.4506 32.15C76.3506 29.35 76.4006 26.5 76.4006 23.75C76.5506 23.6 76.6506 23.45 76.7506 23.45C80.0006 24 82.0006 22.65 83.7506 19.75C85.0506 17.65 87.3006 16.05 89.4006 14.6C90.6506 13.75 91.4006 13 91.1506 11.45C91.0506 10.6 91.1506 9.75 91.1506 8.75C96.9506 8.75 102.701 8.75 108.501 8.75C108.501 8.75 108.651 8.85 108.651 8.95C108.101 12.3 109.551 14.3 112.451 16.05C114.451 17.25 115.951 19.45 117.301 21.45C118.201 22.8 118.951 23.6 120.601 23.35C121.451 23.25 122.301 23.35 123.451 23.35C123.451 26.25 123.551 29.05 123.401 31.85C123.351 33.25 123.851 33.9 125.101 34.4C132.451 37.35 139.101 41.5 145.001 46.75C145.301 47.05 145.701 47.25 146.151 47.55C144.701 49.1 143.451 50.45 142.101 51.9C137.551 47.6 132.451 44.3 127.001 41.55C126.651 41.4 126.351 41.15 126.001 41.05C125.001 40.75 124.201 39.75 122.851 40.85C122.201 41.4 120.701 40.85 119.601 41C119.001 41.1 118.201 41.5 117.901 42C115.901 45.5 113.151 48.2 109.651 50.2C109.151 50.5 108.751 51.25 108.651 51.85C108.501 53.05 108.601 54.25 108.601 55.6C102.701 55.6 96.9506 55.6 91.2506 55.6C91.1506 55.45 91.0506 55.3 91.0506 55.25C91.7006 51.95 90.1006 50.2 87.4506 48.4C85.2006 46.85 83.6006 44.35 81.9006 42.15C81.3006 41.4 80.9006 41 79.9006 40.9C78.5506 40.8 77.0506 41.7 75.9006 40.2C75.8006 40.05 74.9006 40.45 74.4006 40.7C68.8006 43.4 63.5006 46.55 58.8506 50.75C58.7006 51.05 58.3006 51.35 57.7506 51.85ZM102.851 49.8C102.901 49.5 103.051 49.25 103.001 49C102.601 47.2 103.501 46.5 105.101 45.9C108.901 44.5 111.751 41.95 113.351 38.2C114.201 36.25 114.701 34.15 117.601 35.1C117.601 32.95 117.601 31.1 117.601 29C114.901 29.8 114.151 28.15 113.451 26.15C112.101 22.4 109.301 19.9 105.701 18.55C103.701 17.8 102.551 17 102.901 14.75C102.901 14.65 102.751 14.55 102.701 14.5C100.801 14.5 98.9506 14.5 96.8506 14.5C97.6506 16.95 96.3006 17.75 94.3506 18.5C90.4006 20 87.5506 22.85 86.1506 26.95C85.6006 28.55 84.9506 29.55 83.1006 29.15C82.9006 29.1 82.6506 29.2 82.3506 29.25C82.3506 31.2 82.3506 33.15 82.3506 35.25C84.8506 34.45 85.6006 35.8 86.3506 37.75C87.7006 41.35 90.2006 43.95 93.8006 45.5C95.7006 46.3 97.9506 46.75 96.8506 49.8C99.0506 49.8 100.951 49.8 102.851 49.8Z" fill="#E8565C"/>
<path d="M53.7505 152.05C55.2005 150.75 56.6005 149.55 58.0505 148.25C64.2005 153.75 71.2005 158.3 79.3505 161.2C83.4005 152.5 90.1005 147.35 99.8005 147.3C109.5 147.25 116.3 152.25 120.5 161.2C128.6 158.4 135.6 153.8 141.95 148.15C143.35 149.45 144.65 150.7 146.4 152.35C142.35 155.3 138.65 158.3 134.6 160.75C131.1 162.9 127.3 164.5 123.55 166.2C122.25 166.75 121.9 167.4 121.9 168.75C122.15 181.05 112.4 191.1 100.2 191.3C87.9505 191.5 77.7505 181.45 77.9005 169.25C77.9005 167.35 77.3005 166.65 75.6505 166C68.3005 163.25 61.7005 159.1 55.7505 154C55.1505 153.4 54.5505 152.8 53.7505 152.05ZM99.8505 185.5C108.45 185.75 116 178.35 116.25 169.5C116.5 160.85 109.2 153.1 100.35 153C91.1505 152.9 84.1505 159.75 83.8005 168.95C83.4505 177.7 90.8005 185.2 99.8505 185.5Z" fill="#E8565C"/>
<path d="M135.2 14.3502C133.3 14.3502 131.55 14.3502 129.65 14.3502C129.65 12.4502 129.65 10.6502 129.65 8.7002C131.45 8.7002 133.25 8.7002 135.2 8.7002C135.2 10.5502 135.2 12.4502 135.2 14.3502Z" fill="#E8565C"/>
<path d="M141.351 14.3002C141.351 12.4002 141.351 10.6002 141.351 8.7002C143.201 8.7002 145.001 8.7002 146.951 8.7002C146.951 10.5002 146.951 12.3002 146.951 14.3002C145.151 14.3002 143.351 14.3002 141.351 14.3002Z" fill="#E8565C"/>
<path d="M158.75 14.3C156.85 14.3 155.05 14.3 153.2 14.3C153.2 12.45 153.2 10.7 153.2 8.75C154.95 8.75 156.75 8.75 158.75 8.75C158.75 10.55 158.75 12.45 158.75 14.3Z" fill="#E8565C"/>
<path d="M44.1504 185.6C46.0004 185.6 47.8004 185.6 49.7004 185.6C49.7004 187.45 49.7004 189.25 49.7004 191.2C47.9004 191.2 46.1004 191.2 44.1504 191.2C44.1504 189.4 44.1504 187.6 44.1504 185.6Z" fill="#E8565C"/>
<path d="M55.9502 185.55C57.8502 185.55 59.6002 185.55 61.5002 185.55C61.5002 187.4 61.5002 189.25 61.5002 191.2C59.6502 191.2 57.8502 191.2 55.9502 191.2C55.9502 189.35 55.9502 187.55 55.9502 185.55Z" fill="#E8565C"/>
<path d="M73.3005 191.2C71.4505 191.2 69.6505 191.2 67.7505 191.2C67.7505 189.3 67.7505 187.5 67.7505 185.6C69.6005 185.6 71.4005 185.6 73.3005 185.6C73.3005 187.4 73.3005 189.2 73.3005 191.2Z" fill="#E8565C"/>
<path d="M99.9507 40.9003C95.2507 40.9503 91.3007 37.0003 91.2007 32.2503C91.1507 27.5003 95.0007 23.5003 99.7507 23.4003C104.651 23.3003 108.751 27.2503 108.751 32.1503C108.801 36.9503 104.901 40.8503 99.9507 40.9003ZM100.151 29.1503C98.6007 29.1003 97.1007 30.5003 97.0507 32.1003C97.0007 33.6003 98.3007 35.0003 99.8507 35.1003C101.401 35.2003 102.901 33.8003 102.951 32.2003C103.001 30.7003 101.601 29.2003 100.151 29.1503Z" fill="#E8565C"/>
<path d="M108.101 174.3C106.451 175.85 105.101 177.05 103.701 178.35C101.701 176.35 99.5506 174.3 97.4506 172.15C97.2006 171.9 97.1006 171.35 97.1006 171C97.1006 167.1 97.1006 163.15 97.1006 159.1C99.0006 159.1 100.801 159.1 102.901 159.1C102.901 161.5 103.051 164 102.851 166.45C102.701 168.65 103.251 170.35 105.051 171.7C106.101 172.45 107.001 173.35 108.101 174.3Z" fill="#E8565C"/>
</svg>
