<svg width="200" height="200" viewBox="0 0 200 200" fill="none" xmlns="http://www.w3.org/2000/svg">
<path d="M191 101.1C191 76.7 191 52.3 191 27.9C191 24.8 190.2 21.9 188.3 19.45C185.45 15.75 181.6 14.25 177 14.3C150.7 14.35 124.4 14.35 98.1501 14.35C73.2001 14.35 48.3001 14.3 23.3501 14.4C21.0001 14.4 18.4501 14.8 16.3501 15.8C11.2001 18.3 9.10013 22.8 9.10013 28.4C9.10013 63.7 9.20013 99 9.05013 134.25C9.00013 142.6 14.7001 148.9 23.5001 148.75C39.9501 148.5 56.4001 148.7 72.9001 148.7C73.6001 148.7 74.3001 148.7 74.9001 148.7C75.0001 149 75.1001 149.1 75.1001 149.2C75.1001 155.95 75.1501 162.7 75.1001 169.45C75.1001 169.95 74.4501 170.65 73.9501 170.95C71.1001 172.4 68.2001 173.8 65.3001 175.05C63.8501 175.7 63.1501 176.55 63.3001 178.15C63.4001 179.7 63.3001 181.25 63.3001 182.75C63.3001 185.55 63.4001 185.65 66.2001 185.65C88.7501 185.65 111.3 185.65 133.9 185.65C134.3 185.65 134.75 185.65 135.15 185.65C136.35 185.65 136.9 185.05 136.85 183.9C136.85 181.95 136.8 180 136.85 178.05C136.9 176.6 136.35 175.75 135.05 175.15C132.1 173.85 129.15 172.4 126.25 170.95C125.75 170.7 125.05 170 125.05 169.5C124.95 162.65 125 155.8 125 148.7C125.95 148.7 126.65 148.7 127.35 148.7C143.75 148.7 160.15 148.7 176.55 148.7C177.95 148.7 179.4 148.65 180.8 148.35C187.05 146.95 191 141.9 191 135.2C191 123.85 191 112.5 191 101.1ZM132.25 177C133.55 177.55 134.15 178.2 133.95 179.65C133.85 180.65 133.95 181.65 133.95 182.85C111.35 182.85 88.8501 182.85 66.1001 182.85C66.1001 181.45 66.0001 180.2 66.1501 179C66.2001 178.45 66.6501 177.65 67.1501 177.4C70.1001 175.9 73.1001 174.5 76.1001 173.15C76.7001 172.85 77.4501 172.8 78.1501 172.8C92.7501 172.8 107.4 172.8 122 172.8C122.85 172.8 123.75 173 124.55 173.35C127.15 174.55 129.65 175.85 132.25 177ZM78.0501 169.9C78.0501 162.95 78.0501 155.95 78.0501 148.85C92.7501 148.85 107.35 148.85 122.1 148.85C122.1 155.85 122.1 162.8 122.1 169.9C107.5 169.9 92.8501 169.9 78.0501 169.9ZM187.8 137.95C187.3 142.35 183.3 145.55 178.85 145.95C177.9 146.05 176.95 146.05 176 146.05C151.45 146.05 126.9 146.05 102.3 146.05C75.9501 146.05 49.6501 146.05 23.3001 146.05C19.4501 146.05 16.1501 145 13.9001 141.8C13.1501 140.7 12.3001 139.4 12.2501 138.15C12.0501 134 12.1501 129.8 12.1501 125.5C70.6501 125.5 129.25 125.5 187.85 125.5C187.9 129.7 188.25 133.85 187.8 137.95ZM188.2 122.65C129.35 122.65 70.7001 122.65 11.8501 122.65C11.8501 121.9 11.8501 121.25 11.8501 120.65C11.8501 90 11.8501 59.3 11.8501 28.65C11.8501 21.2 15.9501 17.1 23.3501 17.1C74.4501 17.1 125.55 17.1 176.6 17.1C184.05 17.1 188.15 21.2 188.15 28.65C188.15 59.2 188.15 89.75 188.15 120.3C188.2 121 188.2 121.75 188.2 122.65Z" fill="#E8565C"/>
<path d="M116.9 187.1H66.15C62.55 187.1 61.85 186.35 61.85 182.8C61.85 182.3 61.85 181.8 61.85 181.35C61.85 180.3 61.9 179.3 61.8 178.3C61.65 176.2 62.6 174.7 64.65 173.8C67.25 172.65 69.95 171.35 73.25 169.7C73.35 169.65 73.55 169.45 73.6 169.35C73.65 163.7 73.65 157.95 73.6 152.4V150.15H72.8C67.95 150.15 63.1 150.15 58.3 150.1C46.9 150.05 35.05 150.05 23.45 150.2C18.9 150.25 15 148.8 12.05 145.9C9.09997 143 7.49997 138.85 7.54997 134.25C7.64997 105.85 7.64997 76.9501 7.59997 49.0501C7.59997 42.1501 7.59997 35.3001 7.59997 28.4001C7.59997 21.7501 10.3 17.0501 15.65 14.5001C18.3 13.2501 21.25 12.9501 23.25 12.9501C42.65 12.8501 62.4 12.9001 81.5 12.9001C87 12.9001 92.5 12.9001 98 12.9001C104.5 12.9001 110.95 12.9001 117.4 12.9001C136.9 12.9001 157.05 12.9001 176.85 12.8501H176.9C182.3 12.8501 186.35 14.7001 189.3 18.5501C191.3 21.1501 192.3 24.2501 192.3 27.9001C192.3 43.7501 192.3 59.6001 192.3 75.4501V101.05C192.3 104.55 192.3 108.1 192.3 111.6C192.3 119.3 192.3 127.3 192.3 135.15C192.3 142.55 187.95 148.15 181 149.7C179.5 150.05 177.95 150.05 176.45 150.05C163.5 150.05 150.35 150.05 137.65 150.05H126.3V152.8C126.3 158.45 126.3 163.8 126.35 169.25C126.45 169.35 126.65 169.55 126.75 169.6C129.9 171.2 132.75 172.55 135.5 173.75C137.35 174.6 138.25 175.95 138.15 178C138.1 179.4 138.1 180.85 138.1 182.25C138.1 182.75 138.1 183.25 138.1 183.8C138.1 184.8 137.8 185.6 137.25 186.15C136.7 186.7 135.9 187 134.95 186.95C134.7 186.95 134.45 186.95 134.2 186.95C134.05 186.95 133.9 186.95 133.75 186.95H116.9V187.1ZM64.8 184.25C65.15 184.3 65.75 184.3 66.15 184.3H133.85C134 184.3 134.15 184.3 134.3 184.3C134.6 184.3 134.85 184.3 135.15 184.3C135.25 184.3 135.35 184.3 135.4 184.3H64.8V184.25ZM64.7 182.6C64.7 182.65 64.7 182.75 64.7 182.8C64.7 182.9 64.7 183 64.7 183.15V182.85C64.7 182.75 64.7 182.7 64.7 182.6ZM135.35 180.2C135.35 180.65 135.35 181.15 135.35 181.65C135.35 181.2 135.35 180.7 135.35 180.2ZM67.5 181.4H132.5C132.5 180.75 132.5 180.1 132.55 179.45C132.6 178.9 132.65 178.7 131.7 178.3C130.2 177.65 128.75 176.95 127.35 176.3C126.25 175.75 125.1 175.2 124 174.7C123.35 174.4 122.65 174.25 122.05 174.25C109.4 174.2 95.9 174.2 78.2 174.25C77.55 174.25 77.05 174.3 76.7 174.45C73.2 176 70.4 177.35 67.8 178.65C67.7 178.75 67.55 179 67.55 179.15C67.45 179.85 67.5 180.6 67.5 181.4ZM67.05 175.85C66.65 176.05 66.25 176.2 65.85 176.4C64.8 176.85 64.6 177.25 64.7 178.1C64.7 178.45 64.75 178.8 64.75 179.15C64.75 179.05 64.75 178.9 64.8 178.8C64.9 177.9 65.6 176.65 66.6 176.15C66.7 176 66.85 175.95 67.05 175.85ZM133.95 176.25C134.55 176.7 135.2 177.4 135.4 178.55C135.4 178.35 135.4 178.2 135.4 178C135.45 177.15 135.2 176.8 134.45 176.45C134.25 176.4 134.1 176.35 133.95 176.25ZM75.85 147.45L76.15 148.2C76.2 148.3 76.2 148.35 76.25 148.4C76.35 148.6 76.5 148.85 76.5 149.25V152.4C76.5 158 76.55 163.8 76.5 169.5C76.5 170.7 75.35 171.85 74.55 172.25C74.15 172.45 73.75 172.65 73.35 172.85C74.05 172.55 74.8 172.2 75.55 171.85C76.25 171.55 77.1 171.4 78.2 171.4C95.85 171.4 109.4 171.4 122.05 171.4C123.05 171.4 124.15 171.65 125.15 172.1C125.3 172.15 125.45 172.25 125.65 172.3C125.65 172.3 125.6 172.3 125.6 172.25C124.85 171.85 123.65 170.8 123.65 169.55C123.6 164.05 123.6 158.65 123.6 152.9V147.4V171.25H76.7V147.4C76.35 147.45 76.1 147.45 75.85 147.45ZM79.5 168.45H120.7V150.25H79.5V168.45ZM13.6 126.9C13.6 127.65 13.6 128.35 13.6 129.05C13.55 132.15 13.55 135.1 13.7 138.05C13.75 138.95 14.45 140.05 15.1 140.95C16.9 143.5 19.4 144.6 23.35 144.6C23.35 144.6 23.35 144.6 23.4 144.6C43.3 144.55 63.55 144.55 83.15 144.6H114.7C135.15 144.6 155.65 144.6 176.1 144.6C177.15 144.6 178 144.55 178.8 144.5C182.8 144.15 186.05 141.3 186.45 137.8C186.75 135.1 186.7 132.35 186.6 129.4C186.6 128.6 186.55 127.75 186.55 126.9H13.6ZM189.25 138.1C189.25 138.2 189.2 138.3 189.2 138.45C189.45 137.45 189.55 136.35 189.55 135.25C189.55 131.55 189.55 127.8 189.55 124.1H10.45C10.45 127.5 10.45 130.95 10.4 134.35C10.4 135.6 10.55 136.8 10.8 137.95C10.65 135 10.7 132.1 10.7 129.05C10.7 127.85 10.7 126.7 10.7 125.5V124.1H189.25V125.5C189.25 126.8 189.3 128.1 189.3 129.35C189.45 132.2 189.55 135.15 189.25 138.1ZM13.3 121.2H186.8V28.6001C186.8 22.0001 183.3 18.5001 176.7 18.4501C125.55 18.5001 74.5 18.5001 23.4 18.5001C16.8 18.5001 13.3 22.0001 13.3 28.6501C13.3 51.3001 13.3 74.0001 13.3 96.6501V121.2Z" fill="#E8565C"/>
<path d="M94.7494 48.5002C91.8494 48.5502 88.9494 48.4502 86.0494 48.5502C84.9494 48.6002 84.3994 48.2002 83.9494 47.2002C81.8494 42.5502 79.6994 37.9502 77.4994 33.4002C77.1994 32.8002 76.4994 32.1502 75.8994 32.0502C75.4494 32.0002 74.7494 32.7502 74.4494 33.3002C73.4494 35.1002 72.5494 36.9502 71.5994 38.8002C68.1494 45.5502 64.6494 52.3502 61.0494 59.3502C60.6994 58.6502 60.3994 58.1502 60.1494 57.6002C56.9494 50.9002 53.7494 44.1502 50.4994 37.4502C50.1494 36.7502 49.3994 36.0002 48.6994 35.8002C48.2994 35.7002 47.4494 36.6502 47.0994 37.3002C45.2994 40.5502 43.5994 43.9002 41.7494 47.1002C41.4494 47.6502 40.5494 48.2002 39.8994 48.2502C36.7494 48.3502 33.6494 48.3002 30.4994 48.3002C29.4494 48.3002 28.2494 48.3002 28.2994 49.7002C28.3494 50.9502 29.4494 51.0002 30.4494 51.0002C33.7994 51.0002 37.1994 50.9002 40.5494 51.0502C42.2494 51.1002 43.2494 50.5502 43.9994 49.0002C45.3994 46.0502 47.0494 43.2502 48.6994 40.2002C48.9994 40.7002 49.1494 40.9502 49.2494 41.2502C52.5494 48.2002 55.8494 55.1002 59.1994 62.0502C59.5494 62.8002 60.3994 63.3002 61.0494 63.9502C61.6494 63.3502 62.3994 62.9002 62.7494 62.2002C66.7994 54.4002 70.7994 46.5502 74.8494 38.7002C75.1494 38.1002 75.4994 37.5002 75.9494 36.7002C76.2994 37.4502 76.5994 37.9502 76.8494 38.4502C78.5494 42.1502 80.2994 45.8502 81.9494 49.5502C82.5494 50.9502 83.3994 51.5002 84.9494 51.4502C88.1994 51.3502 91.4494 51.4002 94.6994 51.4002C95.7494 51.4002 96.7494 51.1502 96.7494 49.9502C96.7994 48.7002 95.7994 48.5002 94.7494 48.5002Z" fill="#E8565C"/>
<path d="M61.0498 65.8999L60.0498 64.8999C59.8998 64.7499 59.6998 64.5999 59.4998 64.3999C58.9498 63.9499 58.3498 63.3999 57.9498 62.6499C55.3998 57.3999 52.8498 52.0999 50.3998 46.8999C49.7998 45.6999 49.2498 44.4499 48.6498 43.2499C48.5998 43.3499 48.5498 43.4499 48.4998 43.5499C47.3498 45.5999 46.2498 47.5999 45.2998 49.5999C44.2998 51.6499 42.8498 52.5499 40.4998 52.4499C38.1498 52.3499 35.7498 52.3999 33.4498 52.3999C32.4498 52.3999 31.4498 52.3999 30.4498 52.3999C28.1498 52.3999 26.9498 51.4999 26.8998 49.6999C26.8498 48.6499 27.2498 48.0499 27.5998 47.6999C28.4498 46.8499 29.5998 46.8499 30.4998 46.8499C31.3998 46.8499 32.2498 46.8499 33.0998 46.8499C35.2998 46.8499 37.5998 46.8499 39.8498 46.7999C40.0498 46.7999 40.4498 46.5499 40.5498 46.3999C41.5498 44.6499 42.4998 42.8499 43.4498 41.0499C44.2498 39.5999 45.0498 38.0499 45.8498 36.5999C45.8998 36.4999 47.3498 33.9999 49.0498 34.3999C50.2998 34.6999 51.2998 35.8499 51.7998 36.7999C54.2498 41.7999 56.6998 46.8999 59.0498 51.8499C59.7498 53.2999 60.3998 54.6999 61.0998 56.1499L70.3498 38.0499C70.5998 37.5499 70.8498 36.9999 71.1498 36.4999C71.7998 35.1999 72.4998 33.7999 73.2498 32.4999C73.2998 32.3999 74.4998 30.3499 76.1498 30.5499C77.2998 30.6999 78.3998 31.7499 78.8498 32.6499C81.0998 37.3499 83.2998 41.9999 85.2998 46.4999C85.5498 47.0499 85.5498 47.0499 86.0498 47.0499C87.8498 46.9999 89.6498 46.9999 91.3998 46.9999C92.4998 46.9999 93.6498 46.9999 94.7498 46.9999C95.5498 46.9999 96.6498 47.0999 97.4498 47.8999C97.7998 48.2499 98.1998 48.8999 98.1998 49.8999C98.1998 50.5499 97.8998 52.6999 94.7498 52.6999C94.7498 52.6999 94.7498 52.6999 94.6998 52.6999C93.9498 52.6999 93.2498 52.6999 92.4998 52.6999C90.0498 52.6999 87.4998 52.6499 84.9998 52.7499C82.8998 52.7999 81.4998 51.9499 80.6498 50.0499C79.3998 47.2499 78.0998 44.4499 76.8498 41.6999C76.5498 41.0499 76.2498 40.3499 75.8998 39.6999C74.9998 41.4999 74.0498 43.2999 73.1498 45.0499C70.1998 50.8499 67.0998 56.8499 64.0498 62.7499C63.6998 63.4499 63.0998 63.9499 62.5998 64.3999C62.3998 64.5499 62.2498 64.6999 62.0998 64.8499L61.0498 65.8999ZM60.1998 60.7499C60.2998 60.9499 60.3998 61.1999 60.4998 61.3999C60.5498 61.4499 60.5498 61.4999 60.5998 61.5499L60.1998 60.7499ZM75.9498 33.5999C75.8498 33.6999 75.7498 33.8499 75.6998 33.9499C74.9998 35.1999 74.2998 36.5499 73.6498 37.8499C73.3998 38.3499 73.1498 38.8999 72.8498 39.3999L64.6998 55.2999C66.6998 51.4499 68.6498 47.5499 70.5998 43.7999C71.5998 41.8499 72.5998 39.9499 73.5998 37.9999C73.7998 37.5999 74.0498 37.1499 74.2998 36.6999C74.3998 36.4499 74.5498 36.2499 74.6998 35.9499L75.9498 33.5999ZM83.0498 48.4499C83.0998 48.5999 83.1998 48.7499 83.2498 48.8999C83.6498 49.7499 83.9498 49.9499 84.8998 49.9499C85.0998 49.9499 85.3498 49.9499 85.5498 49.9499C84.4498 49.8499 83.6498 49.3499 83.0498 48.4499ZM93.4498 49.8999C93.8498 49.8999 94.2998 49.8999 94.6998 49.8999C94.7998 49.8999 94.8998 49.8999 94.9998 49.8999C94.9498 49.8999 94.8498 49.8999 94.7498 49.8999C94.2998 49.8999 93.8998 49.8999 93.4498 49.8999ZM40.3998 49.6499C40.4498 49.6499 40.5498 49.6499 40.5998 49.6499C41.7498 49.6999 42.1998 49.4499 42.6998 48.3999C42.7998 48.2499 42.8498 48.0499 42.9498 47.8999C42.4498 48.6999 41.3998 49.4499 40.3998 49.6499ZM48.9498 37.6999L49.6498 38.9999C49.4998 38.6999 49.3498 38.3999 49.1998 38.1499C49.1498 37.9499 49.0498 37.7999 48.9498 37.6999ZM76.0498 33.6999L77.1998 35.9499C76.8998 35.2999 76.5498 34.6499 76.2498 33.9499C76.1998 33.8499 76.0998 33.7999 76.0498 33.6999Z" fill="#E8565C"/>
<path d="M95.4497 106.45C95.0997 106.25 94.5497 106.4 94.0497 106.4C83.9497 106.4 73.7997 106.4 63.6997 106.4C53.4997 106.4 43.3497 106.4 33.1497 106.4C32.6997 106.4 32.0997 106.25 31.7497 106.45C31.1997 106.75 30.4497 107.3 30.4497 107.75C30.4497 108.2 31.1497 108.8 31.6497 109.15C31.9497 109.35 32.4497 109.2 32.8497 109.2C53.2497 109.2 73.6497 109.2 94.0997 109.2C94.5497 109.2 95.1497 109.3 95.4997 109.1C95.9997 108.8 96.6997 108.2 96.6497 107.8C96.5997 107.35 95.9497 106.8 95.4497 106.45Z" fill="#E8565C"/>
<path d="M32.1497 110.7C31.7497 110.7 31.2997 110.65 30.8497 110.35C29.9997 109.75 28.9997 108.9 29.0497 107.75C29.0497 106.6 30.1497 105.75 31.0497 105.2C31.6997 104.85 32.3497 104.9 32.8497 104.95C32.9497 104.95 33.0497 104.95 33.1497 104.95H69.7497H94.0497C94.1497 104.95 94.2497 104.95 94.3497 104.95C94.7997 104.9 95.5497 104.85 96.1997 105.25C96.8497 105.65 97.8997 106.45 98.0997 107.65C98.3497 109.05 96.7497 110.1 96.2997 110.4C95.6497 110.8 94.9497 110.75 94.4497 110.7C94.3497 110.7 94.2497 110.7 94.1497 110.7C73.7497 110.7 53.3497 110.7 32.8997 110.7C32.7997 110.7 32.7497 110.7 32.6497 110.7C32.4997 110.7 32.3497 110.7 32.1497 110.7ZM32.2497 107.85C32.3497 107.9 32.3997 107.9 32.3997 107.9C32.5997 107.9 32.7997 107.85 32.9997 107.85C32.8497 107.85 32.6997 107.85 32.5497 107.8C32.4497 107.8 32.3497 107.8 32.2997 107.8C32.2997 107.8 32.2497 107.8 32.2497 107.85ZM94.1997 107.85C94.3497 107.85 94.4997 107.85 94.6497 107.85C94.7497 107.85 94.8497 107.85 94.9497 107.85C94.8997 107.85 94.8997 107.8 94.8497 107.8C94.7997 107.8 94.6997 107.8 94.5997 107.8C94.4997 107.8 94.3497 107.8 94.1997 107.85Z" fill="#E8565C"/>
<path d="M95.7001 75.0999C95.3001 74.8499 94.6501 74.9499 94.1501 74.9499C73.8001 74.9499 53.4501 74.9499 33.0501 74.9499C32.4501 74.9499 31.8001 74.8499 31.3001 75.0999C30.8501 75.3499 30.4001 75.9999 30.4501 76.3999C30.4501 76.7999 31.0501 77.3499 31.5001 77.5499C31.9501 77.7499 32.5501 77.6499 33.1001 77.6499C43.3001 77.6499 53.4501 77.6499 63.6501 77.6499C73.7501 77.6499 83.9001 77.6499 94.0001 77.6499C94.5501 77.6499 95.1001 77.7499 95.6001 77.5999C96.0501 77.3999 96.7501 76.8499 96.7501 76.4999C96.6501 75.9999 96.1501 75.3999 95.7001 75.0999Z" fill="#E8565C"/>
<path d="M32.15 79.1501C31.75 79.1501 31.3 79.1001 30.9 78.9001C30.3 78.6001 29.1 77.7501 29.05 76.5501C29 75.4501 29.85 74.3501 30.65 73.9001C31.35 73.5001 32.15 73.5501 32.75 73.5501C32.85 73.5501 32.95 73.5501 33.05 73.5501C53.4 73.5501 73.75 73.5501 94.15 73.5501C94.25 73.5501 94.35 73.5501 94.45 73.5501C95 73.5001 95.8 73.5001 96.45 73.9001C97.2 74.4001 98 75.3501 98.1 76.4001C98.2 78.0001 96.15 78.9001 96.1 78.9001C95.45 79.1501 94.85 79.15 94.35 79.1C94.25 79.1 94.1 79.1 94 79.1C85.9 79.1 77.8 79.1 69.7 79.1H58.05C49.7 79.1 41.4 79.1 33.05 79.1C32.95 79.1 32.8 79.1 32.7 79.1C32.55 79.15 32.35 79.1501 32.15 79.1501Z" fill="#E8565C"/>
<path d="M31.5998 93.9C31.9498 94.1 32.4998 94 32.9998 94C51.6498 94 70.2998 94 88.8998 94C89.2998 94 89.8498 94.15 90.0998 93.95C90.5998 93.6 91.3498 93 91.3498 92.55C91.3498 92.1 90.5998 91.55 90.0498 91.25C89.6998 91.05 89.0998 91.2 88.6498 91.2C79.3998 91.2 70.1998 91.2 60.9498 91.2C51.6498 91.2 42.3498 91.2 33.0998 91.2C32.6498 91.2 32.0498 91.05 31.6998 91.25C31.1998 91.6 30.5498 92.1 30.4498 92.65C30.3998 92.95 31.0998 93.6 31.5998 93.9Z" fill="#E8565C"/>
<path d="M89.6499 95.4499C89.4499 95.4499 89.2999 95.4499 89.1499 95.3999C89.0499 95.3999 88.9999 95.3999 88.8999 95.3999C70.2499 95.3999 51.5999 95.3999 32.9999 95.3999C32.8999 95.3999 32.7999 95.3999 32.6999 95.3999C32.1999 95.4499 31.4999 95.4999 30.8499 95.0999C30.3999 94.7999 28.8499 93.7499 29.0499 92.3999C29.2499 91.1999 30.2999 90.3999 30.9499 89.9999C31.5999 89.5999 32.2999 89.6499 32.7999 89.6999C32.8999 89.6999 32.9999 89.6999 33.0999 89.6999H67.8999H88.6499C88.7499 89.6999 88.8499 89.6999 88.9499 89.6999C89.4499 89.6499 90.0999 89.5999 90.7499 89.9499C92.0999 90.6999 92.7499 91.5499 92.7999 92.4999C92.7999 93.6499 91.8499 94.4499 90.9499 95.0999C90.4999 95.3499 90.0499 95.4499 89.6499 95.4499ZM32.1999 92.5999C32.2999 92.5999 32.3999 92.5999 32.4999 92.5999C32.6499 92.5999 32.7999 92.5999 32.9499 92.5999C32.7999 92.5999 32.6499 92.5999 32.4999 92.5499C32.4499 92.5499 32.3499 92.5499 32.2499 92.5499C32.2499 92.5499 32.1999 92.5499 32.1999 92.5999ZM88.8999 92.5499C89.0499 92.5499 89.1999 92.5499 89.3999 92.5999C89.4499 92.5999 89.4999 92.5999 89.5499 92.5999C89.5499 92.5999 89.5999 92.5999 89.5999 92.5499C89.5499 92.5499 89.5499 92.4999 89.4999 92.4999C89.3999 92.4999 89.2999 92.4999 89.2499 92.4999C89.0999 92.4999 88.9499 92.5499 88.7999 92.5499C88.7999 92.5499 88.8499 92.5499 88.8999 92.5499Z" fill="#E8565C"/>
<path d="M167.9 106.45C167.5 106.25 166.95 106.4 166.5 106.4C157.3 106.4 148.05 106.4 138.85 106.4C129.65 106.4 120.4 106.4 111.2 106.4C110.75 106.4 110.15 106.25 109.8 106.45C109.25 106.8 108.8 107.4 108.3 107.9C108.75 108.35 109.2 108.85 109.75 109.2C110 109.35 110.45 109.25 110.8 109.25C129.5 109.25 148.15 109.25 166.85 109.25C167.25 109.25 167.8 109.35 168.05 109.15C168.55 108.75 169.1 108.2 169.2 107.65C169.2 107.3 168.4 106.7 167.9 106.45Z" fill="#E8565C"/>
<path d="M110.1 110.7C109.75 110.7 109.3 110.65 108.9 110.35C108.4 110 108 109.6 107.65 109.25C107.55 109.15 107.4 109 107.3 108.9L106.25 107.9L107.3 106.85C107.45 106.7 107.55 106.6 107.65 106.45C108 106.05 108.45 105.55 109.05 105.2C109.7 104.8 110.4 104.9 110.85 104.9C110.95 104.9 111.05 104.9 111.15 104.9H144.35H166.5C166.6 104.9 166.7 104.9 166.8 104.9C167.25 104.85 167.9 104.8 168.55 105.15C169.2 105.5 170.7 106.4 170.55 107.75C170.45 108.6 169.95 109.4 168.9 110.25C168.25 110.75 167.55 110.7 167.05 110.7C166.95 110.7 166.9 110.7 166.8 110.7C148.1 110.7 129.45 110.7 110.75 110.7C110.7 110.7 110.6 110.7 110.55 110.7C110.45 110.7 110.25 110.7 110.1 110.7ZM110.25 107.85C110.3 107.85 110.3 107.85 110.25 107.85C110.55 107.85 110.8 107.85 111.05 107.85C110.85 107.85 110.7 107.85 110.55 107.8C110.5 107.8 110.4 107.8 110.35 107.8C110.3 107.8 110.3 107.8 110.25 107.85ZM166.8 107.85C166.95 107.85 167.1 107.85 167.25 107.85C167.3 107.85 167.3 107.85 167.35 107.85L167.4 107.8C167.4 107.8 167.35 107.8 167.35 107.75C167.25 107.75 167.15 107.75 167.05 107.75C166.9 107.75 166.8 107.75 166.65 107.75C166.7 107.85 166.75 107.8 166.8 107.85Z" fill="#E8565C"/>
<path d="M109.4 77.8C109.6 77.95 110 77.85 110.25 77.85C123.4 77.85 136.5 77.85 149.65 77.85C150.25 77.85 150.9 77.9 151.4 77.7C151.9 77.45 152.65 76.8 152.55 76.5C152.45 75.95 151.85 75.4 151.3 75.15C150.8 74.9 150.15 75.05 149.55 75.05C143 75.05 136.4 75.05 129.85 75.05C123.05 75.05 116.25 75.05 109.45 75.05C108.45 75.05 107.3 75.25 107.55 76.5C107.65 76.95 108.7 77.4 109.4 77.8Z" fill="#E8565C"/>
<path d="M109.7 79.25C109.4 79.25 109.05 79.2 108.65 79C108.5 78.9 108.35 78.85 108.2 78.75C107.35 78.3 106.35 77.75 106.15 76.65C105.95 75.6 106.3 74.95 106.65 74.55C107.4 73.65 108.6 73.55 109.45 73.55H132.2C138 73.55 143.75 73.55 149.55 73.55C149.65 73.55 149.8 73.55 149.95 73.55C150.55 73.5 151.25 73.5 151.95 73.85C152.75 74.25 153.7 75.05 153.95 76.15C154.25 77.55 152.6 78.7 152 78.95C151.3 79.3 150.55 79.25 149.95 79.25C149.85 79.25 149.75 79.25 149.65 79.25C138.05 79.25 126.4 79.25 114.8 79.25H110.25C110.2 79.25 110.15 79.25 110.1 79.25C110 79.25 109.85 79.25 109.7 79.25ZM109.8 76.4C110 76.4 110.15 76.4 110.25 76.4H114.8C124.95 76.4 135.15 76.4 145.3 76.4C140.95 76.4 136.6 76.4 132.2 76.4H109.8ZM149.8 76.4C149.9 76.4 149.95 76.4 150.05 76.4C150.25 76.4 150.55 76.4 150.7 76.4C150.7 76.4 150.7 76.4 150.65 76.4C150.55 76.4 150.25 76.4 150.05 76.4C149.95 76.4 149.85 76.4 149.8 76.4Z" fill="#E8565C"/>
<path d="M109.9 93.9499C123.25 93.9499 136.65 93.9499 150 93.9499C150.6 93.9499 151.25 93.9499 151.75 93.6999C152.15 93.4999 152.65 92.9499 152.6 92.5499C152.55 92.0499 152.1 91.4499 151.7 91.2499C151.2 90.9999 150.55 91.0999 149.95 91.0999C143.25 91.0999 136.6 91.0999 129.9 91.0999C123.4 91.0999 116.9 91.0999 110.4 91.0999C109.85 91.0999 109.25 90.9499 108.85 91.1499C108.3 91.4499 107.7 91.9999 107.6 92.5499C107.55 92.9499 108.25 93.5499 108.7 93.8499C108.95 94.0999 109.5 93.9499 109.9 93.9499Z" fill="#E8565C"/>
<path d="M109.2 95.4499C108.8 95.4499 108.35 95.3999 107.9 95.0999C106.6 94.2499 106.05 93.3499 106.15 92.3999C106.35 90.9999 107.8 90.1499 108.1 89.9499C108.75 89.5999 109.5 89.6499 110 89.6999C110.1 89.6999 110.25 89.6999 110.35 89.6999H134.15C139.4 89.6999 144.65 89.6999 149.9 89.6999C150 89.6999 150.1 89.6999 150.25 89.6999C150.85 89.6999 151.6 89.6499 152.3 90.0499C153.15 90.4999 153.9 91.4999 153.95 92.4499C154.05 93.5999 153.05 94.6499 152.3 94.9999C151.5 95.3499 150.65 95.3499 150 95.3499C136.6 95.3499 123.25 95.3499 109.85 95.3499C109.75 95.3499 109.7 95.3499 109.6 95.3499C109.5 95.3999 109.35 95.4499 109.2 95.4499ZM109.25 92.5499C109.3 92.5499 109.4 92.5499 109.4 92.5499C109.55 92.5499 109.7 92.5499 109.85 92.5499C109.95 92.5499 110.05 92.5499 110.15 92.5499C110 92.5499 109.85 92.5499 109.7 92.4999C109.6 92.4999 109.45 92.4999 109.35 92.4999C109.35 92.4999 109.3 92.5499 109.25 92.5499Z" fill="#E8565C"/>
<path d="M173.25 74.95C169.05 74.95 164.85 74.9 160.65 75C160.05 75 159.1 75.75 159 76.3C158.75 77.5 159.8 77.65 160.75 77.65C162.8 77.65 164.9 77.65 166.95 77.65C169 77.65 171.1 77.75 173.15 77.6C173.8 77.55 174.8 76.95 174.9 76.45C175.15 75.4 174.25 75 173.25 74.95Z" fill="#E8565C"/>
<path d="M170.4 79.1502C169.8 79.1502 169.25 79.1502 168.65 79.1502C168.1 79.1502 167.5 79.1502 166.95 79.1502H165.15C163.7 79.1502 162.25 79.1502 160.75 79.1502C159.85 79.1502 158.75 79.0502 158.05 78.2002C157.75 77.8002 157.4 77.1502 157.6 76.1002C157.85 74.9002 159.35 73.6502 160.6 73.6502C163.95 73.5502 167.3 73.5502 170.55 73.6002C171.45 73.6002 172.35 73.6002 173.2 73.6002C174.35 73.6002 175.3 74.0002 175.8 74.6502C176.25 75.2502 176.4 76.0002 176.25 76.8002C175.95 78.1002 174.3 79.0002 173.2 79.0502C172.3 79.1002 171.35 79.1502 170.4 79.1502Z" fill="#E8565C"/>
<path d="M173.1 91.2002C169.05 91.1002 164.95 91.1502 160.9 91.1502C159.85 91.1502 158.9 91.3502 158.95 92.6002C159 93.8502 160 94.0002 161 94.0002C163 94.0002 165 94.0002 167 94.0002C169 94.0002 171 94.0002 173 94.0002C174 94.0002 175.1 93.7502 174.9 92.5502C174.8 91.9502 173.75 91.2002 173.1 91.2002Z" fill="#E8565C"/>
<path d="M170.45 95.4C169.9 95.4 169.35 95.4 168.85 95.4H165.4C163.95 95.4 162.5 95.4 161.05 95.4C158.25 95.4 157.6 93.9 157.6 92.65C157.55 91.6 158 90.95 158.35 90.6C159.1 89.8 160.15 89.75 161 89.75C162.25 89.75 163.5 89.75 164.75 89.75C167.55 89.75 170.4 89.75 173.25 89.8C174.5 89.85 176.2 91 176.4 92.3C176.6 93.35 176.25 94 175.9 94.4C175.05 95.4 173.6 95.4 173.1 95.4C172.15 95.4 171.3 95.4 170.45 95.4ZM163.75 92.55C164.3 92.55 164.85 92.55 165.4 92.55H168.85C169.2 92.55 169.55 92.55 169.9 92.55C168.15 92.55 166.4 92.55 164.7 92.55C163.45 92.55 162.2 92.55 160.95 92.55C160.9 92.55 160.85 92.55 160.8 92.55C160.9 92.55 160.95 92.55 161.05 92.55C161.9 92.55 162.8 92.55 163.75 92.55Z" fill="#E8565C"/>
<path d="M124.25 30.4501C119.95 30.4001 115.6 30.4001 111.3 30.4501C108.7 30.5001 107.45 31.8001 107.4 34.4501C107.4 38.9501 107.4 43.4501 107.4 47.9501C107.4 52.7001 107.35 57.4001 107.4 62.1501C107.4 64.5501 108.8 65.8501 111.2 65.8501C115.5 65.8501 119.85 65.8501 124.15 65.8501C126.8 65.8501 128.1 64.5501 128.15 61.9501C128.2 52.8001 128.2 43.6001 128.15 34.4501C128.15 31.8001 126.85 30.5001 124.25 30.4501Z" fill="#E8565C"/>
<path d="M175.7 40.8502C175.65 38.4002 174.4 37.1002 172 37.0502C167.55 37.0002 163.15 37.0002 158.7 37.0502C156.25 37.0502 155 38.3502 154.95 40.8002C154.9 47.8502 154.9 54.8502 154.95 61.9002C154.95 64.5502 156.3 65.8002 158.9 65.8002C163.15 65.8002 167.4 65.8002 171.65 65.8002C174.35 65.8002 175.65 64.5002 175.65 61.7502C175.65 58.3002 175.65 54.9002 175.65 51.4502C175.75 47.9502 175.75 44.4002 175.7 40.8502Z" fill="#E8565C"/>
<path d="M148.5 47.9999C143.95 47.9499 139.4 47.9499 134.85 47.9999C132.75 48.0499 131.7 49.1499 131.7 51.2499C131.65 55.0499 131.65 58.7999 131.7 62.5999C131.7 64.6999 132.95 65.7999 135.05 65.8499C137.25 65.8499 139.45 65.8499 141.6 65.8499C143.8 65.8499 146 65.8499 148.15 65.8499C150.45 65.8499 151.65 64.8499 151.7 62.5999C151.8 58.7999 151.8 55.0499 151.7 51.2499C151.65 49.0499 150.6 48.0499 148.5 47.9999Z" fill="#E8565C"/>
<path d="M101.85 128.45C97.7502 128.5 94.4502 131.75 94.4502 135.75C94.4502 139.75 97.8002 143.1 101.8 143.05C105.75 143 109.1 139.7 109.1 135.85C109.1 131.75 105.75 128.4 101.85 128.45Z" fill="#E8565C"/>
</svg>
