<svg width="200" height="200" viewBox="0 0 200 200" fill="none" xmlns="http://www.w3.org/2000/svg">
<path d="M29.5504 60.0499C19.5004 48.2999 23.3004 35.6499 30.1004 29.3999C38.9004 21.2499 51.5504 21.3499 59.9504 29.6499C67.8504 37.4999 69.0504 50.2999 60.0504 60.1999C61.2004 60.1999 62.0004 60.1999 62.8004 60.1999C68.1504 60.0499 72.6004 61.9499 76.3004 65.7499C81.1004 70.6499 85.9504 75.4999 90.8504 80.2499C91.6504 80.9999 92.9504 81.5499 94.0504 81.5499C99.9504 81.6999 105.85 81.5499 111.75 81.6499C113.35 81.6499 114.45 81.2499 115.55 80.0999C123.25 72.2999 131 64.5999 138.7 56.8499C139.25 56.2999 139.75 55.6499 140.5 54.8499C141.9 56.4999 143.1 57.9999 144.5 59.6999C144.35 59.8499 143.85 60.3999 143.3 60.9499C135.4 68.8499 127.5 76.6999 119.7 84.6499C118.95 85.3999 118.45 86.7499 118.4 87.8499C118.25 91.6499 118.35 95.4499 118.35 99.2499C118.35 101.9 117.25 103.05 114.65 103.05C103.85 103.1 93.0504 103.15 82.3004 102.95C80.9004 102.95 79.3004 101.9 78.2504 100.85C74.3504 97.1499 70.6004 93.2499 66.5004 89.1499C66.4504 90.1499 66.3504 90.7499 66.3504 91.3999C66.3504 99.8499 66.0004 108.35 66.4504 116.8C66.7504 122.65 68.1504 128.45 69.1504 134.25C72.2504 152 75.3504 169.7 78.4504 187.45C78.9504 190.25 77.6504 191.9 74.8504 191.9C69.1504 191.95 63.5004 191.9 57.8004 191.9C55.6504 191.9 54.4504 190.95 54.0504 188.8C52.2004 179.1 50.2504 169.4 47.9504 159.75C47.9504 160.55 47.9504 161.35 47.9504 162.15C47.9504 170.7 47.9504 179.2 47.9504 187.75C47.9504 190.95 47.0004 191.9 43.7504 191.9C38.5004 191.9 33.2504 191.9 28.0004 191.9C24.3004 191.9 23.4504 191.1 23.4504 187.45C23.4504 167.45 23.4504 147.45 23.4504 127.5C23.4504 126.65 23.4504 125.75 23.4504 124.55C20.7504 124.55 18.0504 124.55 15.4004 124.55C14.3004 124.55 13.2004 124.55 12.1004 124.55C9.15037 124.5 8.15037 123.55 8.10037 120.6C8.10037 113.65 8.10037 106.75 8.10037 99.7999C8.10037 94.4499 8.30037 89.1499 8.05037 83.8499C7.45037 71.0499 16.2504 60.7999 29.5504 60.0499ZM71.7504 185.7C71.7504 185.4 71.7504 185.2 71.7004 184.95C68.9504 169.2 66.2004 153.4 63.5004 137.65C62.4004 131.35 60.6004 125.05 60.3504 118.7C59.8504 106.45 60.1504 94.1999 60.2504 81.9499C60.2504 80.8999 61.0504 79.5499 61.9004 78.9499C63.5004 77.8999 64.9004 78.8999 66.1004 80.0999C71.2504 85.2499 76.3504 90.4499 81.6004 95.5499C82.4004 96.2999 83.7004 96.8499 84.8004 96.8499C89.9504 96.9999 95.1504 96.9499 100.3 96.9499C104.2 96.9499 108.1 96.9499 112 96.9499C112 93.6999 112 90.7499 112 87.6999C105.35 87.6999 98.9004 87.6499 92.4004 87.7499C90.2504 87.7999 88.7004 87.0499 87.2004 85.5499C82.0004 80.2499 76.6504 75.0499 71.5004 69.6999C69.1004 67.2499 66.3004 66.1999 62.9004 66.1999C52.2004 66.2499 41.4504 66.1999 30.7504 66.2499C20.6504 66.2499 14.2004 72.6999 14.1504 82.7499C14.1504 89.2499 14.1504 95.7499 14.1504 102.2C14.1504 107.5 14.1504 112.8 14.1504 118.15C17.3504 118.15 20.3004 118.15 23.4504 118.15C23.4504 105.85 23.4504 93.7499 23.4504 81.6499C25.5504 81.6499 27.4004 81.6499 29.5004 81.6499C29.5004 116.35 29.5004 150.95 29.5004 185.55C33.7004 185.55 37.6504 185.55 41.7004 185.55C41.7004 184.8 41.7004 184.25 41.7004 183.65C41.7004 165.25 41.7004 146.9 41.7004 128.5C41.7004 125.95 42.7004 124.6 44.4504 124.45C46.2504 124.3 47.4004 125.45 47.9004 127.9C50.9504 142.95 54.0004 158.05 57.0004 173.1C57.8504 177.3 58.7004 181.45 59.5504 185.6C63.8504 185.7 67.8004 185.7 71.7504 185.7ZM60.1504 45.1499C60.3504 36.8999 53.4004 29.6999 45.1004 29.5499C36.8504 29.3999 29.7504 36.2999 29.6004 44.6999C29.4504 52.9999 36.3004 59.9999 44.8004 60.1999C52.8504 60.3499 59.9504 53.3999 60.1504 45.1499Z" fill="#E8565C"/>
<path d="M127.5 146.75C129.8 138.85 134.4 134.2 142.2 133.9C150.55 133.55 155.5 138.35 158.2 146.5C160.15 140 163.8 135.7 170.1 134.2C174.1 133.25 177.95 133.85 181.45 136C189.85 141.1 190.9 150.35 184.15 160.35C190.55 164.2 192.3 170.15 191.95 177.2C191.8 180.75 191.95 184.35 191.9 187.9C191.9 190.85 190.75 192 187.75 192C158.9 192 130 192 101.15 192C99.8504 192 98.5004 192.05 97.2004 192C95.1004 191.9 93.9004 190.75 93.9004 188.75C93.8504 183.3 93.7004 177.8 93.9504 172.35C94.1504 168 96.2504 164.45 99.7004 161.75C100.3 161.25 100.95 160.8 101.65 160.3C96.6504 154.55 95.0504 148.3 99.0004 141.55C102.25 135.95 107.4 133.35 113.9 134.05C121.25 134.75 125.4 139.35 127.5 146.75ZM100.05 185.85C107.95 185.85 115.55 185.85 123.2 185.8C123.6 185.8 124.35 184.95 124.4 184.5C124.5 180.65 124.6 176.75 124.35 172.9C124.05 168.1 120.45 164.6 115.75 164.35C113.45 164.2 111.1 164.2 108.75 164.35C104.3 164.6 100.35 168 100.15 172.2C99.8504 176.6 100.05 181.05 100.05 185.85ZM142.9 185.85C146.4 185.85 149.9 185.8 153.4 185.85C154.65 185.85 155.25 185.5 155.2 184.1C155.1 180.55 155.25 176.95 155.15 173.4C155.05 169.15 152.4 165.45 148.2 164.75C144.75 164.2 141.1 164.15 137.65 164.7C133.35 165.4 130.85 168.95 130.75 173.3C130.7 176.85 130.8 180.45 130.7 184C130.65 185.35 131.15 185.8 132.45 185.8C135.9 185.8 139.4 185.85 142.9 185.85ZM173.5 185.85C177 185.85 180.5 185.85 184 185.9C185.1 185.9 185.85 185.75 185.8 184.4C185.75 180.75 185.95 177.1 185.7 173.5C185.35 167.9 181.55 164.45 176 164.35C174.35 164.3 172.65 164.3 171 164.35C165.25 164.45 161.4 168.2 161.25 173.9C161.15 177.25 161.3 180.6 161.2 183.95C161.15 185.55 161.8 185.95 163.25 185.9C166.65 185.8 170.1 185.85 173.5 185.85ZM112.2 158.2C117.3 158.2 121.35 154.15 121.35 149.05C121.35 143.9 117.3 139.85 112.25 139.85C107.2 139.85 103.05 143.95 103.05 149C103.1 154.1 107.15 158.2 112.2 158.2ZM142.7 158.2C147.75 158.25 152 154.15 152.05 149.2C152.1 144.15 148 139.9 143.05 139.85C137.85 139.8 133.8 143.75 133.75 148.85C133.7 154.05 137.65 158.15 142.7 158.2ZM173.45 158.2C178.4 158.2 182.6 154.15 182.65 149.25C182.75 144.1 178.6 139.85 173.45 139.85C168.4 139.85 164.2 144 164.25 149C164.3 154.05 168.45 158.2 173.45 158.2ZM158.2 164.15C159.8 162.75 161.3 161.45 162.55 160.4C161 157.55 159.55 154.9 158.2 152.4C156.85 154.85 155.3 157.6 153.75 160.35C155.1 161.5 156.6 162.8 158.2 164.15ZM127.55 152.3C126.2 154.8 124.65 157.6 123.15 160.35C124.55 161.55 126.05 162.85 127.55 164.1C129.15 162.7 130.65 161.45 131.9 160.35C130.35 157.55 128.85 154.75 127.55 152.3Z" fill="#E8565C"/>
<path d="M124.65 102.9C124.65 101 124.65 99.1502 124.65 97.0502C126.5 97.0502 128.45 97.0502 130.6 97.0502C130.6 92.8502 130.6 88.9002 130.6 84.8002C132.7 84.8002 134.55 84.8002 136.7 84.8002C136.7 88.7502 136.7 92.7002 136.7 96.8002C138.85 96.8002 140.75 96.8002 142.85 96.8002C142.85 88.7502 142.85 80.7502 142.85 72.6002C144.95 72.6002 146.85 72.6002 149 72.6002C149 80.6502 149 88.7002 149 96.8502C151.1 96.8502 153 96.8502 155.1 96.8502C155.1 92.9002 155.1 88.9502 155.1 84.8502C157.2 84.8502 159.1 84.8502 161.2 84.8502C161.2 88.7502 161.2 92.7502 161.2 96.8502C163.3 96.8502 165.15 96.8502 167.3 96.8502C167.3 85.8002 167.3 74.7002 167.3 63.4502C169.45 63.4502 171.35 63.4502 173.45 63.4502C173.45 74.5502 173.45 85.6002 173.45 96.8502C175.5 96.8502 177.45 96.8502 179.6 96.8502C179.6 90.9002 179.6 84.9002 179.6 78.7502C181.7 78.7502 183.55 78.7502 185.7 78.7502C185.7 84.7002 185.7 90.7502 185.7 96.9502C187.85 96.9502 189.8 96.9502 191.8 96.9502C191.8 99.0502 191.8 100.9 191.8 102.95C169.45 102.9 147.1 102.9 124.65 102.9Z" fill="#E8565C"/>
<path d="M98.9004 51C91.4004 51 83.9004 51 76.3504 51C74.8004 51 73.4504 50.75 72.7004 49.15C71.9504 47.45 72.8004 46.2 73.9504 45.1C76.0504 43 78.2504 40.95 80.2504 38.7C81.0004 37.9 81.5004 36.6 81.5504 35.5C81.7004 31.5 81.6004 27.5 81.6004 23.45C81.6504 15.1 88.0004 8.3 96.4004 8.15C104.95 7.95 113.45 7.95 122 8.15C129.65 8.3 135.75 13.9 136.55 21.85C137.05 27.05 137.05 32.4 136.55 37.6C135.75 45.4 129.3 50.85 121.45 50.95C113.9 51.05 106.4 51 98.9004 51ZM82.8004 44.45C83.6004 44.75 83.7004 44.85 83.8504 44.85C96.5504 44.85 109.2 44.95 121.9 44.85C126.5 44.8 130.45 40.9 130.6 36.35C130.75 31.9 130.75 27.45 130.6 23C130.4 18.15 126.45 14.3 121.65 14.25C113.35 14.2 105.05 14.2 96.7504 14.25C91.7504 14.3 87.8504 18.35 87.8004 23.4C87.7504 26.55 87.6504 29.65 87.8004 32.8C88.0004 37.35 88.0004 41.8 82.8004 44.45Z" fill="#E8565C"/>
<path d="M149.051 26.3498C149.051 24.3498 149.051 22.4998 149.051 20.5498C163.301 20.5498 177.451 20.5498 191.751 20.5498C191.751 22.4498 191.751 24.3498 191.751 26.3498C177.601 26.3498 163.451 26.3498 149.051 26.3498Z" fill="#E8565C"/>
<path d="M149.101 38.6C149.101 36.55 149.101 34.7 149.101 32.75C163.301 32.75 177.401 32.75 191.701 32.75C191.701 34.65 191.701 36.55 191.701 38.6C177.601 38.6 163.451 38.6 149.101 38.6Z" fill="#E8565C"/>
<path d="M149.101 115.2C149.101 113.15 149.101 111.3 149.101 109.35C163.301 109.35 177.401 109.35 191.701 109.35C191.701 111.25 191.701 113.15 191.701 115.2C177.601 115.2 163.401 115.2 149.101 115.2Z" fill="#E8565C"/>
<path d="M191.8 45C191.8 47 191.8 48.85 191.8 50.85C186.75 50.85 181.75 50.85 176.7 50.85C176.7 48.9 176.7 47.05 176.7 45C181.65 45 186.6 45 191.8 45Z" fill="#E8565C"/>
<path d="M161.4 121.55C163.4 121.55 165.25 121.55 167.25 121.55C167.25 123.5 167.25 125.35 167.25 127.4C165.4 127.4 163.5 127.4 161.4 127.4C161.4 125.55 161.4 123.65 161.4 121.55Z" fill="#E8565C"/>
<path d="M179.45 127.5C177.5 127.5 175.65 127.5 173.65 127.5C173.65 125.55 173.65 123.6 173.65 121.6C175.55 121.6 177.4 121.6 179.45 121.6C179.45 123.45 179.45 125.35 179.45 127.5Z" fill="#E8565C"/>
<path d="M191.75 127.5C189.75 127.5 187.9 127.5 185.9 127.5C185.9 125.55 185.9 123.65 185.9 121.6C187.8 121.6 189.7 121.6 191.75 121.6C191.75 123.5 191.75 125.4 191.75 127.5Z" fill="#E8565C"/>
<path d="M50.9004 72.5998C50.9004 74.5498 50.9004 76.4498 50.9004 78.4498C49.9504 78.4998 49.0004 78.5498 48.0004 78.5998C48.0004 87.7498 48.0004 96.7498 48.0004 105.9C45.9504 105.9 44.0504 105.9 41.9004 105.9C41.9004 96.8998 41.9004 87.8498 41.9004 78.6498C40.8004 78.5498 39.9004 78.4998 38.9004 78.3998C38.9004 76.4498 38.9004 74.5998 38.9004 72.5498C42.7504 72.5998 46.7504 72.5998 50.9004 72.5998Z" fill="#E8565C"/>
<path d="M93.9502 26.3502C93.9502 24.3002 93.9502 22.4502 93.9502 20.4502C104.05 20.4502 114.05 20.4502 124.3 20.4502C124.3 22.3502 124.3 24.2502 124.3 26.3502C114.3 26.3502 104.2 26.3502 93.9502 26.3502Z" fill="#E8565C"/>
<path d="M94.0005 32.7002C104.1 32.7002 114.15 32.7002 124.35 32.7002C124.35 34.6002 124.35 36.5002 124.35 38.6002C114.3 38.6002 104.25 38.6002 94.0005 38.6002C94.0005 36.6502 94.0005 34.7502 94.0005 32.7002Z" fill="#E8565C"/>
</svg>
