<svg width="200" height="200" viewBox="0 0 200 200" fill="none" xmlns="http://www.w3.org/2000/svg">
<path d="M102.9 142.7C101.6 142.7 100.35 142.7 99.0496 142.7C96.5996 142.65 94.9996 141.1 94.9496 138.65C94.8996 137.25 94.8996 135.85 94.9496 134.45C94.9496 133.8 94.7996 133.45 94.0996 133.25C91.8496 132.6 89.7496 131.7 87.6996 130.55C87.1496 130.25 86.7996 130.3 86.3496 130.75C85.3996 131.75 84.3996 132.75 83.3496 133.7C81.4496 135.45 79.2496 135.45 77.3996 133.65C75.6496 131.9 73.8496 130.15 72.0996 128.4C70.2496 126.5 70.1996 124.3 72.0496 122.35C72.9996 121.35 73.9996 120.35 74.9996 119.4C75.3996 119 75.4496 118.65 75.1996 118.15C73.9996 116.1 73.1496 113.9 72.4996 111.65C72.2996 111 71.9996 110.8 71.2996 110.8C69.8996 110.85 68.4996 110.85 67.0996 110.8C64.7496 110.75 63.0996 109.25 63.0496 106.95C62.9496 104.2 62.9496 101.45 63.0496 98.6499C63.0996 96.4999 64.7996 94.8999 66.9496 94.8499C68.4496 94.7999 69.8996 94.7999 71.3996 94.8499C71.9996 94.8499 72.3496 94.6499 72.4996 94.0499C73.1496 91.7999 74.0496 89.5999 75.1996 87.5499C75.5496 86.9999 75.3996 86.6499 74.9496 86.1999C73.9496 85.2499 72.9996 84.2999 72.0496 83.2999C70.1996 81.3999 70.1996 79.1499 72.0496 77.2499C73.7996 75.4499 75.5996 73.6999 77.3996 71.8999C79.1996 70.1499 81.2996 70.0999 83.1496 71.7999C84.1996 72.7499 85.2496 73.7999 86.2496 74.8499C86.6996 75.3499 87.0996 75.3999 87.6996 75.0499C89.6496 73.8999 91.6996 73.0499 93.8496 72.4499C94.6496 72.1999 94.8996 71.7999 94.8496 70.9999C94.7996 69.6499 94.7996 68.2999 94.8496 66.8999C94.8996 64.6499 96.4496 62.9999 98.6996 62.9499C101.45 62.8499 104.2 62.8999 107 62.9499C109.15 62.9999 110.7 64.5999 110.85 66.7999C110.9 68.2499 110.9 69.6999 110.85 71.0999C110.85 71.7999 111.05 72.1999 111.75 72.3999C113.95 72.9999 116.05 73.8999 118.05 74.9999C118.65 75.3499 119.05 75.2499 119.5 74.7999C120.5 73.7499 121.5 72.7499 122.6 71.7499C124.4 70.0999 126.5 70.0999 128.25 71.7999C130.15 73.6499 132.05 75.4999 133.85 77.3999C135.45 79.0499 135.5 81.2999 133.9 82.9999C132.95 84.0499 131.9 85.0999 130.85 86.0499C130.35 86.5499 130.25 86.8999 130.6 87.5499C131.7 89.5499 132.6 91.6499 133.2 93.8499C133.4 94.5499 133.75 94.7999 134.45 94.7999C135.8 94.7499 137.15 94.7499 138.55 94.7999C140.9 94.8499 142.6 96.3999 142.65 98.7499C142.75 101.45 142.7 104.1 142.65 106.8C142.6 109.15 140.95 110.7 138.55 110.75C137.1 110.75 135.65 110.75 134.25 110.75C133.75 110.75 133.45 110.85 133.3 111.4C132.6 113.8 131.7 116.1 130.45 118.25C130.15 118.75 130.4 119.05 130.7 119.35C131.7 120.35 132.7 121.3 133.65 122.35C135.45 124.3 135.45 126.5 133.55 128.4C131.8 130.15 130.05 131.9 128.25 133.65C126.45 135.4 124.2 135.45 122.4 133.75C121.4 132.8 120.4 131.8 119.4 130.8C118.95 130.35 118.55 130.2 117.95 130.55C115.95 131.7 113.8 132.6 111.55 133.2C110.95 133.35 110.7 133.65 110.75 134.3C110.8 135.7 110.8 137.1 110.75 138.5C110.7 141 109.1 142.6 106.6 142.65C105.45 142.75 104.2 142.7 102.9 142.7ZM66.6496 102.8C66.6496 104 66.6996 105.2 66.6496 106.4C66.6496 107.05 66.8996 107.25 67.4996 107.25C68.7996 107.2 70.1496 107.25 71.4496 107.25C73.8496 107.25 75.2496 108.3 75.9496 110.6C76.5496 112.7 77.3996 114.65 78.3996 116.55C79.4996 118.65 79.2996 120.15 77.5996 121.9C76.6996 122.85 75.7496 123.8 74.7996 124.7C74.2996 125.2 74.2496 125.55 74.7496 126.05C76.3996 127.65 78.0496 129.3 79.6496 131C80.1996 131.55 80.5496 131.45 80.9996 130.95C81.8996 130 82.8496 129.05 83.7996 128.15C85.4496 126.6 87.0496 126.3 89.0496 127.35C91.0496 128.45 93.1996 129.25 95.3496 129.95C97.3996 130.65 98.3996 132 98.4496 134.15C98.4996 135.5 98.4996 136.85 98.4496 138.25C98.4496 138.9 98.6496 139.15 99.3496 139.15C101.65 139.1 104 139.1 106.3 139.15C107.05 139.15 107.25 138.85 107.25 138.15C107.2 136.85 107.25 135.6 107.25 134.3C107.25 131.95 108.2 130.6 110.4 129.9C112.55 129.2 114.6 128.35 116.6 127.35C118.6 126.3 120.2 126.55 121.85 128.1C122.85 129.05 123.8 130 124.75 131C125.2 131.5 125.55 131.5 126 131C127.65 129.3 129.3 127.65 131 126C131.55 125.5 131.4 125.15 130.95 124.75C129.95 123.8 129 122.85 128.05 121.85C126.45 120.15 126.25 118.65 127.3 116.6C128.35 114.6 129.2 112.55 129.85 110.4C130.5 108.3 131.9 107.25 134.1 107.25C135.45 107.25 136.8 107.2 138.2 107.25C138.9 107.25 139.1 107 139.1 106.35C139.05 104.05 139.05 101.8 139.1 99.4999C139.1 98.6999 138.8 98.4499 138.05 98.4999C136.8 98.5499 135.55 98.4999 134.35 98.4999C131.9 98.4999 130.55 97.4999 129.85 95.1499C129.2 93.0499 128.35 90.9999 127.35 89.0499C126.3 87.0999 126.55 85.5499 128.05 83.8999C129 82.8999 129.95 81.9499 130.95 80.9999C131.55 80.4499 131.5 80.0999 130.95 79.5499C129.3 77.9499 127.7 76.3499 126.1 74.6999C125.6 74.1999 125.25 74.1499 124.75 74.6999C123.75 75.7499 122.75 76.7999 121.7 77.7499C120.2 79.1499 118.55 79.3499 116.75 78.3999C114.75 77.3499 112.75 76.4499 110.6 75.7999C108.3 75.0999 107.35 73.7499 107.35 71.3999C107.35 70.0999 107.3 68.8499 107.35 67.5499C107.35 66.8499 107.1 66.5499 106.4 66.5499C104.1 66.5999 101.85 66.5999 99.5496 66.5499C98.8496 66.5499 98.5496 66.7999 98.5496 67.4999C98.5996 68.6999 98.5496 69.8999 98.5496 71.0999C98.5496 73.7999 97.5996 75.0499 95.0496 75.8499C93.1496 76.4499 91.2496 77.0999 89.4996 78.0999C87.2996 79.3999 85.6996 79.2499 83.8496 77.4499C82.8996 76.5499 81.9496 75.5999 81.0496 74.6499C80.5496 74.1499 80.2496 74.0499 79.6996 74.5999C78.0996 76.2499 76.4496 77.8999 74.7996 79.5499C74.2996 80.0499 74.2496 80.3999 74.7996 80.8999C75.8496 81.8999 76.8496 82.9499 77.8496 83.9499C79.2496 85.3999 79.4996 86.9999 78.5496 88.7999C77.4496 90.8499 76.5996 92.9999 75.8996 95.1999C75.2496 97.2999 73.8496 98.2999 71.5996 98.3499C70.2996 98.3499 69.0496 98.3999 67.7496 98.3499C66.9496 98.2999 66.5996 98.5499 66.6496 99.4499C66.6996 100.65 66.6496 101.75 66.6496 102.8Z" fill="#861BB9"/>
<path d="M70.7492 161.9C70.7492 169.8 70.7492 177.75 70.7492 185.65C70.7492 189.85 68.3492 192.25 64.0992 192.25C50.9492 192.25 37.7492 192.25 24.5992 192.25C20.7992 192.25 18.2992 189.75 18.2992 185.95C18.2992 174.45 18.2992 162.9 18.2992 151.4C18.2992 147.05 18.1992 142.7 18.1992 138.35C18.1992 134.95 19.8492 132.75 22.9492 131.9C23.5492 131.75 24.1492 131.75 24.7492 131.75C37.8992 131.75 51.0992 131.75 64.2492 131.75C68.3492 131.75 70.7992 134.15 70.8492 138.3C70.8492 143.25 70.7992 148.2 70.7992 153.2C70.7492 156.05 70.7492 158.95 70.7492 161.9ZM44.5992 147.05C37.4492 147.1 30.2492 147.1 23.0992 147.05C22.1492 147.05 21.9492 147.3 21.9492 148.25C21.9992 160.75 21.9492 173.2 21.9492 185.7C21.9492 187.8 22.7492 188.6 24.7992 188.6C37.9492 188.6 51.0492 188.6 64.1992 188.6C66.2992 188.6 67.1492 187.8 67.1492 185.75C67.1492 173.2 67.1492 160.7 67.1992 148.15C67.1992 147.15 66.8492 147 65.9992 147C58.8492 147.05 51.6992 147.05 44.5992 147.05ZM50.6492 143.45C55.8492 143.45 61.0492 143.45 66.2492 143.45C66.9992 143.45 67.1992 143.2 67.1492 142.5C67.0992 141.1 67.1492 139.7 67.1492 138.3C67.1492 136.3 66.2992 135.4 64.3492 135.4C54.6992 135.4 44.9992 135.4 35.3492 135.4C34.5492 135.4 34.3492 135.7 34.3492 136.45C34.3992 138.35 34.3992 140.2 34.3492 142.1C34.2992 143.15 34.5492 143.55 35.6992 143.5C40.6492 143.4 45.6492 143.45 50.6492 143.45ZM26.3492 143.35C27.4992 143.35 28.6492 143.3 29.8492 143.35C30.4992 143.35 30.7992 143.2 30.7492 142.5C30.6992 140.4 30.7492 138.35 30.7492 136.25C30.7492 135.75 30.6492 135.45 30.0492 135.45C28.1492 135.5 26.1992 135.45 24.2992 135.5C22.8992 135.55 22.0992 136.4 22.0492 137.8C21.9992 139.4 22.0492 141 22.0492 142.6C22.0492 143.15 22.1992 143.4 22.7992 143.35C23.9492 143.35 25.1492 143.35 26.3492 143.35Z" fill="#861BB9"/>
<path d="M81.3992 23.35C82.0992 23.25 83.1992 23.75 83.7992 23.15C84.3492 22.65 83.9492 21.55 83.9492 20.75C84.1492 17.1 86.9992 14.35 90.7992 14.25C92.9992 14.2 92.9992 14.2 92.9992 12C92.9992 11.3 92.9992 10.55 92.9992 9.85001C92.9992 8.60001 93.6492 7.85001 94.6992 7.80001C95.7992 7.75001 96.5492 8.55001 96.5992 9.80001C96.6492 11 96.6492 12.2 96.5992 13.4C96.5492 14.05 96.7492 14.3 97.4492 14.3C98.4492 14.25 99.4492 14.25 100.449 14.3C100.999 14.3 101.149 14.1 101.099 13.6C101.049 12.45 101.099 11.3 101.099 10.1C101.099 8.60001 101.749 7.75001 102.899 7.80001C104.049 7.85001 104.699 8.60001 104.699 10.15C104.699 11.25 104.749 12.3 104.699 13.4C104.649 14.05 104.799 14.35 105.549 14.3C106.549 14.25 107.549 14.25 108.549 14.3C109.099 14.3 109.249 14.15 109.199 13.6C109.149 12.35 109.149 11.1 109.199 9.90001C109.199 8.60001 109.949 7.80001 110.999 7.80001C112.049 7.80001 112.749 8.60001 112.799 9.90001C112.799 11.05 112.849 12.2 112.799 13.4C112.749 14.2 113.049 14.35 113.749 14.3C115.149 14.25 116.549 14.25 117.849 14.9C120.599 16.25 121.899 18.5 121.899 21.55C121.899 23.4 121.899 23.4 123.699 23.4C124.649 23.4 125.599 23.4 126.599 23.4C127.599 23.4 128.199 23.95 128.349 24.9C128.499 25.75 127.549 26.9 126.699 26.95C125.349 27 123.999 27 122.599 26.95C121.999 26.95 121.849 27.1 121.849 27.7C121.899 28.75 121.899 29.8 121.899 30.8C121.899 31.35 122.099 31.5 122.599 31.45C123.849 31.4 125.099 31.4 126.299 31.45C127.649 31.5 128.399 32.15 128.399 33.25C128.399 34.3 127.599 35 126.299 35.05C125.099 35.1 123.899 35.1 122.699 35.05C122.049 35 121.899 35.25 121.899 35.85C121.949 36.8 121.949 37.75 121.899 38.75C121.849 39.35 122.049 39.6 122.699 39.55C123.899 39.5 125.099 39.5 126.299 39.55C127.599 39.6 128.399 40.3 128.399 41.35C128.399 42.4 127.599 43.1 126.299 43.15C125.049 43.15 123.799 43.2 122.599 43.15C122.099 43.15 121.849 43.3 121.899 43.85C121.949 44.35 121.899 44.9 121.899 45.4C121.799 49.3 118.949 52.15 115.049 52.25C112.799 52.3 112.799 52.3 112.799 54.5C112.799 55.3 112.799 56.1 112.799 56.9C112.749 57.95 112.049 58.65 111.099 58.75C110.099 58.8 109.249 58.1 109.199 57C109.149 55.7 109.149 54.45 109.199 53.15C109.199 52.5 109.099 52.2 108.399 52.25C107.449 52.3 106.499 52.3 105.499 52.25C104.899 52.2 104.649 52.4 104.699 53.05C104.749 54.25 104.749 55.45 104.699 56.65C104.649 58 103.949 58.8 102.749 58.75C101.749 58.7 101.099 57.9 101.099 56.65C101.099 55.5 101.049 54.35 101.099 53.15C101.099 52.55 101.049 52.2 100.299 52.25C99.0992 52.35 97.5992 51.75 96.7992 52.45C96.0992 53.1 96.6492 54.65 96.5992 55.8C96.5492 56.3 96.6492 56.75 96.5492 57.25C96.3492 58.25 95.6992 58.8 94.6492 58.75C93.6492 58.7 93.0492 58.1 92.9992 57.05C92.9492 55.8 92.9492 54.55 92.9992 53.35C93.0492 52.5 92.7992 52.25 91.9492 52.3C89.6492 52.5 87.5992 52 85.8992 50.3C84.3992 48.8 83.8492 47 83.8992 44.95C83.9492 43.2 83.8992 43.2 82.1492 43.2C81.1992 43.2 80.2492 43.2 79.2492 43.2C78.1992 43.15 77.4992 42.5 77.3992 41.55C77.3492 40.55 77.9992 39.7 79.1492 39.65C80.4492 39.55 81.7992 39.6 83.0992 39.65C83.6992 39.65 83.9492 39.5 83.8992 38.85C83.8492 37.65 84.2492 36.15 83.6992 35.35C83.1492 34.65 81.5492 35.2 80.3992 35.15C79.8992 35.1 79.3492 35.15 78.8492 35.05C77.8492 34.9 77.3992 34.2 77.4492 33.25C77.4492 32.35 77.9492 31.7 78.8992 31.6C80.3492 31.5 81.7992 31.5 83.1992 31.5C83.7992 31.5 83.9492 31.35 83.9492 30.75C83.8992 29.75 83.8992 28.75 83.9492 27.75C83.9992 27.05 83.6992 26.95 83.0992 27C81.8992 27.05 80.6992 27.05 79.4992 27C78.1992 26.95 77.4492 26.3 77.4492 25.15C77.4492 24.05 78.1992 23.4 79.5492 23.4C80.0992 23.3 80.6492 23.35 81.3992 23.35ZM103.749 17.9C103.449 17.9 103.149 17.9 102.849 17.9C98.7492 17.9 94.6992 17.85 90.5992 17.85C88.8492 17.85 87.5992 19.2 87.5992 20.95C87.5492 29.1 87.5492 37.25 87.5992 45.4C87.5992 47.15 88.8492 48.5 90.5992 48.5C94.6992 48.55 98.7492 48.5 102.849 48.45C103.149 48.45 103.449 48.45 103.749 48.45C107.599 48.45 111.449 48.5 115.249 48.5C116.999 48.5 118.249 47.15 118.249 45.4C118.299 37.2 118.299 29 118.299 20.8C118.299 19.15 116.999 17.8 115.349 17.8C111.499 17.8 107.599 17.9 103.749 17.9Z" fill="#861BB9"/>
<path d="M181.749 100.05C181.749 107.7 180.699 115.2 178.549 122.55C178.149 124 177.299 124.6 176.199 124.3C175.099 124 174.649 123 175.049 121.55C176.099 117.95 176.899 114.3 177.449 110.55C179.149 98.7 178.049 87.1 174.199 75.75C169.699 62.55 162.099 51.4 151.399 42.4C146.949 38.65 142.149 35.4 136.949 32.8C136.749 32.7 136.599 32.6 136.399 32.5C135.299 31.85 134.899 30.8 135.449 29.9C135.949 29 136.949 28.75 138.049 29.35C139.749 30.25 141.449 31.1 143.099 32.1C150.649 36.55 157.249 42.1 162.949 48.75C167.849 54.5 171.899 60.85 174.949 67.75C177.999 74.65 180.149 81.85 181.099 89.35C181.549 92.9 181.799 96.45 181.749 100.05Z" fill="#861BB9"/>
<path d="M24.0495 100.1C24.0995 83.3 28.9995 68 38.6495 54.25C44.9495 45.35 52.7995 38.1 62.1495 32.5C63.9995 31.4 65.8995 30.4 67.7995 29.35C68.8995 28.75 69.9495 29.05 70.3995 29.95C70.8995 30.85 70.5495 31.9 69.4995 32.5C67.6495 33.55 65.7495 34.45 63.9495 35.55C52.2995 42.6 43.2495 52.2 36.6995 64.1C31.7495 73.1 28.8995 82.7 27.9495 92.9C27.0495 102.3 27.9495 111.5 30.4495 120.55C30.5495 120.95 30.6495 121.3 30.7495 121.7C30.8995 122.75 30.3995 123.6 29.4495 123.8C28.4495 124.05 27.5995 123.5 27.2995 122.4C26.5995 119.8 25.8995 117.15 25.3995 114.5C24.5495 109.75 23.9495 104.95 24.0495 100.1Z" fill="#861BB9"/>
<path d="M103.899 178.85C94.4492 178.95 86.4492 177.55 78.5992 175.15C77.3492 174.75 76.7992 173.85 77.0492 172.85C77.3492 171.75 78.2992 171.3 79.6492 171.7C83.2992 172.8 87.0492 173.75 90.8492 174.35C97.6992 175.4 104.549 175.6 111.399 174.85C115.749 174.35 119.999 173.45 124.199 172.25C125.649 171.85 126.749 172.3 127.049 173.4C127.299 174.45 126.599 175.3 125.199 175.7C117.849 177.8 110.349 178.9 103.899 178.85Z" fill="#861BB9"/>
<path d="M159.6 166.3C166 166.3 172.4 166.3 178.8 166.3C180.6 166.3 181.45 167.1 181.45 168.9C181.45 171.2 181.45 173.55 181.45 175.85C181.45 177.7 180.55 178.65 178.65 178.7C176.45 178.75 174.25 178.7 172.05 178.7C161.7 178.7 151.35 178.7 141 178.7C138.25 178.7 137.5 177.95 137.5 175.2C137.5 173.15 137.5 171.1 137.5 169.1C137.5 167.15 138.35 166.3 140.25 166.3C146.7 166.3 153.15 166.3 159.6 166.3ZM154.45 174.25C157.6 174.25 160.75 174.25 163.95 174.25C165.2 174.25 166 173.6 166.05 172.6C166.1 171.55 165.25 170.75 164 170.7C157.65 170.7 151.25 170.7 144.9 170.7C143.6 170.7 142.8 171.45 142.85 172.55C142.9 173.65 143.65 174.25 145 174.25C148.1 174.25 151.3 174.25 154.45 174.25ZM173.3 170.65C172.9 170.65 172.5 170.65 172.1 170.65C171.2 170.7 170.45 171.1 170.25 172.05C170.05 173 170.5 173.65 171.3 174.1C172.3 174.65 173.4 174.5 174.4 174.3C175.65 174.05 176.25 173.1 176.1 172.15C175.95 171.2 175.2 170.7 173.85 170.65C173.7 170.65 173.5 170.65 173.3 170.65Z" fill="#861BB9"/>
<path d="M159.45 162.65C153 162.65 146.6 162.65 140.15 162.65C138.6 162.65 137.6 161.8 137.6 160.3C137.55 157.85 137.5 155.45 137.6 153C137.65 151.2 138.45 150.5 140.25 150.5C153.1 150.5 166 150.5 178.85 150.5C180.55 150.5 181.35 151.25 181.4 152.95C181.45 155.45 181.45 157.9 181.4 160.4C181.4 161.85 180.45 162.7 178.9 162.7C172.4 162.65 165.95 162.65 159.45 162.65ZM154.55 154.7C151.35 154.7 148.15 154.7 144.95 154.7C143.55 154.7 142.75 155.35 142.75 156.5C142.75 157.65 143.55 158.3 144.95 158.3C151.25 158.3 157.5 158.3 163.8 158.3C165.15 158.3 166 157.5 166 156.45C165.95 155.35 165.15 154.65 163.75 154.65C160.7 154.7 157.65 154.7 154.55 154.7ZM173.25 154.7C172.85 154.7 172.45 154.7 172.05 154.7C170.95 154.75 170.3 155.3 170.2 156.35C170.1 157.35 170.65 158.05 171.65 158.25C172.7 158.45 173.8 158.45 174.85 158.2C175.8 158 176.3 157.3 176.2 156.4C176.15 155.4 175.55 154.8 174.55 154.7C174.1 154.65 173.65 154.7 173.25 154.7Z" fill="#861BB9"/>
<path d="M159.35 146.65C153.05 146.65 146.7 146.65 140.4 146.65C138.4 146.65 137.55 145.85 137.55 143.85C137.55 141.7 137.55 139.55 137.55 137.35C137.55 135.25 138.45 134.35 140.55 134.35C153.25 134.35 165.9 134.35 178.6 134.35C180.55 134.35 181.5 135.25 181.5 137.2C181.5 139.5 181.5 141.75 181.5 144.05C181.5 145.85 180.6 146.65 178.8 146.65C172.3 146.65 165.85 146.65 159.35 146.65ZM154.4 138.7C151.2 138.7 148 138.7 144.8 138.7C143.7 138.7 142.85 139.45 142.8 140.4C142.75 141.45 143.45 142.2 144.65 142.35C145 142.4 145.35 142.35 145.75 142.35C149.25 142.35 152.7 142.35 156.2 142.35C158.7 142.35 161.25 142.35 163.75 142.35C165.35 142.35 166.1 141.55 165.95 140.3C165.8 139.25 165.1 138.7 163.75 138.7C160.65 138.7 157.55 138.7 154.4 138.7ZM173 142.4C173.55 142.35 174 142.4 174.45 142.3C175.6 142.15 176.25 141.4 176.2 140.4C176.15 139.45 175.35 138.75 174.25 138.7C173.5 138.65 172.75 138.65 172 138.7C171.05 138.8 170.35 139.35 170.3 140.35C170.25 141.4 170.8 142 171.75 142.2C172.2 142.4 172.65 142.4 173 142.4Z" fill="#861BB9"/>
<path d="M122.599 102.85C122.899 112.55 115.249 122.9 102.399 122.65C91.7994 122.5 83.2994 114.3 83.1494 103C82.9994 92.05 91.4494 83.75 101.499 83.1C114.099 82.35 122.999 92.65 122.599 102.85ZM95.8494 88.35C90.7994 90.8 87.9494 94.9 86.8494 100.35C86.7494 100.85 86.8494 101.2 87.4994 101.15C89.1994 101.1 90.8494 101.15 92.5494 101.15C93.0994 101.15 93.3494 101 93.3494 100.4C93.4494 96.3 94.4494 92.35 96.0494 88.55C96.0994 88.45 96.0994 88.4 96.1494 88.3C95.9994 88.3 95.9494 88.3 95.8494 88.35ZM109.999 88.35C109.899 88.35 109.799 88.3 109.749 88.3C109.799 88.4 109.799 88.45 109.849 88.55C111.449 92.35 112.449 96.25 112.549 100.4C112.549 101 112.799 101.15 113.349 101.15C115.049 101.15 116.699 101.1 118.399 101.15C119.049 101.15 119.149 100.85 119.049 100.35C117.899 94.9 115.049 90.8 109.999 88.35ZM95.8494 117.4C95.9494 117.4 96.0494 117.45 96.0994 117.45C96.0494 117.35 96.0494 117.3 95.9994 117.2C94.3994 113.4 93.3994 109.5 93.2994 105.35C93.2994 104.75 93.0494 104.6 92.4994 104.6C90.7994 104.6 89.1494 104.65 87.4494 104.6C86.7994 104.6 86.6994 104.9 86.7994 105.4C87.9494 110.85 90.7994 115 95.8494 117.4ZM109.999 117.4C115.049 114.95 117.899 110.85 118.999 105.4C119.099 104.9 119.049 104.55 118.349 104.6C116.649 104.65 114.999 104.6 113.299 104.6C112.749 104.6 112.499 104.75 112.499 105.35C112.399 109.5 111.399 113.4 109.799 117.2C109.749 117.3 109.749 117.35 109.699 117.45C109.799 117.45 109.899 117.45 109.999 117.4ZM100.099 104.65C99.2494 104.65 98.3994 104.65 97.5994 104.65C97.0994 104.65 96.8494 104.85 96.8994 105.35C96.9994 106.3 97.0494 107.25 97.1494 108.2C97.6494 111.6 98.3994 114.95 100.649 117.75C101.299 118.55 102.099 119.2 103.149 119.1C104.149 119 104.749 118.25 105.299 117.5C107.949 113.85 108.599 109.6 108.899 105.25C108.949 104.55 108.449 104.6 108.049 104.6C105.399 104.65 102.749 104.65 100.099 104.65ZM106.099 101.15C106.749 101.15 107.399 101.1 107.999 101.15C108.699 101.2 109.049 100.95 108.949 100.2C108.849 99.35 108.799 98.45 108.699 97.6C108.199 94.2 107.449 90.9 105.299 88.15C103.749 86.15 102.149 86.2 100.599 88.2C97.8494 91.85 97.2494 96.15 96.8994 100.5C96.8494 101.3 97.4494 101.15 97.8494 101.15C100.599 101.15 103.349 101.15 106.099 101.15Z" fill="#861BB9"/>
<path d="M103.65 43.2001C103.4 43.2001 103.15 43.2001 102.9 43.2001C100.85 43.2001 98.7498 43.1501 96.6998 43.1501C94.3998 43.1001 93.0498 41.8 93.0498 39.5C93.0498 35.35 93.0498 31.2 93.0498 27.05C93.0498 24.75 94.3998 23.4 96.6998 23.35C98.7498 23.3 100.85 23.3 102.9 23.3C103.15 23.3 103.4 23.3 103.65 23.3C105.5 23.35 107.3 23.4001 109.15 23.4501C111.45 23.5001 112.7 24.85 112.75 27.15C112.75 31.2 112.8 35.2 112.8 39.25C112.8 41.85 111.5 43.1501 108.9 43.1501C107.15 43.1501 105.4 43.1501 103.65 43.2001ZM102.8 39.4501C104.6 39.4501 106.4 39.4001 108.2 39.4501C109.05 39.5001 109.2 39.1501 109.2 38.4001C109.15 34.9001 109.15 31.4501 109.2 27.9501C109.2 27.2001 109.05 26.9 108.25 26.9C104.75 26.95 101.2 26.95 97.6998 26.9C96.9998 26.9 96.6998 27 96.6998 27.8C96.7498 31.35 96.7498 34.9001 96.6998 38.4501C96.6998 39.2501 96.9998 39.35 97.6998 39.35C99.3498 39.4 101.1 39.4501 102.8 39.4501Z" fill="#861BB9"/>
<path d="M110 117.4C109.9 117.4 109.8 117.45 109.75 117.45C109.8 117.35 109.8 117.3 109.85 117.2C109.85 117.3 109.95 117.35 110 117.4Z" fill="#861BB9"/>
<path d="M95.9996 117.2C96.0496 117.3 96.0496 117.35 96.0996 117.45C95.9996 117.45 95.8996 117.4 95.8496 117.4C95.8996 117.35 95.9496 117.3 95.9996 117.2Z" fill="#861BB9"/>
<path d="M109.799 88.55C109.749 88.45 109.749 88.4 109.699 88.3C109.799 88.3 109.899 88.35 109.949 88.35C109.949 88.4 109.849 88.45 109.799 88.55Z" fill="#861BB9"/>
<path d="M95.8496 88.35C95.9496 88.35 96.0496 88.3 96.0996 88.3C96.0496 88.4 96.0496 88.45 95.9996 88.55C95.9496 88.45 95.8996 88.4 95.8496 88.35Z" fill="#861BB9"/>
<path d="M41.9495 175.4C41.0495 175.45 40.3995 174.95 39.8495 174.4C37.4995 172.1 35.1995 169.8 32.8995 167.45C31.3495 165.85 31.5495 163.95 33.3495 163.1C34.5495 162.5 35.4995 163 36.3995 163.8C37.7495 165.05 38.9995 166.4 40.3495 167.65C41.5995 168.9 42.4495 168.9 43.6995 167.65C46.1495 165.25 48.5495 162.8 50.9995 160.35C52.1995 159.15 53.6995 159.05 54.8495 160.1C55.8995 161.1 55.8995 162.55 54.7495 163.75C51.1495 167.4 47.4495 171.05 43.7995 174.7C43.2495 175.15 42.6495 175.5 41.9495 175.4Z" fill="#861BB9"/>
<path d="M169.2 192.25H149.8C148.8 192.25 148 191.45 148 190.45C148 189.45 148.8 188.65 149.8 188.65H169.2C170.2 188.65 171 189.45 171 190.45C171.05 191.4 170.2 192.25 169.2 192.25Z" fill="#861BB9"/>
<path d="M161.35 182.05H157.55V189.7H161.35V182.05Z" fill="#861BB9"/>
</svg>
