<svg width="200" height="201" viewBox="0 0 200 201" fill="none" xmlns="http://www.w3.org/2000/svg">
<path d="M192.75 126.95C192.75 141.5 192.8 156 192.75 170.55C192.75 178.95 187.75 183.85 179.35 183.85C176.7 183.85 174.1 183.85 171.45 183.85C164.5 183.8 159.25 178.85 159.1 171.85C158.95 163.8 159.05 155.75 159.05 147.7C159.05 126.1 159 104.45 159.1 82.8501C159.1 81.0501 159.6 79.1001 160.45 77.5501C164.6 69.7001 168.95 61.9501 173.2 54.1501C173.95 52.7501 174.8 51.1501 176.45 51.5501C177.7 51.8501 179.05 53.0501 179.65 54.2001C183.85 62.2501 187.95 70.4001 191.95 78.5501C192.5 79.7001 192.7 81.1501 192.7 82.4501C192.8 97.2501 192.75 112.1 192.75 126.95ZM165.25 157.6C172.45 157.6 179.45 157.6 186.6 157.6C186.6 134.25 186.6 111.05 186.6 87.5001C185.75 88.2001 185.15 88.6001 184.6 89.1001C181.8 91.5001 180.6 91.4501 178.2 88.7501C177.2 87.6501 176.15 86.6001 174.8 85.1001C173.3 86.7501 172.15 88.4501 170.55 89.6501C168.4 91.3001 166.95 88.9501 165.2 87.9001C165.25 111.35 165.25 134.4 165.25 157.6ZM165.15 163.95C165.15 164.85 165.15 165.6 165.15 166.3C165.15 168.25 165.05 170.2 165.25 172.15C165.55 175.4 167.9 177.6 171.3 177.75C174.4 177.9 177.45 177.9 180.55 177.75C183.8 177.6 186.2 175.8 186.55 172.7C186.9 169.85 186.6 166.9 186.6 163.95C179.45 163.95 172.5 163.95 165.15 163.95Z" fill="#861BB9"/>
<path d="M31.3997 139.85C44.7497 139.9 55.6497 150.9 55.5497 164.25C55.4497 177.45 44.3497 188.25 30.8997 188.2C17.8497 188.15 7.19971 177.1 7.19971 163.65C7.19971 150.55 18.1497 139.8 31.3997 139.85Z" fill="#861BB9"/>
<path d="M7.19991 36.85C7.09991 23.7 17.8499 12.9 31.0999 12.8C44.5999 12.7 55.5499 23.6 55.5499 37.1C55.5499 50.05 44.4999 61.05 31.3999 61.15C18.1499 61.25 7.34991 50.4 7.19991 36.85Z" fill="#861BB9"/>
<path d="M7.1999 100.3C7.0999 87.25 17.9999 76.35 31.1999 76.25C44.4499 76.15 55.3999 87.05 55.5499 100.5C55.6999 113.5 44.7499 124.45 31.5499 124.6C17.9499 124.7 7.2999 114.1 7.1999 100.3ZM28.0499 102.15C27.0499 100.95 26.4999 100.05 25.6999 99.3C24.2999 98 22.6999 97.9 21.2499 99.15C19.9999 100.2 20.0499 102.15 21.3999 103.6C22.7999 105.1 24.2499 106.5 25.6999 107.9C27.4999 109.6 28.7999 109.6 30.5499 107.85C34.0499 104.45 37.4999 101 40.9499 97.5C42.5499 95.9 42.6499 94.05 41.3499 92.75C40.0499 91.45 38.2499 91.65 36.5999 93.3C33.8999 96.05 31.1999 98.85 28.0499 102.15Z" fill="#861BB9"/>
<path d="M102.05 30.5C91.5998 30.5 81.0998 30.5 70.6498 30.5C69.7498 30.5 68.8498 30.4 67.9998 30.2C66.4998 29.75 65.5998 28.55 65.9998 27.15C66.2998 26.1 67.3998 25.2 68.2998 24.5C68.7998 24.1 69.7498 24.3 70.4998 24.3C91.5998 24.3 112.65 24.3 133.75 24.35C134.8 24.35 136.2 24.5 136.9 25.2C137.6 25.9 138.05 27.35 137.85 28.35C137.55 30.05 135.95 30.55 134.35 30.55C128.95 30.55 123.5 30.55 118.1 30.55C112.75 30.45 107.4 30.45 102.05 30.5Z" fill="#861BB9"/>
<path d="M101.85 157.55C91.3998 157.55 80.8998 157.55 70.4498 157.55C69.6998 157.55 68.6998 157.75 68.2498 157.4C67.2998 156.6 66.0498 155.5 66.0498 154.5C66.0498 153.55 67.2998 152.4 68.2998 151.65C68.8498 151.25 69.8998 151.45 70.6998 151.45C91.5498 151.45 112.4 151.45 133.25 151.45C133.55 151.45 133.85 151.45 134.15 151.45C136.75 151.55 138.05 152.55 138.05 154.5C138.05 156.45 136.7 157.55 134.15 157.55C123.4 157.55 112.65 157.55 101.85 157.55Z" fill="#861BB9"/>
<path d="M102.1 87.9C112.7 87.9 123.35 87.9 133.95 87.9C134.55 87.9 135.35 87.75 135.7 88.05C136.6 88.9 137.7 89.9 137.95 91C138.3 92.45 137.2 93.55 135.7 93.85C134.8 94 133.9 94 133 94C112.3 94 91.5999 94 70.8999 94C70.0499 94 69.2499 94 68.4499 93.85C66.7999 93.6 65.8999 92.55 65.8999 90.9C65.8999 89.25 66.8499 88.25 68.4499 87.95C69.0999 87.85 69.7999 87.9 70.4999 87.9C81.0499 87.9 91.5999 87.95 102.1 87.9Z" fill="#861BB9"/>
<path d="M89.7503 49.5C83.1503 49.5 76.5003 49.5 69.9003 49.5C67.3003 49.5 65.9503 48.45 65.9003 46.55C65.8503 44.6 67.2003 43.45 69.7503 43.45C83.0503 43.4 96.4003 43.4 109.7 43.45C112.15 43.45 113.6 44.75 113.5 46.65C113.4 48.4 111.95 49.55 109.6 49.55C103 49.5 96.3503 49.5 89.7503 49.5Z" fill="#861BB9"/>
<path d="M89.5998 112.9C82.9998 112.9 76.3498 112.9 69.7498 112.9C68.0998 112.9 66.5498 112.7 65.9998 110.75C65.3998 108.5 66.8998 106.9 69.6498 106.9C79.6498 106.9 89.6498 106.9 99.6498 106.9C103.05 106.9 106.4 106.85 109.8 106.9C112.05 106.9 113.5 108.15 113.5 110C113.5 111.75 112.25 112.85 109.9 112.85C103.1 112.9 96.3498 112.85 89.5998 112.9Z" fill="#861BB9"/>
<path d="M89.7996 176.6C83.0496 176.6 76.2496 176.6 69.4996 176.6C66.7996 176.6 65.2996 174.8 66.0496 172.65C66.6496 170.95 67.9996 170.6 69.6496 170.6C79.6496 170.6 89.6496 170.6 99.6496 170.6C103.05 170.6 106.4 170.55 109.8 170.6C112.1 170.6 113.5 171.85 113.45 173.7C113.4 175.4 112 176.6 109.85 176.6C103.2 176.6 96.4996 176.6 89.7996 176.6Z" fill="#861BB9"/>
</svg>
