<svg width="200" height="200" viewBox="0 0 200 200" fill="none" xmlns="http://www.w3.org/2000/svg">
<path d="M29.5499 60.05C19.4999 48.3 23.2999 35.65 30.0999 29.4C38.8999 21.25 51.5499 21.35 59.9499 29.65C67.8499 37.5 69.0499 50.3 60.0499 60.2C61.1999 60.2 61.9999 60.2 62.7999 60.2C68.1499 60.05 72.5999 61.95 76.2999 65.75C81.0999 70.65 85.9499 75.5 90.8499 80.25C91.6499 81 92.9499 81.55 94.0499 81.55C99.9499 81.7 105.85 81.55 111.75 81.65C113.35 81.65 114.45 81.25 115.55 80.1C123.25 72.3 131 64.6 138.7 56.85C139.25 56.3 139.75 55.65 140.5 54.85C141.9 56.5 143.1 58 144.5 59.7C144.35 59.85 143.85 60.4 143.3 60.95C135.4 68.85 127.5 76.7 119.7 84.65C118.95 85.4 118.45 86.75 118.4 87.85C118.25 91.65 118.35 95.45 118.35 99.25C118.35 101.9 117.25 103.05 114.65 103.05C103.85 103.1 93.0499 103.15 82.2999 102.95C80.8999 102.95 79.2999 101.9 78.2499 100.85C74.3499 97.15 70.5999 93.25 66.4999 89.15C66.4499 90.15 66.3499 90.75 66.3499 91.4C66.3499 99.85 65.9999 108.35 66.4499 116.8C66.7499 122.65 68.1499 128.45 69.1499 134.25C72.2499 152 75.3499 169.7 78.4499 187.45C78.9499 190.25 77.6499 191.9 74.8499 191.9C69.1499 191.95 63.4999 191.9 57.7999 191.9C55.6499 191.9 54.4499 190.95 54.0499 188.8C52.1999 179.1 50.2499 169.4 47.9499 159.75C47.9499 160.55 47.9499 161.35 47.9499 162.15C47.9499 170.7 47.9499 179.2 47.9499 187.75C47.9499 190.95 46.9999 191.9 43.7499 191.9C38.4999 191.9 33.2499 191.9 27.9999 191.9C24.2999 191.9 23.4499 191.1 23.4499 187.45C23.4499 167.45 23.4499 147.45 23.4499 127.5C23.4499 126.65 23.4499 125.75 23.4499 124.55C20.7499 124.55 18.0499 124.55 15.3999 124.55C14.2999 124.55 13.1999 124.55 12.0999 124.55C9.14988 124.5 8.14988 123.55 8.09988 120.6C8.09988 113.65 8.09988 106.75 8.09988 99.8C8.09988 94.45 8.29988 89.15 8.04988 83.85C7.44988 71.05 16.2499 60.8 29.5499 60.05ZM71.7499 185.7C71.7499 185.4 71.7499 185.2 71.6999 184.95C68.9499 169.2 66.1999 153.4 63.4999 137.65C62.3999 131.35 60.5999 125.05 60.3499 118.7C59.8499 106.45 60.1499 94.2 60.2499 81.95C60.2499 80.9 61.0499 79.55 61.8999 78.95C63.4999 77.9 64.8999 78.9 66.0999 80.1C71.2499 85.25 76.3499 90.45 81.5999 95.55C82.3999 96.3 83.6999 96.85 84.7999 96.85C89.9499 97 95.1499 96.95 100.3 96.95C104.2 96.95 108.1 96.95 112 96.95C112 93.7 112 90.75 112 87.7C105.35 87.7 98.8999 87.65 92.3999 87.75C90.2499 87.8 88.6999 87.05 87.1999 85.55C81.9999 80.25 76.6499 75.05 71.4999 69.7C69.0999 67.25 66.2999 66.2 62.8999 66.2C52.1999 66.25 41.4499 66.2 30.7499 66.25C20.6499 66.25 14.1999 72.7 14.1499 82.75C14.1499 89.25 14.1499 95.75 14.1499 102.2C14.1499 107.5 14.1499 112.8 14.1499 118.15C17.3499 118.15 20.2999 118.15 23.4499 118.15C23.4499 105.85 23.4499 93.75 23.4499 81.65C25.5499 81.65 27.3999 81.65 29.4999 81.65C29.4999 116.35 29.4999 150.95 29.4999 185.55C33.6999 185.55 37.6499 185.55 41.6999 185.55C41.6999 184.8 41.6999 184.25 41.6999 183.65C41.6999 165.25 41.6999 146.9 41.6999 128.5C41.6999 125.95 42.6999 124.6 44.4499 124.45C46.2499 124.3 47.3999 125.45 47.8999 127.9C50.9499 142.95 53.9999 158.05 56.9999 173.1C57.8499 177.3 58.6999 181.45 59.5499 185.6C63.8499 185.7 67.7999 185.7 71.7499 185.7ZM60.1499 45.15C60.3499 36.9 53.3999 29.7 45.0999 29.55C36.8499 29.4 29.7499 36.3 29.5999 44.7C29.4499 53 36.2999 60 44.7999 60.2C52.8499 60.35 59.9499 53.4 60.1499 45.15Z" fill="#861BB9"/>
<path d="M127.5 146.75C129.8 138.85 134.4 134.2 142.2 133.9C150.55 133.55 155.5 138.35 158.2 146.5C160.15 140 163.8 135.7 170.1 134.2C174.1 133.25 177.95 133.85 181.45 136C189.85 141.1 190.9 150.35 184.15 160.35C190.55 164.2 192.3 170.15 191.95 177.2C191.8 180.75 191.95 184.35 191.9 187.9C191.9 190.85 190.75 192 187.75 192C158.9 192 130 192 101.15 192C99.85 192 98.5 192.05 97.2 192C95.1 191.9 93.9 190.75 93.9 188.75C93.85 183.3 93.7 177.8 93.95 172.35C94.15 168 96.25 164.45 99.7 161.75C100.3 161.25 100.95 160.8 101.65 160.3C96.65 154.55 95.05 148.3 99 141.55C102.25 135.95 107.4 133.35 113.9 134.05C121.25 134.75 125.4 139.35 127.5 146.75ZM100.05 185.85C107.95 185.85 115.55 185.85 123.2 185.8C123.6 185.8 124.35 184.95 124.4 184.5C124.5 180.65 124.6 176.75 124.35 172.9C124.05 168.1 120.45 164.6 115.75 164.35C113.45 164.2 111.1 164.2 108.75 164.35C104.3 164.6 100.35 168 100.15 172.2C99.85 176.6 100.05 181.05 100.05 185.85ZM142.9 185.85C146.4 185.85 149.9 185.8 153.4 185.85C154.65 185.85 155.25 185.5 155.2 184.1C155.1 180.55 155.25 176.95 155.15 173.4C155.05 169.15 152.4 165.45 148.2 164.75C144.75 164.2 141.1 164.15 137.65 164.7C133.35 165.4 130.85 168.95 130.75 173.3C130.7 176.85 130.8 180.45 130.7 184C130.65 185.35 131.15 185.8 132.45 185.8C135.9 185.8 139.4 185.85 142.9 185.85ZM173.5 185.85C177 185.85 180.5 185.85 184 185.9C185.1 185.9 185.85 185.75 185.8 184.4C185.75 180.75 185.95 177.1 185.7 173.5C185.35 167.9 181.55 164.45 176 164.35C174.35 164.3 172.65 164.3 171 164.35C165.25 164.45 161.4 168.2 161.25 173.9C161.15 177.25 161.3 180.6 161.2 183.95C161.15 185.55 161.8 185.95 163.25 185.9C166.65 185.8 170.1 185.85 173.5 185.85ZM112.2 158.2C117.3 158.2 121.35 154.15 121.35 149.05C121.35 143.9 117.3 139.85 112.25 139.85C107.2 139.85 103.05 143.95 103.05 149C103.1 154.1 107.15 158.2 112.2 158.2ZM142.7 158.2C147.75 158.25 152 154.15 152.05 149.2C152.1 144.15 148 139.9 143.05 139.85C137.85 139.8 133.8 143.75 133.75 148.85C133.7 154.05 137.65 158.15 142.7 158.2ZM173.45 158.2C178.4 158.2 182.6 154.15 182.65 149.25C182.75 144.1 178.6 139.85 173.45 139.85C168.4 139.85 164.2 144 164.25 149C164.3 154.05 168.45 158.2 173.45 158.2ZM158.2 164.15C159.8 162.75 161.3 161.45 162.55 160.4C161 157.55 159.55 154.9 158.2 152.4C156.85 154.85 155.3 157.6 153.75 160.35C155.1 161.5 156.6 162.8 158.2 164.15ZM127.55 152.3C126.2 154.8 124.65 157.6 123.15 160.35C124.55 161.55 126.05 162.85 127.55 164.1C129.15 162.7 130.65 161.45 131.9 160.35C130.35 157.55 128.85 154.75 127.55 152.3Z" fill="#861BB9"/>
<path d="M124.65 102.9C124.65 101 124.65 99.15 124.65 97.05C126.5 97.05 128.45 97.05 130.6 97.05C130.6 92.85 130.6 88.9 130.6 84.8C132.7 84.8 134.55 84.8 136.7 84.8C136.7 88.75 136.7 92.7 136.7 96.8C138.85 96.8 140.75 96.8 142.85 96.8C142.85 88.75 142.85 80.7499 142.85 72.5999C144.95 72.5999 146.85 72.5999 149 72.5999C149 80.6499 149 88.6999 149 96.8499C151.1 96.8499 153 96.8499 155.1 96.8499C155.1 92.8999 155.1 88.9499 155.1 84.8499C157.2 84.8499 159.1 84.8499 161.2 84.8499C161.2 88.7499 161.2 92.7499 161.2 96.8499C163.3 96.8499 165.15 96.8499 167.3 96.8499C167.3 85.7999 167.3 74.7 167.3 63.45C169.45 63.45 171.35 63.45 173.45 63.45C173.45 74.55 173.45 85.5999 173.45 96.8499C175.5 96.8499 177.45 96.8499 179.6 96.8499C179.6 90.8999 179.6 84.9 179.6 78.75C181.7 78.75 183.55 78.75 185.7 78.75C185.7 84.7 185.7 90.7499 185.7 96.9499C187.85 96.9499 189.8 96.9499 191.8 96.9499C191.8 99.0499 191.8 100.9 191.8 102.95C169.45 102.9 147.1 102.9 124.65 102.9Z" fill="#861BB9"/>
<path d="M98.8999 51C91.3999 51 83.8999 51 76.3499 51C74.7999 51 73.4499 50.75 72.6999 49.15C71.9499 47.45 72.7999 46.2 73.9499 45.1C76.0499 43 78.2499 40.95 80.2499 38.7C80.9999 37.9 81.4999 36.6 81.5499 35.5C81.6999 31.5 81.5999 27.5 81.5999 23.45C81.6499 15.1 87.9999 8.3 96.3999 8.15C104.95 7.95 113.45 7.95 122 8.15C129.65 8.3 135.75 13.9 136.55 21.85C137.05 27.05 137.05 32.4 136.55 37.6C135.75 45.4 129.3 50.85 121.45 50.95C113.9 51.05 106.4 51 98.8999 51ZM82.7999 44.45C83.5999 44.75 83.6999 44.85 83.8499 44.85C96.5499 44.85 109.2 44.95 121.9 44.85C126.5 44.8 130.45 40.9 130.6 36.35C130.75 31.9 130.75 27.45 130.6 23C130.4 18.15 126.45 14.3 121.65 14.25C113.35 14.2 105.05 14.2 96.7499 14.25C91.7499 14.3 87.8499 18.35 87.7999 23.4C87.7499 26.55 87.6499 29.65 87.7999 32.8C87.9999 37.35 87.9999 41.8 82.7999 44.45Z" fill="#861BB9"/>
<path d="M149.05 26.35C149.05 24.35 149.05 22.5 149.05 20.55C163.3 20.55 177.45 20.55 191.75 20.55C191.75 22.45 191.75 24.35 191.75 26.35C177.6 26.35 163.45 26.35 149.05 26.35Z" fill="#861BB9"/>
<path d="M149.1 38.6C149.1 36.55 149.1 34.7 149.1 32.75C163.3 32.75 177.4 32.75 191.7 32.75C191.7 34.65 191.7 36.55 191.7 38.6C177.6 38.6 163.45 38.6 149.1 38.6Z" fill="#861BB9"/>
<path d="M149.1 115.2C149.1 113.15 149.1 111.3 149.1 109.35C163.3 109.35 177.4 109.35 191.7 109.35C191.7 111.25 191.7 113.15 191.7 115.2C177.6 115.2 163.4 115.2 149.1 115.2Z" fill="#861BB9"/>
<path d="M191.8 45C191.8 47 191.8 48.85 191.8 50.85C186.75 50.85 181.75 50.85 176.7 50.85C176.7 48.9 176.7 47.05 176.7 45C181.65 45 186.6 45 191.8 45Z" fill="#861BB9"/>
<path d="M161.4 121.55C163.4 121.55 165.25 121.55 167.25 121.55C167.25 123.5 167.25 125.35 167.25 127.4C165.4 127.4 163.5 127.4 161.4 127.4C161.4 125.55 161.4 123.65 161.4 121.55Z" fill="#861BB9"/>
<path d="M179.45 127.5C177.5 127.5 175.65 127.5 173.65 127.5C173.65 125.55 173.65 123.6 173.65 121.6C175.55 121.6 177.4 121.6 179.45 121.6C179.45 123.45 179.45 125.35 179.45 127.5Z" fill="#861BB9"/>
<path d="M191.75 127.5C189.75 127.5 187.9 127.5 185.9 127.5C185.9 125.55 185.9 123.65 185.9 121.6C187.8 121.6 189.7 121.6 191.75 121.6C191.75 123.5 191.75 125.4 191.75 127.5Z" fill="#861BB9"/>
<path d="M50.8999 72.6C50.8999 74.55 50.8999 76.45 50.8999 78.45C49.9499 78.5 48.9999 78.55 47.9999 78.6C47.9999 87.75 47.9999 96.75 47.9999 105.9C45.9499 105.9 44.0499 105.9 41.8999 105.9C41.8999 96.9 41.8999 87.85 41.8999 78.65C40.7999 78.55 39.8999 78.5 38.8999 78.4C38.8999 76.45 38.8999 74.6 38.8999 72.55C42.7499 72.6 46.7499 72.6 50.8999 72.6Z" fill="#861BB9"/>
<path d="M93.9497 26.35C93.9497 24.3 93.9497 22.45 93.9497 20.45C104.05 20.45 114.05 20.45 124.3 20.45C124.3 22.35 124.3 24.25 124.3 26.35C114.3 26.35 104.2 26.35 93.9497 26.35Z" fill="#861BB9"/>
<path d="M94 32.7C104.1 32.7 114.15 32.7 124.35 32.7C124.35 34.6 124.35 36.4999 124.35 38.5999C114.3 38.5999 104.25 38.5999 94 38.5999C94 36.6499 94 34.75 94 32.7Z" fill="#861BB9"/>
</svg>
