<svg width="200" height="201" viewBox="0 0 200 201" fill="none" xmlns="http://www.w3.org/2000/svg">
<path d="M69.1497 194.65C68.2997 188.15 67.4497 181.7 66.6497 175.2C66.2997 172.3 65.8997 169.4 65.5497 166.5C65.4497 165.45 64.9997 165.1 63.8997 165.2C55.0997 166.1 46.2997 166.95 37.5497 167.95C35.9997 168.1 35.4497 167.65 35.3497 166.2C34.5497 155.5 33.7497 144.8 32.9497 134.15C32.7997 132.25 32.5497 130.4 32.4497 128.55C32.3997 127.3 31.7997 127 30.6497 127C25.8997 127.05 21.1497 127 16.3497 127C15.7497 127 15.1497 126.95 14.1997 126.9C14.9997 124.5 15.6997 122.3 16.4497 120.1C19.9997 109.6 23.5997 99.15 27.1497 88.65C27.5497 87.4 27.9997 86.2 28.4997 84.95C29.4497 82.65 29.6997 80.25 29.5997 77.75C29.2497 69.3 30.3497 61 33.0497 53.05C36.9997 41.45 43.4497 31.45 52.7997 23.4C64.2497 13.55 77.5497 7.99999 92.6497 6.99999C93.5997 6.94999 94.4997 6.79999 95.4497 6.69999C96.4997 6.54999 97.0497 6.94999 97.0997 8.04999C97.0997 8.09999 97.0997 8.14999 97.0997 8.19999C97.3997 12.85 97.3997 12.75 92.6997 13.1C83.0997 13.8 74.1497 16.55 65.8997 21.5C54.9997 28 46.7997 37 41.4497 48.5C37.4997 56.95 35.5997 65.9 35.7997 75.25C35.8497 77.4 35.9997 79.55 35.7497 81.65C35.5497 83.45 34.8497 85.15 34.2497 86.9C30.5497 97.7 26.8997 108.55 23.1497 119.35C22.6997 120.7 23.0497 121 24.3497 121C28.3997 120.95 32.3997 121 36.4497 120.95C37.5997 120.95 38.0997 121.25 38.1997 122.5C38.7497 130.1 39.3497 137.75 39.9497 145.35C40.3497 150.1 40.7997 154.85 41.0997 159.6C41.1997 161.15 41.6997 161.5 43.1997 161.35C51.6997 160.4 60.2497 159.6 68.7997 158.7C70.2497 158.55 70.8497 158.95 71.0497 160.45C72.2997 170.9 73.5997 181.3 74.8997 191.75C75.1497 193.85 75.0997 193.85 72.9997 194.15C72.4497 194.25 71.9497 194.55 71.4497 194.75C70.5997 194.65 69.8497 194.65 69.1497 194.65Z" fill="#E8565C"/>
<path d="M147.6 194.65C146.7 188.9 145.8 183.2 144.95 177.45C143.85 170.1 142.9 162.75 141.7 155.45C141.35 153.4 142.15 151.75 142.7 150C145.7 141.05 148.85 132.15 151.85 123.2C152.15 122.3 152.3 121.25 152.35 120.3C152.4 117.2 152.4 114.15 152.3 111.05C152.25 109.45 152.85 108.95 154.3 109.1C154.75 109.15 155.25 109.15 155.7 109.15C158.7 109.2 158.5 108.95 158.5 112.15C158.5 113.7 158.4 115.3 158.55 116.85C159.1 122.1 157.1 126.8 155.45 131.55C152.9 138.9 150.4 146.25 147.9 153.6C147.7 154.1 147.7 154.75 147.8 155.3C149.65 167.6 151.45 179.9 153.35 192.2C153.55 193.4 153.3 193.95 152 194.05C151.25 194.1 150.55 194.5 149.8 194.7C149.05 194.65 148.35 194.65 147.6 194.65Z" fill="#E8565C"/>
<path d="M123.45 152.5C123.45 165.7 123.45 178.85 123.45 192.05C123.45 194.15 123.45 194.15 121.4 194.15C117.45 194.15 117.45 194.15 117.45 190.15C117.45 166.7 117.45 143.3 117.45 119.85C117.45 117.35 117.4 114.85 117.45 112.3C117.5 111.15 117.1 110.65 115.95 110.7C114.55 110.75 113.1 110.8 111.7 110.75C110.55 110.7 110.15 111.15 110.15 112.3C110.2 117.75 110.15 123.2 110.15 128.6C110.15 145.45 110.15 162.3 110.15 179.1C110.15 180.3 109.8 180.75 108.55 180.75C104.1 180.75 104.1 180.8 104.1 176.35C104.1 160.05 104.1 143.7 104.1 127.4C104.1 122.45 104.05 117.45 104.15 112.5C104.15 111.15 103.75 110.55 102.35 110.65C101.1 110.75 99.8496 110.75 98.5996 110.65C97.1996 110.55 96.7996 111.05 96.7996 112.4C96.8496 118.05 96.7996 123.7 96.8496 129.35C96.8496 130.6 96.4996 131.5 95.5996 132.4C93.7996 134.1 92.0496 135.8 90.3996 137.65C89.8496 138.3 89.4496 139.25 89.3996 140.1C89.2496 141.85 89.2996 143.65 89.3996 145.45C89.4496 146.55 88.9996 146.95 87.9496 146.95C82.3996 147 83.1996 147.55 83.2496 142.4C83.2496 142.25 83.2996 142.1 83.2496 141.95C82.3496 137.65 84.0496 134.45 87.4496 132C90.1996 129.95 91.1496 127.3 90.8496 123.85C90.5496 120.1 90.7496 116.3 90.7996 112.55C90.7996 111.25 90.3996 110.65 88.9996 110.7C86.9996 110.8 84.9996 110.65 83.0496 110.75C81.7996 110.8 81.3996 110.3 81.4496 109.1C81.4996 107.05 81.4496 105 81.4996 103C81.4996 101.8 81.0496 101.3 79.8496 101.35C76.7496 101.4 73.6996 101.3 70.5996 101.35C69.2996 101.4 68.8996 100.9 68.8996 99.5999C68.8996 95.3499 68.8496 95.2999 72.9996 95.2999C75.3496 95.2999 77.6996 95.2499 80.0496 95.2999C81.0996 95.2999 81.5996 94.9499 81.5496 93.8499C81.4996 92.4999 81.4496 91.1499 81.5496 89.7499C81.6496 88.3499 81.0996 87.9499 79.7496 87.9499C72.4496 87.9999 65.0996 87.9499 57.7996 87.9999C54.8496 87.9999 55.2996 87.8999 55.2996 85.5999C55.2496 81.6999 54.6496 81.9499 58.9496 81.9499C65.9496 81.9999 72.9496 81.9499 79.9496 81.9999C81.0996 81.9999 81.5496 81.5499 81.4996 80.3999C81.4496 79.0999 81.4496 77.7999 81.5496 76.4999C81.6496 75.1499 81.1996 74.6499 79.7996 74.6999C72.2496 74.7499 64.7496 74.6999 57.1996 74.7499C55.5496 74.7499 55.1496 74.2999 55.1996 72.6999C55.3496 68.6499 55.2496 68.6499 59.2496 68.6499C65.9996 68.6499 72.7496 68.6499 79.4996 68.6499C81.3996 68.6499 81.4996 68.5499 81.4996 66.5999C81.4996 65.4499 81.3996 64.2999 81.4996 63.1499C81.6496 61.6999 80.9996 61.3499 79.6996 61.3999C76.6496 61.4499 73.6496 61.3499 70.5996 61.4499C69.2996 61.4999 68.7996 60.9999 68.8996 59.6999C68.9496 58.6999 68.9496 57.6999 68.8996 56.6999C68.8496 55.5999 69.3496 55.1999 70.3996 55.2499C73.3996 55.2999 76.3496 55.2499 79.3496 55.2499C81.3996 55.2499 81.4996 55.1999 81.4996 53.1499C81.4996 51.1999 81.5496 49.2999 81.4996 47.3499C81.4496 46.2499 81.8996 45.8499 82.9996 45.8999C85.0496 45.9499 87.0996 45.8499 89.0996 45.8999C90.3996 45.9499 90.8996 45.5499 90.8996 44.1999C90.8496 41.0999 90.8996 38.0499 90.8496 34.9499C90.8496 33.7499 91.2496 33.2999 92.4996 33.2499C96.9996 33.1499 96.9996 33.1499 96.9996 37.5499C96.9996 39.6499 96.9996 41.7499 96.9996 43.7999C96.9996 45.7999 97.0496 45.8499 98.9496 45.8499C100.15 45.8499 101.35 45.7999 102.55 45.8499C103.75 45.8999 104.25 45.4499 104.25 44.1999C104.2 36.5999 104.25 29.0499 104.15 21.4499C104.15 20.0499 104.45 19.4999 105.95 19.4999C110.25 19.5499 110.25 19.4999 110.25 23.7499C110.25 30.4499 110.25 37.1499 110.25 43.8499C110.25 45.7999 110.3 45.8499 112.3 45.7999C113.55 45.7999 114.8 45.7499 116.05 45.7999C117.15 45.8499 117.5 45.3499 117.5 44.2999C117.45 37.0499 117.45 29.7499 117.45 22.4999C117.45 21.8999 117.3 21.2999 117.5 20.7999C117.7 20.2999 118.2 19.5999 118.65 19.5499C119.95 19.3999 121.25 19.3999 122.55 19.5999C122.9 19.6499 123.45 20.3999 123.45 20.7999C123.5 26.1499 123.5 31.4499 123.5 36.7999C123.5 39.2999 123.5 41.7999 123.45 44.3499C123.45 45.4499 123.85 45.8499 124.95 45.7999C126.3 45.7499 127.7 45.6499 129.05 45.7499C130.5 45.8499 130.8 45.1999 130.8 43.8999C130.75 36.6499 130.8 29.3499 130.8 22.0999C130.8 19.9499 130.8 19.9499 132.95 19.9499C140.95 19.9499 148.95 19.9999 156.95 19.8999C158.5 19.8999 158.95 20.3999 158.9 21.8999C158.75 25.9499 158.8 25.9999 154.75 26.0499C149.4 26.0999 144.1 26.0499 138.75 25.9999C137.35 25.9999 136.8 26.3499 136.85 27.8499C136.95 33.3499 136.9 38.8499 136.9 44.2999C136.9 45.3999 137.3 45.7999 138.4 45.7999C140.5 45.7499 142.6 45.8499 144.7 45.7499C145.9 45.6999 146.4 46.0999 146.35 47.3499C146.3 49.3499 146.4 51.3499 146.35 53.2999C146.3 54.6499 146.8 55.1499 148.15 55.1499C151.25 55.0999 154.3 55.1499 157.4 55.0999C158.5 55.0999 158.95 55.4499 158.9 56.5499C158.85 57.6499 158.85 58.7499 158.9 59.8499C158.95 60.9499 158.45 61.2999 157.4 61.2999C154.25 61.2499 151.1 61.2999 148 61.2499C146.8 61.1999 146.3 61.5999 146.35 62.8499C146.45 64.1999 146.4 65.5499 146.3 66.9499C146.25 68.1499 146.7 68.5999 147.95 68.5999C155.5 68.5499 163 68.5999 170.55 68.5499C172.5 68.5499 172.6 68.6499 172.6 70.5499C172.6 70.9999 172.55 71.4999 172.55 71.9499C172.5 74.3499 173.15 74.6499 169.95 74.5999C162.7 74.5999 155.4 74.6499 148.15 74.5999C146.75 74.5999 146.25 75.0499 146.35 76.3999C146.45 77.5999 146.4 78.7999 146.35 79.9999C146.25 81.3999 146.7 81.8999 148.2 81.8999C155.65 81.7999 163.05 81.8499 170.5 81.8499C172.6 81.8499 172.6 81.8499 172.6 83.9499C172.6 87.8499 172.6 87.8499 168.65 87.8499C161.85 87.8499 155.05 87.8999 148.25 87.7999C146.8 87.7999 146.3 88.2499 146.4 89.6499C146.5 90.8999 146.45 92.1499 146.4 93.3999C146.35 94.5999 146.7 95.0999 148 95.0499C151.1 94.9499 154.15 95.0999 157.25 94.9999C158.6 94.9499 159.1 95.3499 159.05 96.7499C158.95 101.1 158.95 101.1 154.6 101.1C152.35 101.1 150.1 101.15 147.85 101.1C146.75 101.05 146.35 101.5 146.4 102.6C146.45 104.75 146.35 106.9 146.4 109.05C146.45 110.2 146.1 110.65 144.9 110.6C142.8 110.5 140.7 110.6 138.65 110.55C137.45 110.5 136.95 110.95 137 112.2C137.05 115.35 137 118.5 137.05 121.6C137.05 122.75 136.7 123.15 135.5 123.15C131 123.2 131 123.25 131 118.65C131 116.45 130.95 114.25 131 112.05C131.05 110.85 130.55 110.45 129.4 110.5C128.05 110.55 126.7 110.55 125.3 110.5C124.1 110.45 123.65 110.8 123.65 112.1C123.7 122.35 123.7 132.6 123.7 142.85C123.5 146.25 123.5 149.35 123.45 152.5C123.5 152.5 123.5 152.5 123.45 152.5ZM140.1 78.1999C140.1 77.4499 140.1 76.7499 140.1 75.9999C140.1 68.4999 140.1 61.0499 140.2 53.5499C140.2 52.2999 139.7 51.8499 138.5 51.8999C137.55 51.9499 136.6 51.9499 135.7 51.9499C120.3 51.9499 104.85 51.8999 89.4496 51.8999C87.4996 51.8999 87.4496 51.9499 87.4496 53.9499C87.4496 70.1499 87.4496 86.3499 87.4496 102.55C87.4496 104.55 87.4996 104.6 89.5996 104.6C95.0496 104.6 100.45 104.55 105.9 104.55C116.75 104.55 127.65 104.55 138.5 104.55C139.6 104.55 140.15 104.25 140.15 103.05C140.1 94.8499 140.1 86.5499 140.1 78.1999Z" fill="#E8565C"/>
<path d="M104.3 6.44995C106.2 6.44995 108.05 6.44995 110.15 6.44995C110.15 8.39995 110.2 10.3 110.1 12.2C110.1 12.45 109.6 12.75 109.3 12.95C109.2 13.05 109 13 108.85 12.95C107.3 12.85 105.8 12.75 104.25 12.65C104.3 10.6 104.3 8.54995 104.3 6.44995Z" fill="#E8565C"/>
<path d="M45.2998 68.65C48.4498 68.65 48.4498 68.65 48.3998 71.8C48.3998 75.2 48.6998 74.7 45.4998 74.75C41.7998 74.8 41.7998 74.75 41.7998 71.2C41.7998 68.65 41.7998 68.65 45.2998 68.65Z" fill="#E8565C"/>
<path d="M182.45 88.05C178.55 88.05 179.35 88.4 179.15 84.85C179.1 84.4 179.15 83.9 179.15 83.45C179.1 82.5 179.5 82 180.55 82C181.95 82.05 183.35 81.95 184.75 82.1C185.15 82.15 185.7 82.8 185.8 83.25C185.95 84.2 185.75 85.25 185.85 86.2C186 87.6 185.5 88.25 184.05 88.1C183.5 88 182.95 88.05 182.45 88.05Z" fill="#E8565C"/>
<path d="M117.45 6.34997C119.3 6.34997 120.9 6.39997 122.45 6.34997C123.3 6.29997 123.5 6.74997 123.5 7.49997C123.5 8.89997 123.45 10.3 123.5 11.75C123.55 12.7 123.1 13.05 122.2 13C121 12.95 119.8 13.1 118.6 12.95C118.2 12.9 117.55 12.35 117.55 12C117.4 10.2 117.45 8.39997 117.45 6.34997Z" fill="#E8565C"/>
<path d="M182.55 68.7C186.3 68.7 185.8 68.5 185.8 72C185.8 74.85 186.3 74.75 183 74.75C179.15 74.75 179.15 74.75 179.15 71.25C179.2 68.7 179.2 68.7 182.55 68.7Z" fill="#E8565C"/>
<path d="M44.9997 88C41.2997 88 41.8997 88.3 41.8497 85C41.7997 81.85 41.1497 82 44.7997 82C48.3997 82 48.3997 82 48.3997 85.5C48.3997 88.1 48.3997 88.1 45.7497 88.05C45.4997 88 45.2497 88 44.9997 88Z" fill="#E8565C"/>
<path d="M110.15 190.9C110.15 194.6 110.5 194.1 106.9 194.15C104.1 194.15 104.1 194.15 104.15 191.35C104.15 186.8 103.75 187.6 107.95 187.55C110.15 187.55 110.15 187.55 110.15 190.9Z" fill="#E8565C"/>
<path d="M100.45 95.1C96.6496 95.05 96.7996 95.7 96.7996 91.8C96.7996 91.5 96.8496 91.15 96.7996 90.85C96.6496 89.4 97.1996 88.65 98.7496 88.9C99.0496 88.95 99.3996 88.9 99.6996 88.9C100.9 89 102.15 89.1 103.35 89.2C103.4 90.9 103.55 92.6 103.5 94.3C103.5 94.55 102.8 95 102.4 95.05C101.6 95.15 100.8 95.1 100.45 95.1Z" fill="#E8565C"/>
<path d="M113.8 88.85C117.3 89 117.2 88.2 117.2 92.4C117.2 92.85 117.2 93.35 117.2 93.8C117.2 94.7 116.75 95.1 115.85 95.1C114.5 95.05 113.15 95.05 111.75 95.05C110.75 95.05 110.35 94.6 110.35 93.6C110.35 92.6 110.35 91.6 110.3 90.6C110.2 89.25 110.7 88.65 112.1 88.75C112.65 88.9 113.25 88.85 113.8 88.85Z" fill="#E8565C"/>
<path d="M127.6 88.9C130.9 88.9 130.9 88.9 130.85 92.25C130.75 95 130.75 95 128.05 95.05C123.3 95.15 124.15 95.3 124.1 91.35C124.05 88.9 124.1 88.9 127.6 88.9Z" fill="#E8565C"/>
<path d="M100.35 61.55C103.5 61.6 103.5 61.6 103.55 64.8C103.55 65.1 103.5 65.45 103.55 65.75C103.75 67.2 103.2 67.95 101.65 67.7C101.45 67.65 101.25 67.7 101.05 67.7C96.5997 67.7 96.0497 67.1 96.8497 62.6C96.8997 62.2 97.4997 61.7 97.8997 61.6C98.6497 61.45 99.4997 61.55 100.35 61.55Z" fill="#E8565C"/>
<path d="M113.8 67.7C110.35 67.9 110.35 67.9 110.35 64.55C110.35 61.25 110.1 61.6 113.45 61.6C117.75 61.6 117.2 61.15 117.15 65.3C117.15 67.65 117.15 67.65 114.7 67.65C114.4 67.7 114.1 67.7 113.8 67.7Z" fill="#E8565C"/>
<path d="M127.55 67.7C123.95 67.65 124.1 68.3 124.1 64.6C124.1 60.9 123.85 61.55 127.2 61.55C131.1 61.6 130.85 60.9 130.85 64.35C130.85 67.7 130.8 67.7 127.55 67.7Z" fill="#E8565C"/>
<path d="M100.3 81.3999C96.1496 81.4999 96.8496 81.6499 96.7996 77.9499C96.7996 77.5499 96.7996 77.0999 96.7996 76.6999C96.6996 75.6999 97.0996 75.2499 98.1496 75.2999C99.4996 75.3499 100.85 75.3499 102.2 75.2999C103.35 75.2499 103.7 75.7499 103.6 76.7999C103.55 77.1999 103.55 77.6499 103.55 78.0499C103.5 81.2999 103.5 81.2999 100.3 81.3999Z" fill="#E8565C"/>
<path d="M113.65 81.35C109.8 81.35 110.4 81.65 110.35 78.15C110.35 75.35 110.35 75.35 113.3 75.35C117.2 75.35 117.2 75.35 117.2 78.9C117.2 81.4 117.2 81.4 114.75 81.4C114.35 81.35 114 81.35 113.65 81.35Z" fill="#E8565C"/>
<path d="M127.4 81.35C124.15 81.35 124.15 81.35 124.05 78.1C124.05 77.7 124.05 77.25 124.05 76.85C124 75.75 124.45 75.2 125.6 75.25C126.9 75.3 128.2 75.35 129.5 75.3C130.45 75.3 130.85 75.65 130.8 76.6C130.8 77.05 130.8 77.55 130.8 78C130.85 81.35 130.85 81.35 127.4 81.35Z" fill="#E8565C"/>
</svg>
