<svg width="200" height="201" viewBox="0 0 200 201" fill="none" xmlns="http://www.w3.org/2000/svg">
<path d="M60.5503 196.15C59.6503 195.75 58.8003 195.3 57.9003 194.9C51.4503 191.95 47.9003 187 47.7003 179.9C47.6003 175.4 47.7003 170.85 47.8003 166.35C47.8503 165 47.4003 164.6 46.0503 164.6C39.6503 164.7 33.2003 164.75 26.8003 164.8C26.1503 164.8 25.4003 164.7 24.8503 164.35C19.5503 161 14.3003 157.6 9.05029 154.2C8.75029 154 8.40029 153.85 7.80029 153.5C9.90029 152.1 11.6003 151 13.2503 149.95C16.5503 147.8 19.9003 145.75 23.1003 143.55C24.6003 142.5 26.1003 142.2 27.8503 142.25C31.9503 142.4 36.0003 142.5 40.1003 142.55C42.1503 142.6 44.2503 142.5 46.3003 142.55C47.5503 142.6 48.0003 142.05 47.9503 140.85C47.8003 136.4 47.6003 131.95 47.5003 127.5C47.4503 124.45 47.4003 121.45 47.4503 118.4C47.4503 105.35 47.5003 92.25 47.5003 79.2C47.5003 69.05 47.5503 58.9 47.5003 48.75C47.5003 39.55 47.4003 30.4001 47.4503 21.2001C47.5003 14.1501 52.8503 7.30005 59.6503 5.60005C61.4003 5.15005 63.3003 4.90005 65.1003 4.90005C89.6503 4.85005 114.2 4.85005 138.75 4.90005C148.1 4.90005 155.8 12.75 155.6 21.5C155.45 27.9 155.55 34.35 155.6 40.75C155.65 49.4 155.7 58.05 155.7 66.7C155.7 74.25 155.55 81.8 155.55 89.3C155.55 100.55 155.6 111.8 155.55 123.1C155.5 128.9 155.3 134.65 155.2 140.45C155.15 142.5 155.25 142.55 157.35 142.55C162.9 142.55 168.4 142.55 173.95 142.55C176.35 142.55 178.7 142.25 181.1 142.3C187.45 142.4 192.15 147.2 192.1 153.45C192.05 159.8 187.25 164.65 180.9 164.65C175.7 164.65 170.5 164.5 165.3 164.5C162.5 164.5 159.65 164.65 156.85 164.65C155.6 164.65 155.35 165.2 155.35 166.3C155.45 170.55 155.5 174.8 155.55 179.05C155.55 187.1 151.05 193.15 143.4 195.6C143.05 195.7 142.8 196 142.5 196.2C115.15 196.15 87.8503 196.15 60.5503 196.15ZM101.65 142.45V142.4C114.25 142.4 126.85 142.4 139.4 142.4C141.95 142.4 144.5 142.45 147.05 142.5C148.35 142.55 148.95 142 148.8 140.7C148.65 139.4 148.5 138.05 148.45 136.75C148.4 133.15 148.4 129.55 148.35 125.9C148.3 115.7 148.25 105.55 148.2 95.35C148.15 88.25 148.15 81.15 148.15 74C148.15 64.4 148.2 54.8 148.25 45.1501C148.25 43.9501 147.85 43.6 146.7 43.6C135.25 43.6 123.75 43.55 112.3 43.55C103.75 43.55 95.2003 43.6501 86.6503 43.6501C76.7003 43.6501 66.8003 43.5 56.8503 43.4501C54.8503 43.4501 54.8003 43.5 54.8003 45.5C54.8503 58.05 54.9503 70.55 55.0003 83.1C55.0503 91.65 54.9503 100.2 54.9503 108.7C54.9503 114.25 55.0503 119.85 54.9503 125.4C54.9003 130.35 54.6003 135.25 54.4503 140.2C54.4003 142.25 54.5503 142.4 56.5503 142.4C71.5503 142.45 86.6003 142.45 101.65 142.45ZM101.5 36.1C109.4 36.1 117.35 36.1 125.25 36.1C132.4 36.1 139.6 36.1001 146.75 36.1501C147.9 36.1501 148.4 35.85 148.3 34.6C148.2 33 148.25 31.4 148.2 29.8C148.15 26.65 148.3 23.5 147.95 20.4C147.4 15.2 144.1 12.2 138.85 12C133.5 11.9 128.15 12 122.8 12C110.7 12 98.6003 12.1 86.5003 12.1C79.4003 12.1 72.2503 12.05 65.1503 12.05C62.6003 12.05 60.2503 12.6 58.2003 14.35C55.7003 16.5 55.1003 19.35 55.0503 22.35C54.9503 26.5 55.0003 30.6 54.9003 34.75C54.9003 35.85 55.2503 36.1 56.2503 36.1C71.3503 36.1 86.4003 36.1 101.5 36.1ZM101.55 164.65C93.2003 164.65 84.9003 164.65 76.5503 164.65C69.7003 164.65 62.8503 164.65 56.0003 164.7C55.5503 164.7 54.7003 165.4 54.7003 165.75C54.7003 170.4 54.7503 175.1 54.9503 179.75C55.0503 181.95 55.7503 183.95 57.2503 185.7C59.6003 188.4 62.7003 189 66.0003 189C77.3503 189 88.7003 189 100.1 189C106.6 189 113.05 189 119.55 189C126.15 189 132.7 189.05 139.3 188.85C144.55 188.7 148.2 184.9 148.35 179.65C148.5 175.2 148.5 170.75 148.65 166.3C148.7 165.05 148.25 164.6 147 164.6C143.75 164.65 140.5 164.6 137.3 164.6C125.3 164.65 113.4 164.65 101.55 164.65ZM21.1003 153.45C23.6503 155 25.8003 156.4 28.0003 157.7C28.2503 157.85 28.6003 157.75 28.9503 157.75C31.1503 157.7 33.3503 157.6 35.5003 157.6C79.4003 157.6 123.3 157.6 167.15 157.6C167.8 157.6 168.5 157.6 169.15 157.6C169.15 154.65 169.15 151.9 169.15 149C168.4 149 167.7 149 167.05 149C123.5 149 79.9003 149 36.3503 149C34.9503 149 33.6003 148.85 32.2003 148.9C30.6503 148.95 28.9503 148.7 27.6503 149.3C25.5003 150.25 23.6003 151.8 21.1003 153.45ZM176.6 153.25C176.7 158.15 176.8 158.3 181.45 157.65C181.8 157.6 182.2 157.5 182.5 157.35C184.6 156.5 185.75 154 184.9 152C183.85 149.45 181.35 148.25 177.6 149.15C175.5 149.65 177.05 151.8 176.55 153.1C176.6 153.15 176.6 153.2 176.6 153.25Z" fill="#E8565C"/>
<path d="M26.1004 43.7001C21.6004 43.7001 17.1004 43.6501 12.6004 43.7001C11.3504 43.7001 10.8504 43.3 11.0004 42.05C11.1504 40.65 11.1504 39.2 11.1004 37.75C11.0504 36.55 11.5004 36.1501 12.6504 36.1501C15.5504 36.1501 18.5004 36.1 21.4004 36.1C27.3004 36.1 33.2004 36.05 39.0504 36.05C41.4504 36.05 41.4504 36.0501 41.4004 38.4001C41.4004 39.5501 41.4004 40.7501 41.4504 41.9001C41.5004 43.1501 40.9504 43.6501 39.6004 43.6501C35.1004 43.6001 30.6004 43.6501 26.1004 43.6501C26.1004 43.6501 26.1004 43.6501 26.1004 43.7001Z" fill="#E8565C"/>
<path d="M177.15 114.05C181.75 114.05 186.4 114 191 114.1C191.4 114.1 192.1 114.8 192.1 115.25C192.2 116.95 192.1 118.65 192.1 120.35C192.1 121.5 191.35 121.55 190.5 121.55C182.95 121.55 175.4 121.55 167.85 121.55C166.35 121.55 164.85 121.55 163.4 121.6C162.25 121.65 161.7 121.2 161.7 120.05C161.7 118.6 161.75 117.2 161.7 115.75C161.65 114.5 162.2 114.1 163.4 114.1C168 114.15 172.6 114.1 177.15 114.05Z" fill="#E8565C"/>
<path d="M28.5004 95.4501C23.3004 95.4501 18.1004 95.4001 12.9004 95.5001C11.4504 95.5001 10.8504 95.0501 11.0004 93.6001C11.1004 92.3001 11.1004 90.9501 11.0504 89.6001C11.0504 88.6001 11.3504 88.1001 12.4004 88.1501C14.2504 88.1501 16.1004 88.1001 17.9504 88.1001C25.1504 88.1001 32.3504 88.1501 39.6004 88.1501C40.8504 88.1501 41.5004 88.5001 41.4004 89.9001C41.3004 91.3001 41.3004 92.6501 41.4004 94.0501C41.4504 95.2001 41.0004 95.5501 39.9004 95.5501C36.1504 95.4001 32.3004 95.4501 28.5004 95.4501Z" fill="#E8565C"/>
<path d="M176.9 62.2001C181.45 62.2001 186.05 62.2501 190.6 62.2001C191.8 62.2001 192.25 62.6001 192.2 63.7501C192.15 65.2001 192.15 66.6001 192.2 68.0501C192.2 69.1501 191.7 69.5001 190.65 69.5001C181.55 69.5001 172.5 69.5001 163.4 69.5501C162.15 69.5501 161.65 69.1001 161.7 67.9001C161.75 66.5501 161.8 65.2501 161.7 63.9001C161.6 62.6001 162.05 62.1001 163.4 62.1501C167.9 62.2501 172.4 62.2001 176.9 62.2001Z" fill="#E8565C"/>
<path d="M34.3004 108.65C31.8004 108.65 29.3004 108.6 26.8504 108.65C25.8004 108.65 25.4004 108.25 25.4504 107.25C25.5004 105.65 25.5004 104.05 25.5004 102.45C25.5004 101.5 25.8504 101.1 26.8004 101.1C31.2004 101.1 35.6004 101.1 40.0504 101.05C41.2504 101.05 41.7004 101.55 41.7004 102.65C41.6504 104.3 41.7504 105.95 41.5004 107.55C41.4504 108 40.5004 108.55 39.9504 108.6C38.1004 108.75 36.2504 108.65 34.3504 108.65C34.3004 108.7 34.3004 108.65 34.3004 108.65Z" fill="#E8565C"/>
<path d="M169.6 43.7001C167.55 43.7001 165.45 43.6501 163.4 43.7001C162.2 43.7501 161.6 43.2501 161.65 42.0501C161.7 40.5001 161.75 39.0001 161.75 37.4501C161.75 36.4001 162.3 36.1001 163.25 36.1001C167.55 36.1501 171.85 36.2001 176.15 36.2501C177.1 36.2501 177.6 36.6001 177.6 37.6501C177.55 39.1501 177.6 40.6001 177.65 42.1001C177.7 43.0501 177.35 43.6001 176.3 43.6001C174.05 43.6001 171.85 43.6001 169.6 43.6001C169.6 43.6501 169.6 43.6501 169.6 43.7001Z" fill="#E8565C"/>
<path d="M33.4505 113.95C35.5005 113.95 37.6005 114 39.6505 113.95C40.8005 113.9 41.5005 114.3 41.4505 115.55C41.4005 117.2 41.4505 118.85 41.3505 120.45C41.3005 120.85 40.6505 121.45 40.3005 121.45C35.8505 121.5 31.4005 121.45 26.9505 121.45C26.1005 121.45 25.6005 121.1 25.6005 120.1C25.6005 118.6 25.6005 117.15 25.5005 115.65C25.4505 114.45 26.0505 114.05 27.1505 114.05C29.2505 114.1 31.4005 114.05 33.5005 114.05C33.5005 114.05 33.4505 114 33.4505 113.95Z" fill="#E8565C"/>
<path d="M169.75 56.6501C167.6 56.6501 165.4 56.6001 163.25 56.6501C162.05 56.7001 161.5 56.25 161.55 55C161.65 53.55 161.65 52.1501 161.65 50.7001C161.65 49.4501 162.15 49.05 163.4 49.05C167.65 49.1 171.9 49.05 176.1 49.05C177.2 49.05 177.8 49.5001 177.8 50.6501C177.8 52.1501 177.75 53.6 177.8 55.1C177.85 56.2 177.35 56.6 176.3 56.55C174.15 56.5 171.95 56.55 169.8 56.55C169.75 56.55 169.75 56.6001 169.75 56.6501Z" fill="#E8565C"/>
<path d="M33.3503 56.55C31.2003 56.55 29.0003 56.5 26.8503 56.55C25.8503 56.55 25.4503 56.15 25.4503 55.15C25.5003 53.55 25.4003 51.95 25.3503 50.4C25.3003 49.5 25.7003 49 26.6503 49C31.1503 49.1 35.6503 49.15 40.1503 49.3C40.5503 49.3 41.2503 50 41.3003 50.45C41.4503 51.95 41.4003 53.5 41.4503 55.05C41.5003 56.15 40.9503 56.55 39.9003 56.55C37.7003 56.5 35.5003 56.5 33.3503 56.55Z" fill="#E8565C"/>
<path d="M169.8 101.15C171.9 101.15 174.05 101.2 176.15 101.15C177.2 101.15 177.7 101.5 177.65 102.6C177.6 104.1 177.7 105.55 177.75 107.05C177.8 108.25 177.25 108.65 176.15 108.65C171.95 108.6 167.8 108.5 163.6 108.55C162.1 108.55 161.65 108 161.7 106.6C161.75 105.35 161.7 104.05 161.6 102.8C161.55 101.6 162 101.05 163.25 101.1C165.45 101.15 167.65 101.1 169.8 101.15Z" fill="#E8565C"/>
<path d="M35.0003 69.7001C32.3003 69.7001 29.6003 69.7001 26.9003 69.7001C25.9003 69.7001 25.4003 69.4001 25.4003 68.3501C25.4003 66.7001 25.3503 65.0501 25.5003 63.4501C25.5503 63.0001 26.3003 62.2501 26.7003 62.2501C31.2003 62.1501 35.7003 62.2001 40.2003 62.3001C40.6003 62.3001 41.2503 63.0001 41.2503 63.4001C41.4003 64.8501 41.2503 66.3501 41.3003 67.8501C41.3503 69.0001 40.9003 69.5001 39.7003 69.4501C38.1003 69.4001 36.5003 69.4501 34.9503 69.4501C35.0003 69.5501 35.0003 69.6501 35.0003 69.7001Z" fill="#E8565C"/>
<path d="M169.65 95.4C167.55 95.4 165.4 95.35 163.3 95.4C162.3 95.4 161.85 95.1 161.85 94.05C161.85 92.6 161.8 91.2 161.8 89.75C161.8 88.75 162.25 88.25 163.35 88.25C167.6 88.25 171.8 88.2 176.05 88.15C177.05 88.15 177.65 88.45 177.65 89.6C177.6 91 177.6 92.45 177.7 93.85C177.75 95.2 177.05 95.4 175.9 95.4C173.8 95.35 171.7 95.4 169.65 95.4Z" fill="#E8565C"/>
<path d="M18.6001 82.6501C16.8001 82.6501 15.0001 82.6001 13.2001 82.6501C11.6501 82.7001 10.9001 82.2501 11.1001 80.6001C11.2501 79.2501 11.1501 77.8501 11.1001 76.4501C11.0501 75.4001 11.4001 74.9001 12.5501 74.9501C16.5001 75.0001 20.4001 75.0001 24.3501 75.0001C25.5001 75.0001 26.0001 75.5001 25.9501 76.6501C25.9001 78.2001 25.9001 79.7501 25.9501 81.2501C25.9501 82.2501 25.5501 82.7001 24.5001 82.6501C22.5001 82.6001 20.5501 82.6501 18.6001 82.6501Z" fill="#E8565C"/>
<path d="M184.6 82.5001C182.7 82.5001 180.8 82.4501 178.9 82.5001C177.9 82.5001 177.45 82.1001 177.45 81.1001C177.45 79.5501 177.4 78.0501 177.4 76.5001C177.4 75.6001 177.8 75.1501 178.75 75.1501C182.8 75.1501 186.8 75.1501 190.85 75.1001C191.75 75.1001 192.05 75.5001 192.05 76.3501C192.05 77.9501 192 79.5501 192.05 81.1001C192.05 82.0501 191.65 82.4001 190.7 82.3501C188.7 82.3001 186.65 82.3501 184.65 82.3501C184.6 82.4001 184.6 82.4501 184.6 82.5001Z" fill="#E8565C"/>
<path d="M118.85 80.05C118.85 81.8 118.85 83.55 118.85 85.3C118.85 86.35 118.45 86.85 117.35 86.85C113.75 86.85 110.15 86.9 106.55 86.95C105.35 87 104.95 86.45 104.95 85.3C104.95 81.75 104.9 78.2 104.9 74.65C104.9 73.5 105.35 72.8 106.6 72.8C110.1 72.8 113.6 72.85 117.1 72.85C118.55 72.85 119.05 73.55 118.95 74.95C118.85 76.65 118.95 78.35 118.95 80.05C118.85 80.05 118.85 80.05 118.85 80.05Z" fill="#E8565C"/>
<path d="M77.7503 100.45C77.7503 102.25 77.7003 104.05 77.7503 105.85C77.8003 106.9 77.4503 107.45 76.3003 107.45C72.6503 107.45 68.9503 107.45 65.3003 107.5C64.2003 107.5 63.6503 107 63.6503 105.85C63.6503 102.25 63.6503 98.6501 63.6003 95.0001C63.6003 93.9501 64.1003 93.4501 65.1503 93.4501C68.8503 93.5001 72.6003 93.5001 76.3003 93.5001C77.2503 93.5001 77.7503 93.9501 77.7003 94.9501C77.7003 96.8501 77.7503 98.6501 77.7503 100.45Z" fill="#E8565C"/>
<path d="M118.85 59.45C118.85 61.2 118.8 62.95 118.85 64.7C118.9 65.75 118.55 66.3 117.45 66.3C113.75 66.3 110.05 66.3 106.3 66.3C105.45 66.3 105 66 105 65.1C104.95 61.45 104.9 57.8 104.8 54.15C104.75 52.95 105.25 52.4 106.5 52.4C110.05 52.45 113.6 52.45 117.15 52.4C118.45 52.4 118.95 52.95 118.9 54.2C118.85 55.95 118.9 57.7 118.9 59.45H118.85Z" fill="#E8565C"/>
<path d="M132.4 66.2501C130.55 66.2501 128.7 66.2501 126.85 66.2501C125.95 66.2501 125.55 65.9001 125.5 64.9001C125.5 61.4501 125.35 58.0001 125.3 54.5501C125.3 52.5501 125.55 52.3501 127.5 52.3501C130.85 52.3501 134.2 52.3501 137.55 52.3501C139.2 52.3501 139.55 52.7501 139.55 54.4501C139.5 57.9001 139.35 61.3501 139.35 64.8001C139.35 65.9001 138.9 66.3001 137.85 66.3001C136.05 66.2501 134.25 66.3001 132.4 66.2501Z" fill="#E8565C"/>
<path d="M91.3503 107.5C89.5503 107.5 87.7503 107.5 85.9503 107.5C84.8503 107.5 84.2503 107.15 84.3003 105.95C84.3503 102.3 84.3503 98.65 84.3503 95C84.3503 94.05 84.8003 93.6 85.7003 93.6C89.5003 93.6 93.3503 93.55 97.1503 93.65C97.5003 93.65 98.2003 94.35 98.2003 94.7C98.3003 98.6 98.3003 102.55 98.2003 106.45C98.2003 106.8 97.3003 107.4 96.8003 107.45C94.9503 107.55 93.1503 107.5 91.3503 107.5Z" fill="#E8565C"/>
<path d="M84.5504 81.05C84.4504 79 84.3504 76.95 84.2504 74.85C84.2004 73.6 84.6004 72.8 86.0004 72.8C89.5504 72.85 93.1004 72.95 96.6504 72.95C97.8004 72.95 98.2504 73.45 98.2504 74.55C98.2004 78.2 98.2504 81.85 98.2504 85.5C98.2504 86.35 97.9504 86.95 97.0004 86.95C93.4004 86.95 89.8004 86.85 86.2004 86.85C84.9504 86.85 84.4004 86.3 84.4504 85C84.5504 83.7 84.4504 82.35 84.4504 81C84.4504 81.05 84.5004 81.05 84.5504 81.05Z" fill="#E8565C"/>
<path d="M135.95 86.85C132.85 86.85 129.8 86.9 126.7 86.8C126.3 86.8 125.55 86.1 125.55 85.7C125.45 82 125.45 78.3 125.4 74.55C125.4 73.4 125.9 72.9 127.05 72.9C128.8 72.95 130.55 72.95 132.3 72.95C134.1 72.95 135.9 72.85 137.7 72.8C138.8 72.8 139.45 73.3 139.45 74.4C139.4 78.15 139.4 81.95 139.25 85.7C139.25 86.1 138.6 86.65 138.15 86.75C137.5 87 136.7 86.85 135.95 86.85Z" fill="#E8565C"/>
<path d="M91.3002 66.25C89.4502 66.25 87.6002 66.25 85.7502 66.25C84.8502 66.25 84.4002 65.95 84.4002 64.95C84.4002 61.45 84.3002 57.95 84.2502 54.45C84.2502 52.55 84.5002 52.35 86.3502 52.4C89.6502 52.45 92.9002 52.45 96.2002 52.4C97.6502 52.4 98.3502 52.85 98.3002 54.4C98.2002 57.95 98.2502 61.5 98.1002 65.05C98.1002 65.45 97.3002 66.15 96.8502 66.2C95.0002 66.35 93.1502 66.25 91.3002 66.25Z" fill="#E8565C"/>
<path d="M70.9002 86.9001C69.1002 86.9001 67.3002 86.8501 65.5002 86.9001C64.2502 86.9501 63.8002 86.3001 63.8002 85.1501C63.8002 81.6501 63.8002 78.1501 63.7502 74.6501C63.7502 73.5001 64.1002 72.8501 65.4002 72.8501C68.9502 72.9001 72.5002 73.0001 76.0502 73.0001C77.2502 73.0001 77.8002 73.4001 77.8002 74.6501C77.7002 78.2501 77.6502 81.8501 77.6002 85.4501C77.6002 86.4001 77.1002 86.7501 76.2002 86.7501C74.4502 86.7501 72.7002 86.7501 70.9502 86.7501C70.9002 86.8001 70.9002 86.8501 70.9002 86.9001Z" fill="#E8565C"/>
<path d="M70.7003 66.2501C68.9003 66.2501 67.1003 66.2501 65.3003 66.2501C64.3503 66.2501 63.8003 65.9501 63.8003 64.8501C63.8503 61.1001 63.8003 57.3001 63.9503 53.5501C63.9503 53.2001 64.6503 52.5501 65.0503 52.5501C68.8003 52.5001 72.6003 52.5501 76.3503 52.5501C77.2003 52.5501 77.6003 52.9001 77.6003 53.8001C77.6003 57.5001 77.6503 61.2501 77.7503 64.9501C77.7503 66.0001 77.1503 66.2001 76.3003 66.2001C74.4003 66.2501 72.5503 66.2501 70.7003 66.2501Z" fill="#E8565C"/>
<path d="M119.5 131.45C119.5 134.85 119.5 134.85 116.2 135.15C112.2 135.5 111.8 135.2 111.95 131.25C112.1 127.55 111.3 127.9 115.55 127.7C119.5 127.5 119.5 127.6 119.5 131.45Z" fill="#E8565C"/>
<path d="M87.5002 135.05C83.7502 135.1 83.7502 135.1 83.7002 131.5C83.7002 131.25 83.7002 130.95 83.7002 130.7C83.7002 127.65 83.8002 127.6 86.8002 127.7C87.1502 127.7 87.5502 127.75 87.9002 127.8C91.1502 128 91.1502 128 91.2002 131.25C91.2002 134.95 91.2002 134.95 87.5002 135.05Z" fill="#E8565C"/>
<path d="M101.65 135.05C97.8502 135.05 97.8002 135.05 97.8502 131.3C97.9002 127.55 97.1502 127.8 101.45 127.8C105.95 127.8 105.2 127.4 105.25 131.6C105.3 135.05 105.3 135.05 101.65 135.05Z" fill="#E8565C"/>
<path d="M100.75 20.4501C104.7 20.4501 104.7 20.4501 104.7 24.3001C104.7 28.5001 105.05 28.0001 100.95 28.0001C96.4504 27.9501 96.9504 28.8501 96.9504 24.0001C96.9004 20.4501 96.9504 20.4501 100.75 20.4501Z" fill="#E8565C"/>
<path d="M100.75 180.55C96.0004 180.55 91.3004 180.5 86.5504 180.55C85.3004 180.55 84.8004 180.2 84.9504 178.9C85.0504 177.6 85.0504 176.25 85.0504 174.9C85.0504 173.95 85.3504 173.45 86.4004 173.45C96.0004 173.45 105.65 173.45 115.25 173.45C116.2 173.45 116.6 173.9 116.6 174.8C116.6 176.2 116.6 177.55 116.65 178.95C116.7 180.1 116.3 180.55 115.1 180.55C110.3 180.5 105.5 180.55 100.75 180.55Z" fill="#E8565C"/>
</svg>
