<svg width="192" height="192" viewBox="0 0 192 192" fill="none" xmlns="http://www.w3.org/2000/svg">
<path d="M0 93.55C0.25 73.4 7.5 53.1 22 35.45C30.65 24.9 41.15 16.6 53.4 10.5C62.85 5.79996 72.8 2.74996 83.3 1.39996C103.75 -1.20004 123.1 2.44996 141.25 12.2C142.65 12.95 143.95 13.75 145.3 14.55C146.65 15.35 147.95 15.05 148.75 13.65C150 11.45 151.3 9.24996 152.55 7.04996C153.15 6.04996 153.9 5.39996 155.1 5.54996C156.3 5.69996 156.95 6.44996 157.25 7.59996C159.15 14.55 161.05 21.45 162.95 28.4C163.4 30 162.75 31.15 161.15 31.6C154.15 33.45 147.1 35.25 140.1 37.1C139 37.4 138.05 37.15 137.35 36.25C136.65 35.35 136.7 34.4 137.3 33.45C138.6 31.25 139.85 29.05 141.1 26.85C142 25.3 141.7 24.15 140.15 23.25C130 17.1 119.05 13.1 107.3 11.6C83.95 8.59996 62.75 14.1 43.95 28.25C28.25 40.05 18.05 55.75 12.95 74.75C10.35 84.4 9.6 94.25 10.55 104.2C11.8 117.15 15.75 129.2 22.45 140.4C23.2 141.7 23.95 143 24.05 144.55C24.15 146.4 23.55 147.95 21.95 149C20.35 150.05 18.7 150.05 17.05 149.15C15.75 148.45 14.85 147.35 14.1 146.1C11.4 141.65 9.05 137 7.05 132.2C2.4 120.7 0.05 108.7 0 93.55Z" fill="#E8565C"/>
<path d="M95.8001 191.95C89.2001 191.95 82.6501 191.3 76.2001 189.9C65.5001 187.65 55.4501 183.65 46.1001 177.95C44.7001 177.1 43.4001 177.45 42.6001 178.85C41.3001 181.1 40.0001 183.35 38.7001 185.6C38.1501 186.55 37.4001 187.05 36.3001 186.95C35.2501 186.85 34.5001 186.15 34.1501 185C32.2501 178 30.3001 171 28.4001 164.05C27.9501 162.45 28.6001 161.3 30.1501 160.9C37.2001 159.05 44.2501 157.2 51.3001 155.4C52.5001 155.1 53.6001 155.55 54.2001 156.55C54.6501 157.35 54.5501 158.2 54.1001 158.95C52.8001 161.15 51.5001 163.4 50.2501 165.65C49.3501 167.15 49.6501 168.3 51.1501 169.25C61.6501 175.65 73.0001 179.65 85.2001 181.1C105.7 183.55 124.7 179.15 142.1 168.05C154.7 160 164.4 149.2 171.35 135.95C176.35 126.45 179.45 116.3 180.6 105.6C182.3 89.9 179.85 74.85 173.25 60.5C171.85 57.45 170.1 54.55 168.5 51.6C167.8 50.3 167.2 48.95 167.25 47.45C167.4 43.75 171.2 41.65 174.4 43.5C175.6 44.2 176.45 45.25 177.2 46.4C183.1 56.05 187.2 66.45 189.5 77.55C190.95 84.8 191.6 92.1 191.35 99.45C190.85 113.1 187.65 126.05 181.6 138.3C174.4 152.85 164.15 164.85 150.95 174.3C139.55 182.4 127 187.75 113.25 190.35C107.45 191.4 101.65 191.95 95.8001 191.95Z" fill="#E8565C"/>
<path d="M95.65 156.45C94.4 156.45 93.1499 156.45 91.9499 156.45C91.1499 156.45 91.0499 156.35 90.9499 155.6C90.6499 152.9 90.3999 150.2 90.0999 147.5C89.8499 145.1 89.5999 142.75 89.3499 140.35C89.25 139.2 88.55 138.45 87.3 138.2C82.45 137.25 77.95 135.5 73.75 133C73.0999 132.6 72.5 132.2 71.9 131.8C70.8 131.1 69.8499 131.1 68.8499 131.95C64.9999 135.1 61.15 138.25 57.2999 141.35C57.15 141.45 57.05 141.55 56.9 141.7C56.5 142 56.1999 141.95 55.8499 141.6C54.0499 139.75 52.25 137.95 50.4 136.15C49.95 135.7 49.9999 135.4 50.3499 134.95C51.4499 133.6 52.55 132.25 53.65 130.9C55.75 128.3 57.8499 125.75 59.9499 123.15C60.7999 122.1 60.8499 121.15 60.0999 120C56.9999 115.3 54.85 110.25 53.75 104.75C53.45 103.25 52.7999 102.7 51.25 102.55C46.3 102.05 41.35 101.55 36.4 101.05C35.55 100.95 35.45 100.85 35.45 99.9999C35.45 97.4999 35.45 94.9999 35.45 92.4999C35.45 91.7499 35.5499 91.5999 36.2999 91.5499C40.1999 91.1499 44.05 90.7499 47.95 90.3499C49.15 90.2499 50.3499 90.0999 51.5499 89.9999C52.6999 89.8999 53.45 89.2499 53.65 88.0999C54.75 82.4499 56.95 77.1999 60.15 72.3999C60.8 71.4499 60.6999 70.4499 59.9499 69.4999C56.8999 65.7499 53.7999 61.9499 50.75 58.1999C50.55 57.9999 50.4 57.7499 50.2 57.4999C49.9 57.0999 49.9 56.7999 50.2999 56.4499C52.0999 54.6499 53.9 52.8499 55.75 51.0499C56.2999 50.4999 56.4499 50.4999 57.0499 50.9999C59.5999 53.0499 62.1 55.1499 64.65 57.1999C66.05 58.3499 67.4499 59.4999 68.8499 60.5999C69.8499 61.3999 70.8 61.4499 71.9 60.7499C76.6 57.5999 81.75 55.4499 87.3 54.3499C88.65 54.0999 89.25 53.3499 89.4 51.9999C89.9 46.9999 90.3999 41.9999 90.9499 36.9999C91.0499 36.2499 91.1499 36.1499 91.9499 36.1499C94.4499 36.1499 96.9499 36.1499 99.4499 36.1499C100.25 36.1499 100.35 36.2499 100.45 36.9999C100.9 41.2499 101.3 45.4999 101.75 49.7499C101.85 50.4999 101.9 51.2499 102 51.9999C102.15 53.3999 102.75 54.0999 104.1 54.3999C108.5 55.2499 112.6 56.7999 116.5 58.9499C117.5 59.4999 118.5 60.1499 119.45 60.7499C120.55 61.4499 121.5 61.3999 122.55 60.5999C126.45 57.4499 130.3 54.2499 134.2 51.0999C134.95 50.4999 135.05 50.4999 135.7 51.1499C137.45 52.8999 139.2 54.5999 140.9 56.3499C141.5 56.9499 141.5 57.0499 140.95 57.6999C137.8 61.5999 134.6 65.4499 131.45 69.3499C130.5 70.4999 130.5 71.3499 131.3 72.5999C134.4 77.2999 136.5 82.3999 137.6 87.8999C137.85 89.1999 138.6 89.8499 139.95 89.9999C144.95 90.4999 150 90.9999 155 91.5499C155.75 91.6499 155.85 91.7499 155.85 92.4999C155.85 94.9999 155.85 97.5499 155.85 100.05C155.85 100.8 155.75 100.95 154.95 101C151.8 101.35 148.65 101.65 145.5 101.95C143.6 102.15 141.65 102.35 139.75 102.55C138.6 102.65 137.9 103.35 137.65 104.55C137 107.95 135.95 111.25 134.45 114.35C133.5 116.3 132.35 118.15 131.25 120C130.55 121.2 130.55 122.1 131.4 123.15C134.55 127 137.7 130.85 140.8 134.7C141.45 135.55 141.45 135.55 140.7 136.3C139 138 137.3 139.7 135.6 141.4C134.95 142.05 134.85 142.1 134.1 141.5C130.25 138.35 126.4 135.2 122.55 132.1C121.4 131.15 120.5 131.1 119.25 131.95C114.6 135.05 109.55 137.1 104.05 138.25C102.6 138.55 102.05 139.2 101.9 140.7C101.4 145.65 100.9 150.65 100.4 155.6C100.3 156.4 100.2 156.5 99.4 156.5C98.15 156.45 96.9 156.45 95.65 156.45ZM95.75 60.9999C76.25 60.9999 60.45 76.7499 60.4 96.2499C60.35 115.7 76.2 131.6 95.5999 131.6C115.15 131.6 130.95 115.8 131 96.2999C131 76.8499 115.2 60.9999 95.75 60.9999Z" fill="#E8565C"/>
<path d="M74.2501 96.35C74.5001 96.5 74.7001 96.65 74.8501 96.8C79.5001 101.45 84.1001 106.05 88.7501 110.7C89.2001 111.15 89.6001 111.65 89.6501 112.35C89.7001 113.3 89.2001 114.15 88.4001 114.6C87.5001 115 86.5001 114.85 85.7501 114.15C84.1501 112.55 82.55 110.95 80.95 109.35C77.2 105.6 73.45 101.85 69.7 98.1C68.5 96.9 68.5 95.6 69.7 94.45C75 89.15 80.3 83.85 85.6 78.55C86.2001 77.95 86.9001 77.6 87.8001 77.75C88.6501 77.9 89.3001 78.4 89.5501 79.25C89.8501 80.15 89.65 80.95 88.95 81.65C87.65 82.95 86.3501 84.25 85.0501 85.55C81.6001 89 78.15 92.45 74.7 95.9C74.6 96 74.5001 96.1 74.2501 96.35Z" fill="#E8565C"/>
<path d="M117.15 96.3C115.7 94.85 114.3 93.5 112.95 92.15C109.45 88.7 106 85.2 102.5 81.75C101.65 80.9 101.45 79.8 102 78.85C102.8 77.5 104.5 77.35 105.65 78.5C108 80.85 110.35 83.2 112.7 85.55C115.65 88.5 118.65 91.4999 121.6 94.4499C122.8 95.65 122.8 96.9 121.6 98.1C116.3 103.4 111 108.7 105.7 114C104.9 114.8 103.9 115.05 102.95 114.6C102.1 114.2 101.5 113.25 101.7 112.35C101.8 111.8 102.1 111.2 102.5 110.8C107.15 106.1 111.85 101.45 116.5 96.75C116.7 96.6 116.9 96.5 117.15 96.3Z" fill="#E8565C"/>
<path d="M91.2499 116.25C91.5499 113.55 91.8499 110.75 92.1499 107.9C92.8499 101.55 93.4999 95.15 94.1999 88.8C94.6499 84.45 95.1499 80.05 95.5999 75.7C95.7499 74.4 96.7999 73.5 98.0499 73.6C99.2999 73.7 100.2 74.75 100.1 76.1C99.8499 78.85 99.5499 81.6 99.2499 84.35C98.5999 90.4 97.9499 96.45 97.2999 102.45C96.7999 107.2 96.2999 111.95 95.7999 116.7C95.6499 118.05 94.5999 118.95 93.3499 118.8C92.0499 118.8 91.1999 117.75 91.2499 116.25Z" fill="#E8565C"/>
</svg>
