<svg width="240" height="256" viewBox="0 0 240 256" fill="none" xmlns="http://www.w3.org/2000/svg">
<mask id="path-1-inside-1_453_2262" fill="white">
<path d="M15.9578 187.895C15.5837 187.906 15.2153 187.996 14.8736 188.16C14.532 188.325 14.2237 188.56 13.9666 188.852C13.7094 189.145 13.5083 189.489 13.3748 189.865C13.2413 190.241 13.1781 190.642 13.1886 191.045V241.499C13.1781 241.902 13.2413 242.302 13.3748 242.679C13.5083 243.055 13.7094 243.399 13.9666 243.692C14.2237 243.984 14.532 244.219 14.8736 244.383C15.2153 244.548 15.5837 244.638 15.9578 244.649H63.1658C63.8979 244.591 64.5809 244.231 65.0723 243.644C65.5637 243.057 65.8255 242.289 65.8031 241.499V191.045C65.8255 190.255 65.5637 189.487 65.0723 188.9C64.5809 188.313 63.8979 187.953 63.1658 187.895H15.9578ZM14.1644 173.706H62.3218C66.1434 173.781 69.7813 175.484 72.4367 178.443C75.092 181.401 76.5478 185.372 76.4842 189.484V240.222C76.5478 244.334 75.092 248.305 72.4367 251.264C69.7813 254.222 66.1434 255.925 62.3218 256H14.1644C10.3428 255.925 6.70491 254.222 4.04956 251.264C1.39422 248.305 -0.0615232 244.334 0.00199461 240.222V189.484C-0.0615232 185.372 1.39422 181.401 4.04956 178.443C6.70491 175.484 10.3428 173.781 14.1644 173.706ZM15.9578 99.9258C15.5837 99.9368 15.2153 100.027 14.8736 100.191C14.532 100.356 14.2237 100.591 13.9666 100.883C13.7094 101.176 13.5083 101.52 13.3748 101.896C13.2413 102.272 13.1781 102.673 13.1886 103.076V153.53C13.1781 153.933 13.2413 154.333 13.3748 154.71C13.5083 155.086 13.7094 155.43 13.9666 155.723C14.2237 156.015 14.532 156.25 14.8736 156.414C15.2153 156.579 15.5837 156.669 15.9578 156.68H63.1658C63.8979 156.622 64.5809 156.262 65.0723 155.675C65.5637 155.088 65.8255 154.32 65.8031 153.53V103.076C65.8255 102.286 65.5637 101.518 65.0723 100.931C64.5809 100.344 63.8979 99.984 63.1658 99.9258H15.9578ZM14.1644 85.7373H62.3218C66.1434 85.8119 69.7813 87.5153 72.4367 90.4735C75.092 93.4317 76.5478 97.4028 76.4842 101.515V152.253C76.5478 156.365 75.092 160.336 72.4367 163.295C69.7813 166.253 66.1434 167.956 62.3218 168.031H14.1644C10.3428 167.956 6.70491 166.253 4.04956 163.295C1.39422 160.336 -0.0615232 156.365 0.00199461 152.253V101.515C-0.0615232 97.4028 1.39422 93.4317 4.04956 90.4735C6.70491 87.5153 10.3428 85.8119 14.1644 85.7373ZM15.9578 11.9568C15.5837 11.9678 15.2153 12.0581 14.8736 12.2224C14.532 12.3866 14.2237 12.6218 13.9666 12.9143C13.7094 13.2068 13.5083 13.551 13.3748 13.9272C13.2413 14.3034 13.1781 14.7042 13.1886 15.1067V65.5611C13.1781 65.9636 13.2413 66.3644 13.3748 66.7406C13.5083 67.1168 13.7094 67.461 13.9666 67.7535C14.2237 68.046 14.532 68.2812 14.8736 68.4454C15.2153 68.6097 15.5837 68.7 15.9578 68.711H63.1658C63.8979 68.6529 64.5809 68.2928 65.0723 67.7059C65.5637 67.119 65.8255 66.3507 65.8031 65.5611V15.1067C65.8255 14.3171 65.5637 13.5488 65.0723 12.9619C64.5809 12.375 63.8979 12.0149 63.1658 11.9568H15.9578ZM14.1644 0.605957H62.3218C66.1434 0.680575 69.7813 2.384 72.4367 5.3422C75.092 8.30039 76.5478 12.2715 76.4842 16.3836V67.1219C76.5478 71.234 75.092 75.2051 72.4367 78.1633C69.7813 81.1215 66.1434 82.8249 62.3218 82.8996H14.1644C10.3428 82.8249 6.70491 81.1215 4.04956 78.1633C1.39422 75.2051 -0.0615232 71.234 0.00199461 67.1219V16.3836C-0.0615232 12.2715 1.39422 8.30039 4.04956 5.3422C6.70491 2.384 10.3428 0.680575 14.1644 0.605957V0.605957ZM97.7147 187.895C96.9825 187.953 96.2995 188.313 95.8081 188.9C95.3168 189.487 95.0549 190.255 95.0773 191.045V241.499C95.0549 242.289 95.3168 243.057 95.8081 243.644C96.2995 244.231 96.9825 244.591 97.7147 244.649H144.923C145.655 244.591 146.338 244.231 146.829 243.644C147.321 243.057 147.582 242.289 147.56 241.499V191.045C147.582 190.255 147.321 189.487 146.829 188.9C146.338 188.313 145.655 187.953 144.923 187.895H97.7147ZM95.9213 173.706H144.079C147.9 173.781 151.538 175.484 154.194 178.443C156.849 181.401 158.305 185.372 158.241 189.484V240.222C158.305 244.334 156.849 248.305 154.194 251.264C151.538 254.222 147.9 255.925 144.079 256H95.9213C92.0997 255.925 88.4618 254.222 85.8064 251.264C83.1511 248.305 81.6954 244.334 81.7589 240.222V189.484C81.6954 185.372 83.1511 181.401 85.8064 178.443C88.4618 175.484 92.0997 173.781 95.9213 173.706ZM97.7147 99.9258C96.9825 99.984 96.2995 100.344 95.8081 100.931C95.3168 101.518 95.0549 102.286 95.0773 103.076V153.53C95.0549 154.32 95.3168 155.088 95.8081 155.675C96.2995 156.262 96.9825 156.622 97.7147 156.68H144.923C145.655 156.622 146.338 156.262 146.829 155.675C147.321 155.088 147.582 154.32 147.56 153.53V103.076C147.582 102.286 147.321 101.518 146.829 100.931C146.338 100.344 145.655 99.984 144.923 99.9258H97.7147ZM95.9213 85.7373H144.079C147.9 85.8119 151.538 87.5153 154.194 90.4735C156.849 93.4317 158.305 97.4028 158.241 101.515V152.253C158.305 156.365 156.849 160.336 154.194 163.295C151.538 166.253 147.9 167.956 144.079 168.031H95.9213C92.0997 167.956 88.4618 166.253 85.8064 163.295C83.1511 160.336 81.6954 156.365 81.7589 152.253V101.515C81.6954 97.4028 83.1511 93.4317 85.8064 90.4735C88.4618 87.5153 92.0997 85.8119 95.9213 85.7373ZM97.7147 11.9568C96.9825 12.0149 96.2995 12.375 95.8081 12.9619C95.3168 13.5488 95.0549 14.3171 95.0773 15.1067V65.5611C95.0549 66.3507 95.3168 67.119 95.8081 67.7059C96.2995 68.2928 96.9825 68.6529 97.7147 68.711H144.923C145.655 68.6529 146.338 68.2928 146.829 67.7059C147.321 67.119 147.582 66.3507 147.56 65.5611V15.1067C147.582 14.3171 147.321 13.5488 146.829 12.9619C146.338 12.375 145.655 12.0149 144.923 11.9568H97.7147ZM95.9213 0.605957H144.079C147.9 0.680575 151.538 2.384 154.194 5.3422C156.849 8.30039 158.305 12.2715 158.241 16.3836V67.1219C158.305 71.234 156.849 75.2051 154.194 78.1633C151.538 81.1215 147.9 82.8249 144.079 82.8996H95.9213C92.0997 82.8249 88.4618 81.1215 85.8064 78.1633C83.1511 75.2051 81.6954 71.234 81.7589 67.1219V16.3836C81.6954 12.2715 83.1511 8.30039 85.8064 5.3422C88.4618 2.384 92.0997 0.680575 95.9213 0.605957V0.605957ZM176.834 187.895C176.102 187.953 175.419 188.313 174.928 188.9C174.436 189.487 174.175 190.255 174.197 191.045V241.499C174.175 242.289 174.436 243.057 174.928 243.644C175.419 244.231 176.102 244.591 176.834 244.649H224.042C224.774 244.591 225.457 244.231 225.949 243.644C226.44 243.057 226.702 242.289 226.68 241.499V191.045C226.702 190.255 226.44 189.487 225.949 188.9C225.457 188.313 224.774 187.953 224.042 187.895H176.834ZM177.678 173.706H225.836C229.657 173.781 233.295 175.484 235.95 178.443C238.606 181.401 240.062 185.372 239.998 189.484V240.222C240.062 244.334 238.606 248.305 235.95 251.264C233.295 254.222 229.657 255.925 225.836 256H177.678C173.857 255.925 170.219 254.222 167.563 251.264C164.908 248.305 163.452 244.334 163.516 240.222V189.484C163.452 185.372 164.908 181.401 167.563 178.443C170.219 175.484 173.857 173.781 177.678 173.706ZM176.834 99.9258C176.102 99.984 175.419 100.344 174.928 100.931C174.436 101.518 174.175 102.286 174.197 103.076V153.53C174.175 154.32 174.436 155.088 174.928 155.675C175.419 156.262 176.102 156.622 176.834 156.68H224.042C224.774 156.622 225.457 156.262 225.949 155.675C226.44 155.088 226.702 154.32 226.68 153.53V103.076C226.702 102.286 226.44 101.518 225.949 100.931C225.457 100.344 224.774 99.984 224.042 99.9258H176.834ZM177.678 85.7373H225.836C229.657 85.8119 233.295 87.5153 235.95 90.4735C238.606 93.4317 240.062 97.4028 239.998 101.515V152.253C240.062 156.365 238.606 160.336 235.95 163.295C233.295 166.253 229.657 167.956 225.836 168.031H177.678C173.857 167.956 170.219 166.253 167.563 163.295C164.908 160.336 163.452 156.365 163.516 152.253V101.515C163.452 97.4028 164.908 93.4317 167.563 90.4735C170.219 87.5153 173.857 85.8119 177.678 85.7373ZM176.834 11.9568C176.102 12.0149 175.419 12.375 174.928 12.9619C174.436 13.5488 174.175 14.3171 174.197 15.1067V65.5611C174.175 66.3507 174.436 67.119 174.928 67.7059C175.419 68.2928 176.102 68.6529 176.834 68.711H224.042C224.774 68.6529 225.457 68.2928 225.949 67.7059C226.44 67.119 226.702 66.3507 226.68 65.5611V15.1067C226.702 14.3171 226.44 13.5488 225.949 12.9619C225.457 12.375 224.774 12.0149 224.042 11.9568H176.834ZM177.678 0.605957H225.836C229.657 0.680575 233.295 2.384 235.95 5.3422C238.606 8.30039 240.062 12.2715 239.998 16.3836V67.1219C240.062 71.234 238.606 75.2051 235.95 78.1633C233.295 81.1215 229.657 82.8249 225.836 82.8996H177.678C173.857 82.8249 170.219 81.1215 167.563 78.1633C164.908 75.2051 163.452 71.234 163.516 67.1219V16.3836C163.452 12.2715 164.908 8.30039 167.563 5.3422C170.219 2.384 173.857 0.680575 177.678 0.605957V0.605957Z"/>
</mask>
<path d="M15.9578 187.895C15.5837 187.906 15.2153 187.996 14.8736 188.16C14.532 188.325 14.2237 188.56 13.9666 188.852C13.7094 189.145 13.5083 189.489 13.3748 189.865C13.2413 190.241 13.1781 190.642 13.1886 191.045V241.499C13.1781 241.902 13.2413 242.302 13.3748 242.679C13.5083 243.055 13.7094 243.399 13.9666 243.692C14.2237 243.984 14.532 244.219 14.8736 244.383C15.2153 244.548 15.5837 244.638 15.9578 244.649H63.1658C63.8979 244.591 64.5809 244.231 65.0723 243.644C65.5637 243.057 65.8255 242.289 65.8031 241.499V191.045C65.8255 190.255 65.5637 189.487 65.0723 188.9C64.5809 188.313 63.8979 187.953 63.1658 187.895H15.9578ZM14.1644 173.706H62.3218C66.1434 173.781 69.7813 175.484 72.4367 178.443C75.092 181.401 76.5478 185.372 76.4842 189.484V240.222C76.5478 244.334 75.092 248.305 72.4367 251.264C69.7813 254.222 66.1434 255.925 62.3218 256H14.1644C10.3428 255.925 6.70491 254.222 4.04956 251.264C1.39422 248.305 -0.0615232 244.334 0.00199461 240.222V189.484C-0.0615232 185.372 1.39422 181.401 4.04956 178.443C6.70491 175.484 10.3428 173.781 14.1644 173.706ZM15.9578 99.9258C15.5837 99.9368 15.2153 100.027 14.8736 100.191C14.532 100.356 14.2237 100.591 13.9666 100.883C13.7094 101.176 13.5083 101.52 13.3748 101.896C13.2413 102.272 13.1781 102.673 13.1886 103.076V153.53C13.1781 153.933 13.2413 154.333 13.3748 154.71C13.5083 155.086 13.7094 155.43 13.9666 155.723C14.2237 156.015 14.532 156.25 14.8736 156.414C15.2153 156.579 15.5837 156.669 15.9578 156.68H63.1658C63.8979 156.622 64.5809 156.262 65.0723 155.675C65.5637 155.088 65.8255 154.32 65.8031 153.53V103.076C65.8255 102.286 65.5637 101.518 65.0723 100.931C64.5809 100.344 63.8979 99.984 63.1658 99.9258H15.9578ZM14.1644 85.7373H62.3218C66.1434 85.8119 69.7813 87.5153 72.4367 90.4735C75.092 93.4317 76.5478 97.4028 76.4842 101.515V152.253C76.5478 156.365 75.092 160.336 72.4367 163.295C69.7813 166.253 66.1434 167.956 62.3218 168.031H14.1644C10.3428 167.956 6.70491 166.253 4.04956 163.295C1.39422 160.336 -0.0615232 156.365 0.00199461 152.253V101.515C-0.0615232 97.4028 1.39422 93.4317 4.04956 90.4735C6.70491 87.5153 10.3428 85.8119 14.1644 85.7373ZM15.9578 11.9568C15.5837 11.9678 15.2153 12.0581 14.8736 12.2224C14.532 12.3866 14.2237 12.6218 13.9666 12.9143C13.7094 13.2068 13.5083 13.551 13.3748 13.9272C13.2413 14.3034 13.1781 14.7042 13.1886 15.1067V65.5611C13.1781 65.9636 13.2413 66.3644 13.3748 66.7406C13.5083 67.1168 13.7094 67.461 13.9666 67.7535C14.2237 68.046 14.532 68.2812 14.8736 68.4454C15.2153 68.6097 15.5837 68.7 15.9578 68.711H63.1658C63.8979 68.6529 64.5809 68.2928 65.0723 67.7059C65.5637 67.119 65.8255 66.3507 65.8031 65.5611V15.1067C65.8255 14.3171 65.5637 13.5488 65.0723 12.9619C64.5809 12.375 63.8979 12.0149 63.1658 11.9568H15.9578ZM14.1644 0.605957H62.3218C66.1434 0.680575 69.7813 2.384 72.4367 5.3422C75.092 8.30039 76.5478 12.2715 76.4842 16.3836V67.1219C76.5478 71.234 75.092 75.2051 72.4367 78.1633C69.7813 81.1215 66.1434 82.8249 62.3218 82.8996H14.1644C10.3428 82.8249 6.70491 81.1215 4.04956 78.1633C1.39422 75.2051 -0.0615232 71.234 0.00199461 67.1219V16.3836C-0.0615232 12.2715 1.39422 8.30039 4.04956 5.3422C6.70491 2.384 10.3428 0.680575 14.1644 0.605957V0.605957ZM97.7147 187.895C96.9825 187.953 96.2995 188.313 95.8081 188.9C95.3168 189.487 95.0549 190.255 95.0773 191.045V241.499C95.0549 242.289 95.3168 243.057 95.8081 243.644C96.2995 244.231 96.9825 244.591 97.7147 244.649H144.923C145.655 244.591 146.338 244.231 146.829 243.644C147.321 243.057 147.582 242.289 147.56 241.499V191.045C147.582 190.255 147.321 189.487 146.829 188.9C146.338 188.313 145.655 187.953 144.923 187.895H97.7147ZM95.9213 173.706H144.079C147.9 173.781 151.538 175.484 154.194 178.443C156.849 181.401 158.305 185.372 158.241 189.484V240.222C158.305 244.334 156.849 248.305 154.194 251.264C151.538 254.222 147.9 255.925 144.079 256H95.9213C92.0997 255.925 88.4618 254.222 85.8064 251.264C83.1511 248.305 81.6954 244.334 81.7589 240.222V189.484C81.6954 185.372 83.1511 181.401 85.8064 178.443C88.4618 175.484 92.0997 173.781 95.9213 173.706ZM97.7147 99.9258C96.9825 99.984 96.2995 100.344 95.8081 100.931C95.3168 101.518 95.0549 102.286 95.0773 103.076V153.53C95.0549 154.32 95.3168 155.088 95.8081 155.675C96.2995 156.262 96.9825 156.622 97.7147 156.68H144.923C145.655 156.622 146.338 156.262 146.829 155.675C147.321 155.088 147.582 154.32 147.56 153.53V103.076C147.582 102.286 147.321 101.518 146.829 100.931C146.338 100.344 145.655 99.984 144.923 99.9258H97.7147ZM95.9213 85.7373H144.079C147.9 85.8119 151.538 87.5153 154.194 90.4735C156.849 93.4317 158.305 97.4028 158.241 101.515V152.253C158.305 156.365 156.849 160.336 154.194 163.295C151.538 166.253 147.9 167.956 144.079 168.031H95.9213C92.0997 167.956 88.4618 166.253 85.8064 163.295C83.1511 160.336 81.6954 156.365 81.7589 152.253V101.515C81.6954 97.4028 83.1511 93.4317 85.8064 90.4735C88.4618 87.5153 92.0997 85.8119 95.9213 85.7373ZM97.7147 11.9568C96.9825 12.0149 96.2995 12.375 95.8081 12.9619C95.3168 13.5488 95.0549 14.3171 95.0773 15.1067V65.5611C95.0549 66.3507 95.3168 67.119 95.8081 67.7059C96.2995 68.2928 96.9825 68.6529 97.7147 68.711H144.923C145.655 68.6529 146.338 68.2928 146.829 67.7059C147.321 67.119 147.582 66.3507 147.56 65.5611V15.1067C147.582 14.3171 147.321 13.5488 146.829 12.9619C146.338 12.375 145.655 12.0149 144.923 11.9568H97.7147ZM95.9213 0.605957H144.079C147.9 0.680575 151.538 2.384 154.194 5.3422C156.849 8.30039 158.305 12.2715 158.241 16.3836V67.1219C158.305 71.234 156.849 75.2051 154.194 78.1633C151.538 81.1215 147.9 82.8249 144.079 82.8996H95.9213C92.0997 82.8249 88.4618 81.1215 85.8064 78.1633C83.1511 75.2051 81.6954 71.234 81.7589 67.1219V16.3836C81.6954 12.2715 83.1511 8.30039 85.8064 5.3422C88.4618 2.384 92.0997 0.680575 95.9213 0.605957V0.605957ZM176.834 187.895C176.102 187.953 175.419 188.313 174.928 188.9C174.436 189.487 174.175 190.255 174.197 191.045V241.499C174.175 242.289 174.436 243.057 174.928 243.644C175.419 244.231 176.102 244.591 176.834 244.649H224.042C224.774 244.591 225.457 244.231 225.949 243.644C226.44 243.057 226.702 242.289 226.68 241.499V191.045C226.702 190.255 226.44 189.487 225.949 188.9C225.457 188.313 224.774 187.953 224.042 187.895H176.834ZM177.678 173.706H225.836C229.657 173.781 233.295 175.484 235.95 178.443C238.606 181.401 240.062 185.372 239.998 189.484V240.222C240.062 244.334 238.606 248.305 235.95 251.264C233.295 254.222 229.657 255.925 225.836 256H177.678C173.857 255.925 170.219 254.222 167.563 251.264C164.908 248.305 163.452 244.334 163.516 240.222V189.484C163.452 185.372 164.908 181.401 167.563 178.443C170.219 175.484 173.857 173.781 177.678 173.706ZM176.834 99.9258C176.102 99.984 175.419 100.344 174.928 100.931C174.436 101.518 174.175 102.286 174.197 103.076V153.53C174.175 154.32 174.436 155.088 174.928 155.675C175.419 156.262 176.102 156.622 176.834 156.68H224.042C224.774 156.622 225.457 156.262 225.949 155.675C226.44 155.088 226.702 154.32 226.68 153.53V103.076C226.702 102.286 226.44 101.518 225.949 100.931C225.457 100.344 224.774 99.984 224.042 99.9258H176.834ZM177.678 85.7373H225.836C229.657 85.8119 233.295 87.5153 235.95 90.4735C238.606 93.4317 240.062 97.4028 239.998 101.515V152.253C240.062 156.365 238.606 160.336 235.95 163.295C233.295 166.253 229.657 167.956 225.836 168.031H177.678C173.857 167.956 170.219 166.253 167.563 163.295C164.908 160.336 163.452 156.365 163.516 152.253V101.515C163.452 97.4028 164.908 93.4317 167.563 90.4735C170.219 87.5153 173.857 85.8119 177.678 85.7373ZM176.834 11.9568C176.102 12.0149 175.419 12.375 174.928 12.9619C174.436 13.5488 174.175 14.3171 174.197 15.1067V65.5611C174.175 66.3507 174.436 67.119 174.928 67.7059C175.419 68.2928 176.102 68.6529 176.834 68.711H224.042C224.774 68.6529 225.457 68.2928 225.949 67.7059C226.44 67.119 226.702 66.3507 226.68 65.5611V15.1067C226.702 14.3171 226.44 13.5488 225.949 12.9619C225.457 12.375 224.774 12.0149 224.042 11.9568H176.834ZM177.678 0.605957H225.836C229.657 0.680575 233.295 2.384 235.95 5.3422C238.606 8.30039 240.062 12.2715 239.998 16.3836V67.1219C240.062 71.234 238.606 75.2051 235.95 78.1633C233.295 81.1215 229.657 82.8249 225.836 82.8996H177.678C173.857 82.8249 170.219 81.1215 167.563 78.1633C164.908 75.2051 163.452 71.234 163.516 67.1219V16.3836C163.452 12.2715 164.908 8.30039 167.563 5.3422C170.219 2.384 173.857 0.680575 177.678 0.605957V0.605957Z" stroke="#5A98FD" stroke-width="4" mask="url(#path-1-inside-1_453_2262)"/>
</svg>
