<svg width="240" height="237" viewBox="0 0 240 237" fill="none" xmlns="http://www.w3.org/2000/svg">
<mask id="path-1-inside-1_453_2256" fill="white">
<path d="M43.3678 171.14L37.0046 165.728L41.263 158.582C36.2413 155.14 31.939 150.617 28.628 145.299C25.317 139.982 23.0692 133.985 22.0265 127.688C19.8755 115.393 22.3508 102.685 28.9102 92.345C35.4697 82.0051 45.5788 74.8764 57.0242 72.52L48.9478 35.9251C44.724 35.8974 40.6816 34.0786 37.7018 30.8652C34.7219 27.6519 33.0462 23.3044 33.0398 18.7704C33.0074 16.2224 33.5092 13.6991 34.508 11.3873C35.5068 9.07556 36.9771 7.03444 38.8101 5.41501C40.643 3.79557 42.7918 2.63927 45.0973 2.03166C47.4029 1.42404 49.8062 1.38066 52.1294 1.90474C55.8025 2.78454 59.078 5.00353 61.3984 8.18397C63.7187 11.3644 64.9406 15.3097 64.8559 19.3484V20.0314L152.497 54.4721L153.035 55.05C154.259 53.0375 155.862 51.3229 157.742 50.0169C159.621 48.711 161.735 47.8428 163.946 47.4684C166.158 47.0941 168.418 47.2219 170.58 47.8436C172.743 48.4653 174.76 49.5671 176.501 51.0778C178.242 52.5885 179.669 54.4745 180.689 56.6139C181.709 58.7534 182.299 61.0986 182.422 63.4982C182.544 65.8978 182.197 68.2983 181.401 70.5446C180.605 72.791 179.38 74.8332 177.803 76.5394C177.803 76.616 177.831 76.6895 177.882 76.7437C177.932 76.7979 178.001 76.8283 178.072 76.8283L202.057 114.999C202.326 115.288 202.326 115.288 202.326 115.577C204.422 114.497 206.672 113.804 208.983 113.528V66.793H216.325V113.528C221.931 114.468 227.138 117.215 231.255 121.405C235.373 125.594 238.206 131.029 239.379 136.988C240.172 140.905 240.206 144.956 239.477 148.888C238.749 152.82 237.274 156.549 235.145 159.843C232.782 163.554 229.671 166.645 226.042 168.887C222.413 171.13 218.36 172.466 214.184 172.796C210.009 173.127 205.817 172.444 201.921 170.797C198.025 169.15 194.525 166.583 191.68 163.285C191.68 163.574 191.411 163.574 191.141 163.863L139.991 193.286H139.501C140.772 197.156 140.733 201.384 139.391 205.227C138.048 209.07 135.488 212.283 132.159 214.302C130.355 215.376 128.371 216.055 126.32 216.298C124.27 216.542 122.195 216.346 120.216 215.721C117.799 214.974 115.576 213.635 113.724 211.808C111.872 209.981 110.441 207.717 109.543 205.195C108.646 202.673 108.308 199.961 108.554 197.274C108.801 194.587 109.626 191.999 110.965 189.713L88.4487 158.188C82.6135 162.253 75.9475 164.74 69.0212 165.436C62.095 166.131 55.1149 165.014 48.6786 162.181L43.3678 171.14ZM159.08 62.8524C158.66 64.1324 158.527 65.501 158.692 66.8467C158.858 68.1924 159.317 69.4771 160.033 70.5962C160.748 71.7152 161.7 72.6369 162.811 73.2862C163.921 73.9356 165.159 74.2941 166.423 74.3326C167.85 74.3252 169.25 73.9133 170.481 73.1385C171.712 72.3637 172.73 71.2535 173.433 69.9204C174.136 68.5872 174.499 67.0784 174.484 65.5467C174.469 64.0149 174.077 62.5145 173.349 61.1974C172.725 59.967 171.801 58.9425 170.676 58.2342C169.55 57.526 168.266 57.1608 166.961 57.178C165.269 57.1673 163.613 57.7026 162.208 58.7144C160.803 59.7262 159.713 61.1679 159.08 62.8524ZM48.0423 28.149C49.1257 28.1655 50.2007 27.942 51.2 27.4924C52.1993 27.0429 53.1015 26.377 53.8503 25.5363C54.599 24.6956 55.1782 23.6981 55.5517 22.6063C55.9251 21.5145 56.0848 20.3518 56.0208 19.1908C55.8911 17.0612 55.0363 15.0572 53.6192 13.5603C52.2021 12.0635 50.3217 11.1782 48.336 11.0732C47.253 11.0117 46.1699 11.1901 45.1539 11.5973C44.1379 12.0044 43.2109 12.6316 42.4304 13.4398C41.6499 14.2481 41.0327 15.22 40.6171 16.2952C40.2016 17.3705 39.9966 18.526 40.0149 19.6899C39.9982 20.8252 40.1947 21.9524 40.5926 23.0044C40.9904 24.0564 41.5815 25.0117 42.3306 25.8134C43.0797 26.615 43.9714 27.2465 44.9527 27.6704C45.934 28.0942 46.9847 28.3017 48.0423 28.2804V28.149ZM56.29 35.531L57.6116 35.2421L65.6146 73.1242C73.4741 73.1321 81.1884 75.3968 87.9577 79.6835C94.727 83.9703 100.305 90.1229 104.112 97.5033L151.591 68.8684C151.37 67.9334 151.279 66.9684 151.322 66.0049V64.271H150.808L62.9959 29.4625C61.2967 32.0832 58.9836 34.1764 56.29 35.531ZM71.317 158.188C78.6621 156.874 85.4411 153.129 90.7066 147.477C95.9721 141.825 99.461 134.548 100.686 126.664C101.616 120.573 101.183 114.333 99.4208 108.458C97.659 102.583 94.6197 97.243 90.5541 92.8789C86.4886 88.5149 81.5136 85.2525 76.0406 83.3614C70.5676 81.4703 64.7538 81.0049 59.08 82.0036C51.7334 83.3145 44.9526 87.0583 39.6864 92.711C34.4203 98.3637 30.9326 105.642 29.7113 113.528C28.7752 119.62 29.2049 125.863 30.9646 131.74C32.7244 137.618 35.7636 142.961 39.8305 147.326C43.8974 151.692 48.8749 154.954 54.3505 156.843C59.8261 158.732 65.6422 159.193 71.317 158.188ZM125.16 208.969C126.745 208.985 128.299 208.496 129.626 207.564C130.953 206.632 131.993 205.3 132.616 203.734C133.238 202.169 133.414 200.441 133.123 198.768C132.831 197.095 132.084 195.552 130.977 194.334C129.87 193.116 128.451 192.278 126.9 191.924C125.349 191.57 123.735 191.718 122.262 192.347C120.789 192.977 119.523 194.061 118.623 195.462C117.723 196.863 117.23 198.519 117.206 200.221C117.186 201.356 117.379 202.484 117.774 203.537C118.169 204.591 118.757 205.548 119.504 206.352C120.251 207.156 121.141 207.791 122.121 208.218C123.101 208.645 124.151 208.856 125.209 208.838L125.16 208.969ZM137.054 187.086L188.18 157.531C186.282 153.535 185.276 149.119 185.243 144.633L107.857 131.497C105.691 140.376 101.258 148.428 95.0567 154.747L117.083 185.431C120.038 183.525 123.495 182.719 126.92 183.137C130.345 183.555 133.545 185.174 136.026 187.743C136.295 187.454 136.564 187.454 136.834 187.165L137.054 187.086ZM185.219 136.016C186.891 129.931 190.234 124.529 194.812 120.516L170.803 82.0036C170.657 81.8483 170.562 81.645 170.534 81.4257C167.443 82.6716 164.059 82.8155 160.885 81.836C157.712 80.8566 154.916 78.8059 152.913 75.9877L105.678 104.754C107.298 109.637 108.125 114.782 108.126 119.965V122.828L185.219 135.963V136.016ZM233.016 147.68C233.691 143.193 233.023 138.592 231.108 134.539C229.194 130.485 226.131 127.187 222.361 125.119C218.59 123.051 214.306 122.32 210.124 123.03C205.942 123.74 202.078 125.855 199.086 129.072C196.094 132.288 194.129 136.439 193.474 140.929C192.819 145.419 193.506 150.017 195.438 154.061C197.37 158.105 200.447 161.388 204.226 163.437C208.006 165.486 212.293 166.196 216.472 165.465C220.611 164.717 224.429 162.602 227.395 159.414C230.361 156.226 232.326 152.124 233.016 147.68ZM66.9851 237H0V172.532H9.61825V214.118C16.0304 210.388 22.4181 206.395 28.8303 202.664V214.906C35.2424 211.176 41.6546 207.025 48.0668 203.426V214.906C54.4545 211.176 60.8666 207.445 67.2788 203.426C67.0096 214.617 67.0096 225.809 67.0096 237H66.9851ZM89.0116 111.637C85.8191 108.155 82.0081 105.395 77.8042 103.523C73.6003 101.65 69.0891 100.702 64.5377 100.735C60.0141 100.693 55.5297 101.637 51.3564 103.511C47.1831 105.385 43.4078 108.15 40.2596 111.637L37.3227 108.484C40.8971 104.596 45.1554 101.509 49.8504 99.402C54.5454 97.2949 59.5835 96.2099 64.6723 96.2099C69.7612 96.2099 74.7993 97.2949 79.4943 99.402C84.1893 101.509 88.4475 104.596 92.0219 108.484L89.0851 111.637H89.0116ZM84.484 116.497C83.4382 117.483 82.4569 118.545 81.5471 119.676C79.3687 117.264 76.7527 115.358 73.8608 114.074C70.9688 112.791 67.8624 112.158 64.7335 112.215C61.5679 112.154 58.4274 112.827 55.5259 114.187C52.6244 115.547 50.0301 117.562 47.9199 120.096C47.0095 118.966 46.0282 117.904 44.9831 116.917C47.5109 114.05 50.5508 111.759 53.9213 110.18C57.2919 108.602 60.9242 107.768 64.6014 107.729C68.2787 107.69 71.9257 108.446 75.3248 109.952C78.724 111.459 81.8057 113.684 84.3861 116.497H84.484ZM77.1418 124.536C76.0966 125.513 75.1153 126.566 74.2049 127.688C68.062 121.961 61.6498 121.961 55.5068 127.688L52.57 124.536C54.163 122.808 56.0593 121.437 58.1493 120.501C60.2392 119.565 62.4812 119.083 64.7458 119.083C67.0103 119.083 69.2523 119.565 71.3422 120.501C73.4322 121.437 75.3285 122.808 76.9215 124.536H77.1418ZM235.268 0.853917C235.918 1.12044 236.522 1.5023 237.054 1.98355C237.52 2.53143 237.789 3.23907 237.813 3.98011V39.9708C237.867 40.4952 237.804 41.0257 237.629 41.5189C237.455 42.0121 237.174 42.4539 236.81 42.808C236.296 43.3859 235.782 43.3859 235.268 43.6749H188.009C187.527 43.6547 187.056 43.5164 186.632 43.2705C186.207 43.0246 185.841 42.6777 185.561 42.2563C185.297 41.8312 185.129 41.3452 185.072 40.8377V3.40216C185.344 2.9815 185.513 2.49333 185.561 1.98355C185.97 1.33018 186.561 0.833314 187.25 0.564941C203.134 0.853917 219.017 0.853917 235.268 0.853917ZM189.771 4.92585V35.8726H233.016V4.92585H189.771ZM207.049 43.5961H216.129V50.2425C216.129 50.2425 219.066 53.684 221.024 53.9204H224.499C225.845 53.684 226.628 55.1289 226.09 56.5475C225.845 57.0992 225.331 57.4144 224.768 56.5475H200.295C199.487 57.4669 198.948 57.178 198.41 56.311C197.872 55.4441 200.025 53.973 200.025 53.973H203.134C203.134 53.973 206.854 52.2916 206.584 49.7171V45.0672C207.123 44.8045 207.123 44.8045 207.123 44.5156L207.049 43.5961ZM65.1006 141.743C64.3637 141.746 63.6335 141.593 62.952 141.292C62.2706 140.991 61.6515 140.548 61.1304 139.989C60.6093 139.429 60.1966 138.765 59.9161 138.033C59.6356 137.302 59.4929 136.518 59.4961 135.727C59.4961 134.131 60.0866 132.601 61.1376 131.473C62.1887 130.345 63.6142 129.711 65.1006 129.711C66.587 129.711 68.0126 130.345 69.0636 131.473C70.1147 132.601 70.7051 134.131 70.7051 135.727C70.7051 137.322 70.1147 138.853 69.0636 139.981C68.0126 141.109 66.587 141.743 65.1006 141.743ZM44.0531 171.586L46.2068 173.32L44.0531 171.586ZM34.2635 163.258L44.0531 171.586L34.2635 163.258Z"/>
</mask>
<path d="M43.3678 171.14L37.0046 165.728L41.263 158.582C36.2413 155.14 31.939 150.617 28.628 145.299C25.317 139.982 23.0692 133.985 22.0265 127.688C19.8755 115.393 22.3508 102.685 28.9102 92.345C35.4697 82.0051 45.5788 74.8764 57.0242 72.52L48.9478 35.9251C44.724 35.8974 40.6816 34.0786 37.7018 30.8652C34.7219 27.6519 33.0462 23.3044 33.0398 18.7704C33.0074 16.2224 33.5092 13.6991 34.508 11.3873C35.5068 9.07556 36.9771 7.03444 38.8101 5.41501C40.643 3.79557 42.7918 2.63927 45.0973 2.03166C47.4029 1.42404 49.8062 1.38066 52.1294 1.90474C55.8025 2.78454 59.078 5.00353 61.3984 8.18397C63.7187 11.3644 64.9406 15.3097 64.8559 19.3484V20.0314L152.497 54.4721L153.035 55.05C154.259 53.0375 155.862 51.3229 157.742 50.0169C159.621 48.711 161.735 47.8428 163.946 47.4684C166.158 47.0941 168.418 47.2219 170.58 47.8436C172.743 48.4653 174.76 49.5671 176.501 51.0778C178.242 52.5885 179.669 54.4745 180.689 56.6139C181.709 58.7534 182.299 61.0986 182.422 63.4982C182.544 65.8978 182.197 68.2983 181.401 70.5446C180.605 72.791 179.38 74.8332 177.803 76.5394C177.803 76.616 177.831 76.6895 177.882 76.7437C177.932 76.7979 178.001 76.8283 178.072 76.8283L202.057 114.999C202.326 115.288 202.326 115.288 202.326 115.577C204.422 114.497 206.672 113.804 208.983 113.528V66.793H216.325V113.528C221.931 114.468 227.138 117.215 231.255 121.405C235.373 125.594 238.206 131.029 239.379 136.988C240.172 140.905 240.206 144.956 239.477 148.888C238.749 152.82 237.274 156.549 235.145 159.843C232.782 163.554 229.671 166.645 226.042 168.887C222.413 171.13 218.36 172.466 214.184 172.796C210.009 173.127 205.817 172.444 201.921 170.797C198.025 169.15 194.525 166.583 191.68 163.285C191.68 163.574 191.411 163.574 191.141 163.863L139.991 193.286H139.501C140.772 197.156 140.733 201.384 139.391 205.227C138.048 209.07 135.488 212.283 132.159 214.302C130.355 215.376 128.371 216.055 126.32 216.298C124.27 216.542 122.195 216.346 120.216 215.721C117.799 214.974 115.576 213.635 113.724 211.808C111.872 209.981 110.441 207.717 109.543 205.195C108.646 202.673 108.308 199.961 108.554 197.274C108.801 194.587 109.626 191.999 110.965 189.713L88.4487 158.188C82.6135 162.253 75.9475 164.74 69.0212 165.436C62.095 166.131 55.1149 165.014 48.6786 162.181L43.3678 171.14ZM159.08 62.8524C158.66 64.1324 158.527 65.501 158.692 66.8467C158.858 68.1924 159.317 69.4771 160.033 70.5962C160.748 71.7152 161.7 72.6369 162.811 73.2862C163.921 73.9356 165.159 74.2941 166.423 74.3326C167.85 74.3252 169.25 73.9133 170.481 73.1385C171.712 72.3637 172.73 71.2535 173.433 69.9204C174.136 68.5872 174.499 67.0784 174.484 65.5467C174.469 64.0149 174.077 62.5145 173.349 61.1974C172.725 59.967 171.801 58.9425 170.676 58.2342C169.55 57.526 168.266 57.1608 166.961 57.178C165.269 57.1673 163.613 57.7026 162.208 58.7144C160.803 59.7262 159.713 61.1679 159.08 62.8524ZM48.0423 28.149C49.1257 28.1655 50.2007 27.942 51.2 27.4924C52.1993 27.0429 53.1015 26.377 53.8503 25.5363C54.599 24.6956 55.1782 23.6981 55.5517 22.6063C55.9251 21.5145 56.0848 20.3518 56.0208 19.1908C55.8911 17.0612 55.0363 15.0572 53.6192 13.5603C52.2021 12.0635 50.3217 11.1782 48.336 11.0732C47.253 11.0117 46.1699 11.1901 45.1539 11.5973C44.1379 12.0044 43.2109 12.6316 42.4304 13.4398C41.6499 14.2481 41.0327 15.22 40.6171 16.2952C40.2016 17.3705 39.9966 18.526 40.0149 19.6899C39.9982 20.8252 40.1947 21.9524 40.5926 23.0044C40.9904 24.0564 41.5815 25.0117 42.3306 25.8134C43.0797 26.615 43.9714 27.2465 44.9527 27.6704C45.934 28.0942 46.9847 28.3017 48.0423 28.2804V28.149ZM56.29 35.531L57.6116 35.2421L65.6146 73.1242C73.4741 73.1321 81.1884 75.3968 87.9577 79.6835C94.727 83.9703 100.305 90.1229 104.112 97.5033L151.591 68.8684C151.37 67.9334 151.279 66.9684 151.322 66.0049V64.271H150.808L62.9959 29.4625C61.2967 32.0832 58.9836 34.1764 56.29 35.531ZM71.317 158.188C78.6621 156.874 85.4411 153.129 90.7066 147.477C95.9721 141.825 99.461 134.548 100.686 126.664C101.616 120.573 101.183 114.333 99.4208 108.458C97.659 102.583 94.6197 97.243 90.5541 92.8789C86.4886 88.5149 81.5136 85.2525 76.0406 83.3614C70.5676 81.4703 64.7538 81.0049 59.08 82.0036C51.7334 83.3145 44.9526 87.0583 39.6864 92.711C34.4203 98.3637 30.9326 105.642 29.7113 113.528C28.7752 119.62 29.2049 125.863 30.9646 131.74C32.7244 137.618 35.7636 142.961 39.8305 147.326C43.8974 151.692 48.8749 154.954 54.3505 156.843C59.8261 158.732 65.6422 159.193 71.317 158.188ZM125.16 208.969C126.745 208.985 128.299 208.496 129.626 207.564C130.953 206.632 131.993 205.3 132.616 203.734C133.238 202.169 133.414 200.441 133.123 198.768C132.831 197.095 132.084 195.552 130.977 194.334C129.87 193.116 128.451 192.278 126.9 191.924C125.349 191.57 123.735 191.718 122.262 192.347C120.789 192.977 119.523 194.061 118.623 195.462C117.723 196.863 117.23 198.519 117.206 200.221C117.186 201.356 117.379 202.484 117.774 203.537C118.169 204.591 118.757 205.548 119.504 206.352C120.251 207.156 121.141 207.791 122.121 208.218C123.101 208.645 124.151 208.856 125.209 208.838L125.16 208.969ZM137.054 187.086L188.18 157.531C186.282 153.535 185.276 149.119 185.243 144.633L107.857 131.497C105.691 140.376 101.258 148.428 95.0567 154.747L117.083 185.431C120.038 183.525 123.495 182.719 126.92 183.137C130.345 183.555 133.545 185.174 136.026 187.743C136.295 187.454 136.564 187.454 136.834 187.165L137.054 187.086ZM185.219 136.016C186.891 129.931 190.234 124.529 194.812 120.516L170.803 82.0036C170.657 81.8483 170.562 81.645 170.534 81.4257C167.443 82.6716 164.059 82.8155 160.885 81.836C157.712 80.8566 154.916 78.8059 152.913 75.9877L105.678 104.754C107.298 109.637 108.125 114.782 108.126 119.965V122.828L185.219 135.963V136.016ZM233.016 147.68C233.691 143.193 233.023 138.592 231.108 134.539C229.194 130.485 226.131 127.187 222.361 125.119C218.59 123.051 214.306 122.32 210.124 123.03C205.942 123.74 202.078 125.855 199.086 129.072C196.094 132.288 194.129 136.439 193.474 140.929C192.819 145.419 193.506 150.017 195.438 154.061C197.37 158.105 200.447 161.388 204.226 163.437C208.006 165.486 212.293 166.196 216.472 165.465C220.611 164.717 224.429 162.602 227.395 159.414C230.361 156.226 232.326 152.124 233.016 147.68ZM66.9851 237H0V172.532H9.61825V214.118C16.0304 210.388 22.4181 206.395 28.8303 202.664V214.906C35.2424 211.176 41.6546 207.025 48.0668 203.426V214.906C54.4545 211.176 60.8666 207.445 67.2788 203.426C67.0096 214.617 67.0096 225.809 67.0096 237H66.9851ZM89.0116 111.637C85.8191 108.155 82.0081 105.395 77.8042 103.523C73.6003 101.65 69.0891 100.702 64.5377 100.735C60.0141 100.693 55.5297 101.637 51.3564 103.511C47.1831 105.385 43.4078 108.15 40.2596 111.637L37.3227 108.484C40.8971 104.596 45.1554 101.509 49.8504 99.402C54.5454 97.2949 59.5835 96.2099 64.6723 96.2099C69.7612 96.2099 74.7993 97.2949 79.4943 99.402C84.1893 101.509 88.4475 104.596 92.0219 108.484L89.0851 111.637H89.0116ZM84.484 116.497C83.4382 117.483 82.4569 118.545 81.5471 119.676C79.3687 117.264 76.7527 115.358 73.8608 114.074C70.9688 112.791 67.8624 112.158 64.7335 112.215C61.5679 112.154 58.4274 112.827 55.5259 114.187C52.6244 115.547 50.0301 117.562 47.9199 120.096C47.0095 118.966 46.0282 117.904 44.9831 116.917C47.5109 114.05 50.5508 111.759 53.9213 110.18C57.2919 108.602 60.9242 107.768 64.6014 107.729C68.2787 107.69 71.9257 108.446 75.3248 109.952C78.724 111.459 81.8057 113.684 84.3861 116.497H84.484ZM77.1418 124.536C76.0966 125.513 75.1153 126.566 74.2049 127.688C68.062 121.961 61.6498 121.961 55.5068 127.688L52.57 124.536C54.163 122.808 56.0593 121.437 58.1493 120.501C60.2392 119.565 62.4812 119.083 64.7458 119.083C67.0103 119.083 69.2523 119.565 71.3422 120.501C73.4322 121.437 75.3285 122.808 76.9215 124.536H77.1418ZM235.268 0.853917C235.918 1.12044 236.522 1.5023 237.054 1.98355C237.52 2.53143 237.789 3.23907 237.813 3.98011V39.9708C237.867 40.4952 237.804 41.0257 237.629 41.5189C237.455 42.0121 237.174 42.4539 236.81 42.808C236.296 43.3859 235.782 43.3859 235.268 43.6749H188.009C187.527 43.6547 187.056 43.5164 186.632 43.2705C186.207 43.0246 185.841 42.6777 185.561 42.2563C185.297 41.8312 185.129 41.3452 185.072 40.8377V3.40216C185.344 2.9815 185.513 2.49333 185.561 1.98355C185.97 1.33018 186.561 0.833314 187.25 0.564941C203.134 0.853917 219.017 0.853917 235.268 0.853917ZM189.771 4.92585V35.8726H233.016V4.92585H189.771ZM207.049 43.5961H216.129V50.2425C216.129 50.2425 219.066 53.684 221.024 53.9204H224.499C225.845 53.684 226.628 55.1289 226.09 56.5475C225.845 57.0992 225.331 57.4144 224.768 56.5475H200.295C199.487 57.4669 198.948 57.178 198.41 56.311C197.872 55.4441 200.025 53.973 200.025 53.973H203.134C203.134 53.973 206.854 52.2916 206.584 49.7171V45.0672C207.123 44.8045 207.123 44.8045 207.123 44.5156L207.049 43.5961ZM65.1006 141.743C64.3637 141.746 63.6335 141.593 62.952 141.292C62.2706 140.991 61.6515 140.548 61.1304 139.989C60.6093 139.429 60.1966 138.765 59.9161 138.033C59.6356 137.302 59.4929 136.518 59.4961 135.727C59.4961 134.131 60.0866 132.601 61.1376 131.473C62.1887 130.345 63.6142 129.711 65.1006 129.711C66.587 129.711 68.0126 130.345 69.0636 131.473C70.1147 132.601 70.7051 134.131 70.7051 135.727C70.7051 137.322 70.1147 138.853 69.0636 139.981C68.0126 141.109 66.587 141.743 65.1006 141.743ZM44.0531 171.586L46.2068 173.32L44.0531 171.586ZM34.2635 163.258L44.0531 171.586L34.2635 163.258Z" stroke="#5A98FD" stroke-width="4" mask="url(#path-1-inside-1_453_2256)"/>
</svg>
