<svg width="240" height="239" viewBox="0 0 240 239" fill="none" xmlns="http://www.w3.org/2000/svg">
<path d="M233.929 237.809V236.809H232.929H7.08776H6.9511L6.81944 236.846C6.11078 237.043 5.36965 237.056 4.65572 236.885C3.94148 236.713 3.2697 236.36 2.69807 235.849C2.1261 235.337 1.67093 234.681 1.37587 233.933C1.08074 233.184 0.955905 232.368 1.01381 231.554L1.01633 231.518V231.483C1.01633 230.729 1.33757 229.933 1.92797 229.116C2.51564 228.303 3.32076 227.538 4.16172 226.87C4.99801 226.205 5.83967 225.66 6.47513 225.28C6.79179 225.091 7.05463 224.944 7.23655 224.846C7.26213 224.832 7.28609 224.819 7.30836 224.807H12.9229H13.9229V223.807V170.685C13.9259 169.805 14.0912 168.935 14.4079 168.127C14.7247 167.318 15.1859 166.588 15.762 165.978C16.3379 165.368 17.017 164.889 17.7583 164.566C18.4994 164.243 19.2901 164.081 20.0858 164.087H20.0933H63.14H64.14V163.087V142.656C64.1523 140.877 64.8231 139.187 65.9863 137.955C67.1481 136.724 68.7031 136.05 70.3066 136.056H70.3103H113.258H114.258V135.056V112.296C114.27 110.517 114.941 108.827 116.104 107.595C117.266 106.364 118.821 105.69 120.425 105.696H120.428H163.451H164.451V104.696L164.451 81.9329L164.45 81.9231C164.442 81.0523 164.595 80.1897 164.899 79.3857C165.203 78.5818 165.651 77.8547 166.215 77.2449C166.779 76.6352 167.446 76.1552 168.176 75.8291C168.906 75.5031 169.686 75.3363 170.472 75.3363L219.672 75.3363C219.673 75.3363 219.673 75.3363 219.674 75.3363C220.461 75.3396 221.241 75.5084 221.971 75.8354C222.702 76.1627 223.37 76.643 223.936 77.2524C224.501 77.8619 224.952 78.5883 225.26 79.3917C225.568 80.1952 225.725 81.0578 225.723 81.9297V81.9329V223.807V224.807H226.723H232.903C234.487 224.892 235.998 225.609 237.132 226.841C238.27 228.076 238.942 229.736 239 231.494C238.984 233.243 238.325 234.903 237.183 236.116C236.283 237.073 235.143 237.691 233.929 237.91V237.809ZM175.53 223.807V224.807H176.53H211.492H212.492V223.807V88.3385V87.3385H211.492H176.53H175.53V88.3385V223.807ZM125.363 223.807V224.807H126.363H161.275H162.275V223.807V118.698V117.698H161.275H126.363H125.363V118.698V223.807ZM77.3708 223.807V224.807H78.3708H113.258H114.258V223.807V149.005V148.005H113.258H78.3708H77.3708V149.005V223.807ZM28.1784 178.418H27.1784V179.418V223.807V224.807H28.1784H63.14H64.14V223.807V179.418V178.418H63.14H28.1784ZM135.49 19.9476L137.431 18.7558L135.24 18.1336L122.761 14.5887C122.76 14.5884 122.759 14.5881 122.758 14.5878C121.244 14.1449 119.934 13.0743 119.129 11.5831C118.323 10.0909 118.096 8.31079 118.506 6.63388C118.942 4.94821 119.978 3.53523 121.365 2.68691C122.751 1.8394 124.383 1.61676 125.913 2.05749L125.916 2.0584L154.839 10.2886C154.84 10.2889 154.841 10.2892 154.841 10.2894C156.36 10.732 157.674 11.8061 158.48 13.3028C159.287 14.8017 159.51 16.5896 159.093 18.271C159.093 18.2714 159.093 18.2719 159.093 18.2723L151.354 48.9995L151.353 49.0054C150.936 50.7032 149.912 52.1343 148.528 52.9994C147.147 53.8626 145.513 54.099 143.978 53.6675C142.441 53.2353 141.106 52.1608 140.285 50.6546C139.463 49.1476 139.23 47.3445 139.646 45.6468C139.646 45.6459 139.647 45.6449 139.647 45.644L142.983 32.4158L143.584 30.0342L141.491 31.3189L61.5294 80.3922C61.5293 80.3923 61.5291 80.3924 61.529 80.3925C59.729 81.4959 58.0711 81.575 56.6919 81.0914C55.2832 80.5975 54.0695 79.4809 53.2847 78.0375C51.7121 75.1452 51.9921 71.2702 55.5077 69.0718C55.5086 69.0713 55.5096 69.0707 55.5105 69.0701L135.49 19.9476Z" stroke="#5A98FD" stroke-width="2"/>
</svg>
