<svg width="200" height="200" viewBox="0 0 200 200" fill="none" xmlns="http://www.w3.org/2000/svg">
<path d="M130.3 150.35C132.9 155.9 135.15 160.9 137.55 165.85C137.8 166.35 138.8 166.8 139.4 166.75C147.35 166.6 152.75 172.95 152.3 180.65C152.1 184.2 152.3 187.75 152.25 191.3C152.2 194.1 151.15 195.2 148.3 195.2C116.1 195.2 83.9002 195.2 51.7002 195.2C48.8502 195.2 47.7502 194.15 47.7502 191.35C47.7002 187.2 47.7002 183.05 47.7502 178.85C47.8502 172.35 52.3502 167.35 58.8502 167C61.3502 166.85 62.7002 166 63.6502 163.7C65.4502 159.3 67.4502 155.05 69.6002 150.3C66.8502 150.3 64.7002 150.3 62.5502 150.3C56.3002 150.3 50.0502 150.5 43.8502 150.2C40.8002 150.1 38.6002 150.85 36.6502 153.2C35.4002 154.7 34.3502 155.6 35.1002 158.05C36.6002 162.65 34.2002 167.3 29.9502 169.5C25.8002 171.65 20.8002 170.7 17.7002 167.25C14.6002 163.75 14.2502 158.55 16.8502 154.6C19.4002 150.8 24.1002 149.35 28.7002 150.75C29.4502 151 30.4002 150.45 31.2502 150.25C31.3002 150.25 31.3502 150.15 31.4002 150.1C34.9002 145 39.8002 143.85 45.8002 144.2C54.1502 144.7 62.6002 144.3 71.3502 144.3C72.5002 139.75 73.6502 135.2 74.9002 130.2C73.3002 130.2 72.1502 130.2 71.0502 130.2C65.3502 130.2 59.6502 130.25 53.9502 130.15C52.0002 130.1 50.8502 130.55 49.8002 132.45C47.3502 137 41.6502 138.7 37.2502 136.55C32.3002 134.2 30.0502 128.65 31.9502 123.55C33.7502 118.75 38.9502 116.05 43.9002 117.45C46.8502 118.3 49.0502 120.1 50.4502 122.9C50.8002 123.55 51.7002 124.3 52.3502 124.3C59.8002 124.4 67.3002 124.35 74.7502 124.35C75.0502 124.35 75.3502 124.25 75.9002 124.15C76.3502 119.6 76.8502 115.05 77.3502 110.2C76.2502 110.2 75.4002 110.2 74.6002 110.2C64.9002 110.2 55.2002 110.2 45.5002 110.2C30.3002 110.2 17.1002 101 11.9002 86.8499C6.65019 72.5499 10.9002 56.3499 22.5502 46.6499C27.0002 43.0999 32.0002 40.5499 37.6502 39.4999C39.3002 39.1999 40.2002 38.5999 40.7002 36.7999C45.3502 20.2999 62.7002 9.5499 79.8002 12.5499C82.5002 12.9999 85.2002 13.7999 87.7502 14.8499C90.3002 15.8999 92.6502 17.3999 95.1002 18.7499C104.45 6.8499 116.7 1.8499 131.3 6.4999C146.4 11.2499 153.45 22.6999 153.95 38.1499C157.45 38.7999 160.95 39.1499 164.25 40.0499C179.75 44.3499 190.2 58.5999 190.2 75.0499C190.2 90.4999 179.45 104.7 164.35 108.95C161.3 109.8 158 110.25 154.8 110.3C145 110.45 135.25 110.35 125.45 110.35C124.6 110.35 123.8 110.35 122.55 110.35C123.05 115.15 123.5 119.65 124 124.5C124.9 124.5 125.65 124.5 126.4 124.5C133.95 124.5 141.5 124.45 149.05 124.55C150.6 124.55 151.45 124.15 152.2 122.65C154.3 118.2 159.4 116.25 164.1 117.75C168.7 119.2 171.7 124.05 170.95 128.75C170.1 133.85 166 137.65 161.25 137.6C157.1 137.5 153.95 135.65 151.9 131.9C151.55 131.25 150.65 130.5 149.95 130.5C142.1 130.4 134.25 130.45 126.4 130.45C126.1 130.45 125.85 130.6 125.1 130.75C126.2 135.15 127.25 139.45 128.45 143.7C128.6 144.15 129.8 144.5 130.5 144.5C140.15 144.55 149.75 144.6 159.4 144.5C161.75 144.45 163.6 144.95 165.05 146.85C165.4 147.35 165.95 147.7 166.35 148.15C168.2 150.3 169.9 151.6 173.25 150.65C177.75 149.4 182.2 152.35 184.05 156.6C185.8 160.65 184.55 165.75 181.1 168.55C177.55 171.4 172.7 171.6 168.85 169C165.2 166.55 163.55 161.7 165.1 157.35C165.6 156 165.1 155.35 164.35 154.4C161.9 151.2 158.85 150.2 154.8 150.35C146.95 150.6 139 150.35 130.3 150.35ZM122.6 104.25C123.05 104.35 123.4 104.45 123.8 104.45C134.8 104.4 145.85 104.65 156.85 104.25C170.95 103.75 183.25 91.1499 184.25 77.0999C185.55 58.7499 170.85 43.2999 151.85 44.4999C148.4 44.6999 147.35 43.5999 147.7 40.1999C148.55 32.7999 146.6 26.1999 141.95 20.3499C131.3 6.9499 109.55 7.5499 100.45 21.9499C96.6002 27.9999 95.6002 26.8499 90.8502 23.4499C82.5502 17.4999 73.3502 16.3999 63.8502 19.9499C54.1502 23.5999 48.0502 30.6499 45.7502 40.7999C45.2002 43.2499 44.1502 44.6999 41.5002 44.6999C40.9502 44.6999 40.4502 44.9499 39.9002 44.9999C25.8002 47.5999 15.7502 59.5999 15.6002 73.9999C15.5002 88.4999 25.3502 101.85 39.4002 103.5C51.5502 104.95 64.0002 104.2 76.3002 104.3C76.7002 104.3 77.5002 103.5 77.5002 103.05C77.5002 97.9999 77.3502 92.9499 77.2502 87.8999C76.3502 87.7999 75.8502 87.6999 75.3002 87.6499C67.4002 86.8499 62.4502 81.7499 62.2502 73.8999C62.0502 66.1999 62.2002 58.4999 62.2002 50.7999C62.2002 48.2499 63.3002 47.1499 65.9002 47.0999C69.0502 46.9999 72.2002 46.9999 75.3502 47.0999C78.0002 47.1499 79.0002 48.2999 79.0502 51.0499C79.1002 53.4999 79.1502 55.9999 79.0502 58.4499C79.0002 60.2999 79.7002 61.1499 81.6002 61.0999C83.8502 61.0499 86.0502 61.0499 88.3002 61.0999C90.3002 61.1499 91.1002 60.1999 91.0502 58.2999C91.0002 55.8499 91.0002 53.3499 91.0502 50.8999C91.1002 48.2499 92.0002 47.1999 94.6002 47.0999C98.1502 46.9999 101.7 46.9999 105.2 47.0999C107.65 47.1499 108.65 48.2499 108.7 50.6999C108.75 53.2999 108.75 55.9499 108.7 58.5499C108.7 60.2999 109.5 61.0999 111.25 61.0499C113.5 60.9999 115.7 60.9999 117.95 61.0499C119.95 61.0999 120.7 60.1499 120.65 58.2499C120.6 55.6999 120.6 53.1499 120.65 50.6499C120.7 48.2999 121.65 47.1999 124 47.0999C127.4 46.9999 130.8 47.0499 134.15 47.0999C136.25 47.1499 137.45 48.3499 137.45 50.4499C137.45 58.7499 137.6 67.0999 137.3 75.3999C137.1 81.0499 132.5 86.0999 127 87.3499C125.6 87.6499 124.1 87.6999 122.4 87.8999C122.6 93.4999 122.6 98.8499 122.6 104.25ZM83.2002 88.0499C84.8002 115.5 81.0502 141.75 68.9002 166.6C89.8502 166.6 110.35 166.6 131.1 166.6C118.75 141.7 115.3 115.4 116.8 88.0499C105.5 88.0499 94.5502 88.0499 83.2002 88.0499Z" fill="#E8565C"/>
<path d="M95.4007 104.75C94.7507 123.9 91.6507 141.15 85.5507 157.8C85.1507 158.9 84.1507 160.05 83.1507 160.55C82.4507 160.9 80.7007 160.45 80.3507 159.8C79.8007 158.85 79.6507 157.3 79.9507 156.2C81.4507 150.9 83.4007 145.7 84.7507 140.35C88.1507 127.05 89.6507 113.45 89.5007 99.7001C89.5007 98.8001 89.4007 97.8501 89.5007 96.9501C89.7007 95.2001 90.6007 94.1001 92.5007 94.1001C94.4007 94.1001 95.3507 95.2501 95.4007 97.0001C95.5007 100 95.4007 103.1 95.4007 104.75Z" fill="#E8565C"/>
</svg>
