<svg width="200" height="200" viewBox="0 0 200 200" fill="none" xmlns="http://www.w3.org/2000/svg">
<path d="M69.1492 194.15C68.2992 187.65 67.4492 181.2 66.6492 174.7C66.2992 171.8 65.8992 168.9 65.5492 166C65.4492 164.95 64.9992 164.6 63.8992 164.7C55.0992 165.6 46.2992 166.45 37.5492 167.45C35.9992 167.6 35.4492 167.15 35.3492 165.7C34.5492 155 33.7492 144.3 32.9492 133.65C32.7992 131.75 32.5492 129.9 32.4492 128.05C32.3992 126.8 31.7992 126.5 30.6492 126.5C25.8992 126.55 21.1492 126.5 16.3492 126.5C15.7492 126.5 15.1492 126.45 14.1992 126.4C14.9992 124 15.6992 121.8 16.4492 119.6C19.9992 109.1 23.5992 98.65 27.1492 88.15C27.5492 86.9 27.9992 85.7 28.4992 84.45C29.4492 82.15 29.6992 79.75 29.5992 77.25C29.2492 68.8 30.3492 60.5 33.0492 52.55C36.9992 40.95 43.4492 30.95 52.7992 22.9C64.2492 13.05 77.5492 7.49999 92.6492 6.49999C93.5992 6.44999 94.4992 6.29999 95.4492 6.19999C96.4992 6.04999 97.0492 6.44999 97.0992 7.54999C97.0992 7.59999 97.0992 7.64999 97.0992 7.69999C97.3992 12.35 97.3992 12.25 92.6992 12.6C83.0992 13.3 74.1492 16.05 65.8992 21C54.9992 27.5 46.7992 36.5 41.4492 48C37.4992 56.45 35.5992 65.4 35.7992 74.75C35.8492 76.9 35.9992 79.05 35.7492 81.15C35.5492 82.95 34.8492 84.65 34.2492 86.4C30.5492 97.2 26.8992 108.05 23.1492 118.85C22.6992 120.2 23.0492 120.5 24.3492 120.5C28.3992 120.45 32.3992 120.5 36.4492 120.45C37.5992 120.45 38.0992 120.75 38.1992 122C38.7492 129.6 39.3492 137.25 39.9492 144.85C40.3492 149.6 40.7992 154.35 41.0992 159.1C41.1992 160.65 41.6992 161 43.1992 160.85C51.6992 159.9 60.2492 159.1 68.7992 158.2C70.2492 158.05 70.8492 158.45 71.0492 159.95C72.2992 170.4 73.5992 180.8 74.8992 191.25C75.1492 193.35 75.0992 193.35 72.9992 193.65C72.4492 193.75 71.9492 194.05 71.4492 194.25C70.5992 194.15 69.8492 194.15 69.1492 194.15Z" fill="#E8565C"/>
<path d="M147.599 194.15C146.699 188.4 145.799 182.7 144.949 176.95C143.849 169.6 142.899 162.25 141.699 154.95C141.349 152.9 142.149 151.25 142.699 149.5C145.699 140.55 148.849 131.65 151.849 122.7C152.149 121.8 152.299 120.75 152.349 119.8C152.399 116.7 152.399 113.65 152.299 110.55C152.249 108.95 152.849 108.45 154.299 108.6C154.749 108.65 155.249 108.65 155.699 108.65C158.699 108.7 158.499 108.45 158.499 111.65C158.499 113.2 158.399 114.8 158.549 116.35C159.099 121.6 157.099 126.3 155.449 131.05C152.899 138.4 150.399 145.75 147.899 153.1C147.699 153.6 147.699 154.25 147.799 154.8C149.649 167.1 151.449 179.4 153.349 191.7C153.549 192.9 153.299 193.45 151.999 193.55C151.249 193.6 150.549 194 149.799 194.2C149.049 194.15 148.349 194.15 147.599 194.15Z" fill="#E8565C"/>
<path d="M123.449 152C123.449 165.2 123.449 178.35 123.449 191.55C123.449 193.65 123.449 193.65 121.399 193.65C117.449 193.65 117.449 193.65 117.449 189.65C117.449 166.2 117.449 142.8 117.449 119.35C117.449 116.85 117.399 114.35 117.449 111.8C117.499 110.65 117.099 110.15 115.949 110.2C114.549 110.25 113.099 110.3 111.699 110.25C110.549 110.2 110.149 110.65 110.149 111.8C110.199 117.25 110.149 122.7 110.149 128.1C110.149 144.95 110.149 161.8 110.149 178.6C110.149 179.8 109.799 180.25 108.549 180.25C104.099 180.25 104.099 180.3 104.099 175.85C104.099 159.55 104.099 143.2 104.099 126.9C104.099 121.95 104.049 116.95 104.149 112C104.149 110.65 103.749 110.05 102.349 110.15C101.099 110.25 99.8493 110.25 98.5993 110.15C97.1993 110.05 96.7994 110.55 96.7994 111.9C96.8494 117.55 96.7993 123.2 96.8493 128.85C96.8493 130.1 96.4993 131 95.5993 131.9C93.7994 133.6 92.0494 135.3 90.3994 137.15C89.8494 137.8 89.4494 138.75 89.3994 139.6C89.2494 141.35 89.2994 143.15 89.3994 144.95C89.4494 146.05 88.9993 146.45 87.9493 146.45C82.3993 146.5 83.1993 147.05 83.2493 141.9C83.2493 141.75 83.2993 141.6 83.2493 141.45C82.3493 137.15 84.0493 133.95 87.4493 131.5C90.1993 129.45 91.1493 126.8 90.8493 123.35C90.5493 119.6 90.7494 115.8 90.7994 112.05C90.7994 110.75 90.3994 110.15 88.9994 110.2C86.9994 110.3 84.9994 110.15 83.0494 110.25C81.7994 110.3 81.3993 109.8 81.4493 108.6C81.4993 106.55 81.4493 104.5 81.4993 102.5C81.4993 101.3 81.0493 100.8 79.8493 100.85C76.7493 100.9 73.6993 100.8 70.5993 100.85C69.2993 100.9 68.8994 100.4 68.8994 99.0999C68.8994 94.8499 68.8493 94.7999 72.9993 94.7999C75.3493 94.7999 77.6994 94.7499 80.0494 94.7999C81.0994 94.7999 81.5994 94.4499 81.5494 93.3499C81.4994 91.9999 81.4494 90.6499 81.5494 89.2499C81.6494 87.8499 81.0993 87.4499 79.7493 87.4499C72.4493 87.4999 65.0993 87.4499 57.7993 87.4999C54.8493 87.4999 55.2993 87.3999 55.2993 85.0999C55.2493 81.1999 54.6494 81.4499 58.9494 81.4499C65.9494 81.4999 72.9493 81.4499 79.9493 81.4999C81.0993 81.4999 81.5493 81.0499 81.4993 79.8999C81.4493 78.5999 81.4494 77.2999 81.5494 75.9999C81.6494 74.6499 81.1994 74.1499 79.7994 74.1999C72.2494 74.2499 64.7494 74.1999 57.1994 74.2499C55.5494 74.2499 55.1494 73.7999 55.1994 72.1999C55.3494 68.1499 55.2494 68.1499 59.2494 68.1499C65.9994 68.1499 72.7493 68.1499 79.4993 68.1499C81.3993 68.1499 81.4993 68.0499 81.4993 66.0999C81.4993 64.9499 81.3993 63.7999 81.4993 62.6499C81.6493 61.1999 80.9993 60.8499 79.6993 60.8999C76.6493 60.9499 73.6493 60.8499 70.5993 60.9499C69.2993 60.9999 68.7994 60.4999 68.8994 59.1999C68.9494 58.1999 68.9494 57.1999 68.8994 56.1999C68.8494 55.0999 69.3494 54.6999 70.3994 54.7499C73.3994 54.7999 76.3493 54.7499 79.3493 54.7499C81.3993 54.7499 81.4993 54.6999 81.4993 52.6499C81.4993 50.6999 81.5493 48.7999 81.4993 46.8499C81.4493 45.7499 81.8993 45.3499 82.9993 45.3999C85.0493 45.4499 87.0993 45.3499 89.0993 45.3999C90.3993 45.4499 90.8994 45.0499 90.8994 43.6999C90.8494 40.5999 90.8993 37.5499 90.8493 34.4499C90.8493 33.2499 91.2494 32.7999 92.4994 32.7499C96.9994 32.6499 96.9994 32.6499 96.9994 37.0499C96.9994 39.1499 96.9994 41.2499 96.9994 43.2999C96.9994 45.2999 97.0493 45.3499 98.9493 45.3499C100.149 45.3499 101.349 45.2999 102.549 45.3499C103.749 45.3999 104.249 44.9499 104.249 43.6999C104.199 36.0999 104.249 28.5499 104.149 20.9499C104.149 19.5499 104.449 18.9999 105.949 18.9999C110.249 19.0499 110.249 18.9999 110.249 23.2499C110.249 29.9499 110.249 36.6499 110.249 43.3499C110.249 45.2999 110.299 45.3499 112.299 45.2999C113.549 45.2999 114.799 45.2499 116.049 45.2999C117.149 45.3499 117.499 44.8499 117.499 43.7999C117.449 36.5499 117.449 29.2499 117.449 21.9999C117.449 21.3999 117.299 20.7999 117.499 20.2999C117.699 19.7999 118.199 19.0999 118.649 19.0499C119.949 18.8999 121.249 18.8999 122.549 19.0999C122.899 19.1499 123.449 19.8999 123.449 20.2999C123.499 25.6499 123.499 30.9499 123.499 36.2999C123.499 38.7999 123.499 41.2999 123.449 43.8499C123.449 44.9499 123.849 45.3499 124.949 45.2999C126.299 45.2499 127.699 45.1499 129.049 45.2499C130.499 45.3499 130.799 44.6999 130.799 43.3999C130.749 36.1499 130.799 28.8499 130.799 21.5999C130.799 19.4499 130.799 19.4499 132.949 19.4499C140.949 19.4499 148.949 19.4999 156.949 19.3999C158.499 19.3999 158.949 19.8999 158.899 21.3999C158.749 25.4499 158.799 25.4999 154.749 25.5499C149.399 25.5999 144.099 25.5499 138.749 25.4999C137.349 25.4999 136.799 25.8499 136.849 27.3499C136.949 32.8499 136.899 38.3499 136.899 43.7999C136.899 44.8999 137.299 45.2999 138.399 45.2999C140.499 45.2499 142.599 45.3499 144.699 45.2499C145.899 45.1999 146.399 45.5999 146.349 46.8499C146.299 48.8499 146.399 50.8499 146.349 52.7999C146.299 54.1499 146.799 54.6499 148.149 54.6499C151.249 54.5999 154.299 54.6499 157.399 54.5999C158.499 54.5999 158.949 54.9499 158.899 56.0499C158.849 57.1499 158.849 58.2499 158.899 59.3499C158.949 60.4499 158.449 60.7999 157.399 60.7999C154.249 60.7499 151.099 60.7999 147.999 60.7499C146.799 60.6999 146.299 61.0999 146.349 62.3499C146.449 63.6999 146.399 65.0499 146.299 66.4499C146.249 67.6499 146.699 68.0999 147.949 68.0999C155.499 68.0499 162.999 68.0999 170.549 68.0499C172.499 68.0499 172.599 68.1499 172.599 70.0499C172.599 70.4999 172.549 70.9999 172.549 71.4499C172.499 73.8499 173.149 74.1499 169.949 74.0999C162.699 74.0999 155.399 74.1499 148.149 74.0999C146.749 74.0999 146.249 74.5499 146.349 75.8999C146.449 77.0999 146.399 78.2999 146.349 79.4999C146.249 80.8999 146.699 81.3999 148.199 81.3999C155.649 81.2999 163.049 81.3499 170.499 81.3499C172.599 81.3499 172.599 81.3499 172.599 83.4499C172.599 87.3499 172.599 87.3499 168.649 87.3499C161.849 87.3499 155.049 87.3999 148.249 87.2999C146.799 87.2999 146.299 87.7499 146.399 89.1499C146.499 90.3999 146.449 91.6499 146.399 92.8999C146.349 94.0999 146.699 94.5999 147.999 94.5499C151.099 94.4499 154.149 94.5999 157.249 94.4999C158.599 94.4499 159.099 94.8499 159.049 96.2499C158.949 100.6 158.949 100.6 154.599 100.6C152.349 100.6 150.099 100.65 147.849 100.6C146.749 100.55 146.349 101 146.399 102.1C146.449 104.25 146.349 106.4 146.399 108.55C146.449 109.7 146.099 110.15 144.899 110.1C142.799 110 140.699 110.1 138.649 110.05C137.449 110 136.949 110.45 136.999 111.7C137.049 114.85 136.999 118 137.049 121.1C137.049 122.25 136.699 122.65 135.499 122.65C130.999 122.7 130.999 122.75 130.999 118.15C130.999 115.95 130.949 113.75 130.999 111.55C131.049 110.35 130.549 109.95 129.399 110C128.049 110.05 126.699 110.05 125.299 110C124.099 109.95 123.649 110.3 123.649 111.6C123.699 121.85 123.699 132.1 123.699 142.35C123.499 145.75 123.499 148.85 123.449 152C123.499 152 123.499 152 123.449 152ZM140.099 77.6999C140.099 76.9499 140.099 76.2499 140.099 75.4999C140.099 67.9999 140.099 60.5499 140.199 53.0499C140.199 51.7999 139.699 51.3499 138.499 51.3999C137.549 51.4499 136.599 51.4499 135.699 51.4499C120.299 51.4499 104.849 51.3999 89.4493 51.3999C87.4993 51.3999 87.4493 51.4499 87.4493 53.4499C87.4493 69.6499 87.4493 85.8499 87.4493 102.05C87.4493 104.05 87.4994 104.1 89.5993 104.1C95.0493 104.1 100.449 104.05 105.899 104.05C116.749 104.05 127.649 104.05 138.499 104.05C139.599 104.05 140.149 103.75 140.149 102.55C140.099 94.3499 140.099 86.0499 140.099 77.6999Z" fill="#E8565C"/>
<path d="M104.299 5.94995C106.199 5.94995 108.049 5.94995 110.149 5.94995C110.149 7.89995 110.199 9.79995 110.099 11.7C110.099 11.95 109.599 12.25 109.299 12.45C109.199 12.55 108.999 12.5 108.849 12.45C107.299 12.35 105.799 12.25 104.249 12.15C104.299 10.1 104.299 8.04995 104.299 5.94995Z" fill="#E8565C"/>
<path d="M45.2988 68.1499C48.4488 68.1499 48.4488 68.1499 48.3988 71.2999C48.3988 74.6999 48.6988 74.1999 45.4988 74.2499C41.7988 74.2999 41.7988 74.2499 41.7988 70.6999C41.7988 68.1499 41.7988 68.1499 45.2988 68.1499Z" fill="#E8565C"/>
<path d="M182.449 87.55C178.549 87.55 179.349 87.9 179.149 84.35C179.099 83.9 179.149 83.4 179.149 82.95C179.099 82 179.499 81.5 180.549 81.5C181.949 81.55 183.349 81.45 184.749 81.6C185.149 81.65 185.699 82.3 185.799 82.75C185.949 83.7 185.749 84.75 185.849 85.7C185.999 87.1 185.499 87.75 184.049 87.6C183.499 87.5 182.949 87.55 182.449 87.55Z" fill="#E8565C"/>
<path d="M117.449 5.84997C119.299 5.84997 120.899 5.89997 122.449 5.84997C123.299 5.79997 123.499 6.24997 123.499 6.99997C123.499 8.39997 123.449 9.79997 123.499 11.25C123.549 12.2 123.099 12.55 122.199 12.5C120.999 12.45 119.799 12.6 118.599 12.45C118.199 12.4 117.549 11.85 117.549 11.5C117.399 9.69997 117.449 7.89997 117.449 5.84997Z" fill="#E8565C"/>
<path d="M182.549 68.2C186.299 68.2 185.799 68 185.799 71.5C185.799 74.35 186.299 74.25 182.999 74.25C179.149 74.25 179.149 74.25 179.149 70.75C179.199 68.2 179.199 68.2 182.549 68.2Z" fill="#E8565C"/>
<path d="M44.999 87.4999C41.299 87.4999 41.899 87.7999 41.849 84.4999C41.799 81.3499 41.149 81.4999 44.799 81.4999C48.399 81.4999 48.399 81.4999 48.399 84.9999C48.399 87.5999 48.399 87.5999 45.749 87.5499C45.499 87.4999 45.249 87.4999 44.999 87.4999Z" fill="#E8565C"/>
<path d="M110.15 190.4C110.15 194.1 110.5 193.6 106.9 193.65C104.1 193.65 104.1 193.65 104.15 190.85C104.15 186.3 103.75 187.1 107.95 187.05C110.15 187.05 110.15 187.05 110.15 190.4Z" fill="#E8565C"/>
<path d="M100.449 94.6C96.6491 94.55 96.7991 95.2 96.7991 91.3C96.7991 91 96.8491 90.65 96.7991 90.35C96.6491 88.9 97.1991 88.15 98.7491 88.4C99.0491 88.45 99.3991 88.4 99.6991 88.4C100.899 88.5 102.149 88.6 103.349 88.7C103.399 90.4 103.549 92.1 103.499 93.8C103.499 94.05 102.799 94.5 102.399 94.55C101.599 94.65 100.799 94.6 100.449 94.6Z" fill="#E8565C"/>
<path d="M113.799 88.35C117.299 88.5 117.199 87.7 117.199 91.9C117.199 92.35 117.199 92.85 117.199 93.3C117.199 94.2 116.749 94.6 115.849 94.6C114.499 94.55 113.149 94.55 111.749 94.55C110.749 94.55 110.349 94.1 110.349 93.1C110.349 92.1 110.349 91.1 110.299 90.1C110.199 88.75 110.699 88.15 112.099 88.25C112.649 88.4 113.249 88.35 113.799 88.35Z" fill="#E8565C"/>
<path d="M127.599 88.3999C130.899 88.3999 130.899 88.3999 130.849 91.7499C130.749 94.4999 130.749 94.4999 128.049 94.5499C123.299 94.6499 124.149 94.7999 124.099 90.8499C124.049 88.3999 124.099 88.3999 127.599 88.3999Z" fill="#E8565C"/>
<path d="M100.349 61.05C103.499 61.1 103.499 61.1 103.549 64.3C103.549 64.6 103.499 64.95 103.549 65.25C103.749 66.7 103.199 67.45 101.649 67.2C101.449 67.15 101.249 67.2 101.049 67.2C96.5995 67.2 96.0495 66.6 96.8495 62.1C96.8995 61.7 97.4995 61.2 97.8995 61.1C98.6495 60.95 99.4995 61.05 100.349 61.05Z" fill="#E8565C"/>
<path d="M113.799 67.2C110.349 67.4 110.349 67.4 110.349 64.05C110.349 60.75 110.099 61.1 113.449 61.1C117.749 61.1 117.199 60.65 117.149 64.8C117.149 67.15 117.149 67.15 114.699 67.15C114.399 67.2 114.099 67.2 113.799 67.2Z" fill="#E8565C"/>
<path d="M127.549 67.2C123.949 67.15 124.099 67.8 124.099 64.1C124.099 60.4 123.849 61.05 127.199 61.05C131.099 61.1 130.849 60.4 130.849 63.85C130.849 67.2 130.799 67.2 127.549 67.2Z" fill="#E8565C"/>
<path d="M100.3 80.8999C96.1496 80.9999 96.8496 81.1499 96.7996 77.4499C96.7996 77.0499 96.7996 76.5999 96.7996 76.1999C96.6996 75.1999 97.0996 74.7499 98.1496 74.7999C99.4996 74.8499 100.85 74.8499 102.2 74.7999C103.35 74.7499 103.7 75.2499 103.6 76.2999C103.55 76.6999 103.55 77.1499 103.55 77.5499C103.5 80.7999 103.5 80.7999 100.3 80.8999Z" fill="#E8565C"/>
<path d="M113.649 80.85C109.799 80.85 110.399 81.15 110.349 77.65C110.349 74.85 110.349 74.85 113.299 74.85C117.199 74.85 117.199 74.85 117.199 78.4C117.199 80.9 117.199 80.9 114.749 80.9C114.349 80.85 113.999 80.85 113.649 80.85Z" fill="#E8565C"/>
<path d="M127.399 80.85C124.149 80.85 124.149 80.85 124.049 77.6C124.049 77.2 124.049 76.75 124.049 76.35C123.999 75.25 124.449 74.7 125.599 74.75C126.899 74.8 128.199 74.85 129.499 74.8C130.449 74.8 130.849 75.15 130.799 76.1C130.799 76.55 130.799 77.05 130.799 77.5C130.849 80.85 130.849 80.85 127.399 80.85Z" fill="#E8565C"/>
</svg>
