<svg width="200" height="200" viewBox="0 0 200 200" fill="none" xmlns="http://www.w3.org/2000/svg">
<path d="M5 97.05C5.25 76.9 12.5 56.6 27 38.95C35.65 28.4 46.15 20.1 58.4 14C67.85 9.29996 77.8 6.24996 88.3 4.89996C108.75 2.29996 128.1 5.94996 146.25 15.7C147.65 16.45 148.95 17.25 150.3 18.05C151.65 18.85 152.95 18.55 153.75 17.15C155 14.95 156.3 12.75 157.55 10.55C158.15 9.54996 158.9 8.89996 160.1 9.04996C161.3 9.19996 161.95 9.94996 162.25 11.1C164.15 18.05 166.05 24.95 167.95 31.9C168.4 33.5 167.75 34.65 166.15 35.1C159.15 36.95 152.1 38.75 145.1 40.6C144 40.9 143.05 40.65 142.35 39.75C141.65 38.85 141.7 37.9 142.3 36.95C143.6 34.75 144.85 32.55 146.1 30.35C147 28.8 146.7 27.65 145.15 26.75C135 20.6 124.05 16.6 112.3 15.1C88.95 12.1 67.75 17.6 48.95 31.75C33.25 43.55 23.05 59.25 17.95 78.25C15.35 87.9 14.6 97.75 15.55 107.7C16.8 120.65 20.75 132.7 27.45 143.9C28.2 145.2 28.95 146.5 29.05 148.05C29.15 149.9 28.55 151.45 26.95 152.5C25.35 153.55 23.7 153.55 22.05 152.65C20.75 151.95 19.85 150.85 19.1 149.6C16.4 145.15 14.05 140.5 12.05 135.7C7.4 124.2 5.05 112.2 5 97.05Z" fill="#E8565C"/>
<path d="M100.8 195.45C94.1996 195.45 87.6496 194.8 81.1996 193.4C70.4996 191.15 60.4496 187.15 51.0996 181.45C49.6996 180.6 48.3996 180.95 47.5996 182.35C46.2996 184.6 44.9996 186.85 43.6996 189.1C43.1496 190.05 42.3996 190.55 41.2996 190.45C40.2496 190.35 39.4996 189.65 39.1496 188.5C37.2496 181.5 35.2996 174.5 33.3996 167.55C32.9496 165.95 33.5996 164.8 35.1496 164.4C42.1996 162.55 49.2496 160.7 56.2996 158.9C57.4996 158.6 58.5996 159.05 59.1996 160.05C59.6496 160.85 59.5496 161.7 59.0996 162.45C57.7996 164.65 56.4996 166.9 55.2496 169.15C54.3496 170.65 54.6496 171.8 56.1496 172.75C66.6496 179.15 77.9996 183.15 90.1996 184.6C110.7 187.05 129.7 182.65 147.1 171.55C159.7 163.5 169.4 152.7 176.35 139.45C181.35 129.95 184.45 119.8 185.6 109.1C187.3 93.4 184.85 78.35 178.25 64C176.85 60.95 175.1 58.05 173.5 55.1C172.8 53.8 172.2 52.45 172.25 50.95C172.4 47.25 176.2 45.15 179.4 47C180.6 47.7 181.45 48.75 182.2 49.9C188.1 59.55 192.2 69.95 194.5 81.05C195.95 88.3 196.6 95.6 196.35 102.95C195.85 116.6 192.65 129.55 186.6 141.8C179.4 156.35 169.15 168.35 155.95 177.8C144.55 185.9 132 191.25 118.25 193.85C112.45 194.9 106.65 195.45 100.8 195.45Z" fill="#E8565C"/>
<path d="M100.65 159.95C99.4002 159.95 98.1502 159.95 96.9502 159.95C96.1502 159.95 96.0502 159.85 95.9502 159.1C95.6502 156.4 95.4002 153.7 95.1002 151C94.8502 148.6 94.6002 146.25 94.3502 143.85C94.2502 142.7 93.5502 141.95 92.3002 141.7C87.4502 140.75 82.9502 139 78.7502 136.5C78.1002 136.1 77.5002 135.7 76.9002 135.3C75.8002 134.6 74.8502 134.6 73.8502 135.45C70.0002 138.6 66.1502 141.75 62.3002 144.85C62.1502 144.95 62.0502 145.05 61.9002 145.2C61.5002 145.5 61.2002 145.45 60.8502 145.1C59.0502 143.25 57.2502 141.45 55.4002 139.65C54.9502 139.2 55.0002 138.9 55.3502 138.45C56.4502 137.1 57.5502 135.75 58.6502 134.4C60.7502 131.8 62.8502 129.25 64.9502 126.65C65.8002 125.6 65.8502 124.65 65.1002 123.5C62.0002 118.8 59.8502 113.75 58.7502 108.25C58.4502 106.75 57.8002 106.2 56.2502 106.05C51.3002 105.55 46.3502 105.05 41.4002 104.55C40.5502 104.45 40.4502 104.35 40.4502 103.5C40.4502 101 40.4502 98.4999 40.4502 95.9999C40.4502 95.2499 40.5502 95.0999 41.3002 95.0499C45.2002 94.6499 49.0502 94.2499 52.9502 93.8499C54.1502 93.7499 55.3502 93.5999 56.5502 93.4999C57.7002 93.3999 58.4502 92.7499 58.6502 91.5999C59.7502 85.9499 61.9502 80.6999 65.1502 75.8999C65.8002 74.9499 65.7002 73.9499 64.9502 72.9999C61.9002 69.2499 58.8002 65.4499 55.7502 61.6999C55.5502 61.4999 55.4002 61.2499 55.2002 60.9999C54.9002 60.5999 54.9002 60.2999 55.3002 59.9499C57.1002 58.1499 58.9002 56.3499 60.7502 54.5499C61.3002 53.9999 61.4502 53.9999 62.0502 54.4999C64.6002 56.5499 67.1002 58.6499 69.6502 60.6999C71.0502 61.8499 72.4502 62.9999 73.8502 64.0999C74.8502 64.8999 75.8002 64.9499 76.9002 64.2499C81.6002 61.0999 86.7502 58.9499 92.3002 57.8499C93.6502 57.5999 94.2502 56.8499 94.4002 55.4999C94.9002 50.4999 95.4002 45.4999 95.9502 40.4999C96.0502 39.7499 96.1502 39.6499 96.9502 39.6499C99.4502 39.6499 101.95 39.6499 104.45 39.6499C105.25 39.6499 105.35 39.7499 105.45 40.4999C105.9 44.7499 106.3 48.9999 106.75 53.2499C106.85 53.9999 106.9 54.7499 107 55.4999C107.15 56.8999 107.75 57.5999 109.1 57.8999C113.5 58.7499 117.6 60.2999 121.5 62.4499C122.5 62.9999 123.5 63.6499 124.45 64.2499C125.55 64.9499 126.5 64.8999 127.55 64.0999C131.45 60.9499 135.3 57.7499 139.2 54.5999C139.95 53.9999 140.05 53.9999 140.7 54.6499C142.45 56.3999 144.2 58.0999 145.9 59.8499C146.5 60.4499 146.5 60.5499 145.95 61.1999C142.8 65.0999 139.6 68.9499 136.45 72.8499C135.5 73.9999 135.5 74.8499 136.3 76.0999C139.4 80.7999 141.5 85.8999 142.6 91.3999C142.85 92.6999 143.6 93.3499 144.95 93.4999C149.95 93.9999 155 94.4999 160 95.0499C160.75 95.1499 160.85 95.2499 160.85 95.9999C160.85 98.4999 160.85 101.05 160.85 103.55C160.85 104.3 160.75 104.45 159.95 104.5C156.8 104.85 153.65 105.15 150.5 105.45C148.6 105.65 146.65 105.85 144.75 106.05C143.6 106.15 142.9 106.85 142.65 108.05C142 111.45 140.95 114.75 139.45 117.85C138.5 119.8 137.35 121.65 136.25 123.5C135.55 124.7 135.55 125.6 136.4 126.65C139.55 130.5 142.7 134.35 145.8 138.2C146.45 139.05 146.45 139.05 145.7 139.8C144 141.5 142.3 143.2 140.6 144.9C139.95 145.55 139.85 145.6 139.1 145C135.25 141.85 131.4 138.7 127.55 135.6C126.4 134.65 125.5 134.6 124.25 135.45C119.6 138.55 114.55 140.6 109.05 141.75C107.6 142.05 107.05 142.7 106.9 144.2C106.4 149.15 105.9 154.15 105.4 159.1C105.3 159.9 105.2 160 104.4 160C103.15 159.95 101.9 159.95 100.65 159.95ZM100.75 64.4999C81.2502 64.4999 65.4502 80.2499 65.4002 99.7499C65.3502 119.2 81.2002 135.1 100.6 135.1C120.15 135.1 135.95 119.3 136 99.7999C136 80.3499 120.2 64.4999 100.75 64.4999Z" fill="#E8565C"/>
<path d="M79.2498 99.85C79.4998 100 79.6998 100.15 79.8498 100.3C84.4998 104.95 89.0998 109.55 93.7498 114.2C94.1998 114.65 94.5998 115.15 94.6498 115.85C94.6998 116.8 94.1998 117.65 93.3998 118.1C92.4998 118.5 91.4998 118.35 90.7498 117.65C89.1498 116.05 87.5498 114.45 85.9498 112.85C82.1998 109.1 78.4498 105.35 74.6998 101.6C73.4998 100.4 73.4998 99.1 74.6998 97.95C79.9998 92.65 85.2998 87.35 90.5998 82.05C91.1998 81.45 91.8998 81.1 92.7998 81.25C93.6498 81.4 94.2998 81.9 94.5498 82.75C94.8498 83.65 94.6498 84.45 93.9498 85.15C92.6498 86.45 91.3498 87.75 90.0498 89.05C86.5998 92.5 83.1498 95.95 79.6998 99.4C79.5998 99.5 79.4998 99.6 79.2498 99.85Z" fill="#E8565C"/>
<path d="M122.15 99.7999C120.7 98.3499 119.3 96.9999 117.95 95.6499C114.45 92.1999 111 88.6999 107.5 85.2499C106.65 84.3999 106.45 83.2999 107 82.3499C107.8 80.9999 109.5 80.8499 110.65 81.9999C113 84.3499 115.35 86.6999 117.7 89.0499C120.65 91.9999 123.65 94.9999 126.6 97.9499C127.8 99.1499 127.8 100.4 126.6 101.6C121.3 106.9 116 112.2 110.7 117.5C109.9 118.3 108.9 118.55 107.95 118.1C107.1 117.7 106.5 116.75 106.7 115.85C106.8 115.3 107.1 114.7 107.5 114.3C112.15 109.6 116.85 104.95 121.5 100.25C121.7 100.1 121.9 99.9999 122.15 99.7999Z" fill="#E8565C"/>
<path d="M96.2501 119.75C96.5501 117.05 96.8501 114.25 97.1501 111.4C97.8501 105.05 98.5001 98.65 99.2001 92.3C99.6501 87.95 100.15 83.55 100.6 79.2C100.75 77.9 101.8 77 103.05 77.1C104.3 77.2 105.2 78.25 105.1 79.6C104.85 82.35 104.55 85.1 104.25 87.85C103.6 93.9 102.95 99.95 102.3 105.95C101.8 110.7 101.3 115.45 100.8 120.2C100.65 121.55 99.6001 122.45 98.3501 122.3C97.0501 122.3 96.2001 121.25 96.2501 119.75Z" fill="#E8565C"/>
</svg>
