<svg width="184" height="184" viewBox="0 0 184 184" fill="none" xmlns="http://www.w3.org/2000/svg">
<path d="M91.9499 140.85C81.8499 140.85 71.7999 140.85 61.6999 140.85C55.2499 140.85 50.8999 136.55 50.8999 130.15C50.8999 113.75 50.8999 97.3501 50.8999 81.0001C50.8999 76.0501 53.1499 72.7501 57.5999 70.7501C58.0999 70.5001 58.6499 69.8501 58.7499 69.3001C60.8999 51.0501 76.4499 38.1501 94.6999 39.4501C110.45 40.6001 123.6 53.2501 125.25 69.0001C125.35 70.0501 125.75 70.5501 126.7 70.9501C130.85 72.7501 133.1 75.9001 133.15 80.5001C133.15 97.2001 133.2 113.95 133.15 130.65C133.15 136.45 128.7 140.85 122.85 140.85C112.5 140.85 102.25 140.85 91.9499 140.85ZM91.9999 75.5501C81.9499 75.5501 71.9499 75.5501 61.8999 75.5501C58.2999 75.5501 56.2999 77.5501 56.2999 81.2001C56.2999 82.1501 56.3499 83.1501 56.2999 84.1001C56.2499 85.1001 56.6499 85.4001 57.5999 85.4001C60.1999 85.3501 62.7999 85.3501 65.3499 85.4001C66.6999 85.4001 68.0499 85.3501 69.3499 85.6001C70.9499 85.8501 71.6499 86.8501 71.5499 88.4501C71.4499 90.0501 70.3999 90.9501 68.3999 91.0001C64.8499 91.0501 61.2999 91.0501 57.6999 91.0001C56.5999 91.0001 56.1999 91.3501 56.1999 92.4501C56.2499 101.2 56.2499 109.9 56.1999 118.65C56.1999 119.7 56.5499 120.05 57.5999 120.05C59.9499 120 62.3499 120 64.6999 120.05C66.4999 120.1 67.6999 121.15 67.6999 122.75C67.7499 124.4 66.5499 125.55 64.6499 125.6C62.9999 125.65 61.2999 125.6 59.6499 125.6C56.1999 125.6 56.1999 125.6 56.1999 129.1C56.1999 133.7 57.9999 135.5 62.5499 135.5C82.1499 135.5 101.7 135.5 121.3 135.5C121.8 135.5 122.25 135.5 122.75 135.5C125.55 135.3 127.55 133.2 127.6 130.4C127.65 129.3 127.55 128.25 127.65 127.15C127.75 125.95 127.35 125.5 126.1 125.55C123.85 125.65 121.55 125.6 119.3 125.55C117.3 125.55 116.05 124.4 116.1 122.7C116.15 121.1 117.35 120 119.3 120C121.5 120 123.75 119.9 125.95 120C127.3 120.05 127.7 119.65 127.7 118.3C127.65 109.8 127.65 101.25 127.7 92.7501C127.7 91.3001 127.25 90.9001 125.85 90.9501C122.4 91.0501 118.95 91.0001 115.5 90.9501C113.25 90.9501 112.1 89.6501 112.4 87.6001C112.6 86.2001 113.75 85.4001 115.65 85.3501C118.4 85.3001 121.15 85.3501 123.9 85.3501C127.65 85.3501 127.65 85.3501 127.65 81.6501C127.65 77.3501 125.8 75.5501 121.55 75.5501C111.75 75.5501 101.85 75.5501 91.9999 75.5501ZM64.2499 70.0501C66.7999 70.0501 69.2999 69.9501 71.7499 70.1001C73.3999 70.2001 74.1499 69.7001 74.5999 68.0001C76.9999 58.7501 86.3499 53.0501 95.6499 55.1001C102.85 56.7001 107.5 61.1501 109.45 68.3001C109.85 69.7501 110.45 70.2001 111.85 70.1001C113.95 70.0001 116.05 70.1001 118.15 70.0501C118.65 70.0501 119.15 69.9501 119.65 69.9001C118.95 58.4001 108.65 45.0501 92.4499 44.8001C76.0499 44.5501 65.0999 57.8501 64.2499 70.0501ZM104 69.9501C103.7 64.7001 97.5999 60.1001 91.3499 60.2001C85.9499 60.3001 80.0499 65.3501 80.0499 69.9501C88.0499 69.9501 95.9999 69.9501 104 69.9501Z" fill="#E8565C"/>
<path d="M150.7 146.75C150.7 142.75 150.7 138.9 150.7 135.1C150.7 134.35 150.8 133.55 151.1 132.9C151.7 131.8 152.75 131.35 154 131.6C155.3 131.85 156.15 132.8 156.15 134.1C156.25 139.35 156.25 144.55 156.15 149.8C156.15 151.45 154.9 152.4 153.05 152.45C149.5 152.5 145.95 152.5 142.35 152.45C141.05 152.4 140.55 152.85 140.7 154.1C140.75 154.35 140.75 154.65 140.7 154.9C140.35 157.6 141.05 159.5 143.65 161.2C148.45 164.35 149.75 170.85 147.3 176.1C144.85 181.35 139.15 184.1 133.3 182.85C127.95 181.7 123.85 176.7 123.75 171.05C123.6 165.05 127.9 159.8 133.8 158.75C135 158.55 135.4 158.05 135.35 156.85C135.25 154.65 135.3 152.45 135.35 150.2C135.35 147.85 136.35 146.85 138.85 146.8C142.25 146.75 145.65 146.8 149.05 146.8C149.6 146.85 150.05 146.8 150.7 146.75ZM136.25 177.6C139.95 177.6 143.05 174.5 143.1 170.85C143.1 167.15 139.8 163.85 136.15 163.95C132.35 164 129.35 167.1 129.4 170.95C129.45 174.7 132.4 177.6 136.25 177.6Z" fill="#E8565C"/>
<path d="M33.4001 146.85C37.0501 146.85 40.55 146.85 44.05 146.85C48 146.85 48.6 147.45 48.6 151.45C48.6 153.3 48.65 155.1 48.6 156.95C48.55 158.1 48.95 158.55 50.1 158.75C55.85 159.75 59.95 164.5 60.2 170.35C60.45 176 56.7001 181.15 51.2001 182.7C45.1501 184.4 38.8001 181.35 36.4501 175.55C34.0501 169.7 36.3 163.05 41.8 160.05C42.9 159.45 43.35 158.75 43.25 157.5C43.15 156.25 43.2 155 43.25 153.8C43.3 152.75 42.9 152.4 41.85 152.4C38.35 152.45 34.85 152.45 31.35 152.4C28.8 152.4 27.85 151.45 27.8 148.85C27.8 144.1 27.8 139.35 27.8 134.6C27.8 133.3 28.25 132.1 29.5 131.8C30.35 131.6 31.65 131.7 32.3 132.25C32.95 132.8 33.3 134 33.3 134.95C33.4 138.6 33.35 142.3 33.35 145.95C33.3 146.2 33.3501 146.45 33.4001 146.85ZM54.6 170.85C54.6 167 51.5 163.9 47.75 163.95C44.15 164 40.9501 167.15 40.9001 170.8C40.8501 174.55 44.05 177.65 47.85 177.65C51.65 177.6 54.6 174.65 54.6 170.85Z" fill="#E8565C"/>
<path d="M39.2999 43.9501C39.2999 42.1001 39.2499 40.3001 39.2999 38.4501C39.3499 36.4501 40.3499 35.5001 42.2999 35.4501C45.8499 35.4501 49.4 35.4001 52.95 35.4501C54.25 35.5001 54.5999 35.0501 54.5499 33.8001C54.4499 31.6001 54.4499 29.4001 54.5499 27.1501C54.5999 25.9001 54.2 25.4001 52.9 25.1501C46.9 23.9501 42.9999 18.9501 43.0999 12.7001C43.1999 6.95013 47.45 2.05012 53.25 1.00012C59.25 -0.0498751 64.9 3.20012 67 8.90012C69.0499 14.4501 66.8499 20.7501 61.6999 23.7001C60.3999 24.4501 60.0499 25.2501 60.0999 26.6001C60.1999 30.2001 60.1499 33.8001 60.0999 37.4501C60.0999 39.8501 59.15 40.7501 56.75 40.8001C53.25 40.8001 49.75 40.8501 46.25 40.8001C45.05 40.8001 44.6 41.2501 44.65 42.4001C44.7 44.7001 44.7 47.0501 44.65 49.3501C44.6 51.3501 43.5499 52.4001 41.8499 52.3501C40.2499 52.3001 39.25 51.2001 39.2 49.3501C39.25 47.6501 39.2999 45.8001 39.2999 43.9501ZM55.5499 6.45012C51.7499 6.45012 48.5999 9.55012 48.5999 13.3001C48.5999 16.9001 51.85 20.1001 55.45 20.1501C59.2 20.2001 62.35 17.0001 62.3 13.2001C62.3 9.45013 59.2999 6.45012 55.5499 6.45012Z" fill="#E8565C"/>
<path d="M123.8 31.8502C123.8 30.0002 123.7 28.2002 123.85 26.3502C123.9 25.1502 123.45 24.5502 122.45 23.9502C118.2 21.5002 116.05 17.7002 116.2 12.8502C116.35 7.75021 118.9 3.90021 123.7 1.90021C128.45 -0.0997901 132.95 0.650211 136.8 4.10021C140.5 7.40021 141.7 11.7002 140.45 16.4502C139.15 21.3002 135.85 24.2502 130.95 25.3002C129.85 25.5502 129.4 25.9002 129.45 27.1002C129.55 29.3502 129.55 31.6502 129.45 33.9002C129.4 35.1502 129.75 35.6002 131.05 35.5502C134.5 35.4502 137.95 35.5002 141.4 35.5002C143.8 35.5002 144.7 36.4502 144.75 38.8502C144.75 42.3502 144.8 45.8502 144.75 49.3502C144.75 51.3502 143.75 52.4502 142.05 52.5002C140.35 52.5502 139.35 51.4502 139.3 49.4502C139.25 47.4002 139.3 45.3502 139.3 43.3002C139.3 40.9502 139.3 40.9502 136.85 40.9502C133.55 40.9502 130.25 40.9502 127 40.9502C124.9 40.9502 123.95 40.0002 123.9 37.9002C123.8 35.8502 123.8 33.8502 123.8 31.8502ZM128.45 6.45021C124.65 6.45021 121.65 9.45021 121.65 13.2002C121.65 17.0002 124.8 20.1502 128.5 20.1502C132.15 20.1002 135.3 16.9002 135.35 13.3002C135.45 9.55021 132.3 6.45021 128.45 6.45021Z" fill="#E8565C"/>
<path d="M32.1 94.8002C30.25 94.8002 28.45 94.8502 26.6 94.8002C25.65 94.7502 25.2 95.0502 24.85 96.0002C22.7 101.9 17.7 104.95 11.45 104.25C6.10001 103.7 1.70001 99.1002 0.900006 93.3502C0.100006 87.4502 4.15001 81.6502 10.1 80.1002C16.1 78.5002 22.35 81.6002 24.55 87.4502C25.1 88.9502 25.8 89.3502 27.3 89.3502C30.7 89.2502 34.1 89.3002 37.5 89.3002C39.75 89.3002 40.85 90.2502 40.8 92.1002C40.8 93.9002 39.7 94.8002 37.55 94.8002C35.8 94.8002 33.95 94.8002 32.1 94.8002ZM6.45001 92.0002C6.45001 95.7502 9.45001 98.8502 13.15 98.9002C16.85 98.9502 20.1 95.7502 20.1 92.0502C20.1 88.3502 16.85 85.1502 13.15 85.1502C9.45001 85.2002 6.45001 88.2502 6.45001 92.0002Z" fill="#E8565C"/>
<path d="M151.9 89.2502C153.75 89.2502 155.55 89.2002 157.4 89.2502C158.35 89.3002 158.8 89.0002 159.15 88.0502C161.3 82.2002 166.3 79.1002 172.55 79.8002C177.85 80.3502 182.2 84.8002 183.05 90.5502C183.95 96.4002 179.95 102.3 174.05 103.95C168 105.6 161.65 102.55 159.4 96.6502C158.85 95.1502 158.15 94.7502 156.65 94.7502C153.25 94.8502 149.85 94.8002 146.45 94.8002C144.2 94.8002 143.1 93.8502 143.15 92.0002C143.15 90.2002 144.25 89.3002 146.4 89.3002C148.2 89.2502 150.05 89.2502 151.9 89.2502ZM177.6 92.0502C177.6 88.3002 174.6 85.2002 170.9 85.1502C167.2 85.1002 163.95 88.3002 163.9 92.0002C163.9 95.7002 167.15 98.9002 170.85 98.9002C174.55 98.9002 177.55 95.8002 177.6 92.0502Z" fill="#E8565C"/>
<path d="M170.3 34.2002C170.3 30.5502 170.25 26.8502 170.3 23.2002C170.3 22.0502 170 21.4002 168.85 20.9502C163.9 19.0002 161.35 13.9502 162.55 8.90019C163.75 3.90019 168.4 0.500193 173.4 0.900193C178.7 1.35019 182.7 5.40019 183.1 10.7002C183.4 14.8502 181.1 18.9002 177.1 20.7002C176 21.2002 175.75 21.8002 175.75 22.9002C175.8 30.4002 175.8 37.9002 175.75 45.3502C175.75 47.3502 174.9 48.4502 173.35 48.6002C171.5 48.7502 170.35 47.7002 170.3 45.7002C170.25 41.8502 170.3 38.0502 170.3 34.2002ZM172.95 6.45019C170.1 6.35019 167.85 8.45019 167.75 11.2502C167.65 13.8502 170 16.2002 172.65 16.2502C175.25 16.3002 177.5 14.1002 177.55 11.4502C177.65 8.75019 175.6 6.55019 172.95 6.45019Z" fill="#E8565C"/>
<path d="M13.7001 149.75C13.7001 153.45 13.7001 157.2 13.7001 160.9C13.7001 161.95 13.9501 162.6 15.1001 163.05C20.1001 165.05 22.6501 169.95 21.5001 175.05C20.3501 180 15.8501 183.45 10.8501 183.15C5.60006 182.85 1.50006 178.95 0.900061 173.6C0.450061 169.4 2.85006 165.2 6.95006 163.3C7.95006 162.85 8.25006 162.25 8.25006 161.2C8.20006 153.7 8.20006 146.2 8.25006 138.75C8.25006 136.8 9.00006 135.7 10.4001 135.45C12.3501 135.15 13.6501 136.3 13.7001 138.4C13.7501 142.2 13.7001 146 13.7001 149.75ZM11.2501 177.6C14.0001 177.6 16.2001 175.45 16.2501 172.7C16.3001 170.1 13.9001 167.75 11.3001 167.75C8.65006 167.75 6.45006 170.05 6.45006 172.75C6.45006 175.5 8.55006 177.6 11.2501 177.6Z" fill="#E8565C"/>
<path d="M175.45 149.95C175.45 153.65 175.5 157.4 175.45 161.1C175.45 162.15 175.7 162.7 176.75 163.15C182.25 165.5 184.6 171.4 182.3 176.85C180.1 182.05 174.1 184.5 168.8 182.4C163.45 180.25 160.9 174.4 163 168.9C164 166.3 165.75 164.35 168.3 163.35C169.65 162.8 170 162.05 170 160.7C169.95 153.35 169.95 146.05 170 138.7C170 136.65 170.85 135.6 172.35 135.45C174.15 135.25 175.4 136.35 175.45 138.35C175.45 142.2 175.45 146.1 175.45 149.95ZM177.55 172.8C177.55 170.05 175.35 167.8 172.7 167.8C170.1 167.8 167.8 170.05 167.75 172.6C167.7 175.4 169.9 177.65 172.75 177.65C175.45 177.6 177.55 175.5 177.55 172.8Z" fill="#E8565C"/>
<path d="M8.54993 34.0502C8.54993 30.4002 8.49993 26.7002 8.59993 23.0502C8.59993 21.8502 8.24993 21.2502 7.14993 20.7502C1.44993 18.3002 -0.750069 11.6002 2.19993 6.25017C5.19993 0.850168 12.1499 -0.799832 17.2499 2.70017C22.2999 6.15017 23.3499 13.1502 19.3999 17.8502C18.4499 19.0002 17.0999 20.0002 15.6999 20.6502C14.3499 21.2502 14.0499 22.0002 14.0499 23.3502C14.0999 30.6002 14.0999 37.9002 14.0499 45.1502C14.0499 47.2502 13.2999 48.3502 11.7999 48.5502C9.94993 48.8502 8.59993 47.7002 8.59993 45.6502C8.54993 41.8002 8.54993 37.9502 8.54993 34.0502ZM6.44993 11.3002C6.44993 14.0002 8.64993 16.3002 11.2999 16.3002C13.8999 16.3002 16.1999 14.0502 16.2499 11.5002C16.2999 8.70017 14.0499 6.50017 11.2499 6.50017C8.54993 6.45017 6.44993 8.60017 6.44993 11.3002Z" fill="#E8565C"/>
<path d="M94.8001 157.6C94.8001 157.85 94.8501 158.15 94.8001 158.4C94.5001 160.95 94.8501 162.8 97.7501 164.2C102.1 166.35 103.55 172 101.75 176.6C100 181.05 95.1501 183.85 90.6001 183.05C85.3501 182.15 81.8501 178.25 81.7001 173.1C81.6001 168.6 83.7501 165 87.9001 163.25C89.0501 162.75 89.3501 162.1 89.3501 160.95C89.2501 158.65 89.3001 156.3 89.3501 154C89.3501 151.95 90.4501 150.7 92.1001 150.7C93.8001 150.7 94.8501 151.95 94.8501 154C94.8001 155.2 94.7501 156.4 94.8001 157.6ZM92.0501 177.6C94.8001 177.6 96.9501 175.35 96.9001 172.65C96.8501 170 94.5001 167.75 91.9001 167.8C89.2501 167.85 87.0001 170.2 87.0001 172.8C87.1001 175.5 89.3001 177.6 92.0501 177.6Z" fill="#E8565C"/>
<path d="M89.25 24.5002C89.25 24.3002 89.2 24.0502 89.25 23.8502C89.55 22.1502 88.9 21.2502 87.25 20.4502C82.65 18.3002 80.55 13.0002 82.1 8.15015C83.6 3.35015 88.45 0.200154 93.2 0.900154C98.6 1.70015 102.25 5.70015 102.4 10.9002C102.5 15.4002 100.3 18.9502 96.2 20.7502C95.1 21.2002 94.7 21.8002 94.8 22.9002C94.9 24.0002 94.85 25.1502 94.8 26.3002C94.75 28.2002 93.6 29.4002 92 29.4002C90.4 29.4002 89.35 28.1502 89.25 26.2502C89.2 25.7002 89.25 25.1002 89.25 24.5002ZM92.05 6.45015C89.3 6.45015 87.1 8.55015 87.05 11.2502C87 13.9002 89.3 16.2002 91.95 16.2502C94.6 16.3002 96.9 14.0002 96.95 11.3502C96.95 8.65016 94.8 6.45015 92.05 6.45015Z" fill="#E8565C"/>
<path d="M149.85 62.3501C153.5 62.3501 157.15 62.3501 160.85 62.3501C163.05 62.3501 164.15 63.2501 164.2 65.0001C164.25 66.8001 163.1 67.9001 160.95 67.9501C153.55 68.0001 146.2 68.0001 138.8 67.9501C136.6 67.9501 135.4 66.9001 135.45 65.1001C135.45 63.3501 136.65 62.4001 138.9 62.3501C142.5 62.3501 146.2 62.3501 149.85 62.3501Z" fill="#E8565C"/>
<path d="M34.3999 62.3502C38.0999 62.3502 41.8499 62.3502 45.5499 62.3502C47.7999 62.3502 48.8999 63.3502 48.8999 65.1502C48.8999 66.9002 47.7999 67.9002 45.6499 67.9002C38.1999 67.9502 30.7999 67.9502 23.3499 67.9002C21.2499 67.9002 20.1499 66.8002 20.1499 65.0502C20.1999 63.2502 21.2499 62.3002 23.3999 62.3002C27.0499 62.3502 30.7499 62.3502 34.3999 62.3502Z" fill="#E8565C"/>
<path d="M30.3 121.7C27.9 121.7 25.45 121.7 23.05 121.7C21 121.65 19.9 120.75 19.85 119.05C19.8 117.25 20.9 116.15 22.95 116.1C27.85 116.05 32.75 116.05 37.65 116.1C39.9 116.1 41 117.2 40.9 119C40.85 120.75 39.75 121.65 37.6 121.65C35.1 121.7 32.7 121.7 30.3 121.7Z" fill="#E8565C"/>
<path d="M153.35 121.7C150.85 121.7 148.4 121.7 145.9 121.7C143.9 121.65 142.8 120.7 142.8 119C142.75 117.3 143.85 116.15 145.8 116.15C150.8 116.1 155.8 116.1 160.8 116.15C162.8 116.15 163.85 117.3 163.85 118.95C163.85 120.75 162.75 121.7 160.6 121.7C158.2 121.7 155.75 121.7 153.35 121.7Z" fill="#E8565C"/>
<path d="M175.45 122.75C175.45 124.05 175.5 125.35 175.45 126.6C175.35 128.25 174.2 129.35 172.65 129.3C171.2 129.25 170.1 128.2 170.05 126.6C170 124.05 170 121.55 170.05 119C170.1 117.25 171.15 116.15 172.65 116.1C174.25 116.05 175.4 117.2 175.45 119C175.45 120.3 175.45 121.55 175.45 122.75Z" fill="#E8565C"/>
<path d="M8.55005 61.2501C8.55005 59.9501 8.50005 58.6501 8.55005 57.4001C8.65005 55.7501 9.80006 54.6501 11.3501 54.7001C12.8001 54.7501 13.9001 55.8501 13.9501 57.4501C14.0001 60.0001 14.0001 62.5001 13.9501 65.0501C13.9001 66.8001 12.8001 67.9001 11.3001 67.9001C9.70005 67.9001 8.60005 66.7501 8.55005 65.0001C8.55005 63.7501 8.55005 62.5001 8.55005 61.2501Z" fill="#E8565C"/>
<path d="M13.7 122.75C13.7 124.05 13.75 125.35 13.7 126.6C13.6 128.2 12.55 129.3 11.1 129.35C9.54995 129.4 8.34995 128.3 8.29995 126.65C8.24995 124.05 8.24995 121.5 8.29995 118.9C8.34995 117.2 9.49995 116.15 11.1 116.2C12.55 116.2 13.65 117.3 13.75 118.9C13.75 120.15 13.7 121.45 13.7 122.75Z" fill="#E8565C"/>
<path d="M175.75 61.2002C175.75 62.5502 175.8 63.9002 175.75 65.2502C175.65 66.8502 174.55 67.9002 173.05 67.9002C171.6 67.9502 170.4 66.8502 170.35 65.3002C170.3 62.6502 170.3 60.0002 170.35 57.4002C170.4 55.8002 171.55 54.7002 173 54.7002C174.55 54.7002 175.65 55.8002 175.75 57.5002C175.8 58.7002 175.75 59.9502 175.75 61.2002Z" fill="#E8565C"/>
<path d="M89.2501 112.8C89.2501 112.55 89.2001 112.25 89.2501 112C89.5001 110.5 89.0001 109.65 87.4501 109C82.7001 106.85 80.5001 101.5 82.1001 96.5002C83.6001 91.8002 88.5001 88.6502 93.3001 89.4002C98.8001 90.2502 102.4 94.3001 102.4 99.6002C102.4 104.2 100.2 107.4 96.1001 109.25C95.0501 109.7 94.7501 110.25 94.8001 111.3C94.9001 112.5 94.8501 113.65 94.8001 114.85C94.7001 116.7 93.7001 117.8 92.0501 117.85C90.4001 117.85 89.3501 116.8 89.2501 114.95C89.2001 114.2 89.2501 113.5 89.2501 112.8ZM92.0001 94.8002C89.3001 94.8002 87.0501 97.0001 87.0501 99.7001C87.0501 102.3 89.4001 104.65 91.9501 104.7C94.5501 104.7 96.9001 102.35 96.9001 99.7502C96.9501 97.0502 94.7001 94.8002 92.0001 94.8002Z" fill="#E8565C"/>
<path d="M78.6 125.45C77.8 125.45 77 125.55 76.2 125.45C74.75 125.2 73.95 124.3 73.95 122.8C73.95 121.25 74.75 120.3 76.2 120.1C77.8 119.9 79.4 119.95 81 120.1C82.35 120.25 83.15 121.2 83.2 122.65C83.25 124.15 82.45 125.1 81 125.4C80.25 125.55 79.4 125.5 78.6 125.55C78.6 125.55 78.6 125.5 78.6 125.45Z" fill="#E8565C"/>
<path d="M105.35 125.5C104.6 125.5 103.85 125.6 103.1 125.5C101.65 125.25 100.85 124.3 100.8 122.85C100.8 121.35 101.65 120.35 103.05 120.15C104.6 119.95 106.15 119.95 107.7 120.1C109.25 120.25 110.05 121.35 110.05 122.85C110.05 124.3 109.15 125.35 107.6 125.5C106.85 125.6 106.1 125.5 105.35 125.5Z" fill="#E8565C"/>
</svg>
