<svg width="192" height="172" viewBox="0 0 192 172" fill="none" xmlns="http://www.w3.org/2000/svg">
<path d="M52.65 59.8C52.65 59.15 52.65 58.65 52.65 58.2C52.65 50.15 52.7999 42.05 52.5999 34C52.4499 27.95 54.75 23.05 58.95 18.95C63.5 14.5 68.95 11.55 74.8 9.14998C83.8 5.44998 93.15 3.39998 102.75 2.14998C111.2 1.04998 119.65 0.749985 128.1 1.04999C142.2 1.59999 156 3.69999 169.2 8.89998C175.05 11.25 180.6 14.2 185.2 18.6C188.45 21.7 190.9 25.35 191.6 29.9C191.7 30.7 191.75 31.5 191.75 32.3C191.75 63.55 191.75 94.8 191.75 126C191.75 131 189.55 135 186.3 138.55C182.35 142.8 177.45 145.7 172.25 148.05C163.55 152 154.35 154.25 144.95 155.7C135.2 157.2 125.4 157.7 115.55 157.15C109.45 156.8 103.35 155.95 97.25 155.3C96.4 155.2 95.75 155.3 95.1 155.95C93.2999 157.85 91.45 159.65 89.6 161.5C88 163.1 86.25 163.15 84.55 161.7C82.1 159.6 79.6 157.45 77.2 155.3C76.6499 154.8 76.2 154.8 75.55 155.1C73.6 156 71.6 156.8 69.6 157.6C69 157.85 68.75 158.1 68.7 158.75C68.5 161.9 68.25 165.1 68 168.25C67.8 170.95 66.6499 172 63.9499 172C58.5999 172 53.1999 172 47.8499 172C45.2999 172 44.2 170.95 44 168.4C43.75 165.25 43.5 162.05 43.2999 158.9C43.25 158.15 43 157.8 42.25 157.5C40.25 156.75 38.3 155.95 36.4 155.05C35.75 154.75 35.3999 154.8 34.8499 155.25C32.4499 157.4 30 159.45 27.5499 161.55C25.6999 163.15 24 163.05 22.25 161.35C18.45 157.5 14.6 153.7 10.8 149.85C8.94995 148 8.94995 146.35 10.65 144.4C12.7 142 14.6999 139.6 16.7999 137.25C17.25 136.7 17.3499 136.3 17.0499 135.6C16.15 133.65 15.35 131.65 14.6 129.65C14.35 129 14.1 128.7 13.4 128.7C10.1 128.5 6.74995 128.2 3.44995 127.9C1.34995 127.7 0.249951 126.45 0.199951 124.35C0.199951 118.7 0.199951 113.1 0.199951 107.45C0.199951 105.2 1.39995 103.95 3.69995 103.8C6.89995 103.55 10.1 103.3 13.3 103.1C13.95 103.05 14.3 102.85 14.55 102.15C15.3 100.1 16.15 98.1 17.0499 96.1C17.3499 95.5 17.3 95.1 16.85 94.55C14.75 92.15 12.7 89.75 10.65 87.3C8.94995 85.35 8.99995 83.75 10.8 81.9C14.65 77.95 18.55 74.05 22.45 70.15C23.95 68.65 25.75 68.6 27.35 69.95C29.9 72.1 32.4 74.3 34.9 76.45C35.4 76.9 35.75 76.9 36.3499 76.65C38.3999 75.75 40.45 74.95 42.5 74.05C42.8499 73.9 43.25 73.45 43.25 73.1C43.5499 69.7 43.7999 66.35 44.0999 62.95C44.25 60.9 45.55 59.7 47.65 59.7C49.2 59.8 50.85 59.8 52.65 59.8ZM122.25 56.75C125.05 56.75 127.9 56.85 130.7 56.75C140.6 56.25 150.4 54.8 159.9 51.9C166.2 50 172.2 47.55 177.6 43.7C179.95 42 182 40.1 183.55 37.65C185.7 34.2 185.7 30.7 183.6 27.2C182.3 25.05 180.6 23.35 178.65 21.85C174.6 18.65 170 16.4 165.2 14.6C155.35 10.9 145.1 9.04999 134.65 8.19999C119.6 6.99999 104.75 7.79998 90.05 11.35C82.9 13.05 76.0499 15.4 69.7 19.25C66.1499 21.4 62.95 23.85 60.8 27.5C58.95 30.7 58.95 33.95 60.75 37.2C61.95 39.35 63.65 41.15 65.55 42.7C70.45 46.65 76.1 49.2 82.05 51.15C95.05 55.4 108.55 56.95 122.25 56.75ZM105.2 110.45C104.85 110.4 104.7 110.35 104.5 110.35C101.5 110.1 98.55 109.9 95.55 109.65C93.25 109.45 92.4 108.7 91.8 106.55C90.95 103.3 89.7 100.2 87.95 97.25C86.6499 95.05 86.75 94 88.4 92C90.45 89.6 92.45 87.2 94.4 84.9C91.75 82.25 89.2 79.65 86.55 77.05C86.3 77.25 86 77.55 85.7 77.8C83.5 79.7 81.35 81.6 79.15 83.5C77.65 84.8 76.35 84.9 74.65 83.9C71.6 82.1 68.3999 80.8 64.95 79.9C63.25 79.45 62.3499 78.4 62.1999 76.65C61.9499 73.65 61.7 70.6 61.55 67.6C61.5 66.8 61.2999 66.55 60.4499 66.55C57.4499 66.6 54.45 66.6 51.45 66.55C50.6 66.55 50.2999 66.8 50.25 67.65C50.0499 70.65 49.7999 73.6 49.5999 76.6C49.4499 78.45 48.6499 79.45 46.8499 79.95C43.3499 80.85 40.0999 82.25 37 84.05C35.45 84.95 34 84.85 32.65 83.7C30.5 81.85 28.4 80.05 26.25 78.2C25.85 77.85 25.5 77.55 25.25 77.35C22.5499 80 20 82.55 17.35 85.15C19.45 87.6 21.6 90.1 23.7 92.6C24.95 94.05 25.1 95.35 24.1 97C22.25 100.15 20.9 103.45 20 107C19.6 108.5 18.65 109.4 17.1 109.6C16.6 109.65 16.1 109.7 15.55 109.75C12.65 109.95 9.74995 110.2 6.79995 110.4C6.79995 114.15 6.79995 117.8 6.79995 121.55C9.99995 121.8 13.1 122.05 16.25 122.3C18.6 122.45 19.5 123.15 20.1 125.45C20.95 128.8 22.2999 131.95 24.0499 134.95C25.0999 136.7 24.95 138 23.6 139.55C21.75 141.75 19.85 143.95 18 146.15C17.75 146.45 17.5 146.75 17.35 146.95C20 149.6 22.6 152.15 25.2 154.75C27.6 152.65 30.0499 150.55 32.5 148.45C33.95 147.2 35.25 147.05 36.9 148C40.05 149.85 43.3499 151.25 46.8499 152.15C48.5999 152.6 49.3999 153.65 49.5499 155.45C49.75 158.45 50 161.4 50.2 164.4C50.25 165.2 50.4499 165.55 51.3499 165.55C54.3499 165.5 57.3499 165.5 60.3499 165.55C61.1499 165.55 61.3999 165.3 61.4499 164.5C61.6499 161.45 61.8999 158.45 62.0999 155.45C62.25 153.7 63.1 152.65 64.8 152.2C68.3 151.3 71.55 149.95 74.65 148.1C76.35 147.1 77.65 147.25 79.15 148.55C80.65 149.85 82.15 151.15 83.65 152.4C84.65 153.25 85.65 154.1 86.4 154.8C89.1 152.15 91.65 149.6 94.3 147C92.25 144.6 90.15 142.15 88.05 139.65C86.75 138.1 86.6 136.8 87.65 135.05C89.45 132 90.75 128.8 91.65 125.35C92.15 123.45 93.2 122.6 95.15 122.45C98.15 122.25 101.1 122 104.1 121.75C104.4 121.7 104.95 121.35 104.95 121.1C105.25 117.5 105.2 114 105.2 110.45ZM59.45 46.3C59.45 50.95 59.45 55.35 59.45 59.85C61 59.85 62.45 59.85 63.9 59.85C66.7 59.85 67.85 60.9 68.05 63.75C68.3 66.9 68.5499 70 68.7 73.15C68.75 73.8 69 74.1 69.6 74.3C71.5499 75.05 73.5499 75.85 75.45 76.75C76.1499 77.05 76.55 76.95 77.05 76.5C79.5 74.35 81.95 72.2 84.4 70.1C86.1 68.65 87.85 68.7 89.4 70.25C93.35 74.2 97.3 78.15 101.25 82.1C102.6 83.45 102.75 84.7 101.95 86.4C101.9 86.55 101.8 86.7 101.7 86.95C102 87 102.2 87.05 102.4 87.1C106.2 87.45 109.95 87.9 113.75 88.1C126.4 88.75 138.95 88.05 151.35 85.55C159.2 83.95 166.8 81.75 173.95 78.05C177.85 76.05 181.45 73.65 184.25 70.2C184.8 69.5 185.05 68.8 185.05 67.9C185 61.05 185.05 54.25 185.05 47.4C185.05 47.1 185 46.8 184.95 46.35C184.7 46.55 184.55 46.65 184.4 46.75C180.55 50.15 176.2 52.7 171.5 54.75C160.55 59.55 149 61.9 137.15 63.05C127.3 64 117.45 64 107.6 63.1C98.4 62.25 89.3 60.6 80.5 57.75C73.55 55.45 66.8999 52.5 61.0999 47.85C60.6999 47.3 60.15 46.85 59.45 46.3ZM185.1 110.15C184.75 110.4 184.6 110.45 184.45 110.55C179.75 114.15 174.55 116.7 169.05 118.75C155.75 123.65 141.9 125.65 127.85 126.1C122.8 126.25 117.7 126 112.6 125.95C112.2 125.95 111.6 126.2 111.35 126.5C110.65 127.35 109.8 127.9 108.65 127.95C105.35 128.2 102.05 128.5 98.7 128.7C98 128.75 97.7 129 97.45 129.65C96.7 131.65 95.9 133.65 95 135.6C94.7 136.25 94.7 136.65 95.2 137.25C97.1 139.4 98.9 141.65 100.85 143.8C102.3 145.4 103.2 147.05 101.95 149.2C102.3 149.3 102.5 149.4 102.7 149.4C106.65 149.75 110.55 150.25 114.5 150.45C126.3 151.05 138 150.4 149.6 148.1C157.6 146.5 165.4 144.25 172.65 140.4C176.2 138.5 179.5 136.3 182.1 133.2C184.1 130.85 185.2 128.2 185.15 125C185.05 120.45 185.1 115.95 185.1 111.4C185.1 111.1 185.1 110.75 185.1 110.15ZM185.1 78.85C184.75 79.1 184.6 79.15 184.45 79.3C180.2 82.6 175.45 85 170.45 86.95C157.35 92.05 143.7 94.15 129.8 94.8C119 95.3 108.25 94.8 97.6 93.1C96.75 92.95 96.2 93.15 95.75 93.85C95.55 94.15 95.2 94.4 95.1 94.7C94.95 95.1 94.7999 95.6 94.95 95.95C95.7999 98.15 96.7 100.3 97.65 102.4C97.8 102.75 98.35 103.15 98.7 103.2C101.8 103.5 104.9 103.7 108 103.9C110.85 104.1 112 105.25 111.95 108.1C111.95 111.45 111.95 114.8 111.95 118.2C111.95 118.95 112.15 119.25 112.9 119.25C114.05 119.25 115.15 119.4 116.3 119.4C128.7 119.8 141 119 153.1 116.35C160.75 114.7 168.2 112.4 175.15 108.6C178.65 106.7 181.9 104.45 184.35 101.3C184.8 100.7 185.1 99.85 185.1 99.15C185.15 94.35 185.15 89.5 185.15 84.7C185.1 82.85 185.1 81 185.1 78.85Z" fill="#E8565C"/>
<path d="M55.8999 140.15C42.6499 140.1 31.7999 129.2 31.8499 115.95C31.8499 102.6 42.7499 91.8 56.0999 91.8C69.5999 91.85 80.2499 102.65 80.1999 116.25C80.1499 129.4 69.1999 140.15 55.8999 140.15ZM56.0999 98.5C46.4999 98.45 38.6499 106.25 38.5499 115.8C38.4499 125.4 46.3499 133.35 55.9499 133.4C65.4999 133.45 73.3999 125.65 73.4499 116.15C73.5499 106.4 65.7999 98.55 56.0999 98.5Z" fill="#E8565C"/>
<path d="M170.65 59.45C172.8 59.45 174.95 59.45 177.2 59.45C177.2 63.55 177.2 67.65 177.2 71.8C175.05 71.8 172.9 71.8 170.65 71.8C170.65 67.65 170.65 63.6 170.65 59.45Z" fill="#E8565C"/>
<path d="M166.45 76.95C164.3 76.95 162.15 76.95 159.9 76.95C159.9 72.85 159.9 68.75 159.9 64.6C162.05 64.6 164.2 64.6 166.45 64.6C166.45 68.7 166.45 72.8 166.45 76.95Z" fill="#E8565C"/>
<path d="M170.65 121.25C172.85 121.25 174.95 121.25 177.2 121.25C177.2 125.35 177.2 129.45 177.2 133.6C175 133.6 172.9 133.6 170.65 133.6C170.65 129.5 170.65 125.4 170.65 121.25Z" fill="#E8565C"/>
<path d="M166.45 137.55C164.25 137.55 162.15 137.55 159.95 137.55C159.95 133.45 159.95 129.35 159.95 125.15C162.1 125.15 164.25 125.15 166.45 125.15C166.45 129.25 166.45 133.35 166.45 137.55Z" fill="#E8565C"/>
<path d="M170.6 103.3C170.6 99.15 170.6 95.1 170.6 91C172.8 91 174.95 91 177.2 91C177.2 95.1 177.2 99.15 177.2 103.3C175.05 103.3 172.85 103.3 170.6 103.3Z" fill="#E8565C"/>
<path d="M159.9 107.2C159.9 103.1 159.9 99.05 159.9 94.9C162.1 94.9 164.25 94.9 166.5 94.9C166.5 98.95 166.5 103.05 166.5 107.2C164.35 107.2 162.15 107.2 159.9 107.2Z" fill="#E8565C"/>
</svg>
