<svg width="200" height="201" viewBox="0 0 200 201" fill="none" xmlns="http://www.w3.org/2000/svg">
<path d="M75.4999 134.7C72.2499 131.45 69.0999 128.3 65.7999 125C67.2499 123.05 68.7999 120.95 70.3499 118.95C70.9999 118.1 71.1499 117.5 70.5999 116.45C69.5499 114.4 68.6499 112.2 67.9499 110C67.5999 108.9 67.0499 108.5 65.9999 108.4C63.4999 108.1 60.9999 107.7 58.3999 107.35C58.3999 102.85 58.3999 98.4 58.3999 93.75C60.9499 93.4 63.4999 92.95 65.9999 92.65C67.0999 92.5 67.5999 92.1 67.9499 91.05C68.6999 88.8 69.7999 86.65 70.6499 84.4C70.8499 83.85 70.8499 82.95 70.4999 82.45C68.9999 80.2 67.2999 78.1 65.7999 76.05C69.0499 72.8 72.1999 69.65 75.4499 66.35C77.4499 67.85 79.5499 69.5 81.6999 71C82.2499 71.35 83.1999 71.45 83.7999 71.25C86.0999 70.4 88.3499 69.5 90.5999 68.45C91.1999 68.15 91.8499 67.45 91.9499 66.8C92.4499 64.25 92.7499 61.7 93.0999 59C97.5999 59 102.05 59 106.7 59C107.05 61.55 107.5 64.05 107.8 66.6C107.95 67.65 108.3 68.2 109.4 68.55C111.6 69.3 113.75 70.2 115.85 71.2C116.8 71.65 117.4 71.7 118.2 71.05C120.25 69.4 122.4 67.85 124.4 66.4C127.65 69.65 130.8 72.8 134.1 76.1C132.65 78.05 131.15 80.15 129.55 82.15C128.8 83.1 128.85 83.8 129.35 84.8C130.35 86.75 131.2 88.8 131.85 90.9C132.25 92.15 132.85 92.55 134.05 92.7C136.5 92.95 138.9 93.4 141.45 93.75C141.45 98.25 141.45 102.7 141.45 107.35C138.9 107.7 136.4 108.15 133.85 108.45C132.8 108.6 132.25 108.95 131.9 110.05C131.2 112.2 130.35 114.3 129.3 116.35C128.8 117.4 128.75 118.1 129.5 119C131.1 121 132.6 123.1 134.1 125.05C130.8 128.3 127.65 131.45 124.35 134.7C122.5 133.35 120.5 131.95 118.6 130.35C117.55 129.45 116.75 129.35 115.45 130.05C113.5 131.1 111.45 131.9 109.35 132.55C108.25 132.9 107.85 133.45 107.75 134.5C107.45 137 107.05 139.5 106.7 142.1C102.2 142.1 97.7499 142.1 93.0999 142.1C92.7499 139.55 92.2999 137.05 91.9999 134.5C91.8499 133.4 91.4999 132.9 90.3999 132.55C88.2999 131.85 86.2499 131.1 84.2999 130.05C82.9999 129.35 82.1999 129.5 81.1499 130.35C79.3499 131.9 77.3499 133.3 75.4999 134.7ZM104.1 138.95C104.45 136.45 104.75 134.05 105.25 131.65C105.35 131.05 106.05 130.35 106.65 130.1C109.8 128.7 113.05 127.5 116.15 126.05C117.1 125.6 117.65 125.55 118.45 126.2C120.35 127.7 122.35 129.15 124.1 130.45C126.15 128.45 128 126.6 130 124.7C128.65 122.85 127.25 120.95 125.75 119.05C125.05 118.2 125.1 117.6 125.6 116.55C127.05 113.55 128.35 110.5 129.45 107.35C129.85 106.2 130.3 105.75 131.45 105.6C133.8 105.3 136.15 104.95 138.65 104.55C138.65 102.2 138.6 100 138.65 97.8C138.7 96.65 138.25 96.3 137.15 96.15C135.2 95.95 133.3 95.55 131.35 95.35C130.25 95.2 129.85 94.7 129.5 93.65C128.35 90.45 127 87.35 125.55 84.3C125.1 83.3 125.15 82.75 125.75 82C127.25 80.1 128.65 78.1 129.95 76.35C127.95 74.3 126.1 72.45 124.15 70.5C122.25 71.9 120.25 73.35 118.35 74.85C117.6 75.45 117.05 75.35 116.2 74.95C113.15 73.55 110 72.15 106.85 71.05C105.7 70.65 105.25 70.15 105.1 69.05C104.8 66.7 104.45 64.35 104.1 62C101.25 62 98.6499 62 95.8999 62C95.5499 64.45 95.1499 66.8 94.8999 69.2C94.7499 70.25 94.2999 70.7 93.2499 71.05C90.0999 72.15 87.0499 73.4 84.0499 74.85C82.9499 75.35 82.3499 75.4 81.3999 74.7C79.5499 73.2 77.5999 71.85 75.8499 70.5C73.7999 72.5 71.9499 74.35 69.9999 76.3C71.3499 78.15 72.7499 80.1 74.2499 81.95C74.9499 82.8 74.8999 83.4 74.3999 84.45C72.9499 87.45 71.6499 90.5 70.5499 93.65C70.1499 94.8 69.6999 95.25 68.5499 95.4C66.1999 95.7 63.8499 96.05 61.3499 96.45C61.3499 98.95 61.2999 101.3 61.3999 103.6C61.3999 104 62.0499 104.65 62.4499 104.75C64.4999 105.15 66.5499 105.45 68.5999 105.65C69.6499 105.8 70.0999 106.25 70.4499 107.3C71.5499 110.45 72.8499 113.5 74.2499 116.5C74.7499 117.6 74.7999 118.2 74.0999 119.15C72.5999 121 71.2499 122.95 69.9499 124.7C71.9499 126.7 73.8499 128.55 75.7999 130.5C77.5499 129.2 79.4999 127.8 81.3999 126.3C82.2499 125.6 82.8499 125.7 83.8999 126.15C86.8999 127.6 89.9499 128.9 93.0999 130C94.2499 130.4 94.6999 130.85 94.8499 132C95.1499 134.35 95.4999 136.7 95.8499 139.2C98.2999 139.2 100.55 139.2 102.8 139.2C103.25 139.1 103.6 139.05 104.1 138.95Z" fill="#E8565C"/>
<path d="M101.5 37.2C100.4 37.2 99.5499 37.2 98.4499 37.2C98.4499 34.75 98.3999 32.4 98.4499 30C98.4999 28.85 98.1499 28.4 96.9999 28.05C91.3999 26.5 87.9499 21.15 88.7499 15.65C89.5999 9.95002 94.3499 5.90002 99.9999 5.90002C105.65 5.95002 110.4 10.1 111.15 15.8C111.9 21.25 108.45 26.5 102.95 28.05C101.65 28.4 101.4 29 101.45 30.15C101.55 32.5 101.5 34.8 101.5 37.2ZM99.9999 25.35C104.55 25.35 108.2 21.7 108.15 17.2C108.15 12.8 104.55 9.15002 100.1 9.10002C95.6499 9.05002 91.8999 12.7 91.8499 17.2C91.7999 21.7 95.4499 25.35 99.9999 25.35Z" fill="#E8565C"/>
<path d="M163.3 102C163.3 100.95 163.3 100.1 163.3 98.9501C165.55 98.9501 167.8 98.8501 170.05 99.0001C171.45 99.0501 172.1 98.6501 172.5 97.2001C174.15 91.5001 179.9 88.2501 185.7 89.5001C191.4 90.7501 195.2 96.1001 194.5 101.85C193.75 107.7 188.75 112 182.8 111.75C177.95 111.55 173.75 108.3 172.45 103.5C172.1 102.25 171.55 101.95 170.4 101.95C168.05 102.05 165.75 102 163.3 102ZM183.3 108.65C187.8 108.6 191.45 104.9 191.45 100.4C191.4 95.9501 187.6 92.2501 183.15 92.3501C178.7 92.4501 175.15 96.0501 175.15 100.5C175.15 105.05 178.8 108.65 183.3 108.65Z" fill="#E8565C"/>
<path d="M36.6999 99C36.6999 100.1 36.6999 100.95 36.6999 102.05C34.2499 102.05 31.8499 102.1 29.4999 102.05C28.3499 102 27.8999 102.4 27.5999 103.55C26.0499 109.05 20.7999 112.5 15.3499 111.75C9.64992 110.95 5.49992 106.3 5.44992 100.6C5.39992 94.9 9.44992 90.2 15.1499 89.35C20.5499 88.5 25.9499 91.95 27.4999 97.4C27.8499 98.7 28.3499 99.15 29.6999 99.05C31.9499 98.9 34.1999 99 36.6999 99ZM24.8499 100.45C24.7999 95.9 21.1499 92.3 16.5999 92.35C12.1999 92.4 8.49992 96.1 8.49992 100.45C8.49992 104.95 12.1499 108.65 16.6499 108.65C21.2499 108.65 24.8499 105 24.8499 100.45Z" fill="#E8565C"/>
<path d="M98.4499 163.8C99.5499 163.8 100.4 163.8 101.5 163.8C101.5 166.25 101.55 168.6 101.5 171C101.45 172.15 101.8 172.6 102.95 172.95C108.55 174.55 112 179.85 111.15 185.35C110.25 191.05 105.6 195.1 99.8999 195.1C94.2999 195.05 89.6999 191.05 88.7999 185.4C87.9499 179.9 91.3999 174.6 96.9999 173C98.1499 172.7 98.5499 172.25 98.4999 171.1C98.3999 168.7 98.4499 166.35 98.4499 163.8ZM99.9999 175.65C95.4499 175.65 91.7999 179.3 91.7999 183.8C91.7999 188.3 95.5499 192 99.9999 191.95C104.45 191.9 108.05 188.3 108.1 183.85C108.2 179.35 104.55 175.65 99.9999 175.65Z" fill="#E8565C"/>
<path d="M149.9 152.25C148.8 151.3 147.7 150.35 146.65 149.4C145.6 148.45 144.6 147.5 143.5 146.5C144.4 145.7 145.15 145.1 146.1 144.3C147.85 146.2 149.8 148.35 151.65 150.4C158.1 146.45 164.85 148.05 168.35 153.35C171.35 157.9 170.5 164.2 166.45 167.85C162.4 171.5 156.25 171.7 152 168.45C148.2 165.45 145.65 159.3 149.9 152.25ZM158.8 167.55C163.3 167.6 167 163.95 167.05 159.5C167.1 155 163.45 151.3 159 151.25C154.55 151.2 150.8 154.9 150.75 159.35C150.65 163.75 154.3 167.5 158.8 167.55Z" fill="#E8565C"/>
<path d="M54.1 144C55 144.85 55.65 145.5 56.6 146.4C54.35 148.4 52.2 150.35 50.55 151.8C51.25 154.8 52.15 157.05 52.25 159.4C52.5 164.55 49.15 168.85 44.25 170.25C39.35 171.7 34.1 169.7 31.45 165.35C28.85 161.15 29.4 155.5 32.75 151.85C36.15 148.15 41.65 147 46.05 149.4C47.7 150.3 48.55 149.95 49.65 148.7C51 147.1 52.55 145.65 54.1 144ZM41.15 167.55C45.65 167.55 49.3 163.85 49.3 159.35C49.3 154.9 45.55 151.2 41.1 151.2C36.65 151.2 32.95 154.9 32.95 159.4C32.95 163.9 36.6 167.55 41.15 167.55Z" fill="#E8565C"/>
<path d="M56.4 54.6C55.55 55.4 54.85 56.05 53.95 56.95C52.05 54.85 50.1 52.7 48.15 50.55C45 52.65 41.85 53.35 38.5 52.6C32.05 51.1 28.35 44.45 30.4 38.1C32.4 31.9 39.3 28.75 45.4 31.2C51.45 33.65 54.2 40.75 51.15 46.6C50.35 48.1 50.4 48.95 51.7 50.05C53.35 51.45 54.8 53.05 56.4 54.6ZM41.15 33.45C36.65 33.4 32.95 37.05 32.9 41.55C32.85 46 36.5 49.75 41 49.8C45.45 49.85 49.2 46.15 49.25 41.7C49.35 37.25 45.65 33.5 41.15 33.45Z" fill="#E8565C"/>
<path d="M151.9 50.7C149.95 52.8 148 54.85 145.95 57.05C145.15 56.1 144.5 55.35 143.7 54.35C145.65 52.6 147.8 50.65 149.8 48.85C146.4 40.95 147.45 35.5 152.75 32.1C157.25 29.2 163.45 29.95 167.1 33.9C170.8 37.9 171.1 44.15 167.8 48.5C164.2 53.25 158.45 54.1 151.9 50.7ZM158.85 33.45C154.4 33.45 150.7 37.15 150.7 41.65C150.7 46.1 154.45 49.85 158.9 49.8C163.35 49.8 167.05 46.05 167.05 41.6C167 37.1 163.35 33.45 158.85 33.45Z" fill="#E8565C"/>
<path d="M40.1499 101.85C40.1499 100.9 40.1499 100.1 40.1499 99.1C42.2999 99.1 44.3999 99.1 46.6999 99.1C46.6999 99.95 46.6999 100.85 46.6999 101.85C44.5499 101.85 42.3499 101.85 40.1499 101.85Z" fill="#E8565C"/>
<path d="M153.2 101.85C153.2 100.9 153.2 100.05 153.2 99.1C155.4 99.1 157.5 99.1 159.7 99.1C159.7 100 159.7 100.85 159.7 101.85C157.65 101.85 155.55 101.85 153.2 101.85Z" fill="#E8565C"/>
<path d="M98.5499 47.25C98.5499 45.05 98.5499 43 98.5499 40.75C99.4999 40.75 100.4 40.75 101.4 40.75C101.4 42.9 101.4 45 101.4 47.25C100.45 47.25 99.5999 47.25 98.5499 47.25Z" fill="#E8565C"/>
<path d="M98.6499 153.75C99.5499 153.75 100.4 153.75 101.4 153.75C101.4 155.9 101.4 158 101.4 160.25C100.5 160.25 99.6499 160.25 98.6499 160.25C98.6499 158.15 98.6499 156 98.6499 153.75Z" fill="#E8565C"/>
<path d="M61.6999 137.3C62.0499 137.7 62.6499 138.4 63.2999 139.2C61.7499 140.65 60.1999 142.1 58.4999 143.65C58.0999 143.1 57.4999 142.35 56.8999 141.55C58.2499 140.35 59.8999 138.9 61.6999 137.3Z" fill="#E8565C"/>
<path d="M136.6 139.05C137.25 138.4 137.9 137.7 138.6 137C140.2 138.7 141.6 140.25 143.2 142C142.65 142.45 141.9 143.05 141.15 143.65C139.75 142.2 138.2 140.7 136.6 139.05Z" fill="#E8565C"/>
<path d="M138.35 63.65C138 63.2 137.4 62.5 136.8 61.7C138.25 60.4 139.8 58.95 141.5 57.35C141.95 57.8 142.6 58.4 143.3 59.05C141.6 60.6 140.05 62.05 138.35 63.65Z" fill="#E8565C"/>
<path d="M56.7999 58.9001C57.2499 58.4001 57.8999 57.8 58.5999 57.05C60.1999 58.75 61.6499 60.3 63.2499 62.05C62.6499 62.45 61.8999 62.95 60.9999 63.5C59.8499 62.25 58.3999 60.6501 56.7999 58.9001Z" fill="#E8565C"/>
<path d="M101.45 50.8C101.45 51.85 101.45 52.7001 101.45 53.7001C100.5 53.7001 99.6 53.7001 98.6 53.7001C98.6 52.7501 98.6 51.8 98.6 50.8C99.5 50.8 100.35 50.8 101.45 50.8Z" fill="#E8565C"/>
<path d="M101.35 150.2C100.45 150.2 99.6 150.2 98.6 150.2C98.6 149.2 98.6 148.3 98.6 147.3C99.5 147.3 100.35 147.3 101.35 147.3C101.35 148.15 101.35 149.05 101.35 150.2Z" fill="#E8565C"/>
<path d="M134.35 64.4C134.8 64.95 135.4 65.65 136.2 66.6C135.55 67.1 134.85 67.65 133.9 68.35C133.4 67.75 132.8 67.05 132.1 66.15C132.75 65.65 133.45 65.1 134.35 64.4Z" fill="#E8565C"/>
<path d="M65.5999 68.4C65.0999 67.85 64.45 67.2 63.7 66.35C64.5 65.7 65.1999 65.1 66.0999 64.35C66.5499 65 67.05 65.75 67.75 66.75C67.25 67.05 66.4999 67.65 65.5999 68.4Z" fill="#E8565C"/>
<path d="M50.2999 99.1C51.2999 99.1 52.1999 99.1 53.1999 99.1C53.1999 100.05 53.1999 100.9 53.1999 101.9C52.2499 101.9 51.2999 101.9 50.2999 101.9C50.2999 100.95 50.2999 100.05 50.2999 99.1Z" fill="#E8565C"/>
<path d="M146.8 101.85C146.8 101 146.8 100.15 146.8 99.15C147.75 99.15 148.65 99.15 149.65 99.15C149.65 99.95 149.65 100.8 149.65 101.85C148.8 101.85 147.85 101.85 146.8 101.85Z" fill="#E8565C"/>
<path d="M67.9499 134.85C67.3499 135.45 66.6999 136.05 65.8499 136.85C65.1499 136 64.5499 135.3 63.7499 134.35C64.3499 133.9 65.0999 133.3 65.9999 132.6C66.5499 133.2 67.1499 133.95 67.9499 134.85Z" fill="#E8565C"/>
<path d="M134.2 132.45C134.9 133.2 135.5 133.85 136.1 134.5C135.35 135.15 134.65 135.8 133.8 136.55C133.3 136.05 132.65 135.45 131.8 134.65C132.65 133.85 133.35 133.25 134.2 132.45Z" fill="#E8565C"/>
<path d="M100.1 123.85C100.1 122.85 100.1 122 100.1 121.15C115.2 119.9 121 107.75 120.35 99.3C119.5 88.5 110.9 80.3 100.4 80C91.2999 79.75 80.2999 86.3 79.3499 100.3C78.4499 100.3 77.5499 100.3 76.6499 100.3C75.4499 93.5 80.9999 84 88.4999 79.85C97.2999 75 108.45 76.3 115.75 83.05C123.35 90.05 125.55 100.9 121.35 110.25C117.6 118.6 108.2 124.65 100.1 123.85Z" fill="#E8565C"/>
<path d="M99.8499 110.75C94.0999 110.7 89.5499 106.1 89.6499 100.35C89.7499 94.55 94.2999 90.15 100.1 90.2C105.8 90.25 110.25 94.8 110.2 100.5C110.2 106.3 105.65 110.8 99.8499 110.75ZM92.7499 100.55C92.7499 104.5 96.0999 107.75 99.9999 107.7C103.85 107.65 107.1 104.4 107.15 100.55C107.2 96.65 103.85 93.3 99.9499 93.3C95.9999 93.3 92.7499 96.6 92.7499 100.55Z" fill="#E8565C"/>
<path d="M100 22.7001C96.95 22.7001 94.45 20.2001 94.45 17.2001C94.45 14.2001 97.05 11.6501 100.05 11.7001C103 11.7501 105.45 14.2001 105.5 17.1501C105.55 20.1501 103.05 22.7001 100 22.7001ZM102.35 17.1501C102.3 15.8501 101.2 14.7501 99.9 14.8501C98.5 14.9501 97.75 15.7501 97.65 17.1501C97.6 18.4501 98.7 19.5501 100 19.5501C101.3 19.5501 102.35 18.4501 102.35 17.1501Z" fill="#E8565C"/>
<path d="M188.8 100.55C188.75 103.55 186.2 106.1 183.2 106.05C180.15 106 177.7 103.45 177.8 100.4C177.85 97.45 180.35 95 183.3 95C186.3 94.95 188.8 97.5 188.8 100.55ZM183.1 102.85C184.4 102.95 185.55 101.9 185.6 100.6C185.65 99.3 184.6 98.15 183.3 98.15C181.9 98.15 181.1 98.95 180.9 100.3C180.75 101.55 181.85 102.75 183.1 102.85Z" fill="#E8565C"/>
<path d="M22.1999 100.55C22.1499 103.6 19.6499 106.1 16.5999 106.05C13.5499 106 11.0499 103.35 11.1499 100.4C11.2499 97.45 13.6999 95 16.6499 95C19.6999 94.95 22.2499 97.5 22.1999 100.55ZM16.6499 102.85C17.9499 102.9 19.0999 101.8 19.0499 100.5C18.9999 99.1 18.1999 98.3 16.8499 98.15C15.5499 98 14.3999 99.1 14.3499 100.4C14.2999 101.7 15.3499 102.85 16.6499 102.85Z" fill="#E8565C"/>
<path d="M100 189.3C97 189.3 94.45 186.75 94.45 183.75C94.45 180.7 97 178.25 100.05 178.3C103.05 178.35 105.45 180.75 105.5 183.75C105.55 186.75 103 189.3 100 189.3ZM102.35 183.8C102.35 182.5 101.25 181.4 99.95 181.45C98.55 181.55 97.75 182.35 97.65 183.7C97.55 185 98.65 186.1 99.95 186.15C101.25 186.15 102.35 185.1 102.35 183.8Z" fill="#E8565C"/>
<path d="M164.35 159.45C164.3 162.55 161.9 164.9 158.75 164.85C155.7 164.8 153.4 162.45 153.4 159.4C153.4 156.3 155.85 153.9 158.9 153.9C162 153.9 164.35 156.35 164.35 159.45ZM158.9 161.75C160.15 161.75 161.3 160.55 161.25 159.3C161.2 158.05 160 156.9 158.75 157C157.4 157.15 156.6 158 156.5 159.35C156.4 160.6 157.65 161.8 158.9 161.75Z" fill="#E8565C"/>
<path d="M41.1499 164.85C37.9999 164.85 35.6499 162.5 35.6499 159.4C35.6499 156.35 37.9499 154 40.9999 153.9C44.0999 153.85 46.5999 156.2 46.5999 159.3C46.6499 162.4 44.2499 164.85 41.1499 164.85ZM41.0999 157C39.8499 157 38.6999 158.2 38.7499 159.45C38.7999 160.7 39.9999 161.85 41.2499 161.75C42.5999 161.6 43.3999 160.8 43.4999 159.45C43.5499 158.15 42.3499 157 41.0999 157Z" fill="#E8565C"/>
<path d="M35.6499 41.55C35.6499 38.4 38.0499 36.1 41.1999 36.15C44.2499 36.2 46.5999 38.55 46.5999 41.55C46.5999 44.65 44.1999 47.1 41.0999 47.1C37.9999 47.1 35.5999 44.7 35.6499 41.55ZM43.4499 41.7C43.4999 40.45 42.3499 39.25 41.0999 39.25C39.8499 39.25 38.5999 40.45 38.6999 41.65C38.7999 43 39.5499 43.85 40.9499 44C42.2499 44.1 43.4499 42.95 43.4499 41.7Z" fill="#E8565C"/>
<path d="M158.9 36.15C162.05 36.15 164.35 38.5 164.35 41.65C164.35 44.7 162 47.05 158.95 47.05C155.85 47.1 153.4 44.7 153.4 41.6C153.35 38.55 155.75 36.15 158.9 36.15ZM158.95 43.95C160.25 43.9 161.4 42.75 161.25 41.45C161.1 40.1 160.3 39.3 158.9 39.2C157.65 39.1 156.5 40.35 156.5 41.6C156.5 42.9 157.65 44 158.95 43.95Z" fill="#E8565C"/>
</svg>
