<svg width="186" height="186" viewBox="0 0 186 186" fill="none" xmlns="http://www.w3.org/2000/svg">
<path d="M97.9 185.65C94.1 184.35 92.65 181.65 92.85 177.7C93 174.1 92.85 170.45 92.85 166.85C92.85 166.75 92.7999 166.65 92.85 166.8C87.65 166.8 82.5499 166.85 77.45 166.8C73.75 166.75 71.2 164.9 69.8 161.45C68.95 159.4 68.2 157.25 67.25 155.25C66.95 154.6 66.2 153.9 65.55 153.7C58.95 151.9 52.65 149.35 46.7 145.9C46.1 145.55 45.1 145.5 44.4 145.75C42.2 146.55 40.05 147.55 37.9 148.45C34.85 149.7 31.9 149.4 29.5 147.1C26.25 144.05 23.0999 140.85 20.0499 137.65C17.75 135.2 17.45 132.3 18.7 129.25C19.55 127.15 20.6 125.05 21.35 122.9C21.6 122.15 21.6 121.1 21.25 120.45C17.7999 114.5 15.2 108.25 13.45 101.6C13.25 100.9 12.55 100.15 11.9 99.85C9.74995 98.85 7.54995 98.1 5.34995 97.2C2.19995 95.85 0.449951 93.5 0.399951 90.05C0.299951 85.7 0.299951 81.35 0.399951 77.05C0.499951 73.7 2.19995 71.35 5.29995 70.05C7.49995 69.1 9.79995 68.3 12 67.3C12.6 67 13.25 66.35 13.45 65.7C15.2 59 17.85 52.7 21.35 46.7C21.7 46.15 21.7 45.2 21.5 44.55C20.65 42.3 19.6 40.1 18.7 37.85C17.5 34.85 17.7999 31.95 20.0499 29.6C23.15 26.3 26.35 23.1 29.65 20C32.05 17.75 34.9 17.45 37.9 18.65C40 19.5 42.0999 20.55 44.25 21.3C45.0499 21.55 46.1999 21.55 46.8499 21.15C52.6999 17.8 58.85 15.2 65.35 13.55C66.5 13.25 67.1 12.7 67.45 11.65C68.25 9.50001 69.1 7.35001 70 5.25001C71.3 2.20001 73.65 0.450012 77 0.400012C81.35 0.300012 85.7 0.300012 90 0.400012C93.4 0.450012 95.7999 2.25001 97.1 5.35001C98 7.50001 98.8 9.75001 99.75 11.9C100.05 12.55 100.8 13.25 101.5 13.4C108.1 15.15 114.25 17.75 120.2 21.1C120.9 21.5 122.05 21.55 122.8 21.3C124.95 20.55 127 19.5 129.15 18.65C132.2 17.4 135.15 17.75 137.55 20.05C140.8 23.1 143.95 26.3 147 29.5C149.25 31.9 149.55 34.75 148.4 37.75C147.7 39.55 146.95 41.25 146.05 43.35C147.1 43.35 147.8 43.35 148.5 43.35C158.15 43.35 167.85 43.45 177.5 43.3C181.4 43.25 184.2 44.4 185.6 48.15C185.6 92.25 185.6 136.4 185.6 180.5C184.75 183.05 183.05 184.75 180.5 185.6C153.05 185.65 125.45 185.65 97.9 185.65ZM116.8 43.4C116.85 43.25 116.9 43.1 116.95 43C116.45 42.6 116 42.15 115.5 41.8C99.25 30.05 81.6499 27.45 63.0999 35.1C40.2999 44.45 27.5 67.7 31.5 92C34.4 109.7 44.2499 122.6 60.1999 130.8C67.3999 134.5 75.15 136.1 83.25 136.3C85.4 136.35 86.7 137.75 86.6 139.55C86.5 141.25 85.15 142.4 83 142.3C80.3 142.2 77.5499 142.1 74.85 141.7C34.45 135.5 12.5 91.35 31.95 55.5C43.4 34.4 66.9 22.3 90.5 25.3C104.05 27 115.65 32.7 125.3 42.3C125.85 42.85 126.7 43.25 127.45 43.3C131 43.4 134.6 43.3 138.15 43.35C139.15 43.35 139.65 43 140.05 42.05C140.85 39.95 141.9 37.95 142.6 35.85C142.85 35.05 142.65 33.7 142.15 33.15C139.55 30.3 136.75 27.65 134 24.9C133.1 24 132.2 23.9 131.05 24.45C128.45 25.6 125.85 26.65 123.25 27.8C121.75 28.45 120.4 28.45 118.95 27.5C112.5 23.4 105.5 20.55 98 18.85C96.5 18.5 95.55 17.7 95 16.3C93.95 13.6 92.85 10.95 91.8 8.20001C91.35 7.05001 90.7 6.40001 89.4 6.40001C85.5 6.45001 81.55 6.45001 77.65 6.40001C76.45 6.40001 75.8 7.00001 75.4 8.10001C74.35 10.8 73.2 13.45 72.2 16.2C71.6499 17.7 70.65 18.5 69.05 18.85C61.6 20.5 54.65 23.35 48.25 27.45C46.75 28.4 45.3499 28.45 43.7999 27.75C41.25 26.6 38.7 25.6 36.15 24.45C34.95 23.9 34 23.95 33.0499 24.9C30.4 27.6 27.7 30.3 25 32.95C24.0499 33.9 24 34.85 24.5499 36.05C25.6999 38.55 26.6999 41.15 27.8499 43.7C28.5499 45.25 28.5 46.65 27.5499 48.15C23.4499 54.55 20.6 61.5 18.95 68.95C18.6 70.5 17.75 71.5 16.25 72.05C13.55 73.1 10.9 74.2 8.14995 75.25C7.04995 75.65 6.44995 76.3 6.44995 77.5C6.44995 81.25 6.49995 85 6.39995 88.7C6.34995 90.45 7.19995 91.3 8.74995 91.85C11.25 92.75 13.7 93.8 16.15 94.75C17.65 95.3 18.5 96.25 18.85 97.85C20.5 105.35 23.4 112.35 27.5499 118.8C28.4499 120.2 28.5 121.6 27.7999 123.1C26.65 125.7 25.6 128.35 24.45 130.9C23.95 132.05 24.05 132.95 24.95 133.85C27.65 136.5 30.35 139.2 33 141.95C33.95 142.9 34.8999 143 36.0999 142.45C38.6499 141.3 41.2 140.3 43.75 139.15C45.2999 138.45 46.7 138.45 48.2 139.4C54.5499 143.5 61.45 146.3 68.85 147.95C70.65 148.35 71.7 149.3 72.3 151C73.25 153.6 74.25 156.2 75.45 158.7C75.7999 159.45 76.75 160.35 77.45 160.35C81.5499 160.5 85.65 160.45 89.75 160.4C90.35 160.4 91.25 159.85 91.4 159.35C92.05 157.6 92.8 155.8 92.8 154C92.9 119.55 92.9 85.1 92.9 50.65C92.9 45.4 95.1 43.2 100.4 43.2C105 43.2 109.6 43.2 114.2 43.2C115.05 43.4 115.95 43.4 116.8 43.4ZM179.15 114.4C179.15 93.75 179.15 73.05 179.15 52.4C179.15 49.8 179.15 49.8 176.55 49.8C151.7 49.8 126.85 49.8 102.05 49.8C99.4 49.8 99.4 49.8 99.4 52.4C99.4 93.7 99.4 134.95 99.4 176.25C99.4 179.1 99.5 179.15 102.4 179.15C127 179.15 151.6 179.15 176.2 179.15C179.15 179.15 179.2 179.1 179.2 176.05C179.15 155.5 179.15 134.95 179.15 114.4Z" fill="#E8565C"/>
<path d="M105 114.6C105 101.45 105 88.25 105 75.1C105 71.25 106.45 69.55 110.2 68.7C114.9 67.65 118.05 64.95 119.15 60.1C119.8 57.25 121.85 55.45 124.85 55.45C134.45 55.4 144.05 55.35 153.65 55.45C156.7 55.5 158.6 57.25 159.35 60.3C160.4 64.75 163.25 67.4 167.6 68.5C172.35 69.65 173.45 71.05 173.45 75.9C173.45 101.75 173.45 127.6 173.45 153.5C173.45 157.95 172.1 159.55 167.8 160.5C163.45 161.5 160.5 164.05 159.4 168.5C158.5 172.15 156.75 173.55 153 173.55C143.8 173.55 134.65 173.55 125.45 173.55C121.8 173.55 120 172.15 119.1 168.65C117.95 164.05 114.95 161.45 110.4 160.5C106.45 159.7 105 157.9 105 153.85C105 140.7 105 127.65 105 114.6ZM111.45 114.4C111.45 126.9 111.45 139.4 111.45 151.9C111.45 153.05 111.5 153.85 112.95 154.25C119.05 155.9 123.15 159.75 125.2 165.8C125.4 166.35 126.25 166.95 126.8 167C135.1 167.1 143.35 167.05 151.65 167.05C152.65 167.05 153.1 166.7 153.4 165.7C155.35 159.7 159.45 155.95 165.5 154.3C166.75 153.95 167.1 153.4 167.1 152.2C167.05 127.05 167.05 101.95 167.1 76.8C167.1 75.5 166.65 75.05 165.45 74.7C159.55 73 155.4 69.35 153.45 63.4C153.1 62.3 152.55 62 151.5 62.05C143.3 62.1 135.05 62.1 126.85 62.05C125.85 62.05 125.4 62.35 125.05 63.35C123.2 69.15 119.25 72.9 113.45 74.55C111.7 75.05 111.4 75.85 111.4 77.45C111.5 89.75 111.45 102.1 111.45 114.4Z" fill="#E8565C"/>
<path d="M161.05 114.5C161 126.4 151.25 136.2 139.35 136.25C127.4 136.3 117.5 126.4 117.5 114.45C117.5 102.35 127.35 92.7 139.55 92.75C151.3 92.8 161.05 102.7 161.05 114.5ZM139.3 99.4C130.8 99.4 124.15 105.9 124.1 114.35C124.05 122.9 130.7 129.7 139.05 129.7C147.65 129.7 154.3 123.05 154.3 114.45C154.35 106 147.75 99.4 139.3 99.4Z" fill="#E8565C"/>
<path d="M139.4 68.05C144.55 68.1 148.7 72.35 148.65 77.45C148.55 82.65 144.25 86.8 139 86.7C134 86.6 129.8 82.3 129.85 77.35C129.9 72.15 134.15 68 139.4 68.05ZM142 77.4C142.05 75.9 140.85 74.6 139.35 74.55C137.95 74.5 136.55 75.8 136.5 77.2C136.45 78.85 137.6 80.05 139.25 80.05C140.85 80.05 141.95 78.95 142 77.4Z" fill="#E8565C"/>
<path d="M139.35 161C134.3 161.05 129.95 156.85 129.85 151.75C129.75 146.65 134 142.3 139.25 142.25C144.25 142.15 148.65 146.55 148.65 151.55C148.65 156.65 144.45 160.95 139.35 161ZM142 151.55C141.95 150 140.75 148.85 139.2 148.85C137.6 148.85 136.4 150.15 136.5 151.8C136.6 153.35 137.8 154.45 139.4 154.4C140.95 154.3 142.05 153.1 142 151.55Z" fill="#E8565C"/>
</svg>
